<svg viewBox="0 0 40 40" xmlns="http://www.w3.org/2000/svg" xmlns:xlink="http://www.w3.org/1999/xlink" width="40.000000" height="40.000000" fill="none">
	<rect id="动作菜单" width="40.000000" height="40.000000" x="0.000000" y="0.000000" />
	<path id="矢量 734" d="M6.24255 20.1744C6.6383 20.7605 7.09827 21.3032 7.62243 21.8027C7.94678 22.1117 8.44446 22.0998 8.75354 21.7754C9.0625 21.4511 9.05053 20.9534 8.72619 20.6444C8.28698 20.2258 7.90137 19.771 7.56958 19.2798C7.23462 18.784 6.95434 18.2513 6.72888 17.6816C6.52038 17.1547 6.36767 16.6179 6.27087 16.0713C6.1521 15.4008 6.11743 14.7154 6.16675 14.0152C6.24878 12.8501 6.53235 11.7866 7.01721 10.8245C7.48547 9.8956 8.14148 9.06134 8.98523 8.32171C9.85778 7.55685 10.8014 7.00717 11.8158 6.67264C12.7958 6.34949 13.8419 6.22708 14.9542 6.30548C15.6377 6.35361 16.2949 6.4812 16.9263 6.6882C17.4913 6.8735 18.0355 7.1224 18.5587 7.43497C19.0537 7.73056 19.5084 8.06967 19.923 8.4523C20.4073 8.89929 20.8369 9.40567 21.2115 9.97143C21.459 10.3449 21.9468 10.444 22.3203 10.1967C22.6938 9.94925 22.793 9.46142 22.5455 9.08792C22.1039 8.42105 21.5981 7.82324 21.0283 7.29446C20.5279 6.8302 19.9783 6.41916 19.3793 6.06134C18.7468 5.68359 18.089 5.38351 17.406 5.16107C16.6567 4.91705 15.8769 4.76651 15.0668 4.70941C14.3483 4.65881 13.6412 4.68509 12.9456 4.78824C12.3536 4.87604 11.7701 5.01947 11.1947 5.21857C10.6492 5.40735 10.128 5.64008 9.63147 5.91669C9.02844 6.25256 8.46142 6.65317 7.93054 7.11853C7.43884 7.5495 6.99731 8.01916 6.60608 8.52743C6.22742 9.01941 5.89563 9.54754 5.61096 10.1119C5.34644 10.6364 5.1311 11.1757 4.96497 11.7298C4.75476 12.4305 4.62341 13.1548 4.57068 13.9027C4.51282 14.7239 4.55225 15.5283 4.68884 16.3157C4.80383 16.9793 4.98804 17.6308 5.24121 18.2705C5.50977 18.9491 5.84363 19.5838 6.24255 20.1744ZM19.3511 34.9616L11.9567 14.2571C11.8289 13.8996 11.8003 13.5642 11.8706 13.2512C11.941 12.9382 12.1105 12.6474 12.3789 12.3789C12.6475 12.1104 12.9382 11.941 13.2512 11.8706C13.5643 11.8002 13.8995 11.8289 14.2572 11.9566L34.9617 19.3511C35.166 19.424 35.347 19.5253 35.5047 19.6548C35.6277 19.7557 35.7364 19.8737 35.831 20.0089C35.9226 20.1395 35.9947 20.2771 36.0476 20.4218C36.1103 20.5934 36.146 20.7748 36.1545 20.9662C36.1629 21.1575 36.1437 21.3414 36.0964 21.5178C36.0566 21.6666 35.9969 21.8101 35.9175 21.9483C35.8351 22.0914 35.7373 22.2186 35.6239 22.33C35.4781 22.4731 35.3069 22.59 35.1098 22.6808L26.6699 26.572C26.6476 26.5823 26.6283 26.5956 26.6119 26.6119Q26.6112 26.6127 26.6105 26.6134Q26.5869 26.6374 26.572 26.6699L22.6809 35.1099C22.5901 35.3068 22.4731 35.4782 22.3301 35.6238C22.2186 35.7372 22.0914 35.8351 21.9484 35.9174C21.8102 35.9969 21.6666 36.0565 21.5178 36.0964C21.3414 36.1436 21.1575 36.163 20.9662 36.1544C20.7748 36.1459 20.5934 36.1103 20.4219 36.0476C20.2771 35.9947 20.1395 35.9225 20.0089 35.8311C19.8738 35.7364 19.7557 35.6276 19.6549 35.5047C19.5253 35.3469 19.4241 35.1659 19.3511 34.9616ZM20.925 34.5197L20.9253 34.5199C20.9552 34.542 20.9925 34.554 21.0373 34.556C21.082 34.558 21.1203 34.5494 21.1521 34.53C21.1838 34.5107 21.2091 34.4806 21.2278 34.4399L25.119 26C25.2117 25.799 25.3314 25.6251 25.4783 25.4783C25.6251 25.3314 25.7991 25.2117 26 25.119L34.44 21.2278C34.4807 21.2091 34.5107 21.1838 34.53 21.1521C34.5494 21.1203 34.5581 21.0821 34.556 21.0373C34.5541 20.9926 34.542 20.9552 34.52 20.9253C34.4979 20.8954 34.4657 20.8729 34.4236 20.8579L13.719 13.4634C13.6793 13.4492 13.6421 13.446 13.6073 13.4538C13.5725 13.4616 13.5402 13.4805 13.5104 13.5103C13.4805 13.5401 13.4617 13.5724 13.4539 13.6072C13.446 13.642 13.4492 13.6793 13.4634 13.719L20.8579 34.4235Q20.8804 34.4866 20.925 34.5197Z" fill="currentColor" fill-rule="evenodd" />
</svg>
