<svg width="56.000000" height="56.000000" viewBox="0 0 56 56" fill="none" xmlns="http://www.w3.org/2000/svg" xmlns:xlink="http://www.w3.org/1999/xlink">
	<desc>
			Created with Pixso.
	</desc>
	<defs>
		<radialGradient gradientTransform="translate(15.0668 39.0979) rotate(128.932) scale(16.9407 15.2467)" cx="0.000000" cy="0.000000" r="1.000000" id="paint_radial_3761_80920_0" gradientUnits="userSpaceOnUse">
			<stop stop-color="#5ADDF8"/>
			<stop stop-color="#AEBFFF"/>
			<stop offset="0.329153" stop-color="#1476FF"/>
			<stop offset="0.667785" stop-color="#655AF8"/>
			<stop offset="0.868255" stop-color="#948CFF"/>
			<stop offset="1.000000" stop-color="#D25AF8"/>
			<stop offset="1.000000" stop-color="#5A8BF8"/>
		</radialGradient>
		<linearGradient x1="14.000244" y1="53.749760" x2="13.631836" y2="43.065536" id="paint_linear_3761_80921_0" gradientUnits="userSpaceOnUse">
			<stop stop-color="#000000" stop-opacity="0.000000"/>
			<stop offset="1.000000" stop-color="#000000"/>
		</linearGradient>
		<radialGradient gradientTransform="translate(11.0525 9.33357) rotate(38.3654) scale(57.326 80.6813)" cx="0.000000" cy="0.000000" r="1.000000" id="paint_radial_3761_80923_0" gradientUnits="userSpaceOnUse">
			<stop stop-color="#5ADDF8"/>
			<stop stop-color="#AEBFFF"/>
			<stop offset="0.329153" stop-color="#1476FF"/>
			<stop offset="0.667785" stop-color="#655AF8"/>
			<stop offset="0.868255" stop-color="#948CFF"/>
			<stop offset="1.000000" stop-color="#D25AF8"/>
			<stop offset="1.000000" stop-color="#5A8BF8"/>
		</radialGradient>
	</defs>
	<mask id="mask3761_80919" mask-type="alpha" maskUnits="userSpaceOnUse" x="0.000000" y="0.000000" width="56.000000" height="56.000000">
		<rect id="画板 1773" width="56.000000" height="56.000000" fill="#000000" fill-opacity="1.000000"/>
	</mask>
	<g mask="url(#mask3761_80919)">
		<path id="矢量 1" d="M17.63 50.81L17.68 37.53L4.42 37.59L15.09 51.71C15.92 52.79 17.63 52.2 17.63 50.81Z" fill="url(#paint_radial_3761_80920_0)" fill-opacity="1.000000" fill-rule="evenodd"/>
		<g opacity="0.100000" style="mix-blend-mode:normal">
			<path id="矢量 1" d="M17.63 50.81L17.68 37.53L4.42 37.59L15.09 51.71C15.92 52.79 17.63 52.2 17.63 50.81Z" fill="url(#paint_linear_3761_80921_0)" fill-opacity="1.000000" fill-rule="evenodd"/>
		</g>
		<rect id="矩形 5" y="5.125000" rx="19.894737" width="56.000000" height="39.789474" fill="url(#paint_radial_3761_80923_0)" fill-opacity="1.000000"/>
		<rect id="矩形 5" rx="19.526314" width="55.263153" height="39.052628" transform="matrix(-1 0 0 1 55.6318 5.49219)" fill="#000000" fill-opacity="0"/>
		<rect id="矩形 5" rx="19.526314" width="55.263153" height="39.052628" transform="matrix(-1 0 0 1 55.6318 5.49219)" fill="#000000" fill-opacity="0"/>
		<rect id="矩形 5" rx="19.526314" width="55.263153" height="39.052628" transform="matrix(-1 0 0 1 55.6318 5.49219)" stroke="#000000" stroke-opacity="0" stroke-width="1.000000"/>
		<path id="path" d="M24.6 34.64C23.74 35.37 22.76 35.82 21.68 35.99C20.59 36.16 19.57 36.1 18.62 35.81C17.68 35.53 16.23 34.28 16.23 34.28C16.23 34.28 12.54 31.45 12.54 24.73C12.54 18.02 15.84 15.07 15.84 15.07C15.84 15.07 16.74 14.19 18.05 13.96C19.37 13.73 20.21 13.95 21.11 14.21C28.65 16.34 37.12 16.42 44.63 14.21C45.54 13.95 46.35 13.91 47.07 14.09C47.79 14.27 48.41 14.62 48.94 15.14C51.32 17.5 52.22 21.38 52.31 24.73C52.4 28.03 51.55 31.82 49.32 34.25C48.66 34.98 47.87 35.5 46.99 35.79C46.11 36.1 45.18 36.16 44.2 35.99C43.22 35.82 42.35 35.37 41.6 34.64C41.27 34.32 40.81 33.91 40.2 33.42C39.61 32.92 38.92 32.44 38.16 31.97C37.39 31.5 36.56 31.1 35.65 30.76C34.74 30.43 33.82 30.27 32.87 30.27C31.94 30.27 31.06 30.44 30.21 30.78C29.36 31.12 28.58 31.53 27.86 32C27.16 32.47 26.52 32.96 25.98 33.45C25.42 33.94 24.97 34.34 24.6 34.64Z" fill="#FFFFFF" fill-opacity="1.000000" fill-rule="nonzero"/>
		<rect id="矩形 841" rx="1.473684" width="2.947368" height="8.842103" transform="matrix(-0.999983 0.00577157 0.00577157 0.999983 47.2397 19.1484)" fill="#1476FF" fill-opacity="1.000000"/>
		<path id="合并" d="M22.81 19.11C23.4 19.09 23.98 19.42 24.25 19.99L27.06 25.82C27.42 26.58 27.1 27.47 26.34 27.82C25.58 28.16 24.66 27.83 24.3 27.07L22.81 23.97L21.32 27.08C20.96 27.83 20.04 28.16 19.29 27.82C18.52 27.47 18.2 26.58 18.56 25.82L21.36 19.99C21.64 19.42 22.22 19.1 22.81 19.11Z" fill="#1476FF" fill-opacity="1.000000" fill-rule="evenodd"/>
	</g>
</svg>
