<svg viewBox="0 0 40 40" xmlns="http://www.w3.org/2000/svg" xmlns:xlink="http://www.w3.org/1999/xlink" width="40.000000" height="40.000000" fill="none">
	<rect id="页面告警" width="40.000000" height="40.000000" x="0.000000" y="0.000000" />
	<path id="矢量 624" d="M7.11914 9.49951C7.11914 8.80915 7.67883 8.24951 8.36914 8.24951C9.05945 8.24951 9.61914 8.80915 9.61914 9.49951C9.61914 10.1899 9.05945 10.7495 8.36914 10.7495C7.67883 10.7495 7.11914 10.1899 7.11914 9.49951Z" fill="currentColor" fill-rule="evenodd" />
	<path id="矢量 624" d="M11.7383 9.49951C11.7383 8.80915 12.298 8.24951 12.9883 8.24951C13.6786 8.24951 14.2383 8.80915 14.2383 9.49951C14.2383 10.1899 13.6786 10.7495 12.9883 10.7495C12.298 10.7495 11.7383 10.1899 11.7383 9.49951Z" fill="currentColor" fill-rule="evenodd" />
	<path id="矢量 624" d="M11.7383 9.49951C11.7383 8.80915 12.298 8.24951 12.9883 8.24951C13.6786 8.24951 14.2383 8.80915 14.2383 9.49951C14.2383 10.1899 13.6786 10.7495 12.9883 10.7495C12.298 10.7495 11.7383 10.1899 11.7383 9.49951Z" fill="currentColor" fill-rule="evenodd" />
	<path id="矢量 624" d="M16.3574 9.49951C16.3574 8.80915 16.9171 8.24951 17.6074 8.24951C18.2977 8.24951 18.8574 8.80915 18.8574 9.49951C18.8574 10.1899 18.2977 10.7495 17.6074 10.7495C16.9171 10.7495 16.3574 10.1899 16.3574 9.49951Z" fill="currentColor" fill-rule="evenodd" />
	<path id="矢量 624" d="M16.3574 9.49951C16.3574 8.80915 16.9171 8.24951 17.6074 8.24951C18.2977 8.24951 18.8574 8.80915 18.8574 9.49951C18.8574 10.1899 18.2977 10.7495 17.6074 10.7495C16.9171 10.7495 16.3574 10.1899 16.3574 9.49951Z" fill="currentColor" fill-rule="evenodd" />
	<path id="矢量 624" d="M34 3.75C35.933 3.75 37.5 5.31701 37.5 7.25L37.5 32.75C37.5 34.683 35.933 36.25 34 36.25L6 36.25C4.06702 36.25 2.5 34.683 2.5 32.75L2.5 7.25C2.5 5.31701 4.06702 3.75 6 3.75L34 3.75ZM34 5.35L6 5.35C5.84521 5.35 5.69482 5.36777 5.54871 5.40331L5.54871 5.40331C5.45081 5.42712 5.35498 5.4589 5.26099 5.49865C5.16028 5.54123 5.06458 5.59165 4.974 5.6499L4.974 5.64991L4.974 5.64991C4.86023 5.72308 4.75439 5.80861 4.65649 5.9065C4.55859 6.00438 4.47314 6.11021 4.3999 6.224L4.3999 6.22401C4.34167 6.31461 4.29126 6.41025 4.24866 6.51093C4.20886 6.60493 4.17712 6.70088 4.15332 6.79877C4.1178 6.94486 4.09998 7.09527 4.09998 7.25L4.09998 32.75C4.09998 32.9048 4.1178 33.0552 4.15332 33.2013C4.17712 33.2992 4.20886 33.3951 4.24866 33.4891C4.29126 33.5898 4.34167 33.6854 4.3999 33.776C4.47302 33.8898 4.55859 33.9956 4.65649 34.0935C4.75439 34.1914 4.86023 34.2769 4.97388 34.35C5.06458 34.4083 5.16028 34.4587 5.26086 34.5013C5.35498 34.5411 5.45093 34.5729 5.54871 34.5967L5.54883 34.5967C5.69482 34.6322 5.84521 34.65 6 34.65L34 34.65C34.1548 34.65 34.3052 34.6322 34.4513 34.5967L34.4513 34.5967C34.5492 34.5729 34.6451 34.5411 34.739 34.5013C34.8397 34.4588 34.9353 34.4084 35.0259 34.3501L35.026 34.3501C35.1398 34.2769 35.2456 34.1914 35.3435 34.0935C35.4414 33.9956 35.527 33.8897 35.6001 33.7759L35.6002 33.7758C35.6584 33.6853 35.7087 33.5897 35.7513 33.4891C35.7911 33.3951 35.8229 33.2991 35.8467 33.2012L35.8467 33.2011C35.8822 33.055 35.9 32.9047 35.9 32.75L35.9 7.25C35.9 7.09528 35.8822 6.94488 35.8467 6.79879C35.8229 6.7009 35.7911 6.60494 35.7513 6.51093C35.7087 6.41031 35.6584 6.31472 35.6002 6.22414C35.527 6.11031 35.4414 6.00443 35.3435 5.9065C35.2456 5.80865 35.1399 5.72315 35.0261 5.65L35.026 5.64992L35.026 5.64989C34.9353 5.59164 34.8397 5.54123 34.739 5.49865C34.6451 5.45892 34.5492 5.42715 34.4514 5.40334L34.4513 5.40331C34.3052 5.36777 34.1548 5.35 34 5.35Z" fill="currentColor" fill-rule="evenodd" />
	<path id="矢量 624" d="M34 3.75C35.933 3.75 37.5 5.31701 37.5 7.25L37.5 32.75C37.5 34.683 35.933 36.25 34 36.25L6 36.25C4.06702 36.25 2.5 34.683 2.5 32.75L2.5 7.25C2.5 5.31701 4.06702 3.75 6 3.75L34 3.75ZM34 5.35L6 5.35C5.84521 5.35 5.69482 5.36777 5.54871 5.40331L5.54871 5.40331C5.45081 5.42712 5.35498 5.4589 5.26099 5.49865C5.16028 5.54123 5.06458 5.59165 4.974 5.6499L4.974 5.64991L4.974 5.64991C4.86023 5.72308 4.75439 5.80861 4.65649 5.9065C4.55859 6.00438 4.47314 6.11021 4.3999 6.224L4.3999 6.22401C4.34167 6.31461 4.29126 6.41025 4.24866 6.51093C4.20886 6.60493 4.17712 6.70088 4.15332 6.79877C4.1178 6.94486 4.09998 7.09527 4.09998 7.25L4.09998 32.75C4.09998 32.9048 4.1178 33.0552 4.15332 33.2013C4.17712 33.2992 4.20886 33.3951 4.24866 33.4891C4.29126 33.5898 4.34167 33.6854 4.3999 33.776C4.47302 33.8898 4.55859 33.9956 4.65649 34.0935C4.75439 34.1914 4.86023 34.2769 4.97388 34.35C5.06458 34.4083 5.16028 34.4587 5.26086 34.5013C5.35498 34.5411 5.45093 34.5729 5.54871 34.5967L5.54883 34.5967C5.69482 34.6322 5.84521 34.65 6 34.65L34 34.65C34.1548 34.65 34.3052 34.6322 34.4513 34.5967L34.4513 34.5967C34.5492 34.5729 34.6451 34.5411 34.739 34.5013C34.8397 34.4588 34.9353 34.4084 35.0259 34.3501L35.026 34.3501C35.1398 34.2769 35.2456 34.1914 35.3435 34.0935C35.4414 33.9956 35.527 33.8897 35.6001 33.7759L35.6002 33.7758C35.6584 33.6853 35.7087 33.5897 35.7513 33.4891C35.7911 33.3951 35.8229 33.2991 35.8467 33.2012L35.8467 33.2011C35.8822 33.055 35.9 32.9047 35.9 32.75L35.9 7.25C35.9 7.09528 35.8822 6.94488 35.8467 6.79879C35.8229 6.7009 35.7911 6.60494 35.7513 6.51093C35.7087 6.41031 35.6584 6.31472 35.6002 6.22414C35.527 6.11031 35.4414 6.00443 35.3435 5.9065C35.2456 5.80865 35.1399 5.72315 35.0261 5.65L35.026 5.64992L35.026 5.64989C34.9353 5.59164 34.8397 5.54123 34.739 5.49865C34.6451 5.45892 34.5492 5.42715 34.4514 5.40334L34.4513 5.40331C34.3052 5.36777 34.1548 5.35 34 5.35Z" fill="currentColor" fill-rule="evenodd" />
	<path id="矢量 624" d="M3.25952 12.95L37.049 12.95L37.049 14.55L3.25952 14.55L3.25952 12.95Z" fill="currentColor" fill-rule="evenodd" />
	<path id="矢量 624" d="M3.25952 12.95L37.049 12.95L37.049 14.55L3.25952 14.55L3.25952 12.95Z" fill="currentColor" fill-rule="evenodd" />
	<path id="矢量 624" d="M18.6691 18.4941L12.1606 28.2462C11.451 29.3095 12.2131 30.7344 13.4915 30.7344L26.5085 30.7344C27.7869 30.7344 28.549 29.3095 27.8394 28.2462L21.3307 18.4941C20.6973 17.545 19.3025 17.545 18.6691 18.4941Z" fill="currentColor" fill-rule="evenodd" />
	<path id="矢量 624" d="M18.6691 18.4941L12.1606 28.2462C11.451 29.3095 12.2131 30.7344 13.4915 30.7344L26.5085 30.7344C27.7869 30.7344 28.549 29.3095 27.8394 28.2462L21.3307 18.4941C20.6973 17.545 19.3025 17.545 18.6691 18.4941Z" fill="currentColor" fill-rule="evenodd" />
	<path id="矢量 624" d="M19.4272 22.4306C19.4272 21.9903 19.7839 21.6336 20.2242 21.6336C20.6648 21.6336 21.0219 21.9907 21.0219 22.4312L21.0229 25.2327C21.0229 25.6743 20.6649 26.0324 20.2233 26.0324C19.7814 26.0324 19.423 25.674 19.423 25.2321L19.4272 22.4306Z" fill="currentColor" fill-rule="evenodd" />
	<path id="矢量 624" d="M19.4272 22.4306C19.4272 21.9903 19.7839 21.6336 20.2242 21.6336C20.6648 21.6336 21.0219 21.9907 21.0219 22.4312L21.0229 25.2327C21.0229 25.6743 20.6649 26.0324 20.2233 26.0324C19.7814 26.0324 19.423 25.674 19.423 25.2321L19.4272 22.4306Z" fill="rgb(255,254.745,254.745)" fill-rule="evenodd" />
	<path id="矢量 624" d="M19.4231 28.0168C19.4231 27.5704 19.785 27.2085 20.2314 27.2085C20.6777 27.2085 21.0397 27.5704 21.0397 28.0168L21.0397 28.0456C21.0397 28.492 20.6777 28.8539 20.2314 28.8539C19.785 28.8539 19.4231 28.492 19.4231 28.0456L19.4231 28.0168Z" fill="currentColor" fill-rule="evenodd" />
	<path id="矢量 624" d="M19.4231 28.0168C19.4231 27.5704 19.785 27.2085 20.2314 27.2085C20.6777 27.2085 21.0397 27.5704 21.0397 28.0168L21.0397 28.0456C21.0397 28.492 20.6777 28.8539 20.2314 28.8539C19.785 28.8539 19.4231 28.492 19.4231 28.0456L19.4231 28.0168Z" fill="rgb(255,254.745,254.745)" fill-rule="evenodd" />
</svg>
