<svg viewBox="0 0 40 40" xmlns="http://www.w3.org/2000/svg" xmlns:xlink="http://www.w3.org/1999/xlink" width="40.000000" height="40.000000" fill="none">
	<rect id="锚点" width="40.000000" height="40.000000" x="0.000000" y="0.000000" />
	<path id="矢量 733" d="M20.8434 2.89999L20.8434 6.12234C21.5957 6.16457 22.3346 6.26673 23.0602 6.4288C23.8613 6.60776 24.6461 6.85977 25.4147 7.18481C26.1923 7.5137 26.9279 7.90631 27.6216 8.36267C28.4009 8.87534 29.1273 9.46841 29.8009 10.1419C30.4744 10.8155 31.0675 11.5419 31.5802 12.3213C32.0365 13.015 32.4291 13.7506 32.7579 14.5282C33.083 15.2967 33.3351 16.0815 33.514 16.8827C33.6761 17.6086 33.7783 18.3479 33.8205 19.1005L37.0428 19.1005C37.4908 19.1005 37.8429 19.4525 37.8429 19.9005C37.8429 20.3485 37.4908 20.7005 37.0428 20.7005L33.8204 20.7005C33.7782 21.4529 33.676 22.1918 33.514 22.9174C33.3351 23.7185 33.083 24.5034 32.7579 25.2718C32.4291 26.0494 32.0365 26.7851 31.5801 27.4789C31.0674 28.2582 30.4744 28.9846 29.8009 29.6581C29.1273 30.3316 28.401 30.9247 27.6217 31.4373C26.928 31.8937 26.1923 32.2863 25.4147 32.6152C24.6461 32.9402 23.8613 33.1923 23.0602 33.3712C22.3346 33.5333 21.5957 33.6354 20.8434 33.6777L20.8434 37.0429C20.8434 37.4909 20.4913 37.8429 20.0433 37.8429C19.5953 37.8429 19.2434 37.4909 19.2434 37.0429L19.2434 33.6777C18.4907 33.6355 17.7514 33.5334 17.0255 33.3712C16.2244 33.1923 15.4395 32.9402 14.671 32.6152C13.8934 32.2863 13.1577 31.8937 12.464 31.4373C11.6847 30.9247 10.9583 30.3316 10.2847 29.6581C9.61121 28.9846 9.01807 28.2581 8.50549 27.4788C8.04907 26.7851 7.65649 26.0494 7.32764 25.2718C7.00256 24.5034 6.75061 23.7186 6.57166 22.9174C6.40955 22.1919 6.30738 21.4529 6.26513 20.7005L2.8999 20.7005C2.4519 20.7005 2.09998 20.3485 2.09998 19.9005C2.09998 19.4525 2.4519 19.1005 2.8999 19.1005L6.26507 19.1005C6.30728 18.3478 6.40945 17.6085 6.57153 16.8827C6.75049 16.0815 7.00256 15.2967 7.32764 14.5282C7.65649 13.7506 8.04907 13.0149 8.50549 12.3212C9.01807 11.5419 9.61121 10.8155 10.2847 10.1419C10.9583 9.46838 11.6847 8.87531 12.4641 8.36264C13.1577 7.90628 13.8934 7.51367 14.671 7.18481C15.4395 6.85974 16.2242 6.60776 17.0254 6.4288C17.7513 6.26664 18.4907 6.16447 19.2434 6.12227L19.2434 2.89999C19.2434 2.452 19.5953 2.10001 20.0433 2.10001C20.4913 2.10001 20.8434 2.452 20.8434 2.89999ZM17.3436 7.99753C18.2209 7.79919 19.1206 7.70001 20.0428 7.70001C20.965 7.70001 21.8647 7.79919 22.7421 7.99756C23.4393 8.15518 24.1224 8.37549 24.7914 8.65842Q25.8121 9.09015 26.7241 9.68779L26.7275 9.69003C27.4222 10.1456 28.0696 10.6733 28.6696 11.2733C29.2695 11.8733 29.7972 12.5206 30.2528 13.2153C30.6521 13.8243 30.996 14.4697 31.2844 15.1515C31.5674 15.8204 31.7876 16.5036 31.9453 17.2009C32.1437 18.0782 32.2428 18.9779 32.2428 19.9C32.2428 20.8222 32.1437 21.7219 31.9453 22.5992C31.7876 23.2965 31.5674 23.9796 31.2844 24.6486Q30.8517 25.6712 30.2528 26.5847C29.7972 27.2794 29.2695 27.9267 28.6696 28.5267C28.0695 29.1267 27.4221 29.6545 26.7274 30.11C26.1185 30.5094 25.4731 30.8532 24.7914 31.1416C24.1224 31.4245 23.4393 31.6448 22.7421 31.8025C21.8647 32.0008 20.965 32.1 20.0428 32.1C19.1206 32.1 18.2209 32.0008 17.3436 31.8025C16.6464 31.6448 15.9633 31.4245 15.2943 31.1416C14.6124 30.8532 13.967 30.5094 13.3582 30.11L13.3568 30.1092Q12.3155 29.4261 11.4161 28.5267C10.8162 27.9268 10.2883 27.2794 9.83289 26.5847C9.43347 25.9757 9.0896 25.3304 8.80115 24.6486C8.51831 23.9796 8.29797 23.2965 8.14038 22.5992C7.94202 21.7219 7.84277 20.8222 7.84277 19.9C7.84277 18.9778 7.94202 18.0781 8.14026 17.2008C8.29797 16.5035 8.51831 15.8204 8.80115 15.1515Q9.23383 14.1288 9.83276 13.2153C10.2883 12.5206 10.8162 11.8733 11.4161 11.2733C12.0161 10.6733 12.6635 10.1456 13.358 9.69C13.967 9.29065 14.6124 8.94678 15.2943 8.65842C15.9633 8.37546 16.6464 8.15518 17.3436 7.99753ZM20.0428 12.9C16.1769 12.9 13.0428 16.034 13.0428 19.9C13.0428 23.766 16.1769 26.9 20.0428 26.9C23.9088 26.9 27.0428 23.766 27.0428 19.9C27.0428 16.034 23.9088 12.9 20.0428 12.9Z" fill="currentColor" fill-rule="evenodd" />
</svg>
