<svg viewBox="0 0 40 40" xmlns="http://www.w3.org/2000/svg" xmlns:xlink="http://www.w3.org/1999/xlink" width="40.000000" height="40.000000" fill="none">
	<rect id="条形图" width="40.000000" height="40.000000" x="0.000000" y="0.000000" fill="rgb(255,255,255)" fill-opacity="0" />
	<path id="矢量 601" d="M4.04993 34.75L4.04993 5C4.04993 4.552 3.698 4.2 3.25 4.2C2.802 4.2 2.44995 4.552 2.44995 5L2.44995 34.75C2.44995 35.0277 2.50378 35.2938 2.61133 35.5482C2.66125 35.6662 2.72107 35.7778 2.79077 35.8828Q2.90338 36.0526 3.05042 36.1996C3.23926 36.3885 3.45642 36.5348 3.70178 36.6386C3.95618 36.7462 4.22229 36.8 4.5 36.8L37 36.8C37.448 36.8 37.7999 36.448 37.7999 36C37.7999 35.552 37.448 35.2 37 35.2L4.5 35.2C4.43787 35.2 4.38025 35.189 4.32727 35.1671C4.27417 35.1451 4.22571 35.1121 4.18176 35.0682C4.13782 35.0243 4.10486 34.9758 4.08289 34.9227C4.06091 34.8697 4.04993 34.8121 4.04993 34.75ZM31.052 30L31.052 8.75C31.052 8.302 30.7 7.95 30.252 7.95C29.804 7.95 29.452 8.302 29.452 8.75L29.452 30C29.452 30.448 29.804 30.8 30.252 30.8C30.7 30.8 31.052 30.448 31.052 30ZM16.952 30L16.952 13.75C16.952 13.302 17.304 12.95 17.752 12.95C18.2 12.95 18.552 13.302 18.552 13.75L18.552 30C18.552 30.448 18.2 30.8 17.752 30.8C17.304 30.8 16.952 30.448 16.952 30ZM23.202 18.75L23.202 30C23.202 30.448 23.554 30.8 24.002 30.8C24.45 30.8 24.802 30.448 24.802 30L24.802 18.75C24.802 18.302 24.45 17.95 24.002 17.95C23.554 17.95 23.202 18.302 23.202 18.75ZM10.702 30L10.702 20C10.702 19.552 11.054 19.2 11.502 19.2C11.95 19.2 12.302 19.552 12.302 20L12.302 30C12.302 30.448 11.95 30.8 11.502 30.8C11.054 30.8 10.702 30.448 10.702 30Z" fill="currentColor" fill-rule="evenodd" />
</svg>
