<?xml version="1.0" encoding="utf-8"?>
<!-- Generator: Adobe Illustrator 26.0.2, SVG Export Plug-In . SVG Version: 6.00 Build 0)  -->
<svg version="1.1" id="图层_1" xmlns="http://www.w3.org/2000/svg" xmlns:xlink="http://www.w3.org/1999/xlink" x="0px" y="0px"
	 viewBox="0 0 48 48" style="enable-background:new 0 0 48 48;" xml:space="preserve">
<style type="text/css">
	.st0{fill-rule:evenodd;clip-rule:evenodd;fill:currentColor;}
</style>
<desc>Created with Pixso.</desc>
<path id="矢量_146" class="st0" d="M6,15.8c0-0.7,0.4-1.4,1-1.8l16.2-8.8c0.6-0.3,1.3-0.3,1.9,0l16.2,8.8c0.6,0.3,1,1,1,1.8v17.5
	c0,0.7-0.4,1.4-1,1.8l-16.2,8.8c-0.6,0.3-1.3,0.3-1.9,0L7,35c-0.7-0.4-1-1-1-1.8V15.8z M24.3,23.6L8.8,15.1l15.3-8.3
	c0.1,0,0.1,0,0.2,0l15.3,8.3L24.3,23.6z M25.1,25.2v16.6l15.4-8.4c0.1,0,0.1-0.1,0.1-0.2V16.7L25.1,25.2z M23.3,25.1v16.8L7.9,33.5
	c-0.1,0-0.1-0.1-0.1-0.2V16.6L23.3,25.1z"/>
</svg>
