<svg viewBox="0 0 40 40" xmlns="http://www.w3.org/2000/svg" xmlns:xlink="http://www.w3.org/1999/xlink" width="40.000000" height="40.000000" fill="none">
	<rect id="盒子容器" width="40.000000" height="40.000000" x="0.000000" y="0.000000" fill="rgb(255,255,255)" fill-opacity="0" />
	<path id="矢量 504" d="M37.3169 11.949C37.3169 11.0373 36.8204 10.1978 36.0215 9.75841L21.2026 1.60939C20.4525 1.19688 19.5435 1.19688 18.7933 1.60939L3.97461 9.75841C3.17554 10.1978 2.6792 11.0373 2.6792 11.949L2.6792 28.0401C2.6792 28.9519 3.17554 29.7913 3.97461 30.2307L18.7933 38.3797C19.5435 38.7922 20.4525 38.7922 21.2026 38.3797L36.0215 30.2307C36.8204 29.7913 37.3169 28.9519 37.3169 28.0401L37.3169 11.949ZM34.8335 10.9311L20.4316 3.01137C20.3641 2.97426 20.2943 2.9464 20.2219 2.92784C20.1497 2.90929 20.0751 2.90001 19.998 2.90001C19.921 2.90001 19.8463 2.90929 19.774 2.92784C19.7018 2.9464 19.6318 2.97426 19.5643 3.01137L5.15619 10.9346L20.0994 19.1408L34.8335 10.9311ZM20.795 20.5848L20.795 36.7779L35.2505 28.8287C35.3224 28.7891 35.3868 28.7418 35.4436 28.6867C35.5005 28.6316 35.5498 28.5688 35.5916 28.4982C35.6333 28.4275 35.6646 28.3541 35.6855 28.2777C35.7064 28.2013 35.7168 28.1222 35.7168 28.0401L35.7168 12.2706L20.795 20.5848ZM19.1951 20.4696L19.1951 36.7747L4.74548 28.8287C4.67358 28.7891 4.60925 28.7418 4.55237 28.6868L4.55237 28.6867C4.49561 28.6316 4.44629 28.5688 4.40454 28.4982C4.36279 28.4275 4.33142 28.3541 4.31055 28.2777L4.31055 28.2776C4.28967 28.2013 4.27917 28.1221 4.27917 28.0401L4.27917 12.2783L19.1951 20.4696Z" fill="currentColor" fill-rule="evenodd" />
</svg>
