<svg viewBox="0 0 40 40" xmlns="http://www.w3.org/2000/svg" xmlns:xlink="http://www.w3.org/1999/xlink" width="40.000000" height="40.000000" fill="none">
	<rect id="箱形图" width="40.000000" height="40.000000" x="0.000000" y="0.000000" />
	<path id="矢量 716" d="M2.20007 17L2.20007 5C2.20007 4.552 2.552 4.20001 3 4.20001C3.448 4.20001 3.80005 4.552 3.80005 5L3.80005 10.2L7 10.2L7 7C7 5.89542 7.89539 5 9 5L31 5C32.1046 5 33 5.89542 33 7L33 10.2L36.2001 10.2L36.2001 5C36.2001 4.552 36.552 4.20001 37 4.20001C37.448 4.20001 37.8 4.552 37.8 5L37.8 17C37.8 17.448 37.448 17.8 37 17.8C36.552 17.8 36.2001 17.448 36.2001 17L36.2001 11.8L33 11.8L33 15C33 16.1046 32.1046 17 31 17L9 17C7.89539 17 7 16.1046 7 15L7 11.8L3.80005 11.8L3.80005 17C3.80005 17.448 3.448 17.8 3 17.8C2.552 17.8 2.20007 17.448 2.20007 17ZM31 6.60001L9 6.60001C8.94482 6.60001 8.89355 6.60977 8.84644 6.6293C8.79932 6.6488 8.75623 6.6781 8.71716 6.71716C8.6781 6.7562 8.6488 6.79932 8.62927 6.84644C8.60974 6.89359 8.59998 6.94476 8.59998 7L8.59998 15C8.59998 15.0552 8.60974 15.1064 8.62927 15.1536C8.6488 15.2007 8.6781 15.2438 8.71716 15.2828C8.75623 15.3219 8.79932 15.3512 8.84644 15.3707C8.89355 15.3902 8.94482 15.4 9 15.4L31 15.4C31.0552 15.4 31.1064 15.3902 31.1536 15.3707Q31.2242 15.3414 31.2828 15.2828C31.3219 15.2438 31.3512 15.2007 31.3707 15.1536C31.3903 15.1064 31.4 15.0552 31.4 15L31.4 7C31.4 6.94476 31.3903 6.89359 31.3707 6.84644C31.3512 6.79932 31.3219 6.7562 31.2828 6.71716C31.2438 6.6781 31.2007 6.6488 31.1536 6.6293C31.1064 6.60977 31.0552 6.60001 31 6.60001ZM2.20007 35L2.20007 23C2.20007 22.552 2.552 22.2 3 22.2C3.448 22.2 3.80005 22.552 3.80005 23L3.80005 28.2L7 28.2L7 25C7 23.8954 7.89539 23 9 23L31 23C32.1046 23 33 23.8954 33 25L33 28.2L36.2001 28.2L36.2001 23C36.2001 22.552 36.552 22.2 37 22.2C37.448 22.2 37.8 22.552 37.8 23L37.8 35C37.8 35.448 37.448 35.8 37 35.8C36.552 35.8 36.2001 35.448 36.2001 35L36.2001 29.8L33 29.8L33 33C33 34.1046 32.1046 35 31 35L9 35C7.89539 35 7 34.1046 7 33L7 29.8L3.80005 29.8L3.80005 35C3.80005 35.448 3.448 35.8 3 35.8C2.552 35.8 2.20007 35.448 2.20007 35ZM31 24.6L9 24.6C8.94482 24.6 8.89355 24.6098 8.84644 24.6293C8.79932 24.6488 8.75623 24.6781 8.71716 24.7172C8.6781 24.7562 8.6488 24.7993 8.62927 24.8464C8.60974 24.8936 8.59998 24.9448 8.59998 25L8.59998 33C8.59998 33.0552 8.60974 33.1064 8.62927 33.1536C8.6488 33.2007 8.6781 33.2438 8.71716 33.2828C8.75623 33.3219 8.79932 33.3512 8.84644 33.3707C8.89355 33.3902 8.94482 33.4 9 33.4L31 33.4C31.0552 33.4 31.1064 33.3902 31.1536 33.3707Q31.2242 33.3414 31.2828 33.2828C31.3219 33.2438 31.3512 33.2007 31.3707 33.1536C31.3903 33.1064 31.4 33.0552 31.4 33L31.4 25C31.4 24.9448 31.3903 24.8936 31.3707 24.8464C31.3512 24.7993 31.3219 24.7562 31.2828 24.7172C31.2438 24.6781 31.2007 24.6488 31.1536 24.6293C31.1064 24.6098 31.0552 24.6 31 24.6Z" fill="rgb(128,128,128)" fill-rule="evenodd" />
</svg>
