<svg viewBox="0 0 40 40" xmlns="http://www.w3.org/2000/svg" xmlns:xlink="http://www.w3.org/1999/xlink" width="40.000000" height="40.000000" fill="none">
	<rect id="面包屑" width="40.000000" height="40.000000" x="0.000000" y="0.000000" fill="rgb(255,255,255)" fill-opacity="0" />
	<path id="矢量 553" d="M11.5 8.60001C12.8807 8.60001 14 9.7193 14 11.1L14 28.9C14 30.2807 12.8807 31.4 11.5 31.4L4.5 31.4C3.11926 31.4 2 30.2807 2 28.9L2 11.1C2 9.7193 3.11926 8.60001 4.5 8.60001L11.5 8.60001ZM38 11.1C38 9.7193 36.8807 8.60001 35.5 8.60001L28.5 8.60001C27.1193 8.60001 26 9.7193 26 11.1L26 28.9C26 30.2807 27.1193 31.4 28.5 31.4L35.5 31.4C36.8807 31.4 38 30.2807 38 28.9L38 11.1ZM11.5 10.2L4.5 10.2C4.37573 10.2 4.26062 10.222 4.15454 10.2659C4.04846 10.3098 3.95142 10.3757 3.86365 10.4636C3.77576 10.5515 3.70984 10.6484 3.66589 10.7545C3.62195 10.8606 3.59998 10.9757 3.59998 11.1L3.59998 28.9C3.59998 29.0243 3.62195 29.1394 3.66589 29.2455C3.70984 29.3516 3.77576 29.4485 3.86365 29.5364C3.95142 29.6243 4.04846 29.6902 4.15454 29.7341C4.26062 29.778 4.37573 29.8 4.5 29.8L11.5 29.8C11.6243 29.8 11.7394 29.778 11.8455 29.7341C11.9515 29.6902 12.0486 29.6243 12.1364 29.5364C12.2242 29.4485 12.2902 29.3516 12.3341 29.2455L12.3342 29.2452Q12.4 29.0862 12.4 28.9L12.4 11.1C12.4 10.9757 12.3781 10.8606 12.3341 10.7545C12.2902 10.6484 12.2242 10.5515 12.1364 10.4636C12.0486 10.3757 11.9515 10.3098 11.8455 10.2659C11.7394 10.222 11.6243 10.2 11.5 10.2ZM28.5 10.2L35.5 10.2C35.6243 10.2 35.7394 10.222 35.8455 10.2659C35.9515 10.3098 36.0486 10.3757 36.1364 10.4636C36.2242 10.5515 36.2902 10.6484 36.3341 10.7545C36.3781 10.8606 36.4 10.9757 36.4 11.1L36.4 28.9Q36.4 29.0862 36.3342 29.2452L36.3341 29.2455C36.2902 29.3516 36.2242 29.4485 36.1364 29.5364C36.0486 29.6243 35.9515 29.6902 35.8455 29.7341C35.7394 29.778 35.6243 29.8 35.5 29.8L28.5 29.8C28.3757 29.8 28.2606 29.778 28.1545 29.7341C28.0485 29.6902 27.9514 29.6243 27.8636 29.5364C27.7758 29.4485 27.7098 29.3516 27.6659 29.2455C27.6219 29.1394 27.6 29.0243 27.6 28.9L27.6 11.1C27.6 10.9757 27.6219 10.8606 27.6659 10.7545C27.7098 10.6484 27.7758 10.5515 27.8636 10.4636C27.9514 10.3757 28.0485 10.3098 28.1545 10.2659C28.2606 10.222 28.3757 10.2 28.5 10.2ZM17.2174 16.0945L21.5543 19.9998L17.2148 23.9054C16.8818 24.2051 16.8557 24.7022 17.1554 25.0352C17.4551 25.3682 17.9521 25.3943 18.2852 25.0946L23.2852 20.5946C23.2955 20.5853 23.3058 20.5757 23.3157 20.5658C23.3256 20.5559 23.3351 20.5457 23.3445 20.5353C23.4923 20.3712 23.5604 20.1788 23.549 19.9582C23.5374 19.7376 23.4495 19.5533 23.2854 19.4055L18.288 14.9055C17.9551 14.6057 17.458 14.6318 17.1582 14.9647C16.8584 15.2976 16.8844 15.7947 17.2174 16.0945Z" fill="currentColor" fill-rule="evenodd" />
</svg>
