<?xml version="1.0" encoding="utf-8"?>
<!-- Generator: Adobe Illustrator 26.0.2, SVG Export Plug-In . SVG Version: 6.00 Build 0)  -->
<svg version="1.1" id="图层_1" xmlns="http://www.w3.org/2000/svg" xmlns:xlink="http://www.w3.org/1999/xlink" x="0px" y="0px"
	 viewBox="0 0 48 48" style="enable-background:new 0 0 48 48;" xml:space="preserve">
<style type="text/css">
	.st0{fill-rule:evenodd;clip-rule:evenodd;fill:currentColor;}
</style>
<desc>Created with Pixso.</desc>
<path id="矢量_167" class="st0" d="M17.7,32.8h-3.1l-1.5-4.3H6.5L5,32.8H2L8.3,16h3.1L17.7,32.8z M35,32.8V16h5.3
	c1.6,0,2.9,0.4,3.9,1.1c1,0.7,1.4,1.6,1.4,2.8c0,0.6-0.1,1.2-0.4,1.8c-0.1,0.3-0.3,0.5-0.4,0.7c-0.1,0.1-0.2,0.3-0.3,0.4
	c-0.5,0.5-1.1,0.9-1.9,1.1v0.1c1.2,0.1,2.1,0.6,2.8,1.3c0.7,0.7,1,1.7,1,2.8c0,0.7-0.1,1.4-0.4,1.9c-0.3,0.6-0.7,1.1-1.3,1.5
	c-0.1,0.1-0.2,0.2-0.4,0.3l0,0c-1.1,0.7-2.4,1.1-3.9,1.1H35z M21.4,17.6c0.3-0.4,0.9-0.4,1.3-0.1l6.9,6.2c0.2,0.2,0.3,0.4,0.3,0.6
	c0,0.2-0.1,0.5-0.2,0.6c0,0-0.1,0.1-0.1,0.1l-6.9,5.4c-0.4,0.3-1,0.2-1.3-0.1c-0.3-0.4-0.2-1,0.1-1.3l6.1-4.7l-6.1-5.5
	C21.1,18.5,21.1,18,21.4,17.6z M37.8,18.2V23h1.8c1,0,1.7-0.2,2.3-0.7c0.6-0.5,0.8-1.1,0.8-1.9c0-0.5-0.1-0.9-0.4-1.3
	c-0.4-0.6-1.3-0.9-2.5-0.9H37.8z M12.4,26.2L10,19.5C10,19.3,9.9,19,9.8,18.5H9.8c-0.1,0.4-0.1,0.8-0.2,1.1l-2.3,6.7H12.4z
	 M37.8,25.2v5.3h2.4c1,0,1.8-0.2,2.4-0.7c0.6-0.5,0.8-1.1,0.8-2c0-0.6-0.1-1.1-0.4-1.5c-0.5-0.8-1.6-1.1-3.2-1.1H37.8z"/>
</svg>
