<?xml version="1.0" encoding="utf-8"?>
<!-- Generator: Adobe Illustrator 26.0.2, SVG Export Plug-In . SVG Version: 6.00 Build 0)  -->
<svg version="1.1" id="图层_1" xmlns="http://www.w3.org/2000/svg" xmlns:xlink="http://www.w3.org/1999/xlink" x="0px" y="0px"
	 viewBox="0 0 48 48" style="enable-background:new 0 0 48 48;" xml:space="preserve">
<style type="text/css">
	.st0{fill-rule:evenodd;clip-rule:evenodd;fill:currentColor;}
</style>
<desc>Created with Pixso.</desc>
<path id="矢量_157" class="st0" d="M11,10.5c-0.6,0.3-1.1,0.8-1.6,1.4c-0.3,0.4-0.2,1,0.2,1.2c0.4,0.3,1,0.2,1.2-0.2
	c0.2-0.4,0.6-0.7,0.9-0.8c0.3-0.2,0.7-0.3,1.2-0.3H41c0.7,0,1.2,0.2,1.6,0.5c0.3,0.4,0.5,0.9,0.5,1.6V29c0,0.3,0,0.6-0.1,1l0,0
	c-0.1,0.3-0.2,0.6-0.4,0.9l-0.7,1c-0.3,0.4-0.2,1,0.2,1.3c0.4,0.3,1,0.2,1.2-0.2l0.7-1c0.6-0.8,0.9-1.8,0.9-2.8V13.9
	c0-1.1-0.4-2-1.1-2.8c-0.4-0.4-0.8-0.7-1.3-0.9C42,10.1,41.5,10,41,10H13.1C12.3,10,11.6,10.2,11,10.5z M39.8,18.9c0-1.7-1.3-3-3-3
	H5c-1.7,0-3,1.3-3,3v16.5c0,1.7,1.3,3,3,3h31.8c1.7,0,3-1.3,3-3V18.9z M38,18.9c0-0.7-0.5-1.2-1.2-1.2H5c-0.7,0-1.2,0.5-1.2,1.2
	v16.5c0,0.7,0.5,1.2,1.2,1.2h31.8c0.7,0,1.2-0.5,1.2-1.2V18.9z M16.3,27.9c-0.3-0.4-0.7-0.6-1.2-0.8c0.3-0.2,0.6-0.4,0.8-0.7l0,0
	c0.2-0.3,0.3-0.7,0.3-1.1s-0.1-0.8-0.3-1.1c-0.1-0.2-0.3-0.5-0.6-0.6c-0.6-0.4-1.3-0.6-2.3-0.6h-3v8.8h3.4c1,0,1.8-0.2,2.4-0.7
	c0.2-0.2,0.4-0.4,0.5-0.6c0.2-0.4,0.3-0.8,0.3-1.3C16.7,28.7,16.5,28.3,16.3,27.9z M16.8,22.9h6.9v1.3H21v7.4h-1.5v-7.4h-2.7V22.9z
	 M30.5,29.1L26,22.9h-1.2v8.8h1.4v-6.2l4.5,6.2h1.2v-8.8h-1.4V29.1z M11.5,26.6v-2.4h1.4c0.5,0,1,0.1,1.3,0.3
	c0.2,0.1,0.3,0.2,0.4,0.4l0,0c0.1,0.1,0.1,0.3,0.1,0.5c0,0.2,0,0.4-0.1,0.5c-0.1,0.1-0.2,0.3-0.3,0.4c-0.3,0.2-0.7,0.3-1.3,0.3H11.5
	z M14.6,30c-0.3,0.2-0.8,0.3-1.4,0.3h-1.7v-2.5h1.7c0.6,0,1.1,0.1,1.4,0.3c0.3,0.2,0.5,0.5,0.5,0.9C15.1,29.5,14.9,29.8,14.6,30z"/>
</svg>
