<svg viewBox="0 0 40 40" xmlns="http://www.w3.org/2000/svg" xmlns:xlink="http://www.w3.org/1999/xlink" width="40.000000" height="40.000000" fill="none">
	<rect id="按钮" width="40.000000" height="40.000000" x="0.000000" y="0.000000" fill="rgb(255,255,255)" fill-opacity="0" />
	<path id="矢量 517" d="M38.75 11C38.75 9.067 37.183 7.5 35.25 7.5L4.75 7.5C2.81702 7.5 1.25 9.067 1.25 11L1.25 29C1.25 30.933 2.81702 32.5 4.75 32.5L35.25 32.5C37.183 32.5 38.75 30.933 38.75 29L38.75 11ZM4.75 9.10001L35.25 9.10001Q35.4822 9.10001 35.7012 9.15329L35.7013 9.15331C35.7992 9.17712 35.8951 9.20889 35.989 9.24866C36.0897 9.29123 36.1853 9.34164 36.276 9.39989L36.276 9.39992L36.2761 9.40001C36.3899 9.47314 36.4956 9.55865 36.5935 9.65649C36.6914 9.75441 36.777 9.86028 36.8501 9.97409Q36.9374 10.11 37.0013 10.2609C37.0411 10.3549 37.0729 10.4509 37.0967 10.5488C37.1322 10.6949 37.15 10.8453 37.15 11L37.15 29C37.15 29.1547 37.1322 29.305 37.0967 29.4511L37.0967 29.4512C37.0729 29.5491 37.0411 29.6451 37.0013 29.7391Q36.9375 29.8899 36.8502 30.0257L36.8501 30.0259L36.8501 30.026C36.7769 30.1398 36.6914 30.2456 36.5935 30.3435C36.4956 30.4414 36.3898 30.5269 36.276 30.6001L36.2759 30.6001C36.1853 30.6584 36.0897 30.7088 35.989 30.7513C35.8951 30.7911 35.7992 30.8229 35.7013 30.8467C35.5552 30.8822 35.4048 30.9 35.25 30.9L4.75 30.9C4.59534 30.9 4.44482 30.8822 4.29883 30.8467C4.20093 30.8229 4.10498 30.7911 4.01099 30.7513C3.91028 30.7088 3.81458 30.6583 3.724 30.6Q3.55334 30.4903 3.40649 30.3435C3.30859 30.2456 3.22314 30.1398 3.1499 30.026L3.1499 30.026C3.09167 29.9354 3.04126 29.8397 2.99866 29.7391C2.95886 29.6451 2.92712 29.5491 2.90332 29.4513L2.90332 29.4512C2.8678 29.3051 2.84998 29.1547 2.84998 29L2.84998 11C2.84998 10.8453 2.8678 10.6949 2.90332 10.5488C2.92712 10.4509 2.95886 10.3549 2.99866 10.2609Q3.06256 10.1099 3.1499 9.974C3.22314 9.86021 3.30859 9.75438 3.40649 9.65649Q3.55334 9.50967 3.724 9.39992L3.724 9.3999C3.81458 9.34164 3.91028 9.29123 4.01099 9.24866C4.10498 9.20889 4.20081 9.17711 4.29871 9.15331C4.44482 9.11777 4.59521 9.10001 4.75 9.10001ZM15.1851 21.0184C14.9214 20.6289 14.51 20.3396 13.9507 20.1503C14.2881 19.9712 14.5469 19.7415 14.7271 19.4614C14.9337 19.14 15.0371 18.7522 15.0371 18.2979C15.0371 17.8464 14.9395 17.4512 14.7441 17.1123C14.597 16.8571 14.3947 16.6338 14.1368 16.4424Q13.2365 15.774 11.7748 15.774L8.60095 15.774L8.60095 24.9232L12.1257 24.9232C13.2162 24.9232 14.0575 24.6923 14.6495 24.2305C14.8729 24.0562 15.0542 23.856 15.1934 23.6298C15.4229 23.2567 15.5376 22.813 15.5376 22.2987C15.5376 21.7924 15.42 21.3656 15.1851 21.0184ZM15.6626 15.774L22.8373 15.774L22.8373 17.1748L20.0388 17.1748L20.0388 24.9232L18.4489 24.9232L18.4489 17.1748L15.6626 17.1748L15.6626 15.774ZM29.9114 22.198L25.2635 15.774L23.9635 15.774L23.9635 24.9232L25.4253 24.9232L25.4253 18.4871L30.0884 24.9232L31.3762 24.9232L31.3762 15.774L29.9114 15.774L29.9114 22.198ZM10.1635 19.5979L10.1635 17.1504L11.6008 17.1504C12.1583 17.1504 12.5947 17.2562 12.91 17.4678C13.0813 17.5819 13.2063 17.7189 13.2852 17.8786C13.3524 18.015 13.3861 18.168 13.3861 18.3375C13.3861 18.5341 13.3459 18.7099 13.2655 18.8648C13.1862 19.0176 13.0676 19.1501 12.91 19.2622C12.5947 19.486 12.1583 19.5979 11.6008 19.5979L10.1635 19.5979ZM13.3922 23.2051C13.0647 23.435 12.5886 23.5499 11.964 23.5499L10.1635 23.5499L10.1635 20.9102L11.9487 20.9102C12.5835 20.9102 13.0647 21.0292 13.3922 21.2672C13.5469 21.3789 13.6653 21.5103 13.7473 21.6614C13.8402 21.8324 13.8866 22.0285 13.8866 22.2499C13.8866 22.4593 13.843 22.6452 13.7557 22.8077C13.6733 22.961 13.5522 23.0935 13.3922 23.2051Z" fill="currentColor" fill-rule="evenodd" />
</svg>
