<?xml version="1.0" encoding="utf-8"?>
<!-- Generator: Adobe Illustrator 26.0.2, SVG Export Plug-In . SVG Version: 6.00 Build 0)  -->
<svg version="1.1" id="图层_1" xmlns="http://www.w3.org/2000/svg" xmlns:xlink="http://www.w3.org/1999/xlink" x="0px" y="0px"
	 viewBox="0 0 48 48" style="enable-background:new 0 0 48 48;" xml:space="preserve">
<style type="text/css">
	.st0{fill-rule:evenodd;clip-rule:evenodd;fill:currentColor;}
</style>
<desc>Created with Pixso.</desc>
<path id="矢量_156" class="st0" d="M42,12c1.7,0,3,1.3,3,3v18c0,1.7-1.3,3-3,3H6c-1.7,0-3-1.3-3-3V15c0-1.7,1.3-3,3-3H42z
	 M42,13.8c0.7,0,1.2,0.5,1.2,1.2v18c0,0.7-0.5,1.2-1.2,1.2H6c-0.7,0-1.2-0.5-1.2-1.2V15c0-0.7,0.5-1.2,1.2-1.2H42z M19.3,25
	c-0.3-0.4-0.6-0.7-1.2-0.8c0.3-0.2,0.6-0.4,0.8-0.7l0,0c0.2-0.3,0.3-0.7,0.3-1.1c0-0.4-0.1-0.8-0.3-1.1c-0.1-0.3-0.3-0.5-0.6-0.7
	C17.7,20.2,17,20,16,20h-3v8.8h3.4c1,0,1.9-0.2,2.4-0.7c0.2-0.2,0.4-0.4,0.5-0.6l0,0c0.2-0.4,0.3-0.8,0.3-1.3
	C19.7,25.8,19.5,25.4,19.3,25z M19.8,20h6.9v1.3H24v7.4h-1.5v-7.4h-2.7V20z M33.5,26.2L29,20h-1.2v8.8h1.4v-6.2l4.5,6.2h1.2V20h-1.4
	V26.2z M14.5,23.7v-2.4h1.4c0.5,0,1,0.1,1.3,0.3c0.2,0.1,0.3,0.2,0.4,0.4l0,0c0.1,0.1,0.1,0.3,0.1,0.4c0,0.2,0,0.4-0.1,0.5
	c-0.1,0.1-0.2,0.3-0.3,0.4c-0.3,0.2-0.7,0.3-1.3,0.3H14.5z M17.6,27.1c-0.3,0.2-0.8,0.3-1.4,0.3h-1.7v-2.5h1.7
	c0.6,0,1.1,0.1,1.4,0.3c0.3,0.2,0.5,0.5,0.5,0.9C18.1,26.6,17.9,26.9,17.6,27.1z"/>
</svg>
