<svg viewBox="0 0 40 40" xmlns="http://www.w3.org/2000/svg" xmlns:xlink="http://www.w3.org/1999/xlink" width="40.000000" height="40.000000" fill="none">
	<rect id="按钮组" width="40.000000" height="40.000000" x="0.000000" y="0.000000" fill="rgb(255,255,255)" fill-opacity="0" />
	<g id="组合 3388">
		<path id="矩形备份 30(边框)" d="M7.82711 7.7326C7.59123 7.94946 7.38279 8.19615 7.20178 8.47268C6.95643 8.84752 7.05817 9.33482 7.433 9.58018C7.80784 9.82553 8.29514 9.72379 8.5405 9.34896C8.6476 9.18532 8.77095 9.03934 8.91052 8.91102C9.0501 8.7827 9.20591 8.67203 9.37795 8.57902C9.54999 8.48601 9.72791 8.41626 9.91172 8.36975C10.0955 8.32325 10.2852 8.3 10.4808 8.3L35.2477 8.3C35.419 8.3 35.5858 8.31889 35.7482 8.35668C35.8692 8.38483 35.9877 8.42345 36.1038 8.47256C36.2243 8.52352 36.3385 8.58413 36.4465 8.65438C36.5742 8.73753 36.6932 8.83419 36.8034 8.94436C36.9136 9.05455 37.0102 9.17353 37.0934 9.3013C37.1636 9.40923 37.2242 9.52343 37.2752 9.6439C37.3243 9.75998 37.3629 9.87851 37.391 9.99946C37.4288 10.1619 37.4477 10.3288 37.4477 10.5L37.4477 23.3665C37.4477 23.525 37.4359 23.6817 37.4123 23.8366C37.3887 23.9915 37.3533 24.1447 37.3061 24.296C37.2589 24.4474 37.2009 24.5936 37.1322 24.7345C37.0636 24.8753 36.9842 25.0108 36.8942 25.1412L36.3055 25.993C36.0507 26.3616 36.1402 26.8513 36.5087 27.106C36.8773 27.3607 37.367 27.2712 37.6217 26.9027L38.2104 26.0508C38.3467 25.8536 38.4668 25.6485 38.5706 25.4354C38.6745 25.2223 38.7621 25.0014 38.8335 24.7725C38.9049 24.5437 38.9584 24.3122 38.9941 24.078C39.0299 23.8435 39.0477 23.6064 39.0477 23.3665L39.0477 10.5C39.0477 10.2206 39.0184 9.94772 38.9598 9.68126C38.9103 9.45645 38.84 9.23624 38.7488 9.02062C38.6573 8.80434 38.548 8.59987 38.4207 8.4072C38.2805 8.19478 38.1185 7.99671 37.9347 7.81299C37.751 7.62927 37.5529 7.46728 37.3405 7.32701C37.1479 7.19978 36.9434 7.09043 36.7271 6.99895C36.5115 6.90774 36.2912 6.8374 36.0664 6.78793C35.8 6.72931 35.5271 6.7 35.2477 6.7L10.4808 6.7C10.1503 6.7 9.82971 6.73929 9.51909 6.81788C9.20846 6.89647 8.90778 7.01436 8.61704 7.17154C8.32629 7.32872 8.06298 7.51574 7.82711 7.7326Z" fill="currentColor" fill-rule="evenodd" />
		<rect id="矩形备份 30" width="30.900000" height="19.900000" x="1.551953" y="12.404004" rx="2.700000" stroke="currentColor" stroke-width="1.60000002" />
		<g id="BTN">
			<path id="矢量 518" d="M12.794 22.815C12.562 22.4723 12.1999 22.2177 11.7078 22.0511C12.0046 21.8935 12.2324 21.6914 12.391 21.4448C12.5729 21.162 12.6638 20.8207 12.6638 20.4209C12.6638 20.0236 12.5779 19.6759 12.406 19.3776C12.2766 19.1531 12.0984 18.9566 11.8716 18.7881C11.3434 18.396 10.6506 18.2 9.79297 18.2L7 18.2L7 26.2513L10.1018 26.2513C11.0614 26.2513 11.8018 26.0481 12.3228 25.6416C12.5194 25.4883 12.6789 25.3121 12.8013 25.1131C13.0033 24.7847 13.1042 24.3943 13.1042 23.9417C13.1042 23.4961 13.0008 23.1206 12.794 22.815ZM8.375 21.565L8.375 19.4112L9.63989 19.4112C10.1305 19.4112 10.5145 19.5043 10.792 19.6905C10.9427 19.7909 11.0527 19.9114 11.1221 20.052C11.1813 20.172 11.2109 20.3066 11.2109 20.4559C11.2109 20.6289 11.1756 20.7835 11.1048 20.9198C11.035 21.0543 10.9307 21.1709 10.792 21.2696C10.5145 21.4665 10.1305 21.565 9.63989 21.565L8.375 21.565ZM11.2163 24.7393C10.9281 24.9416 10.5091 25.0428 9.95947 25.0428L8.375 25.0428L8.375 22.7198L9.94604 22.7198C10.5046 22.7198 10.9281 22.8245 11.2163 23.034C11.3524 23.1323 11.4566 23.2479 11.5288 23.3809C11.6105 23.5313 11.6514 23.7039 11.6514 23.8987C11.6514 24.083 11.613 24.2466 11.5362 24.3896C11.4637 24.5245 11.3571 24.6411 11.2163 24.7393Z" fill="currentColor" fill-rule="evenodd" />
			<path id="矢量 519" d="M19.528 18.2L13.2142 18.2L13.2142 19.4327L15.6661 19.4327L15.6661 26.2513L17.0653 26.2513L17.0653 19.4327L19.528 19.4327L19.528 18.2Z" fill="currentColor" fill-rule="evenodd" />
			<path id="矢量 520" d="M25.7532 23.8531L21.6631 18.2L20.519 18.2L20.519 26.2513L21.8054 26.2513L21.8054 20.5874L25.9089 26.2513L27.0422 26.2513L27.0422 18.2L25.7532 18.2L25.7532 23.8531Z" fill="currentColor" fill-rule="evenodd" />
		</g>
	</g>
</svg>
