<svg viewBox="0 0 40 40" xmlns="http://www.w3.org/2000/svg" xmlns:xlink="http://www.w3.org/1999/xlink" width="40.000000" height="40.000000" fill="none">
	<rect id="日期" width="40.000000" height="40.000000" x="0.000000" y="0.000000" fill="rgb(255,255,255)" fill-opacity="0" />
	<path id="矢量 552" d="M13.0282 5.34668L5.5 5.34668C3.84314 5.34668 2.5 6.68983 2.5 8.34668L2.5 32.3467C2.5 34.0035 3.84314 35.3467 5.5 35.3467L34.5 35.3467C36.1569 35.3467 37.5 34.0035 37.5 32.3467L37.5 8.34668C37.5 6.68983 36.1569 5.34668 34.5 5.34668L26.9719 5.34668L26.9719 3.75C26.9719 3.30199 26.6199 2.95 26.1719 2.95C25.7239 2.95 25.3719 3.30199 25.3719 3.75L25.3719 5.34668L14.6282 5.34668L14.6282 3.75C14.6282 3.30199 14.2761 2.95 13.8281 2.95C13.3801 2.95 13.0282 3.30199 13.0282 3.75L13.0282 5.34668ZM25.3719 9.55L25.3719 6.94668L14.6282 6.94668L14.6282 9.55C14.6282 9.99799 14.2761 10.35 13.8281 10.35C13.3801 10.35 13.0282 9.99799 13.0282 9.55L13.0282 6.94668L5.5 6.94668C5.38281 6.94668 5.26904 6.96046 5.15869 6.98803L5.15869 6.98804C5.0896 7.0053 5.02197 7.02797 4.95557 7.05604C4.88293 7.08675 4.81384 7.12301 4.74829 7.16483C4.66284 7.21935 4.5835 7.28333 4.51001 7.35673Q4.40073 7.46608 4.31925 7.59325L4.3191 7.59348L4.31909 7.59349L4.31812 7.59502C4.27637 7.66055 4.24011 7.72961 4.20935 7.80223C4.18127 7.86861 4.15857 7.93634 4.14136 8.00542L4.14136 8.00542C4.11377 8.11573 4.09998 8.22948 4.09998 8.34668L4.09998 13.9852L35.9 13.9852L35.9 8.34668C35.9 8.22952 35.8862 8.1158 35.8586 8.00552C35.8414 7.93641 35.8187 7.86864 35.7906 7.80223C35.7599 7.72963 35.7236 7.66058 35.6819 7.59506C35.6273 7.50957 35.5634 7.43014 35.49 7.35673C35.4165 7.28332 35.337 7.21934 35.2516 7.16479L35.2515 7.16473C35.186 7.12296 35.1169 7.08673 35.0444 7.05604C34.9781 7.02799 34.9105 7.00534 34.8414 6.98808L34.8413 6.98804L34.8389 6.98744L34.8388 6.98741Q34.6744 6.94668 34.5 6.94668L26.9719 6.94668L26.9719 9.55C26.9719 9.99799 26.6199 10.35 26.1719 10.35C25.7239 10.35 25.3719 9.99799 25.3719 9.55ZM35.9 15.5852L4.09998 15.5852L4.09998 32.3467C4.09998 32.4639 4.11377 32.5776 4.14136 32.6879L4.14136 32.688C4.15857 32.757 4.18127 32.8248 4.20935 32.8911C4.24011 32.9637 4.27637 33.0328 4.31812 33.0983L4.31812 33.0984L4.31824 33.0984C4.37268 33.1838 4.43665 33.2632 4.51001 33.3366C4.5835 33.41 4.66284 33.474 4.74829 33.5285C4.81384 33.5703 4.88293 33.6066 4.95557 33.6373C5.02197 33.6654 5.0896 33.6881 5.15869 33.7053L5.16111 33.7059Q5.3255 33.7467 5.5 33.7467L34.5 33.7467C34.6172 33.7467 34.731 33.7329 34.8413 33.7053C34.9104 33.6881 34.978 33.6654 35.0444 33.6373C35.1171 33.6066 35.186 33.5704 35.2515 33.5286L35.2516 33.5285Q35.3798 33.4467 35.49 33.3366Q35.5977 33.2288 35.6785 33.1035L35.6785 33.1035L35.6788 33.1031Q35.6803 33.1007 35.6819 33.0982C35.7238 33.0327 35.7599 32.9637 35.7906 32.8911C35.8187 32.8248 35.8413 32.7571 35.8586 32.688L35.8586 32.6879C35.8862 32.5776 35.9 32.4639 35.9 32.3467L35.9 15.5852ZM19.3605 27.9564C19.6235 27.5079 19.755 26.9823 19.755 26.3795C19.755 25.7358 19.605 25.1947 19.3051 24.7563C19.2981 24.7462 19.2913 24.7362 19.2842 24.7263Q19.2657 24.7002 19.2465 24.6746Q19.2421 24.6687 19.2377 24.6629C18.9249 24.2512 18.4744 23.9443 17.8859 23.7422C18.3177 23.5577 18.6548 23.3026 18.8967 22.9769C18.9364 22.9235 18.9735 22.8683 19.0081 22.8112C19.0422 22.7551 19.0741 22.6979 19.1035 22.6395C19.2877 22.2747 19.3798 21.8635 19.3798 21.4058C19.3798 20.9307 19.2853 20.5024 19.0963 20.1209Q19.0946 20.1175 19.0928 20.114L19.0905 20.1093L19.0904 20.1092Q19.0425 20.0139 18.9868 19.9225C18.8982 19.775 18.797 19.639 18.6833 19.5144C18.4641 19.274 18.1982 19.0761 17.8859 18.9207C17.4115 18.6823 16.8651 18.5631 16.2468 18.5631C15.5836 18.5631 14.9928 18.7001 14.4745 18.9742C14.3584 19.0356 14.2458 19.1039 14.137 19.1791C14.0197 19.2601 13.9093 19.3485 13.8058 19.4443C13.3844 19.8345 13.077 20.3479 12.8838 20.9845L14.1157 21.696C14.2904 21.1344 14.5488 20.7072 14.891 20.4146C15.004 20.3178 15.125 20.2369 15.254 20.1719C15.5183 20.0387 15.8163 19.972 16.1477 19.972C16.5001 19.972 16.8038 20.0508 17.0591 20.2083C17.1388 20.2576 17.2137 20.3145 17.2841 20.3792Q17.4053 20.4896 17.4932 20.6221C17.6488 20.8565 17.7266 21.1424 17.7266 21.4801C17.7266 21.7515 17.6732 21.9969 17.5664 22.2164C17.4801 22.3939 17.3588 22.5544 17.2026 22.6979C16.8557 23.0165 16.3542 23.1758 15.6981 23.1758L15.16 23.1758L15.16 24.5387L15.5813 24.5387C16.7007 24.5387 17.4473 24.8026 17.8209 25.3305L17.821 25.3306Q18.1018 25.7274 18.1018 26.3229C18.1018 26.7292 18.0084 27.0738 17.8217 27.3568C17.7512 27.4634 17.6676 27.5613 17.5708 27.6504C17.4641 27.7485 17.3492 27.8317 17.2261 27.9C16.9432 28.0569 16.6168 28.1354 16.2468 28.1354C16.0305 28.1354 15.8218 28.1079 15.6205 28.053C15.3627 27.9827 15.1172 27.8674 14.8839 27.707C14.8175 27.6614 14.7542 27.6124 14.6936 27.5599C14.3757 27.2842 14.1394 26.9143 13.9847 26.4503L12.7386 27.1619C12.8871 27.6394 13.1138 28.0459 13.4186 28.3816C13.6078 28.59 13.8273 28.7711 14.0768 28.9248C14.3044 29.0646 14.5413 29.18 14.787 29.271C15.2467 29.4414 15.738 29.5266 16.261 29.5266C16.8776 29.5266 17.4436 29.4126 17.9592 29.1845C17.9785 29.176 17.9977 29.1673 18.0168 29.1584C18.3425 29.0065 18.6273 28.8124 18.8712 28.5761C19.0251 28.4271 19.1628 28.2613 19.2842 28.0787C19.3108 28.0386 19.3362 27.9978 19.3605 27.9564ZM24.8324 29.5266C24.317 29.5266 23.8456 29.4297 23.4182 29.2358C23.2271 29.1492 23.0448 29.0431 22.8712 28.9177C22.3119 28.5118 21.8777 27.9006 21.5685 27.084C21.2593 26.2674 21.1047 25.2597 21.1047 24.0608C21.1047 22.8619 21.2593 21.8518 21.5685 21.0305C21.8777 20.2069 22.3119 19.5921 22.8712 19.1862C23.0448 19.0607 23.2271 18.9547 23.4182 18.868C23.8456 18.6742 24.317 18.5773 24.8324 18.5773Q25.6976 18.5773 26.3826 18.9285C26.8359 19.1609 27.2302 19.5088 27.5653 19.972Q28.5742 21.3633 28.5742 24.0608C28.5742 25.8568 28.2379 27.2173 27.5653 28.1425C27.2344 28.5965 26.8456 28.9389 26.3992 29.1695C25.9385 29.4076 25.4161 29.5266 24.8324 29.5266ZM24.8324 28.1035C25.0482 28.1035 25.2487 28.0659 25.434 27.9908C25.804 27.8407 26.1133 27.5408 26.3617 27.0911C26.7346 26.4137 26.921 25.4036 26.921 24.0608C26.921 22.7156 26.7346 21.7031 26.3617 21.0234C26.111 20.5649 25.7985 20.2605 25.4241 20.1103C25.2416 20.037 25.0443 20.0004 24.8324 20.0004C24.6124 20.0004 24.4084 20.0393 24.2207 20.1171C23.8547 20.2689 23.55 20.5687 23.3066 21.0164C22.9408 21.6913 22.7579 22.7061 22.7579 24.0608C22.7579 25.4036 22.9408 26.4137 23.3066 27.0911Q23.6703 27.7579 24.2168 27.9855L24.2174 27.9858C24.406 28.0643 24.6111 28.1035 24.8324 28.1035Z" fill="currentColor" fill-rule="evenodd" />
</svg>
