<svg viewBox="0 0 40 40" xmlns="http://www.w3.org/2000/svg" xmlns:xlink="http://www.w3.org/1999/xlink" width="40.000000" height="40.000000" fill="none">
	<rect id="K线图" width="40.000000" height="40.000000" x="0.000000" y="0.000000" />
	<path id="矢量 699" d="M7.80005 4L7.80005 8L9 8C10.1046 8 11 8.89542 11 10L11 30C11 31.1046 10.1046 32 9 32L7.80005 32L7.80005 36C7.80005 36.448 7.448 36.8 7 36.8C6.552 36.8 6.20007 36.448 6.20007 36L6.20007 32L5 32C3.89539 32 3 31.1046 3 30L3 10C3 8.89542 3.89539 8 5 8L6.20007 8L6.20007 4C6.20007 3.552 6.552 3.20001 7 3.20001C7.448 3.20001 7.80005 3.552 7.80005 4ZM19.2001 13L19.2001 4C19.2001 3.552 19.552 3.20001 20 3.20001C20.448 3.20001 20.8 3.552 20.8 4L20.8 13L22 13C23.1046 13 24 13.8954 24 15L24 25C24 26.1046 23.1046 27 22 27L20.8 27L20.8 36C20.8 36.448 20.448 36.8 20 36.8C19.552 36.8 19.2001 36.448 19.2001 36L19.2001 27L18 27C16.8954 27 16 26.1046 16 25L16 15C16 13.8954 16.8954 13 18 13L19.2001 13ZM32.2001 10L32.2001 4C32.2001 3.552 32.552 3.20001 33 3.20001C33.448 3.20001 33.8 3.552 33.8 4L33.8 10L35 10C36.1046 10 37 10.8954 37 12L37 28C37 29.1046 36.1046 30 35 30L33.8 30L33.8 36C33.8 36.448 33.448 36.8 33 36.8C32.552 36.8 32.2001 36.448 32.2001 36L32.2001 30L31 30C29.8954 30 29 29.1046 29 28L29 12C29 10.8954 29.8954 10 31 10L32.2001 10ZM9 9.60001L5 9.60001C4.94482 9.60001 4.89355 9.60977 4.84644 9.6293C4.79932 9.6488 4.75623 9.6781 4.71716 9.71716C4.6781 9.7562 4.6488 9.79932 4.62927 9.84644C4.60974 9.89359 4.59998 9.94476 4.59998 10L4.59998 30C4.59998 30.0552 4.60974 30.1064 4.62927 30.1536Q4.65857 30.2242 4.71716 30.2828C4.75623 30.3219 4.79932 30.3512 4.84644 30.3707C4.89355 30.3902 4.94482 30.4 5 30.4L9 30.4C9.05518 30.4 9.10645 30.3902 9.15356 30.3707C9.20068 30.3512 9.24377 30.3219 9.28284 30.2828Q9.34143 30.2242 9.37073 30.1536C9.39026 30.1064 9.40002 30.0552 9.40002 30L9.40002 10C9.40002 9.94476 9.39026 9.89359 9.37073 9.84644C9.3512 9.79932 9.3219 9.7562 9.28284 9.71716C9.24377 9.6781 9.20068 9.6488 9.15356 9.6293C9.10645 9.60977 9.05518 9.60001 9 9.60001ZM35 11.6L31 11.6C30.9448 11.6 30.8936 11.6098 30.8464 11.6293C30.7993 11.6488 30.7562 11.6781 30.7172 11.7172C30.6781 11.7562 30.6488 11.7993 30.6293 11.8464C30.6097 11.8936 30.6 11.9448 30.6 12L30.6 28C30.6 28.0552 30.6097 28.1064 30.6293 28.1536Q30.6586 28.2242 30.7172 28.2828Q30.7758 28.3414 30.8464 28.3707C30.8936 28.3902 30.9448 28.4 31 28.4L35 28.4C35.0552 28.4 35.1064 28.3902 35.1536 28.3707C35.2007 28.3512 35.2438 28.3219 35.2828 28.2828Q35.3414 28.2242 35.3707 28.1536C35.3903 28.1064 35.4 28.0552 35.4 28L35.4 12C35.4 11.9448 35.3903 11.8936 35.3707 11.8464C35.3512 11.7993 35.3219 11.7562 35.2828 11.7172C35.2438 11.6781 35.2007 11.6488 35.1536 11.6293C35.1064 11.6098 35.0552 11.6 35 11.6ZM22 14.6L18 14.6C17.9448 14.6 17.8936 14.6098 17.8464 14.6293C17.7993 14.6488 17.7562 14.6781 17.7172 14.7172C17.6781 14.7562 17.6488 14.7993 17.6293 14.8464C17.6097 14.8936 17.6 14.9448 17.6 15L17.6 25C17.6 25.0552 17.6097 25.1064 17.6293 25.1536C17.6488 25.2007 17.6781 25.2438 17.7172 25.2828C17.7562 25.3219 17.7993 25.3512 17.8464 25.3707C17.8936 25.3902 17.9448 25.4 18 25.4L22 25.4C22.0552 25.4 22.1064 25.3902 22.1536 25.3707C22.2007 25.3512 22.2438 25.3219 22.2828 25.2828C22.3219 25.2438 22.3512 25.2007 22.3707 25.1536C22.3903 25.1064 22.4 25.0552 22.4 25L22.4 15C22.4 14.9448 22.3903 14.8936 22.3707 14.8464C22.3512 14.7993 22.3219 14.7562 22.2828 14.7172C22.2438 14.6781 22.2007 14.6488 22.1536 14.6293C22.1064 14.6098 22.0552 14.6 22 14.6Z" fill="rgb(128,128,128)" fill-rule="evenodd" />
</svg>
