<svg viewBox="0 0 40 40" xmlns="http://www.w3.org/2000/svg" xmlns:xlink="http://www.w3.org/1999/xlink" width="40.000000" height="40.000000" fill="none">
	<rect id="卡片" width="40.000000" height="40.000000" x="0.000000" y="0.000000" fill="rgb(255,255,255)" fill-opacity="0" />
	<path id="矢量 607" d="M37.5 9C37.5 7.06702 35.933 5.5 34 5.5L6 5.5C4.06702 5.5 2.5 7.06702 2.5 9L2.5 31C2.5 32.933 4.06702 34.5 6 34.5L34 34.5C35.933 34.5 37.5 32.933 37.5 31L37.5 9ZM6 7.10001L34 7.10001C34.1548 7.10001 34.3052 7.11777 34.4513 7.15332C34.5492 7.17712 34.645 7.20889 34.739 7.24866C34.8397 7.29123 34.9354 7.34167 35.026 7.39993L35.0261 7.39999C35.1399 7.47314 35.2456 7.55865 35.3435 7.65649C35.4414 7.75443 35.527 7.86032 35.6002 7.97415L35.6003 7.97443C35.6584 8.06491 35.7089 8.1604 35.7513 8.26093C35.7911 8.35495 35.8229 8.4509 35.8467 8.5488C35.8822 8.69489 35.9 8.84528 35.9 9L35.9 14.2L4.09998 14.2L4.09998 9C4.09998 8.84528 4.1178 8.69485 4.15332 8.54877C4.17712 8.45087 4.20886 8.35492 4.24866 8.26093Q4.31256 8.10991 4.3999 7.974C4.47314 7.86023 4.55859 7.75439 4.65649 7.65649C4.75439 7.55859 4.86023 7.47308 4.974 7.3999C5.06458 7.34164 5.16028 7.29123 5.26099 7.24866C5.35498 7.20889 5.45081 7.17712 5.54871 7.15329C5.69482 7.11777 5.84521 7.10001 6 7.10001ZM4.09998 15.8L35.9 15.8L35.9 31C35.9 31.1547 35.8822 31.3051 35.8467 31.4512C35.8229 31.5491 35.7911 31.6451 35.7513 31.7391Q35.6874 31.89 35.6001 32.0259C35.527 32.1397 35.4414 32.2456 35.3435 32.3435C35.2456 32.4414 35.1398 32.5269 35.0259 32.6001C34.9353 32.6584 34.8397 32.7088 34.739 32.7513C34.6451 32.7911 34.5492 32.8229 34.4513 32.8467C34.3052 32.8822 34.1548 32.9 34 32.9L6 32.9Q5.77031 32.9 5.55319 32.8478L5.54883 32.8467C5.45093 32.8229 5.35498 32.7911 5.26099 32.7513C5.16016 32.7087 5.06458 32.6583 4.97388 32.6C4.86023 32.5269 4.75439 32.4414 4.65649 32.3435C4.55859 32.2456 4.47314 32.1398 4.3999 32.026Q4.31256 31.8901 4.24866 31.7391C4.20886 31.6451 4.17712 31.5491 4.15332 31.4512C4.1178 31.3051 4.09998 31.1547 4.09998 31L4.09998 15.8ZM8.25 27.5C8.25 26.8925 8.74243 26.4 9.34998 26.4C9.95752 26.4 10.45 26.8925 10.45 27.5C10.45 28.1075 9.95752 28.6 9.34998 28.6C8.74243 28.6 8.25 28.1075 8.25 27.5ZM13.6 26.4C12.9924 26.4 12.5 26.8925 12.5 27.5C12.5 28.1075 12.9924 28.6 13.6 28.6C14.2075 28.6 14.7 28.1075 14.7 27.5C14.7 26.8925 14.2075 26.4 13.6 26.4ZM30 26.7L22 26.7C21.552 26.7 21.2001 27.052 21.2001 27.5C21.2001 27.948 21.552 28.3 22 28.3L30 28.3C30.448 28.3 30.8 27.948 30.8 27.5C30.8 27.052 30.448 26.7 30 26.7Z" fill="currentColor" fill-rule="evenodd" />
</svg>
