<svg id="图层_1" data-name="图层 1" xmlns="http://www.w3.org/2000/svg" viewBox="0 0 48 48"><defs><style>.cls-1{fill:currentColor;fill-rule:evenodd;}</style></defs><path id="矢量_198" data-name="矢量 198" class="cls-1" d="M36.01,10a3.00237,3.00237,0,0,1,3,3V36.07a3.00237,3.00237,0,0,1-3,3H10.78a2.996,2.996,0,0,1-3-3V13a2.996,2.996,0,0,1,3-3Zm0,1.79A1.20568,1.20568,0,0,1,37.21,13V27.03L29.7,18.16,22.56,29.69l-6.11-3.77L9.58,30.65V13a1.19931,1.19931,0,0,1,1.2-1.21ZM9.58,32.83v3.24a1.19083,1.19083,0,0,0,1.2,1.2H36.01a1.19711,1.19711,0,0,0,1.2-1.2V29.82l-7.29-8.61L23.14,32.16,16.5,28.07ZM13.43,18.5a3.5,3.5,0,1,1,3.5,3.5A3.49744,3.49744,0,0,1,13.43,18.5ZM3.89,33.51H5.12a.90005.90005,0,1,0,0-1.8H3.89a1.06792,1.06792,0,0,1-.25-.03.49235.49235,0,0,1-.17-.06.88648.88648,0,0,1-.17-.08,1.42823,1.42823,0,0,1-.18-.15.8961.8961,0,0,1-.15-.19c-.03-.05-.06-.1-.09-.16a1.0599,1.0599,0,0,1-.08-.43V18.46a.74334.74334,0,0,1,.03-.26.84468.84468,0,0,1,.05-.17l.08-.16a1.4223,1.4223,0,0,1,.16-.19.65491.65491,0,0,1,.18-.15c.05-.03.11-.06.17-.09a.84468.84468,0,0,1,.17-.05,1.06792,1.06792,0,0,1,.25-.03H5.12a.90005.90005,0,1,0,0-1.8H3.89a3.07792,3.07792,0,0,0-.61.06,3.12688,3.12688,0,0,0-.52.16,2.59491,2.59491,0,0,0-.46.26,2.66586,2.66586,0,0,0-.46.37,3.08854,3.08854,0,0,0-.36.45,2.36561,2.36561,0,0,0-.26.47,2.75746,2.75746,0,0,0-.16.51,3.17918,3.17918,0,0,0-.06.62V30.61a3.17918,3.17918,0,0,0,.06.62,3.33184,3.33184,0,0,0,.16.51,3.04373,3.04373,0,0,0,.62.92,2.81965,2.81965,0,0,0,.92.62,2.40415,2.40415,0,0,0,.52.16A2.48253,2.48253,0,0,0,3.89,33.51Zm39,0H41.66a.9.9,0,0,1,0-1.8h1.23a1.09,1.09,0,0,0,.26-.03.57751.57751,0,0,0,.17-.06,1.30177,1.30177,0,0,0,.17-.08l.18-.15a.8961.8961,0,0,0,.15-.19c.03-.05.06-.1.09-.16a1.26024,1.26024,0,0,0,.08-.43V18.46a1.09,1.09,0,0,0-.03-.26.84468.84468,0,0,0-.05-.17q-.04-.08-.09-.16h0a.98855.98855,0,0,0-.15-.19,1.192,1.192,0,0,0-.18-.15c-.06-.03-.11-.06-.17-.09a1.28384,1.28384,0,0,0-.43-.08H41.66a.9.9,0,0,1,0-1.8h1.23a3.17918,3.17918,0,0,1,.62.06,3.33184,3.33184,0,0,1,.51.16,2.683,2.683,0,0,1,.47.26,2.9999,2.9999,0,0,1,.82.82,2.36561,2.36561,0,0,1,.26.47,2.75746,2.75746,0,0,1,.16.51,3.17918,3.17918,0,0,1,.06.62V30.61a3.17918,3.17918,0,0,1-.06.62,3.33184,3.33184,0,0,1-.16.51,2.90084,2.90084,0,0,1-.63.92,2.71859,2.71859,0,0,1-.92.62,2.50171,2.50171,0,0,1-.51.16A2.56361,2.56361,0,0,1,42.89,33.51ZM15.23,18.5a1.7,1.7,0,1,1,1.7,1.7A1.70713,1.70713,0,0,1,15.23,18.5Z"/></svg>