<svg viewBox="0 0 40 40" xmlns="http://www.w3.org/2000/svg" xmlns:xlink="http://www.w3.org/1999/xlink" width="40.000000" height="40.000000" fill="none">
	<rect id="轮播图" width="40.000000" height="40.000000" x="0.000000" y="0.000000" fill="rgb(255,255,255)" fill-opacity="0" />
	<path id="矢量 577" d="M33.6277 8.9C33.6277 7.02223 32.1055 5.5 30.2277 5.5L9.52771 5.5C7.6499 5.5 6.12769 7.02223 6.12769 8.9L6.12769 31.1C6.12769 32.9778 7.6499 34.5 9.52771 34.5L30.2277 34.5C32.1055 34.5 33.6277 32.9778 33.6277 31.1L33.6277 8.9ZM9.52771 7.1L30.2277 7.1C30.3749 7.1 30.5181 7.11697 30.657 7.15091L30.6573 7.15101C30.7494 7.1735 30.8395 7.20343 30.9279 7.2408C31.0229 7.28101 31.1133 7.32861 31.1989 7.38359C31.307 7.45302 31.4075 7.53423 31.5005 7.6272C31.5934 7.72017 31.6747 7.82069 31.744 7.92878C31.7991 8.0144 31.8467 8.10475 31.8868 8.19985C31.9243 8.28835 31.9543 8.37866 31.9768 8.47079C32.0107 8.60972 32.0277 8.75279 32.0277 8.9L32.0277 23.1449L25.86 18.5137C25.7446 18.4271 25.6172 18.3669 25.4773 18.3329C25.3429 18.3003 25.2073 18.2944 25.0703 18.3154C24.9335 18.3364 24.8058 18.3826 24.6873 18.4541C24.5641 18.5283 24.4604 18.624 24.3763 18.7411L18.7372 26.5996L13.8438 23.6953C13.7373 23.6322 13.627 23.5892 13.5126 23.5665C13.3982 23.5438 13.2798 23.5414 13.1573 23.5591C12.9125 23.5945 12.7059 23.7029 12.5378 23.8844L7.72766 29.0726L7.72766 8.9Q7.72766 8.67929 7.77851 8.471L7.77853 8.47091L7.77856 8.47076C7.80115 8.37863 7.83105 8.28833 7.86853 8.19985C7.90869 8.10479 7.9563 8.01447 8.01123 7.92888C8.08069 7.82076 8.16187 7.7202 8.25488 7.6272C8.3479 7.53421 8.44849 7.453 8.55652 7.38355Q8.68488 7.30111 8.82751 7.2408C8.91602 7.20338 9.00623 7.17342 9.09839 7.15092C9.23743 7.11697 9.38049 7.1 9.52771 7.1ZM7.75031 31.3891Q7.7616 31.4597 7.77851 31.529L7.77852 31.529L7.77856 31.5292C7.80115 31.6214 7.83105 31.7117 7.86853 31.8001C7.90869 31.8952 7.9563 31.9855 8.01123 32.0711C8.08069 32.1792 8.16187 32.2798 8.25488 32.3728C8.3479 32.4658 8.44849 32.547 8.55652 32.6164C8.64209 32.6714 8.73242 32.719 8.82751 32.7592C8.91602 32.7966 9.00623 32.8266 9.09827 32.8491L9.09839 32.8491C9.2373 32.883 9.38037 32.9 9.52771 32.9L30.2277 32.9C30.3749 32.9 30.5181 32.883 30.657 32.8491C30.749 32.8266 30.8394 32.7966 30.9279 32.7592Q31.0705 32.6989 31.1989 32.6164L31.1991 32.6163L31.2005 32.6154Q31.3617 32.5116 31.5005 32.3728C31.5935 32.2798 31.6747 32.1792 31.7441 32.0711C31.7991 31.9855 31.8467 31.8952 31.8868 31.8001C31.9243 31.7117 31.9542 31.6214 31.9768 31.5293C32.0107 31.3904 32.0277 31.2473 32.0277 31.1L32.0277 25.1457C32.025 25.1437 32.0223 25.1417 32.0197 25.1397L25.3486 20.1306L19.7432 27.9421C19.6652 28.0507 19.5701 28.1411 19.4576 28.2133C19.3491 28.283 19.2316 28.3311 19.1052 28.3576Q19.0087 28.3778 18.9118 28.3798Q18.8183 28.3818 18.7244 28.3668C18.5925 28.3457 18.4691 28.3011 18.3541 28.2328L13.4091 25.2979L7.8374 31.3076C7.80986 31.3373 7.78074 31.3645 7.75031 31.3891ZM4 29.55L2.75 29.55C2.58325 29.55 2.42029 29.5327 2.26111 29.4982C2.12268 29.4681 1.98718 29.4251 1.85449 29.3689C1.57922 29.2525 1.33557 29.0883 1.12366 28.8763C0.911621 28.6644 0.747437 28.4208 0.630981 28.1455C0.510254 27.8601 0.449951 27.5616 0.449951 27.25L0.449951 12.75C0.449951 12.5833 0.467285 12.4203 0.501831 12.2611C0.53186 12.1228 0.574951 11.9872 0.630981 11.8545Q0.714844 11.6564 0.831665 11.4801C0.916016 11.3527 1.01331 11.2339 1.12366 11.1236C1.23389 11.0134 1.35266 10.9161 1.47998 10.8317C1.59753 10.7538 1.72241 10.6869 1.85449 10.6311C1.98718 10.5749 2.12268 10.5319 2.26111 10.5018C2.42029 10.4673 2.58325 10.45 2.75 10.45L4 10.45C4.448 10.45 4.79993 10.802 4.79993 11.25C4.79993 11.698 4.448 12.05 4 12.05L2.75 12.05C2.65332 12.05 2.56372 12.0671 2.4812 12.1012C2.39868 12.1354 2.32336 12.1867 2.255 12.255C2.18665 12.3234 2.13538 12.3988 2.1012 12.4813C2.06702 12.5638 2.04993 12.6534 2.04993 12.75L2.04993 27.25Q2.04993 27.3947 2.10103 27.5183L2.10108 27.5184L2.1011 27.5185L2.1012 27.5187C2.13538 27.6012 2.18665 27.6766 2.255 27.745C2.32336 27.8133 2.3988 27.8646 2.4812 27.8987C2.56372 27.9329 2.65332 27.95 2.75 27.95L4 27.95C4.448 27.95 4.79993 28.302 4.79993 28.75C4.79993 29.198 4.448 29.55 4 29.55ZM36.9961 29.55L35.7461 29.55C35.2981 29.55 34.9462 29.198 34.9462 28.75C34.9462 28.302 35.2981 27.95 35.7461 27.95L36.9961 27.95C37.0928 27.95 37.1824 27.9329 37.2649 27.8987C37.3473 27.8646 37.4227 27.8133 37.4911 27.745C37.5594 27.6766 37.6107 27.6012 37.6449 27.5187L37.645 27.5185L37.6451 27.5183Q37.6962 27.3947 37.6962 27.25L37.6962 12.75C37.6962 12.6534 37.6791 12.5638 37.6449 12.4813C37.6107 12.3988 37.5594 12.3234 37.4911 12.255C37.4227 12.1867 37.3474 12.1354 37.2649 12.1012C37.1824 12.0671 37.0928 12.05 36.9961 12.05L35.7461 12.05C35.2981 12.05 34.9462 11.698 34.9462 11.25C34.9462 10.802 35.2981 10.45 35.7461 10.45L36.9961 10.45C37.1628 10.45 37.3258 10.4673 37.485 10.5018C37.6234 10.5319 37.7589 10.5749 37.8916 10.6311C38.0237 10.6869 38.1486 10.7538 38.2661 10.8317C38.3934 10.9161 38.5122 11.0134 38.6224 11.1236C38.7328 11.2339 38.8301 11.3527 38.9144 11.4801Q39.0312 11.6564 39.1151 11.8545C39.1711 11.9872 39.2142 12.1228 39.2443 12.2611C39.2788 12.4203 39.2961 12.5833 39.2961 12.75L39.2961 27.25C39.2961 27.5616 39.2358 27.8601 39.1151 28.1455C38.9987 28.4208 38.8345 28.6644 38.6224 28.8763C38.4105 29.0883 38.1669 29.2525 37.8916 29.3689C37.7589 29.4251 37.6234 29.4681 37.485 29.4982C37.3258 29.5327 37.1628 29.55 36.9961 29.55ZM16.2507 10.5C18.4598 10.5 20.2507 12.2909 20.2507 14.5C20.2507 16.7091 18.4598 18.5 16.2507 18.5C14.0416 18.5 12.2507 16.7091 12.2507 14.5C12.2507 12.2909 14.0416 10.5 16.2507 10.5ZM15.6896 12.1653C15.5629 12.1956 15.4387 12.2365 15.317 12.2879C15.1884 12.3424 15.0662 12.407 14.9504 12.4817C14.8083 12.5735 14.676 12.6806 14.5537 12.8029C14.4313 12.9253 14.3242 13.0576 14.2324 13.1997C14.1577 13.3154 14.0931 13.4376 14.0387 13.5663Q13.9614 13.7488 13.916 13.9388C13.8724 14.1207 13.8507 14.3077 13.8507 14.5C13.8507 14.6923 13.8724 14.8794 13.916 15.0612C13.9463 15.1879 13.9872 15.3121 14.0387 15.4337C14.0931 15.5624 14.1577 15.6846 14.2324 15.8003C14.3242 15.9424 14.4313 16.0747 14.5537 16.1971C14.676 16.3194 14.8083 16.4265 14.9504 16.5183C15.0662 16.593 15.1884 16.6576 15.317 16.7121C15.4387 16.7635 15.5629 16.8044 15.6896 16.8347C15.8713 16.8782 16.0585 16.9 16.2507 16.9C16.443 16.9 16.63 16.8782 16.8119 16.8347C16.9386 16.8044 17.0627 16.7635 17.1844 16.7121C17.3132 16.6576 17.4354 16.593 17.551 16.5183C17.6932 16.4265 17.8254 16.3194 17.9478 16.1971C18.0702 16.0747 18.1772 15.9424 18.269 15.8003C18.3438 15.6846 18.4083 15.5624 18.4628 15.4337C18.5143 15.3121 18.5552 15.1879 18.5854 15.0612L18.5854 15.0612C18.629 14.8793 18.6508 14.6923 18.6508 14.5C18.6508 14.3077 18.629 14.1207 18.5854 13.9388C18.5552 13.8121 18.5143 13.6879 18.4628 13.5663C18.4083 13.4376 18.3438 13.3154 18.269 13.1997C18.1772 13.0576 18.0702 12.9253 17.9478 12.8029C17.8254 12.6806 17.6931 12.5735 17.551 12.4817C17.4353 12.407 17.3131 12.3424 17.1844 12.2879C17.0627 12.2365 16.9386 12.1956 16.8119 12.1653C16.6301 12.1218 16.443 12.1 16.2507 12.1C16.0585 12.1 15.8713 12.1218 15.6896 12.1653Z" fill="currentColor" fill-rule="evenodd" />
</svg>
