<svg viewBox="0 0 40 40" xmlns="http://www.w3.org/2000/svg" xmlns:xlink="http://www.w3.org/1999/xlink" width="40.000000" height="40.000000" fill="none">
	<rect id="级联选择" width="40.000000" height="40.000000" x="0.000000" y="0.000000" fill="rgb(255,255,255)" fill-opacity="0" />
	<path id="矢量 599" d="M33.75 3C35.1307 3 36.25 4.11929 36.25 5.5L36.25 13C36.25 14.3807 35.1307 15.5 33.75 15.5L6.25 15.5C4.86926 15.5 3.75 14.3807 3.75 13L3.75 5.5C3.75 4.11929 4.86926 3 6.25 3L33.75 3ZM33.75 4.60001L6.25 4.60001C6.12573 4.60001 6.01062 4.62196 5.90454 4.66589C5.79846 4.70984 5.70142 4.77574 5.61365 4.8636C5.52576 4.95148 5.45984 5.04843 5.41589 5.15451C5.37195 5.26057 5.34998 5.37573 5.34998 5.5L5.34998 13C5.34998 13.1243 5.37195 13.2394 5.41589 13.3455C5.45984 13.4516 5.52576 13.5485 5.61365 13.6364C5.70142 13.7243 5.79846 13.7902 5.90454 13.8341C6.01062 13.878 6.12573 13.9 6.25 13.9L33.75 13.9C33.8743 13.9 33.9894 13.878 34.0955 13.8341C34.2015 13.7902 34.2986 13.7243 34.3864 13.6364C34.4742 13.5485 34.5402 13.4516 34.5841 13.3455C34.6281 13.2394 34.65 13.1243 34.65 13L34.65 5.5C34.65 5.37573 34.6281 5.26057 34.5841 5.1545C34.5402 5.04843 34.4742 4.95148 34.3864 4.8636C34.2986 4.77574 34.2015 4.70984 34.0955 4.66589C33.9894 4.62196 33.8743 4.60001 33.75 4.60001ZM27.4287 9.61874L29.6487 7.3996C29.9656 7.08287 30.4634 7.08298 30.7802 7.39983C30.9384 7.5582 31.0176 7.7618 31.0176 7.96538C31.0176 8.16909 30.9383 8.37279 30.7799 8.53119L27.9941 11.3158C27.8055 11.5043 27.6171 11.5985 27.4285 11.5985C27.24 11.5985 27.0514 11.5042 26.8629 11.3157L24.0771 8.52997C23.9188 8.37157 23.8396 8.16793 23.8396 7.96428C23.8396 7.76063 23.9188 7.55698 24.0771 7.39859C24.3939 7.08182 24.8917 7.08182 25.2086 7.39859L27.4287 9.61874ZM33.75 18C35.1307 18 36.25 19.1193 36.25 20.5L36.25 34.5C36.25 35.8807 35.1307 37 33.75 37L6.25 37C4.86926 37 3.75 35.8807 3.75 34.5L3.75 20.5C3.75 19.1193 4.86926 18 6.25 18L33.75 18ZM20.8 19.6L20.8 35.4L33.75 35.4C33.8743 35.4 33.9894 35.378 34.0955 35.3341C34.2015 35.2902 34.2986 35.2243 34.3864 35.1364C34.4742 35.0485 34.5402 34.9516 34.5841 34.8455C34.6281 34.7394 34.65 34.6243 34.65 34.5L34.65 20.5C34.65 20.3757 34.6281 20.2606 34.5841 20.1545C34.5402 20.0484 34.4742 19.9515 34.3864 19.8636C34.2986 19.7757 34.2015 19.7098 34.0955 19.6659C33.9894 19.622 33.8743 19.6 33.75 19.6L20.8 19.6ZM19.2001 35.4L19.2001 19.6L6.25 19.6C6.12573 19.6 6.01062 19.622 5.90454 19.6659C5.79846 19.7098 5.70142 19.7757 5.61365 19.8636C5.52576 19.9515 5.45984 20.0484 5.41589 20.1545C5.37195 20.2606 5.34998 20.3757 5.34998 20.5L5.34998 34.5C5.34998 34.6243 5.37195 34.7394 5.41589 34.8455Q5.48181 35.0046 5.61365 35.1364C5.70142 35.2243 5.79846 35.2902 5.90454 35.3341C6.01062 35.378 6.12573 35.4 6.25 35.4L19.2001 35.4ZM14.6626 26.05L9.09119 26.05C8.64319 26.05 8.29114 25.698 8.29114 25.25C8.29114 24.802 8.64319 24.45 9.09119 24.45L14.6626 24.45C15.1106 24.45 15.4625 24.802 15.4625 25.25C15.4625 25.698 15.1106 26.05 14.6626 26.05ZM30.8715 26.05L25.3 26.05C24.8521 26.05 24.5 25.698 24.5 25.25C24.5 24.802 24.8521 24.45 25.3 24.45L30.8715 24.45C31.3195 24.45 31.6714 24.802 31.6714 25.25C31.6714 25.698 31.3195 26.05 30.8715 26.05ZM14.6626 30.8L9.09119 30.8C8.64319 30.8 8.29114 30.448 8.29114 30C8.29114 29.552 8.64319 29.2 9.09119 29.2L14.6626 29.2C15.1106 29.2 15.4625 29.552 15.4625 30C15.4625 30.448 15.1106 30.8 14.6626 30.8Z" fill="currentColor" fill-rule="evenodd" />
</svg>
