<svg
	viewBox="0 0 16 16"
	xmlns="http://www.w3.org/2000/svg"
	xmlns:xlink="http://www.w3.org/1999/xlink"
	width="16.000000"
	height="16.000000"
	fill="none"
>
	<rect id="chat" width="16.000000" height="16.000000" x="0.000000" y="0.000000" />
	<path
		id="_矢量_95"
		d="M14.7799 7.20375C14.7799 7.57375 14.7499 7.92375 14.6999 8.27375C14.6499 8.52375 14.5999 8.77375 14.5199 9.02375C14.4599 9.24375 14.3799 9.46375 14.2899 9.68375C14.1499 10.0138 13.9899 10.3338 13.7999 10.6438C13.6799 10.8338 13.5499 11.0038 13.4199 11.1838C13.1999 11.4738 12.9399 11.7438 12.6699 12.0038C12.4799 12.1738 12.2799 12.3438 12.0599 12.4938C11.7999 12.6938 11.5199 12.8738 11.2199 13.0238L6.63994 15.3538C6.57994 15.3838 6.50994 15.4038 6.43994 15.4138C6.37994 15.4338 6.31994 15.4338 6.25994 15.4338C6.19994 15.4238 6.13994 15.4138 6.08994 15.3938C6.01994 15.3838 5.96994 15.3538 5.90994 15.3238C5.85994 15.2838 5.80994 15.2438 5.75994 15.2038C5.71994 15.1538 5.68994 15.1138 5.64994 15.0538C5.61994 15.0038 5.59994 14.9438 5.57994 14.8838C5.55994 14.8238 5.54994 14.7538 5.54994 14.6838L5.54994 13.3838C5.31994 13.2938 5.08994 13.1938 4.85994 13.0838C4.56994 12.9338 4.28994 12.7638 4.01994 12.5738C3.67994 12.3338 3.36994 12.0738 3.08994 11.7938C2.88994 11.5838 2.69994 11.3738 2.52994 11.1438C2.26994 10.8038 2.04994 10.4438 1.85994 10.0738C1.73994 9.82375 1.63994 9.57375 1.54994 9.31375C1.43994 9.01375 1.35994 8.70375 1.29994 8.39375C1.22994 8.00375 1.18994 7.61375 1.18994 7.21375C1.18994 6.74375 1.23994 6.28375 1.33994 5.83375C1.42994 5.42375 1.55994 5.02375 1.72994 4.63375C1.86994 4.30375 2.03994 4.00375 2.21994 3.70375C2.49994 3.28375 2.81994 2.89375 3.18994 2.53375C3.47994 2.24375 3.78994 1.99375 4.11994 1.77375C4.49994 1.51375 4.90994 1.29375 5.34994 1.11375C5.69994 0.97375 6.05994 0.85375 6.42994 0.77375C6.93994 0.65375 7.45994 0.59375 7.98994 0.59375C8.51994 0.59375 9.03994 0.65375 9.54994 0.77375C9.90994 0.85375 10.2799 0.97375 10.6299 1.11375C11.0699 1.29375 11.4799 1.51375 11.8599 1.77375C12.1899 1.99375 12.4999 2.24375 12.7899 2.53375C13.1599 2.89375 13.4799 3.28375 13.7599 3.70375C13.9399 4.00375 14.1099 4.30375 14.2499 4.63375C14.4199 5.02375 14.5499 5.42375 14.6399 5.83375C14.7399 6.28375 14.7799 6.74375 14.7799 7.20375ZM13.7799 7.20375C13.7799 6.81375 13.7399 6.42375 13.6599 6.04375C13.5799 5.69375 13.4699 5.36375 13.3299 5.03375C13.2199 4.76375 13.0799 4.51375 12.9299 4.27375C12.6999 3.90375 12.4199 3.56375 12.0899 3.24375C11.8499 3.01375 11.5899 2.79375 11.3099 2.61375C10.9799 2.38375 10.6299 2.19375 10.2499 2.04375C9.95994 1.92375 9.65994 1.82375 9.34994 1.75375C8.90994 1.65375 8.45994 1.59375 7.98994 1.59375C7.51994 1.59375 7.06994 1.65375 6.61994 1.75375C6.31994 1.82375 6.01994 1.92375 5.72994 2.04375C5.34994 2.19375 4.99994 2.38375 4.66994 2.61375C4.38994 2.79375 4.12994 3.01375 3.88994 3.24375C3.55994 3.56375 3.27994 3.90375 3.04994 4.27375C2.88994 4.51375 2.75994 4.76375 2.64994 5.03375C2.49994 5.35375 2.39994 5.69375 2.31994 6.03375C2.23994 6.41375 2.18994 6.81375 2.18994 7.21375C2.18994 7.55375 2.22994 7.89375 2.28994 8.22375C2.33994 8.48375 2.40994 8.74375 2.48994 8.99375C2.55994 9.19375 2.64994 9.40375 2.73994 9.60375C2.89994 9.92375 3.09994 10.2438 3.31994 10.5338C3.46994 10.7238 3.61994 10.9038 3.77994 11.0638C4.02994 11.3238 4.29994 11.5438 4.58994 11.7538C4.81994 11.9138 5.05994 12.0538 5.29994 12.1838C5.58994 12.3238 5.88994 12.4438 6.19994 12.5438L6.54994 12.6538L6.54994 14.2738L10.7499 12.1438C11.0099 12.0038 11.2599 11.8538 11.4899 11.6838C11.6599 11.5538 11.8299 11.4138 11.9899 11.2638C12.2299 11.0438 12.4499 10.8038 12.6499 10.5438C12.7599 10.4038 12.8599 10.2638 12.9499 10.1138C13.1199 9.84374 13.2599 9.56374 13.3799 9.27374C13.4499 9.09374 13.5099 8.92374 13.5599 8.74374C13.6199 8.54375 13.6699 8.33374 13.7099 8.13374C13.7599 7.83374 13.7799 7.52375 13.7799 7.20375ZM11.3099 8.49375C11.0799 8.72375 10.8299 8.92375 10.5699 9.10375C10.3299 9.25375 10.0799 9.39375 9.81994 9.50375C9.54994 9.61374 9.28994 9.70375 9.00994 9.76375C8.67994 9.83375 8.33994 9.87375 7.98994 9.87375C7.63994 9.87375 7.29994 9.83375 6.96994 9.76375C6.68994 9.70375 6.41994 9.61375 6.15994 9.50375C5.89994 9.39375 5.63994 9.25375 5.40994 9.10375C5.13994 8.92375 4.89994 8.72375 4.66994 8.49375C4.46994 8.29375 4.46994 7.98375 4.66994 7.78375C4.86994 7.59375 5.17994 7.59375 5.37994 7.78375C5.55994 7.97375 5.74994 8.13375 5.96994 8.27375C6.14994 8.39375 6.33994 8.49375 6.54994 8.58375C6.74994 8.66375 6.95994 8.73375 7.16994 8.78375C7.42994 8.84375 7.70994 8.87375 7.98994 8.87375C8.26994 8.87375 8.53994 8.84375 8.80994 8.78375C9.01994 8.73375 9.22994 8.66375 9.42994 8.58375C9.62994 8.49375 9.82994 8.39375 10.0099 8.27375C10.2199 8.13375 10.4199 7.97375 10.5999 7.78375C10.7999 7.59375 11.1099 7.59375 11.3099 7.78375C11.5099 7.98375 11.5099 8.29375 11.3099 8.49375Z"
		fill="currentColor"
		fill-rule="evenodd"
	/>
</svg>