<svg width="16.000000" height="16.000000" viewBox="0 0 16 16" fill="none" xmlns="http://www.w3.org/2000/svg" xmlns:xlink="http://www.w3.org/1999/xlink">
	<desc>
			Created with Pixso.
	</desc>
	<defs>
		<clipPath id="clip3794_39681">
			<rect id="对话" width="16.000000" height="16.000000" fill="white" fill-opacity="0"/>
		</clipPath>
	</defs>
	<g clip-path="url(#clip3794_39681)">
		<path id="矢量 644" d="M14.78 8.25C14.83 7.91 14.86 7.54 14.86 7.18C14.86 6.71 14.82 6.25 14.72 5.8C14.63 5.39 14.5 4.97 14.32 4.57C14.18 4.25 14.01 3.95 13.83 3.64C13.55 3.22 13.22 2.83 12.85 2.46C12.56 2.16 12.24 1.91 11.91 1.69C11.53 1.42 11.11 1.21 10.67 1.03C10.31 0.89 9.94 0.76 9.58 0.67C9.06 0.56 8.54 0.5 8 0.5C7.47 0.5 6.94 0.56 6.42 0.67C6.05 0.76 5.69 0.89 5.33 1.03C4.89 1.21 4.47 1.42 4.09 1.69C3.76 1.91 3.44 2.16 3.15 2.46C2.78 2.83 2.45 3.22 2.17 3.64C1.99 3.95 1.82 4.25 1.68 4.57C1.51 4.97 1.37 5.39 1.28 5.8C1.18 6.25 1.13 6.71 1.13 7.18C1.13 7.6 1.17 7.99 1.24 8.39C1.3 8.7 1.38 9 1.5 9.32C1.59 9.57 1.69 9.82 1.81 10.08C2 10.46 2.22 10.82 2.49 11.16C2.66 11.39 2.85 11.6 3.05 11.82C3.33 12.1 3.65 12.36 3.99 12.6C4.26 12.8 4.55 12.97 4.84 13.12C5.07 13.23 5.3 13.33 5.54 13.42L5.54 14.74C5.54 14.81 5.55 14.88 5.57 14.94C5.59 15 5.61 15.06 5.64 15.11C5.68 15.17 5.71 15.21 5.75 15.26C5.8 15.3 5.85 15.35 5.9 15.39C5.96 15.42 6.01 15.45 6.08 15.46C6.13 15.47 6.19 15.49 6.25 15.5C6.31 15.5 6.37 15.5 6.43 15.47C6.51 15.46 6.58 15.45 6.64 15.42L11.26 13.06C11.57 12.91 11.85 12.73 12.11 12.53C12.33 12.37 12.54 12.21 12.73 12.03C13 11.77 13.26 11.5 13.49 11.21C13.62 11.02 13.75 10.85 13.87 10.66C14.06 10.35 14.22 10.02 14.36 9.67C14.46 9.46 14.54 9.23 14.6 9.01C14.68 8.76 14.73 8.5 14.78 8.25ZM13.73 6C13.81 6.39 13.85 6.78 13.85 7.18C13.85 7.5 13.83 7.81 13.78 8.11C13.74 8.32 13.69 8.53 13.63 8.73C13.58 8.92 13.52 9.09 13.44 9.26C13.32 9.57 13.18 9.85 13.01 10.11C12.92 10.28 12.82 10.42 12.71 10.56Q12.4 10.95 12.04 11.28C11.88 11.43 11.71 11.57 11.54 11.71C11.3 11.88 11.05 12.03 10.79 12.17L6.55 14.32L6.55 12.69L6.19 12.57C5.88 12.47 5.58 12.35 5.28 12.21C5.04 12.08 4.8 11.94 4.57 11.78C4.27 11.57 4 11.35 3.75 11.08C3.59 10.92 3.43 10.74 3.28 10.54C3.06 10.25 2.86 9.93 2.7 9.6C2.61 9.39 2.52 9.18 2.44 8.98C2.36 8.73 2.28 8.46 2.24 8.21C2.18 7.88 2.14 7.53 2.14 7.18C2.14 6.78 2.19 6.39 2.27 6C2.35 5.66 2.45 5.3 2.61 4.99C2.72 4.71 2.85 4.46 3.01 4.21C3.24 3.84 3.53 3.5 3.86 3.17C4.1 2.94 4.36 2.71 4.65 2.54C4.98 2.3 5.33 2.12 5.72 1.96C6.01 1.85 6.31 1.74 6.62 1.67C7.07 1.57 7.53 1.52 8 1.52C8.47 1.52 8.93 1.57 9.37 1.67C9.69 1.74 9.99 1.85 10.28 1.96C10.67 2.12 11.02 2.3 11.35 2.54C11.64 2.71 11.9 2.94 12.14 3.17C12.48 3.5 12.76 3.84 12.99 4.21C13.14 4.46 13.28 4.71 13.39 4.99C13.54 5.32 13.65 5.66 13.73 6ZM6.02 6.89C6.02 6.39 5.61 5.97 5.1 5.97C4.61 5.97 4.19 6.39 4.19 6.89C4.19 7.39 4.61 7.8 5.1 7.8C5.61 7.8 6.02 7.39 6.02 6.89ZM11.8 6.89C11.8 6.39 11.38 5.98 10.89 5.98C10.38 5.98 9.98 6.39 9.98 6.89C9.98 7.39 10.38 7.81 10.89 7.81C11.38 7.81 11.8 7.39 11.8 6.89ZM8.9 6.9C8.9 6.4 8.49 5.99 8 5.99C7.49 5.99 7.08 6.4 7.08 6.9C7.08 7.4 7.49 7.82 8 7.82C8.49 7.82 8.9 7.4 8.9 6.9Z" fill="currentColor" fill-opacity="1.000000" fill-rule="evenodd"/>
	</g>
</svg>
