<svg viewBox="0 0 40 40" xmlns="http://www.w3.org/2000/svg" xmlns:xlink="http://www.w3.org/1999/xlink" width="40.000000" height="40.000000" fill="none">
	<rect id="复选组" width="40.000000" height="40.000000" x="0.000000" y="0.000000" fill="rgb(255,255,255)" fill-opacity="0" />
	<path id="矢量 559" d="M14.5976 4.7636L14.5988 4.76386C14.766 4.80037 14.9297 4.85254 15.0901 4.92037Q15.3301 5.02187 15.5438 5.16317L15.5442 5.16346C15.6998 5.26648 15.8451 5.38536 15.9799 5.5201Q16.182 5.72224 16.3365 5.95586C16.4308 6.09841 16.5118 6.24974 16.5796 6.40987C16.6475 6.57021 16.6996 6.73397 16.7361 6.90115C16.7787 7.09612 16.7999 7.29574 16.7999 7.5L16.7999 15.5C16.7999 15.7042 16.7787 15.9038 16.7361 16.0988C16.6996 16.266 16.6475 16.4298 16.5796 16.5901C16.5118 16.7503 16.4308 16.9016 16.3365 17.0442C16.2335 17.1999 16.1146 17.3451 15.9799 17.4799C15.8451 17.6147 15.6998 17.7336 15.5441 17.8366C15.4015 17.9309 15.2502 18.0119 15.0901 18.0796C14.9297 18.1475 14.766 18.1996 14.5988 18.2361L14.5974 18.2364Q14.3056 18.3 14 18.3L6 18.3C5.79565 18.3 5.59607 18.2787 5.40112 18.2361C5.23401 18.1996 5.07019 18.1475 4.90979 18.0796C4.74963 18.0119 4.59827 17.9309 4.45581 17.8366C4.30005 17.7335 4.15479 17.6146 4.02002 17.4799C3.88525 17.3452 3.76648 17.1999 3.66345 17.0442C3.56909 16.9016 3.48804 16.7503 3.42029 16.5901C3.35254 16.4298 3.30029 16.266 3.26379 16.0988C3.22119 15.9038 3.19995 15.7042 3.19995 15.5L3.19995 7.5C3.19995 7.29575 3.22119 7.09615 3.26379 6.9012C3.30029 6.73401 3.35254 6.57023 3.42029 6.40987Q3.52155 6.1705 3.66244 5.95732L3.66244 5.95731L3.66345 5.95578C3.76648 5.80007 3.88538 5.65484 4.02002 5.5201C4.15479 5.38537 4.30005 5.26649 4.45569 5.16347L4.45621 5.16312Q4.66985 5.02185 4.90979 4.92037C5.07019 4.85254 5.23401 4.80037 5.40112 4.76386C5.59607 4.72129 5.79565 4.7 6 4.7L14 4.7Q14.3057 4.7 14.5976 4.7636L14.5976 4.7636ZM14 6.3L6 6.3C5.90381 6.3 5.8103 6.31088 5.71936 6.33264C5.65601 6.34781 5.59387 6.36825 5.53308 6.39397C5.46875 6.4212 5.40759 6.45349 5.34985 6.49084C5.27869 6.53674 5.21265 6.59028 5.15137 6.65147C5.09021 6.71266 5.03674 6.77879 4.99084 6.84986C4.95349 6.90769 4.92114 6.96878 4.89392 7.03315C4.86816 7.09397 4.84778 7.15605 4.83264 7.2194C4.81079 7.31033 4.79993 7.40386 4.79993 7.5L4.79993 15.5C4.79993 15.5961 4.81079 15.6897 4.83264 15.7806C4.84778 15.8439 4.86816 15.906 4.89392 15.9668C4.92114 16.0312 4.95349 16.0923 4.99084 16.1501C5.03674 16.2212 5.09021 16.2873 5.15137 16.3485C5.21265 16.4097 5.27869 16.4633 5.34973 16.5091C5.40759 16.5465 5.46875 16.5788 5.53308 16.606C5.59387 16.6318 5.65601 16.6522 5.71936 16.6674C5.8103 16.6891 5.90381 16.7 6 16.7L14 16.7Q14.1419 16.7 14.2764 16.6683Q14.2785 16.6678 14.2805 16.6674C14.3439 16.6522 14.406 16.6317 14.4668 16.606C14.5311 16.5788 14.5923 16.5465 14.65 16.5092C14.7212 16.4633 14.7872 16.4097 14.8485 16.3485C14.9097 16.2873 14.9633 16.2212 15.0092 16.1502C15.0465 16.0923 15.0787 16.0312 15.106 15.9668C15.1317 15.906 15.1521 15.8439 15.1674 15.7805C15.1891 15.6896 15.2 15.5961 15.2 15.5L15.2 7.5Q15.2 7.35578 15.1674 7.21938C15.1521 7.15604 15.1317 7.09396 15.106 7.03315C15.0787 6.96879 15.0465 6.9077 15.0092 6.84988C14.9633 6.77881 14.9097 6.71267 14.8485 6.65147C14.7874 6.59029 14.7212 6.53674 14.6501 6.49085C14.5923 6.45349 14.5311 6.4212 14.4668 6.39397C14.406 6.36825 14.3439 6.34781 14.2805 6.33265Q14.2785 6.33216 14.2764 6.33168Q14.1419 6.3 14 6.3ZM36.0449 9.4L20.5469 9.4C20.0989 9.4 19.7468 9.048 19.7468 8.6C19.7468 8.152 20.0989 7.8 20.5469 7.8L36.0449 7.8C36.4929 7.8 36.8448 8.152 36.8448 8.6C36.8448 9.048 36.4929 9.4 36.0449 9.4ZM13.0972 10.1124L10.3682 13.384C10.3231 13.438 10.2736 13.4863 10.2195 13.5289C10.1677 13.5696 10.1119 13.6051 10.0519 13.6353C9.99365 13.6647 9.93372 13.688 9.87219 13.7053C9.80896 13.723 9.74402 13.7343 9.67725 13.7393C9.6106 13.7442 9.54468 13.7427 9.47949 13.7345C9.41602 13.7266 9.35339 13.7124 9.29138 13.692C9.22766 13.671 9.16711 13.6442 9.10986 13.6115C9.05005 13.5774 8.9939 13.537 8.94141 13.4903L7.06836 11.8248C6.8884 11.6647 6.79676 11.4471 6.79676 11.228C6.79676 11.0396 6.86454 10.8501 7.0022 10.6953C7.29993 10.3606 7.79688 10.3314 8.13159 10.6291L9.53882 11.8804L11.8685 9.08756C12.1554 8.74353 12.6512 8.6987 12.9952 8.98567C13.1872 9.1458 13.286 9.37095 13.286 9.59847C13.286 9.77868 13.224 9.96039 13.0972 10.1124ZM30.5469 15L20.5469 15C20.0989 15 19.7468 14.648 19.7468 14.2C19.7468 13.752 20.0989 13.4 20.5469 13.4L30.5469 13.4C30.9949 13.4 31.3468 13.752 31.3468 14.2C31.3468 14.648 30.9949 15 30.5469 15ZM14.5976 21.7626L14.5988 21.7629C14.766 21.7994 14.9297 21.8516 15.0901 21.9194C15.2502 21.9871 15.4016 22.0682 15.5442 22.1625C15.6998 22.2655 15.8451 22.3844 15.9799 22.5191C16.1146 22.6539 16.2335 22.7991 16.3365 22.9549C16.4308 23.0974 16.5118 23.2488 16.5796 23.4089C16.6475 23.5692 16.6996 23.733 16.7361 23.9002C16.7787 24.0951 16.7999 24.2948 16.7999 24.499L16.7999 32.499C16.7999 32.7033 16.7787 32.9029 16.7361 33.0978C16.6996 33.265 16.6475 33.4288 16.5796 33.5892C16.5118 33.7493 16.4308 33.9006 16.3365 34.0432C16.2335 34.1989 16.1146 34.3442 15.9799 34.4789Q15.7779 34.6809 15.5445 34.8353L15.5441 34.8356C15.4015 34.9299 15.2502 35.0109 15.0901 35.0787C14.9297 35.1465 14.766 35.1986 14.5988 35.2352C14.4038 35.2777 14.2042 35.299 14 35.299L6 35.299C5.79565 35.299 5.59607 35.2777 5.40112 35.2352C5.23401 35.1987 5.07019 35.1465 4.90979 35.0787C4.74963 35.0109 4.59827 34.9299 4.45581 34.8356C4.30005 34.7326 4.15479 34.6137 4.02002 34.4789C3.88525 34.3442 3.76648 34.199 3.66345 34.0432L3.66236 34.0416Q3.52152 33.8285 3.42029 33.5892C3.35254 33.4288 3.30029 33.265 3.26379 33.0978C3.22119 32.9029 3.19995 32.7033 3.19995 32.499L3.19995 24.499C3.19995 24.2948 3.22119 24.0952 3.26379 23.9002C3.30029 23.733 3.35254 23.5693 3.42029 23.4089C3.48804 23.2487 3.56909 23.0974 3.66345 22.9548C3.76648 22.7991 3.88538 22.6539 4.02002 22.5191C4.15479 22.3844 4.30005 22.2655 4.45569 22.1625C4.59827 22.0682 4.74963 21.9871 4.90979 21.9194C5.07019 21.8516 5.23401 21.7994 5.40112 21.7629C5.59607 21.7203 5.79565 21.699 6 21.699L14 21.699Q14.3057 21.699 14.5976 21.7626ZM14 23.299L6 23.299C5.90381 23.299 5.8103 23.3099 5.71936 23.3317C5.65601 23.3468 5.59387 23.3673 5.53308 23.393C5.46875 23.4202 5.40759 23.4525 5.34985 23.4899C5.27869 23.5358 5.21265 23.5893 5.15137 23.6505C5.09021 23.7117 5.03674 23.7778 4.99084 23.8489C4.95349 23.9067 4.92114 23.9678 4.89392 24.0322C4.86816 24.093 4.84778 24.1551 4.83264 24.2184C4.81079 24.3094 4.79993 24.4029 4.79993 24.499L4.79993 32.499C4.79993 32.5952 4.81079 32.6887 4.83264 32.7796C4.84778 32.843 4.86816 32.905 4.89392 32.9659C4.92114 33.0302 4.95349 33.0913 4.99084 33.1492C5.03674 33.2202 5.09021 33.2864 5.15137 33.3476C5.21265 33.4087 5.27869 33.4623 5.34973 33.5082C5.40759 33.5455 5.46875 33.5778 5.53308 33.605C5.59387 33.6308 5.65601 33.6512 5.71936 33.6664C5.8103 33.6881 5.90381 33.699 6 33.699L14 33.699Q14.1419 33.699 14.2764 33.6674Q14.2785 33.6669 14.2805 33.6664C14.3439 33.6512 14.406 33.6308 14.4668 33.6051C14.5311 33.5778 14.5923 33.5455 14.65 33.5082C14.7212 33.4623 14.7872 33.4087 14.8485 33.3476C14.9097 33.2864 14.9633 33.2202 15.0092 33.1492C15.0465 33.0914 15.0787 33.0303 15.106 32.9659C15.1317 32.905 15.1521 32.8429 15.1674 32.7796C15.1891 32.6887 15.2 32.5951 15.2 32.499L15.2 24.499Q15.2 24.3548 15.1674 24.2184C15.1521 24.1551 15.1317 24.093 15.106 24.0322C15.0787 23.9678 15.0465 23.9067 15.0092 23.8489C14.9633 23.7778 14.9097 23.7117 14.8485 23.6505C14.7874 23.5893 14.7212 23.5358 14.6501 23.4899C14.5923 23.4525 14.5311 23.4202 14.4668 23.393C14.406 23.3673 14.3439 23.3468 14.2805 23.3317Q14.2785 23.3312 14.2765 23.3307Q14.142 23.299 14 23.299ZM36.0449 26L20.5469 26C20.0989 26 19.7468 25.648 19.7468 25.2C19.7468 24.752 20.0989 24.4 20.5469 24.4L36.0449 24.4C36.4929 24.4 36.8448 24.752 36.8448 25.2C36.8448 25.648 36.4929 26 36.0449 26ZM30.5469 31.6L20.5469 31.6C20.0989 31.6 19.7468 31.248 19.7468 30.8C19.7468 30.352 20.0989 30 20.5469 30L30.5469 30C30.9949 30 31.3468 30.352 31.3468 30.8C31.3468 31.248 30.9949 31.6 30.5469 31.6Z" fill="currentColor" fill-rule="evenodd" />
</svg>
