<svg id="图层_1" data-name="图层 1" xmlns="http://www.w3.org/2000/svg" viewBox="0 0 48 48"><defs><style>.cls-1{fill:currentColor;fill-rule:evenodd;}</style></defs><path id="矢量_183" data-name="矢量 183" class="cls-1" d="M46,15a3.00237,3.00237,0,0,0-3-3H5a2.996,2.996,0,0,0-3,3V33a3.00237,3.00237,0,0,0,3,3H43a3.00882,3.00882,0,0,0,3-3Zm-1.81,0A1.19724,1.19724,0,0,0,43,13.79H5A1.19931,1.19931,0,0,0,3.8,15V33A1.19711,1.19711,0,0,0,5,34.2H43A1.195,1.195,0,0,0,44.19,33ZM20.74,17.75a1.93193,1.93193,0,0,0-.74-.16H11a1.75241,1.75241,0,0,0-.4.05,1.35206,1.35206,0,0,0-.34.11,1.9123,1.9123,0,0,0-.32.16,3.06644,3.06644,0,0,0-.29.24,2.17217,2.17217,0,0,0-.24.29,2.285,2.285,0,0,0-.16.31,1.57252,1.57252,0,0,0-.11.35,1.75179,1.75179,0,0,0-.04.4v9a1.919,1.919,0,0,0,.15.74,1.96939,1.96939,0,0,0,.4.6,2.11019,2.11019,0,0,0,.61.41,1.90625,1.90625,0,0,0,.34.1,1.75241,1.75241,0,0,0,.4.05h9a2.12375,2.12375,0,0,0,.74-.15,2.06291,2.06291,0,0,0,.6-.41,2.20546,2.20546,0,0,0,.41-.6,2.47271,2.47271,0,0,0,.11-.36h0a1.83977,1.83977,0,0,0,.04-.38v-9a1.75241,1.75241,0,0,0-.05-.4,1.5361,1.5361,0,0,0-.1-.35,2.20546,2.20546,0,0,0-.41-.6,2.17217,2.17217,0,0,0-.29-.24A1.81854,1.81854,0,0,0,20.74,17.75ZM11,19.4h9c.01.01.1.07.1.1v9c-.02.01-.08.09-.1.09H11c-.02-.01-.1-.07-.1-.09v-9C10.9,19.48,10.99,19.41,11,19.4Zm15,1.19H38a.905.905,0,0,1,0,1.81H26a.905.905,0,0,1,0-1.81ZM15.44,25.96l3.1-2.88a.79953.79953,0,0,0-1.09-1.17L14.76,24.4l-1.22-1.13a.79443.79443,0,0,0-1.13.05.78589.78589,0,0,0,.04,1.13l1.63,1.51a.90622.90622,0,0,0,.16.11.82722.82722,0,0,0,.16.09,1.13251,1.13251,0,0,0,.36.06,1.2102,1.2102,0,0,0,.19-.01c.06-.02.12-.03.17-.05A1.15555,1.15555,0,0,0,15.44,25.96ZM26,27.58h8a.9.9,0,1,0,0-1.8H26a.9.9,0,0,0,0,1.8Z"/></svg>