<svg viewBox="0 0 40 40" xmlns="http://www.w3.org/2000/svg" xmlns:xlink="http://www.w3.org/1999/xlink" width="40.000000" height="40.000000" fill="none">
	<rect id="复选框" width="40.000000" height="40.000000" x="0.000000" y="0.000000" fill="rgb(255,255,255)" fill-opacity="0" />
	<path id="矢量 568" d="M32.3605 4.25335C32.048 4.18445 31.7278 4.15 31.4 4.15L8.59998 4.15C8.27222 4.15 7.95203 4.18446 7.63953 4.25336C7.37683 4.31127 7.11951 4.3935 6.86768 4.50005C6.61462 4.60705 6.37549 4.73493 6.15015 4.88369C5.901 5.04808 5.66882 5.23798 5.45337 5.45338C5.23804 5.66878 5.0481 5.90101 4.88367 6.15008C4.73499 6.37547 4.60706 6.61464 4.50012 6.8676C4.39355 7.11953 4.31128 7.37682 4.25342 7.63947C4.18445 7.95205 4.15002 8.27223 4.15002 8.6L4.15002 31.4C4.15002 31.7278 4.18445 32.0479 4.25342 32.3605C4.31128 32.6232 4.39355 32.8805 4.50012 33.1324C4.60706 33.3853 4.73499 33.6245 4.88367 33.8499C5.0481 34.099 5.23804 34.3312 5.45337 34.5466C5.66882 34.762 5.90112 34.952 6.15015 35.1163C6.37549 35.2651 6.61462 35.393 6.86768 35.5C7.11951 35.6065 7.37683 35.6887 7.6394 35.7466L7.64258 35.7473Q8.11 35.85 8.59998 35.85L31.4 35.85Q31.89 35.85 32.3574 35.7473L32.3606 35.7466C32.6232 35.6887 32.8805 35.6065 33.1324 35.5Q33.5118 35.3395 33.8499 35.1164C34.099 34.952 34.3312 34.762 34.5466 34.5466C34.7621 34.3312 34.952 34.099 35.1163 33.8499C35.2651 33.6245 35.3929 33.3853 35.5 33.1324C35.6066 32.8805 35.6887 32.6232 35.7467 32.3606C35.8156 32.048 35.85 31.7278 35.85 31.4L35.85 8.6C35.85 8.27222 35.8156 7.95203 35.7467 7.63943C35.6887 7.3768 35.6066 7.11951 35.5 6.8676C35.3929 6.61466 35.2651 6.3755 35.1163 6.15013C34.952 5.90104 34.7621 5.66879 34.5466 5.45338C34.3312 5.23795 34.099 5.04803 33.8499 4.88362C33.6245 4.73489 33.3854 4.60703 33.1324 4.50005Q32.7552 4.3405 32.3619 4.25367L32.3618 4.25366L32.3605 4.25335ZM8.59998 5.85L31.4 5.85C31.6129 5.85 31.8204 5.87339 32.0225 5.92015C32.1748 5.95541 32.324 6.00394 32.4702 6.06576C32.6213 6.12971 32.7646 6.2058 32.9 6.29404C33.0592 6.39774 33.2073 6.51821 33.3446 6.65546Q33.5493 6.86018 33.7043 7.09734L33.7043 7.09739L33.7061 7.10001C33.7942 7.23537 33.8704 7.37865 33.9343 7.52984C33.9961 7.67599 34.0446 7.82521 34.0798 7.9775C34.1266 8.17959 34.15 8.38709 34.15 8.6L34.15 31.4C34.15 31.6129 34.1266 31.8204 34.0798 32.0225C34.0446 32.1748 33.9961 32.324 33.9343 32.4702C33.8704 32.6214 33.7942 32.7647 33.7059 32.9001C33.6023 33.0592 33.4818 33.2073 33.3446 33.3445C33.2074 33.4818 33.0592 33.6022 32.9001 33.7059C32.7648 33.7942 32.6215 33.8703 32.4702 33.9342C32.3241 33.9961 32.1748 34.0446 32.0225 34.0798C31.8204 34.1266 31.6129 34.15 31.4 34.15L8.59998 34.15C8.38708 34.15 8.17957 34.1266 7.97754 34.0798C7.8252 34.0446 7.67603 33.9961 7.52991 33.9342C7.37866 33.8703 7.23535 33.7942 7.09998 33.706C6.94092 33.6023 6.79272 33.4818 6.65552 33.3445Q6.44952 33.1387 6.29407 32.9C6.20581 32.7646 6.12976 32.6213 6.0658 32.4702C6.00391 32.324 5.95544 32.1747 5.92017 32.0224C5.87341 31.8204 5.84998 31.6129 5.84998 31.4L5.84998 8.6C5.84998 8.3871 5.87341 8.1796 5.92017 7.97752C5.95544 7.82522 6.00391 7.67599 6.0658 7.52984C6.12976 7.37866 6.20581 7.23539 6.29407 7.10003C6.39771 6.94091 6.51819 6.79272 6.65552 6.65546Q6.85896 6.45194 7.09461 6.29759Q7.09735 6.2958 7.1001 6.29401C7.23535 6.20579 7.37866 6.12971 7.52991 6.06576C7.67603 6.00394 7.8252 5.95541 7.97754 5.92015C8.17969 5.87339 8.38708 5.85 8.59998 5.85ZM19.5048 25.6967L28.6571 14.5391C28.959 14.1711 28.9071 13.6447 28.5391 13.3428C28.171 13.0409 27.6447 13.0929 27.3428 13.4609L18.1903 24.6186C18.1764 24.6355 18.1605 24.6486 18.1426 24.6577C18.1246 24.6668 18.1046 24.672 18.0828 24.6732C18.0608 24.6744 18.0404 24.6715 18.0216 24.6644C18.0027 24.6574 17.9855 24.6462 17.9697 24.6308L12.5933 19.3902C12.2524 19.058 11.7235 19.0647 11.3912 19.4056C11.0591 19.7464 11.0658 20.2753 11.4066 20.6076L16.7831 25.8482C16.8842 25.9467 16.9934 26.0318 17.1107 26.1035C17.2141 26.1665 17.3237 26.2192 17.4397 26.2615C17.5543 26.3033 17.6707 26.3334 17.7888 26.3518C17.9161 26.3716 18.0457 26.3779 18.1772 26.3706C18.3088 26.3632 18.4368 26.3427 18.5612 26.3088C18.6765 26.2774 18.7888 26.2346 18.8979 26.1804C19.0085 26.1255 19.1117 26.0609 19.2074 25.9868C19.316 25.9025 19.4153 25.8058 19.5048 25.6967Z" fill="currentColor" fill-rule="evenodd" />
</svg>
