<svg viewBox="0 0 40 40" xmlns="http://www.w3.org/2000/svg" xmlns:xlink="http://www.w3.org/1999/xlink" width="40.000000" height="40.000000" fill="none">
	<rect id="复选框拖拽按钮组" width="40.000000" height="40.000000" x="0.000000" y="0.000000" fill="rgb(255,255,255)" fill-opacity="0" />
	<path id="矢量 583" d="M18.5746 6.75C18.5746 5.09314 17.2314 3.75 15.5746 3.75L6.75 3.75C5.09314 3.75 3.75 5.09314 3.75 6.75L3.75 15.5746C3.75 17.2314 5.09314 18.5746 6.75 18.5746L15.5746 18.5746C17.2314 18.5746 18.5746 17.2314 18.5746 15.5746L18.5746 6.75ZM36.1542 6.75C36.1542 5.09314 34.811 3.75 33.1542 3.75L24.3296 3.75C22.6727 3.75 21.3296 5.09314 21.3296 6.75L21.3296 15.5746C21.3296 17.2314 22.6727 18.5746 24.3296 18.5746L33.1542 18.5746C34.811 18.5746 36.1542 17.2314 36.1542 15.5746L36.1542 6.75ZM6.75 5.35001L15.5746 5.35001C15.6918 5.35001 15.8055 5.36378 15.9158 5.39134Q16.0194 5.41725 16.119 5.45937C16.1917 5.49007 16.2607 5.52634 16.3262 5.56815L16.3263 5.56818L16.3263 5.56819C16.4117 5.62271 16.4911 5.68666 16.5645 5.76006C16.6379 5.83345 16.7019 5.91287 16.7563 5.99831C16.7982 6.06384 16.8345 6.13292 16.8652 6.20555C16.8933 6.27193 16.9159 6.33965 16.9332 6.40872C16.9608 6.51904 16.9746 6.6328 16.9746 6.75L16.9746 15.5746C16.9746 15.6918 16.9608 15.8055 16.9332 15.9158C16.9159 15.9849 16.8933 16.0526 16.8652 16.119C16.8345 16.1917 16.7982 16.2608 16.7563 16.3263C16.7018 16.4117 16.6379 16.4911 16.5645 16.5645C16.4911 16.6379 16.4117 16.7018 16.3263 16.7563L16.3255 16.7568Q16.2276 16.8193 16.119 16.8652C16.0526 16.8933 15.9849 16.916 15.9158 16.9332C15.8055 16.9608 15.6918 16.9746 15.5746 16.9746L6.75 16.9746C6.63281 16.9746 6.51904 16.9608 6.40869 16.9332L6.40869 16.9332C6.3396 16.9159 6.27197 16.8933 6.20557 16.8652C6.13293 16.8345 6.06384 16.7982 5.99829 16.7564C5.91284 16.7019 5.8335 16.6379 5.76001 16.5645C5.68665 16.4911 5.62268 16.4117 5.56812 16.3262C5.52637 16.2607 5.49011 16.1916 5.45935 16.119C5.43127 16.0526 5.40857 15.9849 5.39136 15.9158L5.39136 15.9158L5.39131 15.9156Q5.34998 15.7502 5.34998 15.5746L5.34998 6.75C5.34998 6.6328 5.36377 6.51906 5.39136 6.40875C5.40857 6.33966 5.43127 6.27193 5.45935 6.20555C5.49011 6.13293 5.52637 6.06387 5.56812 5.99834C5.62268 5.91289 5.68665 5.83345 5.76001 5.76006C5.8335 5.68665 5.91284 5.62268 5.99829 5.56815C6.06384 5.52634 6.13293 5.49007 6.20557 5.45937C6.27197 5.43129 6.3396 5.40862 6.40869 5.39136C6.51904 5.36378 6.63281 5.35001 6.75 5.35001ZM24.3296 5.35001L33.1542 5.35001C33.2714 5.35001 33.3851 5.36378 33.4954 5.39134Q33.599 5.41725 33.6986 5.45937C33.7712 5.49007 33.8403 5.52634 33.9058 5.56815L33.9059 5.56818C33.9913 5.62271 34.0707 5.68666 34.144 5.76006C34.2175 5.83345 34.2815 5.91287 34.3359 5.99831C34.3778 6.06384 34.4141 6.13292 34.4448 6.20555C34.4729 6.27193 34.4955 6.33965 34.5128 6.40872C34.5404 6.51904 34.5542 6.6328 34.5542 6.75L34.5542 15.5746C34.5542 15.6918 34.5404 15.8055 34.5128 15.9158C34.4955 15.9849 34.4729 16.0526 34.4448 16.119C34.4141 16.1917 34.3778 16.2608 34.3359 16.3263C34.2814 16.4117 34.2175 16.4911 34.144 16.5645C34.0707 16.6379 33.9913 16.7018 33.9059 16.7563L33.9051 16.7568Q33.8071 16.8193 33.6986 16.8652C33.6322 16.8933 33.5645 16.916 33.4954 16.9332C33.3851 16.9608 33.2714 16.9746 33.1542 16.9746L24.3296 16.9746C24.2124 16.9746 24.0986 16.9608 23.9883 16.9332C23.9192 16.9159 23.8516 16.8933 23.7852 16.8652C23.7125 16.8345 23.6434 16.7982 23.5779 16.7564C23.4924 16.7019 23.4131 16.6379 23.3396 16.5645C23.2662 16.4911 23.2023 16.4117 23.1477 16.3262C23.106 16.2607 23.0697 16.1916 23.0389 16.119C23.0109 16.0526 22.9882 15.9849 22.9709 15.9158L22.9709 15.9158L22.9709 15.9156Q22.9296 15.7502 22.9296 15.5746L22.9296 6.75C22.9296 6.6328 22.9434 6.51906 22.9709 6.40875C22.9882 6.33966 23.0109 6.27193 23.0389 6.20555C23.0697 6.13293 23.106 6.06387 23.1477 5.99834C23.2023 5.91289 23.2662 5.83345 23.3396 5.76006C23.4131 5.68665 23.4924 5.62268 23.5779 5.56815C23.6434 5.52634 23.7125 5.49007 23.7852 5.45937C23.8516 5.43129 23.9192 5.40862 23.9883 5.39136C24.0986 5.36378 24.2124 5.35001 24.3296 5.35001ZM11.0427 13.9989L14.8817 10.16C15.1985 9.84325 15.1985 9.34544 14.8817 9.02867C14.5649 8.71188 14.0671 8.71188 13.7504 9.02867L10.3385 12.4405L8.73462 10.8366C8.41772 10.5199 7.91992 10.5199 7.60315 10.8366C7.28638 11.1534 7.28638 11.6512 7.60315 11.968L9.63416 13.9989C9.72937 14.0942 9.83936 14.1671 9.96399 14.2177C10.0233 14.2417 10.0837 14.2598 10.1454 14.272C10.2085 14.2845 10.2728 14.2907 10.3385 14.2907Q10.4362 14.2907 10.5304 14.2722L10.5315 14.272C10.5931 14.2598 10.6536 14.2417 10.7129 14.2177C10.8375 14.1671 10.9475 14.0942 11.0427 13.9989ZM15.5746 21.3305C17.2314 21.3305 18.5746 22.6736 18.5746 24.3305L18.5746 33.1551C18.5746 34.8119 17.2314 36.1551 15.5746 36.1551L6.75 36.1551C5.09314 36.1551 3.75 34.8119 3.75 33.1551L3.75 24.3305C3.75 22.6736 5.09314 21.3305 6.75 21.3305L15.5746 21.3305ZM33.25 21.4254C34.9069 21.4254 36.25 22.7686 36.25 24.4254L36.25 33.25C36.25 34.9068 34.9069 36.25 33.25 36.25L24.4254 36.25C22.7686 36.25 21.4254 34.9068 21.4254 33.25L21.4254 24.4254C21.4254 22.7686 22.7686 21.4254 24.4254 21.4254L33.25 21.4254ZM15.5746 22.9305L6.75 22.9305C6.63281 22.9305 6.51904 22.9443 6.40869 22.9719C6.3396 22.9891 6.27197 23.0118 6.20557 23.0399C6.13293 23.0706 6.06384 23.1068 5.99829 23.1487C5.91284 23.2032 5.8335 23.2672 5.76001 23.3406C5.68665 23.414 5.62268 23.4934 5.56812 23.5788C5.52637 23.6444 5.49011 23.7134 5.45935 23.7861C5.43127 23.8524 5.40857 23.9202 5.39136 23.9893C5.36377 24.0996 5.34998 24.2133 5.34998 24.3305L5.34998 33.1551Q5.34998 33.3307 5.39131 33.4961L5.39136 33.4963L5.39136 33.4963C5.40857 33.5654 5.43127 33.6331 5.45935 33.6995C5.49011 33.7721 5.52637 33.8412 5.56812 33.9067C5.62268 33.9922 5.68665 34.0716 5.76001 34.145C5.8335 34.2184 5.91284 34.2824 5.99829 34.3369C6.06384 34.3787 6.13293 34.415 6.20557 34.4457C6.27197 34.4738 6.3396 34.4964 6.40869 34.5137C6.51904 34.5413 6.63281 34.5551 6.75 34.5551L15.5746 34.5551C15.6918 34.5551 15.8055 34.5413 15.9158 34.5137C15.9849 34.4965 16.0526 34.4738 16.119 34.4457Q16.2276 34.3998 16.3255 34.3373L16.3263 34.3369C16.4117 34.2823 16.4911 34.2184 16.5645 34.145C16.6379 34.0716 16.7018 33.9922 16.7563 33.9068C16.7982 33.8413 16.8345 33.7722 16.8652 33.6995C16.8933 33.6331 16.9159 33.5654 16.9332 33.4964C16.9608 33.386 16.9746 33.2723 16.9746 33.1551L16.9746 24.3305C16.9746 24.2133 16.9608 24.0995 16.9332 23.9892C16.9159 23.9202 16.8933 23.8524 16.8652 23.7861C16.8345 23.7134 16.7982 23.6443 16.7563 23.5788C16.7019 23.4934 16.6379 23.414 16.5645 23.3406C16.4911 23.2672 16.4117 23.2032 16.3263 23.1487L16.3262 23.1487C16.2607 23.1068 16.1917 23.0706 16.119 23.0399Q16.0194 22.9978 15.9158 22.9718C15.8055 22.9443 15.6918 22.9305 15.5746 22.9305ZM33.25 23.0254L24.4254 23.0254C24.3082 23.0254 24.1945 23.0392 24.0841 23.0668C24.015 23.084 23.9474 23.1067 23.881 23.1348C23.8083 23.1655 23.7393 23.2018 23.6737 23.2436C23.5883 23.2981 23.5089 23.3621 23.4354 23.4355C23.3621 23.5089 23.2981 23.5883 23.2435 23.6738C23.2018 23.7393 23.1655 23.8084 23.1348 23.881C23.1067 23.9474 23.084 24.0151 23.0668 24.0842C23.0392 24.1945 23.0254 24.3082 23.0254 24.4254L23.0254 33.25Q23.0254 33.4255 23.0667 33.5908L23.0667 33.591L23.0668 33.5912L23.0668 33.5913C23.084 33.6603 23.1067 33.7281 23.1348 33.7944C23.1655 33.8671 23.2018 33.9361 23.2435 34.0016C23.2981 34.0871 23.3621 34.1665 23.4354 34.2399C23.5089 34.3134 23.5883 34.3773 23.6737 34.4319C23.7393 34.4737 23.8083 34.5099 23.881 34.5406C23.9474 34.5687 24.015 34.5914 24.0841 34.6086C24.1945 34.6362 24.3082 34.65 24.4254 34.65L33.25 34.65C33.3672 34.65 33.481 34.6362 33.5912 34.6086C33.6603 34.5914 33.728 34.5687 33.7944 34.5406C33.8671 34.5099 33.9362 34.4736 34.0017 34.4318C34.0872 34.3773 34.1665 34.3133 34.2399 34.2399C34.3134 34.1666 34.3772 34.0872 34.4318 34.0017C34.4736 33.9362 34.5099 33.8671 34.5406 33.7944C34.5687 33.7281 34.5913 33.6604 34.6086 33.5913C34.6362 33.481 34.65 33.3672 34.65 33.25L34.65 24.4254C34.65 24.3082 34.6362 24.1945 34.6086 24.0842C34.5913 24.0151 34.5687 23.9474 34.5406 23.881C34.5099 23.8083 34.4736 23.7393 34.4318 23.6737C34.3773 23.5883 34.3134 23.5089 34.2399 23.4355C34.1665 23.3621 34.0872 23.2981 34.0017 23.2436L34.0016 23.2436C33.9362 23.2018 33.8671 23.1655 33.7944 23.1348Q33.6948 23.0927 33.5912 23.0668C33.481 23.0392 33.3672 23.0254 33.25 23.0254Z" fill="currentColor" fill-rule="evenodd" />
	<path id="矢量 223" d="M25.8444 29.0778L27.8753 31.1087C27.9519 31.1853 28.076 31.1853 28.1526 31.1087L31.9915 27.2698" stroke="currentColor" stroke-width="1.60000002" />
	<path id="矢量 223(边框)" d="M32.5572 27.8355L28.7183 31.6744C28.623 31.7697 28.5131 31.8426 28.3884 31.8931C28.3291 31.9172 28.2687 31.9353 28.207 31.9474C28.1439 31.9599 28.0796 31.9661 28.014 31.9661C27.9484 31.9661 27.884 31.9599 27.8209 31.9474C27.7593 31.9353 27.6988 31.9172 27.6396 31.8931C27.5149 31.8426 27.4049 31.7697 27.3097 31.6744L25.2787 29.6434C24.9619 29.3267 24.9619 28.8289 25.2787 28.5121C25.5955 28.1953 26.0933 28.1953 26.4101 28.5121L28.014 30.116L31.4258 26.7041C31.7426 26.3873 32.2404 26.3873 32.5572 26.7041C32.874 27.0209 32.874 27.5187 32.5572 27.8355Z" fill="currentColor" fill-rule="evenodd" />
</svg>
