<svg id="图层_1" data-name="图层 1" xmlns="http://www.w3.org/2000/svg" viewBox="0 0 48 48"><defs><style>.cls-1{fill:currentColor;fill-rule:evenodd;}</style></defs><path id="矢量_206" data-name="矢量 206" class="cls-1" d="M19.51,8.06l-.1-.02A3.2877,3.2877,0,0,0,18.89,8h-9a3.07792,3.07792,0,0,0-.61.06,3.12688,3.12688,0,0,0-.52.16,2.59491,2.59491,0,0,0-.46.26,2.603,2.603,0,0,0-.46.36,3.08854,3.08854,0,0,0-.36.45,2.81172,2.81172,0,0,0-.42.99A3.10519,3.10519,0,0,0,7,10.9v9a3.07792,3.07792,0,0,0,.06.61,2.81172,2.81172,0,0,0,.42.99,3.08854,3.08854,0,0,0,.36.45,3.17211,3.17211,0,0,0,.92.62,2.91664,2.91664,0,0,0,1.13.22h9a2.88123,2.88123,0,0,0,1.13-.22,2.92539,2.92539,0,0,0,.92-.62,3.27309,3.27309,0,0,0,.41-.5,3.71,3.71,0,0,0,.22-.43,2.87741,2.87741,0,0,0,.23-1.12v-9a3.09715,3.09715,0,0,0-.07-.62,2.75746,2.75746,0,0,0-.16-.51,3.62369,3.62369,0,0,0-.25-.48,3.2344,3.2344,0,0,0-.38-.45,2.92539,2.92539,0,0,0-.92-.62A2.75746,2.75746,0,0,0,19.51,8.06Zm18-.02h0A3.41457,3.41457,0,0,0,36.99,8h-9a3.25583,3.25583,0,0,0-.62.06,3.33184,3.33184,0,0,0-.51.16,3.09864,3.09864,0,0,0-.47.26,2.53935,2.53935,0,0,0-.45.36,3.16021,3.16021,0,0,0-.37.45,3.62369,3.62369,0,0,0-.25.48,2.75746,2.75746,0,0,0-.16.51,3.09715,3.09715,0,0,0-.07.62v9a3.08163,3.08163,0,0,0,.07.61,2.75746,2.75746,0,0,0,.16.51,3.62369,3.62369,0,0,0,.25.48,2.934,2.934,0,0,0,1.29,1.07,2.91664,2.91664,0,0,0,1.13.22h9a2.88123,2.88123,0,0,0,1.13-.22,2.92539,2.92539,0,0,0,.92-.62,2.86282,2.86282,0,0,0,.4-.5,2.37313,2.37313,0,0,0,.22-.43,2.7078,2.7078,0,0,0,.23-1.12v-9a3.10519,3.10519,0,0,0-.06-.62,2.77543,2.77543,0,0,0-.17-.51,2.73032,2.73032,0,0,0-.25-.48,2.6026,2.6026,0,0,0-.37-.45,2.92539,2.92539,0,0,0-.92-.62,3.01794,3.01794,0,0,0-.51-.16ZM9.89,9.79h9a1.003,1.003,0,0,1,.43.09.91474.91474,0,0,1,.17.09.84461.84461,0,0,1,.18.15,1.42167,1.42167,0,0,1,.16.19h0a1.786,1.786,0,0,1,.08.16.983.983,0,0,1,.05.16,1.25885,1.25885,0,0,1,.04.27v9a1.02349,1.02349,0,0,1-.09.42.91474.91474,0,0,1-.09.17.65491.65491,0,0,1-.15.18,1.08961,1.08961,0,0,1-.35.24,1.003,1.003,0,0,1-.43.09h-9a.7267.7267,0,0,1-.25-.04.84468.84468,0,0,1-.17-.05c-.06-.03-.12-.06-.17-.09a1.294,1.294,0,0,1-.33-.33c-.03-.05-.06-.11-.09-.17a1.0134,1.0134,0,0,1-.08-.42v-9a.83057.83057,0,0,1,.03-.27.983.983,0,0,1,.05-.16c.03-.06.06-.12.09-.17a.84461.84461,0,0,1,.15-.18.65491.65491,0,0,1,.18-.15.91474.91474,0,0,1,.17-.09.84468.84468,0,0,1,.17-.05A1.08553,1.08553,0,0,1,9.89,9.79Zm18.1,0h9a1.06991,1.06991,0,0,1,.43.09,1.3967,1.3967,0,0,1,.17.09,1.192,1.192,0,0,1,.18.15.98824.98824,0,0,1,.15.19h0a.91159.91159,0,0,1,.09.16.983.983,0,0,1,.05.16,1.24125,1.24125,0,0,1,.03.27v9a1.0134,1.0134,0,0,1-.08.42c-.03.06-.06.12-.09.17a.65491.65491,0,0,1-.15.18,1.2111,1.2111,0,0,1-.35.24,1.06991,1.06991,0,0,1-.43.09h-9a.82389.82389,0,0,1-.26-.04.74939.74939,0,0,1-.16-.05c-.06-.03-.12-.06-.17-.09a.8961.8961,0,0,1-.19-.15.86219.86219,0,0,1-.14-.18.5559.5559,0,0,1-.09-.17,1.02349,1.02349,0,0,1-.09-.42v-9a1.24125,1.24125,0,0,1,.03-.27c.02-.05.04-.11.06-.16a.5559.5559,0,0,1,.09-.17,1.23778,1.23778,0,0,1,.14-.18.8961.8961,0,0,1,.19-.15.91474.91474,0,0,1,.17-.09.74939.74939,0,0,1,.16-.05A1.26586,1.26586,0,0,1,27.99,9.79ZM14.75,18.14l3.91-3.9a.9051.9051,0,0,0-1.28-1.28l-3.4,3.41L12.41,14.8a.90157.90157,0,1,0-1.28,1.27l2.07,2.07a1.3421,1.3421,0,0,0,.18.15h0q.09.05.18.09a1.16229,1.16229,0,0,0,.42.08,1.49189,1.49189,0,0,0,.21-.02.76193.76193,0,0,0,.2-.06,1.06555,1.06555,0,0,0,.36-.24Zm4.66,8,.1.02a2.75746,2.75746,0,0,1,.51.16,2.92539,2.92539,0,0,1,.92.62,2.8175,2.8175,0,0,1,.38.46,2.98,2.98,0,0,1,.25.47,2.75746,2.75746,0,0,1,.16.51,3.09715,3.09715,0,0,1,.07.62v9a2.87741,2.87741,0,0,1-.23,1.12,3.71,3.71,0,0,1-.22.43h0a3.27309,3.27309,0,0,1-.41.5,2.92539,2.92539,0,0,1-.92.62,2.8894,2.8894,0,0,1-1.13.23h-9a2.92642,2.92642,0,0,1-1.13-.23,3.17211,3.17211,0,0,1-.92-.62,2.70836,2.70836,0,0,1-.36-.46,2.36561,2.36561,0,0,1-.26-.47,2.75746,2.75746,0,0,1-.16-.51A3.07792,3.07792,0,0,1,7,38V29a3.10519,3.10519,0,0,1,.06-.62,2.75746,2.75746,0,0,1,.16-.51,2.36561,2.36561,0,0,1,.26-.47,2.70836,2.70836,0,0,1,.36-.46,3.17024,3.17024,0,0,1,.46-.36,2.59491,2.59491,0,0,1,.46-.26,3.12688,3.12688,0,0,1,.52-.16,3.08163,3.08163,0,0,1,.61-.07h9A2.64623,2.64623,0,0,1,19.41,26.14Zm18.1,0h0a2.748,2.748,0,0,0-.52-.05h-9a3.27214,3.27214,0,0,0-.62.07,3.33184,3.33184,0,0,0-.51.16,3.28928,3.28928,0,0,0-.92.62,2.76194,2.76194,0,0,0-.37.46,2.98,2.98,0,0,0-.25.47,2.75746,2.75746,0,0,0-.16.51,3.09715,3.09715,0,0,0-.07.62v9a3.08163,3.08163,0,0,0,.07.61,2.75746,2.75746,0,0,0,.16.51,2.98,2.98,0,0,0,.25.47,2.76194,2.76194,0,0,0,.37.46,3.17211,3.17211,0,0,0,.92.62,2.92642,2.92642,0,0,0,1.13.23h9a2.8894,2.8894,0,0,0,1.13-.23,2.92539,2.92539,0,0,0,.92-.62,2.86282,2.86282,0,0,0,.4-.5,2.37313,2.37313,0,0,0,.22-.43A2.7078,2.7078,0,0,0,39.89,38V29a3.10519,3.10519,0,0,0-.06-.62,2.77543,2.77543,0,0,0-.17-.51,2.98187,2.98187,0,0,0-.62-.93,2.92539,2.92539,0,0,0-.92-.62,3.01794,3.01794,0,0,0-.51-.16ZM18.89,27.9h-9a1.06792,1.06792,0,0,0-.25.03.84468.84468,0,0,0-.17.05c-.06.03-.12.06-.17.09a1.294,1.294,0,0,0-.33.33c-.03.05-.06.11-.09.17a.983.983,0,0,0-.05.16A.83057.83057,0,0,0,8.8,29v9a.98364.98364,0,0,0,.08.42c.03.06.06.12.09.17a1.294,1.294,0,0,0,.33.33.91474.91474,0,0,0,.17.09.84468.84468,0,0,0,.17.05,1.06792,1.06792,0,0,0,.25.03h9a1.00013,1.00013,0,0,0,.43-.08,1.08961,1.08961,0,0,0,.35-.24.65491.65491,0,0,0,.15-.18.91474.91474,0,0,0,.09-.17A.99.99,0,0,0,20,38V29a1.25885,1.25885,0,0,0-.04-.27.983.983,0,0,0-.05-.16l-.08-.16h0a1.42167,1.42167,0,0,0-.16-.19.84461.84461,0,0,0-.18-.15c-.05-.03-.11-.06-.17-.09A1.00013,1.00013,0,0,0,18.89,27.9Zm9.1,0h9a1.0599,1.0599,0,0,1,.43.08c.06.03.11.06.17.09a1.192,1.192,0,0,1,.18.15.98824.98824,0,0,1,.15.19h0a.91159.91159,0,0,1,.09.16.983.983,0,0,1,.05.16,1.24125,1.24125,0,0,1,.03.27v9a.98364.98364,0,0,1-.08.42c-.03.06-.06.12-.09.17a.65491.65491,0,0,1-.15.18,1.2111,1.2111,0,0,1-.35.24,1.0599,1.0599,0,0,1-.43.08h-9a1.22162,1.22162,0,0,1-.26-.03.74939.74939,0,0,1-.16-.05.91474.91474,0,0,1-.17-.09.8961.8961,0,0,1-.19-.15.86219.86219,0,0,1-.14-.18.5559.5559,0,0,1-.09-.17.99.99,0,0,1-.09-.42V29a1.24125,1.24125,0,0,1,.03-.27c.02-.05.04-.11.06-.16a.5559.5559,0,0,1,.09-.17.86219.86219,0,0,1,.14-.18.8961.8961,0,0,1,.19-.15c.05-.03.11-.06.17-.09a.74939.74939,0,0,1,.16-.05A1.22162,1.22162,0,0,1,27.99,27.9Zm4.86,8.34,3.9-3.91a.88169.88169,0,0,0,0-1.27.89928.89928,0,0,0-1.27,0l-3.41,3.41L30.5,32.9a.898.898,0,1,0-1.27,1.27l2.07,2.07a1.3421,1.3421,0,0,0,.18.15q.09.05.18.09a1.15032,1.15032,0,0,0,.41.08,1.49789,1.49789,0,0,0,.22-.02.89291.89291,0,0,0,.2-.06,1.73771,1.73771,0,0,0,.19-.1A1.15111,1.15111,0,0,0,32.85,36.24Z"/></svg>