<svg id="图层_1" data-name="图层 1" xmlns="http://www.w3.org/2000/svg" viewBox="0 0 48 48"><defs><style>.cls-1{fill:currentColor;fill-rule:evenodd;}</style></defs><path id="矢量_181" data-name="矢量 181" class="cls-1" d="M17.41,8.04q.06.01.11.02a3.33184,3.33184,0,0,1,.51.16,2.934,2.934,0,0,1,1.29,1.07,3.05693,3.05693,0,0,1,.41.99,2.508,2.508,0,0,1,.07.62v8a2.87741,2.87741,0,0,1-.23,1.12,2.37313,2.37313,0,0,1-.22.43,2.86236,2.86236,0,0,1-.4.5,3.17211,3.17211,0,0,1-.92.62,2.91664,2.91664,0,0,1-1.13.22h-8a2.91664,2.91664,0,0,1-1.13-.22,3.04373,3.04373,0,0,1-.92-.62,2.6026,2.6026,0,0,1-.37-.45,2.73032,2.73032,0,0,1-.25-.48,2.165,2.165,0,0,1-.16-.51A2.48253,2.48253,0,0,1,6,18.9v-8a2.508,2.508,0,0,1,.07-.62,2.165,2.165,0,0,1,.16-.51,2.73032,2.73032,0,0,1,.25-.48,2.6026,2.6026,0,0,1,.37-.45,2.53935,2.53935,0,0,1,.45-.36,2.683,2.683,0,0,1,.47-.26,3.33184,3.33184,0,0,1,.51-.16A3.17918,3.17918,0,0,1,8.9,8h8A3.2228,3.2228,0,0,1,17.41,8.04ZM16.9,9.79h-8a1.65149,1.65149,0,0,0-.43.09,1.3967,1.3967,0,0,0-.17.09,1.192,1.192,0,0,0-.18.15,1.302,1.302,0,0,0-.15.18.88648.88648,0,0,0-.08.17.52278.52278,0,0,0-.06.16,1.24125,1.24125,0,0,0-.03.27v8a1.02349,1.02349,0,0,0,.09.42.88648.88648,0,0,0,.08.17.89641.89641,0,0,0,.15.18,1.192,1.192,0,0,0,.18.15c.06.03.11.06.17.09a1.09264,1.09264,0,0,0,.17.05A.74566.74566,0,0,0,8.9,20h8a1.06991,1.06991,0,0,0,.43-.09,1.36331,1.36331,0,0,0,.35-.24,1.42823,1.42823,0,0,0,.15-.18.88648.88648,0,0,0,.08-.17A1.02349,1.02349,0,0,0,18,18.9v-8a1.24125,1.24125,0,0,0-.03-.27.52278.52278,0,0,0-.06-.16.59942.59942,0,0,0-.08-.16.98824.98824,0,0,0-.15-.19,1.192,1.192,0,0,0-.18-.15,1.3967,1.3967,0,0,0-.17-.09A1.06991,1.06991,0,0,0,16.9,9.79ZM23.89,11h19a.89512.89512,0,1,1,0,1.79h-19a.895.895,0,0,1,0-1.79Zm-7.38,3.05-3.75,3.48a1.15249,1.15249,0,0,1-.35.22,1.33216,1.33216,0,0,1-.19.05.74872.74872,0,0,1-.21.02,1.07233,1.07233,0,0,1-.39-.07,1.15249,1.15249,0,0,1-.35-.22L9.29,15.69A.87423.87423,0,0,1,9,15.03a.90008.90008,0,0,1,1.51-.66l1.5,1.4,3.28-3.03a.88194.88194,0,0,1,1.27.04.93053.93053,0,0,1,.24.62A.88971.88971,0,0,1,16.51,14.05ZM23.89,17h12a.89512.89512,0,1,1,0,1.79h-12a.895.895,0,0,1,0-1.79Zm-6.48,9.04.1.02a2.75746,2.75746,0,0,1,.51.16,2.92539,2.92539,0,0,1,.92.62,3.2344,3.2344,0,0,1,.38.45,3.62369,3.62369,0,0,1,.25.48,2.75746,2.75746,0,0,1,.16.51,3.09715,3.09715,0,0,1,.07.62v8a2.87741,2.87741,0,0,1-.23,1.12,3.70922,3.70922,0,0,1-.22.43,3.27309,3.27309,0,0,1-.41.5,2.92539,2.92539,0,0,1-.92.62,2.88123,2.88123,0,0,1-1.13.22h-8a2.91664,2.91664,0,0,1-1.13-.22,3.17211,3.17211,0,0,1-.92-.62,3.08854,3.08854,0,0,1-.36-.45,2.81172,2.81172,0,0,1-.42-.99A3.07792,3.07792,0,0,1,6,36.9v-8a3.10519,3.10519,0,0,1,.06-.62,2.81172,2.81172,0,0,1,.42-.99,3.08854,3.08854,0,0,1,.36-.45,3.17024,3.17024,0,0,1,.46-.36,2.59491,2.59491,0,0,1,.46-.26,3.12688,3.12688,0,0,1,.52-.16A3.07792,3.07792,0,0,1,8.89,26h8A3.2877,3.2877,0,0,1,17.41,26.04Zm-.52,1.75h-8a1.08553,1.08553,0,0,0-.25.04.84468.84468,0,0,0-.17.05.91474.91474,0,0,0-.17.09.65491.65491,0,0,0-.18.15.84461.84461,0,0,0-.15.18c-.03.05-.06.11-.09.17a.983.983,0,0,0-.05.16.83057.83057,0,0,0-.03.27v8a1.0134,1.0134,0,0,0,.08.42c.03.06.06.12.09.17a1.294,1.294,0,0,0,.33.33c.05.03.11.06.17.09a.84468.84468,0,0,0,.17.05.7267.7267,0,0,0,.25.04h8a1.003,1.003,0,0,0,.43-.09,1.08961,1.08961,0,0,0,.35-.24.65491.65491,0,0,0,.15-.18.91474.91474,0,0,0,.09-.17A1.02349,1.02349,0,0,0,18,36.9v-8a1.25885,1.25885,0,0,0-.04-.27.983.983,0,0,0-.05-.16,1.786,1.786,0,0,0-.08-.16,1.42167,1.42167,0,0,0-.16-.19.84461.84461,0,0,0-.18-.15.91474.91474,0,0,0-.17-.09A1.003,1.003,0,0,0,16.89,27.79Zm7,.21h19a.89512.89512,0,1,1,0,1.79h-19a.895.895,0,0,1,0-1.79Zm0,6h12a.89512.89512,0,1,1,0,1.79h-12a.895.895,0,0,1,0-1.79Z"/></svg>