<svg viewBox="0 0 40 40" xmlns="http://www.w3.org/2000/svg" xmlns:xlink="http://www.w3.org/1999/xlink" width="40.000000" height="40.000000" fill="none">
	<rect id="栅格布局" width="40.000000" height="40.000000" x="0.000000" y="0.000000" fill="rgb(255,255,255)" fill-opacity="0" />
	<path id="矢量 581" d="M34.1 5C35.9778 5 37.5 6.52223 37.5 8.39999L37.5 31.6C37.5 33.4778 35.9778 35 34.1 35L5.90002 35C4.02222 35 2.5 33.4778 2.5 31.6L2.5 8.39999C2.5 6.52223 4.02222 5 5.90002 5L34.1 5ZM27.4911 6.60001L20.8 6.60001L20.8 33.4L27.4911 33.4L27.4911 6.60001ZM29.0911 33.4L34.1 33.4C34.2472 33.4 34.3903 33.383 34.5292 33.3491L34.5311 33.3486Q34.6683 33.315 34.8002 33.2592C34.8953 33.219 34.9856 33.1714 35.0713 33.1163C35.1793 33.0469 35.2798 32.9657 35.3728 32.8728C35.4658 32.7798 35.547 32.6792 35.6165 32.5711C35.6714 32.4855 35.719 32.3952 35.7592 32.3002C35.7966 32.2117 35.8267 32.1214 35.8491 32.0292C35.8831 31.8903 35.9 31.7472 35.9 31.6L35.9 8.39999Q35.9 8.17995 35.8495 7.97221L35.8493 7.97169L35.8491 7.97079C35.8267 7.87866 35.7966 7.78835 35.7592 7.69984C35.719 7.60481 35.6714 7.51453 35.6165 7.42896C35.547 7.32082 35.4658 7.22023 35.3728 7.12721Q35.2335 6.9879 35.0715 6.88383L35.071 6.88354C34.9855 6.82858 34.8953 6.78101 34.8002 6.7408C34.7117 6.70337 34.6213 6.6734 34.5293 6.65091C34.3903 6.61697 34.2472 6.60001 34.1 6.60001L29.0911 6.60001L29.0911 33.4ZM5.90002 6.60001L10.9091 6.60001L10.9091 33.4L5.90002 33.4C5.75269 33.4 5.60962 33.383 5.4707 33.3491L5.47058 33.3491C5.37854 33.3266 5.28833 33.2966 5.19983 33.2592C5.10474 33.219 5.0144 33.1714 4.92883 33.1164C4.8208 33.047 4.72021 32.9658 4.6272 32.8728C4.53418 32.7798 4.453 32.6792 4.38354 32.5711C4.32861 32.4855 4.28101 32.3952 4.24084 32.3002C4.20337 32.2117 4.17346 32.1214 4.15088 32.0292C4.11694 31.8903 4.09998 31.7472 4.09998 31.6L4.09998 8.39999Q4.09998 8.17963 4.15067 7.97161L4.15067 7.9716L4.15088 7.97075C4.17346 7.87863 4.20337 7.78833 4.24084 7.69984C4.28101 7.60478 4.32861 7.51447 4.38354 7.42888C4.453 7.32076 4.53418 7.2202 4.6272 7.12721C4.72021 7.03421 4.8208 6.953 4.92883 6.88356C5.0144 6.8286 5.10474 6.78101 5.19983 6.7408C5.28833 6.70338 5.37854 6.67342 5.4707 6.65092L5.4707 6.65091C5.60974 6.61697 5.75281 6.60001 5.90002 6.60001ZM19.2001 33.4L12.509 33.4L12.509 6.60001L19.2001 6.60001L19.2001 33.4Z" fill="currentColor" fill-rule="evenodd" />
</svg>
