<svg viewBox="0 0 40 40" xmlns="http://www.w3.org/2000/svg" xmlns:xlink="http://www.w3.org/1999/xlink" width="40.000000" height="40.000000" fill="none">
	<rect id="数据源容器" width="40.000000" height="40.000000" x="0.000000" y="0.000000" fill="rgb(255,255,255)" fill-opacity="0" />
	<path id="矢量 526" d="M20.5 33.0519L6.19299 33.0519C5.91797 33.0519 5.64941 33.0231 5.38721 32.9654C5.16577 32.9167 4.94885 32.8474 4.73657 32.7576C4.52356 32.6675 4.32227 32.5599 4.13257 32.4346C3.92346 32.2965 3.72852 32.137 3.54761 31.9562C3.36682 31.7754 3.2074 31.5804 3.06934 31.3714C2.94397 31.1817 2.8363 30.9803 2.74622 30.7673C2.65637 30.5549 2.58716 30.338 2.53845 30.1166C2.48071 29.8544 2.4519 29.5858 2.4519 29.3109L2.4519 16.2945C2.4519 16.0599 2.47327 15.8293 2.51587 15.6028C2.55847 15.3762 2.62231 15.1537 2.70764 14.9352L6.06311 6.33125C6.13586 6.1447 6.22229 5.96619 6.32239 5.7957C6.41284 5.64163 6.51453 5.49413 6.62732 5.35316C6.74036 5.21184 6.86243 5.08002 6.99329 4.95769C7.13147 4.82846 7.27966 4.70982 7.43774 4.60181C7.59583 4.49377 7.76013 4.39883 7.93079 4.31699C8.09229 4.23952 8.2594 4.17377 8.43225 4.11975Q8.68744 4.03992 8.94871 3.99752Q8.95196 3.997 8.9552 3.99648C9.15051 3.96515 9.34827 3.94949 9.54846 3.94949L29.0774 3.94949C29.2776 3.94949 29.4753 3.96515 29.6705 3.99648C29.847 4.0248 30.0214 4.06589 30.1937 4.11978C30.3665 4.17381 30.5336 4.23955 30.6951 4.317Q30.951 4.43984 31.1884 4.60196C31.3463 4.70998 31.4945 4.82858 31.6327 4.95779C31.7635 5.08017 31.8856 5.21208 31.9988 5.35349C32.1116 5.49449 32.2133 5.64207 32.3037 5.7962C32.4038 5.96669 32.4902 6.14522 32.5629 6.33177L35.917 14.9359C35.998 15.1438 36.0598 15.3555 36.1023 15.5709C36.1488 15.8071 36.1721 16.0479 36.1724 16.2932L36.1733 18.7398L36.1737 20.4998L36.1737 20.5C36.1737 20.9479 35.8219 21.2999 35.374 21.3C34.926 21.3001 34.5739 20.9482 34.5737 20.5002L34.5732 18.7404L34.573 18.0788L24.027 18.0788C24.0105 18.395 23.9685 18.7055 23.901 19.0103C23.8268 19.3452 23.7217 19.6733 23.5858 19.9945Q23.3806 20.4798 23.0955 20.9124C22.884 21.233 22.6398 21.532 22.3625 21.8092C22.0852 22.0865 21.7863 22.3308 21.4656 22.5422C21.1772 22.7323 20.8713 22.8958 20.5477 23.0326C20.2266 23.1685 19.8984 23.2735 19.5636 23.3477C19.1606 23.437 18.7477 23.4816 18.325 23.4816C17.9022 23.4816 17.4894 23.437 17.0863 23.3477C16.7515 23.2735 16.4233 23.1684 16.1022 23.0326C15.7787 22.8958 15.4728 22.7323 15.1844 22.5422C14.8638 22.3308 14.5647 22.0865 14.2875 21.8092C14.0101 21.532 13.7659 21.233 13.5544 20.9123C13.3644 20.6239 13.2009 20.318 13.0641 19.9945C12.9282 19.6733 12.8231 19.3452 12.749 19.0103C12.6814 18.7055 12.6394 18.395 12.6229 18.0788L4.05188 18.0788L4.05188 29.3109Q4.05188 29.5607 4.107 29.7977L4.10718 29.7984C4.13452 29.916 4.17212 30.0312 4.21985 30.144C4.26941 30.2612 4.32837 30.3723 4.39661 30.4773C4.47766 30.6017 4.57178 30.7176 4.67896 30.8248C4.78625 30.9321 4.90222 31.0263 5.02661 31.1073C5.13159 31.1755 5.24268 31.2345 5.35986 31.284C5.47266 31.3317 5.58777 31.3693 5.70544 31.3967C5.86365 31.4335 6.02612 31.4519 6.19299 31.4519L20.5 31.4519C20.948 31.4519 21.2999 31.8039 21.2999 32.2519C21.2999 32.6999 20.948 33.0519 20.5 33.0519ZM34.5725 16.4788L34.5724 16.2944C34.5723 16.1491 34.558 16.0067 34.5295 15.8671L34.5294 15.8663Q34.4931 15.6886 34.4263 15.517L31.0721 6.9129C30.9921 6.70737 30.8865 6.52209 30.7554 6.3571L30.7532 6.35441Q30.557 6.10859 30.2855 5.92291C30.1034 5.79843 29.9116 5.70509 29.7103 5.64285C29.5089 5.58061 29.298 5.5495 29.0774 5.5495L9.54846 5.5495C9.32788 5.5495 9.11694 5.5806 8.91565 5.64282C8.71423 5.70505 8.52258 5.79837 8.34045 5.92282C8.15833 6.04726 8.00171 6.19197 7.87061 6.35693C7.7395 6.5219 7.63391 6.70712 7.55371 6.9126L4.19824 15.5165C4.14941 15.6416 4.11292 15.7689 4.0885 15.8986C4.06409 16.0282 4.05188 16.1602 4.05188 16.2945L4.05188 16.4788L13.2661 16.4788C13.3314 16.4788 13.3954 16.4852 13.4579 16.4982C13.5184 16.5106 13.5778 16.5291 13.6357 16.5537C13.692 16.5775 13.7451 16.6061 13.7949 16.6395C13.8457 16.6736 13.8931 16.7126 13.9371 16.7567C13.9812 16.8008 14.0203 16.8482 14.0543 16.899C14.0878 16.9488 14.1163 17.0018 14.1401 17.0581C14.1647 17.1161 14.1832 17.1754 14.1957 17.2359L14.196 17.2372Q14.2151 17.3305 14.2151 17.4277L14.2151 17.7717C14.2151 18.0863 14.2493 18.3931 14.3177 18.6921C14.3706 18.9232 14.444 19.1495 14.5377 19.3712C14.634 19.5989 14.7487 19.8146 14.8818 20.0182C15.0361 20.2543 15.2151 20.4741 15.4188 20.6779C15.6226 20.8816 15.8424 21.0606 16.0785 21.2149C16.2821 21.348 16.4978 21.4627 16.7255 21.559C16.9471 21.6527 17.1735 21.7261 17.4045 21.7789C17.7035 21.8474 18.0103 21.8816 18.325 21.8816C18.6396 21.8816 18.9464 21.8474 19.2455 21.7789C19.4764 21.7261 19.7029 21.6527 19.9246 21.559C20.1522 21.4627 20.3679 21.3479 20.5715 21.2148C20.8076 21.0605 21.0275 20.8816 21.2312 20.6779C21.4348 20.4741 21.6139 20.2543 21.7681 20.0182C21.9012 19.8146 22.016 19.5989 22.1123 19.3712C22.2061 19.1495 22.2793 18.9232 22.3323 18.6921C22.4006 18.3931 22.4349 18.0863 22.4349 17.7717L22.4349 17.4277C22.4349 17.3624 22.4414 17.2985 22.4542 17.2359C22.4668 17.1754 22.4852 17.1161 22.5098 17.0581C22.5336 17.0018 22.5623 16.9487 22.5957 16.8989C22.6298 16.8482 22.6688 16.8008 22.7128 16.7567C22.7568 16.7126 22.8043 16.6736 22.8551 16.6395C22.9049 16.6061 22.9579 16.5775 23.0142 16.5537C23.0723 16.5291 23.1315 16.5106 23.192 16.4982C23.2546 16.4852 23.3185 16.4788 23.3838 16.4788L34.5725 16.4788ZM30.7201 22.2495C34.6775 22.2495 37.9113 23.6502 38.1284 25.4148C38.1426 25.4752 38.15 25.5384 38.15 25.6037L38.15 33.2717C38.15 33.3317 38.1437 33.39 38.1317 33.4459C38.1294 33.4694 38.1267 33.4929 38.1235 33.5163C38.0936 33.7365 38.0229 33.9511 37.9113 34.1601C37.7803 34.4056 37.5956 34.6364 37.3571 34.8525C36.9481 35.2233 36.3916 35.5436 35.6875 35.8135C35.0254 36.0674 34.2711 36.2629 33.4249 36.4001C32.5625 36.54 31.6609 36.6099 30.7201 36.6099C29.7792 36.6099 28.8776 36.54 28.0151 36.4001C27.1689 36.2629 26.4148 36.0674 25.7526 35.8135C25.0486 35.5436 24.4921 35.2233 24.083 34.8525C23.8446 34.6364 23.6598 34.4056 23.5288 34.1601C23.4172 33.9511 23.3464 33.7365 23.3165 33.5163C23.3055 33.4356 23.3 33.3541 23.3 33.2719C23.3 33.2479 23.3011 33.2241 23.303 33.2007C23.3011 33.1773 23.3 33.1535 23.3 33.1295L23.3 25.5161L23.3026 25.5161C23.4057 23.7041 26.6871 22.2495 30.7201 22.2495ZM36.55 27.6794C35.1913 28.4585 33.0849 28.9586 30.7201 28.9586C28.361 28.9586 26.2591 28.4609 24.9 27.6851L24.9 29.4C24.9 29.4232 24.9104 29.4531 24.931 29.4896C24.9722 29.5625 25.0419 29.641 25.1401 29.7252C25.4008 29.9486 25.7903 30.1543 26.3087 30.3422C26.8694 30.5454 27.5193 30.7037 28.2584 30.817C29.037 30.9364 29.8541 30.9961 30.7101 30.9961C31.5659 30.9961 32.3832 30.9364 33.1617 30.817C33.9008 30.7037 34.5507 30.5454 35.1113 30.3422C35.6299 30.1543 36.0194 29.9486 36.28 29.7252C36.3783 29.641 36.448 29.5625 36.4891 29.4896C36.5098 29.4531 36.52 29.4232 36.52 29.4C36.52 29.3228 36.5305 29.2485 36.55 29.1783L36.55 27.6794ZM30.7201 23.8495C29.8147 23.8495 28.9521 23.9279 28.1323 24.0846C27.3687 24.2307 26.702 24.4324 26.1324 24.69C25.6418 24.9118 25.2815 25.1456 25.0515 25.3914C24.9814 25.4663 24.9338 25.5317 24.9084 25.5878C24.9055 25.5941 24.9033 25.5995 24.9017 25.6041C24.9033 25.6086 24.9055 25.614 24.9084 25.6204C24.9338 25.6764 24.9814 25.7419 25.0515 25.8167C25.2815 26.0625 25.6418 26.2964 26.1324 26.5182C26.702 26.7757 27.3687 26.9774 28.1323 27.1235C28.9521 27.2802 29.8147 27.3586 30.7201 27.3586C31.6254 27.3586 32.4879 27.2802 33.3077 27.1235C34.0714 26.9774 34.738 26.7757 35.3076 26.5182C35.7982 26.2964 36.1586 26.0625 36.3885 25.8167C36.4586 25.7419 36.5063 25.6764 36.5316 25.6204C36.5345 25.614 36.5367 25.6086 36.5383 25.6041C36.5367 25.5995 36.5345 25.5941 36.5316 25.5878C36.5063 25.5317 36.4586 25.4663 36.3885 25.3914C36.1586 25.1456 35.7982 24.9118 35.3076 24.69C34.738 24.4324 34.0714 24.2307 33.3077 24.0846C32.4879 23.9279 31.6254 23.8495 30.7201 23.8495ZM36.55 33.1425L36.55 31.4554C36.2847 31.5963 35.9869 31.7267 35.6566 31.8464C34.9976 32.0853 34.2467 32.2694 33.4042 32.3986C32.5453 32.5303 31.6472 32.5961 30.7101 32.5961C29.7728 32.5961 28.8748 32.5303 28.0159 32.3986C27.1733 32.2694 26.4225 32.0853 25.7634 31.8464C25.4455 31.7312 25.1577 31.6061 24.9 31.4712L24.9 33.1295C24.9 33.1535 24.899 33.1772 24.897 33.2007C24.899 33.2241 24.9 33.2479 24.9 33.2719C24.9 33.3115 24.9135 33.3564 24.9403 33.4067C24.984 33.4886 25.0564 33.5754 25.1576 33.6671C25.4186 33.9036 25.8079 34.1211 26.3254 34.3195C26.8849 34.534 27.5336 34.7011 28.2712 34.8207C29.0488 34.9468 29.8651 35.0099 30.7201 35.0099C31.575 35.0099 32.3912 34.9468 33.1688 34.8207C33.9066 34.7011 34.5552 34.534 35.1147 34.3195C35.6323 34.1211 36.0216 33.9036 36.2826 33.6671C36.3837 33.5754 36.4561 33.4886 36.4998 33.4067C36.5266 33.3564 36.54 33.3115 36.54 33.2719C36.54 33.2278 36.5435 33.1846 36.55 33.1425Z" fill="currentColor" fill-rule="evenodd" />
</svg>
