<svg viewBox="0 0 40 40" xmlns="http://www.w3.org/2000/svg" xmlns:xlink="http://www.w3.org/1999/xlink" width="40.000000" height="40.000000" fill="none">
	<rect id="折叠面板" width="40.000000" height="40.000000" x="0.000000" y="0.000000" fill="rgb(255,255,255)" fill-opacity="0" />
	<path id="矢量 538" d="M34.7 3.5C36.2463 3.5 37.5 4.7536 37.5 6.3L37.5 15.7C37.5 17.2464 36.2463 18.5 34.7 18.5L5.30005 18.5C3.75366 18.5 2.5 17.2464 2.5 15.7L2.5 6.3C2.5 4.7536 3.75366 3.5 5.30005 3.5L34.7 3.5ZM34.7 5.10001L5.30005 5.10001C5.19788 5.10001 5.09875 5.1122 5.00281 5.1366C4.94519 5.15121 4.88879 5.17024 4.83337 5.19365C4.77197 5.2196 4.7135 5.25021 4.65808 5.28546C4.58398 5.33252 4.51514 5.38786 4.45142 5.45148C4.38782 5.51508 4.33252 5.58394 4.28552 5.65805C4.25024 5.71356 4.2196 5.772 4.1936 5.8334C4.17029 5.88873 4.15125 5.94518 4.1366 6.00273L4.1366 6.00275C4.11218 6.09874 4.09998 6.19781 4.09998 6.3L4.09998 15.7C4.09998 15.8022 4.11218 15.9012 4.1366 15.9972L4.1366 15.9972C4.15125 16.0548 4.17029 16.1113 4.1936 16.1666C4.2196 16.228 4.25024 16.2864 4.2854 16.3419L4.28552 16.342C4.33252 16.4161 4.38782 16.4849 4.45142 16.5485C4.51514 16.6122 4.58398 16.6675 4.65808 16.7146C4.71362 16.7498 4.77197 16.7804 4.83337 16.8064C4.88867 16.8298 4.94519 16.8488 5.00269 16.8634C5.09875 16.8878 5.19775 16.9 5.30005 16.9L34.7 16.9C34.8021 16.9 34.9012 16.8878 34.9972 16.8634L34.9973 16.8634C35.0548 16.8488 35.1113 16.8298 35.1666 16.8064C35.228 16.7804 35.2864 16.7498 35.3419 16.7145L35.342 16.7145C35.4161 16.6674 35.485 16.6121 35.5486 16.5485Q35.6421 16.4549 35.7119 16.3461L35.7145 16.3421L35.7146 16.3419L35.7153 16.3408Q35.7677 16.2581 35.8064 16.1666C35.8298 16.1112 35.8488 16.0547 35.8634 15.9971C35.8878 15.9012 35.9 15.8022 35.9 15.7L35.9 6.3Q35.9 6.14719 35.8636 6.00362L35.8634 6.00287C35.8488 5.94527 35.8298 5.88876 35.8064 5.83339Q35.768 5.74278 35.7162 5.66069L35.7146 5.65814L35.7145 5.65793L35.7119 5.65393Q35.6421 5.54511 35.5486 5.45148C35.485 5.38791 35.4161 5.3326 35.342 5.28555C35.2865 5.25026 35.228 5.21964 35.1666 5.19365C35.1113 5.17024 35.0548 5.15123 34.9972 5.1366C34.9012 5.1122 34.8022 5.10001 34.7 5.10001ZM24.4869 13.3178L27.7146 10.1257L30.9424 13.3192C31.2609 13.6343 31.7587 13.6316 32.0737 13.3131C32.3889 12.9947 32.3862 12.4969 32.0677 12.1818L28.2773 8.43178C28.1216 8.2776 27.9341 8.2005 27.7148 8.20049C27.4956 8.20047 27.3081 8.27753 27.1522 8.43167L23.3619 12.1802C23.0433 12.4952 23.0406 12.993 23.3556 13.3115C23.6707 13.6301 24.1685 13.6328 24.4869 13.3178ZM34.7 21.6616C36.2463 21.6616 37.5 22.9152 37.5 24.4616L37.5 33.8616C37.5 35.408 36.2463 36.6616 34.7 36.6616L5.30005 36.6616C3.75366 36.6616 2.5 35.408 2.5 33.8616L2.5 24.4616C2.5 22.9152 3.75366 21.6616 5.30005 21.6616L34.7 21.6616ZM34.7 23.2616L5.30005 23.2616C5.19788 23.2616 5.09875 23.2738 5.00281 23.2982C4.94519 23.3128 4.88879 23.3319 4.83337 23.3553C4.77197 23.3812 4.7135 23.4118 4.65808 23.4471C4.58398 23.4941 4.51514 23.5495 4.45142 23.6131C4.38782 23.6767 4.33252 23.7456 4.28552 23.8197C4.25024 23.8752 4.2196 23.9336 4.1936 23.995C4.17029 24.0504 4.15125 24.1068 4.1366 24.1644C4.11218 24.2604 4.09998 24.3594 4.09998 24.4616L4.09998 33.8616C4.09998 33.9638 4.11218 34.0629 4.1366 34.1588L4.1366 34.1588C4.15125 34.2164 4.17029 34.2729 4.1936 34.3282C4.2196 34.3896 4.25024 34.448 4.2854 34.5035L4.28552 34.5036C4.33252 34.5777 4.38782 34.6465 4.45142 34.7101C4.51514 34.7738 4.58398 34.8291 4.65808 34.8762C4.71362 34.9114 4.77197 34.942 4.83337 34.968C4.88867 34.9914 4.94519 35.0104 5.00269 35.025C5.09875 35.0494 5.19775 35.0616 5.30005 35.0616L34.7 35.0616C34.8021 35.0616 34.9012 35.0494 34.9972 35.0251L34.9973 35.025C35.0548 35.0104 35.1113 34.9914 35.1666 34.968C35.228 34.942 35.2864 34.9114 35.3419 34.8762L35.342 34.8761C35.4161 34.8291 35.485 34.7737 35.5486 34.7101Q35.6421 34.6165 35.7119 34.5077L35.7145 34.5037L35.7146 34.5035Q35.7674 34.4203 35.8064 34.3282C35.8298 34.2729 35.8488 34.2164 35.8634 34.1588C35.8878 34.0628 35.9 33.9638 35.9 33.8616L35.9 24.4616Q35.9 24.3088 35.8636 24.1652L35.8634 24.1645C35.8488 24.1069 35.8298 24.0504 35.8064 23.995Q35.7674 23.903 35.7146 23.8198L35.7145 23.8195L35.7119 23.8156Q35.6421 23.7067 35.5486 23.6131C35.485 23.5495 35.4161 23.4942 35.342 23.4472C35.2865 23.4119 35.228 23.3813 35.1666 23.3553C35.1113 23.3319 35.0548 23.3129 34.9972 23.2982C34.9012 23.2738 34.8022 23.2616 34.7 23.2616ZM24.4869 31.5673L27.7146 28.3753L30.9424 31.5687C31.2609 31.8838 31.7587 31.8811 32.0737 31.5627C32.3889 31.2442 32.3862 30.7464 32.0677 30.4313L28.2773 26.6813C28.1216 26.5271 27.9341 26.45 27.7148 26.45C27.4956 26.45 27.3081 26.527 27.1522 26.6812L23.3619 30.4297C23.0433 30.7447 23.0406 31.2425 23.3556 31.561C23.6707 31.8796 24.1685 31.8823 24.4869 31.5673Z" fill="currentColor" fill-rule="evenodd" />
</svg>
