<?xml version="1.0" encoding="utf-8"?>
<!-- Generator: Adobe Illustrator 26.0.2, SVG Export Plug-In . SVG Version: 6.00 Build 0)  -->
<svg version="1.1" id="图层_1" xmlns="http://www.w3.org/2000/svg" xmlns:xlink="http://www.w3.org/1999/xlink" x="0px" y="0px"
	 viewBox="0 0 48 48" style="enable-background:new 0 0 48 48;" xml:space="preserve">
<style type="text/css">
	.st0{fill-rule:evenodd;clip-rule:evenodd;fill:currentColor;}
</style>
<desc>Created with Pixso.</desc>
<path id="矢量_210" class="st0" d="M39,7c1.7,0,3,1.3,3,3v9c0,1.6-1.3,3-3,3H8c-1.7,0-3-1.4-3-3v-9c0-1.7,1.3-3,3-3H39z M39,8.8
	c0.7,0,1.2,0.5,1.2,1.2v9c0,0.7-0.5,1.2-1.2,1.2H8c-0.7,0-1.2-0.5-1.2-1.2v-9c0-0.7,0.5-1.2,1.2-1.2H39z M27.4,15.4l4-4
	c0.2-0.2,0.4-0.3,0.6-0.3s0.5,0.1,0.6,0.3l4,4c0.4,0.4,0.4,0.9,0,1.3c-0.4,0.4-0.9,0.4-1.3,0L32,13.3l-3.4,3.4
	c-0.3,0.4-0.9,0.4-1.3,0C27,16.3,27,15.7,27.4,15.4z M39,26c1.7,0,3,1.3,3,3v9c0,1.7-1.3,3-3,3H8c-1.7,0-3-1.3-3-3v-9
	c0-1.7,1.3-3,3-3H39z M39,27.8c0.7,0,1.2,0.5,1.2,1.2v9c0,0.7-0.5,1.2-1.2,1.2H8c-0.7,0-1.2-0.5-1.2-1.2v-9c0-0.7,0.5-1.2,1.2-1.2
	H39z M31.4,30.4l-4,4c-0.4,0.4-0.4,0.9,0,1.3c0.4,0.4,0.9,0.4,1.3,0l3.4-3.4l3.4,3.4c0.4,0.4,0.9,0.4,1.3,0c0.4-0.4,0.4-0.9,0-1.3
	l-4-4c-0.2-0.2-0.4-0.3-0.6-0.3S31.5,30.2,31.4,30.4z"/>
</svg>
