<svg id="图层_1" data-name="图层 1" xmlns="http://www.w3.org/2000/svg" viewBox="0 0 48 48"><defs><style>.cls-1{fill:currentColor;fill-rule:evenodd;}</style></defs><path id="矢量_212" data-name="矢量 212" class="cls-1" d="M27.68,39.99H8.89A3.8411,3.8411,0,0,1,5,36.09V22.27a3.16458,3.16458,0,0,1,.06-.69,3.27748,3.27748,0,0,1,.19-.68L9.14,10.53a3.79249,3.79249,0,0,1,1.38-1.9A3.91606,3.91606,0,0,1,12.79,8H35.1a3.88336,3.88336,0,0,1,2.26.63,3.8662,3.8662,0,0,1,1.39,1.9L42.64,20.9a5.26695,5.26695,0,0,1,.19.68,3.93465,3.93465,0,0,1,.06.69v3.54a.9.9,0,0,1-1.8,0V23.75H30.66a6.45979,6.45979,0,0,1-.15,1.07,5.52846,5.52846,0,0,1-.35,1.09,6.53289,6.53289,0,0,1-.54,1.01,5.47757,5.47757,0,0,1-.81.99,5.84552,5.84552,0,0,1-.99.81,7.11736,7.11736,0,0,1-1.02.55,6.13741,6.13741,0,0,1-1.08.34,6.25159,6.25159,0,0,1-1.37.15h-.2a6.16335,6.16335,0,0,1-1.37-.15,5.9846,5.9846,0,0,1-1.09-.34,7.11736,7.11736,0,0,1-1.02-.55,6.26681,6.26681,0,0,1-.99-.81,5.47757,5.47757,0,0,1-.81-.99,6.53289,6.53289,0,0,1-.54-1.01,6.28,6.28,0,0,1-.35-1.09.07671.07671,0,0,0-.01-.03,5.99546,5.99546,0,0,1-.13-1.04H6.8V36.09a2.01193,2.01193,0,0,0,.61,1.49,2.33477,2.33477,0,0,0,.68.46,2.07278,2.07278,0,0,0,.8.15H27.68a.9.9,0,1,1,0,1.8ZM41.06,21.95a.07494.07494,0,0,0-.01-.05,1.557,1.557,0,0,0-.1-.37L37.06,11.16a2.05919,2.05919,0,0,0-.74-1.02,2.09077,2.09077,0,0,0-1.22-.35H12.79a2.04749,2.04749,0,0,0-1.22.35,2.01547,2.01547,0,0,0-.75,1.02L6.93,21.53a2.23819,2.23819,0,0,0-.1.37.43311.43311,0,0,0-.01.05H18.13a1.55259,1.55259,0,0,1,.31.03,1.51751,1.51751,0,0,1,.28.09,1.11536,1.11536,0,0,1,.24.13,1.05885,1.05885,0,0,1,.23.19,1.76569,1.76569,0,0,1,.18.21.0288.0288,0,0,1,.01.02,1.11536,1.11536,0,0,1,.13.24,1.30868,1.30868,0,0,1,.09.28,1.55259,1.55259,0,0,1,.03.31,4.29233,4.29233,0,0,0,.12,1.01,4.34852,4.34852,0,0,0,.24.75,4.04884,4.04884,0,0,0,.38.71,3.96064,3.96064,0,0,0,.59.72,4.52313,4.52313,0,0,0,.72.59,4.38287,4.38287,0,0,0,.71.38,4.68535,4.68535,0,0,0,.75.24,4.7362,4.7362,0,0,0,1.01.11h.2a4.38057,4.38057,0,0,0,1.75-.35,4.94979,4.94979,0,0,0,.72-.38,4.71314,4.71314,0,0,0,1.31-1.31,4.84387,4.84387,0,0,0,.38-.71,5.432,5.432,0,0,0,.24-.75,4.88179,4.88179,0,0,0,.11-1.01,1.55259,1.55259,0,0,1,.03-.31,1.30868,1.30868,0,0,1,.09-.28,1.11536,1.11536,0,0,1,.13-.24.0288.0288,0,0,0,.01-.02,1.76569,1.76569,0,0,1,.18-.21,1.36547,1.36547,0,0,1,.23-.19,1.188,1.188,0,0,1,.25-.13,1.42619,1.42619,0,0,1,.27-.09,1.62792,1.62792,0,0,1,.31-.03ZM30.57,30.83a1.52625,1.52625,0,0,1,.03-.3,1.5417,1.5417,0,0,1,.3-.6,2.33932,2.33932,0,0,1,.62-.52,6.41425,6.41425,0,0,1,1.64-.62,15.078,15.078,0,0,1,2.19-.37,24.86714,24.86714,0,0,1,5.27,0,15.47023,15.47023,0,0,1,2.2.37,6.47434,6.47434,0,0,1,1.63.62,2.33932,2.33932,0,0,1,.62.52,1.5417,1.5417,0,0,1,.3.6,1.52625,1.52625,0,0,1,.03.3v9.93h0c-.01.07-.02.13-.03.2a1.44009,1.44009,0,0,1-.3.59,2.33932,2.33932,0,0,1-.62.52,6.11292,6.11292,0,0,1-1.63.62,15.3962,15.3962,0,0,1-2.2.38,26.76962,26.76962,0,0,1-5.27,0,15.00134,15.00134,0,0,1-2.19-.38,6.31443,6.31443,0,0,1-1.64-.62,2.33932,2.33932,0,0,1-.62-.52,1.44009,1.44009,0,0,1-.3-.59c-.01-.07-.02-.13-.03-.2h0Zm12.87.08a4.81934,4.81934,0,0,0-1.07-.37,14.6892,14.6892,0,0,0-1.94-.33,22.96346,22.96346,0,0,0-4.88,0,14.57559,14.57559,0,0,0-1.95.33,4.81934,4.81934,0,0,0-1.07.37,7.71517,7.71517,0,0,0,1.07.33,14.57559,14.57559,0,0,0,1.95.33,23.73251,23.73251,0,0,0,2.44.12,23.87539,23.87539,0,0,0,2.44-.12,14.6892,14.6892,0,0,0,1.94-.33A7.30617,7.30617,0,0,0,43.44,30.91Zm.16,1.84c-.23.08-.5.16-.78.24a17.03446,17.03446,0,0,1-2.2.37,24.86714,24.86714,0,0,1-5.27,0,16.57472,16.57472,0,0,1-2.19-.37q-.43-.11-.79-.24v2.87a.42335.42335,0,0,0,.07.05,4.64959,4.64959,0,0,0,1.16.42,11.94523,11.94523,0,0,0,1.95.33,22.96346,22.96346,0,0,0,4.88,0,12.00048,12.00048,0,0,0,1.94-.33,4.5003,4.5003,0,0,0,1.16-.42.14329.14329,0,0,1,.07-.02ZM32.37,37.6v2.88a.4348.4348,0,0,0,.07.04,4.24217,4.24217,0,0,0,1.16.43,14.57559,14.57559,0,0,0,1.95.33,24.86667,24.86667,0,0,0,4.88,0,14.6892,14.6892,0,0,0,1.94-.33,4.11584,4.11584,0,0,0,1.16-.43.14329.14329,0,0,1,.07-.02V37.6a7.18879,7.18879,0,0,1-.78.24,15.47023,15.47023,0,0,1-2.2.37,24.86714,24.86714,0,0,1-5.27,0,15.078,15.078,0,0,1-2.19-.37Q32.73,37.73,32.37,37.6Z"/></svg>