<svg viewBox="0 0 40 40" xmlns="http://www.w3.org/2000/svg" xmlns:xlink="http://www.w3.org/1999/xlink" width="40.000000" height="40.000000" fill="none">
	<rect id="公共图标" width="40.000000" height="40.000000" x="0.000000" y="0.000000" fill="rgb(255,255,255)" fill-opacity="0" />
	<path id="矢量 597" d="M34.8168 11.6584L20.6708 4.5854C20.2485 4.37427 19.7515 4.37427 19.3292 4.5854L5.18335 11.6584C4.07776 12.2111 4.07776 13.7888 5.18335 14.3416L19.3292 21.4146C19.7515 21.6257 20.2485 21.6257 20.6708 21.4146L34.8168 14.3416C35.9224 13.7888 35.9224 12.2111 34.8168 11.6584ZM33.9224 13L20 6.03885L6.07776 13L20 19.9611L33.9224 13ZM4.20642 19.3707C4.41882 18.9763 4.89563 18.8332 5.29004 19.0456L19.6682 26.7877C19.72 26.8156 19.7736 26.8365 19.8289 26.8505C19.8842 26.8644 19.9413 26.8714 20.0001 26.8714C20.1178 26.8714 20.2284 26.8435 20.332 26.7877L34.7101 19.0456C35.1046 18.8332 35.5814 18.9763 35.7938 19.3707C36.0061 19.7652 35.8632 20.242 35.4686 20.4544L21.0906 28.1965C20.9203 28.2881 20.7444 28.3568 20.5626 28.4027C20.3809 28.4485 20.1934 28.4714 20.0001 28.4714C19.6135 28.4714 19.25 28.3797 18.9097 28.1965L4.53149 20.4544C4.13708 20.242 3.99402 19.7652 4.20642 19.3707ZM5.29004 26.5456C4.89563 26.3332 4.41882 26.4763 4.20642 26.8707C3.99402 27.2652 4.13708 27.742 4.53149 27.9544L18.9097 35.6965C19.25 35.8797 19.6135 35.9714 20.0001 35.9714C20.1934 35.9714 20.3809 35.9485 20.5626 35.9027C20.7444 35.8568 20.9203 35.7881 21.0906 35.6965L35.4686 27.9544C35.8632 27.742 36.0061 27.2652 35.7938 26.8707C35.5814 26.4763 35.1046 26.3332 34.7101 26.5456L20.332 34.2877C20.2284 34.3435 20.1178 34.3714 20.0001 34.3714C19.9413 34.3714 19.8842 34.3644 19.8289 34.3505C19.7736 34.3365 19.72 34.3156 19.6682 34.2877L5.29004 26.5456Z" fill="currentColor" fill-rule="evenodd" />
</svg>
