<svg viewBox="0 0 40 40" xmlns="http://www.w3.org/2000/svg" xmlns:xlink="http://www.w3.org/1999/xlink" width="40.000000" height="40.000000" fill="none">
	<rect id="容器布局" width="40.000000" height="40.000000" x="0.000000" y="0.000000" />
	<path id="矢量 731" d="M36 7C36 5.34314 34.6569 4 33 4L7 4C5.34314 4 4 5.34314 4 7L4 33C4 34.6569 5.34314 36 7 36L33 36C34.6569 36 36 34.6569 36 33L36 7ZM7 5.60001L19.2001 5.60001L19.2001 19.2L5.59998 19.2L5.59998 7C5.59998 6.53333 5.71667 6.18332 5.94995 5.95001C6.18335 5.71667 6.53333 5.60001 7 5.60001ZM5.59998 20.8L5.59998 33C5.59998 33.4667 5.71667 33.8167 5.94995 34.05C6.18335 34.2833 6.53333 34.4 7 34.4L19.2001 34.4L19.2001 20.8L5.59998 20.8ZM33 34.4L20.8 34.4L20.8 5.60001L33 5.60001C33.4667 5.60001 33.8167 5.71667 34.05 5.95001C34.2833 6.18332 34.4 6.53333 34.4 7L34.4 33Q34.4 33.2898 34.2976 33.5372L34.2975 33.5373L34.2975 33.5374C34.2291 33.7024 34.1266 33.8533 33.99 33.99C33.8533 34.1266 33.7024 34.2291 33.5375 34.2975L33.5374 34.2975C33.3724 34.3658 33.1932 34.4 33 34.4Z" fill="currentColor" fill-rule="evenodd" />
</svg>
