<?xml version="1.0" encoding="utf-8"?>
<!-- Generator: Adobe Illustrator 26.0.2, SVG Export Plug-In . SVG Version: 6.00 Build 0)  -->
<svg version="1.1" id="图层_1" xmlns="http://www.w3.org/2000/svg" xmlns:xlink="http://www.w3.org/1999/xlink" x="0px" y="0px"
	 viewBox="0 0 48 48" style="enable-background:new 0 0 48 48;" xml:space="preserve">
<style type="text/css">
	.st0{fill-rule:evenodd;clip-rule:evenodd;fill:currentColor;}
</style>
<desc>Created with Pixso.</desc>
<path id="矢量_190" class="st0" d="M17,9H8c-1.7,0-3,1.3-3,3v26c0,1.7,1.3,3,3,3h32c1.7,0,3-1.3,3-3V12c0-1.7-1.3-3-3-3h-9.1V6.9
	C30.9,6.4,30.5,6,30,6c-0.5,0-0.9,0.4-0.9,0.9V9H18.8V6.9c0-0.5-0.4-0.9-0.9-0.9C17.4,6,17,6.4,17,6.9V9z M29.1,12.9v-2.1H18.8v2.1
	c0,0.5-0.4,0.9-0.9,0.9c-0.5,0-0.9-0.4-0.9-0.9v-2.1H8c-0.7,0-1.2,0.5-1.2,1.2v6h34.4v-6c0-0.7-0.5-1.2-1.2-1.2h-9.1v2.1
	c0,0.5-0.4,0.9-0.9,0.9C29.5,13.8,29.1,13.4,29.1,12.9z M41.2,19.8H6.8V38c0,0.7,0.5,1.2,1.2,1.2h32c0.7,0,1.2-0.5,1.2-1.2V19.8z
	 M21.7,28.5c0.6,0.2,1,0.5,1.3,0.9c0.3,0.4,0.5,1,0.5,1.6c0,0.6-0.2,1.2-0.5,1.6c-0.3,0.5-0.7,0.8-1.3,1.1c-0.5,0.2-1.1,0.3-1.8,0.3
	c-0.6,0-1.2-0.1-1.7-0.3c-0.2-0.1-0.3-0.2-0.5-0.2c-0.6-0.4-1.1-1-1.3-1.7l1.4-0.8c0.1,0.5,0.4,0.9,0.8,1.2c0.4,0.3,0.8,0.4,1.2,0.4
	c0.5,0,0.9-0.1,1.2-0.4c0.1-0.1,0.2-0.2,0.3-0.3c0.1-0.2,0.2-0.5,0.2-0.9c0-1-0.8-1.6-2.3-1.6h-0.4l0-1.5h0.5c0.6,0,1-0.1,1.3-0.4
	c0.3-0.3,0.5-0.6,0.5-1.1c0-0.4-0.1-0.7-0.4-1c-0.3-0.2-0.6-0.4-1-0.4c-0.4,0-0.8,0.1-1.1,0.4c-0.3,0.3-0.5,0.7-0.7,1.2l-1.4-0.8
	c0.2-0.8,0.6-1.4,1.2-1.8c0.6-0.4,1.3-0.6,2.1-0.6c0.6,0,1.2,0.1,1.6,0.4c0.5,0.2,0.8,0.6,1.1,1c0.3,0.4,0.4,0.9,0.4,1.5
	c0,0.5-0.1,1-0.4,1.3C22.5,28,22.1,28.3,21.7,28.5z M30.9,32.8c0.6-0.9,0.9-2.2,0.9-4c0-1.8-0.3-3.1-0.9-4c-0.3-0.4-0.6-0.7-1-0.9
	c-0.5-0.3-1-0.4-1.6-0.4c-1.1,0-2,0.5-2.6,1.3c-0.6,0.9-0.9,2.2-0.9,4c0,1.7,0.3,3,0.9,3.9c0.6,0.9,1.5,1.3,2.6,1.3
	c0.6,0,1.2-0.1,1.6-0.4C30.3,33.5,30.7,33.1,30.9,32.8z M27.1,31.6c-0.3-0.6-0.4-1.5-0.4-2.8c0-1.2,0.1-2.2,0.4-2.8
	c0.3-0.6,0.7-0.9,1.2-0.9s1,0.3,1.2,0.9c0.3,0.6,0.4,1.5,0.4,2.8c0,1.2-0.1,2.2-0.4,2.8c-0.3,0.6-0.7,0.9-1.2,0.9
	S27.4,32.2,27.1,31.6z"/>
</svg>
