<svg viewBox="0 0 32 32" xmlns="http://www.w3.org/2000/svg" xmlns:xlink="http://www.w3.org/1999/xlink" width="32.000000" height="32.000000" fill="none" customFrame="#000000">
	<defs>
		<linearGradient id="paint_linear_0" x1="16.0150146" x2="16.0150146" y1="0.234985352" y2="31.7349854" gradientUnits="userSpaceOnUse">
			<stop stop-color="rgb(255,255,255)" offset="0" stop-opacity="0.600000024" />
			<stop stop-color="rgb(255,255,255)" offset="1" stop-opacity="0.200000003" />
		</linearGradient>
	</defs>
	<rect id="头像/未登录" width="32.000000" height="32.000000" x="0.000000" y="0.000000" />
	<path id="路径" d="M0.265015 16C0.265015 18.855 0.967515 21.4825 2.37251 23.8825C3.77751 26.2825 5.68501 28.19 8.09501 29.605C10.51 31.025 13.145 31.735 16 31.735C18.855 31.735 21.49 31.025 23.905 29.605C26.315 28.19 28.2275 26.2775 29.6425 23.8675C31.0575 21.4525 31.765 18.83 31.765 16C31.765 13.145 31.0575 10.51 29.6425 8.09499C28.2275 5.68499 26.315 3.77249 23.905 2.35749C21.49 0.942485 18.855 0.234985 16 0.234985C13.145 0.234985 10.51 0.942485 8.09501 2.35749C5.68501 3.77249 3.77751 5.68499 2.37251 8.09499C0.967515 10.51 0.265015 13.145 0.265015 16Z" fill="rgb(153,153,153)" fill-rule="evenodd" />
	<path id="路径" d="M0.265015 16C0.265015 18.855 0.967515 21.4825 2.37251 23.8825C3.77751 26.2825 5.68501 28.19 8.09501 29.605C10.51 31.025 13.145 31.735 16 31.735C18.855 31.735 21.49 31.025 23.905 29.605C26.315 28.19 28.2275 26.2775 29.6425 23.8675C31.0575 21.4525 31.765 18.83 31.765 16C31.765 13.145 31.0575 10.51 29.6425 8.09499C28.2275 5.68499 26.315 3.77249 23.905 2.35749C21.49 0.942485 18.855 0.234985 16 0.234985C13.145 0.234985 10.51 0.942485 8.09501 2.35749C5.68501 3.77249 3.77751 5.68499 2.37251 8.09499C0.967515 10.51 0.265015 13.145 0.265015 16Z" fill="url(#paint_linear_0)" fill-rule="evenodd" />
	<path id="矢量 1237" d="M15.985 6.26489C14.625 6.24988 13.455 6.73486 12.475 7.71985C11.9369 8.25794 11.5473 8.8512 11.3062 9.49976C11.1058 10.0383 11.0079 10.6151 11.0125 11.2299C11.0275 12.5848 11.525 13.7549 12.505 14.7399C13.0447 15.2797 13.64 15.673 14.2909 15.9199C14.8278 16.1237 15.4025 16.2278 16.015 16.2324C17.375 16.2473 18.545 15.7623 19.525 14.7774C20.51 13.7924 20.9975 12.6223 20.9875 11.2673C20.9725 9.91236 20.475 8.74231 19.495 7.75733C18.9553 7.21765 18.36 6.82422 17.7091 6.57727C17.1722 6.37354 16.5975 6.26941 15.985 6.26489ZM6.27954 24.8577C6.38416 24.5384 6.50867 24.2287 6.65314 23.9286L6.6532 23.9286C7.04041 23.1243 7.57086 22.3891 8.24457 21.7227C8.60052 21.3705 8.97864 21.0487 9.37885 20.7572C10.0128 20.2954 10.7022 19.9097 11.447 19.6001C12.5699 19.1315 13.6993 18.8803 14.8351 18.8466L14.8356 18.8466C14.9236 18.8439 15.0115 18.8427 15.0995 18.8427L16.8995 18.8427C16.9875 18.8427 17.0755 18.8439 17.1635 18.8466L17.1639 18.8466C18.2998 18.8803 19.4291 19.1315 20.5521 19.6001C21.767 20.1051 22.8295 20.8126 23.7396 21.7227C24.6495 22.6376 25.2971 23.6826 25.6821 24.8577C24.7547 25.8726 23.7247 26.7129 22.5921 27.3787L22.592 27.3788C22.1735 27.6248 21.741 27.8468 21.2946 28.0452C19.6345 28.7752 17.8696 29.1402 15.9995 29.1402C14.0795 29.1402 12.2921 28.7676 10.637 28.0226C10.0082 27.7395 9.40863 27.4118 8.83826 27.0392C7.90753 26.4312 7.05463 25.704 6.27954 24.8577Z" fill="rgb(255,255,255)" fill-opacity="0.90196079" fill-rule="evenodd" />
</svg>
