<svg viewBox="0 0 40 40" xmlns="http://www.w3.org/2000/svg" xmlns:xlink="http://www.w3.org/1999/xlink" width="40.000000" height="40.000000" fill="none">
	<rect id="对话框" width="40.000000" height="40.000000" x="0.000000" y="0.000000" fill="rgb(255,255,255)" fill-opacity="0" />
	<path id="矢量 576" d="M5.90002 3.75L34.1 3.75C35.9778 3.75 37.5 5.27223 37.5 7.15L37.5 32.85C37.5 34.7278 35.9778 36.25 34.1 36.25L5.90002 36.25C4.02222 36.25 2.5 34.7278 2.5 32.85L2.5 7.15C2.5 5.27223 4.02222 3.75 5.90002 3.75ZM34.1 5.35L5.90002 5.35C5.75281 5.35 5.60974 5.36697 5.4707 5.40091L5.4707 5.40092C5.37854 5.42342 5.28833 5.45338 5.19983 5.4908Q5.05719 5.55111 4.92883 5.63355C4.8208 5.703 4.72021 5.78421 4.6272 5.8772C4.53418 5.9702 4.453 6.07076 4.38354 6.17888C4.32861 6.26447 4.28101 6.35479 4.24084 6.44985C4.20337 6.53833 4.17346 6.62863 4.15088 6.72076L4.15084 6.72091Q4.09998 6.92925 4.09998 7.15L4.09998 32.85Q4.09998 33.0707 4.15084 33.2791L4.15088 33.2792C4.17346 33.3714 4.20337 33.4617 4.24084 33.5501C4.28101 33.6452 4.32861 33.7355 4.38354 33.821C4.453 33.9292 4.53418 34.0298 4.6272 34.1228Q4.76672 34.2623 4.92896 34.3665C5.01453 34.4214 5.10486 34.469 5.19983 34.5092C5.28833 34.5466 5.37854 34.5766 5.47058 34.5991L5.4707 34.5991C5.60962 34.633 5.75269 34.65 5.90002 34.65L34.1 34.65C34.2472 34.65 34.3903 34.633 34.5292 34.5991C34.6213 34.5766 34.7117 34.5466 34.8002 34.5092C34.8953 34.469 34.9856 34.4213 35.0713 34.3663C35.1793 34.2969 35.2798 34.2157 35.3728 34.1228C35.4658 34.0298 35.547 33.9292 35.6165 33.8211C35.6714 33.7355 35.719 33.6452 35.7592 33.5501C35.7966 33.4617 35.8267 33.3714 35.8491 33.2792C35.8831 33.1403 35.9 32.9972 35.9 32.85L35.9 7.15C35.9 7.00279 35.8831 6.85972 35.8491 6.72079C35.8267 6.62866 35.7966 6.53835 35.7592 6.44985C35.719 6.35482 35.6714 6.26452 35.6165 6.17896C35.547 6.07081 35.4658 5.97022 35.3728 5.8772C35.2798 5.78421 35.1792 5.70299 35.071 5.63354C34.9855 5.57858 34.8953 5.531 34.8002 5.4908C34.7117 5.45337 34.6213 5.42341 34.5293 5.40091C34.3903 5.36697 34.2472 5.35 34.1 5.35ZM25.832 15.372L27.5481 13.6335L25.8312 11.8879C25.6745 11.7285 25.5961 11.524 25.5961 11.3196C25.5961 11.1141 25.6752 10.9087 25.8333 10.7492C26.1486 10.431 26.6431 10.4319 26.9573 10.7513L28.6721 12.4948L30.403 10.7414C30.7177 10.4226 31.2123 10.4226 31.527 10.7414C31.6843 10.9008 31.763 11.1058 31.763 11.3107C31.763 11.5157 31.6843 11.7206 31.527 11.8801L29.7941 13.6356L31.5153 15.3856C31.6719 15.5449 31.7502 15.7494 31.7502 15.9539C31.7502 16.1594 31.6712 16.3648 31.5132 16.5243C31.1979 16.8425 30.7032 16.8416 30.3892 16.5222L28.67 14.7743L26.9561 16.5106C26.6414 16.8295 26.1469 16.8295 25.832 16.5107C25.6747 16.3512 25.596 16.1463 25.596 15.9413C25.596 15.7364 25.6747 15.5314 25.832 15.372ZM13 13.3L8 13.3C7.552 13.3 7.19995 12.948 7.19995 12.5C7.19995 12.052 7.552 11.7 8 11.7L13 11.7C13.448 11.7 13.7999 12.052 13.7999 12.5C13.7999 12.948 13.448 13.3 13 13.3ZM20.5 18.8L8 18.8C7.552 18.8 7.19995 18.448 7.19995 18C7.19995 17.552 7.552 17.2 8 17.2L20.5 17.2C20.948 17.2 21.2999 17.552 21.2999 18C21.2999 18.448 20.948 18.8 20.5 18.8ZM17.0039 25.2C17.8323 25.2 18.5039 25.8716 18.5039 26.7L18.5039 29.2C18.5039 30.0284 17.8323 30.7 17.0039 30.7L8.50391 30.7C7.67554 30.7 7.00391 30.0284 7.00391 29.2L7.00391 26.7C7.00391 25.8716 7.67554 25.2 8.50391 25.2L17.0039 25.2ZM31.5059 25.2C32.3342 25.2 33.0059 25.8716 33.0059 26.7L33.0059 29.2C33.0059 30.0284 32.3342 30.7 31.5059 30.7L23.0059 30.7C22.1775 30.7 21.5059 30.0284 21.5059 29.2L21.5059 26.7C21.5059 25.8716 22.1775 25.2 23.0059 25.2L31.5059 25.2ZM16.9039 26.8L8.60388 26.8L8.60388 29.1L16.9039 29.1L16.9039 26.8ZM31.4059 26.8L23.1058 26.8L23.1058 29.1L31.4059 29.1L31.4059 26.8Z" fill="currentColor" fill-rule="evenodd" />
</svg>
