<svg id="图层_1" data-name="图层 1" xmlns="http://www.w3.org/2000/svg" viewBox="0 0 48 48"><defs><style>.cls-1{fill:currentColor;fill-rule:evenodd;}</style></defs><path id="矢量_196" data-name="矢量 196" class="cls-1" d="M8,7H40a3.00237,3.00237,0,0,1,3,3V39a3.00882,3.00882,0,0,1-3,3H8a3.00237,3.00237,0,0,1-3-3V10A2.996,2.996,0,0,1,8,7ZM40,8.79H8a1.19332,1.19332,0,0,0-.47.09,1.137,1.137,0,0,0-.38.27,1.10486,1.10486,0,0,0-.27.38A1.22361,1.22361,0,0,0,6.8,10V39a1.18224,1.18224,0,0,0,.3.9,1.2657,1.2657,0,0,0,.9.3H40a1.25623,1.25623,0,0,0,.89-.3,1.18224,1.18224,0,0,0,.3-.9V10a1.19215,1.19215,0,0,0-.3-.91A1.25623,1.25623,0,0,0,40,8.79Zm-4.36,5.37-1.53,1.53,1.53,1.52a.845.845,0,0,1,0,1.2.8452.8452,0,0,1-1.21,0l-1.52-1.52-1.52,1.52a.85208.85208,0,0,1-1.2-1.21l1.52-1.51-1.52-1.52a.84853.84853,0,1,1,1.2-1.2l1.52,1.51,1.52-1.52a.8452.8452,0,0,1,1.21,0,.89353.89353,0,0,1,.25.6A.85668.85668,0,0,1,35.64,14.16ZM17.66,16.67h-6a.9.9,0,0,1,0-1.8h6a.90005.90005,0,1,1,0,1.8Zm-6,4.76h24a.90005.90005,0,1,1,0,1.8h-24a.9.9,0,1,1,0-1.8Zm0,4.44h24a.90005.90005,0,1,1,0,1.8h-24a.9.9,0,1,1,0-1.8Zm6.41,5.45a1.52625,1.52625,0,0,1,.3.03,1.30868,1.30868,0,0,1,.28.09,1.2692,1.2692,0,0,1,.47.32,1.53845,1.53845,0,0,1,.33.47,2.2881,2.2881,0,0,1,.08.28,1.54581,1.54581,0,0,1,.04.31v1.8a1.19778,1.19778,0,0,1-.04.31h0a1.80418,1.80418,0,0,1-.08.27,1.2294,1.2294,0,0,1-.14.25,1.36547,1.36547,0,0,1-.19.23,1.40077,1.40077,0,0,1-.47.32,1.30868,1.30868,0,0,1-.28.09,1.52625,1.52625,0,0,1-.3.03H12.26a1.47,1.47,0,0,1-.58-.12l-.12-.06q-.06-.03-.13-.07c-.08-.06-.15-.12-.23-.19a2.10986,2.10986,0,0,1-.19-.23,1.96485,1.96485,0,0,1-.13-.25,2.75856,2.75856,0,0,1-.08-.27,1.64549,1.64549,0,0,1-.04-.31v-1.8a1.54581,1.54581,0,0,1,.04-.31,2.2881,2.2881,0,0,1,.08-.28,1.83426,1.83426,0,0,1,.13-.24.0288.0288,0,0,0,.01-.02h0a1.76569,1.76569,0,0,1,.18-.21,1.92493,1.92493,0,0,1,.23-.19q.07-.04.13-.08a.91591.91591,0,0,1,.12-.05,1.42619,1.42619,0,0,1,.27-.09,1.62792,1.62792,0,0,1,.31-.03Zm10.88,0a1.55259,1.55259,0,0,1,.31.03,1.2238,1.2238,0,0,1,.27.09,1.39424,1.39424,0,0,1,.48.32,1.3558,1.3558,0,0,1,.32.47,1.30868,1.30868,0,0,1,.09.28,1.55259,1.55259,0,0,1,.03.31v1.8a1.57709,1.57709,0,0,1-.03.31h0a1.2848,1.2848,0,0,1-.09.27,1.188,1.188,0,0,1-.13.25,2.10986,2.10986,0,0,1-.19.23,1.55189,1.55189,0,0,1-.48.32,1.2238,1.2238,0,0,1-.27.09,1.55259,1.55259,0,0,1-.31.03h-5.8a1.43464,1.43464,0,0,1-.58-.12,1.00238,1.00238,0,0,1-.12-.06h0a.80582.80582,0,0,1-.13-.07,1.57331,1.57331,0,0,1-.42-.42,1.96485,1.96485,0,0,1-.13-.25,1.42619,1.42619,0,0,1-.09-.27,1.62792,1.62792,0,0,1-.03-.31v-1.8a1.55259,1.55259,0,0,1,.03-.31,1.30868,1.30868,0,0,1,.09-.28,1.83426,1.83426,0,0,1,.13-.24.0288.0288,0,0,0,.01-.02,1.76569,1.76569,0,0,1,.18-.21,1.36547,1.36547,0,0,1,.23-.19q.06-.04.13-.08h0a.49962.49962,0,0,1,.12-.05,1.42619,1.42619,0,0,1,.27-.09,1.62792,1.62792,0,0,1,.31-.03Zm-11.19,1.8H12.57v1.2h5.19Zm10.89,0h-5.2v1.2h5.2Z"/></svg>