<?xml version="1.0" encoding="utf-8"?>
<!-- Generator: Adobe Illustrator 26.0.2, SVG Export Plug-In . SVG Version: 6.00 Build 0)  -->
<svg version="1.1" id="图层_1" xmlns="http://www.w3.org/2000/svg" xmlns:xlink="http://www.w3.org/1999/xlink" x="0px" y="0px"
	 viewBox="0 0 132 132" style="enable-background:new 0 0 132 132;" xml:space="preserve">
<style type="text/css">
	.st0{fill:none;}
	.st1{fill-rule:evenodd;clip-rule:evenodd;fill:currentColor;}
</style>
<rect id="size" class="st0" width="132" height="132"/>
<path id="矢量_28" class="st1" d="M8.2,66C8.2,34.1,34.1,8.2,66,8.2c31.9,0,57.8,25.8,57.8,57.8c0,15.9-35.8,0.9-39.9,19.2
	c-0.7,3,1.1,8.8,3,14.8c2.7,8.6,5.4,17.6,1.3,19.3c-6.8,2.8-14.3,4.4-22.1,4.4C34.1,123.8,8.2,97.9,8.2,66z M46.7,20.4
	c2.7-1.1,5.4-2,8.2-2.6c3.6-0.8,7.3-1.2,11.1-1.2c3.8,0,7.5,0.4,11.1,1.2c2.8,0.6,5.5,1.5,8.2,2.6c2.8,1.2,5.3,2.6,7.8,4.2
	c2.8,1.8,5.5,4,7.9,6.4s4.6,5.1,6.5,7.9v0c1.6,2.5,3,5.1,4.2,7.8c1.1,2.7,2,5.4,2.7,8.2l0,0c0.8,3.4,1.2,6.8,1.2,10.4
	c-0.8,0.3-2,0.5-3.6,0.7c-1.2,0.1-3.2,0.3-6.1,0.4c-3.4,0.2-6,0.4-7.8,0.6c-3.2,0.4-6.1,1-8.5,1.8c-3.4,1.1-6.2,2.8-8.4,5
	c-0.9,0.9-1.7,1.9-2.4,2.9c-1.4,2-2.3,4.3-2.9,6.8c-0.3,1.6-0.4,3.3-0.2,5.3c0.1,1.3,0.4,2.9,0.8,4.6c0.4,1.9,1.3,5,2.6,9.1
	c0.9,2.8,1.5,4.8,1.8,6.1c0.5,1.7,0.8,3.1,1,4.3c-1.6,0.5-3.2,1-4.8,1.4c-3.5,0.8-7.2,1.2-10.9,1.2c-3.8,0-7.5-0.4-11.1-1.2
	c-2.8-0.6-5.5-1.5-8.2-2.7c-2.8-1.2-5.3-2.6-7.8-4.2c-2.8-1.9-5.5-4-7.9-6.5s-4.6-5.1-6.5-7.9c-1.6-2.5-3-5.1-4.2-7.8
	c-1.1-2.7-2-5.4-2.6-8.2c-0.8-3.6-1.2-7.3-1.2-11.1c0-3.8,0.4-7.5,1.2-11.1c0.6-2.8,1.5-5.5,2.6-8.2c1.2-2.8,2.6-5.3,4.2-7.8
	c1.8-2.8,4-5.5,6.4-7.9s5.1-4.6,7.9-6.4l0,0l0,0l0,0C41.4,22.9,44,21.5,46.7,20.4z M33,45.4C33,38.5,38.5,33,45.4,33
	s12.4,5.5,12.4,12.4s-5.5,12.4-12.4,12.4S33,52.2,33,45.4z M86.6,33c-6.8,0-12.4,5.5-12.4,12.4s5.5,12.4,12.4,12.4
	c6.8,0,12.4-5.5,12.4-12.4S93.4,33,86.6,33z M41.2,45.4c0-2.3,1.8-4.1,4.1-4.1c2.3,0,4.1,1.8,4.1,4.1c0,2.3-1.8,4.1-4.1,4.1
	C43.1,49.5,41.2,47.7,41.2,45.4z M86.6,41.2c-2.3,0-4.1,1.8-4.1,4.1c0,2.3,1.8,4.1,4.1,4.1c2.3,0,4.1-1.8,4.1-4.1
	C90.8,43.1,88.9,41.2,86.6,41.2z M45.4,74.2c-6.8,0-12.4,5.5-12.4,12.4C33,93.4,38.5,99,45.4,99s12.4-5.6,12.4-12.4
	C57.8,79.8,52.2,74.2,45.4,74.2z M45.4,82.5c-2.3,0-4.1,1.8-4.1,4.1c0,2.3,1.8,4.1,4.1,4.1c2.3,0,4.1-1.8,4.1-4.1
	C49.5,84.3,47.7,82.5,45.4,82.5z"/>
</svg>
