<svg viewBox="0 0 40 40" xmlns="http://www.w3.org/2000/svg" xmlns:xlink="http://www.w3.org/1999/xlink" width="40.000000" height="40.000000" fill="none">
	<rect id="抽屉侧滑" width="40.000000" height="40.000000" x="0.000000" y="0.000000" />
	<path id="矢量 571" d="M34 5C35.933 5 37.5 6.567 37.5 8.5L37.5 31.5C37.5 33.433 35.933 35 34 35L6 35C4.06702 35 2.5 33.433 2.5 31.5L2.5 8.5C2.5 6.567 4.06702 5 6 5L34 5ZM22.12 6.6L6 6.6C5.84521 6.6 5.69482 6.61777 5.54871 6.65331C5.45081 6.67711 5.35498 6.70889 5.26099 6.74866C5.16028 6.79124 5.06458 6.84165 4.974 6.8999L4.974 6.89991C4.86023 6.97308 4.75439 7.05861 4.65649 7.15649C4.55859 7.25438 4.47314 7.36021 4.3999 7.474L4.3999 7.47401C4.34167 7.56461 4.29126 7.66025 4.24866 7.76093C4.20886 7.85493 4.17712 7.95088 4.15332 8.04877C4.1178 8.19485 4.09998 8.34527 4.09998 8.5L4.09998 31.5C4.09998 31.6547 4.1178 31.8052 4.15332 31.9513C4.17712 32.0491 4.20886 32.1451 4.24866 32.2391Q4.31256 32.3901 4.3999 32.526C4.47314 32.6398 4.55859 32.7456 4.65649 32.8435C4.75439 32.9414 4.86023 33.0269 4.974 33.1C5.06458 33.1583 5.16028 33.2088 5.26099 33.2513C5.35498 33.2911 5.45093 33.3229 5.54883 33.3467C5.69482 33.3822 5.84534 33.4 6 33.4L22.121 33.4L22.12 6.6ZM23.7209 33.4L34 33.4C34.1548 33.4 34.3052 33.3822 34.4513 33.3467C34.5492 33.3229 34.6451 33.2911 34.739 33.2513C34.8397 33.2088 34.9353 33.1584 35.0259 33.1001C35.1398 33.0269 35.2456 32.9414 35.3435 32.8435C35.4414 32.7456 35.527 32.6397 35.6001 32.5259C35.6583 32.4354 35.7087 32.3397 35.7513 32.2391C35.7911 32.1451 35.8229 32.0491 35.8467 31.9512C35.8822 31.8051 35.9 31.6547 35.9 31.5L35.9 8.5C35.9 8.34528 35.8822 8.19487 35.8467 8.04879C35.8229 7.9509 35.7911 7.85494 35.7513 7.76093C35.7089 7.6604 35.6584 7.5649 35.6003 7.47443L35.6002 7.47414C35.527 7.36031 35.4414 7.25443 35.3435 7.15649C35.2456 7.05865 35.1399 6.97315 35.0261 6.9L35.026 6.89992C34.9354 6.84166 34.8397 6.79124 34.739 6.74866C34.645 6.7089 34.5492 6.67712 34.4513 6.65331C34.3052 6.61777 34.1548 6.6 34 6.6L23.72 6.6L23.7209 33.4ZM27.7734 12.6375L31.6602 12.6375C32.1082 12.6375 32.4601 12.9895 32.4601 13.4375C32.4601 13.8855 32.1082 14.2375 31.6602 14.2375L27.7734 14.2375C27.3254 14.2375 26.9734 13.8855 26.9734 13.4375C26.9734 12.9895 27.3254 12.6375 27.7734 12.6375ZM11.2046 17.1548L14.545 19.4999L11.203 21.8452C10.8363 22.1025 10.7504 22.5928 11.0077 22.9595C11.265 23.3263 11.7554 23.4122 12.1221 23.1548L16.3971 20.1548C16.4735 20.1012 16.5386 20.0361 16.5923 19.9597C16.7455 19.7414 16.8058 19.5394 16.7733 19.3537C16.7408 19.1679 16.6155 18.9985 16.3972 18.8452L12.1239 15.8452C11.7572 15.5878 11.2668 15.6737 11.0094 16.0403C10.7521 16.407 10.8379 16.8973 11.2046 17.1548ZM31.6602 19.2L27.7734 19.2C27.3254 19.2 26.9734 19.552 26.9734 20C26.9734 20.448 27.3254 20.8 27.7734 20.8L31.6602 20.8C32.1082 20.8 32.4601 20.448 32.4601 20C32.4601 19.552 32.1082 19.2 31.6602 19.2ZM27.7734 25.7625L31.6602 25.7625C32.1082 25.7625 32.4601 26.1145 32.4601 26.5625C32.4601 27.0105 32.1082 27.3625 31.6602 27.3625L27.7734 27.3625C27.3254 27.3625 26.9734 27.0105 26.9734 26.5625C26.9734 26.1145 27.3254 25.7625 27.7734 25.7625Z" fill="currentColor" fill-rule="evenodd" />
</svg>
