<svg width="20.000000" height="20.000000" viewBox="0 0 20 20" fill="none" xmlns="http://www.w3.org/2000/svg" xmlns:xlink="http://www.w3.org/1999/xlink">
	<desc>
			Created with Pixso.
	</desc>
	<defs>
		<clipPath id="clip3794_39954">
			<rect id="高级" width="20.000000" height="20.000000" fill="white" fill-opacity="0"/>
		</clipPath>
	</defs>
	<g clip-path="url(#clip3794_39954)">
		<path id="形状结合" d="M18.12 5L16.17 5C15.86 3.54 14.61 2.5 13.12 2.5C11.62 2.5 10.37 3.54 10.06 5L1.87 5C1.52 5 1.25 5.27 1.25 5.62C1.25 5.96 1.52 6.25 1.87 6.25L10.06 6.25C10.37 7.68 11.62 8.75 13.12 8.75C14.61 8.75 15.86 7.68 16.17 6.25L18.12 6.25C18.46 6.25 18.75 5.96 18.75 5.62C18.75 5.27 18.46 5 18.12 5ZM13.12 7.5C12.06 7.5 11.25 6.67 11.25 5.62C11.25 4.56 12.06 3.75 13.12 3.75C14.17 3.75 15 4.56 15 5.62C15 6.67 14.17 7.5 13.12 7.5ZM1.87 15L3.81 15C4.12 16.43 5.37 17.5 6.87 17.5C8.36 17.5 9.61 16.43 9.92 15L18.12 15C18.46 15 18.75 14.71 18.75 14.37C18.75 14.02 18.46 13.75 18.12 13.75L9.92 13.75C9.61 12.3 8.36 11.25 6.87 11.25C5.37 11.25 4.12 12.3 3.81 13.75L1.87 13.75C1.52 13.75 1.25 14.02 1.25 14.37C1.25 14.71 1.52 15 1.87 15ZM6.87 12.5C7.92 12.5 8.75 13.31 8.75 14.37C8.75 15.42 7.92 16.25 6.87 16.25C5.81 16.25 5 15.42 5 14.37C5 13.31 5.81 12.5 6.87 12.5Z" fill="currentColor" fill-opacity="1.000000" fill-rule="nonzero"/>
	</g>
</svg>
