<svg viewBox="0 0 40 40" xmlns="http://www.w3.org/2000/svg" xmlns:xlink="http://www.w3.org/1999/xlink" width="40.000000" height="40.000000" fill="none">
	<rect id="文件上传" width="40.000000" height="40.000000" x="0.000000" y="0.000000" />
	<path id="矢量 735" d="M5.90002 35L34.9 35C36.5569 35 37.9 33.6569 37.9 32L37.9 16.5316C37.9 14.8748 36.5569 13.5316 34.9 13.5316L33.7 13.5316L33.7 11.5253C33.7 11.1387 33.6316 10.7805 33.495 10.4504C33.3583 10.1205 33.1532 9.81879 32.8799 9.54541C32.6066 9.27203 32.3048 9.06702 31.9749 8.93036C31.6449 8.7937 31.2866 8.72534 30.9 8.72534L21.3373 8.72534C21.3081 8.72534 21.2812 8.71997 21.2568 8.70929C21.2323 8.69855 21.2102 8.6825 21.1904 8.66113L18.0811 5.29895C17.804 4.99933 17.4941 4.7746 17.1515 4.62476C16.8088 4.47491 16.4335 4.40002 16.0254 4.40002L5.90002 4.40002C5.37537 4.40002 4.88904 4.4928 4.44116 4.67828C3.99341 4.86377 3.58398 5.14203 3.21301 5.513C2.84192 5.88403 2.56372 6.29346 2.37817 6.74127C2.19275 7.18909 2.09998 7.67535 2.09998 8.20001L2.09998 32.2C2.09998 32.5866 2.16833 32.9449 2.30505 33.2749C2.44165 33.6049 2.64673 33.9066 2.92004 34.1799C3.19348 34.4533 3.49512 34.6583 3.82507 34.795C4.15503 34.9317 4.51343 35 4.90002 35L5.90002 35ZM8.03333 33.4L8.70007 32.9C9.45544 32.3334 9.90002 31.4443 9.90002 30.5L9.90002 16.5316C9.90002 14.8748 11.2432 13.5316 12.9 13.5316L32.1 13.5316L32.1 11.5253C32.1 11.3596 32.0707 11.2061 32.0121 11.0647C31.9535 10.9233 31.8656 10.7939 31.7485 10.6768C31.6313 10.5596 31.5021 10.4718 31.3606 10.4132C31.2192 10.3546 31.0657 10.3253 30.9 10.3253L21.3373 10.3253C21.0748 10.3253 20.8336 10.2772 20.6133 10.1808C20.3931 10.0845 20.1938 9.94006 20.0157 9.74744L16.9064 6.38525C16.7876 6.25684 16.6548 6.16052 16.5081 6.09631Q16.2878 6 16.0254 6L5.90002 6C5.59619 6 5.3147 6.05371 5.05542 6.16113C4.79614 6.26849 4.55908 6.42963 4.34436 6.64441C4.12952 6.85919 3.96851 7.09619 3.86108 7.35547C3.75366 7.61475 3.69995 7.89624 3.69995 8.20001L3.69995 32.2Q3.69995 32.4486 3.78784 32.6607C3.84644 32.8021 3.93433 32.9314 4.05139 33.0485C4.16858 33.1657 4.29785 33.2536 4.43933 33.3121Q4.65137 33.4 4.90002 33.4L8.03333 33.4ZM10.4729 33.4L34.9 33.4C35.0933 33.4 35.2725 33.3658 35.4375 33.2975C35.6024 33.2291 35.7533 33.1266 35.89 32.9899C36.0266 32.8533 36.1292 32.7024 36.1975 32.5374L36.1975 32.5373Q36.3 32.2899 36.3 32L36.3 16.5316C36.3 16.3383 36.2659 16.1592 36.1975 15.9941C36.1292 15.8292 36.0266 15.6783 35.89 15.5417C35.7533 15.405 35.6024 15.3025 35.4375 15.2341C35.2725 15.1658 35.0933 15.1316 34.9 15.1316L12.9 15.1316C12.7067 15.1316 12.5276 15.1658 12.3625 15.2341C12.1976 15.3025 12.0468 15.405 11.91 15.5417C11.7734 15.6783 11.6709 15.8292 11.6025 15.9942L11.6025 15.9943Q11.5 16.2417 11.5 16.5316L11.5 30.5C11.5 30.8619 11.4596 31.2143 11.3787 31.5571L11.3787 31.5573C11.2977 31.9001 11.1763 32.2334 11.0144 32.5572C10.8622 32.8617 10.6816 33.1426 10.4729 33.4ZM20.8398 23.6295C20.5261 23.3097 20.5261 22.8071 20.8398 22.4873L23.6648 19.6074C23.7662 19.5038 23.8783 19.4262 24.0009 19.3745C24.1234 19.3228 24.2565 19.2969 24.4 19.2969C24.5436 19.2969 24.6766 19.3228 24.7992 19.3745C24.9218 19.4262 25.0338 19.5038 25.1353 19.6074L27.9602 22.4873C28.2739 22.8071 28.2739 23.3097 27.9602 23.6295C27.6465 23.9493 27.1536 23.9493 26.8398 23.6295L25.0265 21.7809L25.0265 28C25.0265 28.448 24.6744 28.8 24.2264 28.8C23.7784 28.8 23.4265 28.448 23.4265 28L23.4265 22.1347L21.9602 23.6295C21.6465 23.9493 21.1536 23.9493 20.8398 23.6295Z" fill="currentColor" fill-rule="evenodd" />
</svg>
