<svg viewBox="0 0 40 40" xmlns="http://www.w3.org/2000/svg" xmlns:xlink="http://www.w3.org/1999/xlink" width="40.000000" height="40.000000" fill="none">
	<rect id="弹性容器" width="40.000000" height="40.000000" x="0.000000" y="0.000000" fill="rgb(255,255,255)" fill-opacity="0" />
	<path id="矢量 506" d="M34.5 3.75C36.1569 3.75 37.5 5.09314 37.5 6.75L37.5 33.25C37.5 34.9069 36.1569 36.25 34.5 36.25L5.5 36.25C3.84314 36.25 2.5 34.9069 2.5 33.25L2.5 6.75C2.5 5.09314 3.84314 3.75 5.5 3.75L34.5 3.75ZM34.5 5.35001L5.5 5.35001C5.38281 5.35001 5.26904 5.36377 5.15869 5.39136C5.0896 5.40863 5.02197 5.43127 4.95557 5.45935C4.88293 5.49008 4.81384 5.52634 4.74829 5.56815C4.66284 5.62268 4.5835 5.68665 4.51001 5.76004C4.43665 5.83347 4.37268 5.91287 4.31812 5.99835Q4.25549 6.09663 4.20935 6.20554C4.18127 6.27191 4.15857 6.33966 4.14136 6.40875C4.11377 6.51904 4.09998 6.63281 4.09998 6.75L4.09998 13.45L35.9 13.45L35.9 6.75C35.9 6.63284 35.8862 6.51913 35.8586 6.40884C35.8414 6.33972 35.8187 6.27197 35.7906 6.20554C35.7599 6.13297 35.7236 6.0639 35.6819 5.99838C35.6273 5.9129 35.5634 5.83347 35.49 5.76004C35.4165 5.68665 35.337 5.62265 35.2516 5.56812L35.2515 5.56805C35.186 5.52628 35.1169 5.49005 35.0444 5.45935C34.9781 5.4313 34.9105 5.40866 34.8414 5.39142L34.8413 5.39136C34.731 5.3638 34.6172 5.35001 34.5 5.35001ZM4.09998 15.05L4.09998 33.25C4.09998 33.3672 4.11377 33.481 4.14136 33.5912C4.15857 33.6603 4.18127 33.7281 4.20935 33.7945C4.24011 33.867 4.27637 33.9361 4.31812 34.0016L4.31812 34.0016C4.37268 34.0871 4.43665 34.1665 4.51001 34.24C4.5835 34.3134 4.66296 34.3773 4.74841 34.4319C4.81384 34.4737 4.88293 34.5099 4.95557 34.5406C5.02197 34.5687 5.0896 34.5914 5.15869 34.6086C5.26904 34.6362 5.38281 34.65 5.5 34.65L34.5 34.65C34.6172 34.65 34.7308 34.6362 34.8412 34.6087L34.8414 34.6086C34.9104 34.5913 34.9781 34.5687 35.0444 34.5406C35.1171 34.5099 35.1862 34.4737 35.2516 34.4319L35.2517 34.4318C35.3372 34.3773 35.4166 34.3133 35.49 34.24C35.5634 34.1665 35.6273 34.0871 35.6819 34.0016L35.682 34.0014C35.7238 33.9359 35.76 33.867 35.7906 33.7945C35.8187 33.7281 35.8413 33.6604 35.8586 33.5913L35.8586 33.5912C35.8862 33.4809 35.9 33.3672 35.9 33.25L35.9 15.05L4.09998 15.05ZM7.5 9.25C7.5 8.55963 8.05969 8 8.75 8C9.44031 8 10 8.55963 10 9.25C10 9.94037 9.44031 10.5 8.75 10.5C8.05969 10.5 7.5 9.94037 7.5 9.25ZM12.5 9.25C12.5 8.55963 13.0597 8 13.75 8C14.4403 8 15 8.55963 15 9.25C15 9.94037 14.4403 10.5 13.75 10.5C13.0597 10.5 12.5 9.94037 12.5 9.25ZM17.5 9.25C17.5 8.55963 18.0597 8 18.75 8C19.4403 8 20 8.55963 20 9.25C20 9.94037 19.4403 10.5 18.75 10.5C18.0597 10.5 17.5 9.94037 17.5 9.25ZM28.0849 23.9176L25.8118 21.6201C25.6553 21.462 25.5772 21.2596 25.5772 21.0573C25.5772 20.8523 25.6574 20.6474 25.8177 20.4888C26.1362 20.1737 26.634 20.1763 26.9491 20.4948L30.5687 24.1531C30.723 24.309 30.8 24.4966 30.8 24.7159Q30.8 24.8802 30.7423 25.0208Q30.6844 25.1616 30.5686 25.2785L26.9475 28.9369C26.6324 29.2552 26.1346 29.2578 25.8162 28.9426C25.6559 28.784 25.5757 28.5791 25.5757 28.3742C25.5757 28.1719 25.6539 27.9694 25.8104 27.8113L28.0808 25.5176L11.9175 25.5172L14.1896 27.8127C14.3461 27.9708 14.4243 28.1732 14.4243 28.3755C14.4243 28.5805 14.3441 28.7854 14.1838 28.944C13.8654 29.2592 13.3676 29.2566 13.0525 28.9382L9.4314 25.2799Q9.3156 25.1629 9.25773 25.0222Q9.19995 24.8816 9.19995 24.7172C9.19995 24.4979 9.27698 24.3103 9.43127 24.1545L13.0509 20.4962C13.366 20.1777 13.8638 20.175 14.1823 20.4901C14.3426 20.6488 14.4228 20.8537 14.4228 21.0587C14.4228 21.261 14.3447 21.4633 14.1882 21.6215L11.9169 23.9172L28.0849 23.9176Z" fill="currentColor" fill-rule="evenodd" />
</svg>
