<?xml version="1.0" encoding="utf-8"?>
<!-- Generator: Adobe Illustrator 26.0.2, SVG Export Plug-In . SVG Version: 6.00 Build 0)  -->
<svg version="1.1" id="图层_1" xmlns="http://www.w3.org/2000/svg" xmlns:xlink="http://www.w3.org/1999/xlink" x="0px" y="0px"
	 viewBox="0 0 48 48" style="enable-background:new 0 0 48 48;" xml:space="preserve">
<style type="text/css">
	.st0{fill-rule:evenodd;clip-rule:evenodd;fill:currentColor;}
</style>
<desc>Created with Pixso.</desc>
<path id="矢量_148" class="st0" d="M40,7c1.7,0,3,1.3,3,3v29c0,1.7-1.3,3-3,3H8c-1.7,0-3-1.3-3-3V10c0-1.7,1.3-3,3-3H40z M41.2,10
	c0-0.7-0.5-1.2-1.2-1.2H8c-0.7,0-1.2,0.5-1.2,1.2v6.6h34.4V10z M6.8,18.4V39c0,0.7,0.5,1.2,1.2,1.2h32c0.7,0,1.2-0.5,1.2-1.2V18.4
	H6.8z M10,12.5c0-0.8,0.7-1.5,1.5-1.5c0.8,0,1.5,0.7,1.5,1.5c0,0.8-0.7,1.5-1.5,1.5C10.7,14,10,13.3,10,12.5z M15,12.5
	c0-0.8,0.7-1.5,1.5-1.5c0.8,0,1.5,0.7,1.5,1.5c0,0.8-0.7,1.5-1.5,1.5C15.7,14,15,13.3,15,12.5z M20,12.5c0-0.8,0.7-1.5,1.5-1.5
	c0.8,0,1.5,0.7,1.5,1.5c0,0.8-0.7,1.5-1.5,1.5C20.7,14,20,13.3,20,12.5z M12.9,34.5c0,0.5-0.4,0.9-0.9,0.9c-0.5,0-0.9-0.4-0.9-0.9
	V24c0-0.5,0.4-0.9,0.9-0.9c0.5,0,0.9,0.4,0.9,0.9V34.5z M36.9,34.5c0,0.5-0.4,0.9-0.9,0.9c-0.5,0-0.9-0.4-0.9-0.9V24
	c0-0.5,0.4-0.9,0.9-0.9c0.5,0,0.9,0.4,0.9,0.9V34.5z M20.5,26.7L19.1,28H22c0,0,0,0,0,0h1.9h1.9c0,0,0,0,0,0h2.8l-1.3-1.4
	c-0.2-0.2-0.3-0.4-0.3-0.6c0-0.2,0.1-0.5,0.3-0.6c0.4-0.4,0.9-0.3,1.3,0l2.8,2.9c0.2,0.2,0.2,0.4,0.2,0.6c0,0.2-0.1,0.4-0.2,0.6
	l-2.8,2.9c-0.4,0.4-0.9,0.4-1.3,0c-0.2-0.2-0.3-0.4-0.3-0.6c0-0.2,0.1-0.5,0.3-0.6l1.3-1.4h-9.5l1.3,1.4c0.2,0.2,0.3,0.4,0.3,0.6
	c0,0.2-0.1,0.5-0.3,0.6c-0.4,0.3-0.9,0.3-1.3,0l-2.8-2.9c-0.2-0.2-0.2-0.4-0.2-0.6c0-0.2,0.1-0.5,0.2-0.6l2.8-2.9
	c0.4-0.4,0.9-0.4,1.3,0c0.2,0.2,0.3,0.4,0.3,0.6C20.7,26.3,20.6,26.5,20.5,26.7z"/>
</svg>
