<svg id="图层_1" data-name="图层 1" xmlns="http://www.w3.org/2000/svg" viewBox="0 0 16 16"><defs><style>.cls-1{fill:currentColor;}</style></defs><path id="形状结合" class="cls-1" d="M5.82,1a.654.654,0,0,1,.45.16L8.48,3.01H13.4a1.61328,1.61328,0,0,1,1.59,1.45l.01.15v6.55a2.69311,2.69311,0,0,1-2.69,2.67H4.67A2.66949,2.66949,0,0,1,2,11.16V2.41A1.57617,1.57617,0,0,1,3.58,1ZM14,7.21H3v3.95a1.66723,1.66723,0,0,0,1.57,1.67h7.74A1.68374,1.68374,0,0,0,14,11.16ZM5.71,2H3.58A.5538.5538,0,0,0,3,2.49V6.21H14V4.61a.6218.6218,0,0,0-.52-.6H8.36a.70067.70067,0,0,1-.45-.17Z"/></svg>