<svg id="图层_1" data-name="图层 1" xmlns="http://www.w3.org/2000/svg" viewBox="0 0 16 16"><defs><style>.cls-1{fill:currentColor;}</style></defs><path id="形状结合" class="cls-1" d="M4.97,2.04a.70567.70567,0,0,1,.45.16L7.59,4.1l4.92.09a1.6043,1.6043,0,0,1,1.57,1.47V5.8l-.01,1.61h.65l.11.02a.50644.50644,0,0,1,.4.59L13.98,14a.77406.77406,0,0,1-.07.16,1.747,1.747,0,0,1-1.57.84l-8.71-.15A2.681,2.681,0,0,1,1,12.12l.13-8.56A1.56691,1.56691,0,0,1,2.74,2Zm9.16,6.37L4.22,8.24l-1.15,5.5a1.61577,1.61577,0,0,0,.58.11l8.72.15a.81281.81281,0,0,0,.61-.23ZM4.84,3.04,2.73,3a.56164.56164,0,0,0-.59.48L2,12.14a1.68936,1.68936,0,0,0,.21.84L3.32,7.62a1.46722,1.46722,0,0,1,.06-.14c.01-.01.14-.16.16-.17a.69367.69367,0,0,1,.28-.08l9.25.16.01-1.6a.585.585,0,0,0-.58-.6L7.48,5.1a.75386.75386,0,0,1-.47-.17Z"/></svg>