<svg viewBox="0 0 40 40" xmlns="http://www.w3.org/2000/svg" xmlns:xlink="http://www.w3.org/1999/xlink" width="40.000000" height="40.000000" fill="none">
	<rect id="表单项" width="40.000000" height="40.000000" x="0.000000" y="0.000000" fill="rgb(255,255,255)" fill-opacity="0" />
	<path id="矢量 616" d="M33 5C34.933 5 36.5 6.56701 36.5 8.5L36.5 31.5C36.5 33.433 34.933 35 33 35L6 35C4.06702 35 2.5 33.433 2.5 31.5L2.5 8.5C2.5 6.56701 4.06702 5 6 5L33 5ZM33 6.6L6 6.6C5.84521 6.6 5.69482 6.61777 5.54871 6.65331C5.45081 6.67712 5.35498 6.7089 5.26099 6.74865C5.16028 6.79123 5.06458 6.84165 4.974 6.8999L4.974 6.89991Q4.80334 7.00966 4.65649 7.1565C4.55859 7.25438 4.47314 7.36021 4.3999 7.474L4.3999 7.47401C4.34167 7.56461 4.29126 7.66025 4.24866 7.76093C4.20886 7.85493 4.17712 7.95088 4.15332 8.04877C4.1178 8.19486 4.09998 8.34527 4.09998 8.5L4.09998 31.5C4.09998 31.6547 4.1178 31.8051 4.15332 31.9512L4.15332 31.9513C4.17712 32.0491 4.20886 32.1451 4.24866 32.2391C4.29126 32.3397 4.34167 32.4354 4.3999 32.526L4.3999 32.526C4.47314 32.6398 4.55859 32.7456 4.65649 32.8435C4.75439 32.9414 4.86023 33.0269 4.974 33.1C5.06458 33.1583 5.16028 33.2088 5.26099 33.2513C5.35498 33.2911 5.45093 33.3229 5.54883 33.3467C5.69482 33.3822 5.84534 33.4 6 33.4L33 33.4C33.1548 33.4 33.3052 33.3822 33.4513 33.3467C33.5492 33.3229 33.6451 33.2911 33.739 33.2513C33.8397 33.2088 33.9353 33.1584 34.0259 33.1002L34.026 33.1001L34.026 33.1C34.1398 33.0269 34.2456 32.9414 34.3435 32.8435C34.4414 32.7456 34.527 32.6397 34.6001 32.5259L34.6002 32.5258C34.6584 32.4353 34.7087 32.3397 34.7513 32.2391C34.7911 32.1451 34.8229 32.0491 34.8467 31.9512C34.8822 31.8051 34.9 31.6547 34.9 31.5L34.9 8.5C34.9 8.34528 34.8822 8.19488 34.8467 8.04879C34.8229 7.9509 34.7911 7.85494 34.7513 7.76093C34.7087 7.66031 34.6584 7.56472 34.6002 7.47414L34.599 7.47225Q34.4895 7.30257 34.3435 7.1565C34.2456 7.0586 34.1398 6.97306 34.026 6.89989C33.9354 6.84165 33.8397 6.79123 33.739 6.74865C33.6451 6.7089 33.5492 6.67712 33.4513 6.65332C33.3052 6.61777 33.1548 6.6 33 6.6ZM9.69995 14C9.69995 13.3373 10.2372 12.8 10.8999 12.8C11.5627 12.8 12.1 13.3373 12.1 14C12.1 14.6627 11.5627 15.2 10.8999 15.2C10.2372 15.2 9.69995 14.6627 9.69995 14ZM28.696 14.799L15.196 14.799C14.748 14.799 14.396 14.447 14.396 13.999C14.396 13.551 14.748 13.199 15.196 13.199L28.696 13.199C29.144 13.199 29.496 13.551 29.496 13.999C29.496 14.447 29.144 14.799 28.696 14.799ZM9.69995 20.3C9.69995 19.6373 10.2372 19.1 10.8999 19.1C11.5627 19.1 12.1 19.6373 12.1 20.3C12.1 20.9627 11.5627 21.5 10.8999 21.5C10.2372 21.5 9.69995 20.9627 9.69995 20.3ZM28.696 21.0505L15.196 21.0505C14.748 21.0505 14.396 20.6985 14.396 20.2505C14.396 19.8025 14.748 19.4505 15.196 19.4505L28.696 19.4505C29.144 19.4505 29.496 19.8025 29.496 20.2505C29.496 20.6985 29.144 21.0505 28.696 21.0505ZM9.69995 26C9.69995 25.3373 10.2372 24.8 10.8999 24.8C11.5627 24.8 12.1 25.3373 12.1 26C12.1 26.6627 11.5627 27.2 10.8999 27.2C10.2372 27.2 9.69995 26.6627 9.69995 26ZM28.696 26.799L15.196 26.799C14.748 26.799 14.396 26.447 14.396 25.999C14.396 25.551 14.748 25.199 15.196 25.199L28.696 25.199C29.144 25.199 29.496 25.551 29.496 25.999C29.496 26.447 29.144 26.799 28.696 26.799Z" fill="currentColor" fill-rule="evenodd" />
</svg>
