<?xml version="1.0" encoding="utf-8"?>
<!-- Generator: Adobe Illustrator 26.0.2, SVG Export Plug-In . SVG Version: 6.00 Build 0)  -->
<svg version="1.1" id="图层_1" xmlns="http://www.w3.org/2000/svg" xmlns:xlink="http://www.w3.org/1999/xlink" x="0px" y="0px"
	 viewBox="0 0 48 48" style="enable-background:new 0 0 48 48;" xml:space="preserve">
<style type="text/css">
	.st0{fill-rule:evenodd;clip-rule:evenodd;fill:currentColor;}
</style>
<desc>Created with Pixso.</desc>
<path id="矢量_162" class="st0" d="M38,7c1.7,0,3,1.3,3,3v28c0,1.7-1.3,3-3,3H10c-1.7,0-3-1.3-3-3V10c0-1.7,1.3-3,3-3H38z M38,8.8
	c0.7,0,1.2,0.5,1.2,1.2v28c0,0.7-0.5,1.2-1.2,1.2H10c-0.7,0-1.2-0.5-1.2-1.2V10c0-0.7,0.5-1.2,1.2-1.2H38z M33,15.9H15
	c-0.5,0-0.9,0.4-0.9,0.9c0,0.5,0.4,0.9,0.9,0.9h18c0.5,0,0.9-0.4,0.9-0.9C33.9,16.3,33.5,15.9,33,15.9z M15,22.8h18
	c0.5,0,0.9,0.4,0.9,0.9c0,0.5-0.4,0.9-0.9,0.9H15c-0.5,0-0.9-0.4-0.9-0.9C14.1,23.2,14.5,22.8,15,22.8z M33,30.2H15
	c-0.5,0-0.9,0.4-0.9,0.9c0,0.5,0.4,0.9,0.9,0.9h18c0.5,0,0.9-0.4,0.9-0.9C33.9,30.6,33.5,30.2,33,30.2z"/>
</svg>
