<svg viewBox="0 0 40 40" xmlns="http://www.w3.org/2000/svg" xmlns:xlink="http://www.w3.org/1999/xlink" width="40.000000" height="40.000000" fill="none">
	<rect id="表单" width="40.000000" height="40.000000" x="0.000000" y="0.000000" fill="rgb(255,255,255)" fill-opacity="0" />
	<path id="矢量 525" d="M31.8 3.75C33.5673 3.75 35 5.18269 35 6.95L35 33.05C35 34.8173 33.5673 36.25 31.8 36.25L8.19995 36.25C6.43274 36.25 5 34.8173 5 33.05L5 6.95C5 5.18269 6.43274 3.75 8.19995 3.75L31.8 3.75ZM31.8 5.35001L8.19995 5.35001C8.06775 5.35001 7.93933 5.36537 7.8147 5.39612L7.81461 5.39614Q7.69381 5.42598 7.57776 5.47508C7.4939 5.51053 7.41418 5.55246 7.33862 5.60083L7.33862 5.60085C7.24182 5.66283 7.15186 5.73543 7.0686 5.81863C6.98547 5.90182 6.91284 5.99182 6.85083 6.08861L6.85083 6.08862C6.80249 6.16417 6.7605 6.24387 6.7251 6.3277C6.69238 6.40512 6.66602 6.48413 6.64612 6.56473L6.64612 6.56474C6.61536 6.68936 6.59998 6.81779 6.59998 6.95L6.59998 33.05C6.59998 33.1822 6.61536 33.3106 6.64612 33.4353C6.66602 33.5159 6.69238 33.5949 6.7251 33.6723C6.7605 33.7561 6.80249 33.8358 6.85083 33.9114C6.91284 34.0082 6.98547 34.0982 7.0686 34.1814C7.15186 34.2646 7.24182 34.3372 7.33862 34.3992L7.33875 34.3992C7.41431 34.4476 7.4939 34.4895 7.57776 34.5249C7.65515 34.5577 7.73413 34.584 7.8147 34.6039C7.93933 34.6346 8.06775 34.65 8.19995 34.65L31.8 34.65C31.9323 34.65 32.0607 34.6346 32.1853 34.6039L32.1854 34.6038C32.266 34.584 32.345 34.5576 32.4222 34.5249C32.5061 34.4895 32.5858 34.4476 32.6613 34.3992C32.7582 34.3372 32.8481 34.2646 32.9314 34.1814C33.0146 34.0981 33.0873 34.0081 33.1492 33.9113C33.1976 33.8358 33.2395 33.7561 33.2749 33.6723C33.3076 33.5949 33.334 33.5159 33.3539 33.4353L33.3539 33.4353C33.3846 33.3107 33.4 33.1822 33.4 33.05L33.4 6.95Q33.4 6.7524 33.3542 6.56604L33.3541 6.56578L33.3539 6.5647L33.3539 6.56467C33.334 6.4841 33.3076 6.40511 33.2749 6.3277C33.2395 6.24388 33.1975 6.16422 33.1492 6.08867C33.0872 5.99185 33.0145 5.90184 32.9314 5.81863C32.8481 5.73541 32.7582 5.66281 32.6614 5.60083L32.6613 5.60078C32.5858 5.55243 32.5061 5.51053 32.4222 5.47508C32.3448 5.44234 32.2659 5.41602 32.1853 5.39613C32.0607 5.36537 31.9323 5.35001 31.8 5.35001ZM12.5 14.1L27.5 14.1C27.948 14.1 28.2999 13.748 28.2999 13.3C28.2999 12.852 27.948 12.5 27.5 12.5L12.5 12.5C12.052 12.5 11.7 12.852 11.7 13.3C11.7 13.748 12.052 14.1 12.5 14.1ZM27.5 20.8L12.5 20.8C12.052 20.8 11.7 20.448 11.7 20C11.7 19.552 12.052 19.2 12.5 19.2L27.5 19.2C27.948 19.2 28.2999 19.552 28.2999 20C28.2999 20.448 27.948 20.8 27.5 20.8ZM12.5 27.5L27.5 27.5C27.948 27.5 28.2999 27.148 28.2999 26.7C28.2999 26.252 27.948 25.9 27.5 25.9L12.5 25.9C12.052 25.9 11.7 26.252 11.7 26.7C11.7 27.148 12.052 27.5 12.5 27.5Z" fill="currentColor" fill-rule="evenodd" />
</svg>
