<?xml version="1.0" encoding="utf-8"?>
<!-- Generator: Adobe Illustrator 26.0.2, SVG Export Plug-In . SVG Version: 6.00 Build 0)  -->
<svg version="1.1" id="图层_1" xmlns="http://www.w3.org/2000/svg" xmlns:xlink="http://www.w3.org/1999/xlink" x="0px" y="0px"
	 viewBox="0 0 132 132" style="enable-background:new 0 0 132 132;" xml:space="preserve">
<style type="text/css">
	.st0{fill:none;}
	.st1{fill:currentColor;}
</style>
<rect id="size" class="st0" width="132" height="132"/>
<path id="形状结合" class="st1" d="M119.6,33h-12.9c-2.1-9.6-10.3-16.5-20.1-16.5c-9.9,0-18.2,6.9-20.2,16.5h-54
	c-2.3,0-4.1,1.8-4.1,4.1c0,2.2,1.8,4.1,4.1,4.1h54c2.1,9.5,10.3,16.5,20.2,16.5c9.8,0,18.1-7,20.1-16.5h12.9c2.2,0,4.1-1.9,4.1-4.1
	C123.8,34.8,121.8,33,119.6,33z M86.6,49.5c-7,0-12.4-5.5-12.4-12.4c0-7,5.4-12.4,12.4-12.4c6.9,0,12.4,5.4,12.4,12.4
	C99,44,93.6,49.5,86.6,49.5z M12.4,99h12.8c2.1,9.5,10.3,16.5,20.2,16.5c9.8,0,18.1-7,20.1-16.5h54.1c2.2,0,4.1-1.9,4.1-4.1
	c0-2.3-1.9-4.1-4.1-4.1H65.5c-2.1-9.6-10.3-16.5-20.1-16.5c-9.9,0-18.1,6.9-20.2,16.5H12.4c-2.3,0-4.1,1.8-4.1,4.1
	C8.2,97.1,10.1,99,12.4,99z M45.4,82.5c6.9,0,12.4,5.4,12.4,12.4c0,6.9-5.5,12.4-12.4,12.4c-7,0-12.4-5.4-12.4-12.4
	C33,87.9,38.4,82.5,45.4,82.5z"/>
</svg>
