<svg viewBox="0 0 40 40" xmlns="http://www.w3.org/2000/svg" xmlns:xlink="http://www.w3.org/1999/xlink" width="40.000000" height="40.000000" fill="none">
	<rect id="全宽居中布局" width="40.000000" height="40.000000" x="0.000000" y="0.000000" fill="rgb(255,255,255)" fill-opacity="0" />
	<path id="矢量 507" d="M37.5 6.75C37.5 5.09314 36.1569 3.75 34.5 3.75L5.5 3.75C3.84314 3.75 2.5 5.09314 2.5 6.75L2.5 33.25C2.5 34.9069 3.84314 36.25 5.5 36.25L34.5 36.25C36.1569 36.25 37.5 34.9069 37.5 33.25L37.5 6.75ZM5.5 5.35001L34.5 5.35001C34.6172 5.35001 34.731 5.3638 34.8413 5.39136L34.8414 5.39142C34.9105 5.40866 34.9781 5.4313 35.0444 5.45935C35.1169 5.49005 35.186 5.52628 35.2515 5.56805L35.2516 5.56812C35.337 5.62265 35.4165 5.68665 35.49 5.76004C35.5634 5.83347 35.6273 5.9129 35.6819 5.99838C35.7236 6.0639 35.7599 6.13297 35.7906 6.20554C35.8187 6.27197 35.8414 6.33972 35.8586 6.40884C35.8862 6.51913 35.9 6.63284 35.9 6.75L35.9 13.45L4.09998 13.45L4.09998 6.75C4.09998 6.63281 4.11377 6.51904 4.14136 6.40875C4.15857 6.33966 4.18127 6.27191 4.20935 6.20554Q4.25549 6.09663 4.31812 5.99835C4.37268 5.91287 4.43665 5.83347 4.51001 5.76004C4.5835 5.68665 4.66284 5.62268 4.74829 5.56815C4.81384 5.52634 4.88293 5.49008 4.95557 5.45935C5.02197 5.43127 5.0896 5.40863 5.15869 5.39136C5.26904 5.36377 5.38281 5.35001 5.5 5.35001ZM4.09998 15.05L4.09998 33.25C4.09998 33.3672 4.11377 33.481 4.14136 33.5912C4.15857 33.6603 4.18127 33.7281 4.20935 33.7945C4.24011 33.867 4.27637 33.9361 4.31812 34.0016L4.31812 34.0016C4.37268 34.0871 4.43665 34.1665 4.51001 34.24C4.5835 34.3134 4.66296 34.3773 4.74841 34.4319C4.81384 34.4737 4.88293 34.5099 4.95557 34.5406C5.02197 34.5687 5.0896 34.5914 5.15869 34.6086C5.26904 34.6362 5.38281 34.65 5.5 34.65L34.5 34.65C34.6172 34.65 34.7308 34.6362 34.8412 34.6087L34.8414 34.6086C34.9104 34.5913 34.9781 34.5687 35.0444 34.5406C35.1171 34.5099 35.1862 34.4737 35.2516 34.4319L35.2517 34.4318C35.3372 34.3773 35.4166 34.3133 35.49 34.24C35.5634 34.1665 35.6273 34.0871 35.6819 34.0016L35.682 34.0014C35.7238 33.9359 35.76 33.867 35.7906 33.7945C35.8187 33.7281 35.8413 33.6604 35.8586 33.5913L35.8586 33.5912C35.8862 33.4809 35.9 33.3672 35.9 33.25L35.9 15.05L4.09998 15.05ZM8.36914 8C7.67883 8 7.11914 8.55963 7.11914 9.25C7.11914 9.94037 7.67883 10.5 8.36914 10.5C9.05945 10.5 9.61914 9.94037 9.61914 9.25C9.61914 8.55963 9.05945 8 8.36914 8ZM12.9883 8C12.298 8 11.7383 8.55963 11.7383 9.25C11.7383 9.94037 12.298 10.5 12.9883 10.5C13.6786 10.5 14.2383 9.94037 14.2383 9.25C14.2383 8.55963 13.6786 8 12.9883 8ZM16.3574 9.25C16.3574 8.55963 16.9171 8 17.6074 8C18.2977 8 18.8574 8.55963 18.8574 9.25C18.8574 9.94037 18.2977 10.5 17.6074 10.5C16.9171 10.5 16.3574 9.94037 16.3574 9.25ZM30.0393 19C31.1222 19 32 19.8778 32 20.9607L32 28.5393C32 29.6222 31.1222 30.5 30.0393 30.5L9.96069 30.5C8.87781 30.5 8 29.6222 8 28.5393L8 20.9607C8 19.8778 8.87781 19 9.96069 19L30.0393 19ZM30.0393 20.6L9.96069 20.6C9.91089 20.6 9.86475 20.6088 9.82227 20.6264C9.77966 20.644 9.74084 20.6704 9.70569 20.7057C9.67041 20.7409 9.64404 20.7797 9.62646 20.8222C9.60876 20.8647 9.59998 20.9109 9.59998 20.9607L9.59998 28.5393C9.59998 28.5891 9.60876 28.6353 9.62646 28.6778C9.64404 28.7203 9.67041 28.7592 9.70569 28.7943C9.74084 28.8296 9.77966 28.856 9.82227 28.8736C9.86475 28.8912 9.91089 28.9 9.96069 28.9L30.0393 28.9C30.0891 28.9 30.1353 28.8912 30.1777 28.8736C30.2203 28.856 30.2592 28.8296 30.2943 28.7943C30.3296 28.7592 30.356 28.7203 30.3735 28.6778C30.3912 28.6353 30.4 28.5891 30.4 28.5393L30.4 20.9607C30.4 20.9109 30.3912 20.8647 30.3735 20.8222C30.356 20.7797 30.3296 20.7408 30.2943 20.7057C30.2592 20.6704 30.2203 20.644 30.1777 20.6264C30.1353 20.6088 30.0891 20.6 30.0393 20.6Z" fill="currentColor" fill-rule="evenodd" />
</svg>
