<?xml version="1.0" encoding="utf-8"?>
<!-- Generator: Adobe Illustrator 26.0.2, SVG Export Plug-In . SVG Version: 6.00 Build 0)  -->
<svg version="1.1" id="图层_1" xmlns="http://www.w3.org/2000/svg" xmlns:xlink="http://www.w3.org/1999/xlink" x="0px" y="0px"
	 viewBox="0 0 48 48" style="enable-background:new 0 0 48 48;" xml:space="preserve">
<style type="text/css">
	.st0{fill-rule:evenodd;clip-rule:evenodd;fill:currentColor;}
</style>
<desc>Created with Pixso.</desc>
<path id="矢量_149" class="st0" d="M40,7c1.7,0,3,1.3,3,3v29c0,1.7-1.3,3-3,3H8c-1.7,0-3-1.3-3-3V10c0-1.7,1.3-3,3-3H40z M40,8.8
	c0.7,0,1.2,0.5,1.2,1.2v7.1H6.8V10c0-0.7,0.5-1.2,1.2-1.2H40z M11.5,11.4c-0.8,0-1.5,0.7-1.5,1.5c0,0.8,0.7,1.5,1.5,1.5
	c0.8,0,1.5-0.7,1.5-1.5C13,12.1,12.3,11.4,11.5,11.4z M16.5,11.4c-0.8,0-1.5,0.7-1.5,1.5c0,0.8,0.7,1.5,1.5,1.5
	c0.8,0,1.5-0.7,1.5-1.5C18,12.1,17.3,11.4,16.5,11.4z M20,12.9c0-0.8,0.7-1.5,1.5-1.5c0.8,0,1.5,0.7,1.5,1.5c0,0.8-0.7,1.5-1.5,1.5
	C20.7,14.4,20,13.7,20,12.9z M6.8,18.9h34.4V39c0,0.7-0.5,1.2-1.2,1.2H8c-0.7,0-1.2-0.5-1.2-1.2V18.9z M35,23.5c1.1,0,2,0.9,2,2v9
	c0,1.1-0.9,2-2,2H13c-1.1,0-2-0.9-2-2v-9c0-1.1,0.9-2,2-2H35z M35,25.3c0.1,0,0.2,0.1,0.2,0.2v9c0,0.1-0.1,0.2-0.2,0.2H13
	c-0.1,0-0.2-0.1-0.2-0.2v-9c0-0.1,0.1-0.2,0.2-0.2H35z"/>
</svg>
