<svg viewBox="0 0 40 40" xmlns="http://www.w3.org/2000/svg" xmlns:xlink="http://www.w3.org/1999/xlink" width="40.000000" height="40.000000" fill="none">
	<rect id="漏斗图" width="40.000000" height="40.000000" x="0.000000" y="0.000000" />
	<path id="矢量 717" d="M38.1516 7.20102C38.2549 7.02243 38.3285 6.83704 38.3726 6.64487C38.4081 6.49033 38.4244 6.33142 38.4216 6.16809C38.4188 6.00797 38.398 5.85251 38.359 5.70175C38.3141 5.52844 38.2453 5.36139 38.1525 5.2005C38.0597 5.03964 37.9495 4.89645 37.8219 4.7709C37.7109 4.66162 37.5868 4.56573 37.4495 4.48318C37.3095 4.39905 37.1637 4.33365 37.0122 4.28702C36.8237 4.229 36.6265 4.20001 36.4201 4.20001L3.57983 4.20001C3.37354 4.20001 3.17615 4.229 2.98767 4.28702C2.83618 4.33368 2.69043 4.39905 2.55042 4.48318C2.41309 4.56573 2.28894 4.66165 2.17798 4.7709C2.05042 4.89645 1.94031 5.03967 1.84741 5.2005C1.75464 5.36136 1.68579 5.52841 1.64099 5.70169C1.60193 5.85248 1.58105 6.00793 1.57825 6.16809C1.57556 6.33139 1.5918 6.4903 1.62732 6.64481C1.67139 6.83698 1.74512 7.0224 1.84839 7.20102L18.2684 35.6034C18.3716 35.7818 18.4954 35.938 18.6398 36.0721C18.7559 36.1799 18.8853 36.2733 19.0281 36.3524C19.1681 36.43 19.3131 36.4895 19.4631 36.5309C19.6355 36.5786 19.8145 36.6024 20 36.6024C20.1856 36.6024 20.3644 36.5786 20.5368 36.5309C20.6868 36.4895 20.8318 36.43 20.9719 36.3524C21.1146 36.2733 21.2441 36.1799 21.3602 36.0721C21.5045 35.938 21.6283 35.7818 21.7315 35.6034L38.1516 7.20102ZM36.7664 6.40021L32.5462 13.7L7.45373 13.7L3.23352 6.40021C3.19495 6.33353 3.17566 6.26688 3.17566 6.2002C3.17566 6.13351 3.19482 6.0668 3.2334 6.00009Q3.291 5.90021 3.37745 5.85017L3.37769 5.85004C3.43543 5.81668 3.50281 5.80002 3.57983 5.80002L36.4201 5.80002C36.4971 5.80002 36.5645 5.81668 36.6222 5.85004C36.6799 5.88339 36.728 5.93341 36.7666 6.00012C36.8051 6.0668 36.8242 6.13348 36.8242 6.20016C36.8242 6.26688 36.8049 6.33353 36.7664 6.40021ZM8.37873 15.3L31.6212 15.3L26.8225 23.6003C26.8151 23.6001 26.8076 23.6 26.8001 23.6L13.1772 23.6L8.37873 15.3ZM14.1022 25.2L19.6537 34.8026C19.6921 34.8692 19.7402 34.9192 19.798 34.9525C19.8557 34.9858 19.923 35.0024 20 35.0024C20.0769 35.0024 20.1442 34.9858 20.2019 34.9525C20.2596 34.9192 20.3077 34.8692 20.3462 34.8026L25.8977 25.2L14.1022 25.2Z" fill="currentColor" fill-rule="evenodd" />
</svg>
