<svg viewBox="0 0 40 40" xmlns="http://www.w3.org/2000/svg" xmlns:xlink="http://www.w3.org/1999/xlink" width="40.000000" height="40.000000" fill="none">
	<rect id="仪表盘" width="40.000000" height="40.000000" x="0.000000" y="0.000000" />
	<path id="矢量 701" d="M6.17285 33.1908C6.56165 33.6694 6.97522 34.1278 7.4137 34.5659C7.73059 34.8826 8.22839 34.8824 8.54504 34.5655C8.70331 34.4071 8.78244 34.2035 8.78244 34C8.78244 33.7962 8.70319 33.5925 8.54468 33.4341C8.1427 33.0325 7.76367 32.6122 7.40771 32.1732C7.11121 31.8077 6.83069 31.4292 6.56604 31.0378C6.22412 30.5321 5.91272 30.0106 5.63171 29.4731C5.42969 29.0864 5.24329 28.6915 5.07263 28.2884C4.86584 27.7999 4.68408 27.3035 4.52722 26.7994C4.36914 26.2912 4.23633 25.775 4.12903 25.251C4.0697 24.9609 4.01831 24.6696 3.97498 24.3771C3.85828 23.5893 3.79993 22.7929 3.79993 21.9878C3.79993 21.1826 3.85828 20.386 3.9751 19.5981C4.01831 19.3058 4.0697 19.0146 4.12903 18.7247C4.23645 18.2005 4.36914 17.6842 4.52734 17.1759C4.68408 16.6719 4.86584 16.1757 5.07263 15.6872C5.24341 15.2836 5.43005 14.8883 5.63245 14.5013C5.91321 13.9642 6.22449 13.4431 6.56604 12.9378C6.83069 12.5463 7.11145 12.1677 7.40796 11.802Q7.94189 11.1438 8.54468 10.5415C8.94092 10.1456 9.35522 9.77191 9.78772 9.42056C10.1593 9.11868 10.5443 8.83325 10.9427 8.5643C11.4427 8.22678 11.9583 7.91892 12.4894 7.64075C12.8824 7.43488 13.2841 7.24524 13.6942 7.07187C14.1791 6.86697 14.6715 6.68661 15.1716 6.53079C15.6844 6.37103 16.2052 6.23706 16.7341 6.12894C17.0223 6.07001 17.3116 6.01898 17.6022 5.97589C18.3927 5.85864 19.192 5.80002 20 5.80002C20.8081 5.80002 21.6075 5.85867 22.3982 5.97598C22.6886 6.01904 22.9778 6.07004 23.2657 6.12894Q24.0593 6.29121 24.8287 6.53094C25.3287 6.68674 25.821 6.86703 26.3057 7.07187C26.7156 7.24515 27.1169 7.43466 27.5099 7.64041C28.0413 7.91867 28.557 8.22662 29.0571 8.5643C29.4557 8.83331 29.8407 9.1188 30.2124 9.42078C30.6448 9.77203 31.0591 10.1456 31.4553 10.5415C31.8572 10.9431 32.2362 11.3634 32.5922 11.8023C32.8887 12.1679 33.1692 12.5464 33.4338 12.9378C33.7756 13.4433 34.0869 13.9647 34.3678 14.5019C34.5701 14.8888 34.7566 15.2839 34.9272 15.6872C35.134 16.1756 35.3158 16.6718 35.4725 17.1757C35.6307 17.6841 35.7634 18.2004 35.8708 18.7247C35.9302 19.0145 35.9814 19.3055 36.0248 19.5977C36.1416 20.3857 36.2 21.1824 36.2 21.9878C36.2 22.7931 36.1416 23.5898 36.0248 24.3777C35.9816 24.67 35.9302 24.9611 35.8708 25.251Q35.7099 26.037 35.4728 26.7993C35.3159 27.3035 35.134 27.7998 34.9272 28.2884C34.7566 28.6916 34.5702 29.0866 34.368 29.4733C34.087 30.0107 33.7756 30.5322 33.4338 31.0378C33.1694 31.4289 32.8892 31.8071 32.5929 32.1724C32.2367 32.6117 31.8574 33.0322 31.4553 33.4341C31.2968 33.5925 31.2175 33.7963 31.2175 34.0001C31.2175 34.2036 31.2966 34.4071 31.4548 34.5655C31.7715 34.8824 32.2694 34.8826 32.5863 34.5659C33.0249 34.1275 33.4387 33.6689 33.8276 33.19C34.156 32.7857 34.4666 32.367 34.7594 31.9339C35.1298 31.386 35.4678 30.821 35.7732 30.239C36.0004 29.8061 36.2095 29.3638 36.4008 28.9121C36.6279 28.3752 36.8278 27.8299 37.0001 27.2759C37.1742 26.7166 37.3202 26.1487 37.4384 25.5719C37.5084 25.2298 37.5682 24.8862 37.6179 24.5411C37.7393 23.6988 37.7999 22.8477 37.7999 21.9878C37.7999 21.1279 37.7393 20.2768 37.6179 19.4344C37.5682 19.0893 37.5083 18.7458 37.4384 18.4037C37.3202 17.8268 37.1741 17.2587 37 16.6993C36.8276 16.1455 36.6279 15.6003 36.4008 15.0636C36.2097 14.6123 36.0009 14.1705 35.7739 13.7381C35.4683 13.1556 35.1301 12.5901 34.7594 12.0417C34.4666 11.6086 34.1559 11.1898 33.8275 10.7855C33.4387 10.3067 33.0249 9.84808 32.5863 9.40973C32.1543 8.97806 31.7026 8.5705 31.2313 8.18707C30.8199 7.85239 30.3937 7.5361 29.9524 7.23822C29.4092 6.87143 28.8491 6.53653 28.2723 6.23355C27.8341 6.00333 27.3861 5.7915 26.9286 5.59811C26.3951 5.37265 25.8533 5.17419 25.303 5.00281C24.7395 4.82733 24.1674 4.68018 23.5863 4.56137C23.2457 4.49173 22.9037 4.43213 22.5602 4.38263C21.7156 4.26089 20.8622 4.20001 20 4.20001C19.1381 4.20001 18.285 4.26083 17.4407 4.38251C17.0968 4.43204 16.7545 4.49167 16.4136 4.56137C15.8328 4.68011 15.2609 4.82721 14.6976 5.00256L14.6971 5.00274Q13.8715 5.2599 13.0713 5.59811C12.6134 5.79166 12.1652 6.00363 11.7267 6.23404C11.1501 6.53693 10.5905 6.87164 10.0475 7.23822C9.60669 7.5358 9.18079 7.85169 8.7699 8.18597C8.2981 8.5697 7.84607 8.97763 7.4137 9.40973C6.97559 9.84747 6.56238 10.3054 6.17407 10.7834C5.84509 11.1884 5.53394 11.6078 5.24048 12.0417C4.86987 12.59 4.53174 13.1554 4.22607 13.7379Q3.88568 14.3866 3.59912 15.0636C3.3717 15.601 3.17175 16.1469 2.99927 16.7014C2.82544 17.2601 2.67957 17.8276 2.56165 18.4037C2.49146 18.7464 2.4314 19.0905 2.38171 19.4362C2.2605 20.278 2.19995 21.1285 2.19995 21.9878C2.19995 22.847 2.2605 23.6974 2.38171 24.5392C2.4314 24.8849 2.49146 25.2292 2.56165 25.5719C2.67957 26.148 2.82544 26.7154 2.99915 27.274C3.17163 27.8286 3.3717 28.3746 3.59912 28.9121C3.79016 29.3633 3.99915 29.8051 4.22595 30.2376C4.53162 30.8201 4.86975 31.3855 5.24048 31.9339C5.53357 32.3673 5.84436 32.7863 6.17285 33.1908ZM20.8 7.99997C20.8 7.55197 20.448 7.19998 20 7.19998C19.552 7.19998 19.2001 7.55197 19.2001 7.99997L19.2001 10.6C19.2001 11.048 19.552 11.4 20 11.4C20.448 11.4 20.8 11.048 20.8 10.6L20.8 7.99997ZM9.43433 12.5657L11.2728 14.4042C11.5896 14.7209 12.0874 14.7209 12.4042 14.4042C12.5626 14.2458 12.6418 14.0421 12.6418 13.8385C12.6418 13.6348 12.5626 13.4312 12.4042 13.2728L10.5657 11.4343C10.2489 11.1175 9.7511 11.1175 9.43433 11.4343C9.27594 11.5927 9.19675 11.7964 9.19675 12C9.19675 12.2036 9.27594 12.4073 9.43433 12.5657ZM28.8485 14.4042L30.687 12.5657C30.8454 12.4073 30.9246 12.2036 30.9246 12C30.9246 11.7964 30.8454 11.5927 30.687 11.4343C30.3702 11.1175 29.8724 11.1175 29.5557 11.4343L27.7172 13.2728C27.5588 13.4312 27.4796 13.6348 27.4796 13.8385C27.4796 14.0421 27.5588 14.2458 27.7172 14.4042C28.0339 14.7209 28.5317 14.7209 28.8485 14.4042ZM22.8318 27.0919C22.8335 27.0523 22.8343 27.0127 22.8343 26.973C22.8343 26.7794 22.814 26.5848 22.7733 26.3894L20.8833 17.3172C20.8593 17.2022 20.8175 17.0988 20.7578 17.0071C20.7019 16.9211 20.6302 16.8453 20.5428 16.7797C20.4646 16.7209 20.3816 16.6765 20.2936 16.6464C20.201 16.6148 20.1033 16.599 20 16.599C19.8967 16.599 19.799 16.6148 19.7064 16.6464C19.6184 16.6765 19.5353 16.7209 19.4572 16.7797C19.3698 16.8453 19.2981 16.9211 19.2422 17.0071C19.1825 17.0988 19.1407 17.2022 19.1167 17.3172L17.2267 26.3894C17.186 26.5848 17.1657 26.7794 17.1657 26.973C17.1657 27.0127 17.1665 27.0523 17.1682 27.0919C17.1765 27.2838 17.2048 27.4748 17.2533 27.665C17.3016 27.8546 17.3677 28.0354 17.4518 28.2076C17.546 28.4009 17.6628 28.5831 17.8021 28.7544C17.9414 28.9257 18.0959 29.0772 18.266 29.2089C18.4174 29.3262 18.5809 29.4279 18.7567 29.5138C18.933 29.6 19.1141 29.6667 19.3003 29.714C19.5262 29.7713 19.7595 29.8 20 29.8C20.2405 29.8 20.4738 29.7713 20.6997 29.714C20.8859 29.6667 21.067 29.6 21.2433 29.5138C21.4191 29.4279 21.5826 29.3262 21.734 29.2089C21.9041 29.0772 22.0586 28.9257 22.1979 28.7544C22.3372 28.5831 22.454 28.4009 22.5482 28.2076C22.6322 28.0355 22.6984 27.8546 22.7467 27.665C22.7952 27.4748 22.8235 27.2838 22.8318 27.0919ZM6 21.65L8.59998 21.65C9.04797 21.65 9.3999 21.298 9.3999 20.85C9.3999 20.402 9.04797 20.05 8.59998 20.05L6 20.05C5.552 20.05 5.19995 20.402 5.19995 20.85C5.19995 21.298 5.552 21.65 6 21.65ZM31 21.65L33.6 21.65C34.048 21.65 34.3999 21.298 34.3999 20.85C34.3999 20.402 34.048 20.05 33.6 20.05L31 20.05C30.552 20.05 30.2 20.402 30.2 20.85C30.2 21.298 30.552 21.65 31 21.65ZM20 20.9225L21.2069 26.7157C21.2249 26.8018 21.2338 26.8872 21.2338 26.972C21.2338 27.0003 21.2328 27.0284 21.2308 27.0565C21.2257 27.1282 21.2142 27.1994 21.1962 27.2701C21.1769 27.3459 21.1509 27.4187 21.1183 27.4883C21.0757 27.5792 21.0217 27.6647 20.9565 27.745C20.8912 27.8252 20.8186 27.8954 20.7383 27.9556C20.6768 28.0018 20.6108 28.042 20.5405 28.0764C20.475 28.1085 20.4076 28.1343 20.3385 28.1539C20.23 28.1846 20.1172 28.2 20 28.2C19.8828 28.2 19.7699 28.1846 19.6615 28.1539C19.5924 28.1343 19.525 28.1085 19.4595 28.0764C19.3892 28.0421 19.3232 28.0018 19.2617 27.9556C19.1814 27.8954 19.1088 27.8252 19.0435 27.745C18.9783 27.6647 18.9243 27.5792 18.8817 27.4883C18.8491 27.4187 18.8231 27.3459 18.8038 27.2701C18.7858 27.1994 18.7743 27.1282 18.7692 27.0565C18.7672 27.0284 18.7662 27.0003 18.7662 26.972C18.7662 26.8872 18.7751 26.8018 18.7931 26.7157L20 20.9225Z" fill="rgb(128,128,128)" fill-rule="evenodd" />
</svg>
