<svg
	viewBox="0 0 16 16"
	xmlns="http://www.w3.org/2000/svg"
	xmlns:xlink="http://www.w3.org/1999/xlink"
	width="16.000000"
	height="16.000000"
	fill="none"
>
	<rect
		id="出码"
		width="16.000000"
		height="16.000000"
		x="0.000000"
		y="0.000000"
		fill="rgb(255,255,255)"
		fill-opacity="0"
	/>
	<path
		id="矢量 679"
		d="M15 3.5C15 2.39844 14.1045 1.5 13 1.5L3 1.5C1.89551 1.5 1 2.39844 1 3.5L1 12.5C1 13.6016 1.89551 14.5 3 14.5L13 14.5C14.1045 14.5 15 13.6016 15 12.5L15 3.5ZM3 2.5L13 2.5C13.0825 2.5 13.1628 2.50781 13.2407 2.53125C13.2913 2.53906 13.3406 2.55469 13.3889 2.57812C13.4414 2.60156 13.4912 2.625 13.5383 2.65625C13.5989 2.69531 13.655 2.74219 13.707 2.78906C13.759 2.84375 13.8044 2.89844 13.8433 2.96094C13.8735 3.00781 13.8997 3.0625 13.9219 3.10938C13.9424 3.15625 13.9587 3.21094 13.9712 3.25781C13.9905 3.33594 14 3.41406 14 3.5L14 12.5C14 12.5859 13.9905 12.6641 13.9712 12.7422C13.9587 12.7891 13.9424 12.8438 13.9219 12.8906C13.8997 12.9375 13.8735 12.9922 13.8433 13.0391C13.8044 13.1016 13.759 13.1562 13.707 13.2109C13.655 13.2578 13.5989 13.3047 13.5383 13.3438C13.4912 13.375 13.4414 13.3984 13.3889 13.4219C13.3406 13.4453 13.2913 13.4609 13.2407 13.4688C13.1628 13.4922 13.0825 13.5 13 13.5L3 13.5C2.91748 13.5 2.83716 13.4922 2.75928 13.4688C2.70874 13.4609 2.65942 13.4453 2.61108 13.4219C2.55859 13.3984 2.50879 13.375 2.46167 13.3438C2.40112 13.3047 2.34497 13.2578 2.29297 13.2109C2.24097 13.1562 2.19556 13.1016 2.15674 13.0391C2.12646 12.9922 2.10034 12.9375 2.07812 12.8906C2.05762 12.8438 2.04126 12.7891 2.02881 12.7422C2.00952 12.6641 2 12.5859 2 12.5L2 3.5C2 3.41406 2.00952 3.33594 2.02881 3.25781C2.04126 3.21094 2.05762 3.15625 2.07812 3.10938C2.10034 3.0625 2.12646 3.00781 2.15674 2.96094C2.19556 2.89844 2.24097 2.84375 2.29297 2.78906C2.34497 2.74219 2.40112 2.69531 2.46167 2.65625C2.50879 2.625 2.55859 2.60156 2.61108 2.57812C2.65942 2.55469 2.70874 2.53906 2.75928 2.53125C2.83716 2.50781 2.91748 2.5 3 2.5ZM9.47437 5.16406C9.56299 4.89844 9.42383 4.61719 9.1582 4.53125C8.89258 4.4375 8.61426 4.57812 8.52588 4.84375L6.52588 10.8438C6.43726 11.1094 6.57642 11.3906 6.84204 11.4766C7.10767 11.5703 7.38599 11.4297 7.47437 11.1641L9.47437 5.16406ZM5.85352 6.85938L4.70728 8L5.85352 9.14844C6.05151 9.34375 6.05151 9.65625 5.85352 9.85938C5.65576 10.0547 5.34448 10.0547 5.14648 9.85938L3.71729 8.42969C3.65869 8.36719 3.61475 8.30469 3.58545 8.23438Q3.5415 8.12891 3.5415 8C3.5415 7.92188 3.55615 7.84375 3.58545 7.77344C3.61475 7.70312 3.65869 7.63281 3.71729 7.57812L5.14648 6.14844C5.34448 5.95312 5.65576 5.95312 5.85352 6.14844C6.05151 6.34375 6.05151 6.65625 5.85352 6.85938ZM11.2927 8L10.1465 6.85938C9.94849 6.65625 9.94849 6.34375 10.1465 6.14844C10.3442 5.95312 10.6555 5.95312 10.8535 6.14844L12.2827 7.57812C12.3413 7.63281 12.3853 7.70312 12.4146 7.77344C12.4438 7.84375 12.4585 7.92188 12.4585 8Q12.4585 8.12891 12.4146 8.23438C12.3853 8.30469 12.3413 8.36719 12.2827 8.42969L10.8535 9.85938C10.6555 10.0547 10.3442 10.0547 10.1465 9.85938C9.94849 9.65625 9.94849 9.34375 10.1465 9.14844L11.2927 8Z"
		fill="currentColor"
		fill-rule="evenodd"
	/>
</svg>
