<svg viewBox="0 0 30 30" xmlns="http://www.w3.org/2000/svg" xmlns:xlink="http://www.w3.org/1999/xlink" width="30.000000" height="30.000000" fill="none" customFrame="#000000">
	<g id="github">
		<rect id="矩形 7945" width="30.000000" height="30.000000" x="0.000000" y="0.000000" fill="rgb(255,255,255)" fill-opacity="0" />
		<path id="path" d="M15.0016 1.3999C7.26567 1.39678 1 7.65932 1 15.389C1 21.5013 4.91956 26.6972 10.3782 28.6054C11.1133 28.7899 11.0007 28.2675 11.0007 27.9109L11.0007 25.4866C6.75578 25.984 6.58373 23.1749 6.29907 22.7057C5.72349 21.7234 4.36275 21.4732 4.76941 21.004C5.73601 20.5066 6.72137 21.1291 7.86314 22.8152C8.68897 24.0383 10.3 23.8318 11.1164 23.6285C11.2947 22.8934 11.6763 22.2365 12.2019 21.7266C7.80371 20.9383 5.97062 18.2543 5.97062 15.0636C5.97062 13.5152 6.48051 12.0919 7.48151 10.9439C6.84337 9.05134 7.54095 7.43096 7.63479 7.1901C9.45224 7.02743 11.3416 8.4914 11.4887 8.60714C12.5209 8.32874 13.7003 8.18172 15.0203 8.18172C16.3467 8.18172 17.5291 8.335 18.5708 8.61653C18.9243 8.34751 20.676 7.08999 22.3652 7.24327C22.4559 7.48414 23.1379 9.06698 22.5373 10.9345C23.5508 12.0856 24.0669 13.5215 24.0669 15.073C24.0669 18.27 22.2213 20.957 17.8106 21.7328C18.5457 22.4586 19.0025 23.4658 19.0025 24.5794L19.0025 28.0986C19.0275 28.3801 19.0025 28.6585 19.4717 28.6585C25.0116 26.791 29 21.5577 29 15.3921C29 7.65932 22.7312 1.3999 15.0016 1.3999Z" fill="rgb(25,25,25)" fill-rule="nonzero" />
	</g>
</svg>
