<svg viewBox="0 0 40 40" xmlns="http://www.w3.org/2000/svg" xmlns:xlink="http://www.w3.org/1999/xlink" width="40.000000" height="40.000000" fill="none">
	<rect id="拓扑图" width="40.000000" height="40.000000" x="0.000000" y="0.000000" />
	<path id="矢量 719" d="M22.6 4.5C23.9255 4.5 25 5.57452 25 6.89999L25 12.1C25 13.4255 23.9255 14.5 22.6 14.5L20.8 14.5L20.8 18.7L31.7999 18.7C32.2065 18.7 32.5958 18.7787 32.9679 18.9361C33.1393 19.0086 33.3013 19.0953 33.4539 19.1962C33.621 19.3066 33.7767 19.4341 33.9213 19.5787C34.0658 19.7232 34.1934 19.879 34.3038 20.0461C34.4047 20.1987 34.4913 20.3607 34.5638 20.532C34.6364 20.7034 34.6921 20.8785 34.7312 21.0572C34.7771 21.2664 34.7999 21.4807 34.7999 21.7L34.7999 25.5L35.6 25.5C36.9255 25.5 38 26.5745 38 27.9L38 33.1C38 34.4255 36.9255 35.5 35.6 35.5L30.4 35.5C29.0745 35.5 28 34.4255 28 33.1L28 27.9C28 26.5745 29.0745 25.5 30.4 25.5L33.2 25.5L33.2 21.7C33.2 21.5098 33.1633 21.3282 33.0902 21.1553C33.0583 21.0797 33.0204 21.0081 32.9764 20.9402C32.9231 20.8578 32.861 20.7811 32.7899 20.7101C32.6605 20.5806 32.5121 20.4805 32.3446 20.4097Q32.2456 20.3678 32.1425 20.3418L32.1423 20.3418Q32.1334 20.3396 32.1245 20.3375C32.0193 20.3125 31.9111 20.3 31.7999 20.3L20.8 20.3L20.8 25.5L22.6 25.5C23.9255 25.5 25 26.5745 25 27.9L25 33.1C25 34.4255 23.9255 35.5 22.6 35.5L17.4 35.5C16.0745 35.5 15 34.4255 15 33.1L15 27.9C15 26.5745 16.0745 25.5 17.4 25.5L19.2001 25.5L19.2001 20.3L9.19995 20.3C9.08875 20.3 8.98059 20.3125 8.87537 20.3375Q8.76312 20.3641 8.65527 20.4097C8.57971 20.4417 8.50793 20.4796 8.44006 20.5236C8.35767 20.5769 8.28101 20.6391 8.20996 20.7101C8.13904 20.7811 8.07678 20.8578 8.02344 20.9402C7.97961 21.008 7.94165 21.0797 7.90967 21.1553C7.87927 21.2272 7.8551 21.3006 7.8374 21.3754C7.81238 21.4807 7.79993 21.5889 7.79993 21.7L7.79993 25.5L9.59998 25.5C10.9255 25.5 12 26.5745 12 27.9L12 33.1C12 34.4255 10.9255 35.5 9.59998 35.5L4.40002 35.5C3.07446 35.5 2 34.4255 2 33.1L2 27.9C2 26.5745 3.07446 25.5 4.40002 25.5L6.19995 25.5L6.19995 21.7C6.19995 21.4807 6.2229 21.2665 6.26868 21.0573C6.30774 20.8785 6.36353 20.7035 6.43604 20.532C6.50854 20.3607 6.59521 20.1987 6.69617 20.0461C6.80664 19.879 6.93408 19.7232 7.07861 19.5787C7.22314 19.4342 7.37891 19.3067 7.54602 19.1962L7.5468 19.1957L7.54682 19.1957Q7.77535 19.0446 8.03198 18.9361C8.20337 18.8636 8.37842 18.8078 8.55713 18.7687C8.76648 18.7229 8.98071 18.7 9.19995 18.7L19.2001 18.7L19.2001 14.5L17.4 14.5C16.0745 14.5 15 13.4255 15 12.1L15 6.89999C15 5.57452 16.0745 4.5 17.4 4.5L22.6 4.5ZM22.6 6.10001L17.4 6.10001C17.2896 6.10001 17.1871 6.11954 17.0929 6.15857C16.9987 6.19763 16.9125 6.2562 16.8344 6.33432C16.7562 6.41241 16.6976 6.49863 16.6586 6.5929C16.6195 6.68716 16.6 6.78955 16.6 6.89999L16.6 12.1C16.6 12.2104 16.6195 12.3128 16.6586 12.4071C16.6976 12.5014 16.7562 12.5876 16.8344 12.6657C16.9125 12.7438 16.9987 12.8024 17.0929 12.8414C17.1871 12.8805 17.2896 12.9 17.4 12.9L22.6 12.9C22.7104 12.9 22.8129 12.8805 22.9071 12.8414C23.0013 12.8024 23.0875 12.7438 23.1656 12.6657C23.2438 12.5876 23.3024 12.5014 23.3414 12.4071C23.3805 12.3128 23.4 12.2104 23.4 12.1L23.4 6.89999C23.4 6.78955 23.3805 6.68716 23.3414 6.5929C23.3024 6.4986 23.2438 6.41241 23.1656 6.33432C23.0875 6.2562 23.0013 6.19763 22.9071 6.15857C22.8129 6.11954 22.7104 6.10001 22.6 6.10001ZM4.40002 27.1C4.28955 27.1 4.18713 27.1195 4.0929 27.1586C3.99866 27.1976 3.91248 27.2562 3.83435 27.3343C3.75623 27.4124 3.69763 27.4986 3.65857 27.5929C3.61951 27.6872 3.59998 27.7896 3.59998 27.9L3.59998 33.1C3.59998 33.2104 3.61951 33.3128 3.65857 33.4071C3.69763 33.5014 3.75623 33.5876 3.83435 33.6657C3.91248 33.7438 3.99866 33.8024 4.0929 33.8414C4.18713 33.8805 4.28955 33.9 4.40002 33.9L9.59998 33.9C9.71045 33.9 9.81287 33.8805 9.9071 33.8414C10.0013 33.8024 10.0875 33.7438 10.1656 33.6657C10.2438 33.5876 10.3024 33.5014 10.3414 33.4071C10.3805 33.3128 10.4 33.2104 10.4 33.1L10.4 27.9C10.4 27.7896 10.3805 27.6872 10.3414 27.5929C10.3024 27.4986 10.2438 27.4124 10.1656 27.3343C10.0875 27.2562 10.0013 27.1976 9.9071 27.1586C9.81287 27.1195 9.71045 27.1 9.59998 27.1L4.40002 27.1ZM17.0929 27.1586C17.1871 27.1195 17.2896 27.1 17.4 27.1L22.6 27.1C22.7104 27.1 22.8129 27.1195 22.9071 27.1586C23.0013 27.1976 23.0875 27.2562 23.1656 27.3343C23.2438 27.4124 23.3024 27.4986 23.3414 27.5929C23.3805 27.6872 23.4 27.7896 23.4 27.9L23.4 33.1C23.4 33.2104 23.3805 33.3128 23.3414 33.4071C23.3024 33.5014 23.2438 33.5876 23.1656 33.6657C23.0875 33.7438 23.0013 33.8024 22.9071 33.8414C22.8129 33.8805 22.7104 33.9 22.6 33.9L17.4 33.9C17.2896 33.9 17.1871 33.8805 17.0929 33.8414C16.9987 33.8024 16.9125 33.7438 16.8344 33.6657C16.7562 33.5876 16.6976 33.5014 16.6586 33.4071C16.6195 33.3128 16.6 33.2104 16.6 33.1L16.6 27.9C16.6 27.7896 16.6195 27.6872 16.6586 27.5929C16.6976 27.4986 16.7562 27.4124 16.8344 27.3343C16.9125 27.2562 16.9987 27.1976 17.0929 27.1586ZM35.6 27.1L30.4 27.1C30.2896 27.1 30.1871 27.1195 30.0929 27.1586C29.9987 27.1976 29.9125 27.2562 29.8344 27.3343C29.7562 27.4124 29.6976 27.4986 29.6586 27.5929C29.6195 27.6872 29.6 27.7896 29.6 27.9L29.6 33.1C29.6 33.2104 29.6195 33.3128 29.6586 33.4071C29.6976 33.5014 29.7562 33.5876 29.8344 33.6657C29.9125 33.7438 29.9987 33.8024 30.0929 33.8414C30.1871 33.8805 30.2896 33.9 30.4 33.9L35.6 33.9C35.7104 33.9 35.8129 33.8805 35.9071 33.8414C36.0013 33.8024 36.0875 33.7438 36.1656 33.6657C36.2438 33.5876 36.3024 33.5014 36.3414 33.4071C36.3805 33.3128 36.4 33.2104 36.4 33.1L36.4 27.9C36.4 27.7896 36.3805 27.6872 36.3414 27.5929C36.3024 27.4986 36.2438 27.4124 36.1656 27.3343C36.0875 27.2562 36.0013 27.1976 35.9071 27.1586C35.8129 27.1195 35.7104 27.1 35.6 27.1Z" fill="currentColor" fill-rule="evenodd" />
</svg>
