<svg viewBox="0 0 40 40" xmlns="http://www.w3.org/2000/svg" xmlns:xlink="http://www.w3.org/1999/xlink" width="40.000000" height="40.000000" fill="none">
	<rect id="表格" width="40.000000" height="40.000000" x="0.000000" y="0.000000" fill="rgb(255,255,255)" fill-opacity="0" />
	<path id="矢量 524" d="M32.38 4C34.1721 4 35.0682 4 35.7528 4.34879C36.3549 4.65558 36.8445 5.14511 37.1512 5.74722C37.5 6.43173 37.5 7.32782 37.5 9.12L37.5 30.88C37.5 32.6722 37.5 33.5683 37.1512 34.2528C36.8445 34.8549 36.3549 35.3444 35.7528 35.6512C35.0682 36 34.1721 36 32.38 36L7.62 36C5.82788 36 4.93176 36 4.24719 35.6512C3.64514 35.3444 3.15552 34.8549 2.84875 34.2528C2.5 33.5683 2.5 32.6722 2.5 30.88L2.5 9.12C2.5 7.32784 2.5 6.43175 2.84875 5.74722C3.15552 5.14511 3.64514 4.65558 4.24719 4.34879C4.93176 4 5.82788 4 7.62 4L32.38 4ZM32.38 5.60001L7.62 5.60001C7.06836 5.60001 6.68115 5.60175 6.45837 5.60526C6.12366 5.61052 5.85364 5.62152 5.64856 5.63829C5.32471 5.66473 5.09973 5.71011 4.97363 5.77438C4.81921 5.85306 4.68372 5.95067 4.56726 6.0672C4.45068 6.18375 4.35303 6.31921 4.27441 6.47362C4.21008 6.59978 4.16479 6.82475 4.13831 7.14854C4.12158 7.35367 4.11047 7.6236 4.10522 7.95834C4.10181 8.18111 4.09998 8.56833 4.09998 9.12L4.09998 14.45L35.9 14.45L35.9 9.12C35.9 8.56851 35.8982 8.18129 35.8948 7.95833C35.8895 7.62355 35.8784 7.35362 35.8617 7.14853C35.8352 6.82475 35.7899 6.59978 35.7256 6.47362C35.647 6.3192 35.5493 6.18372 35.4327 6.06715C35.3162 5.95064 35.1808 5.85306 35.0264 5.77438C34.9003 5.71011 34.6753 5.66473 34.3514 5.63829C34.1464 5.62152 33.8763 5.61052 33.5416 5.60526C33.3188 5.60175 32.9316 5.60001 32.38 5.60001ZM20.7999 16.05L20.7999 24.4505L35.9 24.451L35.9 16.05L20.7999 16.05ZM19.2 16.05L19.2 24.4505L4.09998 24.45L4.09998 16.05L19.2 16.05ZM19.2 26.0505L4.09998 26.05L4.09998 30.88C4.09998 31.4317 4.10181 31.8189 4.10522 32.0417C4.11047 32.3764 4.12158 32.6463 4.13831 32.8515C4.16479 33.1752 4.21008 33.4002 4.27441 33.5264C4.35303 33.6808 4.45068 33.8163 4.56726 33.9328C4.68372 34.0493 4.81921 34.1469 4.97363 34.2256C5.09973 34.2899 5.32471 34.3353 5.64856 34.3617C5.85364 34.3785 6.12366 34.3895 6.45837 34.3947C6.68103 34.3983 7.06824 34.4 7.62 34.4L19.2 34.4L19.2 26.0505ZM20.7999 34.4L32.38 34.4C32.9318 34.4 33.319 34.3983 33.5416 34.3947C33.8763 34.3895 34.1464 34.3785 34.3514 34.3617C34.6753 34.3353 34.9003 34.2899 35.0264 34.2256C35.1808 34.1469 35.3163 34.0493 35.4327 33.9328C35.5493 33.8163 35.647 33.6808 35.7256 33.5264C35.7899 33.4002 35.8352 33.1752 35.8617 32.8515C35.8784 32.6464 35.8895 32.3764 35.8948 32.0417C35.8982 31.8187 35.9 31.4315 35.9 30.88L35.9 26.051L20.7999 26.0505L20.7999 34.4Z" fill="currentColor" fill-rule="evenodd" />
</svg>
