<?xml version="1.0" encoding="utf-8"?>
<!-- Generator: Adobe Illustrator 26.0.2, SVG Export Plug-In . SVG Version: 6.00 Build 0)  -->
<svg version="1.1" id="图层_1" xmlns="http://www.w3.org/2000/svg" xmlns:xlink="http://www.w3.org/1999/xlink" x="0px" y="0px"
	 viewBox="0 0 48 48" style="enable-background:new 0 0 48 48;" xml:space="preserve">
<style type="text/css">
	.st0{fill-rule:evenodd;clip-rule:evenodd;fill:currentColor;}
</style>
<desc>Created with Pixso.</desc>
<path id="矢量_161" class="st0" d="M41.4,8.3C40.7,8,39.9,8,38.2,8H9.8C8.1,8,7.3,8,6.6,8.3c-0.6,0.3-1,0.8-1.3,1.3
	C5,10.3,5,11.1,5,12.8v23.4c0,1.7,0,2.5,0.3,3.2c0.3,0.6,0.8,1,1.3,1.3C7.3,41,8.1,41,9.8,41h28.4c1.7,0,2.5,0,3.2-0.3
	c0.6-0.3,1-0.8,1.3-1.3c0.3-0.6,0.3-1.5,0.3-3.2V12.8c0-1.7,0-2.5-0.3-3.2C42.4,9.1,41.9,8.6,41.4,8.3z M40.5,9.9
	c-0.3-0.1-0.6-0.1-1.3-0.1H8.7c-0.7,0-1,0-1.3,0.1C7.2,10,7,10.2,6.9,10.4c-0.1,0.3-0.1,0.6-0.1,1.3v5.9h34.4v-5.9
	c0-0.7,0-1-0.1-1.3C41,10.2,40.8,10,40.5,9.9z M19.4,19.4v8.7h10.2v-8.7H19.4z M17.6,19.4v8.7H6.8v-8.7H17.6z M17.6,29.9H6.8v7.4
	c0,0.7,0,1,0.1,1.3C7,38.8,7.2,39,7.4,39.1c0.3,0.1,0.6,0.1,1.3,0.1h8.9V29.9z M19.4,39.2h10.2v-9.3H19.4V39.2z M31.4,28.1v-8.7h9.8
	v8.7H31.4z M39.3,39.2h-7.9v-9.3h9.8v7.4c0,0.7,0,1-0.1,1.3c-0.1,0.2-0.3,0.4-0.5,0.5C40.3,39.2,40,39.2,39.3,39.2z"/>
</svg>
