<svg viewBox="0 0 40 40" xmlns="http://www.w3.org/2000/svg" xmlns:xlink="http://www.w3.org/1999/xlink" width="40.000000" height="40.000000" fill="none">
	<rect id="热力图" width="40.000000" height="40.000000" x="0.000000" y="0.000000" />
	<rect id="矩形 1431" width="4.000000" height="4.000000" x="5.000000" y="8.000000" rx="1.200000" fill="rgb(128,128,128)" />
	<rect id="矩形 1436" width="4.000000" height="4.000000" x="5.000000" y="18.000000" rx="1.200000" fill="rgb(128,128,128)" fill-opacity="0.400000006" />
	<rect id="矩形 1441" width="4.000000" height="4.000000" x="10.000000" y="23.000000" rx="1.200000" fill="rgb(128,128,128)" fill-opacity="0.200000003" />
	<rect id="矩形 1432" width="4.000000" height="4.000000" x="15.000000" y="13.000000" rx="1.200000" fill="rgb(128,128,128)" fill-opacity="0.800000012" />
	<rect id="矩形 1442" width="4.000000" height="4.000000" x="15.000000" y="23.000000" rx="1.200000" fill="rgb(128,128,128)" fill-opacity="0.400000006" />
	<rect id="矩形 1447" width="4.000000" height="4.000000" x="15.000000" y="28.000000" rx="1.200000" fill="rgb(128,128,128)" />
	<rect id="矩形 1433" width="4.000000" height="4.000000" x="20.000000" y="13.000000" rx="1.200000" fill="rgb(128,128,128)" fill-opacity="0.200000003" />
	<rect id="矩形 1438" width="4.000000" height="4.000000" x="20.000000" y="18.000000" rx="1.200000" fill="rgb(128,128,128)" fill-opacity="0.699999988" />
	<rect id="矩形 1443" width="4.000000" height="4.000000" x="20.000000" y="23.000000" rx="1.200000" fill="rgb(128,128,128)" fill-opacity="0.200000003" />
	<rect id="矩形 1448" width="4.000000" height="4.000000" x="20.000000" y="28.000000" rx="1.200000" fill="rgb(128,128,128)" fill-opacity="0.400000006" />
	<rect id="矩形 1439" width="4.000000" height="4.000000" x="25.000000" y="18.000000" rx="1.200000" fill="rgb(128,128,128)" fill-opacity="0.600000024" />
	<rect id="矩形 1444" width="4.000000" height="4.000000" x="25.000000" y="23.000000" rx="1.200000" fill="rgb(128,128,128)" />
	<rect id="矩形 1449" width="4.000000" height="4.000000" x="25.000000" y="28.000000" rx="1.200000" fill="rgb(128,128,128)" fill-opacity="0.600000024" />
	<rect id="矩形 1435" width="4.000000" height="4.000000" x="31.000000" y="5.000000" rx="1.200000" fill="rgb(128,128,128)" fill-opacity="0.699999988" />
	<rect id="矩形 1440" width="4.000000" height="4.000000" x="31.000000" y="10.000000" rx="1.200000" fill="rgb(128,128,128)" fill-opacity="0.300000012" />
	<rect id="矩形 1445" width="4.000000" height="4.000000" x="30.000000" y="23.000000" rx="1.200000" fill="rgb(128,128,128)" fill-opacity="0.200000003" />
	<path id="直线 9备份(边框)" d="M3.99995 34.8L36.5 34.8C36.948 34.8 37.2999 35.152 37.2999 35.6C37.2999 36.048 36.948 36.4 36.5 36.4L3.99995 36.4C3.55195 36.4 3.19995 36.048 3.19995 35.6C3.19995 35.152 3.55195 34.8 3.99995 34.8Z" fill="rgb(128,128,128)" fill-rule="evenodd" />
</svg>
