<svg viewBox="0 0 40 40" xmlns="http://www.w3.org/2000/svg" xmlns:xlink="http://www.w3.org/1999/xlink" width="40.000000" height="40.000000" fill="none">
	<rect id="柱状图" width="40.000000" height="40.000000" x="0.000000" y="0.000000" fill="rgb(255,255,255)" fill-opacity="0" />
	<path id="矢量 603" d="M12.3 28.5395C12.3 30.7487 10.5092 32.5395 8.30005 32.5395C6.09094 32.5395 4.30005 30.7487 4.30005 28.5395L4.30005 7.75C4.30005 5.54086 6.09094 3.75 8.30005 3.75C10.5092 3.75 12.3 5.54086 12.3 7.75L12.3 28.5395ZM10.7001 28.5395L10.7001 7.75C10.7001 7.55772 10.6783 7.37065 10.6348 7.18878Q10.5894 6.99876 10.5121 6.8163Q10.4309 6.62425 10.3196 6.45159L10.3184 6.44972C10.2266 6.30759 10.1195 6.17532 9.99707 6.05295C9.87476 5.93057 9.74243 5.82349 9.60034 5.73169L9.60034 5.73167Q9.5954 5.72849 9.59045 5.72532L9.59042 5.72531Q9.42125 5.61728 9.23376 5.53795C9.11206 5.4865 8.98792 5.44562 8.86121 5.4153C8.67944 5.37177 8.49231 5.35001 8.30005 5.35001C8.10779 5.35001 7.92065 5.37177 7.73889 5.41528L7.73889 5.4153C7.61218 5.44562 7.48804 5.4865 7.36633 5.53795Q7.17883 5.61729 7.00965 5.72532Q7.0047 5.72849 6.99976 5.73167C6.85767 5.82347 6.72534 5.93056 6.60303 6.05295C6.48059 6.17532 6.37354 6.30759 6.28174 6.44971C6.20703 6.56537 6.14246 6.68756 6.08801 6.8163C6.0365 6.93794 5.99561 7.0621 5.96533 7.1888C5.92175 7.37065 5.90002 7.55772 5.90002 7.75L5.90002 28.5395C5.90002 28.7318 5.92175 28.9188 5.96533 29.1006L5.96533 29.1007C5.99561 29.2274 6.0365 29.3516 6.08801 29.4732Q6.16968 29.6663 6.28174 29.8398C6.37354 29.9819 6.48059 30.1142 6.60303 30.2366C6.72534 30.359 6.85754 30.466 6.99976 30.5578L6.99976 30.5579C7.11548 30.6326 7.23767 30.6971 7.36633 30.7516C7.48804 30.8031 7.61218 30.8439 7.73889 30.8743C7.92078 30.9178 8.10779 30.9395 8.30005 30.9395C8.49231 30.9395 8.67944 30.9178 8.86133 30.8742C8.98792 30.8439 9.11218 30.803 9.23376 30.7516C9.36243 30.6971 9.48462 30.6326 9.60034 30.5579C9.74243 30.4661 9.87476 30.359 9.99707 30.2366C10.1195 30.1142 10.2266 29.9819 10.3184 29.8398Q10.4304 29.6663 10.5121 29.4732C10.5636 29.3516 10.6045 29.2274 10.6348 29.1007C10.6783 28.9189 10.7001 28.7318 10.7001 28.5395ZM20.1653 32.54C22.3744 32.54 24.1653 30.7491 24.1653 28.54L24.1653 15.5015C24.1653 13.2923 22.3744 11.5015 20.1653 11.5015C17.9562 11.5015 16.1653 13.2923 16.1653 15.5015L16.1653 28.54C16.1653 30.7491 17.9562 32.54 20.1653 32.54ZM22.5653 15.5015L22.5653 28.54C22.5653 28.7323 22.5436 28.9193 22.5 29.1012C22.4697 29.2279 22.4288 29.352 22.3773 29.4737Q22.2961 29.6657 22.1848 29.8384L22.1836 29.8403C22.0918 29.9824 21.9847 30.1147 21.8623 30.237C21.74 30.3594 21.6078 30.4665 21.4656 30.5583Q21.2922 30.6703 21.099 30.752C20.9773 30.8035 20.8531 30.8444 20.7264 30.8747C20.5446 30.9182 20.3575 30.94 20.1653 30.94C19.973 30.94 19.786 30.9182 19.6041 30.8747C19.4774 30.8444 19.3533 30.8035 19.2316 30.752C19.1029 30.6976 18.9807 30.633 18.865 30.5583L18.865 30.5583C18.7228 30.4665 18.5906 30.3594 18.4683 30.237C18.3458 30.1147 18.2388 29.9824 18.147 29.8403L18.1458 29.8384Q18.0345 29.6657 17.9532 29.4737C17.9017 29.352 17.8608 29.2279 17.8306 29.1012L17.8306 29.101C17.787 28.9192 17.7653 28.7322 17.7653 28.54L17.7653 15.5015C17.7653 15.3092 17.787 15.1221 17.8306 14.9403C17.8608 14.8136 17.9017 14.6894 17.9532 14.5678C18.0077 14.439 18.0723 14.3168 18.147 14.2012C18.2388 14.0591 18.3458 13.9268 18.4683 13.8044C18.5906 13.682 18.7229 13.5749 18.865 13.4831Q18.8699 13.4799 18.8749 13.4768Q19.0441 13.3688 19.2316 13.2894C19.3533 13.238 19.4774 13.1971 19.6041 13.1668C19.7859 13.1232 19.973 13.1015 20.1653 13.1015C20.3575 13.1015 20.5447 13.1232 20.7264 13.1668C20.8531 13.1971 20.9773 13.238 21.099 13.2894Q21.2865 13.3688 21.4557 13.4768Q21.4606 13.4799 21.4656 13.4831C21.6077 13.575 21.74 13.682 21.8623 13.8044C21.9847 13.9268 22.0918 14.0591 22.1836 14.2012L22.1848 14.2031Q22.2961 14.3757 22.3773 14.5678Q22.4546 14.7502 22.5 14.9402C22.5436 15.1221 22.5653 15.3092 22.5653 15.5015ZM4 35.45L36.5 35.45C36.948 35.45 37.2999 35.802 37.2999 36.25C37.2999 36.698 36.948 37.05 36.5 37.05L4 37.05C3.552 37.05 3.19995 36.698 3.19995 36.25C3.19995 35.802 3.552 35.45 4 35.45Z" fill="currentColor" fill-rule="evenodd" />
	<path id="矩形 492(边框)" d="M36 28.5404C36 30.7495 34.2091 32.5404 32 32.5404C29.7909 32.5404 28 30.7495 28 28.5404L28 23.2529C28 21.0438 29.7909 19.2529 32 19.2529C34.2091 19.2529 36 21.0438 36 23.2529L36 28.5404ZM34.4 28.5404L34.4 23.2529C34.4 23.0606 34.3782 22.8736 34.3347 22.6917C34.3044 22.565 34.2635 22.4409 34.2121 22.3192C34.1576 22.1905 34.093 22.0683 34.0183 21.9527C33.9265 21.8105 33.8194 21.6783 33.6971 21.5559C33.5747 21.4335 33.4424 21.3264 33.3003 21.2346L33.3003 21.2346C33.1846 21.1599 33.0624 21.0953 32.9337 21.0409C32.8121 20.9894 32.6879 20.9485 32.5612 20.9182C32.3793 20.8747 32.1923 20.8529 32 20.8529C31.8077 20.8529 31.6207 20.8747 31.4388 20.9182L31.4388 20.9182C31.3121 20.9485 31.1879 20.9894 31.0663 21.0409C30.9376 21.0953 30.8154 21.1599 30.6997 21.2346C30.5576 21.3264 30.4253 21.4335 30.3029 21.5559C30.1806 21.6783 30.0735 21.8105 29.9817 21.9526C29.907 22.0683 29.8424 22.1905 29.7879 22.3192C29.7365 22.4409 29.6956 22.565 29.6653 22.6917C29.6218 22.8736 29.6 23.0607 29.6 23.2529L29.6 28.5404C29.6 28.7327 29.6218 28.9197 29.6653 29.1016C29.6956 29.2283 29.7365 29.3525 29.7879 29.4741C29.8424 29.6029 29.907 29.7251 29.9817 29.8407C30.0735 29.9829 30.1806 30.1151 30.3029 30.2375C30.4253 30.3598 30.5576 30.4669 30.6997 30.5587C30.8154 30.6334 30.9376 30.698 31.0663 30.7525C31.1879 30.8039 31.3121 30.8448 31.4388 30.8751C31.6206 30.9186 31.8077 30.9404 32 30.9404C32.1923 30.9404 32.3794 30.9186 32.5612 30.8751C32.6879 30.8448 32.8121 30.8039 32.9337 30.7525C33.0624 30.698 33.1846 30.6334 33.3003 30.5588L33.3003 30.5587C33.4424 30.4669 33.5747 30.3598 33.6971 30.2375C33.8194 30.1151 33.9265 29.9828 34.0183 29.8407C34.093 29.725 34.1576 29.6028 34.2121 29.4741C34.2635 29.3525 34.3044 29.2283 34.3347 29.1016C34.3782 28.9198 34.4 28.7327 34.4 28.5404Z" fill="currentColor" fill-rule="evenodd" />
</svg>
