<svg viewBox="0 0 40 40" xmlns="http://www.w3.org/2000/svg" xmlns:xlink="http://www.w3.org/1999/xlink" width="40.000000" height="40.000000" fill="none">
	<rect id="分割线" width="40.000000" height="40.000000" x="0.000000" y="0.000000" fill="rgb(255,255,255)" fill-opacity="0" />
	<path id="矢量 549" d="M4.80188 5L4.80188 12.5C4.80188 12.5966 4.81897 12.6862 4.85315 12.7687C4.88733 12.8512 4.9386 12.9266 5.00696 12.995C5.07532 13.0633 5.15063 13.1146 5.23315 13.1487C5.31567 13.1829 5.40527 13.2 5.50195 13.2L34.502 13.2C34.5985 13.2 34.6881 13.1829 34.7706 13.1487C34.8531 13.1146 34.9286 13.0633 34.9968 12.995C35.0652 12.9266 35.1165 12.8512 35.1506 12.7687C35.1848 12.6862 35.2019 12.5966 35.2019 12.5L35.2019 5C35.2019 4.552 35.554 4.2 36.002 4.2C36.45 4.2 36.8019 4.552 36.8019 5L36.8019 12.5C36.8019 12.6667 36.7847 12.8297 36.75 12.989C36.72 13.1273 36.677 13.2628 36.6208 13.3955Q36.537 13.5935 36.4203 13.7697L36.4202 13.7699C36.3358 13.8973 36.2385 14.0161 36.1283 14.1263C36.0179 14.2366 35.8992 14.3339 35.7719 14.4183C35.6543 14.4962 35.5295 14.563 35.3975 14.6189C35.2648 14.675 35.1292 14.7181 34.9908 14.7482C34.8315 14.7827 34.6686 14.8 34.502 14.8L5.50195 14.8C5.33521 14.8 5.17224 14.7827 5.01306 14.7482C4.87463 14.7181 4.73914 14.675 4.60645 14.6189C4.47437 14.5631 4.34949 14.4962 4.23206 14.4184C4.10461 14.3339 3.98584 14.2366 3.87561 14.1263C3.76526 14.0161 3.66797 13.8973 3.58362 13.7699C3.50574 13.6524 3.43884 13.5276 3.38293 13.3955C3.3269 13.2628 3.28381 13.1272 3.25378 12.9889C3.21924 12.8297 3.2019 12.6667 3.2019 12.5L3.2019 5C3.2019 4.552 3.55396 4.2 4.00195 4.2C4.44995 4.2 4.80188 4.552 4.80188 5ZM4 19.2L36.002 19.2C36.45 19.2 36.8019 19.552 36.8019 20C36.8019 20.448 36.45 20.8 36.002 20.8L4 20.8C3.552 20.8 3.19995 20.448 3.19995 20C3.19995 19.552 3.552 19.2 4 19.2ZM4.79602 27.5L4.79602 35C4.79602 35.448 4.44409 35.8 3.99609 35.8C3.5481 35.8 3.19604 35.448 3.19604 35L3.19604 27.5C3.19604 27.3333 3.21338 27.1703 3.24792 27.0111C3.27795 26.8728 3.32104 26.7372 3.37708 26.6045C3.43298 26.4724 3.49988 26.3476 3.57776 26.2301C3.66211 26.1027 3.7594 25.9839 3.86975 25.8737C3.97998 25.7634 4.09875 25.6661 4.2262 25.5816C4.34363 25.5038 4.46851 25.4369 4.60059 25.3811C4.73328 25.325 4.86877 25.2819 5.0072 25.2518C5.16638 25.2173 5.32935 25.2 5.49609 25.2L34.4961 25.2C34.6627 25.2 34.8257 25.2173 34.985 25.2518C35.1233 25.2819 35.2589 25.325 35.3916 25.3811C35.5237 25.437 35.6484 25.5038 35.766 25.5817C35.8933 25.6661 36.0121 25.7634 36.1224 25.8737C36.2327 25.9839 36.33 26.1027 36.4143 26.2301L36.4145 26.2303Q36.5312 26.4065 36.615 26.6045C36.6711 26.7372 36.7141 26.8727 36.7441 27.011C36.7788 27.1703 36.796 27.3333 36.796 27.5L36.796 35C36.796 35.448 36.4441 35.8 35.9961 35.8C35.5481 35.8 35.196 35.448 35.196 35L35.196 27.5C35.196 27.4034 35.179 27.3138 35.1448 27.2313C35.1106 27.1488 35.0593 27.0734 34.991 27.005C34.9227 26.9367 34.8473 26.8854 34.7648 26.8513C34.6823 26.8171 34.5927 26.8 34.4961 26.8L5.49609 26.8C5.39941 26.8 5.30981 26.8171 5.22729 26.8513C5.14478 26.8854 5.06946 26.9367 5.0011 27.005C4.93274 27.0734 4.88147 27.1488 4.84729 27.2313C4.81311 27.3138 4.79602 27.4034 4.79602 27.5Z" fill="currentColor" fill-rule="evenodd" />
</svg>
