<?xml version="1.0" encoding="utf-8"?>
<!-- Generator: Adobe Illustrator 26.0.2, SVG Export Plug-In . SVG Version: 6.00 Build 0)  -->
<svg version="1.1" id="图层_1" xmlns="http://www.w3.org/2000/svg" xmlns:xlink="http://www.w3.org/1999/xlink" x="0px" y="0px"
	 viewBox="0 0 48 48" style="enable-background:new 0 0 48 48;" xml:space="preserve">
<style type="text/css">
	.st0{fill-rule:evenodd;clip-rule:evenodd;fill:currentColor;}
</style>
<desc>Created with Pixso.</desc>
<path id="矢量_216" class="st0" d="M42,10c0-2.2-1.8-4-4-4H10c-2.2,0-4,1.8-4,4v28c0,2.2,1.8,4,4,4h28c2.2,0,4-1.8,4-4V10z
	 M40.2,10c0-1.2-1-2.2-2.2-2.2H10c-1.2,0-2.2,1-2.2,2.2v28c0,1.2,1,2.2,2.2,2.2h28c1.2,0,2.2-1,2.2-2.2V10z M32.2,31
	c0-0.3,0-0.7-0.2-1l-1.5-2.9c0.2-0.1,0.5-0.1,0.7-0.2c0.3-0.1,0.7-0.3,0.9-0.5c0.3-0.2,0.5-0.4,0.7-0.6c0.3-0.3,0.5-0.6,0.7-0.9
	c0.2-0.2,0.3-0.5,0.4-0.7c0.1-0.3,0.2-0.6,0.3-0.9c0.1-0.3,0.1-0.7,0.1-1.1c0-0.4,0-0.7-0.1-1.1c-0.1-0.3-0.2-0.6-0.3-0.9
	c-0.1-0.2-0.2-0.5-0.4-0.7c-0.2-0.3-0.4-0.6-0.7-0.9c-0.2-0.2-0.5-0.4-0.7-0.6c-0.3-0.2-0.6-0.4-0.9-0.5c-0.3-0.1-0.6-0.2-0.8-0.3
	C30,17.1,29.6,17,29.2,17c-0.4,0-0.9,0-1.3,0.1c-0.3,0.1-0.6,0.2-1,0.3c-0.4,0.2-0.7,0.4-1,0.6l-1.4-2.7c-0.2-0.3-0.4-0.6-0.7-0.8
	c-0.3-0.2-0.6-0.3-1-0.3c-0.4,0-0.7,0.1-1,0.3c-0.1,0.1-0.3,0.2-0.4,0.3c-0.1,0.1-0.2,0.3-0.4,0.5L13.9,30c-0.2,0.3-0.2,0.6-0.2,1
	c0,0.2,0,0.3,0.1,0.4l0,0c0,0.2,0.1,0.3,0.2,0.5c0.1,0.1,0.2,0.3,0.3,0.4c0,0,0,0,0,0c0.1,0.1,0.2,0.2,0.3,0.2
	c0.3,0.2,0.6,0.3,1,0.3h14.7c0.2,0,0.4,0,0.5-0.1c0.1,0,0.3-0.1,0.4-0.2c0.3-0.2,0.5-0.4,0.7-0.6C32.1,31.6,32.2,31.3,32.2,31z
	 M26.8,19.8l2.9,5.7c0.1,0,0.2,0,0.4-0.1c0.2,0,0.3-0.1,0.5-0.2c0.2-0.1,0.5-0.2,0.6-0.4c0.2-0.1,0.3-0.2,0.5-0.4
	c0.2-0.2,0.4-0.4,0.5-0.6c0.1-0.1,0.2-0.3,0.2-0.4c0.1-0.2,0.2-0.4,0.2-0.6c0.1-0.2,0.1-0.5,0.1-0.7c0-0.2,0-0.5-0.1-0.7
	c0-0.2-0.1-0.4-0.2-0.6c-0.1-0.1-0.1-0.3-0.2-0.4c-0.1-0.2-0.3-0.4-0.5-0.6c-0.1-0.1-0.3-0.3-0.5-0.4c-0.2-0.1-0.4-0.2-0.6-0.4
	c-0.2-0.1-0.3-0.1-0.5-0.2c-0.3-0.1-0.6-0.1-0.8-0.1c-0.3,0-0.6,0-0.9,0.1c-0.2,0-0.4,0.1-0.6,0.2c-0.3,0.1-0.5,0.3-0.7,0.4
	C27,19.6,26.9,19.7,26.8,19.8z M23,16.2l7.3,14.6c0,0,0,0.1-0.1,0.1H15.6c0,0,0,0,0,0c0,0-0.1-0.1-0.1-0.1l7.3-14.6
	C22.9,16.2,22.9,16.2,23,16.2C23,16.2,23,16.2,23,16.2z"/>
</svg>
