<svg viewBox="0 0 40 40" xmlns="http://www.w3.org/2000/svg" xmlns:xlink="http://www.w3.org/1999/xlink" width="40.000000" height="40.000000" fill="none">
	<rect id="图标" width="40.000000" height="40.000000" x="0.000000" y="0.000000" fill="rgb(255,255,255)" fill-opacity="0" />
	<path id="矢量 510" d="M37 7.39999C37 4.96994 35.03 3 32.6 3L7.40002 3C4.96997 3 3 4.96994 3 7.39999L3 32.6C3 35.0301 4.96997 37 7.40002 37L32.6 37C35.03 37 37 35.0301 37 32.6L37 7.39999ZM7.40002 4.60001L32.6 4.60001C32.8223 4.60001 33.0387 4.62497 33.2491 4.6749C33.3989 4.71042 33.5457 4.75858 33.6895 4.81937C33.8406 4.88333 33.984 4.95923 34.1198 5.04709L34.1198 5.04715C34.2845 5.15384 34.438 5.27814 34.58 5.4201C34.7219 5.5621 34.8463 5.71555 34.953 5.8804L34.953 5.88049C35.0409 6.01614 35.1167 6.15952 35.1807 6.31061C35.2415 6.45432 35.2896 6.60104 35.3251 6.75073C35.375 6.96124 35.4 7.17764 35.4 7.39999L35.4 32.6C35.4 32.8222 35.375 33.0386 35.3252 33.249L35.3251 33.2491C35.2896 33.3989 35.2415 33.5456 35.1807 33.6894C35.1167 33.8406 35.0408 33.984 34.9529 34.1198C34.8462 34.2845 34.7219 34.4379 34.58 34.5799Q34.3668 34.7929 34.1196 34.953L34.1196 34.953C33.9839 35.0408 33.8406 35.1167 33.6895 35.1806C33.5457 35.2414 33.399 35.2896 33.2494 35.3251L33.2493 35.3251C33.0388 35.375 32.8224 35.4 32.6 35.4L7.40002 35.4C7.17773 35.4 6.96143 35.3751 6.75098 35.3251C6.6012 35.2896 6.45435 35.2414 6.31055 35.1806C6.15942 35.1167 6.01599 35.0408 5.88025 34.9529C5.71545 34.8462 5.56201 34.7219 5.42004 34.5799C5.2782 34.438 5.15381 34.2846 5.04712 34.1198L5.04712 34.1198C4.95923 33.984 4.8833 33.8406 4.81934 33.6894C4.75854 33.5456 4.71045 33.3989 4.67493 33.2491L4.67493 33.2491C4.625 33.0386 4.59998 32.8223 4.59998 32.6L4.59998 7.39999C4.59998 7.1777 4.625 6.9613 4.67493 6.75082C4.71045 6.6011 4.75854 6.45435 4.81934 6.31061C4.8833 6.15942 4.95923 6.01599 5.04712 5.88028C5.15381 5.71548 5.27808 5.56207 5.42004 5.4201C5.56213 5.27814 5.71545 5.15378 5.88025 5.04709C6.01599 4.95923 6.15942 4.88333 6.31055 4.81937C6.45435 4.75858 6.60107 4.71042 6.75085 4.6749C6.9613 4.62497 7.17773 4.60001 7.40002 4.60001ZM27.7732 26.5008C27.7396 26.3335 27.6812 26.1712 27.5975 26.014L25.3953 21.8685Q25.7386 21.8357 26.0721 21.76C26.3618 21.6943 26.646 21.6044 26.9247 21.4903C27.2675 21.3499 27.5892 21.1783 27.8899 20.9754C28.1467 20.8021 28.3882 20.606 28.6144 20.3871C28.9048 20.1059 29.1566 19.7999 29.37 19.469C29.5184 19.2387 29.6483 18.9963 29.7594 18.742C29.8951 18.4311 29.9982 18.1132 30.0685 17.7881C30.1438 17.4398 30.1814 17.0834 30.1814 16.7188C30.1814 16.3542 30.1438 15.9977 30.0685 15.6494C29.9983 15.3244 29.8951 15.0064 29.7594 14.6956C29.6483 14.4412 29.5184 14.1988 29.37 13.9685C29.1566 13.6376 28.9048 13.3316 28.6144 13.0504C28.3882 12.8315 28.1467 12.6354 27.8899 12.4621C27.5892 12.2592 27.2675 12.0876 26.9247 11.9472C26.646 11.8331 26.3618 11.7432 26.0721 11.6775C25.6791 11.5883 25.2759 11.5438 24.8625 11.5438Q24.0968 11.5438 23.3871 11.7432C22.9956 11.8531 22.6168 12.0086 22.251 12.2096C22.031 12.3304 21.8215 12.4652 21.6226 12.6141C21.4722 12.7267 21.3278 12.8473 21.1893 12.9759Q21.0125 13.1402 20.8529 13.3181L19.9316 11.584C19.8424 11.4161 19.7332 11.2688 19.6036 11.1422C19.4988 11.0398 19.3809 10.9509 19.2498 10.8755C19.1221 10.802 18.9894 10.7457 18.8519 10.7064Q18.6154 10.6389 18.3594 10.6389Q18.1034 10.6389 17.8668 10.7064C17.7294 10.7457 17.5967 10.802 17.469 10.8755C17.3379 10.9509 17.2198 11.0398 17.1151 11.1422C16.9856 11.2688 16.8763 11.4161 16.7871 11.584L9.12109 26.014C9.0376 26.1712 8.979 26.3335 8.94543 26.5008C8.91785 26.6385 8.9071 26.7797 8.91333 26.9243C8.91943 27.0656 8.94128 27.2025 8.979 27.3348C9.02161 27.4845 9.08447 27.6284 9.16748 27.7665C9.25061 27.9046 9.34814 28.0276 9.46033 28.1355C9.55945 28.2308 9.67004 28.3144 9.79199 28.386C9.91675 28.4594 10.0464 28.5161 10.181 28.5564Q10.1837 28.5572 10.1863 28.5579Q10.4293 28.6296 10.6934 28.6296L26.0254 28.6296C26.2034 28.6296 26.3741 28.6052 26.5377 28.5563C26.6724 28.5161 26.802 28.4594 26.9268 28.386C27.0487 28.3144 27.1592 28.2308 27.2584 28.1355C27.3706 28.0276 27.4681 27.9046 27.5513 27.7665C27.6343 27.6283 27.6971 27.4844 27.7397 27.3348C27.7775 27.2025 27.7993 27.0656 27.8054 26.9243Q27.8148 26.7074 27.7732 26.5008ZM21.6776 14.8704L24.5522 20.2815C24.6551 20.2897 24.7586 20.2938 24.8625 20.2938C25.171 20.2938 25.4711 20.2589 25.7627 20.189C25.9514 20.1438 26.1366 20.084 26.3184 20.0096C26.5662 19.9082 26.7981 19.7835 27.0142 19.6358C27.1866 19.5178 27.3491 19.3851 27.5015 19.2376C27.7163 19.0295 27.9005 18.8023 28.0541 18.556C28.1444 18.4111 28.2241 18.2596 28.2932 18.1014C28.3844 17.8927 28.454 17.6791 28.5018 17.4608C28.5549 17.2193 28.5814 16.972 28.5814 16.7188C28.5814 16.4656 28.5549 16.2182 28.502 15.9767C28.454 15.7584 28.3844 15.5449 28.2932 15.3361Q28.1896 15.0988 28.0541 14.8814C27.9005 14.6351 27.7163 14.408 27.5015 14.1999C27.3491 14.0525 27.1866 13.9197 27.0142 13.8018C26.7981 13.654 26.5662 13.5294 26.3184 13.4279C26.1366 13.3535 25.9514 13.2937 25.7627 13.2485C25.4711 13.1787 25.171 13.1438 24.8625 13.1438Q24.3019 13.1438 23.7852 13.2943C23.522 13.3709 23.2673 13.4768 23.0212 13.612C22.7061 13.7851 22.4265 13.9937 22.1825 14.2378C22.0015 14.419 21.8398 14.6198 21.698 14.8401C21.6914 14.8504 21.6845 14.8605 21.6776 14.8704ZM18.5187 12.3346L26.1846 26.7646C26.2006 26.7947 26.2081 26.8245 26.2074 26.8541C26.2065 26.8837 26.1974 26.913 26.1799 26.9422C26.1624 26.9713 26.1407 26.9932 26.115 27.0078C26.0892 27.0223 26.0593 27.0296 26.0254 27.0296L10.6934 27.0296C10.6594 27.0296 10.6295 27.0223 10.6038 27.0078C10.578 26.9932 10.5564 26.9713 10.5388 26.9422C10.5214 26.913 10.5122 26.8837 10.5114 26.8541C10.5106 26.8245 10.5182 26.7947 10.5342 26.7646L18.2001 12.3346C18.217 12.3027 18.2388 12.2787 18.2654 12.2628C18.2919 12.2468 18.3232 12.2389 18.3594 12.2389C18.3955 12.2389 18.4269 12.2468 18.4534 12.2628C18.48 12.2787 18.5017 12.3027 18.5187 12.3346Z" fill="currentColor" fill-rule="evenodd" />
</svg>
