<?xml version="1.0" encoding="utf-8"?>
<!-- Generator: Adobe Illustrator 26.0.2, SVG Export Plug-In . SVG Version: 6.00 Build 0)  -->
<svg version="1.1" id="图层_1" xmlns="http://www.w3.org/2000/svg" xmlns:xlink="http://www.w3.org/1999/xlink" x="0px" y="0px"
	 viewBox="0 0 48 48" style="enable-background:new 0 0 48 48;" xml:space="preserve">
<style type="text/css">
	.st0{fill-rule:evenodd;clip-rule:evenodd;fill:currentColor;}
</style>
<desc>Created with Pixso.</desc>
<path id="矢量_153" class="st0" d="M43,11c0-2.2-1.8-4-4-4H8c-2.2,0-4,1.8-4,4v27c0,2.2,1.8,4,4,4h31c2.2,0,4-1.8,4-4V11z
	 M41.2,11c0-1.2-1-2.2-2.2-2.2H8c-1.2,0-2.2,1-2.2,2.2v23.3l9.4-7.4L23,31l7.9-13.4L41.2,28V11z M41.2,30.6l-10-10.2l-7.6,12.9
	L15.4,29l-9.6,7.6V38c0,1.2,1,2.2,2.2,2.2h31c1.2,0,2.2-1,2.2-2.2V30.6z M11,18.7c0-2.5,2-4.5,4.5-4.5c2.5,0,4.5,2,4.5,4.5
	c0,2.5-2,4.5-4.5,4.5C13,23.2,11,21.2,11,18.7z M12.8,18.7c0-1.5,1.2-2.7,2.7-2.7s2.7,1.2,2.7,2.7c0,1.5-1.2,2.7-2.7,2.7
	S12.8,20.2,12.8,18.7z"/>
</svg>
