<svg viewBox="0 0 40 40" xmlns="http://www.w3.org/2000/svg" xmlns:xlink="http://www.w3.org/1999/xlink" width="40.000000" height="40.000000" fill="none">
	<rect id="图片" width="40.000000" height="40.000000" x="0.000000" y="0.000000" fill="rgb(255,255,255)" fill-opacity="0" />
	<path id="矢量 511" d="M37.5 8.14999C37.5 5.71994 35.53 3.75 33.1 3.75L6.90002 3.75C4.46997 3.75 2.5 5.71994 2.5 8.14999L2.5 31.85C2.5 34.2801 4.46997 36.25 6.90002 36.25L33.1 36.25C35.53 36.25 37.5 34.2801 37.5 31.85L37.5 8.14999ZM6.90002 5.35001L33.1 5.35001C33.3223 5.35001 33.5387 5.37497 33.7491 5.4249C33.8989 5.46042 34.0457 5.50858 34.1895 5.56937C34.3406 5.63333 34.484 5.70923 34.6198 5.79709L34.6199 5.79715C34.7845 5.90384 34.938 6.02814 35.08 6.1701C35.2219 6.31213 35.3463 6.46558 35.453 6.63046C35.5409 6.76611 35.6167 6.90952 35.6807 7.06061C35.7415 7.20432 35.7896 7.35104 35.8251 7.50073C35.875 7.71124 35.9 7.92764 35.9 8.14999L35.9 28.0336L28.3521 22.2022C28.2517 22.1247 28.145 22.0638 28.0317 22.0195C27.9186 21.9751 27.7988 21.9473 27.6726 21.9361C27.5464 21.9248 27.4237 21.931 27.3043 21.9547Q27.1254 21.9901 26.9568 22.0779L20.8588 25.2532L13.9449 15.0516C13.8864 14.9651 13.8195 14.8877 13.7444 14.8192C13.6765 14.7574 13.6019 14.703 13.5208 14.6559C13.4414 14.61 13.3593 14.5732 13.274 14.5453C13.1836 14.5156 13.0898 14.4962 12.9927 14.4869C12.8955 14.4776 12.7997 14.4789 12.7052 14.4908C12.6163 14.5021 12.5287 14.5227 12.4421 14.5527C12.3534 14.5835 12.2699 14.6228 12.1915 14.6706Q12.0615 14.75 11.9506 14.8608L4.09998 22.6954L4.09998 8.14999C4.09998 7.9277 4.125 7.7113 4.17493 7.50082C4.21045 7.3511 4.25854 7.20435 4.31934 7.06061C4.3833 6.90942 4.45923 6.76599 4.54712 6.63028C4.65381 6.46548 4.77808 6.31207 4.92004 6.1701C5.06213 6.02814 5.21545 5.90378 5.38025 5.79709C5.51599 5.70923 5.65942 5.63333 5.81055 5.56937C5.95435 5.50858 6.10107 5.46042 6.25085 5.4249C6.4613 5.37497 6.67773 5.35001 6.90002 5.35001ZM4.09998 24.9558L4.09998 31.85C4.09998 32.0723 4.125 32.2887 4.17493 32.4991C4.21045 32.6489 4.25854 32.7957 4.31934 32.9394Q4.41528 33.1662 4.54712 33.3698C4.65381 33.5346 4.7782 33.6879 4.92004 33.8299C5.06201 33.9719 5.21545 34.0962 5.38025 34.2029Q5.38385 34.2052 5.38745 34.2076Q5.58787 34.3364 5.81055 34.4306C5.95435 34.4914 6.10107 34.5396 6.25085 34.5751C6.4613 34.625 6.67773 34.65 6.90002 34.65L33.1 34.65C33.3224 34.65 33.5388 34.625 33.7493 34.5751L33.7494 34.575C33.899 34.5395 34.0458 34.4914 34.1895 34.4306C34.3406 34.3667 34.4839 34.2908 34.6196 34.203Q34.8668 34.0429 35.08 33.8299C35.2218 33.688 35.3462 33.5346 35.4529 33.3698L35.4529 33.3698C35.5408 33.234 35.6167 33.0906 35.6807 32.9394C35.7415 32.7956 35.7896 32.6489 35.8251 32.4991L35.8252 32.499C35.875 32.2886 35.9 32.0722 35.9 31.85L35.9 30.0554L27.5256 23.5856L21.3607 26.7957C21.2861 26.8346 21.2094 26.8657 21.1302 26.8892L21.1281 26.8898Q21.0187 26.9221 20.9036 26.9349C20.8273 26.9433 20.7513 26.9451 20.6759 26.9402C20.5974 26.9351 20.5193 26.9227 20.4418 26.9031Q20.3253 26.8736 20.218 26.8244C20.1493 26.7929 20.0834 26.7553 20.0203 26.7116C19.9561 26.6672 19.8969 26.6179 19.8424 26.5637C19.7841 26.5054 19.7313 26.4416 19.6842 26.372L12.824 16.2495L4.09998 24.9558ZM26.5 9C28.9852 9 31 11.0147 31 13.5C31 15.9853 28.9852 18 26.5 18C24.0148 18 22 15.9853 22 13.5C22 11.0147 24.0148 9 26.5 9ZM25.8289 10.6773L25.8289 10.6773C25.6733 10.7141 25.521 10.7641 25.3717 10.8272C25.2148 10.8936 25.0662 10.9723 24.9254 11.0634C24.7549 11.1739 24.5963 11.3025 24.4493 11.4494C24.3025 11.5963 24.1738 11.7549 24.0635 11.9254C23.9723 12.0661 23.8936 12.2149 23.8273 12.3717C23.7642 12.521 23.7141 12.6733 23.6772 12.8289C23.6257 13.0465 23.6 13.2702 23.6 13.5C23.6 13.7298 23.6257 13.9535 23.6772 14.1711L23.6772 14.1712C23.7141 14.3267 23.7642 14.4791 23.8273 14.6283C23.8936 14.7851 23.9723 14.9339 24.0635 15.0746L24.0635 15.0746C24.1738 15.2451 24.3025 15.4037 24.4493 15.5506C24.5963 15.6975 24.7549 15.8261 24.9254 15.9366C25.0662 16.0277 25.2148 16.1064 25.3717 16.1728C25.521 16.2359 25.6733 16.2859 25.8289 16.3227C26.0465 16.3742 26.2701 16.4 26.5 16.4C26.7299 16.4 26.9535 16.3742 27.1711 16.3227C27.3267 16.2859 27.479 16.2359 27.6283 16.1728C27.7852 16.1064 27.9338 16.0277 28.0746 15.9366Q28.3302 15.7709 28.5507 15.5506C28.6975 15.4037 28.8262 15.2451 28.9365 15.0746C29.0277 14.9339 29.1064 14.7851 29.1727 14.6283C29.2358 14.4791 29.2859 14.3267 29.3228 14.1712Q29.4 13.8447 29.4 13.5Q29.4 13.1553 29.3228 12.8288L29.3226 12.8288C29.2859 12.6733 29.2358 12.5209 29.1727 12.3717Q29.0747 12.1397 28.9402 11.9312Q28.9384 11.9283 28.9365 11.9254C28.8262 11.7549 28.6975 11.5963 28.5507 11.4494C28.4037 11.3025 28.2451 11.1739 28.0746 11.0634C27.9338 10.9723 27.7852 10.8936 27.6283 10.8272C27.479 10.7641 27.3267 10.7141 27.1711 10.6773C26.9535 10.6258 26.7299 10.6 26.5 10.6C26.2701 10.6 26.0465 10.6258 25.8289 10.6773Z" fill="currentColor" fill-rule="evenodd" />
</svg>
