<svg viewBox="0 0 40 40" xmlns="http://www.w3.org/2000/svg" xmlns:xlink="http://www.w3.org/1999/xlink" width="40.000000" height="40.000000" fill="none">
	<rect id="输入框" width="40.000000" height="40.000000" x="0.000000" y="0.000000" fill="rgb(255,255,255)" fill-opacity="0" />
	<path id="矢量 630" d="M30.996 7.3L27.8019 7.3L27.8019 32.7L30.996 32.7C31.444 32.7 31.796 33.052 31.796 33.5C31.796 33.948 31.444 34.3 30.996 34.3L22.998 34.3C22.55 34.3 22.198 33.948 22.198 33.5C22.198 33.052 22.55 32.7 22.998 32.7L26.2019 32.7L26.2019 7.3L22.998 7.3C22.55 7.3 22.198 6.948 22.198 6.5C22.198 6.052 22.55 5.7 22.998 5.7L30.996 5.7C31.444 5.7 31.796 6.052 31.796 6.5C31.796 6.948 31.444 7.3 30.996 7.3ZM4.99799 30.3L21.4472 30.3C21.8952 30.3 22.2472 29.948 22.2472 29.5C22.2472 29.052 21.8952 28.7 21.4472 28.7L4.99799 28.7C4.90186 28.7 4.80829 28.6891 4.71741 28.6673C4.65405 28.6522 4.59198 28.6317 4.53113 28.606C4.4668 28.5788 4.4057 28.5465 4.3479 28.5092C4.27679 28.4633 4.21069 28.4097 4.14948 28.3485C4.08826 28.2873 4.03473 28.2212 3.98883 28.1502C3.95148 28.0923 3.91919 28.0312 3.89197 27.9668C3.86627 27.906 3.84583 27.8439 3.83063 27.7806C3.8089 27.6897 3.79797 27.5961 3.79797 27.5L3.79797 12.5C3.79797 12.4039 3.8089 12.3103 3.83063 12.2194C3.84583 12.1561 3.86627 12.094 3.89197 12.0331Q3.93258 11.9371 3.98823 11.8508L3.98883 11.8499C4.03473 11.7788 4.08826 11.7127 4.14948 11.6515C4.21063 11.5903 4.27679 11.5367 4.34784 11.4908Q4.34954 11.4897 4.35124 11.4886Q4.43652 11.434 4.53113 11.394C4.59198 11.3682 4.65405 11.3478 4.71741 11.3326C4.80835 11.3109 4.90186 11.3 4.99799 11.3L21.4472 11.3C21.8952 11.3 22.2472 10.948 22.2472 10.5C22.2472 10.052 21.8952 9.7 21.4472 9.7L4.99799 9.7Q4.69226 9.7 4.4004 9.7636L4.39923 9.76385C4.23199 9.80037 4.06824 9.85254 3.90784 9.92036C3.74768 9.9881 3.59637 10.0691 3.4538 10.1635C3.29803 10.2665 3.15283 10.3854 3.01813 10.5201C2.88336 10.6548 2.76447 10.8001 2.66144 10.9558C2.56714 11.0983 2.48608 11.2497 2.41833 11.4099C2.35052 11.5702 2.29834 11.734 2.26184 11.9012C2.2193 12.0961 2.198 12.2957 2.198 12.5L2.198 27.5C2.198 27.7042 2.2193 27.9038 2.26184 28.0988C2.29834 28.266 2.35052 28.4298 2.41833 28.5901C2.48608 28.7503 2.56714 28.9016 2.66144 29.0442C2.76447 29.1999 2.88336 29.3452 3.01813 29.4799C3.15283 29.6146 3.2981 29.7335 3.4538 29.8366C3.59637 29.9309 3.74774 30.0119 3.90784 30.0796C4.06824 30.1474 4.23199 30.1996 4.39917 30.2361C4.59412 30.2787 4.7937 30.3 4.99799 30.3ZM35.998 9.7L32.6855 9.7C32.2375 9.7 31.8855 10.052 31.8855 10.5C31.8855 10.948 32.2375 11.3 32.6855 11.3L35.998 11.3C36.0941 11.3 36.1876 11.3109 36.2786 11.3326C36.3419 11.3478 36.404 11.3682 36.4648 11.394C36.5292 11.4212 36.5904 11.4535 36.6483 11.4909C36.7192 11.5368 36.7853 11.5903 36.8465 11.6515Q36.9377 11.7426 37.0063 11.8485L37.0071 11.8497C37.0445 11.9076 37.0768 11.9687 37.104 12.0331Q37.1426 12.1244 37.1653 12.2195C37.1871 12.3104 37.198 12.4039 37.198 12.5L37.198 27.5C37.198 27.5961 37.1871 27.6896 37.1653 27.7805C37.1502 27.8439 37.1298 27.906 37.104 27.9668C37.0768 28.0313 37.0444 28.0924 37.0071 28.1503Q36.9382 28.2568 36.8465 28.3485C36.7853 28.4097 36.7192 28.4632 36.6482 28.5091C36.5903 28.5465 36.5292 28.5788 36.4648 28.606C36.404 28.6318 36.3419 28.6522 36.2786 28.6674C36.1876 28.6891 36.0941 28.7 35.998 28.7L32.6855 28.7C32.2375 28.7 31.8855 29.052 31.8855 29.5C31.8855 29.948 32.2375 30.3 32.6855 30.3L35.998 30.3C36.2023 30.3 36.4019 30.2787 36.5968 30.2361C36.764 30.1996 36.9278 30.1475 37.0881 30.0796C37.2483 30.0119 37.3997 29.9308 37.5422 29.8365C37.6979 29.7335 37.8432 29.6146 37.9779 29.4799C38.1127 29.3452 38.2315 29.1999 38.3345 29.0442C38.4289 28.9016 38.5099 28.7503 38.5776 28.5901C38.6454 28.4298 38.6976 28.2661 38.7341 28.099C38.7767 27.904 38.798 27.7043 38.798 27.5L38.798 12.5C38.798 12.2957 38.7767 12.096 38.7341 11.901C38.6976 11.7339 38.6454 11.5702 38.5776 11.4099C38.5099 11.2497 38.4289 11.0984 38.3345 10.9558C38.2315 10.8001 38.1126 10.6548 37.9779 10.5201C37.8432 10.3854 37.698 10.2666 37.5424 10.1635C37.3997 10.0692 37.2484 9.98813 37.0881 9.92036C36.9278 9.85254 36.764 9.80037 36.5968 9.76385C36.4019 9.72128 36.2022 9.7 35.998 9.7Z" fill="currentColor" fill-rule="evenodd" />
</svg>
