<svg
	viewBox="0 0 16 16"
	xmlns="http://www.w3.org/2000/svg"
	xmlns:xlink="http://www.w3.org/1999/xlink"
	width="16.000000"
	height="16.000000"
	fill="none"
>
	<rect id="Agent" width="16.000000" height="16.000000" x="0.000000" y="0.000000" />
	<path
		id="path"
		d="M12.5 13.0012L3.5 13.0012C2.12 13.0012 1 11.8812 1 10.5012L1 6.50116C1 5.12116 2.12 4.00116 3.5 4.00116L12.5 4.00116C13.88 4.00116 15 5.12116 15 6.50116L15 10.5012C15 11.8812 13.88 13.0012 12.5 13.0012ZM3.5 5.00116C2.67 5.00116 2 5.67116 2 6.50116L2 10.5012C2 11.3312 2.67 12.0012 3.5 12.0012L12.5 12.0012C13.33 12.0012 14 11.3312 14 10.5012L14 6.50116C14 5.67116 13.33 5.00116 12.5 5.00116L3.5 5.00116ZM3.98 1.07116C4.25 1.00116 4.52 1.16116 4.59 1.42116L5.37 4.32116C5.44 4.59116 5.28 4.86116 5.02 4.93116C4.75 5.00116 4.48 4.84116 4.41 4.58116L3.63 1.68116C3.56 1.41116 3.72 1.14116 3.98 1.07116ZM12.02 1.07116C11.75 1.00116 11.48 1.16116 11.41 1.42116L10.63 4.32116C10.56 4.59116 10.72 4.86116 10.98 4.93116C11.25 5.00116 11.52 4.84116 11.59 4.58116L12.37 1.68116C12.44 1.41116 12.28 1.14116 12.02 1.07116ZM3.5 14.0012L12.5 14.0012C12.78 14.0012 13 14.2212 13 14.5012C13 14.7812 12.78 15.0012 12.5 15.0012L3.5 15.0012C3.22 15.0012 3 14.7812 3 14.5012C3 14.2212 3.22 14.0012 3.5 14.0012ZM3.5 4.00116L12.5 4.00116C12.78 4.00116 13 4.22116 13 4.50116C13 4.78116 12.78 5.00116 12.5 5.00116L3.5 5.00116C3.22 5.00116 3 4.78116 3 4.50116C3 4.22116 3.22 4.00116 3.5 4.00116ZM5.5 7.00116C5.78 7.00116 6 7.22116 6 7.50116L6 9.50116C6 9.78116 5.78 10.0012 5.5 10.0012C5.22 10.0012 5 9.78116 5 9.50116L5 7.50116C5 7.22116 5.22 7.00116 5.5 7.00116ZM10.5 7.00116C10.78 7.00116 11 7.22116 11 7.50116L11 9.50116C11 9.78116 10.78 10.0012 10.5 10.0012C10.22 10.0012 10 9.78116 10 9.50116L10 7.50116C10 7.22116 10.22 7.00116 10.5 7.00116Z"
		fill="currentColor"
		fill-rule="nonzero"
	/>
</svg>