<svg width="16.000000" height="16.000000" viewBox="0 0 16 16" fill="none" xmlns="http://www.w3.org/2000/svg" xmlns:xlink="http://www.w3.org/1999/xlink">
	<desc>
			Created with Pixso.
	</desc>
	<defs>
		<clipPath id="clip3794_39683">
			<rect id="智能搭建" width="16.000000" height="16.000000" fill="white" fill-opacity="0"/>
		</clipPath>
	</defs>
	<g clip-path="url(#clip3794_39683)">
		<path id="矢量 640" d="M12 1.5C12.16 1.5 12.35 1.5 12.52 1.54C12.66 1.57 12.83 1.63 12.97 1.67C13.1 1.75 13.24 1.82 13.35 1.9C13.5 2 13.64 2.09 13.75 2.22C13.87 2.34 13.99 2.47 14.08 2.6C14.16 2.75 14.24 2.88 14.29 3C14.35 3.15 14.39 3.31 14.43 3.46C14.48 3.63 14.5 3.81 14.5 4L14.5 12C14.5 12.17 14.48 12.35 14.43 12.52C14.39 12.67 14.35 12.82 14.29 12.96C14.24 13.1 14.16 13.24 14.08 13.35C13.99 13.5 13.87 13.64 13.75 13.75C13.64 13.88 13.5 13.99 13.35 14.07C13.24 14.15 13.1 14.24 12.97 14.29C12.83 14.35 12.66 14.39 12.52 14.42C12.35 14.47 12.16 14.5 12 14.5L4 14.5C3.81 14.5 3.62 14.47 3.45 14.42C3.31 14.39 3.16 14.35 3 14.29C2.87 14.24 2.75 14.15 2.6 14.07C2.47 13.99 2.33 13.88 2.22 13.75C2.08 13.64 2 13.5 1.91 13.35C1.81 13.24 1.75 13.1 1.68 12.96C1.62 12.82 1.58 12.67 1.54 12.52C1.5 12.35 1.5 12.17 1.5 12L1.5 4C1.5 3.81 1.5 3.63 1.54 3.46C1.58 3.31 1.62 3.15 1.68 3C1.75 2.88 1.81 2.75 1.91 2.6C2 2.47 2.08 2.34 2.22 2.22C2.33 2.09 2.47 2 2.6 1.9C2.75 1.82 2.87 1.75 3 1.67C3.16 1.63 3.31 1.57 3.45 1.54C3.62 1.5 3.81 1.5 4 1.5L12 1.5ZM13.5 4L13.5 5.5L2.5 5.5L2.5 4C2.5 3.88 2.5 3.75 2.52 3.64C2.54 3.57 2.58 3.49 2.6 3.4C2.64 3.32 2.68 3.25 2.74 3.15C2.77 3.07 2.85 3 2.91 2.9C3 2.85 3.08 2.77 3.16 2.74C3.25 2.67 3.33 2.64 3.41 2.6C3.49 2.57 3.56 2.54 3.64 2.52C3.75 2.5 3.87 2.5 4 2.5L12 2.5C12.1 2.5 12.22 2.5 12.33 2.52C12.41 2.54 12.5 2.57 12.58 2.6C12.66 2.64 12.74 2.67 12.81 2.74C12.89 2.77 12.98 2.85 13.06 2.9C13.12 3 13.18 3.07 13.25 3.15C13.29 3.25 13.33 3.32 13.37 3.4C13.41 3.49 13.43 3.57 13.46 3.64C13.48 3.75 13.5 3.88 13.5 4ZM4 3.5C3.72 3.5 3.5 3.71 3.5 4C3.5 4.27 3.72 4.5 4 4.5C4.27 4.5 4.5 4.25 4.5 4C4.5 3.72 4.25 3.5 4 3.5ZM5.5 3.5C5.22 3.5 5 3.71 5 4C5 4.27 5.22 4.5 5.5 4.5C5.77 4.5 6 4.25 6 4C6 3.72 5.75 3.5 5.5 3.5ZM6.5 4C6.5 3.71 6.72 3.5 7 3.5C7.27 3.5 7.5 3.71 7.5 4C7.5 4.27 7.25 4.5 7 4.5C6.72 4.5 6.5 4.25 6.5 4ZM13.5 6.5L2.5 6.5L2.5 12C2.5 12.1 2.5 12.21 2.52 12.32C2.54 12.4 2.58 12.5 2.6 12.57C2.64 12.65 2.68 12.74 2.74 12.81C2.77 12.89 2.85 12.97 2.91 13.06C3 13.13 3.08 13.18 3.16 13.25C3.25 13.29 3.33 13.32 3.41 13.38C3.49 13.4 3.56 13.42 3.64 13.46C3.75 13.47 3.87 13.5 4 13.5L12 13.5C12.1 13.5 12.22 13.47 12.33 13.46C12.41 13.42 12.5 13.4 12.58 13.38C12.66 13.32 12.74 13.29 12.81 13.25C12.89 13.18 12.98 13.13 13.06 13.06C13.12 12.97 13.18 12.89 13.25 12.81C13.29 12.74 13.33 12.65 13.37 12.57C13.41 12.5 13.43 12.4 13.46 12.32C13.48 12.22 13.5 12.1 13.5 12L13.5 6.5ZM10.19 7.7C9.92 7.7 9.69 7.92 9.69 8.2C9.69 8.47 9.92 8.7 10.19 8.7C10.47 8.7 10.69 8.47 10.69 8.2C10.69 7.92 10.47 7.7 10.19 7.7ZM7.62 7.79C7.59 7.77 7.56 7.75 7.53 7.74C7.33 7.64 7.09 7.73 7 7.93L5.43 11.44C5.34 11.64 5.43 11.88 5.63 11.97C5.84 12.07 6.07 11.97 6.16 11.77L6.53 10.95L8.22 10.95L8.6 11.79C8.69 12 8.92 12.09 9.13 12C9.33 11.9 9.42 11.67 9.33 11.46L7.76 7.96C7.72 7.89 7.68 7.83 7.62 7.79ZM7.37 9.06L6.88 10.15L7.86 10.15L7.37 9.06ZM10.59 9.49C10.59 9.27 10.42 9.09 10.19 9.09C9.97 9.09 9.79 9.27 9.79 9.49L9.79 11.49C9.79 11.71 9.97 11.89 10.19 11.89C10.42 11.89 10.59 11.71 10.59 11.49L10.59 9.49Z" fill="currentColor" fill-opacity="1.000000" fill-rule="evenodd"/>
	</g>
</svg>
