<svg viewBox="0 0 40 40" xmlns="http://www.w3.org/2000/svg" xmlns:xlink="http://www.w3.org/1999/xlink" width="40.000000" height="40.000000" fill="none">
	<rect id="折线图" width="40.000000" height="40.000000" x="0.000000" y="0.000000" fill="rgb(255,255,255)" fill-opacity="0" />
	<path id="矢量 602" d="M4.04993 5L4.04993 33.75C4.04993 33.8121 4.06091 33.8697 4.08289 33.9227C4.10486 33.9758 4.13782 34.0243 4.18176 34.0682C4.22571 34.1121 4.27417 34.1451 4.32727 34.1671C4.38025 34.189 4.43787 34.2 4.5 34.2L37 34.2C37.448 34.2 37.7999 34.552 37.7999 35C37.7999 35.448 37.448 35.8 37 35.8L4.5 35.8C4.22229 35.8 3.95618 35.7462 3.70178 35.6386C3.45642 35.5348 3.23926 35.3885 3.05042 35.1996Q2.90338 35.0526 2.79077 34.8828C2.72107 34.7778 2.66125 34.6662 2.61133 34.5482C2.50378 34.2938 2.44995 34.0277 2.44995 33.75L2.44995 5C2.44995 4.552 2.802 4.2 3.25 4.2C3.698 4.2 4.04993 4.552 4.04993 5ZM7.75 22.0022L11.2335 22.0022C11.4985 22.0022 11.7561 22.0323 12.0065 22.0927C12.257 22.153 12.5 22.2434 12.736 22.364C13.2076 22.6052 13.5986 22.9406 13.9088 23.3701L16.814 27.3926C16.8611 27.4578 16.9243 27.4848 17.0039 27.4736C17.0835 27.4624 17.137 27.4191 17.1643 27.3435L22.5873 12.3259C22.6682 12.1017 22.7819 11.9064 22.9283 11.7398C23.0389 11.6141 23.1681 11.5048 23.316 11.4118C23.6305 11.2143 23.9766 11.1233 24.3541 11.1388C24.7317 11.1543 25.0691 11.2733 25.3662 11.496C25.6912 11.7394 25.9083 12.063 26.0177 12.4667L28.2601 20.7466C28.3605 21.1171 28.5631 21.419 28.8679 21.6523C29.0204 21.7689 29.1827 21.8564 29.3549 21.9147C29.5271 21.973 29.7091 22.0022 29.901 22.0022L32.75 22.0022C33.198 22.0022 33.5499 22.3542 33.5499 22.8022C33.5499 23.2502 33.198 23.6022 32.75 23.6022L29.901 23.6022C29.7065 23.6022 29.515 23.5856 29.3265 23.5522C29.1584 23.5226 28.9927 23.4797 28.8293 23.4235C28.4912 23.3074 28.1801 23.1405 27.8956 22.923C27.6113 22.7054 27.3689 22.4486 27.1683 22.1526Q27.0256 21.9418 26.918 21.7144Q26.9161 21.7104 26.9142 21.7064C26.8328 21.5331 26.7666 21.3526 26.7158 21.1649L24.4733 12.885C24.4478 12.7906 24.3861 12.7414 24.2885 12.7374C24.1908 12.7334 24.1254 12.7774 24.0922 12.8693L18.6692 27.8869C18.5508 28.2147 18.3564 28.484 18.0861 28.6949C17.8334 28.892 17.5468 29.0131 17.2263 29.0581C16.906 29.103 16.5972 29.0656 16.2998 28.9456C15.9819 28.8174 15.7209 28.612 15.517 28.3294L12.6117 24.3069Q12.492 24.1411 12.3411 24.0116Q12.1899 23.8819 12.0074 23.7886C11.886 23.7265 11.7607 23.6799 11.6317 23.6488C11.5028 23.6177 11.37 23.6022 11.2335 23.6022L7.75 23.6022C7.302 23.6022 6.94995 23.2502 6.94995 22.8022C6.94995 22.3542 7.302 22.0022 7.75 22.0022Z" fill="currentColor" fill-rule="evenodd" />
</svg>
