<?xml version="1.0" encoding="utf-8"?>
<!-- Generator: Adobe Illustrator 26.0.2, SVG Export Plug-In . SVG Version: 6.00 Build 0)  -->
<svg version="1.1" id="图层_1" xmlns="http://www.w3.org/2000/svg" xmlns:xlink="http://www.w3.org/1999/xlink" x="0px" y="0px"
	 viewBox="0 0 48 48" style="enable-background:new 0 0 48 48;" xml:space="preserve">
<style type="text/css">
	.st0{fill-rule:evenodd;clip-rule:evenodd;fill:currentColor;}
</style>
<desc>Created with Pixso.</desc>
<path id="矢量_165" class="st0" d="M42.5,26.8h-2.9L35.7,22h0v4.8h-2.3V12h2.3v9.4h0l3.7-4.6h2.7L38,21.6L42.5,26.8z M17.7,14.7
	c-0.4,0-0.7-0.1-1-0.4c-0.3-0.2-0.4-0.6-0.4-0.9s0.1-0.7,0.4-0.9c0.3-0.2,0.6-0.4,1-0.4c0.4,0,0.7,0.1,1,0.4
	c0.3,0.2,0.4,0.6,0.4,0.9c0,0.4-0.1,0.6-0.4,0.9C18.4,14.6,18,14.7,17.7,14.7z M14.8,26.8H7v-14h2.3v12h5.4V26.8z M28.4,26.8h2.3
	v-6.1c0-1.3-0.3-2.4-0.9-3.1c-0.6-0.7-1.4-1.1-2.5-1.1c-1.4,0-2.5,0.6-3.2,1.9h0v-1.7h-2.3v10H24v-5.7c0-0.8,0.2-1.4,0.7-2
	c0.2-0.3,0.5-0.4,0.7-0.6c0.3-0.1,0.6-0.2,1-0.2c1.3,0,2,0.9,2,2.8V26.8z M18.8,26.8h-2.3v-10h2.3V26.8z M5.9,35.8h37
	c0.5,0,0.9-0.4,0.9-0.9c0-0.5-0.4-0.9-0.9-0.9h-37C5.4,34,5,34.4,5,34.9C5,35.4,5.4,35.8,5.9,35.8z"/>
</svg>
