<svg viewBox="0 0 40 40" xmlns="http://www.w3.org/2000/svg" xmlns:xlink="http://www.w3.org/1999/xlink" width="40.000000" height="40.000000" fill="none">
	<rect id="链接" width="40.000000" height="40.000000" x="0.000000" y="0.000000" fill="rgb(255,255,255)" fill-opacity="0" />
	<path id="矢量 558" d="M13.0635 11.7488L13.0635 10L14.752 10L14.752 11.7488L13.0635 11.7488ZM3.72144 23.8232L3.72144 10.1438L5.40991 10.1438L5.40991 22.2183L11.7556 22.2183L11.7556 23.8232L3.72144 23.8232ZM28.0806 23.8232L28.0898 10.1438L29.7969 10.1438L29.7969 18.5027L34.1016 13.5625L36.2957 13.5625L31.7637 18.6929L36.8291 23.8232L34.4634 23.8232L29.7969 18.8831L29.7969 23.8232L28.0806 23.8232ZM24.4102 18.6836L24.4102 23.8232L26.1172 23.8232L26.1172 18.1501C26.1172 17.7605 26.0801 17.3461 26.0059 16.907C25.9347 16.4648 25.8094 16.0303 25.6301 15.6035C25.5508 15.4113 25.4579 15.2273 25.3516 15.0515C25.2218 14.8368 25.0719 14.6342 24.9019 14.4438C24.5927 14.0975 24.203 13.8207 23.7329 13.6135C23.2628 13.4032 22.6969 13.2981 22.0352 13.2981C21.1538 13.2981 20.3884 13.4898 19.739 13.8733C19.5319 13.9956 19.3394 14.1348 19.1619 14.2908C18.9592 14.4688 18.7759 14.6687 18.6118 14.8905L18.6118 13.5625L17.095 13.5625L17.095 23.8232L18.802 23.8232L18.802 18.4192C18.802 17.8223 18.8685 17.3044 19.0015 16.8652C19.1376 16.423 19.3292 16.0581 19.5767 15.7705C19.7218 15.6 19.8839 15.455 20.063 15.3356L20.0657 15.3338L20.0657 15.3338L20.0657 15.3338Q20.2541 15.2087 20.4673 15.1211C20.8136 14.9758 21.2002 14.9031 21.627 14.9031C22.1681 14.9031 22.6166 15.0082 22.9722 15.2185C23.1378 15.3142 23.2876 15.4263 23.4216 15.5549C23.5778 15.7049 23.7125 15.8773 23.8257 16.072C24.0391 16.4307 24.1891 16.8343 24.2756 17.2827C24.3654 17.7311 24.4102 18.1981 24.4102 18.6836ZM13.0635 23.8232L13.0635 13.5625L14.752 13.5625L14.752 23.8232L13.0635 23.8232ZM3.25 29.5242L36.7461 29.5242C37.1941 29.5242 37.546 29.8762 37.546 30.3242C37.546 30.7722 37.1941 31.1242 36.7461 31.1242L3.25 31.1242C2.802 31.1242 2.44995 30.7722 2.44995 30.3242C2.44995 29.8762 2.802 29.5242 3.25 29.5242Z" fill="currentColor" fill-rule="evenodd" />
</svg>
