<svg viewBox="0 0 40 40" xmlns="http://www.w3.org/2000/svg" xmlns:xlink="http://www.w3.org/1999/xlink" width="40.000000" height="40.000000" fill="none">
	<rect id="水球图" width="40.000000" height="40.000000" x="0.000000" y="0.000000" />
	<path id="矢量 715" d="M38 20C38 10.0589 29.9412 2 20 2C10.0588 2 2 10.0589 2 20C2 29.9411 10.0588 38 20 38C29.9412 38 38 29.9411 38 20ZM16.6931 3.93321Q17.1152 3.84686 17.5405 3.78288L17.5438 3.7824Q18.7582 3.60001 20 3.60001C20.829 3.60001 21.6487 3.66095 22.4594 3.78287C22.7429 3.82552 23.0255 3.87564 23.3069 3.93321C23.8398 4.04228 24.3649 4.17728 24.8817 4.33821L24.8821 4.3383C25.3903 4.49652 25.8906 4.67979 26.3832 4.88814C26.7915 5.06084 27.1914 5.2495 27.5831 5.4541C28.1276 5.73856 28.656 6.05382 29.1683 6.39992C29.5664 6.6689 29.9514 6.95415 30.3231 7.25568L30.3235 7.25595C30.7666 7.61533 31.1909 7.99783 31.5966 8.40344C32.0017 8.80865 32.3839 9.23254 32.7429 9.67514C33.0449 10.0474 33.3307 10.433 33.6001 10.8317Q34.1182 11.5987 34.5443 12.4138L34.5471 12.4193C34.7512 12.8102 34.9395 13.2094 35.1118 13.6169C35.3202 14.1095 35.5035 14.61 35.6619 15.1183C35.8228 15.6352 35.9578 16.1601 36.0668 16.6931C36.1244 16.9747 36.1746 17.2574 36.2172 17.5412L36.2173 17.5413C36.3391 18.3517 36.4 19.1713 36.4 20C36.4 20.8288 36.3391 21.6484 36.2172 22.4588L36.217 22.4599C36.1744 22.7433 36.1244 23.0257 36.0668 23.3069C35.9578 23.8399 35.8228 24.3648 35.6619 24.8817L35.6617 24.8818C35.5035 25.39 35.3202 25.8905 35.1118 26.3831C34.9393 26.7912 34.7507 27.1909 34.5463 27.5823C34.2617 28.1271 33.9463 28.6557 33.6001 29.1683C33.3311 29.5665 33.0457 29.9516 32.7441 30.3234L32.7439 30.3237L32.7378 30.3313Q32.2014 30.9917 31.5966 31.5966C31.1914 32.0016 30.7676 32.3837 30.3251 32.7427C29.9528 33.0448 29.5671 33.3306 29.1683 33.6001C28.6552 33.9467 28.126 34.2625 27.5806 34.5472L27.5803 34.5473C27.1896 34.7514 26.7905 34.9396 26.3832 35.1119C25.8906 35.3202 25.3903 35.5035 24.8821 35.6617C24.3651 35.8227 23.84 35.9577 23.3069 36.0668C23.0256 36.1243 22.7433 36.1744 22.4598 36.2171L22.4587 36.2172C21.6483 36.3391 20.8287 36.4 20 36.4C19.1714 36.4 18.3521 36.3391 17.5417 36.2173L17.5406 36.2172C17.2571 36.1745 16.9745 36.1244 16.6931 36.0668C16.1602 35.9577 15.6354 35.8228 15.1185 35.6619L15.1182 35.6618C14.61 35.5035 14.1095 35.3202 13.6168 35.1119C13.2092 34.9395 12.8098 34.7511 12.4188 34.5469L12.4185 34.5467C11.8734 34.2621 11.3445 33.9465 10.8317 33.6001C10.4333 33.331 10.0482 33.0455 9.67627 32.7438C9.23328 32.3845 8.80896 32.0021 8.40344 31.5966C7.99792 31.1911 7.6156 30.7669 7.25635 30.3239L7.25623 30.3239C6.95459 29.9519 6.66907 29.5667 6.3999 29.1683C6.05383 28.6559 5.73853 28.1275 5.45398 27.5829L5.45386 27.5827C5.24939 27.1912 5.06079 26.7913 4.88818 26.3831C4.67981 25.8906 4.49658 25.3902 4.33826 24.882L4.33813 24.8817C4.17725 24.3648 4.04224 23.8399 3.93323 23.3069C3.87561 23.0255 3.82556 22.743 3.78284 22.4593C3.66101 21.6487 3.59998 20.8289 3.59998 20C3.59998 19.1712 3.66089 18.3516 3.78284 17.5412L3.78284 17.5409C3.82544 17.2572 3.87561 16.9746 3.93323 16.6931C4.04236 16.1599 4.17737 15.6348 4.33838 15.1178L4.33838 15.1178C4.49658 14.6097 4.67981 14.1094 4.88818 13.6169C5.06091 13.2085 5.24951 12.8084 5.45422 12.4167C5.73865 11.8723 6.05383 11.344 6.3999 10.8317C6.66895 10.4334 6.95435 10.0483 7.25598 9.67645L7.2561 9.6763Q7.25917 9.67252 7.26223 9.66875Q7.79862 9.00831 8.40344 8.40344C8.80896 7.99792 9.23315 7.61554 9.67615 7.2562C10.0481 6.9545 10.4333 6.66907 10.8317 6.39992C11.344 6.05386 11.8723 5.73862 12.4167 5.45419C12.8085 5.24956 13.2085 5.06087 13.6168 4.88814Q14.3524 4.57701 15.1113 4.34038L15.1179 4.33832L15.1179 4.3383L15.1182 4.33826C15.635 4.17731 16.16 4.0423 16.6931 3.93321ZM21.2341 14.0117Q21.2341 15.686 20.6475 16.5496Q20.3845 16.938 20.0194 17.1517Q19.5728 17.4131 18.9731 17.4131Q18.3856 17.4131 17.943 17.1599L17.9422 17.1594L17.9422 17.1594Q17.5659 16.9438 17.2944 16.5452Q16.7056 15.6772 16.7056 14.0117Q16.7056 12.3374 17.2944 11.4695Q17.5659 11.0708 17.9422 10.8553L17.9422 10.8553L17.943 10.8548Q18.3856 10.6016 18.9731 10.6016Q19.5728 10.6016 20.0194 10.8629Q20.3845 11.0767 20.6475 11.4651Q21.2341 12.3286 21.2341 14.0117ZM24.7073 12.9803C24.8331 12.7498 24.8961 12.485 24.8961 12.1858C24.8961 11.8866 24.8331 11.6218 24.7073 11.3913C24.6995 11.377 24.6913 11.3627 24.683 11.3486C24.5979 11.2033 24.4952 11.0784 24.3748 10.9738C24.2961 10.9055 24.2098 10.8459 24.1161 10.7949C24.0653 10.7672 24.0132 10.7424 23.96 10.7206C23.766 10.6412 23.5559 10.6016 23.3295 10.6016C23.1421 10.6016 22.9644 10.6302 22.7965 10.6874C22.7124 10.7161 22.6309 10.7519 22.5516 10.7949C22.4646 10.8422 22.3842 10.8971 22.3101 10.9597C22.1823 11.0679 22.0739 11.199 21.9847 11.353C21.9673 11.3831 21.951 11.4138 21.9358 11.4449C21.8278 11.6654 21.7738 11.9124 21.7738 12.1858C21.7738 12.4898 21.8381 12.7583 21.9668 12.9913C21.9727 13.002 21.9786 13.0125 21.9847 13.0229C22.0667 13.162 22.1649 13.2827 22.2797 13.385C22.3618 13.4583 22.4525 13.5222 22.5516 13.5767C22.6309 13.6197 22.7124 13.6555 22.7965 13.6842C22.9644 13.7414 23.1421 13.77 23.3295 13.77C23.5559 13.77 23.766 13.7303 23.96 13.651C24.0132 13.6292 24.0653 13.6044 24.1161 13.5767C24.2152 13.5222 24.3059 13.4583 24.3881 13.385C24.5028 13.2827 24.6011 13.162 24.683 13.0229C24.6913 13.0089 24.6995 12.9946 24.7073 12.9803ZM14.5759 13.1943C14.3334 13.0976 14.0715 13.0493 13.7905 13.0493C13.5653 13.0493 13.3514 13.0834 13.1492 13.1516C13.0765 13.1761 13.0055 13.205 12.9358 13.2383L13.1423 11.6804L15.5264 11.6804L15.5264 10.7004L12.1799 10.7004L11.7383 14.2908L12.5293 14.6775C12.6724 14.4373 12.849 14.2669 13.059 14.1664C13.2101 14.094 13.3784 14.0579 13.5642 14.0579C13.8225 14.0579 14.0345 14.1198 14.2004 14.2436C14.2584 14.2869 14.3108 14.3378 14.3574 14.3962C14.3876 14.4338 14.4153 14.4729 14.4403 14.5135C14.5652 14.7156 14.6277 14.9563 14.6277 15.2356C14.6277 15.5171 14.5638 15.7576 14.436 15.9573C14.4108 15.9966 14.3832 16.0344 14.353 16.0706C14.2936 16.1414 14.2267 16.2008 14.1525 16.2487C13.9979 16.3482 13.8114 16.3979 13.5928 16.3979C13.4032 16.3979 13.2338 16.3591 13.0846 16.2815C13.0309 16.2535 12.9799 16.2206 12.9314 16.1826Q12.6567 15.9651 12.5205 15.5322L11.6021 16.064C11.7061 16.3824 11.8644 16.645 12.0769 16.8518C12.1608 16.9333 12.2529 17.0061 12.3535 17.0703C12.4095 17.1061 12.4669 17.1391 12.5259 17.1693C12.8428 17.3318 13.2013 17.4131 13.6016 17.4131C13.9366 17.4131 14.2472 17.3538 14.5331 17.2353C14.5996 17.2076 14.6649 17.1768 14.7288 17.1428C14.8827 17.0619 15.0221 16.9648 15.147 16.8517C15.2976 16.7151 15.427 16.5551 15.5352 16.3716C15.5416 16.3607 15.5479 16.3499 15.5541 16.3389C15.7407 16.0093 15.834 15.6269 15.834 15.1917C15.834 14.7725 15.7458 14.4013 15.5697 14.0782C15.5691 14.0773 15.5686 14.0764 15.5681 14.0754C15.4648 13.8868 15.3387 13.7226 15.1897 13.5827C15.083 13.4825 14.9645 13.3948 14.8342 13.3196C14.7507 13.2714 14.6647 13.2296 14.5759 13.1943ZM27.8668 10.7092L26.7418 10.7092L22.8087 17.3054L23.9337 17.3054L27.8668 10.7092ZM23.8556 11.7383C23.937 11.8603 23.9777 12.0095 23.9777 12.1858C23.9777 12.3609 23.937 12.5084 23.8556 12.6282C23.8369 12.6558 23.816 12.6819 23.7931 12.7065C23.7375 12.766 23.6757 12.8121 23.6073 12.8447C23.5242 12.8844 23.4316 12.9043 23.3295 12.9043C23.2396 12.9043 23.1569 12.8879 23.0813 12.8551C23.0052 12.8222 22.9363 12.7726 22.8746 12.7065C22.8517 12.6819 22.8308 12.6558 22.8121 12.6282C22.7307 12.5084 22.6901 12.3609 22.6901 12.1858C22.6901 12.0095 22.7307 11.8603 22.8121 11.7383C22.8308 11.7102 22.8517 11.6836 22.8746 11.6584C22.9386 11.5884 23.0103 11.5366 23.0896 11.503C23.163 11.4719 23.2429 11.4563 23.3295 11.4563C23.428 11.4563 23.5177 11.4752 23.5985 11.513C23.6703 11.5466 23.7352 11.595 23.7931 11.6584C23.816 11.6836 23.8369 11.7102 23.8556 11.7383ZM17.9119 14.0117Q17.9119 15.2004 18.1733 15.7849C18.2855 16.0357 18.436 16.2058 18.6246 16.2952C18.7291 16.3446 18.8452 16.3694 18.9731 16.3694C19.104 16.3694 19.2224 16.3437 19.3282 16.2923C19.5142 16.2022 19.6616 16.0331 19.7708 15.7849Q20.0278 15.2004 20.0278 14.0117Q20.0278 12.8142 19.7708 12.2253C19.6609 11.9736 19.5121 11.8026 19.3245 11.7122C19.2195 11.6617 19.1024 11.6365 18.9731 11.6365C18.8452 11.6365 18.7291 11.6612 18.6246 11.7107C18.436 11.8 18.2855 11.9702 18.1733 12.2209Q17.9119 12.8054 17.9119 14.0117ZM28.7046 16.6478C28.8361 16.4122 28.9017 16.14 28.9017 15.8311C28.9017 15.5133 28.8329 15.2354 28.6951 14.9975C28.6943 14.9963 28.6937 14.9951 28.693 14.9939C28.6125 14.8536 28.5153 14.7324 28.4009 14.63C28.3193 14.5571 28.2292 14.4938 28.1305 14.4402C28.0797 14.4124 28.0276 14.3876 27.9744 14.3658C27.7804 14.2865 27.5703 14.2468 27.3439 14.2468C27.1565 14.2468 26.9788 14.2755 26.8109 14.3327C26.7268 14.3613 26.6453 14.3972 26.566 14.4402C26.4817 14.486 26.4033 14.5391 26.3309 14.5994C26.1998 14.7086 26.0885 14.8416 25.9969 14.9983C25.9795 15.0284 25.9633 15.059 25.948 15.0901C25.84 15.3107 25.786 15.5576 25.786 15.8311C25.786 16.1351 25.8503 16.4036 25.979 16.6366C25.9849 16.6472 25.9908 16.6577 25.9969 16.6682C26.0824 16.8117 26.1849 16.9354 26.3047 17.0392C26.3843 17.1081 26.4713 17.1683 26.566 17.2197C26.6453 17.2627 26.7268 17.2986 26.8109 17.3272C26.9788 17.3845 27.1565 17.4131 27.3439 17.4131C27.5703 17.4131 27.7804 17.3734 27.9744 17.2941C28.0276 17.2723 28.0797 17.2475 28.1305 17.2197C28.2328 17.1642 28.3257 17.0984 28.4095 17.0225Q28.5754 16.8721 28.693 16.6682C28.6969 16.6614 28.7008 16.6547 28.7046 16.6478ZM27.87 15.3835C27.9514 15.5056 27.9921 15.6548 27.9921 15.8311C27.9921 16.0061 27.9514 16.1536 27.87 16.2735C27.8513 16.3011 27.8304 16.3272 27.8075 16.3518C27.752 16.4113 27.6901 16.4573 27.6217 16.49C27.5386 16.5297 27.446 16.5496 27.3439 16.5496C27.2389 16.5496 27.1444 16.5286 27.0603 16.4866C26.9955 16.4541 26.937 16.4092 26.8846 16.3518C26.8655 16.3307 26.8478 16.3086 26.8317 16.2854C26.7468 16.1634 26.7045 16.012 26.7045 15.8311C26.7045 15.6488 26.7469 15.4956 26.8318 15.3713C26.8479 15.3477 26.8655 15.3252 26.8846 15.3037C26.9393 15.2424 27.0009 15.195 27.0691 15.1616C27.1509 15.1216 27.2426 15.1016 27.3439 15.1016C27.4424 15.1016 27.5321 15.1205 27.6129 15.1582C27.6847 15.1918 27.7496 15.2403 27.8075 15.3037C27.8304 15.3289 27.8513 15.3555 27.87 15.3835ZM5.40002 20.9831C5.40002 28.5024 11.9359 34.5986 20.0007 34.5986L19.9993 34.6C28.0626 34.6 34.6 28.5024 34.6 20.9817C34.6 20.4073 34.561 19.8344 34.4844 19.2643C34.4758 19.2036 34.451 19.1495 34.4098 19.102C34.3685 19.0544 34.3169 19.0204 34.2551 19Q34.2099 18.9851 34.1639 18.982L34.1635 18.982L34.1622 18.9819L34.1622 18.9819Q34.1146 18.9789 34.0662 18.9886C34.002 19.0013 33.9462 19.0288 33.8987 19.071C31.1293 21.5868 27.1794 23.6782 19.9993 20.9817C13.1704 18.4182 8.83472 18.3118 6.18103 18.8833C6.08618 18.9041 5.99719 18.9379 5.91382 18.9848C5.83044 19.0317 5.75684 19.0894 5.69299 19.1579C5.62915 19.2264 5.57812 19.3024 5.53979 19.3859Q5.50598 19.4598 5.48746 19.5373L5.48726 19.5381L5.48721 19.5383L5.48717 19.5385L5.48716 19.5385Q5.47453 19.5918 5.46912 19.6467C5.42261 20.0866 5.40002 20.532 5.40002 20.9831Z" fill="rgb(128,128,128)" fill-rule="evenodd" />
</svg>
