<svg viewBox="0 0 16 16" xmlns="http://www.w3.org/2000/svg" xmlns:xlink="http://www.w3.org/1999/xlink" width="16.000000" height="16.000000" fill="none" customFrame="#000000">
	<g id="组合 14775">
		<rect id="退出-exit" width="16.000000" height="16.000000" x="0.000000" y="0.000000" />
		<path id="形状结合" d="M7.99371 1.5C9.26567 1.5 10.2715 2.63155 10.2715 4L10.2715 5.5C10.2715 5.77614 10.0476 6 9.77148 6C9.49535 6 9.27148 5.77614 9.27148 5.5L9.27148 4C9.27148 3.15931 8.68543 2.5 7.99371 2.5L3.54926 2.5C2.85754 2.5 2.27148 3.15931 2.27148 4L2.27148 12C2.27148 12.8407 2.85754 13.5 3.54926 13.5L7.99371 13.5C8.68543 13.5 9.27148 12.8407 9.27148 12L9.27148 10.5C9.27148 10.2239 9.49535 10 9.77148 10C10.0476 10 10.2715 10.2239 10.2715 10.5L10.2715 12C10.2715 13.3685 9.26567 14.5 7.99371 14.5L3.54926 14.5C2.2773 14.5 1.27148 13.3685 1.27148 12L1.27148 4C1.27148 2.63155 2.2773 1.5 3.54926 1.5L7.99371 1.5ZM11.9273 5.04076L14.5577 7.6712C14.7393 7.85279 14.7393 8.14721 14.5577 8.3288L11.9273 10.9592C11.7457 11.1408 11.4513 11.1408 11.2697 10.9592C11.0881 10.7776 11.0881 10.4832 11.2697 10.3016L13.1062 8.46467L5.77191 8.465C5.5151 8.465 5.30691 8.25681 5.30691 8C5.30691 7.74319 5.5151 7.535 5.77191 7.535L13.1055 7.53467L11.2697 5.69837C11.1083 5.53695 11.0903 5.28639 11.2159 5.10516C11.3975 4.92356 11.7457 4.85916 11.9273 5.04076Z" fill="rgb(25,25,25)" fill-rule="nonzero" />
	</g>
</svg>
