<svg
	viewBox="0 0 16 16"
	xmlns="http://www.w3.org/2000/svg"
	xmlns:xlink="http://www.w3.org/1999/xlink"
	width="16.000000"
	height="16.000000"
	fill="none"
>
	<rect
		id="更多"
		width="16.000000"
		height="16.000000"
		x="0.000000"
		y="0.000000"
		fill="rgb(255,255,255)"
		fill-opacity="0"
	/>
	<path
		id="矢量 8"
		d="M0 1.20001C0 0.537231 0.537109 0 1.2002 0C1.86279 0 2.3999 0.537231 2.3999 1.20001C2.3999 1.86273 1.86279 2.40002 1.2002 2.40002C0.537109 2.40002 0 1.86273 0 1.20001ZM5 1.20001C5 0.537231 5.53711 0 6.2002 0C6.86279 0 7.3999 0.537231 7.3999 1.20001C7.3999 1.86273 6.86279 2.40002 6.2002 2.40002C5.53711 2.40002 5 1.86273 5 1.20001ZM11.2002 0C10.5371 0 10 0.537231 10 1.20001C10 1.86273 10.5371 2.40002 11.2002 2.40002C11.8628 2.40002 12.3999 1.86273 12.3999 1.20001C12.3999 0.537231 11.8628 0 11.2002 0Z"
		fill="currentColor"
		fill-rule="evenodd"
		transform="matrix(0,1,-1,0,9.19995,1.79688)"
	/>
</svg>