<?xml version="1.0" encoding="utf-8"?>
<!-- Generator: Adobe Illustrator 26.0.2, SVG Export Plug-In . SVG Version: 6.00 Build 0)  -->
<svg version="1.1" id="图层_1" xmlns="http://www.w3.org/2000/svg" xmlns:xlink="http://www.w3.org/1999/xlink" x="0px" y="0px"
	 viewBox="0 0 48 48" style="enable-background:new 0 0 48 48;" xml:space="preserve">
<style type="text/css">
	.st0{fill-rule:evenodd;clip-rule:evenodd;fill:currentColor;}
</style>
<desc>Created with Pixso.</desc>
<path id="矢量_215" class="st0" d="M27,9c1.1,0,2,0.9,2,2v9c0,1.1-0.9,2-2,2H5c-1.1,0-2-0.9-2-2v-9c0-1.1,0.9-2,2-2H27z M37.8,18
	l6.3-6.3c0.4-0.4,0.4-0.9,0-1.3c-0.4-0.3-0.9-0.3-1.3,0l-5.8,5.8l-2.9-3.1c-0.3-0.4-0.9-0.4-1.3,0c-0.4,0.3-0.4,0.9,0,1.3l3.4,3.7
	c0,0.1,0.1,0.1,0.2,0.1c0.1,0,0.1,0.1,0.2,0.1c0.1,0,0.1,0,0.2,0.1c0.1,0,0.1,0,0.2,0c0.1,0,0.2,0,0.2,0s0.1,0,0.2-0.1
	c0.1,0,0.1-0.1,0.2-0.1C37.7,18.1,37.8,18.1,37.8,18z M27,10.8c0.1,0,0.2,0.1,0.2,0.2v9c0,0.1-0.1,0.2-0.2,0.2H5
	c-0.1,0-0.2-0.1-0.2-0.2v-9c0-0.1,0.1-0.2,0.2-0.2H27z M29,28.5c0-1.1-0.9-2-2-2H5c-1.1,0-2,0.9-2,2v9c0,1.1,0.9,2,2,2h22
	c1.1,0,2-0.9,2-2V28.5z M43.3,29.3l-3.3,3.3l3.2,3.2c0.3,0.4,0.3,0.9,0,1.3c-0.4,0.4-0.9,0.4-1.3,0l-3.2-3.2l-3.2,3.2
	c-0.3,0.4-0.9,0.4-1.3,0c-0.4-0.3-0.4-0.9,0-1.3l3.2-3.2l-3.3-3.3c-0.4-0.4-0.4-0.9,0-1.3c0.3-0.4,0.9-0.4,1.3,0l3.3,3.3l3.3-3.3
	c0.3-0.4,0.9-0.4,1.3,0C43.7,28.4,43.7,29,43.3,29.3z M27.2,28.5c0-0.1-0.1-0.2-0.2-0.2H5c-0.1,0-0.2,0.1-0.2,0.2v9
	c0,0.1,0.1,0.2,0.2,0.2h22c0.1,0,0.2-0.1,0.2-0.2V28.5z"/>
</svg>
