<svg viewBox="0 0 40 40" xmlns="http://www.w3.org/2000/svg" xmlns:xlink="http://www.w3.org/1999/xlink" width="40.000000" height="40.000000" fill="none">
	<rect id="互斥按钮组" width="40.000000" height="40.000000" x="0.000000" y="0.000000" fill="rgb(255,255,255)" fill-opacity="0" />
	<path id="矢量 584" d="M22 8C22 6.34314 20.6569 5 19 5L7 5C5.34314 5 4 6.34314 4 8L4 15.5C4 17.1569 5.34314 18.5 7 18.5L19 18.5C20.6569 18.5 22 17.1569 22 15.5L22 8ZM7 6.60001L19 6.60001Q19.1747 6.60001 19.3392 6.64083L19.3413 6.64134C19.4103 6.65862 19.478 6.68129 19.5444 6.70937C19.6171 6.74008 19.6861 6.77634 19.7517 6.81816C19.8372 6.87268 19.9165 6.93665 19.99 7.01006C20.0633 7.08345 20.1273 7.16287 20.1819 7.24831C20.2236 7.31384 20.2599 7.38292 20.2906 7.45555C20.3187 7.52193 20.3414 7.58965 20.3586 7.65872C20.3862 7.76903 20.4 7.8828 20.4 8L20.4 15.5C20.4 15.6172 20.3862 15.731 20.3586 15.8413C20.3414 15.9104 20.3187 15.9781 20.2906 16.0444C20.2599 16.1171 20.2236 16.1862 20.1819 16.2517C20.1273 16.3371 20.0633 16.4165 19.99 16.4899C19.9165 16.5633 19.8372 16.6273 19.7517 16.6818L19.7511 16.6822L19.7511 16.6822Q19.653 16.7447 19.5444 16.7906C19.478 16.8187 19.4104 16.8414 19.3413 16.8586C19.2309 16.8862 19.1172 16.9 19 16.9L7 16.9C6.88281 16.9 6.76904 16.8862 6.65869 16.8586C6.5896 16.8414 6.52197 16.8187 6.45557 16.7906C6.38293 16.7599 6.31384 16.7237 6.24829 16.6819C6.16284 16.6273 6.0835 16.5634 6.01001 16.4899C5.93664 16.4165 5.87268 16.3371 5.81811 16.2516C5.77637 16.1861 5.74011 16.1171 5.70935 16.0444C5.68127 15.9781 5.65857 15.9103 5.64136 15.8412C5.61377 15.7309 5.59997 15.6172 5.59997 15.5L5.59997 8C5.59997 7.8828 5.61377 7.76906 5.64136 7.65875C5.65857 7.58966 5.68127 7.52193 5.70935 7.45555C5.74011 7.38293 5.77637 7.31387 5.81811 7.24834C5.87268 7.16289 5.93664 7.08345 6.01001 7.01006C6.0835 6.93665 6.16284 6.87268 6.24829 6.81815C6.31384 6.77634 6.38293 6.74007 6.45557 6.70937C6.52197 6.68129 6.5896 6.65862 6.65869 6.64136C6.76904 6.61378 6.88281 6.60001 7 6.60001ZM29.9485 15.1859L35.9209 9.32079C36.2405 9.0069 36.245 8.50911 35.9311 8.18947C35.6172 7.86983 35.1194 7.86531 34.7998 8.17921L29.2506 13.6288L26.4785 10.9065C26.1589 10.5926 25.6611 10.5971 25.3473 10.9167C25.0333 11.2364 25.0378 11.7342 25.3574 12.0481L28.5527 15.1859C28.6476 15.2791 28.7568 15.3505 28.8801 15.3999C28.9388 15.4234 28.9988 15.4411 29.0597 15.453C29.1222 15.4652 29.1858 15.4713 29.2506 15.4713C29.3154 15.4713 29.379 15.4652 29.4415 15.453C29.5024 15.4411 29.5624 15.4234 29.6211 15.3999C29.7444 15.3505 29.8535 15.2791 29.9485 15.1859ZM19 21.499C20.6569 21.499 22 22.8422 22 24.499L22 31.999C22 33.6559 20.6569 34.999 19 34.999L7 34.999C5.34314 34.999 4 33.6559 4 31.999L4 24.499C4 22.8422 5.34314 21.499 7 21.499L19 21.499ZM19 23.099L7 23.099C6.88281 23.099 6.76904 23.1128 6.65869 23.1404C6.5896 23.1576 6.52197 23.1803 6.45557 23.2084C6.38293 23.2391 6.31384 23.2754 6.24829 23.3172C6.16284 23.3717 6.0835 23.4357 6.01001 23.5091C5.93664 23.5825 5.87268 23.6619 5.81811 23.7474C5.77637 23.8129 5.74011 23.882 5.70935 23.9546C5.68127 24.021 5.65857 24.0887 5.64136 24.1578C5.61377 24.2681 5.59997 24.3818 5.59997 24.499L5.59997 31.999C5.59997 32.1162 5.61377 32.23 5.64136 32.3403C5.65857 32.4093 5.68127 32.4771 5.70935 32.5435C5.74011 32.6161 5.77637 32.6852 5.81811 32.7507C5.87268 32.8361 5.93664 32.9156 6.01001 32.989C6.0835 33.0624 6.16284 33.1263 6.24829 33.1809C6.31384 33.2227 6.38293 33.259 6.45557 33.2897C6.52197 33.3177 6.5896 33.3404 6.65869 33.3577C6.76904 33.3852 6.88281 33.399 7 33.399L19 33.399C19.1172 33.399 19.2309 33.3852 19.3413 33.3577C19.4104 33.3404 19.478 33.3177 19.5444 33.2897Q19.6531 33.2437 19.7511 33.1812L19.7517 33.1808C19.8372 33.1263 19.9165 33.0624 19.99 32.989C20.0633 32.9156 20.1273 32.8362 20.1819 32.7507C20.2236 32.6852 20.2599 32.6161 20.2906 32.5435C20.3187 32.4771 20.3414 32.4094 20.3586 32.3403C20.3862 32.23 20.4 32.1162 20.4 31.999L20.4 24.499C20.4 24.3818 20.3862 24.2681 20.3586 24.1577C20.3414 24.0887 20.3187 24.021 20.2906 23.9546C20.2599 23.8819 20.2236 23.8129 20.1819 23.7473C20.1273 23.6619 20.0633 23.5825 19.99 23.5091C19.9165 23.4357 19.8372 23.3717 19.7517 23.3172C19.6861 23.2754 19.6171 23.2391 19.5444 23.2084C19.478 23.1803 19.4103 23.1576 19.3413 23.1404L19.3392 23.1398Q19.1747 23.099 19 23.099ZM26.6022 30.4546L29.5849 27.5254L26.5893 24.5894C26.2694 24.2758 26.2689 23.7826 26.5882 23.4684C26.9076 23.1542 27.4098 23.1537 27.7297 23.4673L30.7264 26.4044L33.7451 23.4399C34.0648 23.126 34.5671 23.126 34.8867 23.4399C35.2064 23.7538 35.2064 24.2471 34.8867 24.5609L31.8691 27.5243L34.8681 30.4637C35.1881 30.7773 35.1886 31.2706 34.8692 31.5848C34.5499 31.899 34.0476 31.8995 33.7276 31.5859L30.7276 28.6454L27.7438 31.5757C27.4241 31.8896 26.9217 31.8896 26.6022 31.5757C26.2825 31.2617 26.2825 30.7685 26.6022 30.4546Z" fill="currentColor" fill-rule="evenodd" />
</svg>
