<?xml version="1.0" encoding="utf-8"?>
<!-- Generator: Adobe Illustrator 26.0.2, SVG Export Plug-In . SVG Version: 6.00 Build 0)  -->
<svg version="1.1" id="图层_1" xmlns="http://www.w3.org/2000/svg" xmlns:xlink="http://www.w3.org/1999/xlink" x="0px" y="0px"
	 viewBox="0 0 48 48" style="enable-background:new 0 0 48 48;" xml:space="preserve">
<style type="text/css">
	.st0{fill-rule:evenodd;clip-rule:evenodd;fill:currentColor;}
</style>
<desc>Created with Pixso.</desc>
<path id="矢量_209" class="st0" d="M40,8c1.7,0,3,1.3,3,3v27c0,1.7-1.3,3-3,3H8c-1.7,0-3-1.3-3-3V11c0-1.7,1.3-3,3-3H40z
	 M22.7,9.8v29.4H40c0.7,0,1.2-0.5,1.2-1.2V11c0-0.7-0.5-1.2-1.2-1.2H22.7z M20.9,39.2v-8.3H6.8V38c0,0.7,0.5,1.2,1.2,1.2H20.9z
	 M20.9,29.1v-9.3H6.8v9.3H20.9z M20.9,18.1V9.8H8c-0.7,0-1.2,0.5-1.2,1.2v7.1H20.9z M9.5,12.8c0-0.6,0.4-1,1-1h6.8c0.6,0,1,0.4,1,1
	v2.4c0,0.6-0.4,1-1,1h-6.8c-0.6,0-1-0.5-1-1V12.8z M16.5,13.6h-5.2v0.8h5.2V13.6z M9.5,23.4c0-0.6,0.4-1,1-1h6.8c0.6,0,1,0.4,1,1
	v2.4c0,0.6-0.4,1-1,1h-6.8c-0.6,0-1-0.4-1-1V23.4z M16.5,24.2h-5.2V25h5.2V24.2z M9.5,33.9c0-0.6,0.4-1,1-1h6.8c0.6,0,1,0.4,1,1v2.4
	c0,0.6-0.4,1-1,1h-6.8c-0.6,0-1-0.4-1-1V33.9z M16.5,34.7h-5.2v0.8h5.2V34.7z"/>
</svg>
