<?xml version="1.0" encoding="utf-8"?>
<!-- Generator: Adobe Illustrator 26.0.2, SVG Export Plug-In . SVG Version: 6.00 Build 0)  -->
<svg version="1.1" id="图层_1" xmlns="http://www.w3.org/2000/svg" xmlns:xlink="http://www.w3.org/1999/xlink" x="0px" y="0px"
	 viewBox="0 0 48 48" style="enable-background:new 0 0 48 48;" xml:space="preserve">
<style type="text/css">
	.st0{fill-rule:evenodd;clip-rule:evenodd;fill:currentColor;}
</style>
<desc>Created with Pixso.</desc>
<path id="矢量_199__x28_边框_x29_" class="st0" d="M5,10c0-0.1,0-0.1,0-0.2C5.1,8.2,6.4,7,8,7h32c1.6,0,2.9,1.3,3,2.9L43,38
	c-0.1,1.6-1.4,3-3,3H8c-1.6,0-2.9-1.3-3-2.9V10z M40,8.8c0.6,0,1.2,0.6,1.2,1.2v9.7H6.8V10c0-0.7,0.5-1.2,1.2-1.2H40z M9.5,12.5v3.4
	c0,0.6,0.4,1,1,1h6c0.5,0,1-0.4,1-1v-3.4c0-0.6-0.5-1-1-1h-6C9.9,11.5,9.5,11.9,9.5,12.5z M20,15.9v-3.4c0-0.6,0.4-1,1-1h6
	c0.5,0,1,0.4,1,1v3.4c0,0.6-0.5,1-1,1h-6C20.4,16.9,20,16.5,20,15.9z M30.5,12.5v3.4c0,0.6,0.4,1,1,1h6c0.5,0,1-0.4,1-1v-3.4
	c0-0.6-0.5-1-1-1h-6C30.9,11.5,30.5,11.9,30.5,12.5z M11.3,15.1v-1.8h4.4v1.8H11.3z M21.8,15.1v-1.8h4.4v1.8H21.8z M32.3,15.1v-1.8
	h4.4v1.8H32.3z M6.8,21.5h34.4V38c0,0.7-0.5,1.2-1.2,1.2H8c-0.7,0-1.2-0.5-1.2-1.2V21.5z"/>
</svg>
