<svg viewBox="0 0 40 40" xmlns="http://www.w3.org/2000/svg" xmlns:xlink="http://www.w3.org/1999/xlink" width="40.000000" height="40.000000" fill="none">
	<rect id="横向导航条" width="40.000000" height="40.000000" x="0.000000" y="0.000000" fill="rgb(255,255,255)" fill-opacity="0" />
	<path id="矢量 569" d="M37.5 6.95C37.5 5.18269 36.0673 3.75 34.3 3.75L5.69995 3.75C3.93274 3.75 2.5 5.18269 2.5 6.95L2.5 33.05C2.5 34.8173 3.93274 36.25 5.69995 36.25L34.3 36.25C36.0673 36.25 37.5 34.8173 37.5 33.05L37.5 6.95ZM35.9 15.825L35.9 6.95C35.9 6.81783 35.8846 6.68943 35.8539 6.56482C35.834 6.48419 35.8076 6.40515 35.7749 6.3277C35.7395 6.24387 35.6975 6.16419 35.6492 6.08865C35.5872 5.99184 35.5145 5.90184 35.4314 5.81863C35.3481 5.7354 35.2581 5.66278 35.1613 5.60078C35.0857 5.55242 35.0061 5.51052 34.9224 5.47508Q34.8064 5.42606 34.6858 5.39625L34.6854 5.39616L34.6853 5.39613C34.5607 5.36538 34.4323 5.35 34.3 5.35L5.69995 5.35C5.56775 5.35 5.43933 5.36537 5.3147 5.39613C5.23413 5.41601 5.15515 5.44233 5.07776 5.47508C4.9939 5.51054 4.91418 5.55246 4.83862 5.60084L4.83862 5.60085C4.74182 5.66283 4.65186 5.73543 4.5686 5.81863C4.48547 5.90183 4.41284 5.99183 4.35083 6.08862C4.30249 6.16417 4.2605 6.24387 4.2251 6.3277C4.19238 6.40513 4.16602 6.48414 4.14612 6.56474L4.14601 6.56518Q4.09998 6.75191 4.09998 6.95L4.09998 15.825L35.9 15.825ZM4.09998 17.425L4.09998 33.05C4.09998 33.1822 4.11536 33.3106 4.14612 33.4353C4.16602 33.5159 4.19238 33.5949 4.2251 33.6723C4.2605 33.7561 4.30249 33.8358 4.35083 33.9114C4.41284 34.0082 4.48547 34.0982 4.5686 34.1814C4.65186 34.2646 4.74182 34.3372 4.83862 34.3992Q4.95197 34.4717 5.07776 34.5249C5.15515 34.5577 5.23413 34.584 5.3147 34.6039C5.43933 34.6346 5.56775 34.65 5.69995 34.65L34.3 34.65C34.4323 34.65 34.5607 34.6346 34.6853 34.6039C34.7659 34.584 34.8448 34.5577 34.9224 34.5249C35.0061 34.4895 35.0857 34.4476 35.1613 34.3992C35.2581 34.3372 35.3481 34.2646 35.4314 34.1814C35.5146 34.0981 35.5873 34.0081 35.6492 33.9113C35.6976 33.8358 35.7395 33.7561 35.7749 33.6723C35.8077 33.5948 35.834 33.5158 35.8539 33.4352C35.8846 33.3106 35.9 33.1822 35.9 33.05L35.9 17.425L4.09998 17.425ZM13 7.75C13.5522 7.75 14 8.19772 14 8.75L14 12.75C14 13.3023 13.5522 13.75 13 13.75L7.5 13.75C6.94775 13.75 6.5 13.3023 6.5 12.75L6.5 8.75C6.5 8.19772 6.94775 7.75 7.5 7.75L13 7.75ZM23.75 8.75C23.75 8.19772 23.3022 7.75 22.75 7.75L17.25 7.75C16.6978 7.75 16.25 8.19772 16.25 8.75L16.25 12.75C16.25 13.3023 16.6978 13.75 17.25 13.75L22.75 13.75C23.3022 13.75 23.75 13.3023 23.75 12.75L23.75 8.75ZM32.5 7.75C33.0522 7.75 33.5 8.19772 33.5 8.75L33.5 12.75C33.5 13.3023 33.0522 13.75 32.5 13.75L27 13.75C26.4478 13.75 26 13.3023 26 12.75L26 8.75C26 8.19772 26.4478 7.75 27 7.75L32.5 7.75ZM8.09998 9.35L12.4 9.35L12.4 12.15L8.09998 12.15L8.09998 9.35ZM22.15 9.35L17.85 9.35L17.85 12.15L22.15 12.15L22.15 9.35ZM27.6 9.35L31.9 9.35L31.9 12.15L27.6 12.15L27.6 9.35Z" fill="currentColor" fill-rule="evenodd" />
</svg>
