<svg
	viewBox="0 0 16 16"
	xmlns="http://www.w3.org/2000/svg"
	xmlns:xlink="http://www.w3.org/1999/xlink"
	width="16.000000"
	height="16.000000"
	fill="none"
>
	<rect
		id="嵌套视图"
		width="16.000000"
		height="16.000000"
		x="0.000000"
		y="0.000000"
		fill="rgb(255,255,255)"
		fill-opacity="0"
	/>
	<path
		id="矢量 678"
		d="M9 2C9.82837 2 10.5 2.67188 10.5 3.5L10.5 6L13 6C13.8284 6 14.5 6.67188 14.5 7.5L14.5 12.5C14.5 13.3281 13.8284 14 13 14L7 14C6.17163 14 5.5 13.3281 5.5 12.5L5.5 10L3 10C2.17163 10 1.5 9.32812 1.5 8.5L1.5 3.5C1.5 2.67188 2.17163 2 3 2L9 2ZM6.5 10L6.5 12.5C6.5 12.5703 6.51221 12.6328 6.53662 12.6953C6.56104 12.75 6.59766 12.8047 6.64648 12.8516C6.69531 12.9062 6.74902 12.9375 6.80811 12.9609C6.86694 12.9844 6.93091 13 7 13L13 13C13.0691 13 13.1331 12.9844 13.1919 12.9609C13.251 12.9375 13.3047 12.9062 13.3535 12.8516C13.4023 12.8047 13.439 12.75 13.4634 12.6953C13.4878 12.6328 13.5 12.5703 13.5 12.5L13.5 7.5C13.5 7.42969 13.4878 7.36719 13.4634 7.30469C13.439 7.25 13.4023 7.19531 13.3535 7.14844C13.3047 7.09375 13.251 7.0625 13.1919 7.03906C13.1331 7.01562 13.0691 7 13 7L10.5 7L10.5 8.5C10.5 9.32812 9.82837 10 9 10L6.5 10ZM9.5 7L9.5 8.5C9.5 8.57031 9.48779 8.63281 9.46338 8.69531C9.43896 8.75 9.40234 8.80469 9.35352 8.85156C9.30469 8.90625 9.25098 8.9375 9.19189 8.96094C9.13306 8.98438 9.06909 9 9 9L6.5 9L6.5 7.5C6.5 7.42969 6.51221 7.36719 6.53662 7.30469C6.56104 7.25 6.59766 7.19531 6.64648 7.14844C6.69531 7.09375 6.74902 7.0625 6.80811 7.03906C6.86694 7.01562 6.93091 7 7 7L9.5 7ZM9.5 6L7 6C6.17163 6 5.5 6.67188 5.5 7.5L5.5 9L3 9C2.93091 9 2.86694 8.98438 2.80811 8.96094C2.74902 8.9375 2.69531 8.90625 2.64648 8.85156C2.59766 8.80469 2.56104 8.75 2.53662 8.69531C2.51221 8.63281 2.5 8.57031 2.5 8.5L2.5 3.5C2.5 3.42969 2.51221 3.36719 2.53662 3.30469C2.56104 3.25 2.59766 3.19531 2.64648 3.14844C2.69531 3.09375 2.74902 3.0625 2.80811 3.03906C2.86694 3.01562 2.93091 3 3 3L9 3C9.06909 3 9.13306 3.01562 9.19189 3.03906C9.25098 3.0625 9.30469 3.09375 9.35352 3.14844C9.40234 3.19531 9.43896 3.25 9.46338 3.30469C9.48779 3.36719 9.5 3.42969 9.5 3.5L9.5 6Z"
		fill="currentColor"
		fill-rule="evenodd"
	/>
</svg>
