<?xml version="1.0" encoding="utf-8"?>
<!-- Generator: Adobe Illustrator 26.0.2, SVG Export Plug-In . SVG Version: 6.00 Build 0)  -->
<svg version="1.1" id="图层_1" xmlns="http://www.w3.org/2000/svg" xmlns:xlink="http://www.w3.org/1999/xlink" x="0px" y="0px"
	 viewBox="0 0 48 48" style="enable-background:new 0 0 48 48;" xml:space="preserve">
<style type="text/css">
	.st0{fill-rule:evenodd;clip-rule:evenodd;fill:currentColor;}
</style>
<desc>Created with Pixso.</desc>
<path id="矢量_211" class="st0" d="M42,10c0-1.7-1.3-3-3-3H8c-1.7,0-3,1.3-3,3v9c0,1.6,1.3,3,3,3h31c1.7,0,3-1.4,3-3V10z M40.2,10
	c0-0.7-0.5-1.2-1.2-1.2H8c-0.7,0-1.2,0.5-1.2,1.2v9c0,0.7,0.5,1.2,1.2,1.2h31c0.7,0,1.2-0.5,1.2-1.2V10z M11,15.4h7
	c0.5,0,0.9-0.4,0.9-0.9c0-0.5-0.4-0.9-0.9-0.9h-7c-0.5,0-0.9,0.4-0.9,0.9C10.1,15,10.5,15.4,11,15.4z M42,29c0-1.7-1.3-3-3-3H8
	c-1.7,0-3,1.3-3,3v9c0,1.7,1.3,3,3,3h31c1.7,0,3-1.3,3-3V29z M40.2,29c0-0.7-0.5-1.2-1.2-1.2H8c-0.7,0-1.2,0.5-1.2,1.2v9
	c0,0.7,0.5,1.2,1.2,1.2h31c0.7,0,1.2-0.5,1.2-1.2V29z M31.6,34.4V37c0,0.5,0.4,0.9,0.9,0.9c0.5,0,0.9-0.4,0.9-0.9v-2.6H36
	c0.5,0,0.9-0.4,0.9-0.9c0-0.5-0.4-0.9-0.9-0.9h-2.6V30c0-0.5-0.4-0.9-0.9-0.9c-0.5,0-0.9,0.4-0.9,0.9v2.6H29c-0.5,0-0.9,0.4-0.9,0.9
	c0,0.5,0.4,0.9,0.9,0.9H31.6z"/>
</svg>
