<svg id="图层_1" data-name="图层 1" xmlns="http://www.w3.org/2000/svg" viewBox="0 0 16 16"><defs><style>.cls-1{fill:currentColor;fill-rule:evenodd;}</style></defs><path id="矢量_49" data-name="矢量 49" class="cls-1" d="M14,4a1.99944,1.99944,0,0,0-2-2H4A1.99309,1.99309,0,0,0,2,4v9a1.99944,1.99944,0,0,0,2,2h8a2.00588,2.00588,0,0,0,2-2ZM13,4a.99654.99654,0,0,0-1-1H4A.99029.99029,0,0,0,3,4v9a.99654.99654,0,0,0,1,1h8a1.00294,1.00294,0,0,0,1-1ZM5,5.5a.48907.48907,0,0,0-.5.5.49514.49514,0,0,0,.5.5h6a.50145.50145,0,0,0,.5-.5.49508.49508,0,0,0-.5-.5ZM4.5,9A.48907.48907,0,0,1,5,8.5H8a.49508.49508,0,0,1,.5.5.50145.50145,0,0,1-.5.5H5A.49514.49514,0,0,1,4.5,9Z"/></svg>