<svg viewBox="0 0 40 40" xmlns="http://www.w3.org/2000/svg" xmlns:xlink="http://www.w3.org/1999/xlink" width="40.000000" height="40.000000" fill="none">
	<rect id="页面模型" width="40.000000" height="40.000000" x="0.000000" y="0.000000" fill="rgb(255,255,255)" fill-opacity="0" />
	<path id="矢量 615" d="M8.54102 36.25L31.4089 36.25C33.0332 36.25 34.35 34.9333 34.35 33.309L34.35 12.9892C34.35 12.2713 34.0874 11.5782 33.6118 11.0405L28.0404 4.74237C27.4822 4.11133 26.6801 3.75 25.8375 3.75L8.54102 3.75C6.91675 3.75 5.59998 5.06674 5.59998 6.69104L5.59998 33.309C5.59998 34.9333 6.91675 36.25 8.54102 36.25ZM31.4089 34.65L8.54102 34.65C8.42822 34.65 8.31885 34.6367 8.21277 34.61C8.14709 34.5936 8.08264 34.572 8.01953 34.5453C7.9502 34.516 7.88428 34.4814 7.82166 34.4415C7.73962 34.3892 7.66333 34.3277 7.59277 34.2572C7.52222 34.1867 7.46082 34.1104 7.40845 34.0283C7.36865 33.9657 7.33398 33.8998 7.30469 33.8305C7.27795 33.7673 7.25647 33.7029 7.23987 33.6372C7.21326 33.5312 7.19995 33.4217 7.19995 33.309L7.19995 6.69104C7.19995 6.57828 7.21326 6.46887 7.23987 6.36279C7.25635 6.29709 7.27795 6.23267 7.30469 6.16956C7.33398 6.10022 7.36865 6.03427 7.40857 5.97168L7.40857 5.97159Q7.40951 5.97011 7.41046 5.96863L7.41047 5.96862L7.41048 5.96861Q7.4884 5.84721 7.59277 5.7428Q7.69861 5.63701 7.82166 5.5585C7.88428 5.51865 7.9502 5.48404 8.01953 5.45474C8.08264 5.42804 8.14709 5.40643 8.21277 5.38995C8.31885 5.36331 8.42822 5.35001 8.54102 5.35001L25.8375 5.35001C25.9336 5.35001 26.0276 5.35986 26.1194 5.37961C26.2112 5.39932 26.3008 5.42889 26.3883 5.46835C26.476 5.50778 26.5575 5.55536 26.6331 5.61102C26.7086 5.66672 26.7783 5.73056 26.8419 5.80249L32.4133 12.1006C32.4675 12.1619 32.5155 12.2269 32.557 12.2958C32.5986 12.3647 32.634 12.4375 32.663 12.5141C32.692 12.5906 32.7137 12.6685 32.7283 12.7477C32.7427 12.8269 32.75 12.9073 32.75 12.9892L32.75 33.309C32.75 33.4217 32.7367 33.5312 32.7101 33.6372C32.6935 33.7029 32.672 33.7673 32.6453 33.8304C32.616 33.8998 32.5813 33.9657 32.5415 34.0283C32.4891 34.1104 32.4277 34.1867 32.3572 34.2572C32.2866 34.3277 32.2103 34.3892 32.1282 34.4415C32.0657 34.4814 31.9998 34.516 31.9304 34.5453C31.8673 34.572 31.8029 34.5936 31.7372 34.6101C31.6311 34.6367 31.5217 34.65 31.4089 34.65ZM13.7 14.8L26.2 14.8C26.6479 14.8 26.9999 14.448 26.9999 14C26.9999 13.552 26.6479 13.2 26.2 13.2L13.7 13.2C13.252 13.2 12.8999 13.552 12.8999 14C12.8999 14.448 13.252 14.8 13.7 14.8ZM26.2 20.8L13.7 20.8C13.252 20.8 12.8999 20.448 12.8999 20C12.8999 19.552 13.252 19.2 13.7 19.2L26.2 19.2C26.6479 19.2 26.9999 19.552 26.9999 20C26.9999 20.448 26.6479 20.8 26.2 20.8ZM13.7 26.8L26.2 26.8C26.6479 26.8 26.9999 26.448 26.9999 26C26.9999 25.552 26.6479 25.2 26.2 25.2L13.7 25.2C13.252 25.2 12.8999 25.552 12.8999 26C12.8999 26.448 13.252 26.8 13.7 26.8Z" fill="currentColor" fill-rule="evenodd" />
</svg>
