<svg id="图层_1" data-name="图层 1" xmlns="http://www.w3.org/2000/svg" viewBox="0 0 16 16"><defs><style>.cls-1{fill:currentColor;fill-rule:evenodd;}</style></defs><path id="矢量_48" data-name="矢量 48" class="cls-1" d="M6,1h6a2.325,2.325,0,0,1,.53.05,3.2211,3.2211,0,0,1,.44.14,1.94035,1.94035,0,0,1,.4.22,2.37112,2.37112,0,0,1,.39.32,2.52361,2.52361,0,0,1,.54.79,2.25346,2.25346,0,0,1,.14.44,2.35168,2.35168,0,0,1,.06.54v5A.50145.50145,0,0,1,14,9a.49514.49514,0,0,1-.5-.5v-5a1.48218,1.48218,0,0,0-.12-.59,1.70985,1.70985,0,0,0-.13-.23,1.49968,1.49968,0,0,0-.19-.25,1.49968,1.49968,0,0,0-.25-.19,1.70985,1.70985,0,0,0-.23-.13,1.82854,1.82854,0,0,0-.25-.08A1.761,1.761,0,0,0,12,2H6a.49514.49514,0,0,1-.5-.5A.48907.48907,0,0,1,6,1Zm4,2.5a1.99944,1.99944,0,0,1,2,2v8a2.00588,2.00588,0,0,1-2,2H3a1.99944,1.99944,0,0,1-2-2v-8a1.99309,1.99309,0,0,1,2-2Zm0,1a.99654.99654,0,0,1,1,1v8a1.00294,1.00294,0,0,1-1,1H3a.99654.99654,0,0,1-1-1v-8a.99029.99029,0,0,1,1-1Zm-6.5,3A.48907.48907,0,0,1,4,7H9a.49508.49508,0,0,1,.5.5A.50145.50145,0,0,1,9,8H4A.49514.49514,0,0,1,3.5,7.5ZM4,10a.48907.48907,0,0,0-.5.5A.49514.49514,0,0,0,4,11H7a.50145.50145,0,0,0,.5-.5A.49508.49508,0,0,0,7,10Z"/></svg>