<svg viewBox="0 0 40 40" xmlns="http://www.w3.org/2000/svg" xmlns:xlink="http://www.w3.org/1999/xlink" width="40.000000" height="40.000000" fill="none">
	<rect id="分页" width="40.000000" height="40.000000" x="0.000000" y="0.000000" fill="rgb(255,255,255)" fill-opacity="0" />
	<path id="矢量 547" d="M14.5 6.7L3 6.7C2.552 6.7 2.19995 7.052 2.19995 7.5C2.19995 7.948 2.552 8.3 3 8.3L14.5 8.3C14.6337 8.3 14.7638 8.31488 14.8905 8.34465C14.9827 8.36632 15.073 8.39584 15.1614 8.43326C15.2539 8.47235 15.3416 8.51881 15.4244 8.5726Q15.5735 8.6694 15.702 8.79791C15.7877 8.88361 15.8628 8.97615 15.9274 9.07556C15.9812 9.15845 16.0276 9.24609 16.0667 9.33853C16.1041 9.42697 16.1337 9.51727 16.1553 9.60942C16.1851 9.73611 16.2 9.8663 16.2 10L16.2 30C16.2 30.1337 16.1851 30.2639 16.1553 30.3905C16.1337 30.4827 16.1041 30.573 16.0667 30.6615C16.0276 30.7539 15.9812 30.8415 15.9274 30.9244C15.8628 31.0238 15.7877 31.1164 15.702 31.2021C15.6163 31.2878 15.5238 31.3629 15.4244 31.4274C15.3416 31.4812 15.2539 31.5276 15.1614 31.5667C15.073 31.6041 14.9827 31.6337 14.8905 31.6553C14.7638 31.6851 14.6337 31.7 14.5 31.7L3 31.7C2.552 31.7 2.19995 32.052 2.19995 32.5C2.19995 32.948 2.552 33.3 3 33.3L14.5 33.3C14.7417 33.3 14.978 33.2747 15.2086 33.2241C15.4047 33.1811 15.5967 33.1199 15.7847 33.0403C15.9729 32.9607 16.1509 32.8655 16.3185 32.7547C16.5026 32.6331 16.6742 32.4927 16.8334 32.3335C16.9927 32.1742 17.1331 32.0025 17.2548 31.8185C17.3655 31.6508 17.4607 31.4729 17.5403 31.2848C17.6198 31.0968 17.681 30.9048 17.724 30.7088C17.7747 30.4781 17.7999 30.2418 17.7999 30L17.7999 10C17.7999 9.75822 17.7747 9.52199 17.7241 9.29131C17.681 9.09528 17.6199 8.90326 17.5403 8.71524C17.4607 8.52701 17.3655 8.34909 17.2546 8.18146C17.1331 7.99741 16.9927 7.82576 16.8334 7.66655Q16.5958 7.42893 16.3214 7.24712L16.3185 7.24522C16.1509 7.13446 15.9729 7.03926 15.7847 6.95966C15.5967 6.88014 15.4047 6.81888 15.2087 6.77589C14.978 6.7253 14.7417 6.7 14.5 6.7ZM25.5 6.7L37 6.7C37.448 6.7 37.8 7.052 37.8 7.5C37.8 7.948 37.448 8.3 37 8.3L25.5 8.3C25.3663 8.3 25.2362 8.31488 25.1095 8.34465C25.0173 8.36632 24.927 8.39584 24.8386 8.43326C24.7461 8.47235 24.6584 8.51881 24.5756 8.5726Q24.4265 8.6694 24.298 8.79791C24.2123 8.88361 24.1372 8.97615 24.0726 9.07556C24.0188 9.15845 23.9724 9.24609 23.9333 9.33853C23.8959 9.42697 23.8663 9.51727 23.8447 9.60942C23.8149 9.73611 23.8 9.8663 23.8 10L23.8 30C23.8 30.1337 23.8149 30.2639 23.8447 30.3905C23.8663 30.4827 23.8959 30.573 23.9333 30.6615C23.9724 30.7539 24.0188 30.8415 24.0726 30.9244C24.1372 31.0238 24.2123 31.1164 24.298 31.2021C24.3837 31.2878 24.4762 31.3629 24.5756 31.4274C24.6584 31.4812 24.7461 31.5276 24.8386 31.5667C24.927 31.6041 25.0173 31.6337 25.1095 31.6553C25.2362 31.6851 25.3663 31.7 25.5 31.7L37 31.7C37.448 31.7 37.8 32.052 37.8 32.5C37.8 32.948 37.448 33.3 37 33.3L25.5 33.3C25.2583 33.3 25.022 33.2747 24.7914 33.2241C24.5953 33.1811 24.4033 33.1199 24.2153 33.0403C24.0271 32.9607 23.8491 32.8655 23.6815 32.7547C23.4974 32.6331 23.3258 32.4927 23.1666 32.3335C23.0073 32.1742 22.8669 32.0025 22.7452 31.8185C22.6345 31.6508 22.5393 31.4729 22.4597 31.2848C22.3802 31.0968 22.319 30.9048 22.276 30.7088C22.2253 30.4781 22.2001 30.2418 22.2001 30L22.2001 10C22.2001 9.75822 22.2253 9.52199 22.2759 9.29131C22.319 9.09528 22.3801 8.90326 22.4597 8.71524C22.5393 8.52701 22.6345 8.34909 22.7454 8.18146C22.8669 7.99741 23.0073 7.82576 23.1666 7.66655Q23.4042 7.42893 23.6786 7.24712L23.6815 7.24522C23.8491 7.13446 24.0271 7.03926 24.2153 6.95966C24.4033 6.88014 24.5953 6.81888 24.7913 6.77589C25.022 6.7253 25.2583 6.7 25.5 6.7ZM7.44568 19.9994L11.7826 16.094C12.1156 15.7942 12.1416 15.2971 11.8418 14.9642C11.542 14.6313 11.0449 14.6052 10.7119 14.905L6.0448 19.1077C5.97754 19.1683 5.91846 19.2346 5.86743 19.3068C5.82043 19.3733 5.78027 19.4447 5.74707 19.5211C5.71484 19.5955 5.69031 19.6716 5.67383 19.7494Q5.64783 19.8717 5.64783 19.9996C5.64783 20.0848 5.65649 20.1682 5.67395 20.2498C5.69043 20.3276 5.71497 20.4037 5.74731 20.4781C5.7804 20.5544 5.82056 20.6259 5.86755 20.6924C5.91858 20.7645 5.97778 20.8308 6.04504 20.8914L10.7148 25.0941C11.0479 25.3938 11.5449 25.3677 11.8446 25.0347C12.1443 24.7017 12.1182 24.2046 11.7852 23.9049L7.44568 19.9994ZM33.8043 19.9994L29.4674 16.094C29.1344 15.7942 29.1084 15.2971 29.4082 14.9642C29.708 14.6313 30.2051 14.6052 30.5381 14.905L35.2052 19.1077C35.2725 19.1683 35.3315 19.2346 35.3826 19.3068C35.4296 19.3733 35.4697 19.4447 35.5029 19.5211C35.5352 19.5955 35.5597 19.6716 35.5762 19.7494Q35.6022 19.8717 35.6022 19.9996C35.6022 20.0848 35.5935 20.1682 35.576 20.2498C35.5596 20.3276 35.535 20.4037 35.5027 20.4781C35.4696 20.5544 35.4294 20.6259 35.3824 20.6924C35.3314 20.7645 35.2722 20.8308 35.205 20.8914L30.5352 25.0941C30.2021 25.3938 29.7051 25.3677 29.4054 25.0347C29.1057 24.7017 29.1318 24.2046 29.4648 23.9049L33.8043 19.9994Z" fill="currentColor" fill-rule="evenodd" />
</svg>
