<?xml version="1.0" encoding="utf-8"?>
<!-- Generator: Adobe Illustrator 26.0.2, SVG Export Plug-In . SVG Version: 6.00 Build 0)  -->
<svg version="1.1" id="图层_1" xmlns="http://www.w3.org/2000/svg" xmlns:xlink="http://www.w3.org/1999/xlink" x="0px" y="0px"
	 viewBox="0 0 48 48" style="enable-background:new 0 0 48 48;" xml:space="preserve">
<style type="text/css">
	.st0{fill-rule:evenodd;clip-rule:evenodd;fill:currentColor;}
</style>
<desc>Created with Pixso.</desc>
<path id="矢量_177" class="st0" d="M20.9,31.5l4.3-14.4c0.1-0.5-0.1-1-0.6-1.1c-0.5-0.1-1,0.1-1.1,0.6L19.2,31
	c-0.1,0.5,0.1,1,0.6,1.1C20.3,32.3,20.8,32,20.9,31.5z M17,30.9V17h-1.8c-1.2,0.9-2.6,1.6-4.2,2v2.4c0.5-0.1,1.1-0.2,1.7-0.5
	c0.6-0.2,1.1-0.5,1.4-0.8v10.7H17z M30,28.5h5.8v2.4h-9.1v-1c0-0.7,0.1-1.4,0.4-1.9c0.3-0.6,0.6-1.1,1.1-1.6
	c0.5-0.5,1.2-1.1,2.1-1.8c0.9-0.6,1.5-1.2,1.8-1.7c0.4-0.5,0.5-1,0.5-1.6c0-1.2-0.7-1.8-2-1.8c-1.2,0-2.3,0.5-3.4,1.4v-2.5
	c0.4-0.3,0.9-0.5,1.4-0.7c0.8-0.3,1.7-0.5,2.6-0.5c1.4,0,2.4,0.4,3.2,1.1c0.2,0.2,0.4,0.4,0.6,0.7c0.4,0.6,0.6,1.3,0.6,2.2
	c0,0.7-0.1,1.3-0.3,1.8c-0.2,0.5-0.6,1.1-1,1.5c-0.4,0.5-1.1,1.1-2.1,1.7c-0.9,0.7-1.5,1.2-1.9,1.5C30.2,28,30,28.3,30,28.5z
	 M42.7,19.3c-0.4-0.4-0.9-0.4-1.3,0c-0.3,0.4-0.3,0.9,0,1.3l3.6,3.6l-3.6,3.6c-0.3,0.4-0.3,0.9,0,1.3c0.4,0.4,0.9,0.4,1.3,0l4.2-4.2
	c0.2-0.2,0.3-0.4,0.3-0.6c0-0.2-0.1-0.4-0.3-0.6L42.7,19.3z M5.6,19.4c0.4-0.4,0.9-0.4,1.3,0c0.3,0.4,0.3,0.9,0,1.3l-3.6,3.6
	l3.6,3.6c0.3,0.4,0.3,0.9,0,1.3c-0.4,0.4-0.9,0.4-1.3,0L1.3,25C1.1,24.7,1,24.5,1,24.3c0-0.2,0.1-0.4,0.3-0.6L5.6,19.4z"/>
</svg>
