<?xml version="1.0" encoding="utf-8"?>
<!-- Generator: Adobe Illustrator 26.0.2, SVG Export Plug-In . SVG Version: 6.00 Build 0)  -->
<svg version="1.1" id="图层_1" xmlns="http://www.w3.org/2000/svg" xmlns:xlink="http://www.w3.org/1999/xlink" x="0px" y="0px"
	 viewBox="0 0 48 48" style="enable-background:new 0 0 48 48;" xml:space="preserve">
<style type="text/css">
	.st0{fill-rule:evenodd;clip-rule:evenodd;fill:currentColor;}
</style>
<desc>Created with Pixso.</desc>
<path id="矢量_166" class="st0" d="M43,12H5c-0.6,0-1,0.4-1,1c0,0.6,0.4,1,1,1h38c0.5,0,1-0.4,1-1C44,12.4,43.5,12,43,12z
	 M30.3,19.3H5c-0.6,0-1,0.4-1,1s0.4,1,1,1h25.3c0.6,0,1-0.4,1-1S30.9,19.3,30.3,19.3z M5,26.7h38c0.5,0,1,0.4,1,1s-0.5,1-1,1H5
	c-0.6,0-1-0.4-1-1S4.4,26.7,5,26.7z M5,34h14.8c0.6,0,1,0.4,1,1c0,0.6-0.4,1-1,1H5c-0.6,0-1-0.4-1-1C4,34.4,4.4,34,5,34z"/>
</svg>
