<svg viewBox="0 0 40 40" xmlns="http://www.w3.org/2000/svg" xmlns:xlink="http://www.w3.org/1999/xlink" width="40.000000" height="40.000000" fill="none">
	<rect id="扇形图" width="40.000000" height="40.000000" x="0.000000" y="0.000000" fill="rgb(255,255,255)" fill-opacity="0" />
	<path id="矢量 604" d="M37.0177 18.0493C36.522 9.98189 30.0666 3.52628 21.9994 3.03061C21.4481 2.99675 21 3.44772 21 4L21 18.0486C21 18.6009 21.4478 19.0486 22 19.0486L36.0483 19.0486C36.6006 19.0486 37.0516 18.6005 37.0177 18.0493ZM35.3612 17.4487Q35.2442 16.3774 34.972 15.3472C34.7636 14.5586 34.4869 13.7881 34.142 13.0356C33.8074 12.3057 33.4181 11.6128 32.9743 10.957L32.9743 10.957C32.4613 10.1992 31.8754 9.49084 31.2165 8.83191C30.5574 8.17281 29.8489 7.58676 29.091 7.07375L29.0909 7.0737C28.4352 6.62994 27.7426 6.24084 27.013 5.90639C26.2604 5.56142 25.4897 5.28471 24.7011 5.07628L24.701 5.07626L24.7005 5.07614Q23.6707 4.80405 22.6 4.68712L22.6 17.4487L35.3612 17.4487ZM3 20.9514C3 12.593 9.38953 5.72708 17.5504 4.97169C18.3753 4.89534 19.0482 5.57428 19.0482 6.40271L19.0482 20.4514C19.0482 20.7275 19.2721 20.9514 19.5482 20.9514L33.5966 20.9514C34.425 20.9514 35.1039 21.6243 35.0276 22.4492C34.2723 30.6103 27.4064 37 19.0482 37C10.1851 37 3 29.8148 3 20.9514ZM14.9645 7.0856C15.7711 6.84834 16.5991 6.68318 17.4483 6.5901L17.4483 20.4514C17.4483 20.597 17.4628 20.7397 17.4918 20.8793C17.5194 21.012 17.5602 21.142 17.614 21.2693C17.6664 21.3932 17.7294 21.51 17.8029 21.6197C17.8784 21.7327 17.9654 21.8383 18.0634 21.9363C18.1614 22.0343 18.2669 22.1211 18.3799 22.1968C18.4896 22.2703 18.6065 22.3333 18.7304 22.3857C18.8577 22.4395 18.9877 22.4802 19.1204 22.5078C19.26 22.5368 19.4026 22.5514 19.5482 22.5514L33.4092 22.5514C33.3161 23.4007 33.1509 24.2289 32.9135 25.0358C32.6707 25.8613 32.3525 26.6645 31.9588 27.4456C31.585 28.1871 31.1545 28.8868 30.6674 29.5445C30.1193 30.2846 29.4994 30.9717 28.8079 31.6056C28.1007 32.2538 27.345 32.8221 26.5408 33.3105C25.8542 33.7276 25.1321 34.0864 24.3748 34.3869C23.642 34.6777 22.8957 34.9058 22.1358 35.0714C21.1304 35.2905 20.1013 35.4 19.0482 35.4C17.9513 35.4 16.8812 35.2816 15.8382 35.0447C15.017 34.8582 14.2127 34.5984 13.4248 34.2652C13.0664 34.1136 12.7152 33.948 12.3714 33.7685L12.371 33.7683C11.8901 33.5173 11.4236 33.2389 10.9712 32.9333Q10.4481 32.5799 9.9594 32.184L9.95929 32.1839L9.9546 32.1801C9.56385 31.8632 9.18958 31.5258 8.83179 31.1681C8.47437 30.8106 8.13721 30.4366 7.82044 30.046C7.55482 29.7185 7.30359 29.3794 7.06666 29.0286Q6.60918 28.3515 6.2332 27.6318L6.23243 27.6303L6.23218 27.6299C6.05237 27.2856 5.8866 26.9339 5.73475 26.5749C5.40161 25.7872 5.14185 24.9829 4.95533 24.1618L4.95533 24.1616C4.71839 23.1185 4.59998 22.0484 4.59998 20.9514C4.59998 19.8982 4.7096 18.8689 4.92859 17.8634L4.92871 17.8633C5.09424 17.1035 5.32239 16.3573 5.61304 15.6247C5.9137 14.8672 6.27247 14.1451 6.68958 13.4583L6.6897 13.4583C7.17798 12.6542 7.74622 11.8986 8.39442 11.1915C9.02833 10.4999 9.71534 9.87997 10.4556 9.33179C11.1132 8.84476 11.8128 8.41432 12.5542 8.04053C13.3355 7.64671 14.1388 7.32841 14.9645 7.0856Z" fill="currentColor" fill-rule="evenodd" />
</svg>
