<svg viewBox="0 0 20 20" xmlns="http://www.w3.org/2000/svg" xmlns:xlink="http://www.w3.org/1999/xlink" width="20.000000" height="20.000000" fill="none">
	<rect id="资源管理" width="20.000000" height="20.000000" x="0.000000" y="0.000000" />
	<path id="形状结合" d="M6.62122 2.85907C6.82954 2.85907 7.03114 2.93274 7.19038 3.06706L9.89119 5.345L15.9435 5.34586C16.9632 5.34586 17.8004 6.12651 17.8903 7.12274L17.8983 7.30066L17.8982 8.04239L18.6953 8.04316L18.8472 8.05415C19.1806 8.11803 19.3991 8.44013 19.3352 8.77357L17.9229 16.144C17.9087 16.2183 17.8817 16.2868 17.8446 16.3477C17.486 17.012 16.7369 17.4089 15.9435 17.4089L5.22278 17.4089C3.40325 17.4086 1.92819 15.9337 1.92776 14.114L1.92688 4.81377C1.92688 3.73416 2.80207 2.85907 3.88169 2.85907L6.62122 2.85907ZM17.9874 9.27182L5.80207 9.27182L4.50403 16.0508C4.72791 16.1339 4.9701 16.1793 5.22288 16.1794L15.9435 16.1794C16.272 16.1794 16.5433 16.0675 16.6879 15.8879L17.9874 9.27182ZM6.49425 4.08851L3.88169 4.08851C3.52111 4.08851 3.22202 4.3515 3.16581 4.69607L3.15632 4.81371L3.1572 14.1138C3.15729 14.4853 3.25546 14.834 3.42721 15.1352L4.69073 8.5422C4.69747 8.50706 4.70707 8.47321 4.71924 8.44081C4.72586 8.42657 4.75077 8.37028 4.75844 8.35664C4.76943 8.34186 4.82189 8.26429 4.83433 8.25026C4.84746 8.23987 4.94019 8.15519 4.95405 8.14595C5.04503 8.09216 5.1806 8.04316 5.29447 8.04316L16.6687 8.04239L16.6688 7.30066C16.6688 6.90006 16.3441 6.5753 15.9435 6.5753L9.76528 6.5753C9.55696 6.5753 9.35536 6.50163 9.19612 6.36731L6.49425 4.08851Z" fill="currentColor" fill-rule="nonzero" />
</svg>
