<svg width="20.000000" height="20.000000" viewBox="0 0 20 20" fill="none" xmlns="http://www.w3.org/2000/svg" xmlns:xlink="http://www.w3.org/1999/xlink">
	<desc>
			Created with Pixso.
	</desc>
	<defs>
		<clipPath id="clip3810_45996">
			<rect id="模型驱动" width="20.000000" height="20.000000" fill="white" fill-opacity="0"/>
		</clipPath>
	</defs>
	<g clip-path="url(#clip3810_45996)">
		<path id="矢量_158" d="M7.09 4.16L10 2.42L12.7 3.98C12.93 4.12 13.51 4.07 13.73 3.88C13.96 3.67 13.93 3.23 13.64 3.06L10.6 1.26C10.41 1.21 10.2 1.17 10 1.17C9.79 1.17 9.58 1.2 9.41 1.26L6.3 3.13C6.03 3.3 5.98 3.87 6.23 4.07C6.45 4.27 6.84 4.31 7.09 4.16ZM15.89 4.07C16.04 4.07 16.21 4.08 16.35 4.12C16.51 4.17 16.66 4.19 16.79 4.27C16.93 4.31 17.04 4.38 17.14 4.44C17.29 4.55 17.41 4.65 17.55 4.8C17.66 4.9 17.76 5.02 17.85 5.15C17.93 5.27 18 5.42 18.06 5.55C18.13 5.68 18.16 5.83 18.2 5.97C18.23 6.15 18.24 6.31 18.24 6.48C18.24 6.67 18.23 6.83 18.2 7C18.18 7.13 18.13 7.3 18.06 7.42C18 7.56 17.93 7.71 17.85 7.82C17.76 7.95 17.66 8.07 17.55 8.18C17.41 8.32 17.29 8.43 17.14 8.53C17.03 8.6 16.91 8.64 16.79 8.7C16.66 8.76 16.51 8.81 16.35 8.85C16.21 8.87 16.04 8.88 15.89 8.88C15.81 8.88 15.73 8.88 15.64 8.87C15.4 8.86 15.16 8.77 14.91 8.66C14.76 8.58 14.6 8.48 14.48 8.38C14.39 8.33 14.33 8.26 14.26 8.2L10.63 10.13L10.63 14.17C10.76 14.21 10.89 14.26 11.01 14.31C11.11 14.37 11.21 14.41 11.3 14.48C11.39 14.52 11.45 14.58 11.54 14.65C11.65 14.75 11.76 14.86 11.86 15C11.93 15.06 11.98 15.15 12.03 15.23C12.09 15.37 12.16 15.52 12.2 15.66C12.25 15.76 12.28 15.87 12.29 15.97C12.33 16.13 12.35 16.27 12.35 16.45C12.35 16.61 12.34 16.77 12.29 16.95C12.28 17.08 12.23 17.23 12.16 17.38C12.09 17.51 12.04 17.65 11.95 17.77C11.86 17.91 11.76 18.02 11.65 18.13C11.53 18.26 11.39 18.37 11.24 18.47C11.13 18.54 11.01 18.6 10.9 18.66C10.78 18.7 10.63 18.76 10.48 18.77C10.31 18.81 10.16 18.82 10 18.82C9.84 18.82 9.68 18.81 9.53 18.77C9.38 18.76 9.23 18.7 9.08 18.65C8.95 18.58 8.85 18.53 8.75 18.45C8.6 18.35 8.45 18.25 8.33 18.12C8.23 18.01 8.13 17.87 8.03 17.75C7.95 17.62 7.89 17.51 7.81 17.35C7.76 17.21 7.71 17.08 7.69 16.92C7.65 16.77 7.64 16.58 7.64 16.41C7.64 16.26 7.65 16.1 7.69 15.95C7.7 15.85 7.73 15.73 7.78 15.63C7.81 15.48 7.89 15.35 7.98 15.21C8.01 15.12 8.08 15.05 8.13 14.96C8.23 14.83 8.33 14.72 8.45 14.62C8.54 14.57 8.61 14.5 8.7 14.45C8.8 14.38 8.89 14.33 8.98 14.28C9.11 14.22 9.25 14.18 9.38 14.16L9.38 10.13L5.84 8.06C5.4 8.51 4.9 8.77 4.39 8.85C4.29 8.86 4.21 8.86 4.11 8.86C3.95 8.86 3.79 8.86 3.64 8.81C3.48 8.78 3.33 8.75 3.19 8.67C3.08 8.63 2.96 8.56 2.85 8.5C2.7 8.39 2.56 8.28 2.44 8.16C2.33 8.05 2.23 7.92 2.15 7.81C2.06 7.67 1.99 7.53 1.94 7.4C1.88 7.26 1.84 7.12 1.79 6.98C1.76 6.81 1.75 6.66 1.75 6.47C1.75 6.3 1.76 6.15 1.79 5.96C1.84 5.82 1.88 5.67 1.94 5.53C1.99 5.41 2.06 5.26 2.15 5.13C2.24 5.01 2.34 4.9 2.45 4.78C2.58 4.65 2.7 4.53 2.86 4.43C2.98 4.37 3.09 4.31 3.2 4.27C3.33 4.19 3.48 4.17 3.63 4.12C3.76 4.08 3.94 4.07 4.1 4.07C4.26 4.07 4.43 4.08 4.58 4.12C4.74 4.17 4.88 4.19 5.01 4.27C5.15 4.31 5.26 4.38 5.36 4.43C5.51 4.53 5.64 4.63 5.78 4.78C5.89 4.9 5.99 5.01 6.08 5.13C6.15 5.26 6.23 5.38 6.29 5.53C6.35 5.67 6.39 5.82 6.43 5.96C6.45 6.13 6.45 6.3 6.45 6.47C6.45 6.61 6.45 6.71 6.45 6.77C6.44 6.85 6.41 6.93 6.35 7.03L10 9.11L13.64 7.03C13.6 6.93 13.55 6.85 13.54 6.77C13.54 6.71 13.54 6.61 13.54 6.47C13.54 6.3 13.54 6.15 13.59 5.96C13.61 5.83 13.65 5.67 13.73 5.53C13.79 5.41 13.85 5.26 13.94 5.13C14.03 5.01 14.13 4.9 14.24 4.78C14.36 4.65 14.49 4.53 14.65 4.43C14.76 4.37 14.88 4.31 14.99 4.27C15.14 4.19 15.28 4.16 15.41 4.12C15.58 4.08 15.73 4.07 15.89 4.07ZM4.11 7.6C4.36 7.6 4.56 7.53 4.74 7.42C4.79 7.4 4.86 7.33 4.9 7.3C4.96 7.23 5 7.2 5.04 7.12C5.15 6.95 5.2 6.72 5.2 6.46C5.2 6.2 5.15 5.98 5.04 5.8C5 5.75 4.96 5.7 4.9 5.65C4.85 5.6 4.79 5.55 4.74 5.52C4.56 5.41 4.35 5.35 4.11 5.35C3.85 5.35 3.65 5.41 3.49 5.52C3.43 5.55 3.35 5.6 3.31 5.65C3.26 5.7 3.21 5.75 3.18 5.82C3.06 5.98 3 6.21 3 6.47C3 6.73 3.06 6.95 3.18 7.13C3.21 7.2 3.24 7.23 3.3 7.3C3.34 7.33 3.41 7.4 3.48 7.42C3.64 7.53 3.85 7.6 4.11 7.6ZM15.89 7.6C15.99 7.57 16.2 7.55 16.3 7.51C16.35 7.5 16.44 7.45 16.48 7.41C16.55 7.38 16.6 7.33 16.65 7.3C16.76 7.2 16.84 7.08 16.89 6.95C16.96 6.81 16.99 6.66 16.99 6.47C16.99 6.21 16.94 6 16.83 5.82C16.78 5.76 16.75 5.72 16.7 5.66C16.65 5.62 16.58 5.56 16.53 5.52C16.35 5.42 16.14 5.36 15.9 5.36C15.64 5.36 15.45 5.42 15.28 5.52C15.2 5.56 15.15 5.62 15.1 5.66C15.04 5.7 15 5.75 14.96 5.82C14.85 5.98 14.79 6.21 14.79 6.47C14.79 6.73 14.85 6.95 14.96 7.13C15 7.2 15.04 7.23 15.09 7.3C15.14 7.33 15.2 7.4 15.26 7.42C15.43 7.53 15.64 7.6 15.89 7.6ZM3.7 10.52L3.7 13.46L6.39 15.07C6.66 15.23 6.79 15.55 6.74 15.86C6.66 16.2 6.23 16.4 5.93 16.22L3.04 14.48C2.86 14.35 2.71 14.2 2.6 14.03C2.5 13.87 2.45 13.71 2.44 13.55L2.44 10.27C2.44 9.96 2.83 9.68 3.13 9.76C3.44 9.86 3.7 10.21 3.7 10.52ZM17.56 10.27L17.56 13.5C17.55 13.66 17.5 13.87 17.39 14.03C17.29 14.21 17.15 14.35 16.96 14.48L14.04 16.26C13.74 16.45 13.34 16.26 13.29 15.91C13.23 15.62 13.35 15.22 13.63 15.06L16.3 13.45L16.3 10.52C16.3 10.2 16.55 9.85 16.85 9.75C17.16 9.66 17.56 9.96 17.56 10.27ZM11.1 16.45C11.1 16.17 11.04 15.96 10.93 15.77C10.89 15.73 10.84 15.67 10.8 15.63C10.74 15.57 10.69 15.52 10.63 15.48C10.45 15.36 10.25 15.32 10 15.32C9.75 15.32 9.55 15.36 9.38 15.47C9.31 15.52 9.25 15.56 9.2 15.62C9.15 15.66 9.11 15.72 9.06 15.76C8.95 15.95 8.9 16.16 8.9 16.42C8.9 16.68 8.95 16.9 9.06 17.08C9.11 17.13 9.15 17.2 9.2 17.23C9.25 17.29 9.31 17.33 9.38 17.38C9.55 17.51 9.75 17.54 10 17.54C10.1 17.53 10.31 17.51 10.41 17.47C10.48 17.45 10.54 17.41 10.6 17.38C10.66 17.33 10.71 17.29 10.76 17.25C10.88 17.15 10.94 17.03 11.01 16.91C11.08 16.77 11.1 16.6 11.1 16.45Z" fill="currentColor" fill-opacity="1.000000" fill-rule="evenodd"/>
	</g>
</svg>
