<svg
	viewBox="0 0 16 16"
	xmlns="http://www.w3.org/2000/svg"
	xmlns:xlink="http://www.w3.org/1999/xlink"
	width="16.000000"
	height="16.000000"
	fill="none"
>
	<rect id="MCP" width="16.000000" height="16.000000" x="0.000000" y="0.000000" />
	<path
		id="矢量 665"
		d="M6.40942 2.00781C6.78857 1.9375 7.17603 1.89844 7.57178 1.89844L11.8848 1.89844C11.9937 1.89844 12.0945 1.91406 12.1875 1.95312C12.2803 1.99219 12.3652 2.05469 12.4424 2.13281C12.5193 2.20312 12.5769 2.28906 12.6155 2.38281C12.6541 2.47656 12.6733 2.57812 12.6733 2.6875L12.6733 5.40625L14.7217 5.40625C15.0015 5.40625 15.2217 5.625 15.2217 5.90625C15.2217 6.1875 15.0015 6.40625 14.7217 6.40625L12.6733 6.40625L12.6733 9.50781L14.7217 9.50781C15.0015 9.50781 15.2217 9.72656 15.2217 10.0078C15.2217 10.2891 15.0015 10.5078 14.7217 10.5078L12.6733 10.5078L12.6733 13.25C12.6733 13.3594 12.6541 13.4609 12.6155 13.5547C12.5769 13.6484 12.5193 13.7344 12.4424 13.8125C12.3652 13.8906 12.2803 13.9453 12.1875 13.9844C12.0945 14.0234 11.9937 14.0391 11.8848 14.0391L7.57178 14.0391C7.11963 14.0391 6.67798 13.9922 6.24731 13.8984L6.24731 13.8984L6.24731 13.8984C5.8938 13.8203 5.54736 13.7109 5.20825 13.5625C4.86572 13.4219 4.5415 13.2422 4.23584 13.0469C3.89355 12.8203 3.57446 12.5625 3.27856 12.2656C2.98267 11.9688 2.72192 11.6484 2.49658 11.3047L2.49658 11.3047C2.47144 11.2656 2.44678 11.2266 2.42261 11.1875C2.25269 10.9219 2.10449 10.6328 1.97754 10.3359C1.83423 9.99219 1.7229 9.64844 1.64429 9.29688L1.64429 9.29688C1.63232 9.24219 1.62109 9.1875 1.6106 9.13281C1.53711 8.75 1.50024 8.36719 1.50024 7.96875C1.50024 7.51562 1.54834 7.07812 1.64429 6.64844L1.64429 6.64844C1.7229 6.28906 1.83423 5.94531 1.97754 5.60938C2.12256 5.26562 2.29565 4.9375 2.49683 4.63281C2.51074 4.60938 2.52515 4.59375 2.53931 4.57031C2.75464 4.25 3.00122 3.95312 3.27856 3.67969C3.57446 3.38281 3.89355 3.11719 4.23584 2.89844L4.23584 2.89844C4.27393 2.86719 4.3125 2.84375 4.35132 2.82031C4.6228 2.64844 4.90845 2.5 5.20825 2.375C5.54736 2.23438 5.8938 2.125 6.24731 2.03906L6.24731 2.03906C6.30103 2.03125 6.35522 2.01562 6.40942 2.00781ZM6.44604 3.02344L6.44604 3.02344C6.81201 2.9375 7.18701 2.89844 7.57178 2.89844L11.6733 2.89844L11.6733 13.0391L7.57178 13.0391C7.18701 13.0391 6.81201 13 6.44629 12.9141L6.44604 12.9141C6.15747 12.8516 5.87476 12.7578 5.5979 12.6406C5.31494 12.5234 5.04736 12.3828 4.79468 12.2188L4.79468 12.2188C4.77661 12.2031 4.75854 12.1953 4.74072 12.1797C4.47168 12 4.21997 11.7891 3.9856 11.5547C3.7356 11.3047 3.51587 11.0391 3.32617 10.75L3.32617 10.75C3.30566 10.7188 3.28516 10.6797 3.26538 10.6484C3.12549 10.4297 3.00317 10.1875 2.89868 9.94531C2.78149 9.66406 2.69019 9.38281 2.62476 9.09375L2.62476 9.09375C2.54175 8.72656 2.50024 8.35156 2.50024 7.96875C2.50024 7.58594 2.54175 7.21094 2.62476 6.84375L2.62476 6.84375L2.62476 6.84375C2.62891 6.82812 2.63306 6.80469 2.63721 6.78906C2.70166 6.52344 2.78882 6.25781 2.89868 5.99219C3.01807 5.71094 3.16089 5.44531 3.32642 5.19531L3.32642 5.19531C3.33813 5.17188 3.3501 5.15625 3.3623 5.14062C3.54346 4.86719 3.75146 4.61719 3.9856 4.38281C4.2356 4.13281 4.50513 3.91406 4.79468 3.72656L4.79468 3.72656L4.79468 3.72656C5.04736 3.5625 5.31494 3.41406 5.5979 3.29688C5.87476 3.17969 6.15747 3.08594 6.44604 3.02344ZM6.64185 6.60938C6.64185 6.32812 6.42188 6.10938 6.14185 6.10938C5.86182 6.10938 5.64185 6.32812 5.64185 6.60938L5.64185 9.67188C5.64185 9.94531 5.86182 10.1719 6.14185 10.1719C6.42188 10.1719 6.64185 9.94531 6.64185 9.67188L6.64185 6.60938Z"
		fill="currentColor"
		fill-rule="evenodd"
	/>
</svg>
