<svg viewBox="0 0 20 20" xmlns="http://www.w3.org/2000/svg" xmlns:xlink="http://www.w3.org/1999/xlink" width="20.000000" height="20.000000" fill="none">
	<rect id="模型管理" width="20.000000" height="20.000000" x="0.000000" y="0.000000" fill="rgb(255,255,255)" fill-opacity="0" />
	<path id="矢量 90" d="M17.1035 2.83618C15.7189 1.45209 12.9297 1.84459 10.032 3.58147C7.13423 1.84458 4.34522 1.45212 2.96117 2.83618C1.57712 4.22045 1.96942 7.00952 3.7063 9.90724C1.96942 12.805 1.57712 15.5942 2.96117 16.9782C4.34521 18.3625 7.1345 17.9701 10.0322 16.2333C12.9298 17.9701 15.7188 18.3625 17.1028 16.9782C18.4873 15.5942 18.0948 12.805 16.358 9.9073C18.0949 7.00956 18.4875 4.22046 17.1035 2.83618ZM13.5677 6.37192C14.3331 7.13731 15.0093 7.93511 15.5871 8.73793C15.9053 8.15064 16.1583 7.57534 16.346 7.01187C16.6182 6.19553 16.7287 5.48234 16.678 4.87199C16.6359 4.36784 16.4833 3.98394 16.2191 3.72027C15.9554 3.45629 15.5715 3.3034 15.0673 3.26128C14.457 3.21032 13.7441 3.3211 12.9275 3.59331C12.3642 3.78109 11.7888 4.03407 11.2014 4.35234C12.0043 4.93023 12.8022 5.60646 13.5677 6.37192ZM7.13714 3.59331C7.70037 3.78105 8.27567 4.03399 8.86289 4.35218C8.06009 4.93003 7.26229 5.60622 6.49689 6.37162C5.7313 7.13716 5.05496 7.93511 4.47702 8.73806C4.15871 8.15076 3.90575 7.57534 3.718 7.01187C3.44578 6.19584 3.33531 5.48234 3.38597 4.87199C3.42808 4.36784 3.58128 3.98394 3.84495 3.72027C4.10862 3.45629 4.49252 3.3034 4.99667 3.26128C5.60701 3.21063 6.3205 3.3211 7.13714 3.59331ZM7.38067 7.25571Q6.11521 8.52161 5.18648 9.90731C5.80511 10.8313 6.5365 11.7151 7.38067 12.559C8.22433 13.4027 9.10846 14.1341 10.0321 14.7533C10.9561 14.1341 11.8397 13.4027 12.684 12.559C13.5276 11.7151 14.2589 10.8313 14.8781 9.90723Q13.9494 8.52157 12.684 7.25571C11.8398 6.41183 10.9563 5.68046 10.0323 5.06159C9.1083 5.68046 8.22425 6.41183 7.38067 7.25571ZM9.99966 8.62502C9.30936 8.62502 8.74967 9.18471 8.74967 9.87501C8.74967 10.5653 9.30936 11.125 9.99966 11.125C10.69 11.125 11.2496 10.5653 11.2496 9.87501C11.2496 9.18471 10.69 8.62502 9.99966 8.62502ZM12.9275 16.2214C12.3643 16.0337 11.789 15.7806 11.2016 15.4624C12.0045 14.8845 12.8023 14.2083 13.5677 13.4428C14.3331 12.6773 15.0093 11.8795 15.5872 11.0766C15.9053 11.664 16.1583 12.2393 16.346 12.8025C16.6182 13.6189 16.7287 14.3321 16.678 14.9424C16.6359 15.4466 16.4827 15.8308 16.2191 16.0945Q15.8236 16.49 15.0673 16.5531C14.457 16.6041 13.7435 16.4936 12.9275 16.2214ZM3.718 12.8025C3.90574 12.2391 4.15892 11.6639 4.47721 11.0766C5.05511 11.8795 5.73138 12.6773 6.49689 13.4428C7.26229 14.2083 8.0601 14.8845 8.86291 15.4624C8.27568 15.7806 7.70037 16.0337 7.13714 16.2214C6.3205 16.4936 5.60762 16.6041 4.99728 16.5531C4.49313 16.511 4.10862 16.3581 3.84495 16.0945C3.58128 15.8308 3.42869 15.4466 3.38658 14.9424C3.33531 14.3321 3.44578 13.6189 3.718 12.8025Z" fill="currentColor" fill-rule="evenodd" />
</svg>
