<svg width="20.000000" height="20.000000" viewBox="0 0 20 20" fill="none" xmlns="http://www.w3.org/2000/svg" xmlns:xlink="http://www.w3.org/1999/xlink">
	<defs>
		<clipPath id="clip3810_45998">
			<rect id="附件管理" width="20.000000" height="20.000000" fill="white" fill-opacity="0"/>
		</clipPath>
	</defs>
	<g clip-path="url(#clip3810_45998)">
		<path id="矢量 41" d="M7.22 2.8C7.06 2.68 6.86 2.59 6.64 2.59L3.84 2.59C2.83 2.59 1.98 3.36 1.87 4.36L1.87 14.05C1.87 15.9 3.37 17.4 5.22 17.4L14.76 17.4C16.61 17.4 18.12 15.9 18.12 14.05L18.12 7.11L18.11 6.94C18.01 5.91 17.16 5.13 16.12 5.13L9.97 5.13L7.22 2.8ZM3.84 3.84L6.51 3.84L9.26 6.16C9.42 6.3 9.63 6.38 9.83 6.38L16.22 6.38C16.58 6.43 16.87 6.74 16.87 7.11L16.87 14.05C16.87 15.2 15.92 16.15 14.76 16.15L5.22 16.15L5.08 16.14C3.98 16.08 3.12 15.16 3.12 14.05L3.12 4.46C3.16 4.13 3.47 3.84 3.84 3.84ZM6.62 11.38C6.62 11.03 6.89 10.75 7.25 10.75L12.75 10.75C13.1 10.75 13.37 11.03 13.37 11.38C13.37 11.73 13.1 12 12.75 12L7.25 12C6.89 12 6.62 11.73 6.62 11.38Z" fill="currentColor" fill-opacity="1.000000" fill-rule="evenodd"/>
	</g>
</svg>
