<svg viewBox="0 0 40 40" xmlns="http://www.w3.org/2000/svg" xmlns:xlink="http://www.w3.org/1999/xlink" width="40.000000" height="40.000000" fill="none">
	<rect id="弹出编辑" width="40.000000" height="40.000000" x="0.000000" y="0.000000" fill="rgb(255,255,255)" fill-opacity="0" />
	<path id="矢量 575" d="M35.6247 5.49976L24.6926 19.165C24.4127 19.5148 23.918 19.5698 23.5681 19.2899C23.2183 19.01 23.1633 18.5153 23.4432 18.1655L34.3754 4.50024C34.6553 4.15041 35.15 4.09544 35.4997 4.37531C35.8496 4.65517 35.9047 5.14993 35.6247 5.49976ZM35.7999 16.2492L35.7999 31.5C35.7999 32.0829 35.6872 32.6409 35.4617 33.174C35.244 33.6885 34.937 34.1441 34.5405 34.5406C34.144 34.9371 33.6885 35.2441 33.1739 35.4618C32.6409 35.6872 32.0828 35.8 31.5 35.8L8.5 35.8C7.91711 35.8 7.35913 35.6872 6.82593 35.4618C6.3114 35.2441 5.85583 34.9371 5.45935 34.5406C5.06287 34.1441 4.75586 33.6885 4.53821 33.174C4.31274 32.6409 4.19995 32.0829 4.19995 31.5L4.19995 8.5C4.19995 8.18311 4.23328 7.87358 4.29993 7.5714C4.35583 7.31775 4.4353 7.06928 4.53821 6.826C4.6416 6.58165 4.76501 6.35061 4.90881 6.13288C5.06763 5.89212 5.25122 5.66764 5.45935 5.45943C5.6676 5.25123 5.89209 5.06767 6.13281 4.90879C6.35059 4.76511 6.58166 4.64159 6.82593 4.53824C7.06921 4.43534 7.31775 4.35592 7.57129 4.29997L7.57417 4.29934L7.5743 4.29931Q8.02624 4.2 8.5 4.2L26.2454 4.2C26.6934 4.2 27.0454 4.55199 27.0454 5C27.0454 5.448 26.6934 5.8 26.2454 5.8L8.5 5.8C8.29114 5.8 8.08765 5.82291 7.88953 5.86872C7.73975 5.90334 7.59302 5.95106 7.44922 6.01185C7.30066 6.07468 7.15991 6.14944 7.02698 6.23615C6.87085 6.33792 6.72546 6.45614 6.59082 6.59081C6.45605 6.72547 6.33789 6.87086 6.23608 7.02696C6.14941 7.15995 6.07458 7.30073 6.01184 7.44928C5.95105 7.59302 5.90332 7.73978 5.86865 7.88956C5.82288 8.08775 5.79993 8.29122 5.79993 8.5L5.79993 31.5C5.79993 31.7088 5.82288 31.9123 5.86865 32.1105C5.90332 32.2602 5.95105 32.407 6.01184 32.5507C6.07458 32.6993 6.14941 32.8401 6.23608 32.9731C6.33789 33.1292 6.45605 33.2745 6.59082 33.4092C6.84021 33.6586 7.12634 33.8516 7.44922 33.9881C7.59302 34.0489 7.73975 34.0967 7.88953 34.1313C8.08777 34.1771 8.29114 34.2 8.5 34.2L31.5 34.2C31.8664 34.2 32.2168 34.1294 32.5507 33.9881C32.8735 33.8516 33.1598 33.6586 33.4092 33.4092C33.6586 33.1598 33.8516 32.8736 33.9882 32.5507C34.0489 32.407 34.0965 32.2602 34.1312 32.1104C34.177 31.9122 34.1999 31.7088 34.1999 31.5L34.1999 16.2492C34.1999 15.8012 34.552 15.4492 35 15.4492C35.448 15.4492 35.7999 15.8012 35.7999 16.2492ZM10 14.55L17.5 14.55C17.948 14.55 18.2999 14.198 18.2999 13.75C18.2999 13.302 17.948 12.95 17.5 12.95L10 12.95C9.552 12.95 9.19995 13.302 9.19995 13.75C9.19995 14.198 9.552 14.55 10 14.55ZM17.5 20.8L10 20.8C9.552 20.8 9.19995 20.448 9.19995 20C9.19995 19.552 9.552 19.2 10 19.2L17.5 19.2C17.948 19.2 18.2999 19.552 18.2999 20C18.2999 20.448 17.948 20.8 17.5 20.8ZM10 25.45L30 25.45C30.448 25.45 30.7999 25.802 30.7999 26.25C30.7999 26.698 30.448 27.05 30 27.05L10 27.05C9.552 27.05 9.19995 26.698 9.19995 26.25C9.19995 25.802 9.552 25.45 10 25.45Z" fill="currentColor" fill-rule="evenodd" />
</svg>
