<svg id="图层_1" data-name="图层 1" xmlns="http://www.w3.org/2000/svg" viewBox="0 0 48 48"><defs><style>.cls-1{fill:currentColor;fill-rule:evenodd;}</style></defs><path id="矢量_220" data-name="矢量 220" class="cls-1" d="M23.4,41.79H8.9a3,3,0,0,1-2.18-.72A3,3,0,0,1,6,38.9V9.9a3,3,0,0,1,.72-2.18A3,3,0,0,1,8.9,7h29a3,3,0,0,1,2.17.72A3,3,0,0,1,40.8,9.9V25.57a.9.9,0,0,1-1.8,0V9.9a1,1,0,0,0-1.1-1.11H8.9a1.1,1.1,0,0,0-.83.28,1.14,1.14,0,0,0-.27.83v29a1.13,1.13,0,0,0,.27.82A1.1,1.1,0,0,0,8.9,40H23.4a.9.9,0,1,1,0,1.79ZM20.09,12.2a1.75,1.75,0,0,1,.4,0,1.35,1.35,0,0,1,.34.11,1.91,1.91,0,0,1,.32.16,2,2,0,0,1,.53.53,1.91,1.91,0,0,1,.16.32,1.35,1.35,0,0,1,.11.34,1.75,1.75,0,0,1,.05.4v6a1.83,1.83,0,0,1-.05.4,1.67,1.67,0,0,1-.11.34,1.82,1.82,0,0,1-.16.31,2,2,0,0,1-.53.53,2,2,0,0,1-.32.17,1.91,1.91,0,0,1-.34.1,1.75,1.75,0,0,1-.4.05h-6A1.74,1.74,0,0,1,13.7,22a2.3,2.3,0,0,1-.35-.1L13,21.68a2,2,0,0,1-.53-.53,3.07,3.07,0,0,1-.17-.31,2.56,2.56,0,0,1-.1-.34,1.83,1.83,0,0,1-.05-.4v-6a1.75,1.75,0,0,1,.05-.4,1.91,1.91,0,0,1,.1-.34,3.24,3.24,0,0,1,.17-.32,2,2,0,0,1,.53-.53,2.29,2.29,0,0,1,.31-.16,1.57,1.57,0,0,1,.35-.11,1.72,1.72,0,0,1,.39,0Zm0,1.8h-6s-.09.08-.09.1v6s.09.08.09.1h6s.09-.1.1-.1v-6S20.1,14,20.09,14ZM33.5,16.48h-8a.9.9,0,1,1,0-1.8h8a.9.9,0,0,1,0,1.8Zm-13.91,0-2.27,2.34-.16.13A.56.56,0,0,1,17,19a.6.6,0,0,1-.19.06l-.19,0a1,1,0,0,1-.39-.08.56.56,0,0,1-.17-.09l-.16-.13-1.17-1.21a.82.82,0,0,1-.23-.56.8.8,0,0,1,1.38-.55l.74.76,1.83-1.89a.79.79,0,0,1,1.13,0,.83.83,0,0,1,.25.58A.78.78,0,0,1,19.59,16.45ZM33.5,20.2h-8a.9.9,0,1,1,0-1.8h8a.9.9,0,1,1,0,1.8ZM19.9,25a1.72,1.72,0,0,1,.39,0,2.3,2.3,0,0,1,.35.1,3.07,3.07,0,0,1,.31.17,2,2,0,0,1,.53.53,2.4,2.4,0,0,1,.17.32,1.91,1.91,0,0,1,.1.34,1.75,1.75,0,0,1,.05.4v6a1.74,1.74,0,0,1-.05.39,1.91,1.91,0,0,1-.1.34,2.4,2.4,0,0,1-.17.32,2,2,0,0,1-.53.53,1.87,1.87,0,0,1-.31.17,2.3,2.3,0,0,1-.35.1,1.72,1.72,0,0,1-.39,0h-6a1.75,1.75,0,0,1-.4,0,1.91,1.91,0,0,1-.34-.1l-.32-.17a2,2,0,0,1-.53-.53,1.59,1.59,0,0,1-.16-.32,1.35,1.35,0,0,1-.11-.34,1.72,1.72,0,0,1,0-.39v-6a1.75,1.75,0,0,1,0-.4,1.35,1.35,0,0,1,.11-.34,1.59,1.59,0,0,1,.16-.32,2,2,0,0,1,.53-.53l.32-.17a1.91,1.91,0,0,1,.34-.1,1.75,1.75,0,0,1,.4,0Zm13.6,2.63h-8a.9.9,0,0,1,0-1.8h8a.9.9,0,1,1,0,1.8Zm-13.6-.84h-6s-.1.09-.1.11v6s.09.08.1.1h6s.08-.1.1-.1v-6S19.9,26.81,19.9,26.79Zm17.42,3a3.1,3.1,0,0,1,4.38,4.39l-7.25,7.25a1.09,1.09,0,0,1-.48.27l-3.87.89a1,1,0,0,1-1.22-1,.83.83,0,0,1,0-.22l.89-3.86a1,1,0,0,1,.27-.49ZM30.5,31.35h-5a.9.9,0,0,1,0-1.8h5a.9.9,0,0,1,0,1.8Zm.45,9.2L33.34,40l.13-.12L31.63,38l-.13.12Zm3.65-1.82,3.95-3.94L36.71,33l-4,3.95Zm5.08-5.07.75-.75a1.64,1.64,0,0,0,.2-.26l.09-.17.06-.21a1.33,1.33,0,0,0,0-.28,1.36,1.36,0,0,0,0-.29l-.06-.2-.09-.18a1,1,0,0,0-.2-.25,1.21,1.21,0,0,0-.26-.2.56.56,0,0,0-.17-.09l-.2-.06h-.06a.9.9,0,0,0-.46,0h-.06a.76.76,0,0,0-.2.06.56.56,0,0,0-.17.09,1,1,0,0,0-.26.2l-.75.75Z"/></svg>