<svg viewBox="0 0 40 40" xmlns="http://www.w3.org/2000/svg" xmlns:xlink="http://www.w3.org/1999/xlink" width="40.000000" height="40.000000" fill="none">
	<rect id="提示框" width="40.000000" height="40.000000" x="0.000000" y="0.000000" fill="rgb(255,255,255)" fill-opacity="0" />
	<path id="矢量 622" d="M24.3239 30L21.0757 34.9927C20.689 35.587 19.8188 35.587 19.4321 34.9927L16.184 30L4.75 30C2.81702 30 1.25 28.433 1.25 26.5L1.25 10C1.25 8.067 2.81702 6.5 4.75 6.5L35.25 6.5C37.183 6.5 38.75 8.067 38.75 10L38.75 26.5C38.75 28.433 37.183 30 35.25 30L24.3239 30ZM20.2539 33.3219L17.0519 28.4L4.75 28.4Q4.52031 28.4 4.30319 28.3478Q4.30101 28.3472 4.29883 28.3467Q4.15198 28.311 4.01099 28.2513C3.91028 28.2088 3.81458 28.1583 3.724 28.1001Q3.55334 27.9903 3.40649 27.8435C3.30859 27.7456 3.22302 27.6398 3.1499 27.526C3.09167 27.4354 3.04126 27.3397 2.99866 27.2391C2.95886 27.1451 2.92712 27.0491 2.90332 26.9512C2.8678 26.8051 2.84998 26.6547 2.84998 26.5L2.84998 10C2.84998 9.84528 2.8678 9.69487 2.90332 9.54878L2.90332 9.54874C2.92712 9.45087 2.95886 9.35492 2.99866 9.26093C3.04126 9.16026 3.09167 9.06464 3.1499 8.97406L3.1499 8.97395L3.15002 8.97391C3.22314 8.86017 3.30859 8.75436 3.40649 8.65649C3.50439 8.55861 3.61023 8.47307 3.724 8.3999C3.81458 8.34164 3.91028 8.29123 4.01099 8.24866C4.10498 8.20889 4.20093 8.17711 4.29871 8.15331C4.44482 8.11777 4.59521 8.10001 4.75 8.10001L35.25 8.10001Q35.4822 8.10001 35.7012 8.15329L35.7015 8.15338C35.7993 8.17719 35.8951 8.20894 35.989 8.24866C36.0897 8.29123 36.1853 8.34164 36.276 8.3999C36.3898 8.47307 36.4956 8.55861 36.5935 8.65649C36.6914 8.75441 36.777 8.86026 36.8501 8.97408C36.9083 9.06465 36.9587 9.16028 37.0013 9.26093C37.0411 9.35489 37.0729 9.45079 37.0967 9.54863L37.0967 9.54878C37.1322 9.69487 37.15 9.84528 37.15 10L37.15 26.5C37.15 26.6547 37.1322 26.8051 37.0967 26.9512C37.0729 27.0491 37.0411 27.1451 37.0013 27.2391C36.9587 27.3397 36.9084 27.4353 36.8502 27.5259C36.777 27.6397 36.6914 27.7456 36.5935 27.8435C36.4956 27.9414 36.3899 28.0269 36.2761 28.1C36.1854 28.1583 36.0898 28.2087 35.989 28.2513C35.8951 28.2911 35.7992 28.3228 35.7014 28.3466L35.701 28.3467C35.5551 28.3822 35.4047 28.4 35.25 28.4L23.4559 28.4L20.2539 33.3219ZM15.5656 13.8859C15.6481 13.9151 15.7357 13.9297 15.8286 13.9297C15.9293 13.9297 16.0242 13.9135 16.113 13.881C16.2294 13.8384 16.3357 13.7679 16.4316 13.6695C16.5283 13.5704 16.5974 13.4616 16.6389 13.3431C16.67 13.2542 16.6855 13.1599 16.6855 13.0601C16.6855 12.9454 16.6659 12.8385 16.6265 12.7394C16.5852 12.6357 16.5225 12.5405 16.438 12.4539C16.3658 12.3789 16.2858 12.3206 16.1979 12.2788C16.0873 12.2263 15.9642 12.2 15.8286 12.2C15.7357 12.2 15.6481 12.2146 15.5656 12.2438C15.4468 12.2858 15.3387 12.3579 15.2415 12.4603C15.145 12.5629 15.0771 12.6749 15.0378 12.7961C15.0106 12.8797 14.9971 12.9677 14.9971 13.0601C14.9971 13.1669 15.0142 13.2674 15.0485 13.3618C15.089 13.473 15.1533 13.5756 15.2415 13.6695C15.3387 13.7718 15.4468 13.844 15.5656 13.8859ZM13.8799 20.4551L14.3369 21.4961C13.9454 21.7733 13.4376 21.9119 12.8135 21.9119C12.2798 21.9119 11.8282 21.7888 11.4587 21.5424C11.3844 21.4929 11.3134 21.4383 11.2456 21.3787C10.8436 21.0232 10.6426 20.3906 10.6426 19.4808L10.6426 16.1673L9.5 16.1673L9.5 15.0215L10.6426 15.0215L10.6426 13.0728L11.9692 13.0728L11.9692 15.0215L13.9592 15.0215L13.9592 16.1673L11.9692 16.1673L11.9692 19.2999C11.9692 19.8098 12.0624 20.1716 12.2485 20.3853C12.3063 20.4509 12.3705 20.5063 12.4412 20.5515C12.5986 20.6523 12.7883 20.7027 13.0103 20.7027Q13.2452 20.7027 13.4578 20.6456C13.6017 20.6054 13.7423 20.5419 13.8799 20.4551ZM21.7286 14.866C21.9415 14.866 22.1488 14.8895 22.3507 14.9366C22.6425 15.0046 22.9229 15.1218 23.1918 15.2881C23.2396 15.3177 23.2865 15.3488 23.3324 15.3812C23.7228 15.6567 24.0419 16.033 24.2899 16.5101C24.5671 17.0433 24.7057 17.6696 24.7057 18.389C24.7057 19.1168 24.5671 19.7474 24.2899 20.2806C24.041 20.7595 23.7203 21.1351 23.328 21.4075C23.2834 21.4384 23.238 21.4679 23.1918 21.4961C22.9283 21.6567 22.6538 21.7707 22.3683 21.8383C22.1609 21.8874 21.9476 21.9119 21.7286 21.9119C21.4739 21.9119 21.2281 21.8791 20.9917 21.8134C20.8256 21.7672 20.6638 21.7048 20.5067 21.6263C20.3955 21.5706 20.29 21.5069 20.1906 21.435C19.9495 21.2608 19.7427 21.0389 19.5704 20.7693L19.5704 24.7842L18.2311 24.7842L18.2311 15.0215L19.4149 15.0215C19.4149 15.0914 19.417 15.1612 19.4213 15.231C19.4255 15.2987 19.4319 15.3675 19.4403 15.4373Q19.4529 15.6055 19.4594 15.7896C19.4636 15.9102 19.4741 16.0223 19.4911 16.126C19.6838 15.7908 19.9237 15.5233 20.2108 15.3235C20.286 15.2711 20.3646 15.2233 20.4464 15.1802C20.6013 15.0982 20.7612 15.0322 20.9259 14.9823C21.1818 14.9048 21.4493 14.866 21.7286 14.866ZM30.5409 20.6723C30.6624 20.4172 30.723 20.1332 30.723 19.8204C30.723 19.4137 30.6254 19.0806 30.4299 18.821C30.421 18.8091 30.4119 18.7973 30.4025 18.7857C30.2625 18.6107 30.1029 18.4662 29.9241 18.3523C29.8325 18.2941 29.7361 18.2439 29.6344 18.2017C29.3361 18.0748 28.9489 17.9467 28.4728 17.8177C28.1343 17.7225 27.8698 17.6378 27.6793 17.5638Q27.3937 17.4527 27.2032 17.2781C27.1641 17.2416 27.131 17.2012 27.104 17.1571C27.0453 17.0609 27.016 16.9468 27.016 16.8147C27.016 16.6824 27.0446 16.5664 27.1017 16.4667Q27.1775 16.3342 27.3207 16.2403C27.5259 16.1049 27.802 16.0372 28.149 16.0372C28.5045 16.0372 28.8092 16.1154 29.0631 16.272Q29.1997 16.3545 29.3126 16.4618L29.3127 16.4618L29.3132 16.4624C29.4493 16.5918 29.5596 16.7484 29.6439 16.9322L30.6437 16.3609C30.5952 16.199 30.5277 16.0489 30.4413 15.9106C30.2827 15.6569 30.0603 15.443 29.774 15.2691C29.3318 15.0004 28.8029 14.866 28.1871 14.866C27.7385 14.866 27.3224 14.9448 26.9384 15.1023C26.9293 15.106 26.9203 15.1098 26.9113 15.1136Q26.4487 15.3097 26.1355 15.6451L26.1353 15.6454C26.0804 15.704 26.0292 15.7658 25.9813 15.8309C25.9202 15.9141 25.8672 16.0013 25.8224 16.0926C25.6998 16.3424 25.6385 16.6222 25.6385 16.9322C25.6385 17.2913 25.724 17.5881 25.895 17.8225C25.9104 17.8436 25.9265 17.8642 25.9432 17.8843C26.0518 18.0119 26.1721 18.1228 26.3043 18.2172C26.4221 18.3014 26.5493 18.3724 26.6859 18.4302C26.9758 18.5508 27.3461 18.6757 27.7968 18.8047C28.1606 18.9169 28.4421 19.01 28.641 19.084C28.842 19.1581 29.0092 19.2628 29.1425 19.3982C29.1877 19.4435 29.2253 19.4931 29.2552 19.5469C29.3134 19.6515 29.3424 19.7723 29.3424 19.9092C29.3424 20.0448 29.3143 20.1656 29.2583 20.2716C29.2034 20.3756 29.1213 20.4654 29.0123 20.5408C28.7922 20.6932 28.495 20.7693 28.1205 20.7693C27.7058 20.7693 27.3503 20.6762 27.0541 20.49Q26.9664 20.4339 26.8875 20.3674C26.6754 20.1885 26.5109 19.9533 26.3939 19.6617L25.391 20.2488C25.4591 20.4637 25.5548 20.6592 25.6781 20.8355C25.8535 21.0863 26.0847 21.298 26.3717 21.4707C26.8625 21.7649 27.4456 21.9119 28.1205 21.9119C28.624 21.9119 29.0726 21.8273 29.4662 21.658C29.8059 21.5127 30.0808 21.3136 30.291 21.0607C30.3257 21.019 30.3586 20.9758 30.3898 20.9312C30.4476 20.8485 30.498 20.7622 30.5409 20.6723ZM16.5046 21.7691L16.5046 15.0215L15.1653 15.0215L15.1653 21.7691L16.5046 21.7691ZM21.4938 20.69C21.7849 20.69 22.047 20.6318 22.2799 20.5153Q22.2817 20.5144 22.2834 20.5135Q22.3689 20.4705 22.4491 20.417C22.4738 20.4006 22.498 20.3834 22.5217 20.3656C22.76 20.1869 22.9485 19.9417 23.087 19.6299C23.2394 19.2872 23.3156 18.8735 23.3156 18.389C23.3156 17.9129 23.2394 17.4992 23.087 17.148C22.9421 16.814 22.7428 16.5565 22.4888 16.3756C22.4757 16.3662 22.4625 16.3571 22.4491 16.3482Q22.3689 16.2947 22.2834 16.2517Q22.2817 16.2508 22.2799 16.2499C22.047 16.1335 21.7849 16.0752 21.4938 16.0752C21.2863 16.0752 21.088 16.1046 20.8988 16.1634C20.7793 16.2006 20.6633 16.2495 20.5511 16.3101C20.542 16.315 20.5328 16.32 20.5238 16.325C20.2465 16.4805 20.0197 16.7263 19.8434 17.0623C19.6614 17.4093 19.5704 17.8515 19.5704 18.389C19.5704 18.9264 19.6614 19.3686 19.8434 19.7156C20.0194 20.0512 20.2458 20.2958 20.5228 20.4493C20.5322 20.4545 20.5416 20.4596 20.5511 20.4646C20.6495 20.5156 20.7506 20.5579 20.8546 20.5916C21.057 20.6572 21.2701 20.69 21.4938 20.69Z" fill="currentColor" fill-rule="evenodd" />
</svg>
