<svg id="图层_1" data-name="图层 1" xmlns="http://www.w3.org/2000/svg" viewBox="0 0 48 48"><defs><style>.cls-1{fill:currentColor;fill-rule:evenodd;}</style></defs><path id="矢量_191" data-name="矢量 191" class="cls-1" d="M23.24,38.8,19.37,33H7a3.00237,3.00237,0,0,1-3-3V13a2.996,2.996,0,0,1,3-3H41a3.00237,3.00237,0,0,1,3,3V30a3.00882,3.00882,0,0,1-3,3H28.77l-3.86,5.8A1.00907,1.00907,0,0,1,23.24,38.8Zm4.57-7.6-3.74,5.6-3.73-5.6H7a1.2657,1.2657,0,0,1-.9-.3,1.18224,1.18224,0,0,1-.3-.9V13a1.19215,1.19215,0,0,1,.3-.91,1.2657,1.2657,0,0,1,.9-.3H41a1.25623,1.25623,0,0,1,.89.3,1.19215,1.19215,0,0,1,.3.91V30a1.18224,1.18224,0,0,1-.3.9,1.25623,1.25623,0,0,1-.89.3ZM20.32,17.55a.93053.93053,0,0,0,1.35,0,.949.949,0,0,0,.23-.36h0a.989.989,0,0,0-.23-1A.89512.89512,0,0,0,21,15.9a.87187.87187,0,0,0-.68.29.93529.93529,0,0,0-.28.69A.90671.90671,0,0,0,20.32,17.55ZM12,16.06h7.41v1.45H16.52v8.01H14.88V17.51H12Zm15,2.6a2.76381,2.76381,0,0,1,1.48.42,3.09314,3.09314,0,0,1,1.09,1.22,4.51935,4.51935,0,0,1,.01,3.74,3.04125,3.04125,0,0,1-1.1,1.22,2.84635,2.84635,0,0,1-2.4.27,2.25847,2.25847,0,0,1-.26-.12,2.14112,2.14112,0,0,1-.91-.81v3.79H23.35V18.83h1.38c.02.42.05.77.08,1.04a2.38393,2.38393,0,0,1,.94-.9A2.54647,2.54647,0,0,1,27,18.66Zm8.25,6.44A1.829,1.829,0,0,0,36,23.56a1.55294,1.55294,0,0,0-.33-1.03,1.9525,1.9525,0,0,0-.48-.43,2.45878,2.45878,0,0,0-.29-.16,7.18156,7.18156,0,0,0-1.14-.38,5.94815,5.94815,0,0,1-1.04-.38.56481.56481,0,0,1-.33-.53.5453.5453,0,0,1,.27-.49,1.22271,1.22271,0,0,1,.71-.18,1.47382,1.47382,0,0,1,.86.23,1.43134,1.43134,0,0,1,.54.64l1.15-.65a1.92915,1.92915,0,0,0-.88-1.13,3.117,3.117,0,0,0-1.64-.41,3.37371,3.37371,0,0,0-1.32.25,2.31356,2.31356,0,0,0-.95.73,2.09417,2.09417,0,0,0-.17.28,1.961,1.961,0,0,0-.18.85,1.44162,1.44162,0,0,0,.3.95,1.90934,1.90934,0,0,0,.73.56q.43.18,1.12.39a5.37724,5.37724,0,0,1,1.1.4.62871.62871,0,0,1,.35.58.61893.61893,0,0,1-.29.53,1.35162,1.35162,0,0,1-.77.19,1.78959,1.78959,0,0,1-1.01-.27,1.66,1.66,0,0,1-.63-.77l-1.15.66a2.23,2.23,0,0,0,.99,1.24,3.44858,3.44858,0,0,0,1.79.45A3.06725,3.06725,0,0,0,35.25,25.1Zm-15.03.42h1.56V18.83H20.22Zm6.45-1.25a1.53541,1.53541,0,0,0,1.24-.56,2.387,2.387,0,0,0,.46-1.55,2.39923,2.39923,0,0,0-.47-1.56,1.50863,1.50863,0,0,0-1.23-.57,1.66765,1.66765,0,0,0-1.24.54,2.21984,2.21984,0,0,0-.52,1.59,2.16941,2.16941,0,0,0,.51,1.59A1.69158,1.69158,0,0,0,26.67,24.27Z"/></svg>