<svg viewBox="0 0 40 40" xmlns="http://www.w3.org/2000/svg" xmlns:xlink="http://www.w3.org/1999/xlink" width="40.000000" height="40.000000" fill="none">
	<rect id="进度图" width="40.000000" height="40.000000" x="0.000000" y="0.000000" />
	<path id="矢量 704" d="M38 7.20001L3 7.20001C2.552 7.20001 2.19995 7.552 2.19995 8C2.19995 8.448 2.552 8.80002 3 8.80002L38 8.80002C38.448 8.80002 38.7999 8.44803 38.7999 8C38.7999 7.552 38.448 7.20001 38 7.20001ZM38 15.2L3 15.2C2.552 15.2 2.19995 15.552 2.19995 16C2.19995 16.448 2.552 16.8 3 16.8L38 16.8C38.448 16.8 38.7999 16.448 38.7999 16C38.7999 15.552 38.448 15.2 38 15.2ZM3 23.2L38 23.2C38.448 23.2 38.7999 23.552 38.7999 24C38.7999 24.448 38.448 24.8 38 24.8L3 24.8C2.552 24.8 2.19995 24.448 2.19995 24C2.19995 23.552 2.552 23.2 3 23.2ZM38 31.2L3 31.2C2.552 31.2 2.19995 31.552 2.19995 32C2.19995 32.448 2.552 32.8 3 32.8L38 32.8C38.448 32.8 38.7999 32.448 38.7999 32C38.7999 31.552 38.448 31.2 38 31.2Z" fill="currentColor" fill-opacity="0.200000003" fill-rule="evenodd" />
	<path id="矢量 703" d="M33.2222 7.20001L3 7.20001C2.552 7.20001 2.19995 7.552 2.19995 8C2.19995 8.448 2.552 8.80002 3 8.80002L33.2222 8.80002C33.6702 8.80002 34.0222 8.448 34.0222 8C34.0222 7.552 33.6702 7.20001 33.2222 7.20001ZM22.5555 15.2L3 15.2C2.552 15.2 2.19995 15.552 2.19995 16C2.19995 16.448 2.552 16.8 3 16.8L22.5555 16.8C23.0035 16.8 23.3555 16.448 23.3555 16C23.3555 15.552 23.0035 15.2 22.5555 15.2ZM3 23.2L28.2777 23.2C28.7257 23.2 29.0778 23.552 29.0778 24C29.0778 24.448 28.7257 24.8 28.2777 24.8L3 24.8C2.552 24.8 2.19995 24.448 2.19995 24C2.19995 23.552 2.552 23.2 3 23.2ZM3 32.8L17.5555 32.8C18.0035 32.8 18.3555 32.448 18.3555 32C18.3555 31.552 18.0035 31.2 17.5555 31.2L3 31.2C2.552 31.2 2.19995 31.552 2.19995 32C2.19995 32.448 2.552 32.8 3 32.8Z" fill="currentColor" fill-rule="evenodd" />
</svg>
