<svg viewBox="0 0 40 40" xmlns="http://www.w3.org/2000/svg" xmlns:xlink="http://www.w3.org/1999/xlink" width="40.000000" height="40.000000" fill="none">
	<rect id="进度条" width="40.000000" height="40.000000" x="0.000000" y="0.000000" fill="rgb(255,255,255)" fill-opacity="0" />
	<path id="矢量 591" d="M15.0709 20.3434L26.4634 6.10292C26.7433 5.7531 26.6882 5.25833 26.3384 4.97847C25.9886 4.69861 25.4939 4.75359 25.214 5.10341L13.8215 19.3439C13.5417 19.6937 13.5967 20.1885 13.9465 20.4684C14.2964 20.7482 14.7911 20.6933 15.0709 20.3434ZM12.8798 5.60316C15.1605 5.60316 17.0095 7.51587 17.0095 9.87532C17.0095 12.2348 15.1605 14.1475 12.8798 14.1475C10.599 14.1475 8.75 12.2348 8.75 9.87532C8.75 7.51587 10.599 5.60316 12.8798 5.60316ZM12.8798 7.40317Q12.6337 7.40317 12.3992 7.45523L12.396 7.45595C12.2589 7.4866 12.1249 7.53059 11.9938 7.58795C11.9088 7.62511 11.8268 7.6671 11.7476 7.7139C11.5684 7.81976 11.4038 7.95029 11.2538 8.10548C11.1625 8.19992 11.0797 8.30028 11.0054 8.40656Q10.8475 8.63228 10.7406 8.89362C10.6965 9.0015 10.66 9.11134 10.6313 9.22316C10.5771 9.43356 10.55 9.65096 10.55 9.87532C10.55 10.0997 10.5771 10.3171 10.6313 10.5275C10.66 10.6393 10.6965 10.7491 10.7406 10.857C10.8119 11.0312 10.9001 11.1936 11.0054 11.3441C11.0797 11.4504 11.1625 11.5507 11.2538 11.6451C11.4038 11.8003 11.5684 11.9309 11.7476 12.0367L11.7476 12.0367C11.8268 12.0835 11.9088 12.1255 11.9938 12.1627C12.1249 12.22 12.2589 12.264 12.396 12.2947Q12.3976 12.2951 12.3992 12.2954Q12.6337 12.3475 12.8798 12.3475Q13.1258 12.3475 13.3603 12.2954Q13.3619 12.2951 13.3635 12.2947C13.5006 12.264 13.6346 12.22 13.7657 12.1627C13.8506 12.1255 13.9327 12.0835 14.012 12.0367C14.1912 11.9308 14.3557 11.8003 14.5057 11.6451C14.597 11.5507 14.6798 11.4503 14.7542 11.3441L14.7542 11.344C14.8594 11.1936 14.9476 11.0312 15.0188 10.857C15.063 10.7491 15.0994 10.6393 15.1282 10.5275C15.1824 10.3171 15.2095 10.0997 15.2095 9.87532C15.2095 9.65096 15.1824 9.43356 15.1282 9.22316L15.1282 9.22314C15.0994 9.11133 15.063 9.0015 15.0188 8.89362C14.9476 8.71938 14.8594 8.55701 14.7542 8.40654C14.6798 8.30026 14.597 8.19991 14.5057 8.10548C14.3557 7.9503 14.1912 7.81978 14.012 7.71393C13.9327 7.66711 13.8506 7.62511 13.7657 7.58795C13.6346 7.53059 13.5006 7.4866 13.3635 7.45595L13.3603 7.45523Q13.1258 7.40317 12.8798 7.40317ZM31.25 15.5715C31.25 13.2121 29.401 11.2994 27.1202 11.2994C24.8395 11.2994 22.9905 13.2121 22.9905 15.5715C22.9905 17.931 24.8395 19.8437 27.1202 19.8437C29.401 19.8437 31.25 17.931 31.25 15.5715ZM26.6397 13.1514Q26.8742 13.0994 27.1202 13.0994Q27.3663 13.0994 27.6008 13.1514L27.604 13.1521C27.7411 13.1828 27.8751 13.2268 28.0062 13.2841C28.0911 13.3213 28.1732 13.3633 28.2524 13.4101C28.4316 13.516 28.5962 13.6465 28.7462 13.8017C28.8375 13.8961 28.9203 13.9965 28.9946 14.1027C29.0999 14.2532 29.1881 14.4156 29.2593 14.5898C29.3035 14.6977 29.3398 14.8075 29.3687 14.9193Q29.45 15.235 29.45 15.5715C29.45 15.7959 29.4229 16.0133 29.3687 16.2237C29.3398 16.3355 29.3035 16.4453 29.2593 16.5532C29.1881 16.7274 29.0999 16.8898 28.9946 17.0402C28.9203 17.1465 28.8375 17.2469 28.7462 17.3413C28.5962 17.4965 28.4316 17.627 28.2524 17.7329C28.1732 17.7797 28.0911 17.8217 28.0062 17.8589C27.8751 17.9162 27.7411 17.9602 27.604 17.9909L27.6008 17.9916Q27.3663 18.0437 27.1202 18.0437Q26.8742 18.0437 26.6397 17.9916L26.6365 17.9909C26.4994 17.9602 26.3654 17.9162 26.2343 17.8589C26.1493 17.8217 26.0673 17.7797 25.988 17.7329C25.8088 17.6271 25.6443 17.4965 25.4943 17.3413C25.403 17.2469 25.3202 17.1466 25.2458 17.0403C25.1406 16.8898 25.0524 16.7274 24.9811 16.5532C24.937 16.4453 24.9005 16.3355 24.8718 16.2237C24.8176 16.0133 24.7905 15.7959 24.7905 15.5715C24.7905 15.3472 24.8176 15.1298 24.8718 14.9194C24.9005 14.8075 24.937 14.6977 24.9811 14.5898Q25.088 14.3285 25.2458 14.1028C25.3202 13.9965 25.403 13.8961 25.4943 13.8017C25.6443 13.6465 25.8088 13.516 25.988 13.4101C26.0673 13.3633 26.1493 13.3213 26.2343 13.2841C26.3654 13.2268 26.4994 13.1828 26.6365 13.1521L26.6397 13.1514ZM37.5 29.6022C37.5 26.2885 34.8137 23.6022 31.5 23.6022L8.5 23.6022C5.18628 23.6022 2.5 26.2885 2.5 29.6022C2.5 32.9159 5.18628 35.6022 8.5 35.6022L31.5 35.6022C34.8137 35.6022 37.5 32.9159 37.5 29.6022ZM8.5 25.2022L31.5 25.2022C31.8424 25.2022 32.1761 25.24 32.501 25.3156C32.7429 25.3718 32.98 25.4491 33.2122 25.5473C33.4531 25.6492 33.6816 25.7704 33.8975 25.911C34.153 26.0773 34.391 26.2706 34.6113 26.4909C34.8317 26.7113 35.025 26.9492 35.1913 27.2048C35.3318 27.4207 35.453 27.649 35.5549 27.89C35.6531 28.1222 35.7303 28.3592 35.7866 28.6011C35.8622 28.926 35.9 29.2597 35.9 29.6022C35.9 29.9447 35.8622 30.2784 35.7866 30.6033C35.7303 30.8452 35.6531 31.0822 35.5549 31.3144C35.453 31.5553 35.3318 31.7837 35.1913 31.9996C35.025 32.2551 34.8317 32.4931 34.6113 32.7135C34.391 32.9338 34.153 33.1271 33.8975 33.2934C33.6816 33.4339 33.4531 33.5551 33.2122 33.6571C32.98 33.7553 32.7429 33.8325 32.501 33.8888C32.1761 33.9644 31.8424 34.0022 31.5 34.0022L8.5 34.0022C8.15759 34.0022 7.82385 33.9644 7.49902 33.8888C7.25708 33.8325 7.02002 33.7553 6.78784 33.6571C6.54688 33.5551 6.31836 33.4339 6.10254 33.2934L6.10254 33.2934C5.84705 33.1271 5.60901 32.9338 5.38867 32.7135C5.16833 32.4931 4.9751 32.2552 4.80884 31.9997L4.80872 31.9996C4.66821 31.7837 4.547 31.5553 4.44507 31.3144C4.34692 31.0822 4.26965 30.8451 4.21338 30.6031C4.13782 30.2783 4.09998 29.9446 4.09998 29.6022C4.09998 29.2597 4.13782 28.9261 4.21338 28.6012C4.26965 28.3593 4.34692 28.1222 4.44507 27.89Q4.59764 27.5293 4.80782 27.2061L4.80786 27.206L4.80872 27.2047C4.9751 26.9492 5.16833 26.7113 5.38867 26.4909C5.60913 26.2706 5.84705 26.0773 6.10254 25.9109C6.31836 25.7704 6.54688 25.6492 6.78784 25.5473C7.02002 25.4491 7.25708 25.3718 7.49902 25.3156C7.82385 25.24 8.15759 25.2022 8.5 25.2022ZM8.75 27.3522L17.25 27.3522C18.4927 27.3522 19.5 28.3595 19.5 29.6022C19.5 30.8448 18.4927 31.8522 17.25 31.8522L8.75 31.8522C7.50732 31.8522 6.5 30.8448 6.5 29.6022C6.5 28.3595 7.50732 27.3522 8.75 27.3522Z" fill="currentColor" fill-rule="evenodd" />
</svg>
