<svg width="20.000000" height="20.000000" viewBox="0 0 20 20" fill="none" xmlns="http://www.w3.org/2000/svg" xmlns:xlink="http://www.w3.org/1999/xlink">
	<desc>
			Created with Pixso.
	</desc>
	<defs>
		<clipPath id="clip3794_39939">
			<rect id="属性" width="20.000000" height="20.000000" fill="white" fill-opacity="0"/>
		</clipPath>
	</defs>
	<g clip-path="url(#clip3794_39939)">
		<path id="形状结合" d="M14.12 1.25C14.27 1.25 14.42 1.29 14.53 1.41L17.28 3.91C17.41 4.02 17.5 4.18 17.5 4.37L17.5 10C17.5 10.33 17.21 10.62 16.87 10.62C16.52 10.62 16.25 10.33 16.25 10L16.25 4.64L13.87 2.5L5.86 2.5C4.75 2.5 3.84 3.25 3.75 4.2L3.75 4.37L3.75 15.62C3.75 16.63 4.68 17.5 5.86 17.5L10 17.5C10.33 17.5 10.62 17.77 10.62 18.12C10.62 18.46 10.33 18.75 10 18.75L5.86 18.75C4.01 18.75 2.5 17.36 2.5 15.62L2.5 4.37C2.5 2.62 4.01 1.25 5.86 1.25L14.12 1.25ZM15.71 11.66C15.88 11.66 16.06 11.75 16.16 11.9L16.47 12.6L16.75 12.76L17.4 12.67C17.58 12.66 17.75 12.72 17.87 12.85L18.42 13.76C18.51 13.92 18.51 14.12 18.43 14.28L17.98 14.9L17.98 15.21L18.38 15.73C18.48 15.88 18.52 16.07 18.47 16.23L17.95 17.16C17.86 17.32 17.68 17.42 17.51 17.43L16.75 17.36L16.47 17.51L16.21 18.12C16.15 18.28 16 18.4 15.83 18.43L15.71 18.46L14.76 18.46C14.57 18.46 14.41 18.36 14.31 18.22L14 17.51L13.72 17.36L13.06 17.43C12.88 17.46 12.71 17.38 12.6 17.26L12.05 16.35C11.96 16.18 11.95 16 12.03 15.83L12.48 15.21L12.48 14.9L12.08 14.37C11.97 14.23 11.95 14.05 12 13.88L12.52 12.95C12.61 12.8 12.77 12.68 12.96 12.67L13.72 12.76L14 12.6L14.26 12C14.32 11.83 14.47 11.71 14.63 11.67L15.71 11.66ZM15.41 12.66L15.06 12.66L14.91 13C14.85 13.16 14.73 13.3 14.6 13.4L14.22 13.62C14.03 13.73 13.82 13.77 13.61 13.75L13.23 13.7L13.06 14.01L13.28 14.3C13.38 14.43 13.45 14.6 13.47 14.77L13.48 14.9L13.48 15.21C13.48 15.42 13.41 15.63 13.28 15.81L13.06 16.1L13.23 16.41L13.61 16.36C13.77 16.35 13.95 16.36 14.11 16.43L14.5 16.65C14.68 16.76 14.82 16.92 14.91 17.12L15.05 17.46L15.41 17.46L15.55 17.12C15.62 16.96 15.72 16.82 15.86 16.72L16.25 16.48C16.43 16.38 16.65 16.33 16.86 16.36L17.22 16.41L17.4 16.11L17.18 15.81C17.07 15.67 17.01 15.51 16.98 15.33L16.98 15.21L16.98 14.9C16.98 14.68 17.04 14.47 17.18 14.3L17.41 14.01L17.22 13.71L16.86 13.75C16.68 13.77 16.52 13.75 16.36 13.68L15.97 13.47C15.78 13.36 15.63 13.2 15.55 13L15.41 12.66ZM15.23 14.16C15.73 14.16 16.13 14.56 16.13 15.06C16.13 15.56 15.73 15.96 15.23 15.96C14.73 15.96 14.33 15.56 14.33 15.06C14.33 14.56 14.73 14.16 15.23 14.16ZM10.62 10.18C10.96 10.18 11.25 10.47 11.25 10.81C11.25 11.16 10.96 11.43 10.62 11.43L6.87 11.43C6.52 11.43 6.25 11.16 6.25 10.81C6.25 10.47 6.52 10.18 6.87 10.18L10.62 10.18ZM13.12 6.25C13.46 6.25 13.75 6.52 13.75 6.87C13.75 7.21 13.46 7.5 13.12 7.5L6.87 7.5C6.52 7.5 6.25 7.21 6.25 6.87C6.25 6.52 6.52 6.25 6.87 6.25L13.12 6.25Z" fill="currentColor" fill-opacity="1.000000" fill-rule="nonzero"/>
	</g>
</svg>
