<svg viewBox="0 0 40 40" xmlns="http://www.w3.org/2000/svg" xmlns:xlink="http://www.w3.org/1999/xlink" width="40.000000" height="40.000000" fill="none">
	<rect id="雷达图" width="40.000000" height="40.000000" x="0.000000" y="0.000000" fill="rgb(255,255,255)" fill-opacity="0" />
	<path id="矢量 605" d="M38.3476 17.1844C38.7492 15.9483 38.3093 14.5942 37.2579 13.8303L21.7633 2.57295C20.712 1.80902 19.2881 1.80902 18.2367 2.57295L2.74219 13.8303C1.6908 14.5942 1.25073 15.9483 1.65247 17.1844L7.57081 35.3992C7.97242 36.6353 9.12428 37.4722 10.424 37.4722L29.5761 37.4722C30.8758 37.4722 32.0276 36.6353 32.4293 35.3992L38.3476 17.1844ZM19.2001 10.681L19.2001 3.85102C19.1924 3.85638 19.1848 3.86183 19.1772 3.86737L3.79146 15.0457L10.2043 17.1832C10.391 16.917 10.6232 16.6782 10.8969 16.4794L18.2394 11.1447C18.5357 10.9295 18.8614 10.7749 19.2001 10.681ZM20.8001 10.6795L20.8001 3.8511C20.8077 3.85644 20.8153 3.86186 20.8229 3.86737L36.2086 15.0457L29.8003 17.1818C29.6137 16.9161 29.3818 16.6778 29.1087 16.4794L21.7662 11.1447C21.4683 10.9284 21.1407 10.7733 20.8001 10.6795ZM20.8001 12.4209C20.8087 12.4269 20.8172 12.433 20.8257 12.4391L28.1229 17.7409L20.8001 20.1819L20.8001 12.4209ZM19.2001 12.4247L19.2001 20.1819L11.8809 17.7421L19.1798 12.4391C19.1866 12.4343 19.1933 12.4294 19.2001 12.4247ZM9.66784 18.691L3.12794 16.511C3.13931 16.5707 3.15469 16.6303 3.17408 16.69L9.09242 34.9048C9.11625 34.9781 9.14497 35.0478 9.1786 35.114L13.1841 29.4872C12.9331 29.1936 12.7363 28.8486 12.6117 28.4651L9.80715 19.8335C9.68476 19.4569 9.6405 19.0694 9.66784 18.691ZM14.1781 28.0908C14.1616 28.0519 14.1467 28.0119 14.1333 27.9707L11.3288 19.339C11.3174 19.3043 11.3075 19.2695 11.2989 19.2347L18.7212 21.7088L14.1781 28.0908ZM14.5108 30.3825L10.6029 35.8722L29.5761 35.8722C29.6722 35.8721 29.7653 35.8632 29.8556 35.8453L25.7182 30.2975C25.3537 30.4531 24.9547 30.5381 24.5407 30.5381L15.4649 30.5381C15.1339 30.5381 14.8126 30.4838 14.5108 30.3825ZM24.6983 28.9298Q24.6208 28.9381 24.5407 28.9381L15.539 28.9381L20.0152 22.6501L24.6983 28.9298ZM26.9697 29.2991L30.9813 34.6782L36.826 16.69C36.8454 16.6303 36.8607 16.5707 36.8721 16.5111L30.3376 18.6893C30.3652 19.0682 30.321 19.4563 30.1984 19.8335L27.3938 28.4651C27.295 28.7695 27.1506 29.0496 26.9697 29.2991ZM28.7071 19.2328Q28.6941 19.2859 28.6768 19.3391L25.9046 27.8709L21.3031 21.7008L28.7071 19.2328Z" fill="currentColor" fill-rule="evenodd" />
</svg>
