<svg viewBox="0 0 40 40" xmlns="http://www.w3.org/2000/svg" xmlns:xlink="http://www.w3.org/1999/xlink" width="40.000000" height="40.000000" fill="none">
	<rect id="单选组" width="40.000000" height="40.000000" x="0.000000" y="0.000000" fill="rgb(255,255,255)" fill-opacity="0" />
	<path id="矢量 560" d="M10.2 4.7C10.7196 4.7 11.2269 4.755 11.7222 4.865C12.1315 4.9559 12.5323 5.08438 12.9249 5.25042C13.3208 5.41787 13.6953 5.61787 14.0482 5.85042C14.4421 6.10985 14.8092 6.4098 15.1497 6.75025C15.4902 7.09073 15.7902 7.4579 16.0496 7.85175C16.2821 8.20474 16.4821 8.57917 16.6495 8.97504C16.8156 9.36759 16.9441 9.76849 17.0349 10.1777C17.1449 10.6729 17.2 11.1804 17.2 11.7C17.2 12.2196 17.1449 12.7271 17.0349 13.2223C16.9441 13.6315 16.8156 14.0324 16.6495 14.425C16.4821 14.8208 16.2821 15.1953 16.0496 15.5483C15.7902 15.9421 15.4902 16.3093 15.1497 16.6497C14.8092 16.9902 14.442 17.2902 14.0482 17.5496C13.6952 17.7822 13.3208 17.9821 12.9249 18.1496C12.5323 18.3156 12.1315 18.4441 11.7222 18.535C11.2271 18.645 10.7196 18.7 10.2 18.7C9.6803 18.7 9.17285 18.645 8.67761 18.535C8.26843 18.4441 7.86755 18.3156 7.47498 18.1496C7.0791 17.9821 6.70471 17.7822 6.35168 17.5496C5.95789 17.2902 5.5907 16.9902 5.25024 16.6497C4.90979 16.3093 4.60986 15.9422 4.35034 15.5484C4.1178 15.1953 3.91785 14.8209 3.75037 14.425C3.58435 14.0324 3.45581 13.6315 3.36499 13.2222C3.255 12.727 3.19995 12.2196 3.19995 11.7C3.19995 11.1804 3.255 10.673 3.36499 10.1778C3.45581 9.76851 3.58435 9.3676 3.75037 8.97504C3.91785 8.57915 4.1178 8.20469 4.35034 7.85168C4.60974 7.45785 4.90979 7.09071 5.25024 6.75025C5.5907 6.40981 5.95776 6.10987 6.35156 5.85044C6.70459 5.61788 7.0791 5.41788 7.47498 5.25042C7.86755 5.08438 8.26843 4.95591 8.67773 4.865C9.17285 4.755 9.6803 4.7 10.2 4.7ZM10.2 6.3C9.78845 6.3 9.38708 6.34458 8.99585 6.43373C8.69043 6.50333 8.39124 6.6001 8.09827 6.72403C7.79822 6.85097 7.51392 7.00222 7.24573 7.17778C6.93652 7.38011 6.64844 7.61472 6.38159 7.88162Q5.98114 8.282 5.67773 8.74577C5.5022 9.01404 5.35095 9.29823 5.224 9.59832C5.1001 9.89133 5.0033 10.1905 4.93372 10.4959C4.84448 10.8871 4.79993 11.2885 4.79993 11.7C4.79993 12.1115 4.84448 12.5129 4.93372 12.9041C5.0033 13.2095 5.1001 13.5087 5.224 13.8017C5.35095 14.1018 5.5022 14.386 5.67773 14.6543C5.88013 14.9635 6.11462 15.2515 6.38159 15.5184C6.64844 15.7853 6.93652 16.0199 7.24573 16.2222C7.51404 16.3978 7.79822 16.549 8.09827 16.676C8.39124 16.7999 8.69043 16.8967 8.99585 16.9663L8.9988 16.9669Q9.58425 17.1 10.2 17.1Q10.8156 17.1 11.4011 16.9669L11.4041 16.9663Q11.4072 16.9655 11.4104 16.9648Q11.8652 16.8606 12.3016 16.676C12.6017 16.549 12.886 16.3978 13.1542 16.2222C13.4634 16.0199 13.7515 15.7853 14.0183 15.5184C14.2853 15.2515 14.5199 14.9634 14.7222 14.6543Q14.9855 14.2518 15.1759 13.8017C15.2998 13.5087 15.3966 13.2095 15.4662 12.9041C15.5554 12.5129 15.6 12.1115 15.6 11.7C15.6 11.2885 15.5554 10.8871 15.4662 10.4959C15.3966 10.1905 15.2998 9.89133 15.1759 9.59832C15.049 9.29822 14.8977 9.01403 14.7222 8.74575Q14.4188 8.28199 14.0183 7.88162C13.7515 7.61472 13.4634 7.3801 13.1542 7.17778C12.886 7.00221 12.6017 6.85096 12.3016 6.72403C12.0087 6.6001 11.7094 6.50333 11.4041 6.43373L11.4012 6.43308Q10.8157 6.3 10.2 6.3ZM36.0352 9.8L20.0391 9.8C19.5911 9.8 19.239 9.448 19.239 9C19.239 8.552 19.5911 8.2 20.0391 8.2L36.0352 8.2C36.4832 8.2 36.8351 8.552 36.8351 9C36.8351 9.448 36.4832 9.8 36.0352 9.8ZM7.44995 11.7C7.44995 10.1812 8.68115 8.95 10.2 8.95C11.7188 8.95 12.95 10.1812 12.95 11.7C12.95 13.2188 11.7188 14.45 10.2 14.45C8.68115 14.45 7.44995 13.2188 7.44995 11.7ZM31.0938 15.5L20.0977 15.5C19.6497 15.5 19.2976 15.148 19.2976 14.7C19.2976 14.252 19.6497 13.9 20.0977 13.9L31.0938 13.9C31.5417 13.9 31.8937 14.252 31.8937 14.7C31.8937 15.148 31.5417 15.5 31.0938 15.5ZM10.2 21.3C10.7196 21.3 11.2269 21.355 11.7222 21.465C12.1315 21.5559 12.5323 21.6844 12.9249 21.8504C13.3208 22.0179 13.6953 22.2179 14.0482 22.4504C14.4421 22.7099 14.8092 23.0098 15.1497 23.3503C15.4902 23.6907 15.7902 24.0579 16.0496 24.4518C16.2821 24.8047 16.4821 25.1792 16.6495 25.575C16.8156 25.9676 16.9441 26.3685 17.0349 26.7777C17.1449 27.2729 17.2 27.7804 17.2 28.3C17.2 28.8196 17.1449 29.3271 17.0349 29.8223C16.9441 30.2315 16.8156 30.6324 16.6495 31.025C16.4821 31.4208 16.2821 31.7953 16.0496 32.1483C15.7902 32.5421 15.4902 32.9093 15.1497 33.2497C14.8092 33.5902 14.442 33.8902 14.0482 34.1496C13.6952 34.3822 13.3208 34.5821 12.9249 34.7496C12.5323 34.9156 12.1315 35.0441 11.7222 35.135C11.2271 35.245 10.7196 35.3 10.2 35.3C9.6803 35.3 9.17285 35.245 8.67761 35.135C8.26843 35.0441 7.86755 34.9156 7.47498 34.7496C7.0791 34.5821 6.70471 34.3822 6.35168 34.1496C5.95789 33.8902 5.5907 33.5902 5.25024 33.2497C4.90979 32.9093 4.60986 32.5422 4.35034 32.1484C4.1178 31.7953 3.91785 31.4209 3.75037 31.025C3.58435 30.6324 3.45581 30.2315 3.36499 29.8222C3.255 29.327 3.19995 28.8196 3.19995 28.3C3.19995 27.7804 3.255 27.273 3.36499 26.7778C3.45581 26.3685 3.58435 25.9676 3.75037 25.575C3.91785 25.1791 4.1178 24.8047 4.35034 24.4517C4.60974 24.0579 4.90979 23.6907 5.25024 23.3503C5.5907 23.0098 5.95776 22.7099 6.35156 22.4504C6.70459 22.2179 7.0791 22.0179 7.47498 21.8504C7.86755 21.6844 8.26843 21.5559 8.67773 21.465C9.17285 21.355 9.6803 21.3 10.2 21.3ZM10.2 22.9C9.78845 22.9 9.38708 22.9446 8.99585 23.0337C8.69043 23.1033 8.39124 23.2001 8.09827 23.324C7.79822 23.451 7.51392 23.6022 7.24573 23.7778C6.93652 23.9801 6.64844 24.2147 6.38159 24.4816C6.11462 24.7485 5.88 25.0366 5.67773 25.3458Q5.41443 25.7482 5.224 26.1983C5.1001 26.4913 5.0033 26.7905 4.93372 27.0959C4.84448 27.4871 4.79993 27.8885 4.79993 28.3C4.79993 28.7115 4.84448 29.1129 4.93372 29.5041C5.0033 29.8095 5.1001 30.1087 5.224 30.4017C5.35095 30.7018 5.5022 30.986 5.67773 31.2543C5.88013 31.5635 6.11462 31.8515 6.38159 32.1184C6.64844 32.3853 6.93652 32.6199 7.24573 32.8222C7.51404 32.9978 7.79822 33.149 8.09827 33.276C8.39124 33.3999 8.69043 33.4967 8.99585 33.5663L8.99882 33.5669Q9.58426 33.7 10.2 33.7Q10.8156 33.7 11.4011 33.5669L11.4041 33.5663C11.7095 33.4967 12.0087 33.3999 12.3016 33.276C12.6017 33.149 12.886 32.9978 13.1542 32.8222C13.4634 32.6199 13.7515 32.3853 14.0183 32.1184C14.2853 31.8515 14.5199 31.5634 14.7222 31.2543Q14.9855 30.8518 15.1759 30.4017C15.2998 30.1087 15.3966 29.8095 15.4662 29.5041C15.5554 29.1129 15.6 28.7115 15.6 28.3C15.6 27.8885 15.5554 27.4871 15.4662 27.0959C15.3966 26.7905 15.2998 26.4913 15.1759 26.1983C15.049 25.8982 14.8977 25.614 14.7222 25.3458C14.5199 25.0366 14.2853 24.7485 14.0183 24.4816C13.7515 24.2147 13.4634 23.9801 13.1542 23.7778C12.886 23.6022 12.6017 23.451 12.3016 23.324C12.0087 23.2001 11.7094 23.1033 11.4041 23.0337C11.0128 22.9446 10.6115 22.9 10.2 22.9ZM36.0352 25.9L20.0391 25.9C19.5911 25.9 19.239 25.548 19.239 25.1C19.239 24.652 19.5911 24.3 20.0391 24.3L36.0352 24.3C36.4832 24.3 36.8351 24.652 36.8351 25.1C36.8351 25.548 36.4832 25.9 36.0352 25.9ZM31.0938 31.6L20.0977 31.6C19.6497 31.6 19.2976 31.248 19.2976 30.8C19.2976 30.352 19.6497 30 20.0977 30L31.0938 30C31.5417 30 31.8937 30.352 31.8937 30.8C31.8937 31.248 31.5417 31.6 31.0938 31.6Z" fill="currentColor" fill-rule="evenodd" />
</svg>
