<?xml version="1.0" encoding="utf-8"?>
<!-- Generator: Adobe Illustrator 26.0.2, SVG Export Plug-In . SVG Version: 6.00 Build 0)  -->
<svg version="1.1" id="图层_1" xmlns="http://www.w3.org/2000/svg" xmlns:xlink="http://www.w3.org/1999/xlink" x="0px" y="0px"
	 viewBox="0 0 48 48" style="enable-background:new 0 0 48 48;" xml:space="preserve">
<style type="text/css">
	.st0{fill-rule:evenodd;clip-rule:evenodd;fill:currentColor;}
</style>
<desc>Created with Pixso.</desc>
<path id="矢量_184" class="st0" d="M46,15c0-1.7-1.3-3-3-3H5c-1.7,0-3,1.3-3,3v18c0,1.7,1.3,3,3,3h38c1.7,0,3-1.3,3-3V15z
	 M44.2,15c0-0.7-0.5-1.2-1.2-1.2H5c-0.7,0-1.2,0.5-1.2,1.2v18c0,0.7,0.5,1.2,1.2,1.2h38c0.7,0,1.2-0.5,1.2-1.2V15z M9.1,24
	c0-3.8,3.1-6.9,6.9-6.9s6.9,3.1,6.9,6.9c0,3.8-3.1,6.9-6.9,6.9S9.1,27.8,9.1,24z M10.9,24c0-2.8,2.3-5.1,5.1-5.1
	c2.8,0,5.1,2.3,5.1,5.1c0,2.8-2.3,5.1-5.1,5.1C13.2,29.1,10.9,26.8,10.9,24z M26,20.1h12c0.5,0,0.9,0.4,0.9,0.9
	c0,0.5-0.4,0.9-0.9,0.9H26c-0.5,0-0.9-0.4-0.9-0.9C25.1,20.5,25.5,20.1,26,20.1z M16,21c-1.7,0-3,1.3-3,3c0,1.6,1.3,3,3,3s3-1.4,3-3
	C19,22.3,17.7,21,16,21z M26,27.1h8c0.5,0,0.9-0.4,0.9-0.9c0-0.5-0.4-0.9-0.9-0.9h-8c-0.5,0-0.9,0.4-0.9,0.9
	C25.1,26.7,25.5,27.1,26,27.1z"/>
</svg>
