<svg viewBox="0 0 40 40" xmlns="http://www.w3.org/2000/svg" xmlns:xlink="http://www.w3.org/1999/xlink" width="40.000000" height="40.000000" fill="none">
	<rect id="单选框" width="40.000000" height="40.000000" x="0.000000" y="0.000000" fill="rgb(255,255,255)" fill-opacity="0" />
	<path id="矢量 562" d="M20 2.95C20.8242 2.95 21.64 3.00812 22.4475 3.12436C22.7782 3.17196 23.1074 3.2293 23.4353 3.29638C23.9897 3.40985 24.5358 3.55026 25.0735 3.71763Q25.0877 3.72204 25.1018 3.72648Q25.8812 3.97056 26.6368 4.2902Q27.2902 4.56654 27.916 4.89515C28.4713 5.18669 29.0104 5.50909 29.5333 5.86235C29.9523 6.14539 30.3572 6.44574 30.7479 6.76341C31.2031 7.1334 31.6392 7.52687 32.0562 7.94383Q32.679 8.56674 33.232 9.24648L33.2357 9.251C33.5537 9.64211 33.8544 10.0473 34.1376 10.4666C34.4913 10.9902 34.8141 11.53 35.106 12.0861C35.3246 12.5026 35.5259 12.9283 35.7097 13.3631C35.9269 13.8765 36.1178 14.398 36.2827 14.9276C36.45 15.4649 36.5902 16.0106 36.7036 16.5647C36.7705 16.892 36.8278 17.2207 36.8754 17.5509C36.9917 18.3589 37.0499 19.1752 37.0499 20C37.0499 20.8248 36.9917 21.6413 36.8754 22.4493C36.8278 22.7794 36.7705 23.1081 36.7036 23.4353C36.5901 23.9899 36.4496 24.5361 36.2822 25.0739C36.1176 25.603 35.9266 26.124 35.7097 26.6369C35.5253 27.0731 35.3232 27.5 35.1039 27.9179C34.8126 28.4725 34.4905 29.011 34.1376 29.5334C33.8546 29.9523 33.5542 30.3572 33.2365 30.748C32.8666 31.2032 32.473 31.6392 32.0562 32.0562C31.6392 32.4731 31.2032 32.8665 30.7482 33.2365C30.3573 33.5542 29.9524 33.8546 29.5333 34.1377C29.0105 34.4908 28.4716 34.8132 27.9164 35.1047Q27.2903 35.4334 26.6368 35.7098C26.1238 35.9268 25.6027 36.1177 25.0734 36.2824C24.5358 36.4498 23.9897 36.5902 23.4353 36.7036C23.1079 36.7706 22.7792 36.8279 22.449 36.8754C21.641 36.9918 20.8247 37.05 20 37.05C19.1753 37.05 18.3591 36.9918 17.5513 36.8755C17.2209 36.8279 16.8921 36.7706 16.5646 36.7036C16.01 36.5901 15.4639 36.4497 14.9261 36.2823C14.397 36.1176 13.876 35.9267 13.363 35.7098C12.9272 35.5255 12.5006 35.3237 12.0831 35.1045C11.5281 34.8131 10.9893 34.4908 10.4666 34.1377C10.0477 33.8547 9.64282 33.5544 9.2522 33.2368C8.79688 32.8667 8.36084 32.4732 7.94373 32.0562C7.52686 31.6393 7.13354 31.2033 6.76355 30.7483C6.4458 30.3574 6.14539 29.9524 5.8623 29.5334C5.50916 29.0106 5.18677 28.4716 4.89526 27.9164C4.67615 27.499 4.47437 27.0725 4.29016 26.6369C4.07312 26.1239 3.88232 25.6028 3.71753 25.0736C3.55017 24.5359 3.40979 23.9898 3.29639 23.4353C3.22925 23.1076 3.172 22.7785 3.12439 22.448C3.00806 21.6404 2.94995 20.8244 2.94995 20Q2.94995 18.7641 3.12419 17.5533L3.12427 17.5528Q3.19568 17.0567 3.29639 16.5647C3.40979 16.0104 3.55005 15.4646 3.71741 14.9271L3.71802 14.9251Q3.965 14.1319 4.29016 13.3631C4.47437 12.9276 4.6759 12.5013 4.89502 12.0841C5.18652 11.5288 5.50903 10.9896 5.8623 10.4666Q6.28591 9.83954 6.76127 9.2545L6.76355 9.2517C7.13354 8.79665 7.52686 8.3607 7.94373 7.94383C8.36072 7.52694 8.79663 7.13352 9.25171 6.76359C9.64258 6.44585 10.0475 6.14544 10.4666 5.86235C10.9895 5.50908 11.5286 5.18668 12.0839 4.89513Q12.7097 4.56653 13.363 4.2902C13.8762 4.07314 14.3976 3.88222 14.927 3.71744C15.4645 3.55015 16.0104 3.4098 16.5646 3.29638C16.8925 3.2293 17.2217 3.17195 17.5524 3.12436C18.3599 3.00812 19.1758 2.95 20 2.95ZM20 4.55Q18.2506 4.55 16.5862 4.92582C15.7015 5.12554 14.835 5.40487 13.9863 5.76381C13.5986 5.92779 13.219 6.10703 12.8472 6.30153C12.3372 6.56835 11.8422 6.86389 11.3623 7.18814Q10.7972 7.56984 10.2699 7.99788C9.85413 8.33538 9.45581 8.69448 9.0752 9.0752Q8.50427 9.64607 7.99817 10.2695Q7.99177 10.2774 7.98539 10.2853Q7.56418 10.8055 7.18811 11.3623C6.86389 11.8422 6.56836 12.3372 6.30151 12.8471C6.10706 13.2189 5.92773 13.5987 5.76379 13.9864C5.40479 14.8351 5.12549 15.7017 4.92578 16.5863C4.67517 17.696 4.54993 18.8338 4.54993 20C4.54993 21.1662 4.67517 22.3041 4.92578 23.4138C5.12549 24.2984 5.40479 25.165 5.76379 26.0136C5.92786 26.4015 6.10718 26.7814 6.30176 27.1533C6.56848 27.6631 6.86401 28.1579 7.18811 28.6377C7.44263 29.0144 7.71252 29.3786 7.99805 29.7302C8.33545 30.146 8.69446 30.5442 9.0752 30.9248C9.45581 31.3055 9.854 31.6645 10.2698 32.002C10.6215 32.2874 10.9856 32.5574 11.3623 32.8119C11.8422 33.1361 12.3372 33.4317 12.8472 33.6985C13.219 33.893 13.5986 34.0722 13.9863 34.2362C14.835 34.5951 15.7015 34.8745 16.5862 35.0742Q18.2506 35.45 20 35.45C21.1661 35.45 22.3041 35.3247 23.4137 35.0742C24.2982 34.8745 25.1649 34.5951 26.0135 34.2362C26.4011 34.0723 26.7808 33.8931 27.1525 33.6986C27.6626 33.4317 28.1576 33.1362 28.6376 32.8119C29.0144 32.5573 29.3787 32.2873 29.7303 32.0018C30.146 31.6644 30.5442 31.3054 30.9248 30.9248C31.3053 30.5442 31.6643 30.1461 32.0017 29.7305C32.2872 29.3788 32.5573 29.0145 32.8118 28.6377Q33.2979 27.9182 33.698 27.1536C33.8927 26.7816 34.072 26.4016 34.2361 26.0136C34.5951 25.165 34.8744 24.2984 35.0741 23.4138C35.3247 22.3042 35.45 21.1662 35.45 20C35.45 18.8338 35.3247 17.6959 35.0741 16.5862C34.8744 15.7016 34.5951 14.835 34.2361 13.9864C34.0724 13.5992 33.8933 13.2199 33.6991 12.8486Q33.2986 12.0829 32.8118 11.3623C32.5571 10.9853 32.287 10.6209 32.0012 10.269C31.6641 9.85355 31.3052 9.45562 30.9248 9.0752C30.5441 8.69453 30.1459 8.33547 29.7301 7.99802C29.3785 7.7126 29.0144 7.44265 28.6376 7.18814C28.1577 6.86391 27.6627 6.56839 27.1528 6.30158Q27.1365 6.29301 27.1201 6.28448Q26.578 6.00258 26.0135 5.76381C25.1649 5.40486 24.2982 5.12552 23.4136 4.92579C22.304 4.67526 21.1661 4.55 20 4.55ZM20 12C15.5817 12 12 15.5817 12 20C12 24.4183 15.5817 28 20 28C24.4183 28 28 24.4183 28 20C28 15.5817 24.4183 12 20 12Z" fill="currentColor" fill-rule="evenodd" />
</svg>
