<svg viewBox="0 0 40 40" xmlns="http://www.w3.org/2000/svg" xmlns:xlink="http://www.w3.org/1999/xlink" width="40.000000" height="40.000000" fill="none">
	<rect id="评分" width="40.000000" height="40.000000" x="0.000000" y="0.000000" fill="rgb(255,255,255)" fill-opacity="0" />
	<path id="矢量 600" d="M31.25 3.75C34.0115 3.75 36.25 5.98857 36.25 8.75L36.25 31.25C36.25 34.0114 34.0115 36.25 31.25 36.25L8.75 36.25C5.98853 36.25 3.75 34.0114 3.75 31.25L3.75 8.75C3.75 5.98857 5.98853 3.75 8.75 3.75L31.25 3.75ZM31.25 5.35001L8.75 5.35001C8.48267 5.35001 8.22229 5.37978 7.96899 5.43932L7.96887 5.43932C7.78455 5.48264 7.604 5.5417 7.427 5.61653Q7.15178 5.73297 6.90471 5.8929Q6.90291 5.89406 6.90112 5.89522C6.70227 6.02426 6.51721 6.17447 6.34583 6.34584C6.17444 6.5172 6.02429 6.70227 5.89526 6.90109L5.89526 6.90111C5.7876 7.06688 5.6947 7.24219 5.61658 7.42706Q5.50455 7.6919 5.43958 7.96781L5.43933 7.96887L5.43933 7.96893C5.37976 8.22229 5.34998 8.48265 5.34998 8.75L5.34998 31.25C5.34998 31.5173 5.37976 31.7777 5.43933 32.0311C5.48267 32.2154 5.54175 32.396 5.61658 32.5729Q5.73247 32.8472 5.8917 33.0934Q5.89348 33.0962 5.89526 33.0989C6.02429 33.2977 6.17444 33.4828 6.34583 33.6542C6.51721 33.8255 6.70239 33.9758 6.90125 34.1048C7.06689 34.2124 7.24219 34.3053 7.427 34.3835C7.604 34.4583 7.78455 34.5174 7.96887 34.5607C8.22229 34.6202 8.48267 34.65 8.75 34.65L31.25 34.65Q31.649 34.65 32.0273 34.5616L32.0274 34.5616L32.0311 34.5607C32.2155 34.5174 32.396 34.4583 32.573 34.3835C32.7578 34.3053 32.9332 34.2123 33.099 34.1047C33.2977 33.9757 33.4828 33.8255 33.6542 33.6542C33.8256 33.4828 33.9758 33.2976 34.1049 33.0987C34.2124 32.933 34.3053 32.7577 34.3834 32.5729Q34.4955 32.3081 34.5604 32.0322L34.5607 32.0312Q34.65 31.6511 34.65 31.25L34.65 8.75C34.65 8.48264 34.6202 8.22226 34.5607 7.9689L34.5607 7.96884C34.5173 7.78455 34.4583 7.60396 34.3834 7.42706C34.3053 7.2422 34.2124 7.06689 34.1049 6.90114C33.9757 6.7023 33.8256 6.51721 33.6542 6.34584C33.4828 6.17448 33.2977 6.02428 33.0989 5.89522L33.0953 5.8929L33.0952 5.89284Q32.8482 5.73295 32.573 5.61653C32.396 5.5417 32.2155 5.48264 32.0311 5.43932L32.0274 5.43844Q31.649 5.35001 31.25 5.35001ZM23.826 15.5061C23.5087 15.4591 23.2344 15.2598 23.0916 14.9725L20.8779 10.517C20.5175 9.7915 19.4824 9.7915 19.1219 10.517L16.9083 14.9725C16.7655 15.2598 16.4912 15.4591 16.1738 15.5061L11.2524 16.2346C10.451 16.3532 10.1312 17.3376 10.7098 17.9046L14.2632 21.3868C14.4923 21.6113 14.597 21.9338 14.5436 22.2501L13.7157 27.1558C13.5809 27.9547 14.4182 28.563 15.1362 28.1879L19.546 25.8846C19.8304 25.736 20.1694 25.736 20.4539 25.8846L24.8636 28.1879C25.5817 28.563 26.4189 27.9547 26.2842 27.1558L25.4563 22.2501C25.4028 21.9338 25.5076 21.6113 25.7368 21.3868L29.29 17.9046C29.8687 17.3376 29.5488 16.3533 28.7474 16.2346L23.826 15.5061ZM20 12.3458L21.6587 15.6844C21.7527 15.8735 21.8658 16.0463 21.9982 16.2028L21.9982 16.2029C22.1305 16.3594 22.2821 16.4997 22.4529 16.6238C22.6237 16.7479 22.804 16.8487 22.9938 16.9262C23.1836 17.0037 23.3828 17.0579 23.5917 17.0888L27.2794 17.6347L24.6169 20.244C24.4661 20.3918 24.3367 20.5528 24.2288 20.727C24.1207 20.9013 24.0341 21.0888 23.9689 21.2896C23.9037 21.4904 23.8635 21.693 23.8484 21.8975C23.8334 22.1019 23.8434 22.3082 23.8785 22.5164L24.4989 26.1923L21.1946 24.4664Q20.9139 24.3198 20.6152 24.2465C20.4161 24.1976 20.2111 24.1732 20 24.1732C19.7888 24.1732 19.5837 24.1976 19.3846 24.2465Q19.086 24.3198 18.8053 24.4664L15.501 26.1923L16.1213 22.5164C16.1565 22.3082 16.1665 22.1019 16.1515 21.8974Q16.1288 21.5907 16.031 21.2896C15.9658 21.0888 15.8792 20.9013 15.7711 20.7271C15.6632 20.5528 15.5338 20.3918 15.3831 20.244L12.7205 17.6347L16.4082 17.0888C16.6169 17.0579 16.8163 17.0037 17.0061 16.9262C17.1959 16.8487 17.3762 16.7479 17.547 16.6238C17.7178 16.4997 17.8694 16.3594 18.0017 16.2029C18.134 16.0463 18.2472 15.8735 18.3412 15.6844L20 12.3458Z" fill="currentColor" fill-rule="evenodd" />
</svg>
