<svg viewBox="0 0 80 80" xmlns="http://www.w3.org/2000/svg" xmlns:xlink="http://www.w3.org/1999/xlink" width="80.000000" height="80.000000" fill="none">
	<rect id="成功2" width="80.000000" height="80.000000" x="0.000000" y="0.000000" />
	<path id="path" d="M40 73.3333C49.2046 73.3333 57.538 69.6023 63.5701 63.5701C69.6023 57.538 73.3333 49.2046 73.3333 40C73.3333 30.7953 69.6023 22.462 63.5701 16.4297C57.538 10.3976 49.2046 6.66663 40 6.66663C30.7953 6.66663 22.462 10.3976 16.4297 16.4297C10.3976 22.462 6.66663 30.7953 6.66663 40C6.66663 49.2046 10.3976 57.538 16.4297 63.5701C22.462 69.6023 30.7953 73.3333 40 73.3333Z" fill="rgb(92,179,0)" fill-rule="nonzero" />
	<path id="path (边框)" d="M58.4351 31.7679L38.4351 51.7679C37.8458 52.3571 37.2566 52.6517 36.6673 52.6517C36.0781 52.6517 35.4888 52.3571 34.8996 51.7679L24.8996 41.7679C23.9096 40.7779 23.9096 39.2223 24.8996 38.2323C25.8895 37.2424 27.4452 37.2424 28.4351 38.2323L36.6673 46.4646L54.8996 28.2323C55.8895 27.2424 57.4452 27.2424 58.4351 28.2323C59.425 29.2223 59.425 30.7779 58.4351 31.7679Z" fill="rgb(255,255,255)" fill-rule="evenodd" />
</svg>
