<svg viewBox="0 0 40 40" xmlns="http://www.w3.org/2000/svg" xmlns:xlink="http://www.w3.org/1999/xlink" width="40.000000" height="40.000000" fill="none">
	<rect id="环形图" width="40.000000" height="40.000000" x="0.000000" y="0.000000" fill="rgb(255,255,255)" fill-opacity="0" />
	<path id="矢量 580" d="M20 4.55C18.8337 4.55 17.6958 4.67526 16.5862 4.9258C15.7017 5.12552 14.835 5.40486 13.9863 5.76381C13.5988 5.92776 13.219 6.10699 12.8473 6.30145Q12.0823 6.70172 11.3623 7.18814C10.9855 7.44266 10.6213 7.71263 10.2697 7.99808C9.854 8.33551 9.45581 8.69455 9.0752 9.0752C8.69446 9.45593 8.33533 9.8542 7.9978 10.27C7.7124 10.6216 7.4425 10.9857 7.18811 11.3623C6.86389 11.8422 6.56836 12.3371 6.30164 12.847C6.10706 13.2188 5.92773 13.5986 5.76379 13.9864C4.95459 15.8996 4.54993 17.9041 4.54993 20C4.54993 21.1662 4.67517 22.3042 4.92578 23.4138C5.12549 24.2984 5.40479 25.165 5.76379 26.0136Q6.00936 26.5943 6.30056 27.1511L6.30066 27.1513L6.30139 27.1527C6.56824 27.6627 6.86377 28.1577 7.18811 28.6377C7.44263 29.0144 7.71252 29.3785 7.99792 29.7301C8.33533 30.1459 8.69446 30.5441 9.0752 30.9248C9.45581 31.3055 9.854 31.6646 10.2698 32.002C10.6215 32.2874 10.9856 32.5574 11.3623 32.8119C12.192 33.3725 13.0668 33.8472 13.9863 34.2362C15.8995 35.0454 17.9041 35.45 20 35.45C22.0958 35.45 24.1003 35.0454 26.0135 34.2362C26.9331 33.8472 27.8079 33.3725 28.6376 32.8118C29.0146 32.5572 29.379 32.287 29.7308 32.0014C30.1464 31.6641 30.5443 31.3052 30.9248 30.9248C31.3053 30.5442 31.6643 30.1461 32.0017 29.7305C32.2872 29.3788 32.5573 29.0145 32.8118 28.6377C33.3724 27.8079 33.8472 26.9332 34.2361 26.0136C35.0454 24.1004 35.45 22.0959 35.45 20C35.45 19.552 35.802 19.2 36.25 19.2C36.698 19.2 37.0499 19.552 37.0499 20C37.0499 21.1617 36.9344 22.3068 36.7036 23.4353C36.4784 24.5355 36.1472 25.6027 35.7097 26.6369Q35.4344 27.2879 35.1072 27.9116L35.1071 27.9118L35.107 27.912Q34.6688 28.7471 34.1376 29.5334C33.5249 30.4403 32.8311 31.2812 32.0562 32.0562C31.2811 32.8311 30.4402 33.525 29.5333 34.1376C28.6176 34.7564 27.652 35.2804 26.6368 35.7098C25.6027 36.1472 24.5355 36.4785 23.4353 36.7036C22.3068 36.9345 21.1617 37.05 20 37.05C18.8383 37.05 17.6931 36.9345 16.5646 36.7036C15.4644 36.4785 14.3972 36.1472 13.363 35.7098C12.3479 35.2804 11.3823 34.7563 10.4666 34.1376Q9.84521 33.7178 9.26508 33.2472L9.26473 33.2469L9.25256 33.237C8.79712 32.8669 8.36096 32.4733 7.94373 32.0562C7.52698 31.6393 7.13354 31.2034 6.76367 30.7484C6.44592 30.3575 6.14539 29.9525 5.8623 29.5334C5.50903 29.0104 5.18652 28.4713 4.89502 27.9159C4.67603 27.4987 4.47437 27.0724 4.29016 26.6369C4.07312 26.1239 3.88232 25.6028 3.71753 25.0735C3.55017 24.5359 3.40979 23.9898 3.29639 23.4353C3.22925 23.1076 3.172 22.7785 3.12439 22.448C3.00806 21.6403 2.94995 20.8244 2.94995 20C2.94995 19.1759 3.00806 18.3602 3.12427 17.5528C3.17188 17.222 3.22925 16.8926 3.29639 16.5647C3.40979 16.0104 3.55005 15.4646 3.71741 14.9271C3.8822 14.3976 4.07312 13.8763 4.29016 13.3631C4.47437 12.9276 4.67603 12.5012 4.89502 12.0839C5.18665 11.5286 5.50903 10.9895 5.8623 10.4666C6.14526 10.0478 6.44556 9.64296 6.76318 9.25223C7.13318 8.797 7.52673 8.36086 7.94373 7.94383C8.3606 7.52704 8.79639 7.13371 9.25134 6.76387C9.64233 6.44603 10.0474 6.14552 10.4666 5.86234C10.9895 5.50903 11.5287 5.18658 12.0841 4.89502C12.5012 4.67599 12.9276 4.47438 13.363 4.29019C13.8763 4.07312 14.3976 3.8822 14.9271 3.71741C15.4646 3.55013 16.0104 3.40979 16.5646 3.29637C16.8925 3.22931 17.2216 3.17197 17.5521 3.12439C18.3597 3.00813 19.1757 2.95 20 2.95C20.448 2.95 20.7999 3.302 20.7999 3.75C20.7999 4.198 20.448 4.54999 20 4.55ZM26.0312 4.0477C25.6123 3.88921 25.1584 4.09389 25 4.51291C24.8414 4.93195 25.0461 5.38571 25.4652 5.54422C25.9333 5.72131 26.3907 5.92024 26.8374 6.14098C27.4166 6.42723 27.9777 6.75017 28.5205 7.1098C28.9635 7.40321 29.3892 7.71761 29.7977 8.05299L29.8088 8.06207Q30.5055 8.63515 31.1351 9.28973C31.5687 9.74037 31.9723 10.2136 32.3459 10.7094C32.6558 11.1204 32.9449 11.547 33.2136 11.989C33.5481 12.5395 33.8459 13.1063 34.1072 13.6895C34.3149 14.1534 34.4996 14.6277 34.6611 15.1123C34.8027 15.5374 35.2479 15.76 35.673 15.6184C36.098 15.4768 36.3207 15.0315 36.1791 14.6065Q35.909 13.7958 35.5606 13.0202L35.5605 13.02L35.5604 13.0198Q35.1303 12.0622 34.5809 11.1582C34.2817 10.6658 33.9595 10.1909 33.614 9.7334C33.2046 9.19121 32.7626 8.67355 32.2882 8.18044C31.8242 7.69815 31.3354 7.24594 30.822 6.82381C30.3687 6.45107 29.896 6.10176 29.4042 5.77591C28.8112 5.38315 28.1986 5.03 27.5664 4.71649C27.0669 4.46883 26.5552 4.24591 26.0312 4.0477ZM30.1558 19.9997C30.1558 14.4042 25.6196 9.86816 20.0242 9.86816C14.4286 9.86816 9.89258 14.4042 9.89258 19.9997C9.89258 25.5953 14.4286 30.1313 20.0242 30.1313C25.6196 30.1313 30.1558 25.5953 30.1558 19.9997ZM18.1147 11.681C18.735 11.5391 19.3715 11.4682 20.0242 11.4682C20.6769 11.4682 21.3134 11.5391 21.9336 11.681C22.4136 11.7908 22.8839 11.9431 23.3445 12.138C23.8175 12.338 24.2654 12.5762 24.6884 12.8527C25.178 13.1729 25.6342 13.5443 26.0569 13.967Q26.6908 14.6009 27.171 15.3353L27.1713 15.3357C27.4476 15.7586 27.6859 16.2065 27.886 16.6794C28.0808 17.1399 28.233 17.6103 28.3429 18.0903L28.3429 18.0903C28.4847 18.7106 28.5558 19.347 28.5558 19.9997C28.5558 20.6524 28.4847 21.2889 28.3429 21.9091C28.233 22.3891 28.0808 22.8595 27.886 23.3201Q27.5859 24.0295 27.1711 24.664C26.851 25.1537 26.4795 25.6098 26.0569 26.0325C25.6342 26.4552 25.178 26.8266 24.6882 27.1468C24.2654 27.4233 23.8174 27.6615 23.3445 27.8615C22.8839 28.0563 22.4137 28.2086 21.9336 28.3185C21.3134 28.4604 20.6769 28.5313 20.0242 28.5313C19.3715 28.5313 18.735 28.4604 18.1147 28.3185C17.6348 28.2087 17.1644 28.0564 16.7037 27.8615C16.2308 27.6615 15.783 27.4232 15.36 27.1467L15.3539 27.1428Q14.6228 26.6639 13.9915 26.0325Q13.3574 25.3984 12.8771 24.6638C12.6006 24.2409 12.3624 23.793 12.1624 23.3201C11.9675 22.8595 11.8152 22.3892 11.7054 21.9092C11.5635 21.2889 11.4926 20.6524 11.4926 19.9997C11.4926 19.347 11.5635 18.7106 11.7054 18.0903C11.8152 17.6103 11.9675 17.14 12.1624 16.6794C12.3624 16.2065 12.6006 15.7586 12.8771 15.3357L12.8771 15.3356C13.1973 14.8459 13.5687 14.3897 13.9915 13.967C14.4142 13.5443 14.8704 13.1729 15.3601 12.8527L15.3601 12.8527Q15.3653 12.8493 15.3705 12.8459Q16.0004 12.4355 16.7037 12.138Q17.3906 11.8474 18.1065 11.6829Q18.1106 11.682 18.1147 11.681L18.1147 11.681Z" fill="currentColor" fill-rule="evenodd" />
</svg>
