<svg viewBox="0 0 40 40" xmlns="http://www.w3.org/2000/svg" xmlns:xlink="http://www.w3.org/1999/xlink" width="40.000000" height="40.000000" fill="none">
	<rect id="路由视图" width="40.000000" height="40.000000" x="0.000000" y="0.000000" fill="rgb(255,255,255)" fill-opacity="0" />
	<path id="矢量 512" d="M34.5 3.75C36.1569 3.75 37.5 5.09314 37.5 6.75L37.5 33.25C37.5 34.9069 36.1569 36.25 34.5 36.25L5.5 36.25C3.84314 36.25 2.5 34.9069 2.5 33.25L2.5 6.75C2.5 5.09314 3.84314 3.75 5.5 3.75L34.5 3.75ZM34.5 5.35001L5.5 5.35001C5.38281 5.35001 5.26904 5.36377 5.15869 5.39136C5.0896 5.40863 5.02197 5.43127 4.95557 5.45935C4.88293 5.49008 4.81384 5.52634 4.74829 5.56815C4.66284 5.62268 4.5835 5.68665 4.51001 5.76004C4.43665 5.83347 4.37268 5.91287 4.31812 5.99835Q4.25549 6.09663 4.20935 6.20554C4.18127 6.27191 4.15857 6.33966 4.14136 6.40875C4.11377 6.51904 4.09998 6.63281 4.09998 6.75L4.09998 12.95L35.9 12.95L35.9 6.75C35.9 6.63284 35.8862 6.51913 35.8586 6.40884C35.8414 6.33972 35.8187 6.27197 35.7906 6.20554C35.7599 6.13297 35.7236 6.0639 35.6819 5.99838C35.6273 5.9129 35.5634 5.83347 35.49 5.76004C35.4165 5.68665 35.337 5.62265 35.2516 5.56812L35.2515 5.56805C35.186 5.52628 35.1169 5.49005 35.0444 5.45935C34.9781 5.4313 34.9105 5.40866 34.8414 5.39142L34.8413 5.39136C34.731 5.3638 34.6172 5.35001 34.5 5.35001ZM4.09998 14.55L4.09998 33.25C4.09998 33.3672 4.11377 33.481 4.14136 33.5912C4.15857 33.6603 4.18127 33.7281 4.20935 33.7945C4.24011 33.867 4.27637 33.9361 4.31812 34.0016L4.31812 34.0016C4.37268 34.0871 4.43665 34.1665 4.51001 34.24C4.5835 34.3134 4.66296 34.3773 4.74841 34.4319C4.81384 34.4737 4.88293 34.5099 4.95557 34.5406C5.02197 34.5687 5.0896 34.5914 5.15869 34.6086C5.26904 34.6362 5.38281 34.65 5.5 34.65L34.5 34.65C34.6172 34.65 34.7308 34.6362 34.8412 34.6087L34.8414 34.6086C34.9104 34.5913 34.9781 34.5687 35.0444 34.5406C35.1171 34.5099 35.1862 34.4737 35.2516 34.4319L35.2517 34.4318C35.3372 34.3773 35.4166 34.3133 35.49 34.24C35.5634 34.1665 35.6273 34.0871 35.6819 34.0016L35.682 34.0014C35.7238 33.9359 35.76 33.867 35.7906 33.7945C35.8187 33.7281 35.8413 33.6604 35.8586 33.5913L35.8586 33.5912C35.8862 33.4809 35.9 33.3672 35.9 33.25L35.9 14.55L4.09998 14.55ZM7.11914 9.25C7.11914 8.55963 7.67883 8 8.36914 8C9.05945 8 9.61914 8.55963 9.61914 9.25C9.61914 9.94037 9.05945 10.5 8.36914 10.5C7.67883 10.5 7.11914 9.94037 7.11914 9.25ZM11.7383 9.25C11.7383 8.55963 12.298 8 12.9883 8C13.6786 8 14.2383 8.55963 14.2383 9.25C14.2383 9.94037 13.6786 10.5 12.9883 10.5C12.298 10.5 11.7383 9.94037 11.7383 9.25ZM16.3574 9.25C16.3574 8.55963 16.9171 8 17.6074 8C18.2977 8 18.8574 8.55963 18.8574 9.25C18.8574 9.94037 18.2977 10.5 17.6074 10.5C16.9171 10.5 16.3574 9.94037 16.3574 9.25ZM11.7001 30.375L11.7001 18.375C11.7001 17.927 12.052 17.575 12.5 17.575C12.948 17.575 13.3 17.927 13.3 18.375L13.3 19.681L17.624 19.681C17.9726 18.5622 19.0164 17.75 20.25 17.75L27.25 17.75C28.7688 17.75 30 18.9812 30 20.5C30 22.0188 28.7688 23.25 27.25 23.25L20.25 23.25C19.0025 23.25 17.949 22.4193 17.6125 21.281L13.3 21.281L13.3 27.431L17.5589 27.431C17.821 26.1852 18.9263 25.25 20.25 25.25L27.25 25.25C28.7688 25.25 30 26.4812 30 28C30 29.5188 28.7688 30.75 27.25 30.75L20.25 30.75C19.0958 30.75 18.1077 30.0389 17.6998 29.031L13.3 29.031L13.3 30.375C13.3 30.823 12.948 31.175 12.5 31.175C12.052 31.175 11.7001 30.823 11.7001 30.375ZM27.25 19.35L20.25 19.35C20.1516 19.35 20.0562 19.3618 19.9637 19.3854C19.9091 19.3994 19.8555 19.4175 19.8029 19.4397C19.7443 19.4645 19.6885 19.4937 19.6355 19.5273C19.5642 19.5725 19.4979 19.6257 19.4368 19.6868C19.3756 19.748 19.3225 19.8142 19.2773 19.8855C19.2437 19.9385 19.2145 19.9943 19.1897 20.0529C19.1675 20.1054 19.1494 20.1591 19.1354 20.2137L19.1354 20.2138C19.1118 20.3062 19.1 20.4016 19.1 20.5C19.1 20.5984 19.1118 20.6938 19.1354 20.7863C19.1494 20.8409 19.1675 20.8946 19.1897 20.9471C19.2145 21.0057 19.2437 21.0615 19.2773 21.1145C19.3225 21.1858 19.3756 21.252 19.4368 21.3132C19.4979 21.3743 19.5642 21.4275 19.6355 21.4727C19.6885 21.5063 19.7443 21.5355 19.8029 21.5603C19.8555 21.5825 19.9091 21.6006 19.9637 21.6146C20.0562 21.6382 20.1516 21.65 20.25 21.65L27.25 21.65C27.3484 21.65 27.4438 21.6382 27.5363 21.6146C27.5909 21.6006 27.6445 21.5825 27.6971 21.5603C27.7557 21.5355 27.8115 21.5063 27.8645 21.4727L27.8645 21.4727C27.9358 21.4275 28.0021 21.3743 28.0632 21.3132C28.1243 21.252 28.1775 21.1858 28.2227 21.1145C28.2563 21.0616 28.2855 21.0057 28.3103 20.9471C28.3325 20.8946 28.3506 20.841 28.3646 20.7863L28.3646 20.7863C28.3882 20.6939 28.4 20.5984 28.4 20.5C28.4 20.4016 28.3882 20.3061 28.3646 20.2137C28.3506 20.159 28.3325 20.1054 28.3103 20.0529C28.2855 19.9943 28.2563 19.9385 28.2228 19.8855L28.2227 19.8855C28.1775 19.8142 28.1244 19.748 28.0632 19.6868C28.0021 19.6257 27.9358 19.5725 27.8645 19.5273C27.8115 19.4937 27.7557 19.4645 27.6971 19.4397C27.6445 19.4175 27.5909 19.3994 27.5363 19.3854C27.4438 19.3618 27.3484 19.35 27.25 19.35ZM27.25 26.85L20.25 26.85C20.1516 26.85 20.0562 26.8618 19.9637 26.8854C19.9091 26.8994 19.8555 26.9175 19.8029 26.9397C19.7443 26.9645 19.6885 26.9937 19.6355 27.0273C19.5642 27.0725 19.4979 27.1257 19.4368 27.1868C19.3756 27.248 19.3225 27.3142 19.2773 27.3855C19.2437 27.4385 19.2145 27.4943 19.1897 27.5529C19.1675 27.6054 19.1494 27.6591 19.1354 27.7137L19.1354 27.7138C19.1118 27.8062 19.1 27.9016 19.1 28C19.1 28.0984 19.1118 28.1938 19.1354 28.2863C19.1494 28.3409 19.1675 28.3946 19.1897 28.4471C19.2145 28.5057 19.2437 28.5615 19.2773 28.6145C19.3225 28.6858 19.3756 28.752 19.4368 28.8132C19.4979 28.8743 19.5642 28.9275 19.6355 28.9727C19.6885 29.0063 19.7443 29.0355 19.8029 29.0603C19.8555 29.0825 19.9091 29.1006 19.9637 29.1146C20.0562 29.1382 20.1516 29.15 20.25 29.15L27.25 29.15C27.3484 29.15 27.4438 29.1382 27.5363 29.1146C27.5909 29.1006 27.6445 29.0825 27.6971 29.0603C27.7557 29.0355 27.8115 29.0063 27.8645 28.9727L27.8645 28.9727C27.9358 28.9275 28.0021 28.8743 28.0632 28.8132C28.1243 28.752 28.1775 28.6858 28.2227 28.6145C28.2563 28.5616 28.2855 28.5057 28.3103 28.4471C28.3325 28.3946 28.3506 28.341 28.3646 28.2863L28.3646 28.2863C28.3882 28.1939 28.4 28.0984 28.4 28C28.4 27.9016 28.3882 27.8061 28.3646 27.7137C28.3506 27.659 28.3325 27.6054 28.3103 27.5529C28.2855 27.4943 28.2563 27.4385 28.2228 27.3855L28.2227 27.3855C28.1775 27.3142 28.1244 27.248 28.0632 27.1868C28.0021 27.1257 27.9358 27.0725 27.8645 27.0273C27.8115 26.9937 27.7557 26.9645 27.6971 26.9397C27.6445 26.9175 27.5909 26.8994 27.5363 26.8854C27.4438 26.8618 27.3484 26.85 27.25 26.85Z" fill="currentColor" fill-rule="evenodd" />
</svg>
