<?xml version="1.0" encoding="utf-8"?>
<!-- Generator: Adobe Illustrator 26.0.2, SVG Export Plug-In . SVG Version: 6.00 Build 0)  -->
<svg version="1.1" id="图层_1" xmlns="http://www.w3.org/2000/svg" xmlns:xlink="http://www.w3.org/1999/xlink" x="0px" y="0px"
	 viewBox="0 0 48 48" style="enable-background:new 0 0 48 48;" xml:space="preserve">
<style type="text/css">
	.st0{fill-rule:evenodd;clip-rule:evenodd;fill:currentColor;}
</style>
<desc>Created with Pixso.</desc>
<path id="矢量_154" class="st0" d="M40,6c1.7,0,3,1.3,3,3v30c0,1.7-1.3,3-3,3H8c-1.7,0-3-1.3-3-3V9c0-1.7,1.3-3,3-3H40z M41.2,9
	c0-0.7-0.5-1.2-1.2-1.2H8C7.3,7.8,6.8,8.3,6.8,9v7.1h34.4V9z M6.8,17.9V39c0,0.7,0.5,1.2,1.2,1.2h32c0.7,0,1.2-0.5,1.2-1.2V17.9H6.8
	z M9.6,11.9c0-0.8,0.7-1.5,1.5-1.5c0.8,0,1.5,0.7,1.5,1.5c0,0.8-0.7,1.5-1.5,1.5C10.3,13.4,9.6,12.7,9.6,11.9z M13.9,11.9
	c0-0.8,0.7-1.5,1.5-1.5c0.8,0,1.5,0.7,1.5,1.5c0,0.8-0.7,1.5-1.5,1.5C14.6,13.4,13.9,12.7,13.9,11.9z M18.2,11.9
	c0-0.8,0.7-1.5,1.5-1.5c0.8,0,1.5,0.7,1.5,1.5c0,0.8-0.7,1.5-1.5,1.5C18.9,13.4,18.2,12.7,18.2,11.9z M12.5,23
	c0-1.9,1.6-3.5,3.5-3.5c1.9,0,3.5,1.6,3.5,3.5c0,1.6-1.1,3-2.6,3.4V33c0,0.1,0,0.2,0,0.3c0,0.1,0,0.1,0,0.2c0,0.1,0.1,0.1,0.1,0.2
	c0,0.1,0.1,0.1,0.1,0.2c0.1,0.1,0.1,0.1,0.2,0.1c0.1,0,0.1,0.1,0.2,0.1c0.1,0,0.1,0,0.2,0.1c0.1,0,0.2,0,0.3,0h6v-0.9
	c0-0.7,0.5-1.2,1.2-1.2h9.6c0.7,0,1.2,0.5,1.2,1.2v3.2c0,0.7-0.5,1.2-1.2,1.2h-9.6c-0.7,0-1.2-0.5-1.2-1.2v-0.5h-6
	c-0.2,0-0.4,0-0.6-0.1c-0.2,0-0.3-0.1-0.5-0.2c-0.2-0.1-0.3-0.2-0.5-0.3c-0.2-0.1-0.3-0.2-0.5-0.4c-0.1-0.1-0.3-0.3-0.4-0.5
	c-0.1-0.1-0.2-0.3-0.3-0.5c-0.1-0.2-0.1-0.3-0.2-0.5c0-0.2-0.1-0.4-0.1-0.6v-6.6C13.6,26,12.5,24.6,12.5,23z M16,21.3
	c-0.9,0-1.7,0.8-1.7,1.7c0,0.9,0.8,1.7,1.7,1.7c0.9,0,1.7-0.8,1.7-1.7C17.7,22.1,16.9,21.3,16,21.3z M34.8,25c0.7,0,1.2,0.5,1.2,1.2
	v3.2c0,0.7-0.5,1.2-1.2,1.2h-9.6c-0.7,0-1.2-0.5-1.2-1.2v-0.5h-4.5c-0.5,0-0.9-0.4-0.9-0.9c0-0.5,0.4-0.9,0.9-0.9H24v-0.9
	c0-0.7,0.5-1.2,1.2-1.2H34.8z M34.2,28.8v-2h-8.4v2H34.2z M34.2,35.8v-2h-8.4v2H34.2z"/>
</svg>
