<svg viewBox="0 0 40 40" xmlns="http://www.w3.org/2000/svg" xmlns:xlink="http://www.w3.org/1999/xlink" width="40.000000" height="40.000000" fill="none">
	<rect id="路由链接" width="40.000000" height="40.000000" x="0.000000" y="0.000000" fill="rgb(255,255,255)" fill-opacity="0" />
	<path id="矢量 513" d="M19.4962 35.7635L6.24988 35.7632C6.06445 35.7632 5.8833 35.744 5.70617 35.7054C5.55334 35.6722 5.40369 35.6245 5.25708 35.5625C5.11096 35.5007 4.9729 35.4268 4.84289 35.3407C4.70142 35.247 4.56933 35.1389 4.44678 35.0164C4.32434 34.8939 4.21619 34.7619 4.12244 34.6203C4.03638 34.4903 3.96252 34.3522 3.90063 34.2061C3.83875 34.0596 3.79102 33.9099 3.75781 33.7571C3.71924 33.58 3.69995 33.3987 3.69995 33.2133L3.69995 6.54999Q3.69995 6.27308 3.75728 6.00861L3.75728 6.0086L3.75781 6.00616C3.79102 5.85339 3.83875 5.7037 3.90063 5.55719C3.96252 5.41104 4.03638 5.27298 4.12256 5.14294C4.21619 5.00137 4.32434 4.86935 4.44678 4.74689C4.56933 4.62439 4.70129 4.51627 4.84289 4.42258C4.9729 4.33649 5.11096 4.26251 5.25708 4.20071C5.40369 4.13873 5.55334 4.09113 5.70617 4.05783C5.88318 4.01929 6.06445 4 6.25 4L33.9184 4C34.1039 4 34.285 4.01929 34.4621 4.05783C34.615 4.09109 34.7646 4.13873 34.9112 4.20074C35.0573 4.26254 35.1954 4.33646 35.3254 4.42255C35.467 4.51627 35.5991 4.62442 35.7216 4.74695C35.8441 4.86945 35.9522 5.0015 36.046 5.14304C36.132 5.2731 36.206 5.41119 36.2678 5.55731C36.3298 5.70389 36.3774 5.85358 36.4107 6.00641C36.4493 6.18347 36.4686 6.36475 36.4686 6.5502L36.4671 17.299C36.467 17.7469 36.115 18.0989 35.667 18.0988C35.219 18.0988 34.8672 17.7469 34.8672 17.299L34.8672 17.2987L34.8676 14.35L5.29993 14.35L5.29993 33.2133C5.29993 33.2906 5.30884 33.3659 5.32666 33.4389C5.3385 33.4879 5.35437 33.5358 5.37427 33.5828C5.39551 33.6331 5.42077 33.6809 5.44983 33.7262C5.48645 33.7831 5.52917 33.8361 5.57825 33.885C5.62707 33.9339 5.68005 33.9767 5.73681 34.0132C5.78222 34.0424 5.83008 34.0676 5.88037 34.0889C5.92737 34.1088 5.97534 34.1247 6.02429 34.1366C6.09729 34.1544 6.17261 34.1633 6.24988 34.1633L19.4963 34.1635C19.9443 34.1635 20.2962 34.5155 20.2962 34.9635C20.2962 35.4115 19.9442 35.7635 19.4962 35.7635ZM34.8678 12.75L34.8686 6.5502C34.8686 6.4729 34.8597 6.39774 34.842 6.32477C34.83 6.27573 34.8142 6.22769 34.7943 6.1806C34.7729 6.13031 34.7478 6.08249 34.7186 6.03723C34.682 5.98029 34.6393 5.92731 34.5903 5.87833C34.5412 5.82935 34.4884 5.78656 34.4314 5.74994C34.3861 5.72083 34.3384 5.69562 34.2879 5.67435C34.2409 5.65445 34.1928 5.63852 34.1439 5.62662C34.0709 5.60889 33.9957 5.60001 33.9184 5.60001L6.25 5.60001C6.17261 5.60001 6.09741 5.60889 6.02429 5.62665C5.97534 5.63855 5.92737 5.65445 5.88037 5.67432C5.83008 5.69562 5.78222 5.72083 5.73694 5.74994C5.68005 5.78653 5.6272 5.82932 5.57825 5.87823C5.52929 5.92719 5.48645 5.9801 5.44995 6.03702C5.42077 6.08231 5.39563 6.13013 5.37427 6.18045C5.35437 6.22748 5.3385 6.27545 5.32666 6.32437C5.30884 6.39743 5.29993 6.47263 5.29993 6.54999L5.29993 12.75L34.8678 12.75ZM7.58593 9.15546C7.58593 8.46509 8.14563 7.90546 8.83593 7.90546C9.52624 7.90546 10.0859 8.46509 10.0859 9.15546C10.0859 9.84583 9.52624 10.4055 8.83593 10.4055C8.14563 10.4055 7.58593 9.84583 7.58593 9.15546ZM11.3457 9.15546C11.3457 8.46509 11.9054 7.90546 12.5957 7.90546C13.286 7.90546 13.8457 8.46509 13.8457 9.15546C13.8457 9.84583 13.286 10.4055 12.5957 10.4055C11.9054 10.4055 11.3457 9.84583 11.3457 9.15546ZM15.1152 9.15546C15.1152 8.46509 15.6749 7.90546 16.3652 7.90546C17.0555 7.90546 17.6152 8.46509 17.6152 9.15546C17.6152 9.84583 17.0555 10.4055 16.3652 10.4055C15.6749 10.4055 15.1152 9.84583 15.1152 9.15546ZM35.759 27.1682C34.4756 28.4682 32.4982 28.637 31.0346 27.6746L30.0028 28.7228C30.4083 29.3542 30.611 30.0801 30.611 30.8061C30.611 31.7851 30.2422 32.7642 29.5047 33.5113L28.4348 34.5949C26.9598 36.089 24.5683 36.089 23.0934 34.5949C22.3559 33.8479 21.9871 32.8688 21.9871 31.8897C21.9871 30.9107 22.3559 29.9316 23.0934 29.1845L24.1632 28.1009C25.4433 26.8043 27.4135 26.6329 28.876 27.5868L29.9119 26.5343C29.5115 25.9058 29.3113 25.1844 29.3113 24.463C29.3113 23.4839 29.6801 22.5048 30.4176 21.7578L31.4874 20.6741C32.9625 19.1801 35.3539 19.1801 36.8289 20.6741C37.5664 21.4211 37.9352 22.4002 37.9352 23.3793C37.9352 24.3584 37.5664 25.3375 36.8289 26.0845L35.759 27.1682ZM24.7929 21.4L9.79296 21.4C9.34497 21.4 8.99292 21.048 8.99292 20.6C8.99292 20.152 9.34497 19.8 9.79296 19.8L24.7929 19.8C25.2409 19.8 25.5929 20.152 25.5929 20.6C25.5929 21.048 25.2409 21.4 24.7929 21.4ZM34.635 26.0296L35.7048 24.9459C35.8294 24.8197 35.9365 24.6826 36.0258 24.5345C36.0874 24.4328 36.1405 24.3259 36.1854 24.2138C36.233 24.0948 36.2701 23.9734 36.2965 23.8496C36.3291 23.6964 36.3454 23.5397 36.3454 23.3793C36.3454 23.219 36.3291 23.0622 36.2965 22.909C36.2701 22.7853 36.233 22.6639 36.1854 22.5448C36.1405 22.4328 36.0874 22.3259 36.0258 22.2241C35.9364 22.076 35.8294 21.9389 35.7048 21.8127C35.5802 21.6865 35.4448 21.5781 35.2987 21.4875C35.1982 21.4252 35.0926 21.3714 34.982 21.3259C34.8645 21.2776 34.7446 21.2401 34.6225 21.2134L34.6224 21.2134C34.4713 21.1804 34.3165 21.1638 34.1582 21.1638Q33.9256 21.1638 33.7032 21.2114Q33.6985 21.2124 33.6938 21.2134C33.5718 21.2401 33.4519 21.2776 33.3343 21.3259C33.2237 21.3714 33.1181 21.4252 33.0177 21.4875Q32.7985 21.6234 32.6115 21.8127L31.5417 22.8964C31.4171 23.0226 31.31 23.1597 31.2207 23.3077L31.2207 23.3078C31.1592 23.4095 31.1059 23.5164 31.0611 23.6285C31.0134 23.7475 30.9764 23.8689 30.95 23.9926C30.9175 24.1458 30.9011 24.3026 30.9011 24.463C30.9011 24.6233 30.9175 24.7801 30.95 24.9333L30.95 24.9333C30.9764 25.057 31.0134 25.1784 31.0611 25.2975C31.0677 25.3139 31.0744 25.3301 31.0813 25.3463L31.6739 24.7442C31.9883 24.4249 32.4861 24.421 32.8053 24.7352C32.9666 24.894 33.0474 25.0995 33.0474 25.3053C33.0474 25.5068 32.9698 25.7085 32.8143 25.8665L32.2014 26.4893C32.2222 26.4986 32.2433 26.5076 32.2645 26.5164C32.3821 26.5646 32.5019 26.6021 32.624 26.6288Q32.6287 26.6299 32.6333 26.6309Q32.8558 26.6785 33.0884 26.6785C33.2467 26.6785 33.4013 26.6619 33.5526 26.6288C33.6748 26.6021 33.7947 26.5646 33.9122 26.5164C34.0228 26.4709 34.1284 26.4171 34.2289 26.3548C34.375 26.2642 34.5103 26.1558 34.635 26.0296ZM27.1047 29.3864L27.7076 28.7739C27.6911 28.7666 27.6745 28.7595 27.6578 28.7527C27.5403 28.7044 27.4204 28.6669 27.2983 28.6402L27.2982 28.6402C27.1471 28.6071 26.9923 28.5906 26.834 28.5906Q26.6014 28.5906 26.3789 28.6382Q26.3743 28.6392 26.3696 28.6402C26.2475 28.6669 26.1277 28.7044 26.0101 28.7527C25.8995 28.7981 25.7939 28.852 25.6935 28.9143Q25.4743 29.0501 25.2873 29.2395L24.2175 30.3232C24.0929 30.4494 23.9858 30.5865 23.8965 30.7345L23.8965 30.7345C23.8349 30.8363 23.7817 30.9432 23.7369 31.0552C23.6892 31.1743 23.6522 31.2957 23.6258 31.4194C23.5932 31.5726 23.5769 31.7294 23.5769 31.8897C23.5769 32.0501 23.5932 32.2068 23.6258 32.36L23.6258 32.36C23.6522 32.4838 23.6892 32.6052 23.7369 32.7242C23.7817 32.8363 23.8349 32.9432 23.8965 33.045C23.9858 33.193 24.0929 33.3301 24.2175 33.4563Q24.4045 33.6456 24.6236 33.7815C24.7241 33.8438 24.8296 33.8977 24.9403 33.9431C25.0578 33.9914 25.1777 34.0289 25.2998 34.0556Q25.3044 34.0566 25.3091 34.0576Q25.5315 34.1052 25.7641 34.1052C25.9225 34.1052 26.0771 34.0887 26.2284 34.0556C26.3506 34.0289 26.4704 33.9914 26.588 33.9431C26.6986 33.8977 26.8042 33.8438 26.9046 33.7815C27.0508 33.6909 27.1861 33.5825 27.3108 33.4563L28.3806 32.3727C28.5052 32.2464 28.6123 32.1093 28.7016 31.9613C28.7632 31.8595 28.8163 31.7526 28.8612 31.6406C28.9088 31.5215 28.9459 31.4001 28.9723 31.2764L28.9723 31.2764C29.0049 31.1232 29.0212 30.9664 29.0212 30.8061C29.0212 30.6457 29.0049 30.489 28.9723 30.3358C28.9459 30.212 28.9088 30.0906 28.8612 29.9716C28.8528 29.9506 28.8441 29.9298 28.8351 29.9092L28.245 30.5087C27.9308 30.828 27.433 30.8319 27.1136 30.5177C26.9524 30.3589 26.8716 30.1534 26.8716 29.9476C26.8716 29.7461 26.9492 29.5444 27.1047 29.3864ZM18.7969 27.1L9.79296 27.1C9.34497 27.1 8.99292 26.748 8.99292 26.3C8.99292 25.852 9.34497 25.5 9.79296 25.5L18.7969 25.5C19.2449 25.5 19.5968 25.852 19.5968 26.3C19.5968 26.748 19.2449 27.1 18.7969 27.1Z" fill="currentColor" fill-rule="evenodd" />
</svg>
