<?xml version="1.0" encoding="utf-8"?>
<!-- Generator: Adobe Illustrator 26.0.2, SVG Export Plug-In . SVG Version: 6.00 Build 0)  -->
<svg version="1.1" id="图层_1" xmlns="http://www.w3.org/2000/svg" xmlns:xlink="http://www.w3.org/1999/xlink" x="0px" y="0px"
	 viewBox="0 0 48 48" style="enable-background:new 0 0 48 48;" xml:space="preserve">
<style type="text/css">
	.st0{fill-rule:evenodd;clip-rule:evenodd;fill:currentColor;}
</style>
<desc>Created with Pixso.</desc>
<path id="矢量_155" class="st0" d="M24.5,41.8h-17c-1,0-1.7-0.2-2.2-0.7l0,0c-0.5-0.5-0.7-1.2-0.7-2.2v-30c0-1,0.2-1.7,0.7-2.2
	S6.5,6,7.5,6h32c0.4,0,0.8,0.1,1.1,0.2c0,0,0,0,0.1,0l0,0c0.3,0.1,0.6,0.3,0.9,0.6c0.3,0.3,0.5,0.6,0.6,0.9c0.1,0.3,0.2,0.7,0.2,1.1
	v13.7c0,0.5-0.4,0.9-0.9,0.9c-0.5,0-0.9-0.4-0.9-0.9v-4.8H6.4v21.1c0,0.4,0.1,0.6,0.3,0.8C6.8,39.9,7.1,40,7.5,40h17
	c0.5,0,0.9,0.4,0.9,0.9C25.4,41.4,25,41.8,24.5,41.8z M40.6,16V8.9c0-0.4-0.1-0.6-0.3-0.8c-0.2-0.2-0.5-0.3-0.8-0.3h-32
	c-0.4,0-0.6,0.1-0.8,0.3C6.5,8.2,6.4,8.5,6.4,8.9V16H40.6z M9.1,11.9c0-0.8,0.7-1.5,1.5-1.5s1.5,0.7,1.5,1.5c0,0.8-0.7,1.5-1.5,1.5
	S9.1,12.7,9.1,11.9z M13.4,11.9c0-0.8,0.7-1.5,1.5-1.5c0.8,0,1.5,0.7,1.5,1.5c0,0.8-0.7,1.5-1.5,1.5C14.1,13.4,13.4,12.7,13.4,11.9z
	 M17.7,11.9c0-0.8,0.7-1.5,1.5-1.5c0.8,0,1.5,0.7,1.5,1.5c0,0.8-0.7,1.5-1.5,1.5C18.4,13.4,17.7,12.7,17.7,11.9z M10.5,23h18
	c0.5,0,0.9,0.4,0.9,0.9c0,0.5-0.4,0.9-0.9,0.9h-18c-0.5,0-0.9-0.4-0.9-0.9C9.6,23.4,10,23,10.5,23z M44.9,29.4c0,0.5-0.2,1-0.6,1.4
	l-3.8,3.8c-0.8,0.8-2,0.8-2.8,0L37,33.9l-1,1l0.7,0.7c0.4,0.4,0.6,0.9,0.6,1.4c0,0.5-0.2,1-0.6,1.4L33,42.1c-0.8,0.8-2,0.8-2.8,0
	l-2.7-2.7c-0.4-0.4-0.6-0.9-0.6-1.4c0-0.5,0.2-1,0.6-1.4l3.8-3.8c0.8-0.8,2-0.8,2.8,0l0.7,0.7l1-0.9L35,31.9
	c-0.4-0.4-0.6-0.9-0.6-1.4s0.2-1,0.6-1.4l3.8-3.8c0.8-0.8,2-0.8,2.8,0l2.7,2.7C44.7,28.4,44.9,28.9,44.9,29.4z M43,29.5
	c0,0,0.1-0.1,0.1-0.1c0,0,0-0.1-0.1-0.1l-2.7-2.7c-0.1-0.1-0.2-0.1-0.3,0l-3.8,3.8c0,0,0,0.1,0,0.1s0,0.1,0,0.1l0.7,0.7l0.6-0.6
	c0.3-0.3,0.9-0.3,1.3,0c0.2,0.2,0.3,0.4,0.3,0.6c0,0.2-0.1,0.5-0.3,0.6l-0.6,0.6l0.7,0.7c0.1,0.1,0.2,0.1,0.3,0L43,29.5z M10.5,28
	h18c0.5,0,0.9,0.4,0.9,0.9c0,0.5-0.4,0.9-0.9,0.9h-18c-0.5,0-0.9-0.4-0.9-0.9C9.6,28.4,10,28,10.5,28z M32.9,35.4l0.6-0.6l-0.7-0.7
	c-0.1-0.1-0.2-0.1-0.3,0l-3.8,3.8c0,0-0.1,0.1-0.1,0.1s0,0.1,0.1,0.1l2.7,2.7c0.1,0.1,0.2,0.1,0.3,0l3.8-3.8c0,0,0.1-0.1,0.1-0.1
	c0,0,0-0.1-0.1-0.1l-0.7-0.7l-0.6,0.6c-0.4,0.4-0.9,0.4-1.3,0c-0.2-0.2-0.3-0.4-0.3-0.6S32.7,35.6,32.9,35.4z M18.5,34.8h-8
	c-0.5,0-0.9-0.4-0.9-0.9c0-0.5,0.4-0.9,0.9-0.9h8c0.5,0,0.9,0.4,0.9,0.9C19.4,34.4,19,34.8,18.5,34.8z"/>
</svg>
