<?xml version="1.0" encoding="utf-8"?>
<!-- Generator: Adobe Illustrator 26.0.2, SVG Export Plug-In . SVG Version: 6.00 Build 0)  -->
<svg version="1.1" id="图层_1" xmlns="http://www.w3.org/2000/svg" xmlns:xlink="http://www.w3.org/1999/xlink" x="0px" y="0px"
	 viewBox="0 0 48 48" style="enable-background:new 0 0 48 48;" xml:space="preserve">
<style type="text/css">
	.st0{fill-rule:evenodd;clip-rule:evenodd;fill:currentColor;}
</style>
<desc>Created with Pixso.</desc>
<path id="矢量_202" class="st0" d="M40,8c1.7,0,3,1.3,3,3v26c0,1.7-1.3,3-3,3H8c-1.7,0-3-1.3-3-3V11c0-1.7,1.3-3,3-3H40z
	 M32.1,9.8h-7.2v28.4h7.2V9.8z M33.9,38.2H40c0.7,0,1.2-0.5,1.2-1.2V11c0-0.7-0.5-1.2-1.2-1.2h-6.1V38.2z M8,9.8h6.1v28.4H8
	c-0.7,0-1.2-0.5-1.2-1.2V11C6.8,10.3,7.3,9.8,8,9.8z M23.1,38.2h-7.2V9.8h7.2V38.2z"/>
</svg>
