<svg viewBox="0 0 40 40" xmlns="http://www.w3.org/2000/svg" xmlns:xlink="http://www.w3.org/1999/xlink" width="40.000000" height="40.000000" fill="none">
	<rect id="行列容器" width="40.000000" height="40.000000" x="0.000000" y="0.000000" fill="rgb(255,255,255)" fill-opacity="0" />
	<path id="矢量 505" d="M34.5 3.75C36.1569 3.75 37.5 5.09314 37.5 6.75L37.5 33.25C37.5 34.9069 36.1569 36.25 34.5 36.25L5.5 36.25C3.84314 36.25 2.5 34.9069 2.5 33.25L2.5 6.75C2.5 5.09314 3.84314 3.75 5.5 3.75L34.5 3.75ZM34.5 5.35001L5.5 5.35001C5.38281 5.35001 5.26904 5.36377 5.15869 5.39136C5.0896 5.40863 5.02197 5.43127 4.95557 5.45935C4.88293 5.49008 4.81384 5.52634 4.74829 5.56815C4.66284 5.62268 4.5835 5.68665 4.51001 5.76004C4.43665 5.83347 4.37268 5.91287 4.31812 5.99835Q4.25549 6.09663 4.20935 6.20554C4.18127 6.27191 4.15857 6.33966 4.14136 6.40875C4.11377 6.51904 4.09998 6.63281 4.09998 6.75L4.09998 13.45L35.9 13.45L35.9 6.75C35.9 6.63284 35.8862 6.51913 35.8586 6.40884C35.8414 6.33972 35.8187 6.27197 35.7906 6.20554C35.7599 6.13297 35.7236 6.0639 35.6819 5.99838C35.6273 5.9129 35.5634 5.83347 35.49 5.76004C35.4165 5.68665 35.337 5.62265 35.2516 5.56812L35.2515 5.56805C35.186 5.52628 35.1169 5.49005 35.0444 5.45935C34.9781 5.4313 34.9105 5.40866 34.8414 5.39142L34.8413 5.39136C34.731 5.3638 34.6172 5.35001 34.5 5.35001ZM4.09998 15.05L4.09998 33.25C4.09998 33.3672 4.11377 33.481 4.14136 33.5912C4.15857 33.6603 4.18127 33.7281 4.20935 33.7945C4.24011 33.867 4.27637 33.9361 4.31812 34.0016L4.31812 34.0016C4.37268 34.0871 4.43665 34.1665 4.51001 34.24C4.5835 34.3134 4.66296 34.3773 4.74841 34.4319C4.81384 34.4737 4.88293 34.5099 4.95557 34.5406C5.02197 34.5687 5.0896 34.5914 5.15869 34.6086C5.26904 34.6362 5.38281 34.65 5.5 34.65L34.5 34.65C34.6172 34.65 34.7308 34.6362 34.8412 34.6087L34.8414 34.6086C34.9104 34.5913 34.9781 34.5687 35.0444 34.5406C35.1171 34.5099 35.1862 34.4737 35.2516 34.4319L35.2517 34.4318C35.3372 34.3773 35.4166 34.3133 35.49 34.24C35.5634 34.1665 35.6273 34.0871 35.6819 34.0016L35.682 34.0014C35.7238 33.9359 35.76 33.867 35.7906 33.7945C35.8187 33.7281 35.8413 33.6604 35.8586 33.5913L35.8586 33.5912C35.8862 33.4809 35.9 33.3672 35.9 33.25L35.9 15.05L4.09998 15.05ZM7.11914 9.25C7.11914 8.55963 7.67883 8 8.36914 8C9.05945 8 9.61914 8.55963 9.61914 9.25C9.61914 9.94037 9.05945 10.5 8.36914 10.5C7.67883 10.5 7.11914 9.94037 7.11914 9.25ZM11.7383 9.25C11.7383 8.55963 12.298 8 12.9883 8C13.6786 8 14.2383 8.55963 14.2383 9.25C14.2383 9.94037 13.6786 10.5 12.9883 10.5C12.298 10.5 11.7383 9.94037 11.7383 9.25ZM16.3574 9.25C16.3574 8.55963 16.9171 8 17.6074 8C18.2977 8 18.8574 8.55963 18.8574 9.25C18.8574 9.94037 18.2977 10.5 17.6074 10.5C16.9171 10.5 16.3574 9.94037 16.3574 9.25ZM30.0393 18.25C31.1222 18.25 32 19.1278 32 20.2107L32 28.7893C32 29.8722 31.1222 30.75 30.0393 30.75L9.96069 30.75C8.87781 30.75 8 29.8722 8 28.7893L8 20.2107C8 19.1278 8.87781 18.25 9.96069 18.25L30.0393 18.25ZM20.8 19.85L20.8 23.8362L30.4 23.8362L30.4 20.2107C30.4 20.1609 30.3912 20.1147 30.3735 20.0722C30.356 20.0297 30.3296 19.9908 30.2943 19.9557C30.2592 19.9204 30.2203 19.894 30.1777 19.8764C30.1353 19.8588 30.0891 19.85 30.0393 19.85L20.8 19.85ZM20.8 25.4362L20.8 29.15L30.0393 29.15C30.0891 29.15 30.1353 29.1412 30.1777 29.1236C30.2203 29.106 30.2592 29.0796 30.2943 29.0443C30.3296 29.0092 30.356 28.9703 30.3735 28.9278C30.3912 28.8853 30.4 28.8391 30.4 28.7893L30.4 25.4362L20.8 25.4362ZM19.2001 29.15L19.2001 25.4362L9.59998 25.4362L9.59998 28.7893C9.59998 28.8391 9.60876 28.8853 9.62646 28.9278C9.64404 28.9703 9.67041 29.0092 9.70569 29.0443C9.74084 29.0796 9.77966 29.106 9.82227 29.1236C9.86475 29.1412 9.91089 29.15 9.96069 29.15L19.2001 29.15ZM19.2001 23.8362L19.2001 19.85L9.96069 19.85C9.91089 19.85 9.86475 19.8588 9.82227 19.8764C9.77966 19.894 9.74084 19.9204 9.70569 19.9557C9.67041 19.9909 9.64404 20.0297 9.62646 20.0722C9.60876 20.1147 9.59998 20.1609 9.59998 20.2107L9.59998 23.8362L19.2001 23.8362Z" fill="currentColor" fill-rule="evenodd" />
</svg>
