<?xml version="1.0" encoding="utf-8"?>
<!-- Generator: Adobe Illustrator 26.0.2, SVG Export Plug-In . SVG Version: 6.00 Build 0)  -->
<svg version="1.1" id="图层_1" xmlns="http://www.w3.org/2000/svg" xmlns:xlink="http://www.w3.org/1999/xlink" x="0px" y="0px"
	 viewBox="0 0 48 48" style="enable-background:new 0 0 48 48;" xml:space="preserve">
<style type="text/css">
	.st0{fill-rule:evenodd;clip-rule:evenodd;fill:currentColor;}
</style>
<desc>Created with Pixso.</desc>
<path id="矢量_147" class="st0" d="M40,7c1.7,0,3,1.3,3,3v29c0,1.7-1.3,3-3,3H8c-1.7,0-3-1.3-3-3V10c0-1.7,1.3-3,3-3H40z M41.2,10
	c0-0.7-0.5-1.2-1.2-1.2H8c-0.7,0-1.2,0.5-1.2,1.2v6.7h34.4V10z M6.8,18.5V39c0,0.7,0.5,1.2,1.2,1.2h32c0.7,0,1.2-0.5,1.2-1.2V18.5
	H6.8z M10,12.8c0-0.8,0.7-1.5,1.5-1.5c0.8,0,1.5,0.7,1.5,1.5c0,0.8-0.7,1.5-1.5,1.5C10.7,14.2,10,13.6,10,12.8z M15,12.8
	c0-0.8,0.7-1.5,1.5-1.5c0.8,0,1.5,0.7,1.5,1.5c0,0.8-0.7,1.5-1.5,1.5C15.7,14.2,15,13.6,15,12.8z M20,12.8c0-0.8,0.7-1.5,1.5-1.5
	c0.8,0,1.5,0.7,1.5,1.5c0,0.8-0.7,1.5-1.5,1.5C20.7,14.2,20,13.6,20,12.8z M35.7,21.8c0.5,0,1,0.4,1,1v12.9c0,0.6-0.5,1-1,1H12.3
	c-0.6,0-1-0.4-1-1V22.8c0-0.6,0.4-1,1-1H35.7z M24.9,23.6v4.7h10v-4.7H24.9z M24.9,30.1v4.7h10v-4.7H24.9z M23.1,34.9v-4.7h-10v4.7
	H23.1z M23.1,28.3v-4.7h-10v4.7H23.1z"/>
</svg>
