<svg viewBox="0 0 40 40" xmlns="http://www.w3.org/2000/svg" xmlns:xlink="http://www.w3.org/1999/xlink" width="40.000000" height="40.000000" fill="none">
	<rect id="桑基图" width="40.000000" height="40.000000" x="0.000000" y="0.000000" />
	<path id="矢量 698" d="M3.80005 36L3.80005 31.3721C4.05809 31.3861 4.32659 31.391 4.60559 31.3869C6.0238 31.3658 7.45972 31.1196 8.91345 30.6481C10.9347 29.9925 12.8492 28.9393 14.657 27.4883Q15.9419 26.4569 17.1264 25.1785C17.478 25.4075 17.822 25.6466 18.1586 25.8959C18.6105 26.2307 19.0487 26.5837 19.4734 26.9551C19.9611 27.3816 20.4652 27.7856 20.9858 28.167C22.3817 29.1896 23.896 30.0504 25.5289 30.7494C27.3179 31.5152 29.2073 32.0702 31.197 32.4143C32.6173 32.66 34.0183 32.7884 35.3999 32.7993C35.6777 32.8015 35.9444 32.7987 36.2001 32.7911L36.2001 36C36.2001 36.448 36.552 36.8 37 36.8C37.448 36.8 37.8 36.448 37.8 36L37.8 4C37.8 3.552 37.448 3.20001 37 3.20001C36.552 3.20001 36.2001 3.552 36.2001 4L36.2001 8.62796C35.942 8.61394 35.6734 8.609 35.3943 8.61313C33.9761 8.63419 32.5402 8.88046 31.0864 9.35193C29.0652 10.0075 27.1506 11.0608 25.3429 12.5117C23.9898 13.5977 22.7204 14.8892 21.5345 16.386C21.2223 16.0481 20.9166 15.6976 20.6176 15.3344C18.8269 13.1596 16.8094 11.405 14.5651 10.0707C13.3634 9.35623 12.1158 8.77283 10.8224 8.32043C10.1775 8.09488 9.52124 7.90189 8.85352 7.74149C7.41772 7.39655 6.00073 7.21637 4.60254 7.20102C4.32424 7.19796 4.05676 7.2017 3.80005 7.21222L3.80005 4C3.80005 3.552 3.448 3.20001 3 3.20001C2.552 3.20001 2.20007 3.552 2.20007 4L2.20007 36C2.20007 36.448 2.552 36.8 3 36.8C3.448 36.8 3.80005 36.448 3.80005 36ZM36.2001 31.1903L36.2001 24.4735C35.9433 24.4841 35.6757 24.4878 35.3975 24.4847C33.9993 24.4694 32.5823 24.2892 31.1465 23.9443Q30.1445 23.7036 29.177 23.3651C27.8838 22.9128 26.6365 22.3294 25.4349 21.6151C24.1167 20.8313 22.8767 19.9026 21.715 18.829C21.3629 19.3366 21.0189 19.8658 20.683 20.4166Q19.5017 22.3534 18.1863 23.9606C18.4669 24.1473 18.7429 24.3401 19.0145 24.5391C19.535 24.9205 20.0391 25.3243 20.5266 25.7507C20.9513 26.1221 21.3896 26.4752 21.8414 26.8099C23.1642 27.7898 24.6031 28.6127 26.1586 29.2785C27.8326 29.9951 29.603 30.5149 31.4697 30.8378C32.804 31.0686 34.1183 31.1891 35.4126 31.1993C35.6878 31.2015 35.9503 31.1985 36.2001 31.1903ZM16.8102 23.1142C17.6909 22.0565 18.5265 20.8796 19.3169 19.5835C19.7199 18.9227 20.1346 18.2907 20.561 17.6875C20.1578 17.2613 19.7649 16.8159 19.3824 16.3514C17.7101 14.3203 15.8318 12.6852 13.7474 11.446C12.6151 10.7728 11.4392 10.2258 10.2198 9.80496C9.64929 9.60809 9.06934 9.43884 8.47974 9.29721C7.16101 8.98041 5.86267 8.81497 4.58496 8.8009C4.31026 8.79789 4.04861 8.80217 3.80005 8.81374L3.80005 19.9148C4.0557 19.9071 4.32239 19.9044 4.6001 19.9066C5.98169 19.9175 7.38269 20.0458 8.8031 20.2915C10.7928 20.6357 12.6823 21.1907 14.4711 21.9565C15.2799 22.3027 16.0596 22.6886 16.8102 23.1142ZM3.80005 21.5156L3.80005 29.7693C4.04708 29.7852 4.30763 29.7911 4.58179 29.787C5.83948 29.7684 7.1189 29.5481 8.4198 29.1261C10.255 28.5309 12.0002 27.569 13.6554 26.2405C14.3673 25.6691 15.0555 25.0352 15.72 24.3387C15.1139 24.0078 14.4877 23.704 13.8414 23.4274C12.1674 22.7108 10.3971 22.191 8.5304 21.8681C7.19604 21.6373 5.88171 21.5168 4.5874 21.5065C4.31229 21.5044 4.0498 21.5074 3.80005 21.5156ZM26.2526 20.2398C24.9816 19.4841 23.7872 18.5813 22.6694 17.5312C23.8149 16.0638 25.0399 14.8066 26.3445 13.7595C27.9996 12.431 29.7449 11.4691 31.5801 10.8739C32.8811 10.4519 34.1604 10.2316 35.4181 10.213Q35.8294 10.2069 36.2001 10.2307L36.2001 22.872C35.9515 22.8836 35.6898 22.8878 35.415 22.8848C34.1372 22.8708 32.839 22.7054 31.5201 22.3885C30.9305 22.2469 30.3503 22.0776 29.7798 21.8806C28.5605 21.4598 27.3848 20.9129 26.2526 20.2398Z" fill="rgb(128,128,128)" fill-rule="evenodd" />
</svg>
