<svg viewBox="0 0 40 40" xmlns="http://www.w3.org/2000/svg" xmlns:xlink="http://www.w3.org/1999/xlink" width="40.000000" height="40.000000" fill="none">
	<rect id="散点图" width="40.000000" height="40.000000" x="0.000000" y="0.000000" />
	<path id="矢量 700" d="M4.04993 5L4.04993 34.75Q4.04993 34.8431 4.08283 34.9226L4.08289 34.9228C4.10486 34.9758 4.13782 35.0243 4.18176 35.0682C4.22571 35.1122 4.27417 35.1451 4.32727 35.1671C4.38025 35.189 4.43787 35.2 4.5 35.2L37 35.2C37.448 35.2 37.7999 35.552 37.7999 36C37.7999 36.448 37.448 36.8 37 36.8L4.5 36.8C4.35205 36.8 4.2074 36.7847 4.06616 36.7542L4.06215 36.7533Q3.8782 36.7132 3.70178 36.6386C3.58374 36.5887 3.47217 36.5289 3.36719 36.4592C3.25403 36.3841 3.14844 36.2976 3.05042 36.1996C2.95239 36.1016 2.86584 35.996 2.79077 35.8828L2.7881 35.8787Q2.68526 35.723 2.61133 35.5482C2.56104 35.4293 2.52258 35.3079 2.49573 35.1839C2.46521 35.0426 2.44995 34.8979 2.44995 34.75L2.44995 5C2.44995 4.552 2.802 4.20001 3.25 4.20001C3.698 4.20001 4.04993 4.552 4.04993 5ZM8.5 11C8.5 10.4477 8.94775 10 9.5 10C10.0522 10 10.5 10.4477 10.5 11C10.5 11.5523 10.0522 12 9.5 12C8.94775 12 8.5 11.5523 8.5 11ZM20.5 14.5C20.5 13.6716 21.1716 13 22 13C22.8284 13 23.5 13.6716 23.5 14.5C23.5 15.3284 22.8284 16 22 16C21.1716 16 20.5 15.3284 20.5 14.5ZM27.5 14C27.5 13.4477 27.9478 13 28.5 13C29.0522 13 29.5 13.4477 29.5 14C29.5 14.5523 29.0522 15 28.5 15C27.9478 15 27.5 14.5523 27.5 14ZM10.5 17C10.5 15.3431 11.8431 14 13.5 14C15.1569 14 16.5 15.3431 16.5 17C16.5 18.6569 15.1569 20 13.5 20C11.8431 20 10.5 18.6569 10.5 17ZM18.5 21C18.5 19.8954 19.3954 19 20.5 19C21.6046 19 22.5 19.8954 22.5 21C22.5 22.1046 21.6046 23 20.5 23C19.3954 23 18.5 22.1046 18.5 21ZM26.5 24C26.5 22.3431 27.8431 21 29.5 21C31.1569 21 32.5 22.3431 32.5 24C32.5 25.6569 31.1569 27 29.5 27C27.8431 27 26.5 25.6569 26.5 24ZM8.5 25C8.5 23.8954 9.39539 23 10.5 23C11.6046 23 12.5 23.8954 12.5 25C12.5 26.1046 11.6046 27 10.5 27C9.39539 27 8.5 26.1046 8.5 25ZM17.5 27.5C17.5 26.6716 18.1716 26 19 26C19.8284 26 20.5 26.6716 20.5 27.5C20.5 28.3284 19.8284 29 19 29C18.1716 29 17.5 28.3284 17.5 27.5Z" fill="rgb(128,128,128)" fill-rule="evenodd" />
</svg>
