<?xml version="1.0" encoding="utf-8"?>
<!-- Generator: Adobe Illustrator 26.0.2, SVG Export Plug-In . SVG Version: 6.00 Build 0)  -->
<svg version="1.1" id="图层_1" xmlns="http://www.w3.org/2000/svg" xmlns:xlink="http://www.w3.org/1999/xlink" x="0px" y="0px"
	 viewBox="0 0 48 48" style="enable-background:new 0 0 48 48;" xml:space="preserve">
<style type="text/css">
	.st0{fill-rule:evenodd;clip-rule:evenodd;fill:currentColor;}
</style>
<desc>Created with Pixso.</desc>
<path id="矢量_160" class="st0" d="M46,15c0-1.7-1.3-3-3-3H5c-1.7,0-3,1.3-3,3v18c0,1.7,1.3,3,3,3h38c1.7,0,3-1.3,3-3V15z
	 M44.2,15c0-0.7-0.5-1.2-1.2-1.2H5c-0.7,0-1.2,0.5-1.2,1.2v18c0,0.7,0.5,1.2,1.2,1.2h38c0.7,0,1.2-0.5,1.2-1.2V15z M24,23.8
	c0-3.7,3-6.7,6.7-6.7c3.7,0,6.7,3,6.7,6.7c0,1-0.2,1.9-0.6,2.8l2.7,2.3c0.4,0.3,0.4,0.9,0.1,1.3c-0.3,0.4-0.9,0.4-1.3,0.1l-2.6-2.1
	c-1.2,1.5-3,2.4-5.1,2.4C26.9,30.4,24,27.5,24,23.8z M25.8,23.8c0-2.7,2.2-4.9,4.9-4.9c2.7,0,4.9,2.2,4.9,4.9s-2.2,4.9-4.9,4.9
	C27.9,28.6,25.8,26.5,25.8,23.8z"/>
</svg>
