<svg viewBox="0 0 40 40" xmlns="http://www.w3.org/2000/svg" xmlns:xlink="http://www.w3.org/1999/xlink" width="40.000000" height="40.000000" fill="none">
	<rect id="搜索框" width="40.000000" height="40.000000" x="0.000000" y="0.000000" fill="rgb(255,255,255)" fill-opacity="0" />
	<path id="矢量 523" d="M15.6217 30.6L5.99609 30.6C5.75427 30.6 5.51807 30.5747 5.28735 30.5241C5.09131 30.4811 4.89929 30.4199 4.7113 30.3403C4.52307 30.2607 4.34509 30.1655 4.17749 30.0547C3.99341 29.9331 3.82178 29.7927 3.6626 29.6334C3.5033 29.4742 3.36292 29.3025 3.24121 29.1185C3.13049 28.9508 3.03528 28.7729 2.95569 28.5848C2.87622 28.3968 2.81494 28.2047 2.77197 28.0087C2.72131 27.778 2.69604 27.5418 2.69604 27.3L2.69604 11.3C2.69604 11.0582 2.72131 10.822 2.77197 10.5913C2.81494 10.3952 2.87622 10.2032 2.95569 10.0152Q3.07414 9.73512 3.23874 9.48542Q3.24003 9.48346 3.24133 9.48149C3.36292 9.29742 3.50342 9.12578 3.6626 8.96655C3.82178 8.80731 3.99353 8.66689 4.17749 8.54524C4.34521 8.43446 4.52307 8.33926 4.7113 8.25966C4.89929 8.18015 5.09131 8.11888 5.28735 8.0759C5.51807 8.0253 5.75427 8 5.99609 8L33.9961 8C34.2378 8 34.4741 8.0253 34.7048 8.0759C34.9008 8.11888 35.0928 8.18015 35.2808 8.25966C35.469 8.33926 35.647 8.43446 35.8146 8.54524C35.9987 8.66689 36.1703 8.80733 36.3295 8.96655C36.4888 9.12579 36.6292 9.29745 36.7509 9.48154C36.8616 9.64914 36.9568 9.82704 37.0364 10.0152C37.1158 10.2032 37.1771 10.3951 37.2201 10.591C37.2708 10.8218 37.296 11.0581 37.296 11.3L37.296 17.55C37.296 17.998 36.9441 18.35 36.4961 18.35C36.0481 18.35 35.696 17.998 35.696 17.55L35.696 11.3C35.696 11.1663 35.6812 11.0361 35.6514 10.9095C35.6298 10.8173 35.6002 10.727 35.5627 10.6385C35.5237 10.5461 35.4772 10.4584 35.4233 10.3755C35.3589 10.2761 35.2838 10.1836 35.1981 10.0979C35.1124 10.0123 35.0199 9.93715 34.9205 9.87263C34.8376 9.81882 34.75 9.77237 34.6575 9.73326C34.5691 9.69586 34.4788 9.66632 34.3866 9.64467C34.2599 9.61488 34.1298 9.60001 33.9961 9.60001L5.99609 9.60001C5.8623 9.60001 5.73218 9.61488 5.60547 9.64465C5.51331 9.66632 5.42297 9.69585 5.33459 9.73326Q5.19698 9.79148 5.07345 9.87144Q5.07255 9.87202 5.07166 9.8726C4.97217 9.93713 4.87964 10.0122 4.79395 10.0979C4.70825 10.1836 4.63318 10.2761 4.5686 10.3755C4.51489 10.4584 4.46838 10.5461 4.42932 10.6385C4.39185 10.727 4.3623 10.8173 4.3407 10.9095C4.31091 11.0361 4.29602 11.1663 4.29602 11.3L4.29602 27.3C4.29602 27.4337 4.31091 27.5639 4.3407 27.6906C4.36243 27.7827 4.39185 27.873 4.42932 27.9615C4.46838 28.0539 4.51489 28.1415 4.5686 28.2244C4.63318 28.3238 4.70825 28.4164 4.79395 28.5021C4.87964 28.5878 4.97217 28.6629 5.07166 28.7274L5.07345 28.7285Q5.19698 28.8085 5.33459 28.8667C5.4231 28.9042 5.51331 28.9337 5.60547 28.9553C5.73218 28.9851 5.86243 29 5.99609 29L15.6217 29C16.0697 29 16.4216 29.352 16.4216 29.8C16.4216 30.248 16.0697 30.6 15.6217 30.6ZM27.818 15.6933C27.2417 15.5651 26.651 15.501 26.0461 15.501C25.4413 15.501 24.8507 15.5651 24.2743 15.6933C23.7997 15.7989 23.3346 15.948 22.8793 16.1406C22.4197 16.335 21.985 16.5672 21.5751 16.8371C21.1168 17.1388 20.6897 17.4877 20.2937 17.8837C19.8976 18.2798 19.5487 18.7069 19.2469 19.1651C18.9771 19.575 18.7449 20.0098 18.5505 20.4694C18.3579 20.9247 18.2089 21.3897 18.1033 21.8644C17.975 22.4408 17.9109 23.0314 17.9109 23.6363C17.9109 24.2411 17.975 24.8318 18.1033 25.4081C18.2089 25.8828 18.3579 26.3478 18.5505 26.8031C18.7449 27.2627 18.9771 27.6975 19.2469 28.1074C19.5487 28.5656 19.8976 28.9927 20.2937 29.3888C20.6897 29.7848 21.1168 30.1337 21.5751 30.4355C21.985 30.7053 22.4197 30.9375 22.8793 31.1319C23.3346 31.3245 23.7996 31.4736 24.2743 31.5792C24.8506 31.7074 25.4413 31.7715 26.0461 31.7715C26.651 31.7715 27.2416 31.7074 27.818 31.5792C28.2926 31.4736 28.7577 31.3245 29.213 31.1319C29.6726 30.9375 30.1074 30.7053 30.5173 30.4354Q31.2045 29.9829 31.7987 29.3888C32.0032 29.1843 32.1951 28.9715 32.3744 28.7504L35.6984 31.6163C36.0376 31.9089 36.5341 31.8721 36.8267 31.5328C37.1191 31.1935 37.0824 30.6971 36.7432 30.4046L33.2601 27.4015C33.3615 27.2069 33.4554 27.0075 33.5419 26.8031C33.7344 26.3478 33.8835 25.8828 33.9891 25.4081C34.1173 24.8317 34.1814 24.2411 34.1814 23.6363C34.1814 23.0314 34.1173 22.4407 33.9891 21.8644C33.8835 21.3897 33.7344 20.9247 33.5419 20.4694C33.3474 20.0098 33.1152 19.575 32.8453 19.1651L32.8431 19.1617Q32.3912 18.4763 31.7987 17.8837C31.4026 17.4877 30.9755 17.1388 30.5173 16.8371C30.1074 16.5672 29.6726 16.335 29.213 16.1406C28.7577 15.948 28.2927 15.7989 27.818 15.6933ZM24.5925 17.2621C25.0648 17.1547 25.5494 17.101 26.0461 17.101C26.543 17.101 27.0275 17.1547 27.4999 17.2621C27.8706 17.3463 28.234 17.4637 28.5897 17.6142C28.9536 17.7681 29.2981 17.9515 29.6233 18.1645L29.6236 18.1647Q30.1837 18.5315 30.6674 19.0151C30.9897 19.3376 31.2733 19.6856 31.5179 20.0591C31.7308 20.3843 31.9143 20.7288 32.0682 21.0927C32.2186 21.4485 32.3361 21.8117 32.4204 22.1826C32.5277 22.6549 32.5814 23.1395 32.5814 23.6363C32.5814 24.133 32.5277 24.6176 32.4204 25.0899C32.3361 25.4607 32.2186 25.824 32.0682 26.1798C31.9143 26.5437 31.731 26.8882 31.5179 27.2133C31.2733 27.5869 30.9899 27.9349 30.6674 28.2574C30.3447 28.5799 29.9967 28.8635 29.6232 29.1081C29.298 29.321 28.9536 29.5044 28.5897 29.6583Q28.0603 29.8822 27.5086 30.0085L27.5085 30.0085Q27.5042 30.0095 27.4999 30.0104C27.0276 30.1178 26.543 30.1715 26.0461 30.1715C25.5494 30.1715 25.0648 30.1178 24.5924 30.0104Q24.0363 29.884 23.5026 29.6583C23.1388 29.5044 22.7942 29.321 22.4691 29.108C22.0956 28.8634 21.7476 28.5799 21.425 28.2574C21.1025 27.9349 20.819 27.5869 20.5743 27.2133C20.3615 26.8882 20.178 26.5437 20.0242 26.1798C19.8737 25.824 19.7562 25.4608 19.672 25.0899L19.6718 25.089Q19.5109 24.3809 19.5109 23.6363C19.5109 23.1395 19.5646 22.6549 19.672 22.1826C19.7562 21.8117 19.8737 21.4485 20.0242 21.0927C20.178 20.7288 20.3615 20.3844 20.5743 20.0592C20.819 19.6857 21.1025 19.3376 21.425 19.0151C21.7476 18.6926 22.0956 18.409 22.4691 18.1644C22.7943 17.9515 23.1388 17.7681 23.5026 17.6142C23.8584 17.4637 24.2217 17.3464 24.5925 17.2621Z" fill="currentColor" fill-rule="evenodd" />
</svg>
