<svg viewBox="0 0 40 40" xmlns="http://www.w3.org/2000/svg" xmlns:xlink="http://www.w3.org/1999/xlink" width="40.000000" height="40.000000" fill="none">
	<rect id="下拉框" width="40.000000" height="40.000000" x="0.000000" y="0.000000" fill="rgb(255,255,255)" fill-opacity="0" />
	<path id="矢量 628" d="M37.5 7.25C37.5 5.86929 36.3807 4.75 35 4.75L5 4.75C3.61926 4.75 2.5 5.86929 2.5 7.25L2.5 17.65C2.5 19.0307 3.61926 20.15 5 20.15L35 20.15C36.3807 20.15 37.5 19.0307 37.5 17.65L37.5 7.25ZM5 6.35001L35 6.35001C35.1243 6.35001 35.2394 6.37196 35.3455 6.41589C35.4515 6.45984 35.5486 6.52574 35.6364 6.6136C35.7242 6.70148 35.7902 6.79846 35.8341 6.90453L35.8342 6.90481L35.8343 6.90495Q35.9 7.06388 35.9 7.25L35.9 17.65C35.9 17.7743 35.8781 17.8894 35.8341 17.9955C35.7902 18.1015 35.7242 18.1985 35.6364 18.2864C35.5486 18.3743 35.4515 18.4402 35.3455 18.4841C35.2394 18.528 35.1243 18.55 35 18.55L5 18.55C4.87573 18.55 4.76062 18.528 4.65454 18.4841C4.54846 18.4402 4.45142 18.3743 4.36365 18.2864C4.27576 18.1985 4.20984 18.1016 4.16589 17.9955C4.12195 17.8894 4.09998 17.7743 4.09998 17.65L4.09998 7.25C4.09998 7.12573 4.12195 7.01057 4.16589 6.90451C4.20984 6.79843 4.27576 6.70148 4.36365 6.6136C4.45142 6.52574 4.54846 6.45984 4.65454 6.41589C4.76062 6.37196 4.87573 6.35001 5 6.35001ZM27.5001 13.1687L30.6844 9.9857C31.0013 9.66899 31.4991 9.66908 31.8158 9.98593C32.1326 10.3028 32.1324 10.8006 31.8157 11.1173L28.0657 14.8658C27.9094 15.022 27.7208 15.1 27.5 15.1C27.2791 15.1 27.0906 15.0219 26.9343 14.8657L23.1843 11.1157C22.8676 10.7989 22.8676 10.3011 23.1843 9.98431C23.5011 9.66754 23.9989 9.66754 24.3158 9.98431L27.5001 13.1687ZM7.19995 34.2L7.19995 22.2C7.19995 21.752 6.84802 21.4 6.40002 21.4C5.95203 21.4 5.59998 21.752 5.59998 22.2L5.59998 34.2C5.59998 34.3667 5.61731 34.5297 5.65186 34.6889C5.68188 34.8272 5.72498 34.9628 5.78101 35.0955C5.83691 35.2276 5.90381 35.3524 5.98169 35.4699C6.06604 35.5973 6.16333 35.7161 6.27368 35.8263C6.38391 35.9366 6.50269 36.0339 6.63013 36.1183C6.74756 36.1962 6.87244 36.2631 7.00452 36.3189C7.13721 36.375 7.27271 36.4181 7.41113 36.4482C7.57031 36.4827 7.73328 36.5 7.90002 36.5L32.1 36.5C32.2667 36.5 32.4297 36.4827 32.5889 36.4482C32.7273 36.4181 32.8628 36.375 32.9955 36.3189C33.1276 36.2631 33.2523 36.1962 33.3699 36.1184C33.4972 36.034 33.6161 35.9366 33.7263 35.8263C33.8365 35.7161 33.9338 35.5973 34.0183 35.4699C34.0962 35.3524 34.1631 35.2276 34.2189 35.0955Q34.3031 34.8964 34.3481 34.6889C34.3827 34.5297 34.4 34.3667 34.4 34.2L34.4 22.2C34.4 21.752 34.048 21.4 33.6 21.4C33.152 21.4 32.7999 21.752 32.7999 22.2L32.7999 34.2C32.7999 34.2966 32.7828 34.3862 32.7488 34.4687Q32.6975 34.5925 32.595 34.695Q32.4925 34.7974 32.3689 34.8486L32.3687 34.8487C32.2863 34.8829 32.1967 34.9 32.1 34.9L7.90002 34.9C7.80334 34.9 7.71375 34.8829 7.63123 34.8487C7.54871 34.8146 7.47339 34.7633 7.40503 34.695C7.33667 34.6266 7.2854 34.5512 7.25122 34.4687C7.21704 34.3862 7.19995 34.2966 7.19995 34.2Z" fill="currentColor" fill-rule="evenodd" />
</svg>
