<?xml version="1.0" encoding="utf-8"?>
<!-- Generator: Adobe Illustrator 26.0.2, SVG Export Plug-In . SVG Version: 6.00 Build 0)  -->
<svg version="1.1" id="图层_1" xmlns="http://www.w3.org/2000/svg" xmlns:xlink="http://www.w3.org/1999/xlink" x="0px" y="0px"
	 viewBox="0 0 48 48" style="enable-background:new 0 0 48 48;" xml:space="preserve">
<style type="text/css">
	.st0{fill-rule:evenodd;clip-rule:evenodd;fill:currentColor;}
</style>
<desc>Created with Pixso.</desc>
<path id="矢量_158" class="st0" d="M43,12c1.7,0,3,1.3,3,3v18c0,1.7-1.3,3-3,3H5c-1.7,0-3-1.3-3-3V15c0-1.7,1.3-3,3-3H43z
	 M43,13.8c0.7,0,1.2,0.5,1.2,1.2v18c0,0.7-0.5,1.2-1.2,1.2H5c-0.7,0-1.2-0.5-1.2-1.2V15c0-0.7,0.5-1.2,1.2-1.2H43z M27.9,21.4
	l4.3,6.9c0.4,0.6,1.3,0.6,1.7,0l4.3-6.9c0.4-0.7-0.1-1.5-0.9-1.5h-8.5C28,19.8,27.5,20.7,27.9,21.4z"/>
</svg>
