<svg viewBox="0 0 40 40" xmlns="http://www.w3.org/2000/svg" xmlns:xlink="http://www.w3.org/1999/xlink" width="40.000000" height="40.000000" fill="none">
	<rect id="骨架屏" width="40.000000" height="40.000000" x="0.000000" y="0.000000" fill="rgb(255,255,255)" fill-opacity="0" />
	<path id="矢量 606" d="M22 5C23.6569 5 25 6.34314 25 8L25 15.5C25 17.1569 23.6569 18.5 22 18.5L5.5 18.5C3.84314 18.5 2.5 17.1569 2.5 15.5L2.5 8C2.5 6.34314 3.84314 5 5.5 5L22 5ZM37.5 8C37.5 6.34314 36.1569 5 34.5 5L30.5 5C28.8431 5 27.5 6.34314 27.5 8L27.5 15.5C27.5 17.1569 28.8431 18.5 30.5 18.5L34.5 18.5C36.1569 18.5 37.5 17.1569 37.5 15.5L37.5 8ZM22 6.60001L5.5 6.60001C5.38281 6.60001 5.26904 6.61378 5.15869 6.64136C5.0896 6.65862 5.02197 6.68129 4.95557 6.70937C4.88293 6.74007 4.81384 6.77634 4.74829 6.81815C4.66284 6.87268 4.5835 6.93665 4.51001 7.01006C4.43665 7.08345 4.37268 7.16289 4.31812 7.24834C4.27637 7.31387 4.24011 7.38293 4.20935 7.45555C4.18127 7.52193 4.15857 7.58966 4.14136 7.65875C4.11377 7.76906 4.09998 7.8828 4.09998 8L4.09998 15.5C4.09998 15.6172 4.11377 15.7309 4.14136 15.8412C4.15857 15.9103 4.18127 15.9781 4.20935 16.0444C4.24011 16.1171 4.27637 16.1861 4.31812 16.2516C4.37268 16.3371 4.43665 16.4165 4.51001 16.4899C4.5835 16.5634 4.66284 16.6273 4.74829 16.6819C4.81384 16.7237 4.88293 16.7599 4.95557 16.7906C5.02197 16.8187 5.0896 16.8414 5.15869 16.8586C5.26904 16.8862 5.38281 16.9 5.5 16.9L22 16.9C22.1172 16.9 22.231 16.8862 22.3413 16.8586C22.4104 16.8414 22.478 16.8187 22.5444 16.7906C22.6171 16.7599 22.6862 16.7236 22.7517 16.6818C22.8372 16.6273 22.9165 16.5633 22.99 16.4899C23.0634 16.4165 23.1273 16.3371 23.1819 16.2517C23.2236 16.1862 23.2599 16.1171 23.2906 16.0444C23.3187 15.9781 23.3414 15.9103 23.3586 15.8413L23.3587 15.8411L23.3588 15.8407Q23.4 15.6755 23.4 15.5L23.4 8C23.4 7.8828 23.3862 7.76903 23.3586 7.65872C23.3414 7.58965 23.3187 7.52193 23.2906 7.45555C23.2599 7.38292 23.2236 7.31383 23.1818 7.24829C23.1273 7.16286 23.0634 7.08344 22.99 7.01006C22.9165 6.93665 22.8372 6.87268 22.7517 6.81816C22.6862 6.77634 22.6171 6.74008 22.5444 6.70937C22.478 6.68127 22.4103 6.65862 22.3412 6.64134C22.231 6.61378 22.1172 6.60001 22 6.60001ZM30.5 6.60001L34.5 6.60001C34.6172 6.60001 34.731 6.61378 34.8412 6.64134Q34.9448 6.66725 35.0444 6.70937Q35.153 6.75528 35.251 6.81775L35.2511 6.81778L35.2512 6.81782L35.2517 6.81818C35.3372 6.87271 35.4165 6.93666 35.49 7.01006C35.5634 7.08345 35.6273 7.16286 35.6819 7.24829C35.7236 7.31384 35.7599 7.38292 35.7906 7.45555C35.8187 7.52193 35.8414 7.58965 35.8586 7.65872C35.8862 7.76904 35.9 7.8828 35.9 8L35.9 15.5C35.9 15.6172 35.8862 15.731 35.8586 15.8413C35.8414 15.9104 35.8187 15.9781 35.7906 16.0444C35.7599 16.1171 35.7236 16.1862 35.6819 16.2517C35.6273 16.3371 35.5634 16.4165 35.49 16.4899C35.4165 16.5633 35.3372 16.6273 35.2517 16.6818C35.1862 16.7236 35.1171 16.7599 35.0444 16.7906C34.978 16.8187 34.9104 16.8414 34.8413 16.8586C34.731 16.8862 34.6172 16.9 34.5 16.9L30.5 16.9C30.3828 16.9 30.269 16.8862 30.1587 16.8586C30.0896 16.8414 30.022 16.8187 29.9556 16.7906C29.8829 16.7599 29.8138 16.7237 29.7483 16.6819C29.6628 16.6273 29.5835 16.5634 29.51 16.4899C29.4366 16.4165 29.3727 16.3371 29.3181 16.2516C29.2764 16.1861 29.2401 16.1171 29.2094 16.0444C29.1813 15.9781 29.1586 15.9103 29.1414 15.8412C29.1138 15.7309 29.1 15.6172 29.1 15.5L29.1 8C29.1 7.8828 29.1138 7.76906 29.1414 7.65875C29.1586 7.58966 29.1813 7.52193 29.2094 7.45555C29.2401 7.38293 29.2764 7.31387 29.3181 7.24834C29.3727 7.16289 29.4366 7.08345 29.51 7.01006C29.5835 6.93665 29.6628 6.87268 29.7483 6.81815C29.8138 6.77634 29.8829 6.74007 29.9556 6.70937C30.022 6.68129 30.0896 6.65862 30.1587 6.64136C30.269 6.61378 30.3828 6.60001 30.5 6.60001ZM12 21.5C13.6569 21.5 15 22.8431 15 24.5L15 32C15 33.6569 13.6569 35 12 35L5.5 35C3.84314 35 2.5 33.6569 2.5 32L2.5 24.5C2.5 22.8431 3.84314 21.5 5.5 21.5L12 21.5ZM37.5 24.5C37.5 22.8431 36.1569 21.5 34.5 21.5L20.5 21.5C18.8431 21.5 17.5 22.8431 17.5 24.5L17.5 32C17.5 33.6569 18.8431 35 20.5 35L34.5 35C36.1569 35 37.5 33.6569 37.5 32L37.5 24.5ZM12 23.1L5.5 23.1C5.38281 23.1 5.26904 23.1138 5.15869 23.1414C5.0896 23.1586 5.02197 23.1813 4.95557 23.2094C4.88293 23.2401 4.81384 23.2763 4.74829 23.3181C4.66284 23.3727 4.5835 23.4366 4.51001 23.5101C4.43665 23.5835 4.37268 23.6629 4.31812 23.7483C4.27637 23.8139 4.24011 23.8829 4.20935 23.9556C4.18127 24.0219 4.15857 24.0897 4.14136 24.1588C4.11377 24.2691 4.09998 24.3828 4.09998 24.5L4.09998 32C4.09998 32.1172 4.11377 32.2309 4.14136 32.3412C4.15857 32.4103 4.18127 32.4781 4.20935 32.5444C4.24011 32.6171 4.27637 32.6861 4.31812 32.7516C4.37268 32.8371 4.43665 32.9165 4.51001 32.9899C4.5835 33.0634 4.66284 33.1273 4.74829 33.1819C4.81384 33.2237 4.88293 33.2599 4.95557 33.2906C5.02197 33.3187 5.0896 33.3414 5.15869 33.3586C5.26904 33.3862 5.38281 33.4 5.5 33.4L12 33.4C12.1172 33.4 12.231 33.3862 12.3413 33.3586C12.4104 33.3414 12.478 33.3187 12.5444 33.2906C12.6171 33.2599 12.6862 33.2236 12.7517 33.1818C12.8372 33.1273 12.9165 33.0633 12.99 32.9899C13.0634 32.9166 13.1273 32.8371 13.1818 32.7517C13.2236 32.6862 13.2599 32.6171 13.2906 32.5444C13.3187 32.4781 13.3414 32.4104 13.3586 32.3413C13.3862 32.231 13.4 32.1172 13.4 32L13.4 24.5C13.4 24.3828 13.3862 24.269 13.3586 24.1587C13.3414 24.0896 13.3187 24.0219 13.2906 23.9556C13.2599 23.8829 13.2236 23.8138 13.1819 23.7483C13.1273 23.6629 13.0634 23.5835 12.99 23.5101C12.9165 23.4367 12.8372 23.3727 12.7517 23.3182L12.7512 23.3178Q12.6531 23.2553 12.5444 23.2094Q12.4448 23.1673 12.3412 23.1413C12.231 23.1138 12.1172 23.1 12 23.1ZM20.5 23.1L34.5 23.1C34.6172 23.1 34.731 23.1138 34.8413 23.1414C34.9104 23.1586 34.978 23.1813 35.0444 23.2094C35.1171 23.2401 35.1862 23.2763 35.2517 23.3182C35.3372 23.3727 35.4165 23.4366 35.49 23.5101C35.5634 23.5834 35.6273 23.6629 35.6818 23.7483C35.7236 23.8138 35.7599 23.8829 35.7906 23.9556C35.8187 24.0219 35.8414 24.0896 35.8586 24.1587C35.8862 24.269 35.9 24.3828 35.9 24.5L35.9 32C35.9 32.1172 35.8862 32.231 35.8586 32.3413C35.8414 32.4104 35.8187 32.4781 35.7906 32.5444C35.7599 32.6171 35.7236 32.6862 35.6819 32.7517C35.6273 32.8371 35.5634 32.9165 35.49 32.9899C35.4165 33.0633 35.3372 33.1273 35.2517 33.1818C35.1862 33.2236 35.1171 33.2599 35.0444 33.2906C34.978 33.3187 34.9104 33.3414 34.8413 33.3586C34.731 33.3862 34.6172 33.4 34.5 33.4L20.5 33.4C20.3828 33.4 20.269 33.3862 20.1587 33.3586C20.0896 33.3414 20.022 33.3187 19.9556 33.2906C19.8829 33.2599 19.8138 33.2237 19.7483 33.1819C19.6628 33.1273 19.5835 33.0634 19.51 32.9899C19.4366 32.9165 19.3727 32.8371 19.3181 32.7516C19.2764 32.6861 19.2401 32.6171 19.2094 32.5444C19.1813 32.4781 19.1586 32.4103 19.1414 32.3412C19.1138 32.2309 19.1 32.1172 19.1 32L19.1 24.5C19.1 24.3828 19.1138 24.2691 19.1414 24.1588C19.1586 24.0897 19.1813 24.0219 19.2094 23.9556C19.2401 23.8829 19.2764 23.8139 19.3181 23.7483C19.3727 23.6629 19.4366 23.5835 19.51 23.5101C19.5835 23.4366 19.6628 23.3727 19.7483 23.3181C19.8138 23.2763 19.8829 23.2401 19.9556 23.2094C20.022 23.1813 20.0896 23.1586 20.1587 23.1414C20.269 23.1138 20.3828 23.1 20.5 23.1Z" fill="currentColor" fill-rule="evenodd" />
</svg>
