<svg viewBox="0 0 40 40" xmlns="http://www.w3.org/2000/svg" xmlns:xlink="http://www.w3.org/1999/xlink" width="40.000000" height="40.000000" fill="none">
	<rect id="滑块" width="40.000000" height="40.000000" x="0.000000" y="0.000000" fill="rgb(255,255,255)" fill-opacity="0" />
	<path id="矢量 590" d="M16.8 6.00098C18.5673 6.00098 20 7.43367 20 9.20097L20 11.2606L20.0042 11.2605L37.5 11.2605C37.948 11.2605 38.2999 11.6125 38.2999 12.0605C38.2999 12.5085 37.948 12.8605 37.5 12.8605L20.0042 12.8605L20 12.8605L20 14.801C20 16.5683 18.5673 18.001 16.8 18.001L10.7 18.001C8.93274 18.001 7.5 16.5683 7.5 14.801L7.5 12.8605L2.5 12.8605C2.052 12.8605 1.69995 12.5085 1.69995 12.0605C1.69995 11.6125 2.052 11.2605 2.5 11.2605L7.5 11.2605L7.5 9.20097C7.5 7.43367 8.93274 6.00098 10.7 6.00098L16.8 6.00098ZM16.8 7.60098L10.7 7.60098C10.5677 7.60098 10.4393 7.61635 10.3147 7.64709L10.3146 7.64712Q10.1938 7.67696 10.0778 7.72606C9.9939 7.76151 9.91418 7.80344 9.83862 7.85182C9.74182 7.9138 9.65186 7.9864 9.5686 8.06961C9.48547 8.1528 9.41284 8.2428 9.35083 8.3396C9.30249 8.41515 9.2605 8.49484 9.2251 8.57867C9.19238 8.6561 9.16602 8.73512 9.14612 8.81572C9.11536 8.94034 9.09998 9.06877 9.09998 9.20097L9.09998 14.801Q9.09998 14.9987 9.14584 15.1851L9.14584 15.1851L9.14612 15.1862C9.16602 15.2668 9.19238 15.3459 9.2251 15.4233C9.2605 15.5071 9.30249 15.5868 9.35083 15.6624L9.35083 15.6624C9.41284 15.7592 9.48547 15.8492 9.5686 15.9323C9.65186 16.0155 9.74182 16.0881 9.83862 16.1501C9.91418 16.1985 9.9939 16.2404 10.0778 16.2759C10.1552 16.3086 10.2341 16.335 10.3147 16.3548C10.4393 16.3856 10.5677 16.401 10.7 16.401L16.8 16.401C16.9323 16.401 17.0607 16.3856 17.1853 16.3549C17.2659 16.335 17.3448 16.3087 17.4222 16.2759Q17.548 16.2227 17.6614 16.1501C17.7582 16.0881 17.8481 16.0155 17.9314 15.9323C18.0145 15.8492 18.0872 15.7592 18.1492 15.6624C18.1975 15.5869 18.2395 15.5071 18.2749 15.4233C18.3076 15.3458 18.334 15.2668 18.3539 15.1862C18.3846 15.0616 18.4 14.9332 18.4 14.801L18.4 9.20097C18.4 9.06874 18.3846 8.94031 18.3539 8.81566C18.334 8.73508 18.3076 8.65608 18.2749 8.57867C18.2395 8.49484 18.1975 8.41515 18.1492 8.33958C18.0872 8.2428 18.0145 8.1528 17.9314 8.06961C17.8481 7.98642 17.7582 7.91383 17.6614 7.85185Q17.548 7.77925 17.4222 7.72606C17.3448 7.6933 17.2659 7.66699 17.1853 7.64709C17.0607 7.61635 16.9323 7.60098 16.8 7.60098ZM32.5 24.9505C32.5 23.1832 31.0673 21.7505 29.3 21.7505L23.2 21.7505C21.4327 21.7505 20 23.1832 20 24.9505L20 27.1395L2.5 27.1395C2.052 27.1395 1.69995 27.4915 1.69995 27.9395C1.69995 28.3875 2.052 28.7395 2.5 28.7395L20 28.7395L20 30.5505C20 32.3178 21.4327 33.7505 23.2 33.7505L29.3 33.7505C31.0673 33.7505 32.5 32.3178 32.5 30.5505L32.5 28.7395L37.5 28.7395C37.948 28.7395 38.2999 28.3875 38.2999 27.9395C38.2999 27.4915 37.948 27.1395 37.5 27.1395L32.5 27.1395L32.5 24.9505ZM23.2 23.3505L29.3 23.3505C29.4323 23.3505 29.5607 23.3659 29.6853 23.3966C29.7659 23.4165 29.8448 23.4428 29.9222 23.4756Q30.048 23.5288 30.1614 23.6014C30.2582 23.6633 30.3481 23.7359 30.4314 23.8191C30.5145 23.9023 30.5872 23.9923 30.6492 24.0891C30.6975 24.1647 30.7395 24.2444 30.7749 24.3282C30.8076 24.4056 30.834 24.4846 30.8539 24.5652C30.8846 24.6898 30.9 24.8183 30.9 24.9505L30.9 30.5505C30.9 30.6827 30.8846 30.8111 30.8539 30.9357C30.834 31.0163 30.8076 31.0954 30.7749 31.1728C30.7395 31.2567 30.6975 31.3364 30.6492 31.4119C30.5872 31.5087 30.5145 31.5987 30.4314 31.6819C30.3481 31.765 30.2582 31.8376 30.1614 31.8996Q30.048 31.9722 29.9222 32.0254C29.8448 32.0582 29.7659 32.0845 29.6853 32.1044C29.5607 32.1351 29.4323 32.1505 29.3 32.1505L23.2 32.1505C23.0677 32.1505 22.9393 32.1351 22.8147 32.1044C22.7341 32.0845 22.6552 32.0582 22.5778 32.0254C22.4939 31.9899 22.4142 31.948 22.3386 31.8996C22.2418 31.8376 22.1519 31.7651 22.0686 31.6819C21.9855 31.5987 21.9128 31.5087 21.8508 31.4119C21.8025 31.3363 21.7605 31.2566 21.7251 31.1728C21.6924 31.0954 21.666 31.0163 21.6461 30.9357L21.6458 30.9346Q21.6 30.7482 21.6 30.5505L21.6 24.9505C21.6 24.8183 21.6154 24.6898 21.6461 24.5652C21.666 24.4846 21.6924 24.4056 21.7251 24.3282C21.7605 24.2444 21.8025 24.1647 21.8508 24.0891C21.9128 23.9923 21.9855 23.9023 22.0686 23.8191C22.1519 23.7359 22.2418 23.6633 22.3386 23.6013C22.4142 23.5529 22.4939 23.511 22.5778 23.4756Q22.6938 23.4265 22.8146 23.3966L22.8147 23.3966C22.9393 23.3659 23.0677 23.3505 23.2 23.3505Z" fill="currentColor" fill-rule="evenodd" />
</svg>
