<?xml version="1.0" encoding="utf-8"?>
<!-- Generator: Adobe Illustrator 26.0.2, SVG Export Plug-In . SVG Version: 6.00 Build 0)  -->
<svg version="1.1" id="图层_1" xmlns="http://www.w3.org/2000/svg" xmlns:xlink="http://www.w3.org/1999/xlink" x="0px" y="0px"
	 viewBox="0 0 48 48" style="enable-background:new 0 0 48 48;" xml:space="preserve">
<style type="text/css">
	.st0{fill-rule:evenodd;clip-rule:evenodd;fill:currentColor;}
</style>
<desc>Created with Pixso.</desc>
<path id="矢量_150" class="st0" d="M39.8,38.7V31c0-0.5-0.4-0.9-0.9-0.9c-0.5,0-0.9,0.4-0.9,0.9v7.7c0,1,0,1.5-0.1,1.7
	c0,0.1-0.1,0.2-0.2,0.3c-0.1,0.1-0.2,0.2-0.3,0.2C37.2,41,36.7,41,35.7,41H11.1c-1,0-1.5,0-1.7-0.1c-0.1,0-0.2-0.1-0.3-0.2
	C9,40.6,9,40.5,8.9,40.4c-0.1-0.2-0.1-0.7-0.1-1.7V9.1c0-1,0-1.5,0.1-1.7C9,7.3,9,7.2,9.1,7.1S9.3,7,9.4,6.9
	c0.2-0.1,0.7-0.1,1.7-0.1h24.6c1,0,1.5,0,1.7,0.1C37.5,7,37.6,7,37.7,7.1c0.1,0.1,0.2,0.2,0.2,0.3C38,7.6,38,8.1,38,9.1v7.8
	c0,0.5,0.4,0.9,0.9,0.9c0.5,0,0.9-0.4,0.9-0.9V9.1c0-1.3-0.1-2.1-0.3-2.5c-0.1-0.3-0.3-0.5-0.5-0.7s-0.5-0.4-0.7-0.5
	C37.8,5.1,37,5,35.7,5H11.1C9.8,5,9,5.1,8.6,5.3C8.3,5.4,8.1,5.6,7.8,5.8S7.4,6.3,7.3,6.6C7.1,7,7,7.8,7,9.1v29.6
	c0,1.3,0.1,2.1,0.3,2.5c0.1,0.3,0.3,0.5,0.5,0.7s0.5,0.4,0.7,0.5c0.4,0.2,1.2,0.3,2.5,0.3h24.6c1.3,0,2.1-0.1,2.5-0.3
	c0.3-0.1,0.5-0.3,0.7-0.5s0.4-0.5,0.5-0.7C39.7,40.8,39.8,40,39.8,38.7z M33.3,11c-0.2-0.1-0.5-0.1-1.1-0.1H14.5
	c-0.6,0-0.8,0-1.1,0.1c-0.2,0.1-0.3,0.2-0.4,0.4c-0.1,0.2-0.1,0.5-0.1,1.1v2.8c0,0.6,0,0.8,0.1,1.1c0.1,0.2,0.2,0.3,0.4,0.4
	c0.2,0.1,0.5,0.1,1.1,0.1h17.8c0.6,0,0.8,0,1.1-0.1c0.2-0.1,0.3-0.2,0.4-0.4c0.1-0.2,0.1-0.5,0.1-1.1v-2.8c0-0.6,0-0.8-0.1-1.1
	C33.7,11.2,33.5,11.1,33.3,11z M32.1,15.1v-2.4H14.7v2.4H32.1z M43.3,20c-0.2-0.1-0.5-0.1-1.1-0.1H25.5c-0.6,0-0.8,0-1.1,0.1
	c-0.2,0.1-0.3,0.2-0.4,0.4c-0.1,0.2-0.1,0.5-0.1,1.1v3.8c0,0.6,0,0.8,0.1,1.1c0.1,0.2,0.2,0.3,0.4,0.4c0.2,0.1,0.5,0.1,1.1,0.1h16.8
	c0.6,0,0.8,0,1.1-0.1c0.2-0.1,0.3-0.2,0.4-0.4c0.1-0.2,0.1-0.5,0.1-1.1v-3.8c0-0.6,0-0.8-0.1-1.1C43.7,20.2,43.5,20.1,43.3,20z
	 M20.3,21.9l-1.9,1.5l1.9,1.5c0.4,0.3,0.5,0.9,0.1,1.3c-0.3,0.4-0.9,0.5-1.3,0.1l-2.8-2.2c0,0-0.1-0.1-0.1-0.1
	C16,23.8,16,23.5,16,23.3c0-0.2,0.1-0.5,0.3-0.6l2.8-2.2c0.4-0.3,1-0.2,1.3,0.1C20.7,21,20.7,21.5,20.3,21.9z M42.1,25.1v-3.4H25.7
	v3.4H42.1z M32.3,29.9c0.6,0,0.8,0,1.1,0.1c0.2,0.1,0.3,0.2,0.4,0.4c0.1,0.2,0.1,0.5,0.1,1.1v3.8c0,0.6,0,0.8-0.1,1.1
	c-0.1,0.2-0.2,0.3-0.4,0.4c-0.2,0.1-0.5,0.1-1.1,0.1H14.5c-0.6,0-0.8,0-1.1-0.1c-0.2-0.1-0.3-0.2-0.4-0.4c-0.1-0.2-0.1-0.5-0.1-1.1
	v-3.8c0-0.6,0-0.8,0.1-1.1c0.1-0.2,0.2-0.3,0.4-0.4c0.2-0.1,0.5-0.1,1.1-0.1H32.3z M32.1,31.7v3.4H14.7v-3.4H32.1z"/>
</svg>
