<svg viewBox="0 0 40 40" xmlns="http://www.w3.org/2000/svg" xmlns:xlink="http://www.w3.org/1999/xlink" width="40.000000" height="40.000000" fill="none">
	<rect id="插槽" width="40.000000" height="40.000000" x="0.000000" y="0.000000" fill="rgb(255,255,255)" fill-opacity="0" />
	<path id="矢量 508" d="M33.3019 26.6912L33.3019 33.1129C33.3019 33.7752 33.2921 34.2262 33.2726 34.4658C33.2373 34.8977 33.1467 35.2566 33.001 35.5426C32.9348 35.6725 32.8595 35.7956 32.7749 35.912C32.6903 36.0285 32.5964 36.1383 32.4933 36.2414C32.3901 36.3445 32.2804 36.4384 32.1638 36.5231C32.0474 36.6077 31.9243 36.683 31.7946 36.7491C31.5085 36.8948 31.1495 36.9854 30.7178 37.0206C30.478 37.0402 30.0271 37.05 29.3647 37.05L7.63904 37.05C6.97668 37.05 6.52576 37.0402 6.28613 37.0206C5.85425 36.9854 5.49524 36.8948 5.20923 36.7491Q5.0144 36.6498 4.83972 36.5229C4.72327 36.4383 4.61353 36.3445 4.5105 36.2414C4.40747 36.1384 4.3136 36.0287 4.229 35.9122C4.14441 35.7957 4.06897 35.6725 4.00281 35.5427C3.85706 35.2566 3.7666 34.8977 3.73132 34.4658C3.71167 34.2262 3.7019 33.7752 3.7019 33.1129L3.7019 6.88712C3.7019 6.22482 3.71167 5.77383 3.73132 5.53421C3.7666 5.10233 3.85706 4.74341 4.00281 4.45737C4.06897 4.32751 4.14441 4.20435 4.229 4.08789C4.3136 3.97144 4.40747 3.86166 4.5105 3.75861C4.61353 3.65555 4.72327 3.56171 4.83984 3.47708C4.9563 3.39246 5.07947 3.31708 5.20923 3.25092C5.49524 3.10516 5.85425 3.01468 6.28613 2.97937C6.52576 2.95981 6.97668 2.95001 7.63904 2.95001L29.3647 2.95001C30.0271 2.95001 30.478 2.95981 30.7178 2.97937C31.1495 3.01468 31.5085 3.10516 31.7946 3.25092C31.9244 3.31711 32.0476 3.39252 32.1642 3.47717C32.2805 3.56177 32.3903 3.65558 32.4933 3.75861C32.5963 3.86163 32.6902 3.97137 32.7748 4.0878C32.8594 4.20428 32.9348 4.32748 33.001 4.45737C33.1467 4.74341 33.2373 5.10233 33.2726 5.53421C33.2921 5.77383 33.3019 6.22482 33.3019 6.88712L33.3019 13.3864C33.3019 13.8344 32.95 14.1864 32.502 14.1864C32.054 14.1864 31.7019 13.8344 31.7019 13.3864L31.7019 6.88712C31.7019 6.26831 31.6938 5.86078 31.6779 5.66449C31.6597 5.44244 31.6256 5.2822 31.5754 5.18378C31.5183 5.07175 31.4475 4.97348 31.3629 4.88892Q31.2362 4.76212 31.0681 4.67651C30.9697 4.62637 30.8094 4.59222 30.5874 4.57407C30.3911 4.55804 29.9836 4.55002 29.3647 4.55002L7.63904 4.55002C7.02026 4.55002 6.61267 4.55804 6.41638 4.57407C6.19434 4.59222 6.03406 4.62637 5.93567 4.67651C5.82361 4.73358 5.72534 4.80441 5.64087 4.88895C5.55627 4.97348 5.48547 5.07175 5.42847 5.18378C5.3783 5.2822 5.34412 5.44244 5.32593 5.66449C5.30994 5.86078 5.30188 6.26831 5.30188 6.88712L5.30188 33.1129C5.30188 33.7317 5.30994 34.1393 5.32593 34.3355C5.34412 34.5576 5.3783 34.7178 5.42847 34.8163C5.48547 34.9283 5.55627 35.0266 5.64087 35.1111C5.72534 35.1956 5.82361 35.2664 5.93567 35.3235C6.03406 35.3737 6.19434 35.4078 6.41638 35.426C6.61267 35.442 7.02026 35.45 7.63904 35.45L29.3647 35.45C29.9836 35.45 30.3911 35.442 30.5874 35.426C30.8094 35.4078 30.9697 35.3737 31.0681 35.3235Q31.2362 35.2379 31.3629 35.1111C31.4475 35.0266 31.5183 34.9283 31.5754 34.8163C31.6256 34.7178 31.6597 34.5576 31.6779 34.3355C31.6938 34.1393 31.7019 33.7317 31.7019 33.1129L31.7019 26.6912C31.7019 26.2432 32.054 25.8912 32.502 25.8912C32.95 25.8912 33.3019 26.2432 33.3019 26.6912ZM24.2797 8.27881C25.1198 8.27881 25.5398 8.27881 25.8607 8.44229C26.1429 8.58612 26.3724 8.81558 26.5162 9.09781C26.6797 9.4187 26.6797 9.83871 26.6797 10.6788L26.6797 12.2178C26.6797 13.0579 26.6797 13.4779 26.5162 13.7988C26.3724 14.0811 26.1429 14.3105 25.8607 14.4543C25.5398 14.6178 25.1198 14.6178 24.2797 14.6178L11.5797 14.6178C10.7396 14.6178 10.3196 14.6178 9.99866 14.4543C9.71643 14.3105 9.48694 14.0811 9.34314 13.7988C9.17969 13.4779 9.17969 13.0579 9.17969 12.2178L9.17969 10.6788C9.17969 9.83871 9.17969 9.4187 9.34314 9.09781C9.48694 8.81558 9.71643 8.58612 9.99866 8.44229C10.3196 8.27881 10.7396 8.27881 11.5797 8.27881L24.2797 8.27881ZM24.2797 9.87881L11.5797 9.87881C11.1996 9.87881 10.9366 9.88245 10.7906 9.88977C10.7833 10.0357 10.7797 10.2987 10.7797 10.6788L10.7797 12.2178C10.7797 12.5979 10.7833 12.8609 10.7906 13.0069C10.9366 13.0142 11.1996 13.0178 11.5797 13.0178L24.2797 13.0178C24.6598 13.0178 24.9227 13.0142 25.0687 13.0069C25.076 12.8609 25.0797 12.5979 25.0797 12.2178L25.0797 10.6788C25.0797 10.2988 25.076 10.0357 25.0687 9.88977C24.9227 9.88245 24.6598 9.87881 24.2797 9.87881ZM34.7094 17.334C35.5494 17.334 35.9695 17.334 36.2904 17.4975C36.5726 17.6413 36.8021 17.8708 36.9459 18.153C37.1094 18.4739 37.1094 18.8939 37.1094 19.734L37.1094 21.273C37.1094 22.1131 37.1094 22.5331 36.9459 22.854C36.8021 23.1362 36.5726 23.3657 36.2904 23.5095C35.9695 23.673 35.5494 23.673 34.7094 23.673L22.0094 23.673C21.1693 23.673 20.7493 23.673 20.4283 23.5095C20.1461 23.3657 19.9166 23.1362 19.7728 22.854C19.6094 22.5331 19.6094 22.1131 19.6094 21.273L19.6094 19.734C19.6094 18.8939 19.6094 18.4739 19.7728 18.153C19.9166 17.8708 20.1461 17.6413 20.4283 17.4975C20.7493 17.334 21.1693 17.334 22.0094 17.334L34.7094 17.334ZM16.1307 19.1164L14.3026 20.5028L16.1316 21.8893C16.4886 22.16 16.5565 22.6531 16.2859 23.0101C16.0153 23.3672 15.5221 23.435 15.165 23.1644L12.4951 21.1404C12.4661 21.1184 12.4386 21.0945 12.4128 21.0686C12.387 21.0428 12.363 21.0154 12.3411 20.9863C12.2075 20.8103 12.1559 20.6129 12.1859 20.394Q12.2084 20.23 12.2856 20.0979Q12.3629 19.9656 12.495 19.8654L15.1639 17.8415C15.5209 17.5708 16.014 17.6386 16.2847 17.9955C16.5554 18.3525 16.4877 18.8457 16.1307 19.1164ZM34.7094 18.934L22.0094 18.934C21.6293 18.934 21.3663 18.9376 21.2203 18.9449C21.213 19.0909 21.2094 19.3539 21.2094 19.734L21.2094 21.273C21.2094 21.653 21.213 21.9161 21.2203 22.062C21.3663 22.0693 21.6293 22.073 22.0094 22.073L34.7094 22.073C35.0895 22.073 35.3524 22.0693 35.4984 22.062C35.5057 21.9161 35.5094 21.653 35.5094 21.273L35.5094 19.734C35.5094 19.3539 35.5057 19.0909 35.4984 18.9449C35.3524 18.9376 35.0895 18.934 34.7094 18.934ZM25.8607 26.5526C25.5398 26.3892 25.1198 26.3892 24.2797 26.3892L11.5797 26.3892C10.7396 26.3892 10.3196 26.3892 9.99866 26.5526C9.71643 26.6965 9.48694 26.9259 9.34314 27.2082C9.17969 27.5291 9.17969 27.9491 9.17969 28.7892L9.17969 30.3282C9.17969 31.1682 9.17969 31.5883 9.34314 31.9091C9.48694 32.1914 9.71643 32.4209 9.99866 32.5647C10.3196 32.7282 10.7396 32.7282 11.5797 32.7282L24.2797 32.7282C25.1198 32.7282 25.5398 32.7282 25.8607 32.5647C26.1429 32.4209 26.3724 32.1914 26.5162 31.9091C26.6797 31.5883 26.6797 31.1682 26.6797 30.3282L26.6797 28.7892C26.6797 27.9491 26.6797 27.5291 26.5162 27.2082C26.3724 26.9259 26.1429 26.6965 25.8607 26.5526ZM11.5797 27.9892L24.2797 27.9892C24.6598 27.9892 24.9227 27.9928 25.0687 28.0001C25.076 28.1461 25.0797 28.4091 25.0797 28.7892L25.0797 30.3282C25.0797 30.7082 25.076 30.9713 25.0687 31.1172C24.9227 31.1245 24.6598 31.1282 24.2797 31.1282L11.5797 31.1282C11.1996 31.1282 10.9366 31.1245 10.7906 31.1172C10.7833 30.9713 10.7797 30.7082 10.7797 30.3282L10.7797 28.7892C10.7797 28.4091 10.7833 28.1461 10.7906 28.0001C10.9366 27.9928 11.1996 27.9892 11.5797 27.9892Z" fill="currentColor" fill-rule="evenodd" />
</svg>
