<svg viewBox="0 0 40 40" xmlns="http://www.w3.org/2000/svg" xmlns:xlink="http://www.w3.org/1999/xlink" width="40.000000" height="40.000000" fill="none">
	<rect id="统计数值" width="40.000000" height="40.000000" x="0.000000" y="0.000000" fill="rgb(255,255,255)" fill-opacity="0" />
	<path id="矢量 613" d="M38.75 9.5C38.75 7.01471 36.7352 5 34.25 5L5.75 5C3.26477 5 1.25 7.01471 1.25 9.5L1.25 30.5C1.25 32.9853 3.26477 35 5.75 35L34.25 35C36.7352 35 38.75 32.9853 38.75 30.5L38.75 9.5ZM5.75 6.60001L34.25 6.60001C34.4799 6.60001 34.7035 6.62576 34.9211 6.67731C35.0767 6.71411 35.229 6.7641 35.3783 6.82724C35.5352 6.89355 35.684 6.97232 35.8246 7.06348L35.825 7.06366C35.9952 7.17404 36.1538 7.30261 36.3007 7.4494C36.4475 7.59631 36.5762 7.75504 36.6866 7.9256C36.7778 8.06625 36.8564 8.21497 36.9227 8.37167C36.9858 8.5209 37.0359 8.67328 37.0726 8.82874C37.1243 9.04639 37.15 9.27014 37.15 9.5L37.15 30.5C37.15 30.7298 37.1243 30.9535 37.0728 31.1711C37.0359 31.3266 36.986 31.479 36.9227 31.6283Q36.8246 31.8605 36.6901 32.0691Q36.6883 32.0719 36.6865 32.0746L36.6864 32.0748C36.576 32.2452 36.4474 32.4038 36.3007 32.5506C36.1538 32.6974 35.9951 32.8261 35.8247 32.9365C35.684 33.0277 35.5352 33.1064 35.3783 33.1728C35.229 33.2359 35.0767 33.2859 34.9211 33.3227C34.7035 33.3742 34.4799 33.4 34.25 33.4L5.75 33.4C5.52014 33.4 5.29651 33.3742 5.07886 33.3227C4.92334 33.2859 4.771 33.2359 4.6217 33.1728C4.46484 33.1064 4.31616 33.0277 4.17542 32.9366C4.00488 32.8261 3.84631 32.6975 3.69934 32.5506C3.55249 32.4037 3.42383 32.2451 3.31348 32.0746C3.22229 31.9339 3.14355 31.7851 3.07727 31.6283C3.01416 31.4791 2.96411 31.3267 2.92737 31.1712C2.87573 30.9536 2.84998 30.7299 2.84998 30.5L2.84998 9.5C2.84998 9.27017 2.87573 9.04645 2.92725 8.82886L2.92737 8.8288C2.96411 8.67331 3.01416 8.52094 3.07727 8.37167C3.14355 8.21487 3.22229 8.06613 3.31348 7.92542C3.42383 7.75494 3.55249 7.59625 3.69934 7.4494Q3.9198 7.22908 4.17542 7.06342C4.31616 6.97229 4.46484 6.89355 4.6217 6.82724C4.771 6.7641 4.92334 6.71414 5.07886 6.67731C5.29651 6.62576 5.52014 6.60001 5.75 6.60001ZM20.8347 21.6836L18.3699 24.4023L23.4753 24.4023L23.4753 25.9219L15.8113 25.9219L15.8113 24.8164L19.5066 20.6758C20.1888 19.9284 20.6576 19.3359 20.9128 18.8984C21.0757 18.6222 21.187 18.3356 21.2471 18.0386C21.2821 17.8652 21.2996 17.6883 21.2996 17.5078C21.2996 16.8984 21.1342 16.4232 20.8035 16.082C20.4728 15.7409 20.0457 15.5703 19.5222 15.5703C19.2845 15.5703 19.0596 15.607 18.8472 15.6802C18.5825 15.7716 18.3375 15.9198 18.1121 16.125C17.7084 16.4922 17.4103 16.9844 17.2175 17.6016L15.8425 16.8164C16.0978 15.9206 16.5743 15.2279 17.2722 14.7383C17.5579 14.5376 17.8589 14.3778 18.1753 14.2589C18.6349 14.0863 19.1267 14 19.6511 14C20.3126 14 20.9037 14.1367 21.4246 14.4102C21.6526 14.5281 21.8597 14.6695 22.0463 14.8344C22.288 15.0481 22.4948 15.3012 22.6667 15.5938C22.9714 16.112 23.1238 16.7227 23.1238 17.4258C23.1238 17.713 23.094 17.9938 23.0344 18.2681C22.9526 18.6454 22.8143 19.0105 22.6199 19.3633C22.2839 19.9701 21.6888 20.7435 20.8347 21.6836ZM31.9507 20.7969C31.6044 20.2995 31.09 19.9388 30.4077 19.7148C30.9624 19.4805 31.3751 19.1393 31.646 18.6914C31.6801 18.6356 31.712 18.5787 31.7418 18.5207C31.9514 18.1133 32.0562 17.6519 32.0562 17.1367Q32.0562 16.3271 31.7306 15.6819C31.6993 15.6201 31.666 15.5595 31.6304 15.5C31.3491 15.0234 30.9442 14.6549 30.4155 14.3945C29.8895 14.1315 29.2841 14 28.5991 14C27.9182 14 27.3035 14.1348 26.755 14.4043C26.5903 14.4852 26.4315 14.5783 26.2788 14.6836C25.6173 15.1367 25.1538 15.8008 24.8882 16.6758L26.2476 17.457Q26.5367 16.5469 27.103 16.0508C27.4833 15.7201 27.9454 15.5547 28.4897 15.5547Q29.0731 15.5547 29.4954 15.8154C29.5834 15.8698 29.6661 15.9326 29.7437 16.0039C30.0692 16.3008 30.2319 16.7057 30.2319 17.2188C30.2319 17.5262 30.1704 17.8029 30.0475 18.0488C29.9528 18.2383 29.8215 18.4095 29.6538 18.5625C29.271 18.9141 28.7177 19.0898 27.9937 19.0898L27.3999 19.0898L27.3999 20.5938L27.8647 20.5938C28.8022 20.5938 29.5001 20.7591 29.9585 21.0898C30.4194 21.4206 30.6499 21.9115 30.6499 22.5625C30.6499 22.9792 30.5587 23.3398 30.3765 23.6445C30.1942 23.9466 29.9481 24.1758 29.6382 24.332C29.3309 24.4857 28.9845 24.5625 28.5991 24.5625C28.373 24.5625 28.1541 24.5353 27.9419 24.481C27.6433 24.4045 27.3584 24.2741 27.0874 24.0898Q26.94 23.9896 26.8108 23.8697Q26.3308 23.4242 26.103 22.707L24.728 23.4883C24.9962 24.3424 25.4897 24.9909 26.2085 25.4336C26.4532 25.5844 26.7076 25.7094 26.9718 25.8088C27.4832 26.0014 28.0309 26.0977 28.6147 26.0977C29.3174 26.0977 29.9607 25.966 30.5447 25.7026C30.5472 25.7015 30.5497 25.7004 30.5522 25.6992C31.1382 25.431 31.6044 25.0338 31.9507 24.5078C32.2997 23.9792 32.4741 23.3516 32.4741 22.625C32.4741 21.901 32.2997 21.2917 31.9507 20.7969ZM10.5547 25.9219L12.3008 25.9219L12.3008 14.1953L10.9727 14.1953L7.5 16.1953L7.5 17.9062L10.5547 16.1797L10.5547 25.9219Z" fill="currentColor" fill-rule="evenodd" />
</svg>
