<svg viewBox="0 0 40 40" xmlns="http://www.w3.org/2000/svg" xmlns:xlink="http://www.w3.org/1999/xlink" width="40.000000" height="40.000000" fill="none">
	<rect id="步骤条" width="40.000000" height="40.000000" x="0.000000" y="0.000000" fill="rgb(255,255,255)" fill-opacity="0" />
	<path id="矢量 596" d="M6.80005 7.5C9.24678 7.5 11.266 9.33078 11.5625 11.6972L15.4122 11.6993C15.7078 9.33183 17.7275 7.5 20.175 7.5C22.6219 7.5 24.6412 9.33095 24.9375 11.6976L28.4375 11.6976C28.7338 9.33095 30.7531 7.5 33.2001 7.5C35.851 7.5 38 9.64903 38 12.3C38 14.951 35.851 17.1 33.2001 17.1C30.8911 17.1 28.963 15.4698 28.5038 13.2976L24.8712 13.2976C24.412 15.4698 22.4839 17.1 20.175 17.1C17.8667 17.1 15.939 15.4706 15.4792 13.2993L11.4963 13.2972C11.0372 15.4696 9.10901 17.1 6.80005 17.1C4.14905 17.1 2 14.951 2 12.3C2 9.64903 4.14905 7.5 6.80005 7.5ZM6.80005 9.10001C6.54761 9.10001 6.302 9.12817 6.06287 9.18451C5.89014 9.22523 5.7207 9.28067 5.55493 9.35081C5.38123 9.42426 5.21655 9.51149 5.06079 9.61252C4.87329 9.73412 4.69885 9.8757 4.53723 10.0373C4.37573 10.1988 4.23413 10.3733 4.11255 10.5608L4.11255 10.5608C4.01147 10.7166 3.92432 10.8813 3.85083 11.0549C3.78064 11.2208 3.72522 11.3901 3.68457 11.5629L3.68423 11.5643L3.68422 11.5643Q3.59998 11.9223 3.59998 12.3Q3.59998 12.6778 3.68422 13.0357L3.68423 13.0357L3.68457 13.0371C3.72522 13.2099 3.78064 13.3792 3.85083 13.5451C3.92419 13.7187 4.01147 13.8834 4.11255 14.0391C4.23413 14.2266 4.37573 14.4012 4.53723 14.5627C4.69885 14.7243 4.87341 14.8659 5.06091 14.9875C5.21655 15.0885 5.38123 15.1758 5.55493 15.2492C5.7207 15.3193 5.89001 15.3748 6.06287 15.4155C6.30188 15.4718 6.54761 15.5 6.80005 15.5C7.05237 15.5 7.2981 15.4718 7.53711 15.4155C7.70996 15.3748 7.87927 15.3193 8.04504 15.2492C8.21875 15.1758 8.38342 15.0885 8.53918 14.9875C8.72668 14.8659 8.90112 14.7243 9.06274 14.5627C9.22437 14.4012 9.36584 14.2267 9.48755 14.0392C9.5885 13.8834 9.67578 13.7187 9.74915 13.5451C9.81934 13.3792 9.87476 13.2099 9.91553 13.0372C9.9718 12.7981 10 12.5524 10 12.3C10 12.0476 9.9718 11.8019 9.91553 11.5628C9.87476 11.3901 9.81934 11.2207 9.74915 11.0549C9.67578 10.8813 9.5885 10.7166 9.48743 10.5608C9.36584 10.3733 9.22424 10.1988 9.06274 10.0373C8.90112 9.8757 8.72668 9.73412 8.53918 9.61252C8.38342 9.51149 8.21875 9.42426 8.04504 9.35081Q7.80336 9.24855 7.55165 9.18797Q7.54439 9.18622 7.53711 9.18451C7.2981 9.12817 7.05237 9.10001 6.80005 9.10001ZM20.175 9.10001C19.9226 9.10001 19.677 9.12817 19.4379 9.18451C19.2651 9.22523 19.0957 9.28067 18.9299 9.35081C18.7562 9.42426 18.5916 9.51149 18.4358 9.61252C18.2483 9.73412 18.0739 9.8757 17.9122 10.0373C17.7507 10.1988 17.6091 10.3733 17.4875 10.5608C17.3865 10.7166 17.2993 10.8813 17.2258 11.0549C17.1556 11.2207 17.1002 11.3901 17.0596 11.5629C17.0032 11.8019 16.975 12.0477 16.975 12.3C16.975 12.5524 17.0032 12.798 17.0594 13.0371C17.1002 13.2099 17.1556 13.3792 17.2258 13.5451C17.2992 13.7187 17.3865 13.8834 17.4874 14.0391L17.4875 14.0391C17.6091 14.2266 17.7507 14.4012 17.9122 14.5627C18.0739 14.7243 18.2484 14.8659 18.4359 14.9875C18.5916 15.0885 18.7562 15.1758 18.9299 15.2492C19.0957 15.3193 19.265 15.3748 19.4379 15.4155C19.6769 15.4718 19.9226 15.5 20.175 15.5C20.4274 15.5 20.6731 15.4718 20.9121 15.4155C21.085 15.3748 21.2543 15.3193 21.42 15.2492C21.5938 15.1758 21.7584 15.0885 21.9142 14.9875C22.1017 14.8659 22.2761 14.7243 22.4377 14.5627C22.5994 14.4012 22.7408 14.2266 22.8625 14.0391C22.9635 13.8834 23.0508 13.7187 23.1241 13.5451C23.1943 13.3792 23.2498 13.2099 23.2905 13.0372C23.3468 12.7981 23.375 12.5524 23.375 12.3C23.375 12.0476 23.3468 11.8019 23.2905 11.5629C23.2498 11.3901 23.1943 11.2207 23.1241 11.0549C23.0508 10.8813 22.9635 10.7166 22.8625 10.5609L22.8625 10.5608C22.7408 10.3734 22.5994 10.1988 22.4377 10.0373C22.2761 9.87569 22.1017 9.73412 21.9142 9.6125C21.7584 9.51149 21.5938 9.42426 21.42 9.35081Q21.1784 9.24858 20.9268 9.18801L20.9267 9.18797Q20.9194 9.18622 20.9121 9.18451C20.6731 9.12817 20.4274 9.10001 20.175 9.10001ZM33.2001 9.10001C32.9476 9.10001 32.702 9.12817 32.4629 9.18451C32.2902 9.22523 32.1207 9.28067 31.955 9.35081C31.7812 9.42426 31.6166 9.51149 31.4608 9.61252C31.2733 9.73412 31.0989 9.8757 30.9373 10.0373C30.7758 10.1988 30.6342 10.3733 30.5126 10.5608C30.4115 10.7166 30.3243 10.8813 30.2509 11.0549C30.1807 11.2208 30.1252 11.3901 30.0846 11.5629L30.0843 11.5643Q30 11.9222 30 12.3Q30 12.6778 30.0843 13.0357L30.0846 13.0371C30.1252 13.2099 30.1807 13.3792 30.2509 13.5451C30.3242 13.7187 30.4115 13.8834 30.5126 14.0391C30.6342 14.2266 30.7758 14.4012 30.9373 14.5627C31.0989 14.7243 31.2734 14.8659 31.4609 14.9875C31.6166 15.0885 31.7812 15.1758 31.955 15.2492C32.1207 15.3193 32.29 15.3748 32.4629 15.4155C32.7019 15.4718 32.9476 15.5 33.2001 15.5C33.4524 15.5 33.6981 15.4718 33.9371 15.4155C34.11 15.3748 34.2793 15.3193 34.4451 15.2492C34.6188 15.1758 34.7834 15.0885 34.9392 14.9875C35.1267 14.8659 35.3011 14.7243 35.4628 14.5627C35.6244 14.4012 35.7659 14.2267 35.8876 14.0392C35.9885 13.8834 36.0758 13.7187 36.1492 13.5451C36.2194 13.3792 36.2748 13.2099 36.3156 13.0372C36.3718 12.7981 36.4 12.5524 36.4 12.3C36.4 12.0476 36.3718 11.8019 36.3156 11.5628C36.2748 11.3901 36.2194 11.2207 36.1492 11.0549C36.0758 10.8813 35.9885 10.7166 35.8875 10.5608C35.7659 10.3733 35.6243 10.1988 35.4628 10.0373C35.3011 9.8757 35.1267 9.73412 34.9392 9.61252C34.7834 9.51149 34.6188 9.42426 34.4451 9.35081Q34.2034 9.24855 33.9517 9.18797Q33.9444 9.18622 33.9371 9.18451C33.6981 9.12817 33.4524 9.10001 33.2001 9.10001ZM17.9517 31.1094L23.0376 31.1094L23.0376 32.6289L15.3735 32.6289L15.3735 31.5234L19.0688 27.3789C19.7407 26.6341 20.2069 26.0456 20.4673 25.6133C20.7303 25.181 20.8618 24.7135 20.8618 24.2109C20.8618 23.5938 20.6964 23.1172 20.3657 22.7812C20.035 22.4453 19.6079 22.2773 19.0845 22.2773Q18.7358 22.2773 18.4215 22.3813L18.4213 22.3814C18.152 22.4705 17.9017 22.6168 17.6704 22.8203C17.2589 23.1823 16.9634 23.6784 16.7837 24.3086L15.4048 23.5234C15.6522 22.6276 16.13 21.9349 16.8384 21.4453C17.1642 21.2189 17.5076 21.0446 17.8687 20.9224L17.8692 20.9222Q18.5049 20.707 19.2134 20.707C19.8749 20.707 20.4698 20.8438 20.9985 21.1172C21.5272 21.388 21.9399 21.7825 22.2368 22.3008C22.5363 22.8164 22.686 23.4271 22.686 24.1328C22.686 24.8255 22.5181 25.4766 22.1821 26.0859C21.8462 26.6927 21.2511 27.4596 20.397 28.3867L17.9517 31.1094ZM35.9644 29.332C35.9644 30.0586 35.7911 30.6836 35.4448 31.207C35.0985 31.7279 34.6323 32.125 34.0464 32.3984C34.0253 32.4082 34.004 32.4178 33.9828 32.4272C33.4138 32.6788 32.7892 32.8047 32.1089 32.8047C31.2235 32.8047 30.42 32.5833 29.6987 32.1406C29.4233 31.971 29.1813 31.7712 28.9724 31.5412C28.6361 31.1709 28.386 30.7222 28.2222 30.1953L29.5972 29.4102C29.8003 30.0195 30.131 30.4818 30.5894 30.7969C31.0477 31.112 31.549 31.2695 32.0933 31.2695C32.6792 31.2695 33.1661 31.0911 33.5542 30.7344C33.6611 30.636 33.7533 30.5281 33.8309 30.4104C34.0371 30.0981 34.1401 29.7178 34.1401 29.2695C34.1401 28.8314 34.0369 28.4664 33.8302 28.1745C33.4178 27.592 32.5941 27.3008 31.3589 27.3008L30.894 27.3008L30.894 25.7969L31.4878 25.7969C32.2118 25.7969 32.7651 25.6211 33.1479 25.2695C33.3203 25.1112 33.4541 24.9341 33.5493 24.7382C33.6671 24.4961 33.7261 24.2253 33.7261 23.9258C33.7261 23.4128 33.5634 23.0078 33.2378 22.7109C33.1603 22.6396 33.0775 22.5768 32.9895 22.5224C32.708 22.3486 32.3728 22.2617 31.9839 22.2617C31.4396 22.2617 30.9774 22.4245 30.5972 22.75C30.2196 23.0729 29.9344 23.5443 29.7417 24.1641L28.3823 23.3789C28.5956 22.6765 28.9347 22.1099 29.3997 21.6794C29.5139 21.5736 29.6357 21.4761 29.7651 21.3867C29.8853 21.3038 30.0094 21.2284 30.1376 21.1606C30.7096 20.8582 31.3615 20.707 32.0933 20.707C32.7755 20.707 33.3784 20.8385 33.9019 21.1016C34.4253 21.362 34.8302 21.7305 35.1167 22.207C35.1603 22.2784 35.2004 22.3514 35.2374 22.426C35.446 22.8469 35.5503 23.3195 35.5503 23.8438C35.5503 24.4297 35.4136 24.9466 35.1401 25.3945C34.8693 25.8425 34.4565 26.1849 33.9019 26.4219C34.5841 26.6562 35.0985 27.0182 35.4448 27.5078C35.7911 27.9974 35.9644 28.6055 35.9644 29.332ZM4.40002 22.7383L7.54846 20.918L8.87659 20.918L8.87659 32.6289L7.15002 32.6289L7.15002 22.8984L4.40002 24.4531L4.40002 22.7383Z" fill="currentColor" fill-rule="evenodd" />
</svg>
