<svg width="20.000000" height="20.000000" viewBox="0 0 20 20" fill="none" xmlns="http://www.w3.org/2000/svg" xmlns:xlink="http://www.w3.org/1999/xlink">
	<desc>
			Created with Pixso.
	</desc>
	<defs>
		<clipPath id="clip3794_39956">
			<rect id="样式" width="20.000000" height="20.000000" fill="white" fill-opacity="0"/>
		</clipPath>
	</defs>
	<g clip-path="url(#clip3794_39956)">
		<path id="矢量 32" d="M1.25 10C1.25 5.16 5.16 1.25 10 1.25C14.83 1.25 18.75 5.16 18.75 10C18.75 12.41 13.32 10.13 12.7 12.91C12.6 13.37 12.87 14.25 13.15 15.16L13.15 15.16L13.15 15.16C13.55 16.46 13.97 17.82 13.34 18.08C12.31 18.51 11.18 18.75 10 18.75C5.16 18.75 1.25 14.83 1.25 10ZM7.08 3.08C7.48 2.91 7.9 2.78 8.32 2.68C8.86 2.56 9.42 2.5 10 2.5C10.57 2.5 11.13 2.56 11.67 2.68Q12.3 2.83 12.91 3.08C13.33 3.26 13.72 3.47 14.1 3.71C14.53 3.99 14.93 4.32 15.3 4.69C15.67 5.06 16 5.46 16.28 5.89C16.52 6.27 16.73 6.66 16.91 7.08C17.08 7.48 17.21 7.9 17.31 8.32C17.43 8.83 17.49 9.36 17.49 9.89C17.37 9.93 17.19 9.97 16.95 9.99C16.77 10.01 16.46 10.04 16.03 10.06C15.51 10.09 15.11 10.12 14.85 10.15C14.35 10.21 13.93 10.29 13.57 10.42C13.05 10.59 12.63 10.84 12.29 11.17C12.15 11.31 12.03 11.45 11.92 11.61C11.71 11.91 11.57 12.26 11.48 12.64C11.43 12.88 11.42 13.15 11.45 13.45C11.47 13.65 11.51 13.89 11.57 14.15C11.63 14.44 11.76 14.9 11.96 15.53C12.09 15.95 12.18 16.26 12.24 16.46C12.31 16.72 12.36 16.93 12.39 17.11C12.14 17.19 11.9 17.26 11.65 17.31C11.11 17.43 10.56 17.5 10 17.5C9.42 17.5 8.86 17.43 8.32 17.31C7.9 17.21 7.48 17.08 7.08 16.91C6.66 16.73 6.27 16.52 5.89 16.28C5.46 16 5.06 15.67 4.69 15.3C4.32 14.93 3.99 14.53 3.71 14.1C3.47 13.72 3.26 13.33 3.08 12.91C2.91 12.51 2.78 12.09 2.68 11.67C2.56 11.13 2.5 10.57 2.5 10C2.5 9.42 2.56 8.86 2.68 8.32C2.78 7.9 2.91 7.48 3.08 7.08C3.26 6.66 3.47 6.27 3.71 5.89C3.99 5.46 4.32 5.06 4.69 4.69C5.06 4.32 5.46 3.99 5.89 3.71C6.27 3.47 6.66 3.26 7.08 3.08ZM14.75 6.75C14.75 7.71 13.96 8.5 13 8.5C12.03 8.5 11.25 7.71 11.25 6.75C11.25 5.78 12.03 5 13 5C13.96 5 14.75 5.78 14.75 6.75ZM6.87 8.62C7.84 8.62 8.62 7.84 8.62 6.87C8.62 5.9 7.84 5.12 6.87 5.12C5.9 5.12 5.12 5.9 5.12 6.87C5.12 7.84 5.9 8.62 6.87 8.62ZM13.62 6.75C13.62 7.09 13.34 7.37 13 7.37C12.65 7.37 12.37 7.09 12.37 6.75C12.37 6.4 12.65 6.12 13 6.12C13.34 6.12 13.62 6.4 13.62 6.75ZM6.87 7.5C7.21 7.5 7.5 7.21 7.5 6.87C7.5 6.53 7.21 6.25 6.87 6.25C6.53 6.25 6.25 6.53 6.25 6.87C6.25 7.21 6.53 7.5 6.87 7.5ZM6.75 14.75C7.71 14.75 8.5 13.96 8.5 13C8.5 12.03 7.71 11.25 6.75 11.25C5.78 11.25 5 12.03 5 13C5 13.96 5.78 14.75 6.75 14.75ZM6.75 13.62C7.09 13.62 7.37 13.34 7.37 13C7.37 12.65 7.09 12.37 6.75 12.37C6.4 12.37 6.12 12.65 6.12 13C6.12 13.34 6.4 13.62 6.75 13.62Z" fill="currentColor" fill-opacity="1.000000" fill-rule="evenodd"/>
	</g>
</svg>
