<svg viewBox="0 0 40 40" xmlns="http://www.w3.org/2000/svg" xmlns:xlink="http://www.w3.org/1999/xlink" width="40.000000" height="40.000000" fill="none">
	<rect id="旭日图" width="40.000000" height="40.000000" x="0.000000" y="0.000000" />
	<path id="矢量 711" d="M19.2 6.02248L19.2 2.19998C19.2 2.13013 19.2069 2.06177 19.2209 1.99484C19.2343 1.93176 19.2537 1.87 19.2793 1.80954C19.3044 1.75034 19.3347 1.69455 19.37 1.64218C19.4062 1.58826 19.448 1.53799 19.495 1.4913C19.5413 1.44543 19.5909 1.40472 19.644 1.36923C19.697 1.33392 19.7533 1.30374 19.8131 1.27872C19.873 1.2536 19.9343 1.23459 19.9968 1.22165C20.0631 1.20795 20.1309 1.20108 20.2 1.20108C21.2333 1.21231 22.2522 1.30566 23.2567 1.4812C23.4838 1.52084 23.7101 1.56473 23.9357 1.61279C24.5315 1.73972 25.1183 1.89496 25.6962 2.07846C26.276 2.26257 26.8468 2.47519 27.4086 2.71628Q28.0964 3.01152 28.7565 3.35947L28.7568 3.35964Q28.7743 3.36886 28.7917 3.37811C29.3961 3.69836 29.9829 4.05182 30.552 4.43848C31.0067 4.74741 31.4463 5.07486 31.8708 5.42087C32.3656 5.82416 32.8398 6.25269 33.2936 6.70639Q33.9678 7.38068 34.5679 8.11547L34.579 8.12903C34.925 8.55353 35.2526 8.99316 35.5614 9.44791C35.9485 10.0176 36.3022 10.605 36.6228 11.21C36.8616 11.6607 37.0818 12.1212 37.2837 12.5914C37.5249 13.1536 37.7377 13.7248 37.9219 14.3051C38.1052 14.8825 38.2603 15.4689 38.3872 16.0642C38.4653 16.4315 38.5325 16.8004 38.5885 17.1709C38.7191 18.0352 38.7892 18.9087 38.7988 19.7913Q38.7988 19.956 38.7512 20.1055C38.7424 20.133 38.7324 20.1601 38.7212 20.1868C38.6962 20.2466 38.666 20.303 38.6307 20.3559C38.5952 20.4091 38.5546 20.4587 38.5087 20.505C38.462 20.552 38.4117 20.5936 38.3578 20.6299C38.3054 20.6652 38.2496 20.6954 38.1904 20.7206C38.13 20.7463 38.0682 20.7657 38.0052 20.7789C37.9382 20.793 37.8699 20.8 37.7999 20.8L33.9775 20.8C33.5778 27.895 27.895 33.5778 20.8 33.9775L20.8 37.8C20.8 37.8699 20.7931 37.9382 20.7791 38.0052C20.7657 38.0682 20.7463 38.13 20.7207 38.1905C20.6956 38.2497 20.6653 38.3055 20.63 38.3578C20.5938 38.4117 20.552 38.462 20.505 38.5087C20.4587 38.5546 20.4091 38.5953 20.356 38.6308C20.303 38.6661 20.2467 38.6963 20.1869 38.7213C20.127 38.7464 20.0657 38.7654 20.0032 38.7784C19.9369 38.7921 19.8691 38.7989 19.8 38.7989C18.7667 38.7877 17.7478 38.6943 16.7433 38.5188C16.5162 38.4792 16.2899 38.4353 16.0643 38.3872C15.4685 38.2603 14.8817 38.105 14.3038 37.9215C13.724 37.7374 13.1532 37.5248 12.5914 37.2837Q11.9034 36.9884 11.2432 36.6404Q11.2257 36.6311 11.2083 36.6219C10.6039 36.3016 10.0171 35.9482 9.448 35.5615C8.99329 35.2526 8.55371 34.9251 8.12915 34.5791C7.6344 34.1758 7.16016 33.7473 6.70642 33.2936Q6.03222 32.6193 5.43209 31.8845Q5.42655 31.8778 5.42102 31.871C5.07495 31.4465 4.74744 31.0068 4.4386 30.5521C4.05151 29.9824 3.69775 29.395 3.3772 28.79C3.13843 28.3393 2.91821 27.8788 2.71631 27.4086C2.4751 26.8464 2.26233 26.2752 2.07812 25.6949C1.89478 25.1175 1.73975 24.5311 1.61279 23.9358C1.53467 23.5685 1.46753 23.1996 1.4115 22.8291C1.28088 21.9648 1.21082 21.0913 1.20117 20.2087Q1.20117 20.044 1.24878 19.8945C1.25757 19.867 1.26758 19.8399 1.27881 19.8132C1.30383 19.7534 1.33398 19.697 1.36926 19.6441C1.40479 19.5909 1.44543 19.5413 1.49133 19.495C1.53796 19.448 1.58826 19.4064 1.64221 19.3701C1.69458 19.3348 1.75037 19.3046 1.80957 19.2794C1.87 19.2537 1.93176 19.2343 1.99475 19.2211C2.06177 19.207 2.13013 19.2 2.20007 19.2L6.02247 19.2C6.42217 12.105 12.105 6.4222 19.2 6.02248ZM32.3752 20.8L28.9649 20.8C28.5833 25.1322 25.1323 28.5833 20.8 28.9649L20.8 32.3752C21.4652 32.3336 22.1185 32.2399 22.7599 32.094C23.4629 31.9341 24.1516 31.7115 24.8262 31.4262C25.5161 31.1344 26.1694 30.7866 26.7863 30.3828C27.4952 29.9185 28.1559 29.3803 28.7681 28.7681C29.3804 28.1559 29.9186 27.4953 30.3828 26.7862C30.7865 26.1695 31.1344 25.5161 31.4261 24.8261C31.7114 24.1517 31.9341 23.463 32.094 22.76L32.094 22.7599C32.2399 22.1184 32.3336 21.4651 32.3752 20.8ZM28.9649 19.2L32.3752 19.2C32.3336 18.5348 32.2399 17.8815 32.094 17.24C31.9341 16.537 31.7114 15.8483 31.4261 15.1739C31.1344 14.4839 30.7866 13.8306 30.3828 13.2139L30.3828 13.2138C29.9186 12.5047 29.3804 11.8441 28.7681 11.2319C28.1559 10.6197 27.4954 10.0815 26.7863 9.61725L26.7863 9.61722C26.1694 9.21344 25.5161 8.86563 24.8262 8.57379C24.1516 8.28851 23.4629 8.06592 22.7599 7.90598C21.8632 7.702 20.9431 7.60001 20 7.60001C19.0568 7.60001 18.1368 7.702 17.2401 7.90601L17.24 7.90601C16.5371 8.06592 15.8483 8.28851 15.1738 8.57379C14.4839 8.86563 13.8304 9.21344 13.2137 9.61722C12.7245 9.93754 12.2584 10.2931 11.8152 10.6839L14.2267 13.0954C15.7894 11.7874 17.8027 11 20 11C24.701 11 28.5601 14.6042 28.9649 19.2ZM33.9775 19.2L37.1818 19.2C37.1533 18.5769 37.0917 17.959 36.9967 17.3462C36.9475 17.0286 36.8894 16.7124 36.8223 16.3976C36.7064 15.8538 36.5648 15.3181 36.3973 14.7906C36.2288 14.2596 36.0342 13.7369 35.8134 13.2224C35.6316 12.7989 35.4333 12.384 35.2189 11.9778C34.923 11.4177 34.5961 10.8741 34.238 10.347C33.9573 9.93375 33.6597 9.53412 33.3455 9.14813C32.9744 8.69232 32.58 8.25552 32.1622 7.83777C31.7443 7.41983 31.3074 7.0253 30.8514 6.65411C30.4656 6.34 30.066 6.0426 29.653 5.76196C29.126 5.40402 28.5828 5.07721 28.0229 4.78152C27.6165 4.5668 27.2013 4.3685 26.7775 4.18658Q26.0142 3.85894 25.2264 3.60803L25.2262 3.60795Q25.2189 3.60562 25.2115 3.6033C24.6833 3.43558 24.1469 3.2937 23.6023 3.17767C23.145 3.08023 22.6854 3.00168 22.2233 2.94196C21.7513 2.88098 21.277 2.83963 20.7999 2.81796L20.7999 6.02247C27.8949 6.42214 33.5778 12.105 33.9775 19.2ZM19.2001 33.9775C12.1051 33.5779 6.42219 27.895 6.02248 20.8L2.81824 20.8C2.84668 21.4231 2.90833 22.041 3.0033 22.6538C3.05249 22.9714 3.1106 23.2876 3.17773 23.6024C3.29358 24.1462 3.43518 24.6819 3.60266 25.2094C3.77124 25.7404 3.96582 26.2631 4.18665 26.7776C4.36841 27.2011 4.56665 27.616 4.78113 28.0222C5.07703 28.5823 5.40393 29.1259 5.76196 29.653C6.04272 30.0663 6.34033 30.4659 6.65454 30.8519C7.02563 31.3077 7.42004 31.7445 7.83777 32.1622C8.25574 32.5802 8.69263 32.9747 9.14856 33.3459C9.53442 33.66 9.93396 33.9574 10.347 34.238C10.874 34.596 11.4172 34.9228 11.9771 35.2185C12.3835 35.4332 12.7987 35.6315 13.2225 35.8134Q13.986 36.1411 14.7738 36.3921L14.7885 36.3967C15.3167 36.5644 15.8531 36.7063 16.3977 36.8223C16.855 36.9198 17.3146 36.9983 17.7767 37.058C18.2487 37.119 18.723 37.1604 19.2001 37.182L19.2001 33.9775ZM10.6838 11.8152C10.293 12.2583 9.9375 12.7245 9.61719 13.2137C9.2135 13.8305 8.8656 14.4838 8.57385 15.1739C8.28857 15.8483 8.06592 16.537 7.90601 17.24C7.7601 17.8815 7.66635 18.5348 7.62479 19.2L11.0351 19.2C11.2011 17.3155 11.9479 15.5977 13.0954 14.2268L10.6838 11.8152ZM7.62479 20.8C7.66635 21.4652 7.76011 22.1185 7.90601 22.7599C8.06592 23.4629 8.28857 24.1517 8.57385 24.8261C8.8656 25.5161 9.2135 26.1695 9.61719 26.7862C9.74836 26.9866 9.88545 27.1831 10.0284 27.3757L12.4711 24.933C11.6787 23.726 11.1687 22.317 11.0351 20.8L7.62479 20.8ZM11.0668 28.6C11.1213 28.6565 11.1763 28.7125 11.2319 28.7681C11.8441 29.3803 12.5046 29.9185 13.2137 30.3828L13.2137 30.3828C13.8306 30.7866 14.4839 31.1344 15.1738 31.4262C15.8483 31.7115 16.5371 31.9341 17.24 32.094C17.8815 32.2399 18.5348 32.3337 19.2001 32.3752L19.2001 28.9649C16.9511 28.7669 14.9396 27.7416 13.4716 26.1952L11.0668 28.6ZM20.8 12.6419L20.8 16.08C22.6258 16.4507 24 18.0649 24 20C24 21.9351 22.6258 23.5493 20.8 23.92L20.8 27.3581C21.0908 27.3272 21.3777 27.2793 21.6606 27.2144C22.0754 27.1192 22.4819 26.9875 22.8799 26.8191C23.2893 26.646 23.677 26.4398 24.0432 26.2006C24.4689 25.9225 24.8652 25.5999 25.2325 25.2326C25.5999 24.8653 25.9226 24.4688 26.2006 24.0432L26.2007 24.0432C26.4398 23.677 26.646 23.2892 26.8191 22.8799C26.9874 22.4819 27.1193 22.0755 27.2144 21.6607L27.2147 21.6593Q27.4 20.8509 27.4 20C27.4 19.4323 27.3381 18.8787 27.2144 18.3394C27.1193 17.9245 26.9874 17.5181 26.8191 17.1201C26.646 16.7107 26.4398 16.323 26.2006 15.9568C25.9226 15.5312 25.5999 15.1347 25.2325 14.7674C24.8654 14.4001 24.4689 14.0775 24.0433 13.7995C23.6771 13.5602 23.2893 13.354 22.8799 13.1809C22.4819 13.0125 22.0754 12.8807 21.6606 12.7856L21.6605 12.7856C21.3776 12.7207 21.0908 12.6728 20.8 12.6419ZM19.2001 16.08L19.2001 12.6419C18.9093 12.6728 18.6224 12.7207 18.3394 12.7856C17.9246 12.8807 17.5181 13.0125 17.1201 13.1809C16.7107 13.354 16.3229 13.5602 15.9567 13.7995C15.5311 14.0775 15.1346 14.4001 14.7675 14.7674C14.4001 15.1347 14.0775 15.5311 13.7994 15.9567L13.7994 15.9567L13.7963 15.9615L13.7963 15.9615Q13.4394 16.5087 13.1809 17.1201C13.0125 17.5181 12.8807 17.9246 12.7855 18.3394L12.7855 18.3395C12.7206 18.6224 12.6728 18.9093 12.6419 19.2L16.08 19.2C16.3982 17.6327 17.6327 16.3981 19.2001 16.08ZM12.6419 20.8Q12.6882 21.2354 12.7853 21.6592L12.7856 21.6606L12.7856 21.6606C12.8807 22.0754 13.0126 22.4819 13.1809 22.8799C13.354 23.2893 13.5602 23.6771 13.7994 24.0433C14.0775 24.4689 14.4001 24.8653 14.7675 25.2326C15.1346 25.5999 15.5311 25.9225 15.9568 26.2006C16.323 26.4398 16.7107 26.646 17.1201 26.8191C17.5181 26.9875 17.9246 27.1192 18.3394 27.2144C18.6223 27.2793 18.9092 27.3272 19.2001 27.3581L19.2001 23.92C17.6328 23.6019 16.3982 22.3673 16.08 20.8L12.6419 20.8ZM20 17.6C19.8077 17.6 19.6206 17.6218 19.4388 17.6653C19.3121 17.6956 19.188 17.7365 19.0663 17.7879C18.9376 17.8424 18.8154 17.907 18.6997 17.9817C18.5576 18.0735 18.4253 18.1805 18.303 18.3029C18.1805 18.4253 18.0735 18.5576 17.9817 18.6997Q17.8696 18.8732 17.788 19.0663C17.7365 19.1879 17.6956 19.3121 17.6653 19.4388L17.6653 19.4388C17.6217 19.6207 17.6 19.8077 17.6 20C17.6 20.1923 17.6217 20.3793 17.6653 20.5612C17.6956 20.6879 17.7365 20.8121 17.788 20.9337Q17.8696 21.1268 17.9817 21.3003C18.0735 21.4424 18.1805 21.5747 18.303 21.6971C18.4253 21.8194 18.5576 21.9265 18.6997 22.0183Q18.7031 22.0205 18.7065 22.0227Q18.8771 22.132 19.0663 22.2121C19.188 22.2635 19.3121 22.3044 19.4387 22.3347C19.6206 22.3782 19.8077 22.4 20 22.4C20.1923 22.4 20.3794 22.3782 20.5612 22.3347C20.6879 22.3044 20.812 22.2635 20.9337 22.2121C21.0624 22.1576 21.1847 22.093 21.3003 22.0183C21.4424 21.9265 21.5747 21.8194 21.697 21.6971C21.8195 21.5747 21.9265 21.4424 22.0183 21.3003C22.093 21.1846 22.1576 21.0624 22.212 20.9337C22.2635 20.8121 22.3044 20.6879 22.3347 20.5612C22.3783 20.3794 22.4 20.1923 22.4 20C22.4 19.8077 22.3782 19.6206 22.3347 19.4388L22.3347 19.4388C22.3043 19.3121 22.2635 19.1879 22.212 19.0663Q22.1304 18.8732 22.0183 18.6997C21.9265 18.5576 21.8195 18.4253 21.697 18.3029C21.5747 18.1806 21.4424 18.0735 21.3003 17.9817Q21.2969 17.9795 21.2935 17.9773Q21.1229 17.868 20.9337 17.7879C20.8121 17.7365 20.6879 17.6956 20.5613 17.6653L20.5612 17.6653C20.3794 17.6218 20.1923 17.6 20 17.6Z" fill="rgb(128,128,128)" fill-rule="evenodd" />
</svg>
