<?xml version="1.0" encoding="utf-8"?>
<!-- Generator: Adobe Illustrator 26.0.2, SVG Export Plug-In . SVG Version: 6.00 Build 0)  -->
<svg version="1.1" id="图层_1" xmlns="http://www.w3.org/2000/svg" xmlns:xlink="http://www.w3.org/1999/xlink" x="0px" y="0px"
	 viewBox="0 0 48 48" style="enable-background:new 0 0 48 48;" xml:space="preserve">
<style type="text/css">
	.st0{fill-rule:evenodd;clip-rule:evenodd;fill:currentColor;}
</style>
<desc>Created with Pixso.</desc>
<path id="矢量_164" class="st0" d="M33,12c6.6,0,12,5.4,12,12c0,6.6-5.4,12-12,12H15C8.4,36,3,30.6,3,24c0-6.6,5.4-12,12-12H33z
	 M33,13.8c5.6,0,10.2,4.6,10.2,10.2c0,5.6-4.6,10.2-10.2,10.2H15C9.4,34.2,4.8,29.6,4.8,24c0-5.6,4.6-10.2,10.2-10.2H33z M33,17
	c-3.9,0-7,3.1-7,7c0,3.9,3.1,7,7,7c3.9,0,7-3.1,7-7C40,20.1,36.9,17,33,17z"/>
</svg>
