<svg viewBox="0 0 40 40" xmlns="http://www.w3.org/2000/svg" xmlns:xlink="http://www.w3.org/1999/xlink" width="40.000000" height="40.000000" fill="none">
	<rect id="开关" width="40.000000" height="40.000000" x="0.000000" y="0.000000" fill="rgb(255,255,255)" fill-opacity="0" />
	<path id="矢量 527" d="M40 20.0005C40 13.3731 34.6274 8.00049 28 8.00049L12 8.00049C5.37256 8.00049 0 13.3731 0 20.0005C0 26.6279 5.37256 32.0005 12 32.0005L28 32.0005C34.6274 32.0005 40 26.6279 40 20.0005ZM12 9.60049L28 9.60049C28.793 9.60049 29.5664 9.68643 30.3202 9.85832L30.3292 9.86039Q31.2062 10.0612 32.0476 10.4171C32.6255 10.6615 33.1726 10.9527 33.6891 11.2907L33.6892 11.2907C34.2849 11.6805 34.8397 12.1324 35.3539 12.6466C35.8682 13.1608 36.3201 13.7157 36.7098 14.3114C37.0479 14.8279 37.339 15.3751 37.5834 15.9528C37.8219 16.5168 38.0082 17.0926 38.1422 17.6804L38.1423 17.6807Q38.4 18.8112 38.4 20.0005Q38.4 21.189 38.1426 22.3189L38.1422 22.3207C38.0082 22.9084 37.8219 23.4843 37.5834 24.0481C37.339 24.6259 37.0479 25.1729 36.71 25.6894C36.3202 26.2851 35.8682 26.8401 35.3539 27.3544C34.8397 27.8686 34.2847 28.3206 33.6891 28.7104L33.689 28.7104C33.1725 29.0484 32.6254 29.3395 32.0476 29.5839C31.4838 29.8224 30.908 30.0086 30.3202 30.1427C29.5664 30.3145 28.793 30.4005 28 30.4005L12 30.4005C11.207 30.4005 10.4336 30.3145 9.67981 30.1427C9.09204 30.0087 8.51624 29.8224 7.95239 29.5839C7.37463 29.3395 6.82739 29.0483 6.31091 28.7103L6.30526 28.7066Q5.41492 28.1233 4.64612 27.3544C4.13196 26.8402 3.67993 26.2853 3.29016 25.6897L3.29016 25.6896C2.95215 25.173 2.66101 24.6259 2.41663 24.0481Q2.05893 23.2025 1.85789 22.3211L1.85779 22.3207L1.85779 22.3207L1.85773 22.3204Q1.59998 21.1898 1.59998 20.0005Q1.59998 18.8112 1.85773 17.6806L1.85779 17.6803L1.85779 17.6803C1.99182 17.0925 2.1781 16.5167 2.41663 15.9528C2.66101 15.3751 2.95215 14.8279 3.29016 14.3114C3.67993 13.7158 4.13184 13.1608 4.64612 12.6466C5.16028 12.1324 5.71521 11.6804 6.31091 11.2906C6.82751 10.9527 7.37463 10.6615 7.95239 10.4171Q8.79381 10.0612 9.67076 9.86039Q9.67528 9.85935 9.67981 9.85832C10.4336 9.68643 11.207 9.60049 12 9.60049ZM12.4 13C8.53406 13 5.40002 16.134 5.40002 20C5.40002 23.866 8.53406 27 12.4 27C16.266 27 19.4 23.866 19.4 20C19.4 16.134 16.266 13 12.4 13Z" fill="currentColor" fill-rule="evenodd" />
</svg>
