<svg viewBox="0 0 40 40" xmlns="http://www.w3.org/2000/svg" xmlns:xlink="http://www.w3.org/1999/xlink" width="40.000000" height="40.000000" fill="none">
	<rect id="标签页" width="40.000000" height="40.000000" x="0.000000" y="0.000000" fill="rgb(255,255,255)" fill-opacity="0" />
	<path id="矢量 578" d="M31.9 5C33.8602 5 34.8403 5 35.589 5.38148C36.2476 5.71703 36.783 6.25246 37.1185 6.91103C37.5 7.65973 37.5 8.63982 37.5 10.6L37.5 29.4C37.5 31.3602 37.5 32.3403 37.1185 33.089C36.783 33.7475 36.2476 34.283 35.589 34.6185C34.8403 35 33.8602 35 31.9 35L8.09998 35C6.13977 35 5.15967 35 4.41101 34.6185C3.75244 34.283 3.21704 33.7475 2.88147 33.089C2.5 32.3403 2.5 31.3602 2.5 29.4L2.5 10.6C2.5 8.63982 2.5 7.65972 2.88147 6.91103C3.21704 6.25246 3.75244 5.71703 4.41101 5.38148C5.15967 5 6.13977 5 8.09998 5L31.9 5ZM26.464 6.6L26.4628 7.3661L26.4628 14.3345L24.8628 14.3345L24.8628 7.36353L24.864 6.6L8.09998 6.6Q7.19379 6.6 6.82703 6.60577C6.45764 6.61157 6.15918 6.62377 5.93152 6.64237C5.55774 6.67291 5.29297 6.72782 5.13745 6.80709C4.9541 6.90051 4.79321 7.01642 4.65479 7.1548C4.51636 7.29319 4.40051 7.45406 4.30713 7.63742C4.22778 7.79299 4.17285 8.05769 4.14233 8.4315C4.12378 8.65914 4.11157 8.95766 4.10571 9.32707C4.10193 9.57151 4.09998 9.99582 4.09998 10.6L4.09998 29.4C4.09998 30.0042 4.10193 30.4285 4.10571 30.6729C4.11157 31.0423 4.12378 31.3409 4.14233 31.5685Q4.18811 32.1292 4.30713 32.3626C4.40051 32.5459 4.51636 32.7068 4.65479 32.8452L4.65526 32.8457Q4.86274 33.0529 5.13745 33.1929C5.29297 33.2722 5.55774 33.3271 5.93152 33.3576C6.15918 33.3762 6.45764 33.3884 6.82703 33.3942C7.07153 33.3981 7.49585 33.4 8.09998 33.4L31.9 33.4C32.5042 33.4 32.9285 33.3981 33.173 33.3942C33.5424 33.3884 33.8408 33.3762 34.0685 33.3576C34.4423 33.3271 34.707 33.2722 34.8625 33.1929C35.0459 33.0995 35.2068 32.9836 35.3452 32.8452C35.4835 32.7068 35.5995 32.5459 35.6929 32.3626C35.7722 32.207 35.8271 31.9423 35.8577 31.5685C35.8762 31.3409 35.8884 31.0424 35.8943 30.6729C35.8981 30.4283 35.9 30.004 35.9 29.4L35.9 10.6C35.9 9.99602 35.8981 9.57171 35.8943 9.32708C35.8884 8.9576 35.8762 8.65907 35.8577 8.4315Q35.8119 7.87078 35.6929 7.63741C35.5995 7.45407 35.4836 7.2932 35.3452 7.15482C35.2068 7.01643 35.0459 6.90051 34.8625 6.80709C34.707 6.72782 34.4423 6.67291 34.0685 6.64237C33.8408 6.62377 33.5424 6.61157 33.173 6.60577Q32.8062 6.6 31.9 6.6L26.464 6.6Z" fill="currentColor" fill-rule="evenodd" />
	<path id="矢量 139" d="M15.1367 5.89844L15.1367 13.4819C15.1367 14.2551 15.7635 14.8819 16.5367 14.8819L30.6243 14.8819C32.3994 14.8819 34.1219 15.484 35.5104 16.5899L36.5256 17.3984" stroke="currentColor" stroke-width="1.60000002" />
	<path id="矢量 139(边框)" d="M15.9367 13.4819L15.9367 5.89844L14.3367 5.89844L14.3367 13.4819C14.3367 13.7799 14.3944 14.0654 14.5099 14.3385C14.6213 14.6018 14.7783 14.8348 14.981 15.0375C15.1838 15.2402 15.4168 15.3973 15.6801 15.5087C15.9531 15.6241 16.2386 15.6819 16.5367 15.6819L30.6243 15.6819C31.0228 15.6819 31.4157 15.7147 31.803 15.7805C32.1903 15.8462 32.5721 15.9449 32.9483 16.0764C33.7006 16.3394 34.3885 16.7191 35.0119 17.2156L36.0272 18.0242L37.024 16.7727L36.0087 15.9641C35.6262 15.6594 35.2238 15.3905 34.8017 15.1575C34.3796 14.9245 33.9378 14.7273 33.4763 14.566C32.553 14.2432 31.6023 14.0819 30.6243 14.0819L16.5367 14.0819C16.4538 14.0819 16.377 14.0672 16.3063 14.0379C16.2356 14.0087 16.171 13.9647 16.1124 13.9061C16.0538 13.8476 16.0099 13.7829 15.9806 13.7122C15.9513 13.6415 15.9367 13.5647 15.9367 13.4819Z" fill="currentColor" fill-rule="evenodd" />
</svg>
