<svg id="图层_1" data-name="图层 1" xmlns="http://www.w3.org/2000/svg" viewBox="0 0 48 48"><defs><style>.cls-1{fill:currentColor;fill-rule:evenodd;}</style></defs><path id="矢量_200" data-name="矢量 200" class="cls-1" d="M40.81,7.43C39.96,7,38.83,7,36.6,7H11.39c-2.23,0-3.36,0-4.21.43A3.99994,3.99994,0,0,0,5.43,9.18C5,10.03,5,11.16,5,13.4V34.59c0,2.24,0,3.37.43,4.22a3.99994,3.99994,0,0,0,1.75,1.75c.85.44,1.98.44,4.21.44H36.6c2.23,0,3.36,0,4.21-.44a3.99994,3.99994,0,0,0,1.75-1.75c.44-.85.44-1.98.44-4.22V13.4c0-2.24,0-3.37-.44-4.22A3.99994,3.99994,0,0,0,40.81,7.43ZM18.84,8.79v7.34a1.09,1.09,0,0,0,.03.26.84468.84468,0,0,0,.05.17c.03.06.06.11.09.17a1.294,1.294,0,0,0,.33.33c.06.03.11.06.17.09a1.28384,1.28384,0,0,0,.43.08h8.63V8.79Zm-1.8,0v7.34a3.17918,3.17918,0,0,0,.06.62,3.01794,3.01794,0,0,0,.16.51,2.683,2.683,0,0,0,.26.47,2.9999,2.9999,0,0,0,.82.82l.16.1a1.89464,1.89464,0,0,0,.31.15,3.38955,3.38955,0,0,0,.51.17,3.17918,3.17918,0,0,0,.62.06H36.92a7.11155,7.11155,0,0,1,1.14.09,7.217,7.217,0,0,1,1.11.28,8.03382,8.03382,0,0,1,1.05.44,8.15723,8.15723,0,0,1,.96.61l.01.01V35.67a5.66727,5.66727,0,0,1-.23,2.32,2.196,2.196,0,0,1-.96.97,5.5257,5.5257,0,0,1-2.33.24H10.32A5.44579,5.44579,0,0,1,8,38.96a2.218,2.218,0,0,1-.97-.97,5.66727,5.66727,0,0,1-.23-2.32V12.32A5.66727,5.66727,0,0,1,7.03,10,2.27076,2.27076,0,0,1,8,9.03a5.44579,5.44579,0,0,1,2.32-.24Zm24.15,9.53v-6A5.66727,5.66727,0,0,0,40.96,10,2.248,2.248,0,0,0,40,9.03a5.5257,5.5257,0,0,0-2.33-.24h-7.3v8.44h6.55a8.4485,8.4485,0,0,1,1.43.12,8.53784,8.53784,0,0,1,1.39.34,8.898,8.898,0,0,1,1.31.56C41.1,18.27,41.15,18.3,41.19,18.32Z"/></svg>