<svg viewBox="0 0 40 40" xmlns="http://www.w3.org/2000/svg" xmlns:xlink="http://www.w3.org/1999/xlink" width="40.000000" height="40.000000" fill="none">
	<rect id="标签" width="40.000000" height="40.000000" x="0.000000" y="0.000000" fill="rgb(255,255,255)" fill-opacity="0" />
	<path id="矢量 608" d="M4.90234 18.2196L8.37952 5.24234C8.80836 3.64194 10.4534 2.6922 12.0538 3.121L25.0311 6.59827C25.7996 6.8042 26.4549 7.30698 26.8527 7.99603L35.9814 23.8074C36.8099 25.2423 36.3182 27.077 34.8834 27.9055L18.4289 37.4055C16.9939 38.2339 15.1592 37.7423 14.3307 36.3074L5.20203 20.496C4.8042 19.807 4.69641 18.9881 4.90234 18.2196ZM34.5958 24.6074L25.4671 8.79602C25.4207 8.71564 25.3674 8.6412 25.3074 8.57272C25.2474 8.5043 25.1805 8.44183 25.1069 8.38535C25.0332 8.32883 24.9556 8.28043 24.8739 8.24017C24.7923 8.19989 24.7066 8.16776 24.617 8.14374L11.6397 4.6665C11.5265 4.63617 11.4131 4.62003 11.2993 4.6181C11.2282 4.61691 11.1569 4.62128 11.0855 4.63123C11.0075 4.64209 10.9313 4.65924 10.8572 4.68265C10.7605 4.71323 10.6672 4.75446 10.5774 4.80637C10.4874 4.85825 10.4052 4.91843 10.3303 4.98685C10.273 5.03931 10.2201 5.09665 10.1716 5.15884C10.1273 5.2157 10.0879 5.27527 10.0534 5.33752C9.99818 5.43695 9.95533 5.54324 9.92506 5.65643L6.44776 18.6337C6.42383 18.7234 6.40882 18.8136 6.40284 18.9045L6.40284 18.9045C6.39685 18.9953 6.40003 19.0868 6.41211 19.1788C6.4242 19.2708 6.44483 19.3599 6.47412 19.4461C6.50342 19.5323 6.54126 19.6156 6.58765 19.696L15.7163 35.5074C15.7749 35.6089 15.8438 35.7005 15.9229 35.7823C15.9723 35.8334 16.0258 35.8807 16.0833 35.9242C16.1461 35.9717 16.2121 36.0134 16.281 36.0492C16.371 36.096 16.4662 36.1328 16.5664 36.1597C16.6668 36.1865 16.7676 36.2022 16.8689 36.2067C16.9466 36.2101 17.0244 36.207 17.1026 36.1973C17.1742 36.1884 17.2442 36.1742 17.3127 36.1546C17.422 36.1233 17.5274 36.0784 17.6288 36.0198L34.0833 26.5198C34.1848 26.4612 34.2764 26.3924 34.3581 26.3134C34.4094 26.2639 34.4567 26.2104 34.5002 26.1529C34.5477 26.09 34.5893 26.0241 34.6252 25.9551C34.6719 25.8651 34.7088 25.77 34.7357 25.6697C34.7625 25.5695 34.7781 25.4688 34.7827 25.3676L34.7827 25.3674C34.7861 25.2898 34.783 25.2118 34.7733 25.1335C34.7645 25.062 34.7502 24.9921 34.7305 24.9236C34.6993 24.8143 34.6544 24.7089 34.5958 24.6074ZM22.9208 15.182C21.402 12.5514 18.0384 11.6501 15.4077 13.1689C12.7771 14.6877 11.8757 18.0514 13.3946 20.682C14.9134 23.3126 18.2771 24.214 20.9078 22.6952C23.5384 21.1764 24.4396 17.8126 22.9208 15.182ZM15.4867 15.0878C15.7033 14.8847 15.9436 14.707 16.2077 14.5545C16.4717 14.4021 16.7459 14.2828 17.0301 14.1968C17.2395 14.1333 17.4545 14.088 17.6748 14.0606C17.9043 14.0321 18.1327 14.0239 18.36 14.0359C18.6305 14.0502 18.8996 14.0932 19.1671 14.1649C19.4346 14.2366 19.6891 14.3339 19.9306 14.4568C20.1335 14.56 20.3271 14.6813 20.5115 14.8207C20.6888 14.9546 20.8522 15.1013 21.0019 15.261C21.205 15.4776 21.3827 15.718 21.5352 15.982Q21.7639 16.3781 21.893 16.8044C21.9563 17.0138 22.0017 17.2288 22.0291 17.4492C22.0577 17.6787 22.0658 17.907 22.0537 18.1343C22.0395 18.4049 21.9965 18.6739 21.9248 18.9414C21.8532 19.209 21.7559 19.4634 21.633 19.7049C21.5297 19.9078 21.4084 20.1014 21.2691 20.2859C21.1352 20.4631 20.9884 20.6265 20.8288 20.7762C20.6121 20.9793 20.3717 21.157 20.1077 21.3095C19.8437 21.462 19.5695 21.5812 19.2853 21.6673C19.0758 21.7307 18.861 21.7761 18.6405 21.8035C18.411 21.8319 18.1828 21.8402 17.9554 21.8281C17.6848 21.8138 17.4158 21.7708 17.1483 21.6991C16.8808 21.6274 16.6262 21.5302 16.3848 21.4073C16.1819 21.304 15.9883 21.1827 15.8039 21.0434C15.6266 20.9095 15.4632 20.7627 15.3135 20.603C15.1104 20.3864 14.9326 20.1461 14.7802 19.882C14.6277 19.618 14.5084 19.3438 14.4224 19.0597C14.359 18.8502 14.3136 18.6353 14.2863 18.4149C14.2578 18.1854 14.2495 17.9571 14.2616 17.7298C14.2759 17.4592 14.3189 17.1902 14.3905 16.9226C14.4623 16.6551 14.5596 16.4006 14.6824 16.1591L14.6825 16.1591C14.7857 15.9563 14.907 15.7626 15.0464 15.5782C15.1802 15.401 15.3271 15.2376 15.4866 15.0879L15.4867 15.0878Z" fill="currentColor" fill-rule="evenodd" />
</svg>
