<?xml version="1.0" encoding="utf-8"?>
<!-- Generator: Adobe Illustrator 26.0.2, SVG Export Plug-In . SVG Version: 6.00 Build 0)  -->
<svg version="1.1" id="图层_1" xmlns="http://www.w3.org/2000/svg" xmlns:xlink="http://www.w3.org/1999/xlink" x="0px" y="0px"
	 viewBox="0 0 132 132" style="enable-background:new 0 0 132 132;" xml:space="preserve">
<style type="text/css">
	.st0{fill:none;}
	.st1{fill-rule:evenodd;clip-rule:evenodd;fill:currentColor;}
</style>
<rect id="size" class="st0" width="132" height="132"/>
<path id="矢量_29" class="st1" d="M79.1,13.5C76.7,9.4,72.6,7,68,7H53.3l-1.5,0.2l-1.3,0.2c-3.9,1.1-6.9,3.7-8.5,7.3l-3.5,8
	l-1.7,1l-8.7-1l-1.2-0.1c-4.7,0-8.9,2.3-11.2,6.3L8.2,41.7L7.6,43l-0.4,1.2c-1,3.9-0.2,7.8,2.1,11l5.3,7v1.9l-5.3,7l-0.8,1.2
	C6.2,76.4,6.2,81.1,8.4,85l7.4,12.8l0.8,1.1l0.9,1.1c2.8,2.8,6.7,4.1,10.5,3.6l8.7-1.1l1.7,1.1l3.5,8l0.6,1.1
	c2.4,4.1,6.5,6.5,11,6.5h7.3v-8.2h-7.3c-1.6,0-3.4-1.5-4.1-2.9l-3.9-9.1c-0.4-0.8-1-1.5-1.7-2l-4.1-2.3c-0.8-0.5-1.6-0.7-2.6-0.6
	L27,95.5c-1.5,0.2-3.4-1.1-4.3-2.2l-7.3-12.4c-0.8-1.3-0.2-3.6,0.5-5l5.9-7.9c0.5-0.7,0.8-1.6,0.8-2.5v-4.7c0-0.9-0.3-1.7-0.8-2.5
	l-6.1-8.1c-0.9-1.2-0.8-3.5-0.2-4.9L22.8,33c0.8-1.3,3-2.1,4.5-2.1l9.9,1.2c0.9,0.1,1.7-0.1,2.6-0.6l4.1-2.3c0.7-0.5,1.3-1.2,1.7-2
	l4-9.3c0.6-1.3,2.6-2.4,4.1-2.6H68c1.6,0,3.4,1.5,4.1,2.9l3.9,9.1c0.3,0.8,1,1.5,1.7,2l4.1,2.3c0.8,0.5,1.7,0.7,2.6,0.6l10.1-1.2
	c1.5-0.2,3.3,1.1,4.3,2.2l7.3,12.4c0.8,1.3,0.2,3.6-0.5,5l-5.9,7.9c-0.6,0.7-0.8,1.6-0.8,2.5v4.7c0,0.9,0.2,1.8,0.8,2.5l2.6,3.5
	h10.3c-0.1-0.1-0.2-0.2-0.2-0.3l-5.3-7v-1.9l5.3-7l0.8-1.2c2.3-4.1,2.3-8.8,0.1-12.7l-7.4-12.8l-0.8-1.2l-0.9-1.1
	c-2.8-2.8-6.7-4.1-10.5-3.6l-8.7,1l-1.8-1l-3.4-8L79.1,13.5z M82.7,63.2c0,2.9-0.6,5.7-1.6,8.2h-9.5c1.8-2.3,2.9-5.1,2.9-8.2
	c0-7.4-6-13.4-13.4-13.4s-13.3,5.9-13.3,13.4c0,7.3,5.8,13.2,13,13.3v8.2C49.1,84.6,39.6,75,39.6,63.2c0-12,9.7-21.6,21.5-21.6
	C73.1,41.6,82.7,51.3,82.7,63.2z M126.9,83.8c0-2.3-1.9-4.1-4.1-4.1H73.2c-2.3,0-4.1,1.8-4.1,4.1c0,2.2,1.8,4.1,4.1,4.1h49.5
	C125,88,126.9,86.1,126.9,83.8z M122.7,96.2c2.2,0,4.1,1.8,4.1,4.1c0,2.2-1.9,4.1-4.1,4.1H73.2c-2.3,0-4.1-1.9-4.1-4.1
	c0-2.3,1.8-4.1,4.1-4.1H122.7z M126.9,116.8c0-2.3-1.9-4.1-4.1-4.1H73.2c-2.3,0-4.1,1.8-4.1,4.1c0,2.2,1.8,4.1,4.1,4.1h49.5
	C125,121,126.9,119.1,126.9,116.8z"/>
</svg>
