<svg viewBox="0 0 24 24" xmlns="http://www.w3.org/2000/svg" xmlns:xlink="http://www.w3.org/1999/xlink" width="24.000000" height="24.000000" fill="none" customFrame="#000000">
	<g id="组合 3026">
		<rect id="矩形 1" width="24.000004" height="24.000004" x="0.000000" y="0.000000" rx="5.333539" fill="rgb(248,88,53)" />
		<path id="矢量 287" d="M8.8481 7.3924L8.8481 6.35536C8.8481 6.24244 8.85981 6.13205 8.88323 6.0242L8.88323 6.0242C8.90355 5.93103 8.93266 5.83937 8.97058 5.74975C9.0083 5.66063 9.05349 5.57606 9.10609 5.49656C9.16319 5.41048 9.22908 5.32997 9.3037 5.25553C9.37833 5.18059 9.45878 5.11476 9.54498 5.05754C9.62442 5.00539 9.70873 4.95982 9.79798 4.92235C9.8876 4.88437 9.97913 4.8555 10.0726 4.83474C10.1803 4.81145 10.2907 4.7998 10.4037 4.7998L13.5148 4.7998C13.6277 4.7998 13.7381 4.81145 13.8459 4.83474C13.9393 4.8555 14.0308 4.88437 14.1204 4.92235C14.2096 4.95982 14.294 5.00539 14.3734 5.05754C14.4596 5.11476 14.54 5.18059 14.6147 5.25553C14.6893 5.32997 14.7552 5.41048 14.8123 5.49656C14.8649 5.57606 14.9101 5.66063 14.9478 5.74975C14.9858 5.83937 15.0148 5.93103 15.0351 6.0242C15.0585 6.13205 15.0703 6.24244 15.0703 6.35536L15.0703 7.3924L17.3518 7.3924C18.3827 7.3924 19.2185 8.2279 19.2185 9.25886L19.2185 9.98499L4.69995 9.98499L4.69995 9.25886C4.69995 8.2279 5.53571 7.3924 6.56661 7.3924L8.8481 7.3924ZM9.88514 7.3924L14.0333 7.3924L14.0333 6.35536C14.0333 6.28396 14.0206 6.21763 13.9953 6.15636C13.97 6.09509 13.932 6.03939 13.8814 5.98875C13.8308 5.93812 13.7749 5.90014 13.7138 5.87482C13.6527 5.8495 13.5864 5.83684 13.5148 5.83684L10.4037 5.83684C10.3321 5.83684 10.2657 5.8495 10.2046 5.87482C10.1435 5.90014 10.0876 5.93812 10.037 5.98875C9.98641 6.03939 9.94843 6.09509 9.92311 6.15636C9.8978 6.21763 9.88514 6.28396 9.88514 6.35536L9.88514 7.3924ZM19.2185 11.022L4.69995 11.022L4.69995 16.9333C4.69995 17.9643 5.53571 18.7998 6.56661 18.7998L17.3518 18.7998C18.3827 18.7998 19.2185 17.9643 19.2185 16.9333L19.2185 11.022ZM13.5148 15.6887C13.8011 15.6887 14.0333 15.9206 14.0333 16.2072C14.0333 16.4938 13.8011 16.7257 13.5148 16.7257L10.4037 16.7257C10.1173 16.7257 9.88514 16.4938 9.88514 16.2072C9.88514 15.9206 10.1173 15.6887 10.4037 15.6887L13.5148 15.6887Z" fill="rgb(255,255,255)" fill-rule="evenodd" />
	</g>
</svg>
