<svg viewBox="0 0 24 24" xmlns="http://www.w3.org/2000/svg" xmlns:xlink="http://www.w3.org/1999/xlink" width="24.000000" height="24.000000" fill="none" customFrame="#000000">
	<defs>
		<linearGradient id="paint_linear_5" x1="0" x2="23.9999981" y1="0" y2="23.9999981" gradientUnits="userSpaceOnUse">
			<stop stop-color="rgb(173,119,255)" offset="0.00499924878" stop-opacity="1" />
			<stop stop-color="rgb(155,66,238)" offset="0.501534343" stop-opacity="1" />
			<stop stop-color="rgb(166,82,248)" offset="1" stop-opacity="1" />
		</linearGradient>
	</defs>
	<g id="安全与合规_x2F_SSL">
		<path id="矩形备份-19" d="M5.33333 0L18.6667 0C21.6 0 24 2.4 24 5.33333L24 18.6667C24 21.6 21.6 24 18.6667 24L5.33333 24C2.4 24 0 21.6 0 18.6667L0 5.33333C0 2.4 2.4 0 5.33333 0Z" fill="url(#paint_linear_5)" fill-rule="evenodd" />
		<path id="矢量 255" d="M14.5156 7.18C14.5156 6.52903 13.9897 6 13.3427 6L5.67286 6C5.02584 6 4.5 6.52903 4.5 7.18L4.5 13.6523C4.5 14.3032 5.02584 14.8323 5.67286 14.8323L6.62466 14.8323L6.62466 15.8864C6.62466 16.1086 6.74784 16.3112 6.94526 16.4115C7.02932 16.4548 7.12121 16.4764 7.2111 16.4764C7.33227 16.4764 7.45347 16.439 7.55516 16.3643L9.65435 14.8303L13.3427 14.8303C13.9897 14.8303 14.5156 14.3013 14.5156 13.6503L14.5156 7.18ZM15.1861 8.57632L18.3272 8.57632C18.9742 8.57632 19.5 9.10534 19.5 9.7563L19.5 16.2542C19.5 16.9051 18.9742 17.4342 18.3272 17.4342L16.9863 17.4342L16.9863 18.3526C16.9863 18.565 16.8788 18.7675 16.695 18.8737C16.6033 18.9288 16.5016 18.9544 16.3999 18.9544C16.2807 18.9544 16.1615 18.917 16.0598 18.8443L13.9684 17.3496L12.2111 17.3496C11.5641 17.3496 11.0385 16.8205 11.0385 16.1696L11.0385 15.3888L14.4042 15.3888C14.8362 15.3888 15.1861 15.0368 15.1861 14.6022L15.1861 8.57632Z" fill="rgb(255,255,255)" fill-rule="evenodd" />
	</g>
</svg>
