<svg viewBox="0 0 24 24" xmlns="http://www.w3.org/2000/svg" xmlns:xlink="http://www.w3.org/1999/xlink" width="24.000000" height="24.000000" fill="none" customFrame="#000000">
	<g id="应用与中间件_x2F_EG">
		<path id="矩形备份-19" d="M5.33333 0L18.6667 0C21.6 0 24 2.4 24 5.33333L24 18.6667C24 21.6 21.6 24 18.6667 24L5.33333 24C2.4 24 0 21.6 0 18.6667L0 5.33333C0 2.4 2.4 0 5.33333 0Z" fill="rgb(37,194,81)" fill-rule="evenodd" />
		<path id="减去顶层" d="M19.5 12C19.5 7.85786 16.1421 4.5 12 4.5C7.85786 4.5 4.5 7.85786 4.5 12C4.5 16.1421 7.85786 19.5 12 19.5C16.1421 19.5 19.5 16.1421 19.5 12ZM9.53891 14.1318L11.1997 14.1318L11.1997 15.0223C11.2111 15.2677 11.2872 15.4503 11.4277 15.5702C11.5683 15.6901 11.7647 15.75 12.0171 15.75C12.5277 15.75 12.7945 15.5074 12.8174 15.0223L12.8174 14.1147L14.4696 14.1233C14.6188 14.1119 14.7363 14.0562 14.8224 13.9563C14.9085 13.8565 14.9572 13.7323 14.9687 13.5839C14.9572 13.4412 14.9085 13.3185 14.8224 13.2157C14.7363 13.113 14.6188 13.0559 14.4696 13.0445L12.8174 13.0445L12.8174 12.5223L14.461 12.5137C14.6101 12.5023 14.7292 12.4452 14.8181 12.3425C14.907 12.2397 14.9572 12.1142 14.9687 11.9657C14.9572 11.8231 14.9085 11.706 14.8224 11.6147C14.7363 11.5234 14.6188 11.472 14.4696 11.4606L13.2047 11.4606L14.5384 9.30307C14.6532 9.15467 14.7105 8.99772 14.7105 8.8322C14.6933 8.71234 14.6661 8.61528 14.6288 8.5411C14.5915 8.46689 14.5456 8.40982 14.4911 8.36986C14.4366 8.32991 14.3735 8.30137 14.3018 8.28426C14.2301 8.26711 14.1512 8.25569 14.0652 8.25C13.9275 8.26711 13.8041 8.3128 13.6951 8.38698C13.5861 8.46119 13.4972 8.54679 13.4284 8.64385L11.9913 11.0411L10.6834 8.66097C10.6145 8.56394 10.5256 8.47405 10.4166 8.39127C10.3076 8.3085 10.1843 8.26142 10.0466 8.25C9.8114 8.27853 9.65076 8.34276 9.56472 8.44265C9.47867 8.54253 9.4213 8.67239 9.39259 8.8322C9.38687 8.95776 9.40981 9.07333 9.46146 9.17894C9.51307 9.28452 9.56758 9.37159 9.62496 9.44008L10.778 11.4606L9.53891 11.4606C9.384 11.472 9.26496 11.5234 9.18177 11.6147C9.09859 11.706 9.04841 11.8231 9.03119 11.9657C9.04841 12.1142 9.09859 12.2369 9.18177 12.3339C9.26496 12.4309 9.384 12.4851 9.53891 12.4966L11.1997 12.5051L11.1997 13.0445L9.53891 13.0445C9.384 13.0559 9.26496 13.1073 9.18177 13.1986C9.09859 13.29 9.04841 13.407 9.03119 13.5497C9.04841 13.6923 9.09859 13.8222 9.18177 13.9392C9.26496 14.0562 9.384 14.1204 9.53891 14.1318Z" fill="rgb(255,255,255)" fill-rule="evenodd" />
	</g>
</svg>
