<svg viewBox="0 0 24 24" xmlns="http://www.w3.org/2000/svg" xmlns:xlink="http://www.w3.org/1999/xlink" width="24.000000" height="24.000000" fill="none" customFrame="#000000">
	<g id="应用与中间件_x2F_Rabbit-MQ">
		<path id="矩形备份-19" d="M5.33333 0L18.6667 0C21.6 0 24 2.4 24 5.33333L24 18.6667C24 21.6 21.6 24 18.6667 24L5.33333 24C2.4 24 0 21.6 0 18.6667L0 5.33333C0 2.4 2.4 0 5.33333 0Z" fill="rgb(159,83,230)" fill-rule="evenodd" />
		<path id="矢量 284" d="M18.819 17.7068L18.3079 17.7073L18.3079 10.9592C18.3079 10.3728 17.923 9.83471 17.442 9.68823L13.6417 8.46557C13.4974 8.41675 13.353 8.46557 13.2087 8.5144C13.1125 8.61255 13.0163 8.75903 13.0163 8.90552L13.0163 17.7073L12.5353 17.7073L12.5353 5.97192C12.5353 5.58081 12.3909 5.28735 12.1024 5.04272C11.7656 4.79858 11.3326 4.74927 10.8997 4.84741L6.81079 6.02075C6.23352 6.16724 5.8006 6.75415 5.8006 7.38989L5.8006 17.7561L5.28113 17.7561C4.99249 17.7561 4.80005 17.9514 4.80005 18.2449C4.80005 18.5383 4.99249 18.7336 5.28113 18.7336L18.819 18.7336C19.1076 18.7336 19.3 18.5378 19.3 18.2449C19.3 17.9514 19.1076 17.7068 18.819 17.7068ZM10.13 9.39477L8.20581 9.39477C7.91724 9.39477 7.72479 9.59009 7.72479 9.88354C7.72479 10.177 7.91724 10.3728 8.20581 10.3728L10.13 10.3728C10.4186 10.3728 10.6111 10.177 10.6111 9.88354C10.6111 9.59009 10.4186 9.39477 10.13 9.39477ZM8.20581 13.3064L10.13 13.3064C10.4186 13.3064 10.6111 13.5022 10.6111 13.7952C10.6111 14.0886 10.4186 14.2844 10.13 14.2844L8.20581 14.2844C7.91724 14.2844 7.72479 14.0886 7.72479 13.7952C7.72479 13.5022 7.91724 13.3064 8.20581 13.3064ZM16.1431 13.3064L15.181 13.3064C14.8925 13.3064 14.7 13.5022 14.7 13.7952C14.7 14.0886 14.8925 14.2844 15.181 14.2844L16.1431 14.2844C16.4317 14.2844 16.6241 14.0886 16.6241 13.7952C16.6241 13.5022 16.4317 13.3064 16.1431 13.3064Z" fill="rgb(255,255,255)" fill-rule="evenodd" />
	</g>
</svg>
