<svg viewBox="0 0 24 24" xmlns="http://www.w3.org/2000/svg" xmlns:xlink="http://www.w3.org/1999/xlink" width="24.000000" height="24.000000" fill="none" customFrame="#000000">
	<defs>
		<linearGradient id="paint_linear_1" x1="12.0000019" x2="12.0000019" y1="0" y2="24.0000038" gradientUnits="userSpaceOnUse">
			<stop stop-color="rgb(255,173,4)" offset="0" stop-opacity="1" />
			<stop stop-color="rgb(250,197,50)" offset="1" stop-opacity="1" />
		</linearGradient>
	</defs>
	<g id="组合 3024">
		<rect id="矩形 1" width="24.000004" height="24.000004" x="0.000000" y="0.000000" rx="5.333539" fill="url(#paint_linear_1)" />
		<path id="矢量 282" d="M5.50858 7.45084L11.4421 5.20359C11.801 5.0656 12.1992 5.0656 12.5579 5.20359L18.4914 7.45084C19.1695 7.70711 19.1695 8.66906 18.4914 8.92536L15.4076 10.0953L12.5579 11.1766C12.4682 11.2101 12.3761 11.2352 12.2826 11.252C12.182 11.27 12.08 11.2783 11.978 11.2769C11.7962 11.2744 11.6146 11.241 11.4421 11.1766L8.59239 10.0953L5.50858 8.92536C4.83047 8.66906 4.83047 7.70711 5.50858 7.45084ZM11.1622 11.9138L7.47985 10.5167L5.50858 11.2633C4.83047 11.5235 4.83047 12.4815 5.50858 12.7417L8.59239 13.9097L8.78857 13.984L11.4421 14.989C11.5318 15.0235 11.624 15.0493 11.7174 15.0666C11.8714 15.095 12.0288 15.1 12.1839 15.0816C12.3111 15.0665 12.4367 15.0356 12.5579 14.989L18.4914 12.7417C19.1695 12.4815 19.1695 11.5235 18.4914 11.2633L16.5202 10.5167L12.8378 11.9138C12.7038 11.9637 12.5672 12.0019 12.4278 12.0281C12.286 12.0544 12.1427 12.0676 11.9982 12.0676C11.8562 12.0676 11.7142 12.0544 11.5722 12.0281C11.433 12.0019 11.2963 11.9637 11.1622 11.9138ZM11.5722 15.8406C11.433 15.8143 11.2963 15.7762 11.1622 15.7262L7.48017 14.3317L5.50858 15.0797C4.83047 15.3359 4.83047 16.2979 5.50858 16.5542L11.4421 18.8014C11.801 18.9394 12.1992 18.9394 12.5579 18.8014L18.4914 16.5542C19.1695 16.2979 19.1695 15.3359 18.4914 15.0797L16.52 14.3317L12.8378 15.7262C12.7038 15.7762 12.5672 15.8143 12.4278 15.8406C12.286 15.8669 12.1427 15.88 11.9982 15.88C11.8562 15.88 11.7142 15.8669 11.5722 15.8406Z" fill="rgb(255,255,255)" fill-rule="evenodd" />
	</g>
</svg>
