<svg viewBox="0 0 24 24" xmlns="http://www.w3.org/2000/svg" xmlns:xlink="http://www.w3.org/1999/xlink" width="24.000000" height="24.000000" fill="none" customFrame="#000000">
	<g id="安全与合规_x2F_SSL">
		<path id="矩形备份-19" d="M5.33333 0L18.6667 0C21.6 0 24 2.4 24 5.33333L24 18.6667C24 21.6 21.6 24 18.6667 24L5.33333 24C2.4 24 0 21.6 0 18.6667L0 5.33333C0 2.4 2.4 0 5.33333 0Z" fill="rgb(0,196,190)" fill-rule="evenodd" />
		<path id="减去顶层" d="M16.6 6C17.9255 6 19 7.07452 19 8.4L19 15.6C19 16.9255 17.9255 18 16.6 18L7.4 18C6.07452 18 5 16.9255 5 15.6L5 8.4C5 7.07452 6.07452 6 7.4 6L16.6 6ZM12 7.7C12.5523 7.7 13 8.14771 13 8.7C13 9.25229 12.5523 9.7 12 9.7C11.4477 9.7 11 9.25229 11 8.7C11 8.14771 11.4477 7.7 12 7.7ZM15 15.4C15 15.0686 14.7314 14.8 14.4 14.8L9.6 14.8C9.26863 14.8 9 15.0686 9 15.4C9 15.7314 9.26863 16 9.6 16L14.4 16C14.7314 16 15 15.7314 15 15.4Z" fill="rgb(255,255,255)" fill-rule="evenodd" />
	</g>
</svg>
