<svg viewBox="0 0 24 24" xmlns="http://www.w3.org/2000/svg" xmlns:xlink="http://www.w3.org/1999/xlink" width="24.000000" height="24.000000" fill="none" customFrame="#000000">
	<defs>
		<linearGradient id="paint_linear_7" x1="0.87594986" x2="22.7671604" y1="0.423455238" y2="22.770771" gradientUnits="userSpaceOnUse">
			<stop stop-color="rgb(255,115,45)" offset="0" stop-opacity="1" />
			<stop stop-color="rgb(232,53,17)" offset="0.500638545" stop-opacity="1" />
			<stop stop-color="rgb(246,66,30)" offset="1" stop-opacity="1" />
		</linearGradient>
	</defs>
	<g id="组合 3029">
		<path id="矩形备份-15" d="M5.33333 0L18.6667 0C21.6133 0 24 2.38667 24 5.33333L24 18.6667C24 21.6133 21.6133 24 18.6667 24L5.33333 24C2.38667 24 0 21.6133 0 18.6667L0 5.33333C0 2.38667 2.38667 0 5.33333 0Z" fill="url(#paint_linear_7)" fill-rule="evenodd" />
		<path id="矢量 256" d="M14.5792 13.8423L14.5792 12.7368L17.895 12.7368L17.895 6.47363C17.895 5.65967 17.2355 5 16.4213 5L11.2632 5C10.4491 5 9.78961 5.65967 9.78961 6.47363L9.78961 14.2104L14.2108 14.2104C14.4133 14.2104 14.5792 14.0449 14.5792 13.8423ZM8.6839 7.21045L8.6839 12.7368L6.10504 12.7368L6.10504 8.68408C6.10504 7.87012 6.76453 7.21045 7.57867 7.21045L8.6839 7.21045ZM11.8161 7.21045L15.8687 7.21045C16.1745 7.21045 16.4213 7.45752 16.4213 7.76318C16.4213 8.06885 16.1745 8.31592 15.8687 8.31592L11.8161 8.31592C11.5102 8.31592 11.2634 8.06885 11.2634 7.76318C11.2634 7.45752 11.5102 7.21045 11.8161 7.21045ZM11.2634 9.97363C11.2634 9.66797 11.5102 9.4209 11.8161 9.4209L15.8687 9.4209C16.1745 9.4209 16.4213 9.66797 16.4213 9.97363C16.4213 10.2793 16.1745 10.5264 15.8687 10.5264L11.8161 10.5264C11.5102 10.5264 11.2634 10.2793 11.2634 9.97363ZM15.6843 13.8423L19 13.8423L19 17.5264C19 18.3403 18.3405 19 17.5264 19L6.47363 19C5.65948 19 5 18.3403 5 17.5264L5 13.8423L8.31573 13.8423C8.31573 13.938 8.3269 14.0298 8.34534 14.126C8.35626 14.1846 8.37848 14.2437 8.39679 14.3027C8.40411 14.3286 8.4079 14.3506 8.41901 14.3765C8.45215 14.4502 8.48889 14.5234 8.52942 14.5938C8.57367 14.6675 8.62903 14.7446 8.68427 14.8076C8.95319 15.1167 9.34729 15.3159 9.78943 15.3159L14.2106 15.3159C15.0247 15.3159 15.6843 14.6562 15.6843 13.8423Z" fill="rgb(255,255,255)" fill-rule="evenodd" />
	</g>
</svg>
