<svg viewBox="0 0 24 24" xmlns="http://www.w3.org/2000/svg" xmlns:xlink="http://www.w3.org/1999/xlink" width="24.000000" height="24.000000" fill="none" customFrame="#000000">
	<g id="安全与合规_x2F_AAD">
		<path id="矩形备份-19" d="M5.33333 0L18.6667 0C21.6 0 24 2.4 24 5.33333L24 18.6667C24 21.6 21.6 24 18.6667 24L5.33333 24C2.4 24 0 21.6 0 18.6667L0 5.33333C0 2.4 2.4 0 5.33333 0Z" fill="rgb(0,171,237)" fill-rule="evenodd" />
		<path id="矢量 147" d="M7.89656 5C9.09627 5 10.0689 6.00736 10.0689 7.25001C10.0689 8.49263 9.09627 9.50001 7.89656 9.50001C6.69669 9.50001 5.72405 8.49263 5.72405 7.25001C5.72405 6.00736 6.69669 5 7.89656 5ZM18.2758 7.25001C18.2758 6.00736 17.3031 5 16.1034 5C14.9036 5 13.931 6.00736 13.931 7.25001C13.931 8.49263 14.9036 9.50001 16.1034 9.50001C17.3031 9.50001 18.2758 8.49263 18.2758 7.25001ZM10.6856 11.3404C10.4225 10.5599 9.70537 9.99998 8.86209 9.99998L6.93103 9.99998C5.86463 9.99998 5 10.8954 5 12L5 18.5C5 18.7761 5.21616 19 5.48276 19L10.3103 19C10.5769 19 10.7931 18.7761 10.7931 18.5L10.7931 14.7655L11.2347 15.3597L11.2687 15.4031C11.6642 15.8797 12.3899 15.8652 12.7653 15.3596L13.2069 14.7647L13.2069 18.5C13.2069 18.7761 13.4231 19 13.6897 19L18.5172 19C18.7838 19 19 18.7761 19 18.5L19 12C19 10.8954 18.1354 9.99998 17.069 9.99998L15.1379 9.99998C14.2955 9.99998 13.5788 10.5588 13.3151 11.3381L11.9997 13.1097L10.6856 11.3404Z" fill="rgb(255,255,255)" fill-rule="evenodd" />
	</g>
</svg>
