<svg viewBox="0 0 24 24" xmlns="http://www.w3.org/2000/svg" xmlns:xlink="http://www.w3.org/1999/xlink" width="24.000000" height="24.000000" fill="none" customFrame="#000000">
	<g id="存储_x2F_SFS">
		<path id="矩形备份-19" d="M5.33333 0L18.6667 0C21.6 0 24 2.4 24 5.33333L24 18.6667C24 21.6 21.6 24 18.6667 24L5.33333 24C2.4 24 0 21.6 0 18.6667L0 5.33333C0 2.4 2.4 0 5.33333 0Z" fill="rgb(255,154,46)" fill-rule="evenodd" />
		<path id="减去顶层" d="M5.19995 6.06657C5.19995 5.69838 5.52985 5.3999 5.93679 5.3999L10.0598 5.3999C10.2486 5.3999 10.4277 5.4758 10.5487 5.60707L12.0091 7.19274C12.13 7.324 12.3092 7.3999 12.498 7.3999L18.4631 7.3999C18.8701 7.3999 19.2 7.69836 19.2 8.06658L19.2 17.7332C19.2 18.1014 18.8701 18.3999 18.4631 18.3999L5.93679 18.3999C5.52985 18.3999 5.19995 18.1014 5.19995 17.7332L5.19995 6.06657ZM8.67412 12.2913C8.2259 12.2913 7.89995 11.9984 7.89995 11.5956C7.89995 11.2295 8.2259 10.8999 8.67412 10.8999C9.12234 10.8999 9.44829 11.2295 9.44829 11.5956C9.44829 11.9618 9.12234 12.2913 8.67412 12.2913ZM16.2525 12.2547L11.3633 12.2547C10.9558 12.2547 10.6298 11.9618 10.6298 11.5956C10.6298 11.2295 10.9558 10.9365 11.3633 10.9365L16.2525 10.9365C16.6601 10.9365 16.986 11.2295 16.986 11.5956C16.986 11.9618 16.6601 12.2547 16.2525 12.2547ZM7.89995 14.1954C7.89995 14.5982 8.2259 14.8911 8.67412 14.8911C9.12234 14.8911 9.44829 14.5616 9.44829 14.1954C9.44829 13.8292 9.12234 13.4997 8.67412 13.4997C8.2259 13.4997 7.89995 13.7926 7.89995 14.1954ZM16.2525 14.8545L11.3633 14.8545C10.9558 14.8545 10.6298 14.5616 10.6298 14.1954C10.6298 13.8292 10.9558 13.5363 11.3633 13.5363L16.2525 13.5363C16.6601 13.5363 16.986 13.8292 16.986 14.1954C16.986 14.5616 16.6601 14.8545 16.2525 14.8545Z" fill="rgb(255,255,255)" fill-rule="evenodd" />
	</g>
</svg>
