<svg viewBox="0 0 24 24" xmlns="http://www.w3.org/2000/svg" xmlns:xlink="http://www.w3.org/1999/xlink" width="24.000000" height="24.000000" fill="none" customFrame="#000000">
	<defs>
		<linearGradient id="paint_linear_4" x1="0" x2="23.9999981" y1="0" y2="23.9999981" gradientUnits="userSpaceOnUse">
			<stop stop-color="rgb(255,161,60)" offset="0.00499924878" stop-opacity="1" />
			<stop stop-color="rgb(255,132,0)" offset="0.501534343" stop-opacity="1" />
			<stop stop-color="rgb(255,146,30)" offset="1" stop-opacity="1" />
		</linearGradient>
	</defs>
	<g id="组合 3024">
		<rect id="矩形 1" width="24.000004" height="24.000004" x="0.000000" y="0.000000" rx="4.848974" fill="url(#paint_linear_4)" />
		<path id="合并" d="M7.49837 9.55233C7.46239 9.53869 7.41793 9.52505 7.38406 9.5114C6.43145 9.12555 5.77944 8.62082 5.50212 8.05567C5.50212 8.05567 5.51694 7.70489 5.51694 7.64643C5.51694 6.18485 8.41712 5 11.9926 5C15.5681 5 18.4704 6.18485 18.4704 7.64643L18.4704 7.69125C18.4809 7.74192 18.5 8.09855 18.5 8.09855C17.8776 9.34966 15.2315 10.2948 12.0265 10.2948L11.9905 10.2948C11.9376 10.2948 11.8867 10.2909 11.8359 10.2909C11.6856 10.289 11.5375 10.287 11.3893 10.2812C11.2538 10.2753 11.1183 10.2656 10.9849 10.2578C10.9235 10.2539 10.86 10.2519 10.7987 10.2461C10.6505 10.2363 10.5044 10.2208 10.3583 10.2052L10.225 10.1915C10.0747 10.174 9.9286 10.1545 9.78253 10.1331C9.74443 10.1272 9.70632 10.1214 9.67033 10.1155C9.52638 10.0921 9.38455 10.0668 9.2406 10.0395C9.20673 10.0337 9.17074 10.0278 9.13687 10.02C8.99927 9.9908 8.86379 9.96157 8.73254 9.93039C8.69232 9.92064 8.65421 9.9109 8.61611 9.90116C8.49333 9.87193 8.37055 9.8388 8.25412 9.80567C8.19908 9.79008 8.14615 9.77254 8.09323 9.75695C7.99797 9.72772 7.89847 9.69654 7.80745 9.66536C7.70372 9.63028 7.59999 9.5913 7.49837 9.55233ZM5.50212 8.78452C6.05464 10.0551 8.77064 11.0198 12.0095 11.0198C15.2145 11.0198 17.8776 10.0765 18.5 8.82544L18.5 10.8132C17.9475 12.0916 15.2378 13.064 11.9862 13.064C8.79181 13.064 6.1245 12.1267 5.50212 10.8814L5.50212 8.78452ZM5.5 11.6102C6.12237 12.8555 8.79181 13.7929 11.9841 13.7929C15.2357 13.7929 17.9454 12.8204 18.4979 11.544L18.4979 13.5571C17.9454 14.8354 15.2357 15.8079 11.9841 15.8079C8.78969 15.8079 6.12237 14.8705 5.5 13.6253L5.5 11.6102ZM11.9841 16.5368C8.79181 16.5368 6.12237 15.5994 5.5 14.3541L5.5 16.1567C5.5 16.1996 5.50847 16.2405 5.50847 16.2834C5.50847 17.784 8.41711 19 11.9968 19C15.5744 19 18.4915 17.784 18.4915 16.2834C18.4915 16.2405 18.4979 16.1977 18.4979 16.1567L18.4979 14.2859C17.9454 15.5663 15.2357 16.5368 11.9841 16.5368Z" fill="rgb(255,255,255)" fill-rule="evenodd" />
	</g>
</svg>
