<svg viewBox="0 0 24 24" xmlns="http://www.w3.org/2000/svg" xmlns:xlink="http://www.w3.org/1999/xlink" width="24.000000" height="24.000000" fill="none" customFrame="#000000">
	<defs>
		<linearGradient id="paint_linear_6" x1="0" x2="23.9999981" y1="0" y2="23.9999981" gradientUnits="userSpaceOnUse">
			<stop stop-color="rgb(19,188,255)" offset="0.00499924878" stop-opacity="1" />
			<stop stop-color="rgb(0,154,220)" offset="0.501534343" stop-opacity="1" />
			<stop stop-color="rgb(15,167,227)" offset="1" stop-opacity="1" />
		</linearGradient>
	</defs>
	<g id="安全与合规_x2F_AAD">
		<path id="矩形备份-19" d="M5.33333 0L18.6667 0C21.6 0 24 2.4 24 5.33333L24 18.6667C24 21.6 21.6 24 18.6667 24L5.33333 24C2.4 24 0 21.6 0 18.6667L0 5.33333C0 2.4 2.4 0 5.33333 0Z" fill="url(#paint_linear_6)" fill-rule="evenodd" />
		<path id="矢量 198" d="M11.5266 7.50969L16.7206 7.50969L14.8331 5.6199C14.6155 5.40203 14.3767 5.29547 14.1165 5.3002C14.0611 5.30121 14.0066 5.30706 13.9531 5.31775C13.7555 5.35721 13.5711 5.46267 13.3998 5.63411L11.5266 7.50969ZM17.785 7.96438C18.0498 7.96438 18.2556 7.99989 18.4022 8.07094C18.5488 8.14199 18.653 8.22962 18.7144 8.33383C18.7759 8.438 18.8043 8.5493 18.7995 8.66773C18.7949 8.78612 18.7783 8.88797 18.7499 8.97321C18.7216 9.05845 18.66 9.23371 18.5654 9.49895C18.4708 9.76418 18.3691 10.0554 18.2603 10.3728C18.1515 10.6901 18.0427 11.0051 17.9339 11.3177C17.8251 11.6303 17.7376 11.8766 17.6714 12.0566C17.5484 12.4355 17.3947 12.6983 17.2102 12.8451C17.0257 12.992 16.7963 13.0654 16.5219 13.0654L9.07159 13.0654L9.27023 14.3442L16.4368 14.3442C16.699 14.3442 16.8855 14.409 16.9964 14.5385C17.0774 14.6333 17.1179 14.7627 17.1179 14.9268C17.1179 15.1162 17.073 15.2796 16.9831 15.417C16.8885 15.5375 16.699 15.623 16.4509 15.623L9.01479 15.623C8.82557 15.623 8.66711 15.5804 8.53939 15.4951C8.41167 15.4099 8.30527 15.2986 8.22013 15.1612C8.13498 15.0239 8.06638 14.8747 8.01436 14.7136C7.96231 14.5526 7.92206 14.401 7.89371 14.259C7.88422 14.2021 7.8582 14.0648 7.81562 13.8469C7.77308 13.629 7.72103 13.3567 7.65959 13.0299C7.59805 12.7031 7.52945 12.3384 7.45379 11.9358C7.37812 11.5332 7.3024 11.1282 7.22673 10.7209C7.04698 9.76418 6.84353 8.69849 6.61655 7.5239L5.55216 7.5239C5.42142 7.5239 5.31073 7.49374 5.22015 7.43341C5.16484 7.39186 5.09236 7.32936 5.0484 7.27807C5.01717 7.24169 4.98874 7.20285 4.96326 7.16157C4.92885 7.10594 4.90041 7.04809 4.87781 6.98802C4.86002 6.94068 4.84596 6.89196 4.83555 6.84187C4.81186 6.7282 4.80005 6.624 4.80005 6.52927C4.80005 6.41435 4.82351 6.31163 4.87051 6.22111C4.90103 6.1624 4.94135 6.10882 4.99161 6.06038C5.01189 6.04085 5.03325 6.02287 5.05578 6.00644C5.17525 5.91926 5.32649 5.87566 5.50959 5.87566L6.94289 5.87566C7.13212 5.87566 7.28352 5.90408 7.39702 5.96092C7.51058 6.01775 7.60047 6.0888 7.66665 6.17405C7.7329 6.2593 7.78021 6.3493 7.80856 6.44402C7.83691 6.53875 7.86061 6.61927 7.87948 6.68557C7.89845 6.76135 7.91741 6.86792 7.93628 7.00528C7.95524 7.14263 7.97411 7.28235 7.99307 7.42444C8.02142 7.59494 8.04984 7.77494 8.07819 7.96438L17.785 7.96438ZM9.49728 16.0066C9.62592 16.0066 9.7496 16.0236 9.86851 16.0575C9.91576 16.071 9.96243 16.0873 10.0082 16.1061C10.169 16.1724 10.3086 16.2648 10.4268 16.3832C10.5451 16.5016 10.6397 16.6413 10.7107 16.8023C10.7816 16.9634 10.8171 17.1339 10.8171 17.3139C10.8171 17.4939 10.7816 17.6643 10.7107 17.8254C10.6397 17.9864 10.5451 18.1261 10.4268 18.2445C10.3086 18.363 10.169 18.4577 10.0082 18.5287C9.84738 18.5998 9.67702 18.6353 9.49728 18.6353C9.30812 18.6353 9.13303 18.5998 8.97222 18.5287C8.83413 18.4677 8.71175 18.3893 8.60503 18.2934C8.58747 18.2776 8.57032 18.2613 8.55362 18.2445C8.43528 18.1261 8.34075 17.9864 8.26977 17.8254C8.19884 17.6643 8.16333 17.4939 8.16333 17.3139C8.16333 17.1339 8.19884 16.9634 8.26977 16.8023C8.34075 16.6413 8.43528 16.5016 8.55362 16.3832C8.58321 16.3535 8.6142 16.3255 8.64643 16.2991C8.74306 16.2201 8.85166 16.1558 8.97222 16.1061C9.13303 16.0398 9.30812 16.0066 9.49728 16.0066ZM15.6934 16.0657C15.5981 16.0453 15.5005 16.035 15.4008 16.035C15.2723 16.035 15.1487 16.052 15.03 16.0859C14.9834 16.0992 14.9351 16.1159 14.8899 16.1345C14.7291 16.2008 14.5895 16.2932 14.4713 16.4116C14.3531 16.53 14.2584 16.6697 14.1875 16.8308C14.1165 16.9918 14.081 17.1623 14.081 17.3423C14.081 17.5223 14.1165 17.6928 14.1875 17.8538C14.2584 18.0148 14.3531 18.1546 14.4713 18.273C14.5895 18.3914 14.7291 18.4861 14.8899 18.5572C15.0508 18.6282 15.2211 18.6637 15.4008 18.6637C15.5806 18.6637 15.7532 18.6282 15.9188 18.5572C16.0843 18.4861 16.2263 18.3914 16.3445 18.273C16.4628 18.1546 16.5573 18.0148 16.6284 17.8538C16.6993 17.6928 16.7348 17.5223 16.7348 17.3423C16.7348 17.1623 16.6993 16.9918 16.6284 16.8308C16.5573 16.6697 16.4628 16.53 16.3445 16.4116C16.2263 16.2932 16.0843 16.2008 15.9188 16.1345C15.8451 16.105 15.77 16.082 15.6934 16.0657Z" fill="rgb(255,255,255)" fill-rule="evenodd" />
	</g>
</svg>
