<svg viewBox="0 0 24 24" xmlns="http://www.w3.org/2000/svg" xmlns:xlink="http://www.w3.org/1999/xlink" width="24.000000" height="24.000000" fill="none" customFrame="#000000">
	<g id="数据库_x2F_RDS-for-MySQL">
		<path id="矩形备份-19" d="M5.33333 0L18.6667 0C21.6 0 24 2.4 24 5.33333L24 18.6667C24 21.6 21.6 24 18.6667 24L5.33333 24C2.4 24 0 21.6 0 18.6667L0 5.33333C0 2.4 2.4 0 5.33333 0Z" fill="rgb(20,118,255)" fill-rule="evenodd" />
		<path id="矢量 213" d="M17.8554 8.25073L12.099 11.6202C12.0777 11.6327 12.0562 11.639 12.0348 11.639C12.0105 11.639 11.989 11.6327 11.9707 11.6202L6.2265 8.25696C6.22046 8.25385 6.19293 8.22886 6.18973 8.22571C6.18654 8.21947 6.16841 8.18822 6.16841 8.18196L6.16539 8.13509C6.16539 8.12883 6.17764 8.09445 6.18067 8.08819C6.18369 8.08508 6.22029 8.04755 6.2265 8.04444L11.0246 5.26881C11.1008 5.22505 11.1802 5.18754 11.2627 5.15316C11.3451 5.11878 11.4274 5.09065 11.5128 5.06876C11.5985 5.04689 11.6839 5.03126 11.7724 5.01875C11.8579 5.00625 11.9464 5 12.0348 5C12.1203 5 12.2088 5.00625 12.2973 5.01875C12.3859 5.02813 12.4714 5.04689 12.5569 5.06876C12.6423 5.09065 12.7247 5.11878 12.807 5.15316C12.8894 5.18441 12.9689 5.22505 13.0451 5.26881L17.8434 8.04755C17.8494 8.05067 17.8769 8.0757 17.8799 8.07881C17.883 8.08508 17.9013 8.11633 17.9013 8.12256L17.9043 8.16946C17.9043 8.17572 17.8585 8.24446 17.8554 8.25073ZM5.68922 9.11029C5.67092 9.0978 5.6496 9.09465 5.62509 9.09465C5.60376 9.09465 5.58244 9.10091 5.56111 9.11029C5.55323 9.11831 5.52149 9.1475 5.51528 9.1572C5.50302 9.17592 5.5 9.19779 5.5 9.2197L5.5 14.6553C5.5 14.7209 5.50302 14.7866 5.51226 14.8491C5.52132 14.9147 5.53358 14.9772 5.55188 15.0398C5.57018 15.1023 5.58848 15.1648 5.61602 15.2242C5.64036 15.2836 5.67092 15.3429 5.70148 15.3992C5.73506 15.4554 5.77166 15.5086 5.81129 15.5617C5.85108 15.6149 5.89373 15.6618 5.93956 15.7086C5.98523 15.7555 6.03409 15.7993 6.08597 15.8368C6.13785 15.8774 6.19293 15.9118 6.24783 15.9462L11.3419 18.9844C11.3481 18.9844 11.3817 19 11.3878 19C11.3938 19 11.4306 18.9969 11.4336 18.9969C11.4396 18.9937 11.4732 18.9781 11.4762 18.975C11.4793 18.9687 11.516 18.9312 11.516 18.925L11.5251 12.5736C11.5251 12.5517 11.5191 12.5298 11.5068 12.511C11.4945 12.4923 11.4794 12.4767 11.4609 12.4642L5.68922 9.11029ZM12.5385 18.8937L12.5385 12.5955C12.5385 12.5736 12.5446 12.5517 12.5538 12.5329C12.5659 12.511 12.5812 12.4985 12.5995 12.486L18.3835 9.11341C18.3865 9.11341 18.4233 9.0978 18.4293 9.0978C18.4354 9.0978 18.4689 9.10091 18.4752 9.10091C18.4784 9.10403 18.5148 9.11967 18.5178 9.12279C18.5208 9.12906 18.5544 9.16654 18.5574 9.1728L18.5667 14.6553C18.5667 14.7209 18.5636 14.7834 18.5544 14.8491C18.5453 14.9116 18.5331 14.9772 18.5148 15.0398C18.4965 15.1023 18.4752 15.1648 18.4506 15.2242C18.4263 15.2836 18.3988 15.3429 18.3652 15.3992C18.3316 15.4554 18.295 15.5086 18.2554 15.5617C18.2156 15.6149 18.1729 15.6618 18.1271 15.7086C18.0814 15.7555 18.0326 15.7962 17.9807 15.8368C17.9288 15.8774 17.8769 15.9149 17.8188 15.9462L12.7216 18.9844C12.7184 18.9844 12.6819 19 12.6759 19C12.6699 19 12.6361 18.9969 12.6301 18.9969C12.627 18.9937 12.5904 18.9781 12.5872 18.975C12.5841 18.9687 12.5416 18.9 12.5385 18.8937Z" fill="rgb(255,255,255)" fill-rule="evenodd" />
	</g>
</svg>
