<svg viewBox="0 0 24 24" xmlns="http://www.w3.org/2000/svg" xmlns:xlink="http://www.w3.org/1999/xlink" width="24.000000" height="24.000000" fill="none" customFrame="#000000">
	<defs>
		<linearGradient id="paint_linear_2" x1="12.0000019" x2="12.0000019" y1="0" y2="24.0000038" gradientUnits="userSpaceOnUse">
			<stop stop-color="rgb(108,205,6)" offset="0" stop-opacity="1" />
			<stop stop-color="rgb(158,219,88)" offset="1" stop-opacity="1" />
		</linearGradient>
	</defs>
	<g id="安全与合规_x2F_AAD">
		<path id="矩形备份-19" d="M5.33333 0L18.6667 0C21.6 0 24 2.4 24 5.33333L24 18.6667C24 21.6 21.6 24 18.6667 24L5.33333 24C2.4 24 0 21.6 0 18.6667L0 5.33333C0 2.4 2.4 0 5.33333 0Z" fill="url(#paint_linear_2)" fill-rule="evenodd" />
		<path id="矢量 288" d="M10.3214 4.7998C9.90186 4.7998 9.48236 5.23047 9.48236 5.66113L9.48236 17.9385C9.48236 18.3691 9.90186 18.7998 10.3214 18.7998L13.6774 18.7998C14.0968 18.7998 14.5163 18.3691 14.5163 17.9385L14.5163 5.66113C14.5163 5.23047 14.0968 4.7998 13.6774 4.7998L10.3214 4.7998ZM18.1611 8.46143L16.0635 8.46143C15.644 8.46143 15.2245 8.89209 15.2245 9.32275L15.2245 17.938C15.2245 18.4766 15.644 18.7998 16.0635 18.7998L18.1611 18.7998C18.5805 18.7998 19 18.3691 19 17.938L19 9.32275C19 8.89209 18.5805 8.46143 18.1611 8.46143ZM12.6 10.7837L11.4 10.7837C11.1791 10.7837 11 10.605 11 10.3838L11 10.1997C11 9.979 11.1791 9.7998 11.4 9.7998L12.6 9.7998C12.8209 9.7998 13 9.979 13 10.1997L13 10.3838C13 10.605 12.8209 10.7837 12.6 10.7837ZM5.83893 10.1846L7.93652 10.1846C8.35602 10.1846 8.77545 10.6152 8.77545 11.0459L8.77545 17.9385C8.77545 18.3691 8.35602 18.7998 7.93652 18.7998L5.83893 18.7998C5.41949 18.7998 5 18.4766 5 17.9385L5 11.0459C5 10.6152 5.41949 10.1846 5.83893 10.1846ZM11.4 12.7837L12.6 12.7837C12.8209 12.7837 13 12.605 13 12.3838L13 12.1997C13 11.979 12.8209 11.7998 12.6 11.7998L11.4 11.7998C11.1791 11.7998 11 11.979 11 12.1997L11 12.3838C11 12.605 11.1791 12.7837 11.4 12.7837ZM12.6 14.7837L11.4 14.7837C11.1791 14.7837 11 14.605 11 14.3838L11 14.1997C11 13.979 11.1791 13.7998 11.4 13.7998L12.6 13.7998C12.8209 13.7998 13 13.979 13 14.1997L13 14.3838C13 14.605 12.8209 14.7837 12.6 14.7837ZM11.4 16.7998L12.6 16.7998C12.8209 16.7998 13 16.6211 13 16.3999L13 16.2158C13 15.9951 12.8209 15.8159 12.6 15.8159L11.4 15.8159C11.1791 15.8159 11 15.9951 11 16.2158L11 16.3999C11 16.6211 11.1791 16.7998 11.4 16.7998Z" fill="rgb(255,255,255)" fill-rule="evenodd" />
	</g>
</svg>
