<svg viewBox="0 0 24 24" xmlns="http://www.w3.org/2000/svg" xmlns:xlink="http://www.w3.org/1999/xlink" width="24.000000" height="24.000000" fill="none" customFrame="#000000">
	<defs>
		<linearGradient id="paint_linear_0" x1="12" x2="12" y1="0" y2="24" gradientUnits="userSpaceOnUse">
			<stop stop-color="rgb(20,118,255)" offset="0" stop-opacity="1" />
			<stop stop-color="rgb(65,145,250)" offset="1" stop-opacity="1" />
		</linearGradient>
	</defs>
	<g id="组合 3025">
		<rect id="矩形 786" width="24.000000" height="24.000000" x="0.000000" y="0.000000" rx="5.333539" fill="url(#paint_linear_0)" />
		<path id="矢量 264" d="M8.13138 5C9.86087 5 11.2628 6.40197 11.2628 8.13138L11.2628 11.2628L8.13138 11.2628C6.40188 11.2628 5 9.8608 5 8.13138C5 6.40197 6.40188 5 8.13138 5ZM15.8686 5C17.598 5 19 6.40197 19 8.13138C19 9.8608 17.598 11.2628 15.8686 11.2628L12.7372 11.2628L12.7372 8.13138C12.7372 6.40197 14.1392 5 15.8686 5ZM11.2628 12.7372L8.13138 12.7372C6.40188 12.7372 5 14.1392 5 15.8686C5 17.598 6.40188 19 8.13138 19C9.86087 19 11.2628 17.598 11.2628 15.8686L11.2628 12.7372ZM15.8686 12.7372L12.7372 12.7372L12.7372 15.8686C12.7372 17.598 14.1392 19 15.8686 19C17.598 19 19 17.598 19 15.8686C19 14.1392 17.598 12.7372 15.8686 12.7372Z" fill="rgb(255,255,255)" fill-rule="evenodd" />
	</g>
</svg>
