<svg viewBox="0 0 40 40" xmlns="http://www.w3.org/2000/svg" xmlns:xlink="http://www.w3.org/1999/xlink" width="40.000000" height="40.000000" fill="none">
	<rect id="文本" width="40.000000" height="40.000000" x="0.000000" y="0.000000" fill="rgb(255,255,255)" fill-opacity="0" />
	<path id="矢量 509" d="M30.8 6L3.30005 6C2.79602 6 2.40002 6.396 2.40002 6.89999C2.40002 7.40399 2.79602 7.79999 3.30005 7.79999L16.15 7.79999L16.15 33.9001C16.15 34.4041 16.546 34.8 17.05 34.8C17.5541 34.8 17.9501 34.4041 17.9501 33.9001L17.9501 7.79999L30.8 7.79999C31.3041 7.79999 31.7001 7.40399 31.7001 6.89999C31.7001 6.396 31.3041 6 30.8 6ZM30.55 18.5L36.8 18.5C37.3041 18.5 37.7001 18.896 37.7001 19.4C37.7001 19.904 37.3041 20.3 36.8 20.3L31.4501 20.3L31.4501 33.4C31.4501 33.904 31.0541 34.3 30.55 34.3C30.046 34.3 29.65 33.904 29.65 33.4L29.65 20.3L24.3 20.3C23.796 20.3 23.4 19.904 23.4 19.4C23.4 18.896 23.796 18.5 24.3 18.5L30.55 18.5Z" fill="currentColor" fill-rule="evenodd" />
</svg>
