<svg
	viewBox="0 0 16 16"
	xmlns="http://www.w3.org/2000/svg"
	xmlns:xlink="http://www.w3.org/1999/xlink"
	width="16.000000"
	height="16.000000"
	fill="none"
>
	<rect id="深度思考-deepthinking 1" width="16.000000" height="16.000000" x="0.000000" y="0.000000" />
	<path
		id="矢量_163"
		d="M13.6607 13.6627C13.7407 13.5827 13.8107 13.4927 13.8807 13.4027C14.1707 13.0127 14.3207 12.5327 14.3507 11.9527C14.3807 11.3227 14.2507 10.6127 13.9707 9.83266C13.7507 9.23266 13.4507 8.62267 13.0807 8.00266C13.4607 7.38266 13.7607 6.77266 13.9707 6.17266C14.2507 5.39266 14.3807 4.68266 14.3507 4.05266C14.3207 3.34266 14.0807 2.77266 13.6607 2.34266C13.2307 1.91266 12.6607 1.68266 11.9507 1.65266C11.3207 1.62266 10.6107 1.75266 9.83071 2.03266C9.23071 2.25266 8.62071 2.55266 8.00071 2.93266C7.38071 2.55266 6.77071 2.25266 6.17071 2.03266C5.39071 1.75266 4.69071 1.62266 4.06071 1.65266C3.48071 1.68266 2.99071 1.84266 2.60071 2.12266C2.51071 2.19266 2.43071 2.27266 2.35071 2.35266C2.27071 2.43266 2.19071 2.51266 2.12071 2.60266C1.84071 2.99266 1.68071 3.48266 1.65071 4.06266C1.62071 4.69266 1.75071 5.40266 2.03071 6.18266C2.25071 6.77266 2.55071 7.38266 2.93071 8.00266C2.55071 8.62267 2.25071 9.23266 2.03071 9.83266C1.75071 10.6127 1.62071 11.3227 1.65071 11.9527C1.68071 12.5327 1.83071 13.0127 2.12071 13.4027C2.19071 13.4927 2.26071 13.5827 2.34071 13.6627C2.42071 13.7427 2.51071 13.8127 2.60071 13.8827C2.99071 14.1727 3.47071 14.3227 4.05071 14.3527C4.68071 14.3827 5.39071 14.2527 6.17071 13.9727C6.77071 13.7527 7.38071 13.4527 8.00071 13.0827C8.62071 13.4627 9.23071 13.7627 9.83071 13.9727C10.6107 14.2527 11.3207 14.3827 11.9507 14.3527C12.5307 14.3227 13.0107 14.1627 13.4007 13.8827C13.4907 13.8127 13.5807 13.7427 13.6607 13.6627ZM7.08071 3.55266C6.65071 3.31266 6.24071 3.12266 5.83071 2.97266C5.18071 2.74266 4.60071 2.63266 4.10071 2.65266C3.66071 2.68266 3.32071 2.80266 3.07071 3.03266C2.83071 3.28266 2.68071 3.65266 2.65071 4.10266C2.63071 4.60266 2.74071 5.18266 2.97071 5.83266C3.12071 6.24266 3.31071 6.65266 3.54071 7.07266C4.02071 6.41266 4.56071 5.78266 5.17071 5.17266C5.78071 4.57266 6.42071 4.02266 7.08071 3.55266ZM12.4607 7.08266C12.6907 6.66266 12.8807 6.24266 13.0307 5.84266C13.2707 5.19266 13.3807 4.61266 13.3507 4.11266C13.3307 3.65266 13.1907 3.30266 12.9507 3.06266C12.7107 2.82266 12.3607 2.68266 11.9007 2.66266C11.4007 2.64266 10.8307 2.74266 10.1707 2.98266C9.77071 3.12266 9.35071 3.31266 8.93071 3.55266C9.59071 4.03266 10.2207 4.57266 10.8307 5.18266C11.4407 5.78266 11.9807 6.42266 12.4607 7.08266ZM11.8907 8.00266C11.3907 8.74266 10.8007 9.44267 10.1207 10.1227C9.45071 10.8027 8.74071 11.3927 8.00071 11.8927C7.26071 11.3927 6.56071 10.8027 5.88071 10.1227C5.20071 9.45267 4.62071 8.74266 4.12071 8.00266C4.62071 7.26266 5.21071 6.56266 5.89071 5.88266C6.56071 5.21266 7.27071 4.62266 8.00071 4.12266C8.74071 4.62266 9.44071 5.21266 10.1207 5.89266C10.8007 6.56266 11.3907 7.27266 11.8907 8.00266ZM8.00071 9.00266C8.55071 9.00266 9.00071 8.55266 9.00071 8.00266C9.00071 7.45266 8.55071 7.00266 8.00071 7.00266C7.45071 7.00266 7.00071 7.45266 7.00071 8.00266C7.00071 8.55266 7.45071 9.00266 8.00071 9.00266ZM3.55071 8.93266C4.03071 9.59266 4.57071 10.2227 5.18071 10.8327C5.79071 11.4427 6.42071 11.9827 7.08071 12.4627C6.66071 12.6927 6.24071 12.8827 5.84071 13.0327C5.19071 13.2727 4.61071 13.3827 4.11071 13.3527C3.67071 13.3327 3.32071 13.2027 3.08071 12.9727C3.07071 12.9627 3.07071 12.9627 3.06071 12.9527C2.83071 12.7127 2.68071 12.3427 2.66071 11.9027C2.64071 11.4027 2.74071 10.8327 2.98071 10.1727C3.12071 9.77267 3.31071 9.35266 3.55071 8.93266ZM8.93071 12.4627C9.35071 12.6927 9.77071 12.8827 10.1707 13.0327C10.8207 13.2727 11.4007 13.3827 11.9007 13.3527C12.3607 13.3327 12.7107 13.1927 12.9507 12.9527C13.1807 12.7127 13.3307 12.3427 13.3507 11.9027C13.3707 11.4027 13.2707 10.8327 13.0307 10.1727C12.8807 9.76266 12.6907 9.35266 12.4607 8.93266C11.9807 9.59266 11.4407 10.2227 10.8307 10.8327C10.2207 11.4427 9.59071 11.9827 8.93071 12.4627Z"
		fill="currentColor"
		fill-rule="evenodd"
	/>
</svg>
