<?xml version="1.0" encoding="utf-8"?>
<!-- Generator: Adobe Illustrator 26.0.2, SVG Export Plug-In . SVG Version: 6.00 Build 0)  -->
<svg version="1.1" id="图层_1" xmlns="http://www.w3.org/2000/svg" xmlns:xlink="http://www.w3.org/1999/xlink" x="0px" y="0px"
	 viewBox="0 0 48 48" style="enable-background:new 0 0 48 48;" xml:space="preserve">
<style type="text/css">
	.st0{fill-rule:evenodd;clip-rule:evenodd;fill:currentColor;}
</style>
<desc>Created with Pixso.</desc>
<path id="矢量_195" class="st0" d="M6,13c0-2.8,2.2-5,5-5c2.8,0,5,2.2,5,5c0,2.4-1.7,4.4-3.9,4.9v5.5c2.2,0.5,3.9,2.5,3.9,4.9
	s-1.7,4.4-3.9,4.9v7.7c0,0.5-0.4,0.9-0.9,0.9c-0.5,0-0.9-0.4-0.9-0.9v-7.6C7.8,32.9,6,30.8,6,28.3c0-2.5,1.8-4.6,4.3-5v-5.4
	C7.8,17.6,6,15.5,6,13z M20,10h23c0.5,0,0.9,0.4,0.9,0.9c0,0.5-0.4,0.9-0.9,0.9H20c-0.5,0-0.9-0.4-0.9-0.9C19.1,10.4,19.5,10,20,10z
	 M20,14.6h16.8c0.5,0,0.9,0.4,0.9,0.9s-0.4,0.9-0.9,0.9H20c-0.5,0-0.9-0.4-0.9-0.9S19.5,14.6,20,14.6z M20,24.5h23
	c0.5,0,0.9,0.4,0.9,0.9c0,0.5-0.4,0.9-0.9,0.9H20c-0.5,0-0.9-0.4-0.9-0.9C19.1,24.9,19.5,24.5,20,24.5z M11,25.1
	c-1.8,0-3.2,1.4-3.2,3.2c0,1.8,1.4,3.2,3.2,3.2c1.8,0,3.2-1.4,3.2-3.2C14.2,26.5,12.8,25.1,11,25.1z M20,29.1h16.8
	c0.5,0,0.9,0.4,0.9,0.9s-0.4,0.9-0.9,0.9H20c-0.5,0-0.9-0.4-0.9-0.9S19.5,29.1,20,29.1z"/>
</svg>
