<svg viewBox="0 0 40 40" xmlns="http://www.w3.org/2000/svg" xmlns:xlink="http://www.w3.org/1999/xlink" width="40.000000" height="40.000000" fill="none">
	<rect id="时间线" width="40.000000" height="40.000000" x="0.000000" y="0.000000" fill="rgb(255,255,255)" fill-opacity="0" />
	<path id="矢量 574" d="M4 9.25C4 6.21243 6.4624 3.75 9.5 3.75C12.5376 3.75 15 6.21243 15 9.25C15 12.0165 12.9575 14.306 10.2981 14.6925L10.2981 18.8075C12.9575 19.194 15 21.4835 15 24.25C15 27.0166 12.9574 29.306 10.298 29.6925L10.298 35.2515C10.298 35.6995 9.94604 36.0515 9.49805 36.0515C9.05005 36.0515 8.698 35.6995 8.698 35.2515L8.698 29.6919C6.04055 29.3037 4 27.0152 4 24.25C4 21.4848 6.04061 19.1962 8.69812 18.808L8.69812 14.692C6.04061 14.3038 4 12.0152 4 9.25ZM19 6.45097L36.5 6.45097C36.948 6.45097 37.2999 6.80297 37.2999 7.25098C37.2999 7.69897 36.948 8.05097 36.5 8.05097L19 8.05097C18.552 8.05097 18.2 7.69897 18.2 7.25098C18.2 6.80297 18.552 6.45097 19 6.45097ZM31.002 13.8005L19 13.8005C18.552 13.8005 18.2 13.4485 18.2 13.0005C18.2 12.5525 18.552 12.2005 19 12.2005L31.002 12.2005C31.45 12.2005 31.8019 12.5525 31.8019 13.0005C31.8019 13.4485 31.45 13.8005 31.002 13.8005ZM9.5 20.35C9.19507 20.35 8.89807 20.3838 8.60889 20.4513C8.39587 20.5012 8.18701 20.5693 7.98242 20.6558C7.76953 20.7459 7.56763 20.8529 7.37683 20.977C7.14966 21.1247 6.93811 21.2964 6.74231 21.4923C6.54639 21.6881 6.37463 21.8996 6.22705 22.1268C6.10291 22.3176 5.99585 22.5195 5.90588 22.7324C5.81934 22.937 5.7511 23.1458 5.70129 23.359C5.63379 23.6481 5.59998 23.9451 5.59998 24.25C5.59998 24.5549 5.63379 24.8519 5.70129 25.141C5.7511 25.3542 5.81934 25.563 5.90588 25.7676C5.99585 25.9805 6.10291 26.1824 6.22705 26.3732C6.37463 26.6004 6.54639 26.8119 6.74231 27.0077C6.93811 27.2036 7.14966 27.3753 7.37671 27.523L7.37683 27.523C7.56763 27.6471 7.76953 27.7541 7.98242 27.8442C8.18701 27.9307 8.39587 27.9988 8.60889 28.0487C8.89807 28.1162 9.19507 28.15 9.5 28.15C9.80493 28.15 10.1019 28.1162 10.3911 28.0487C10.6041 27.9989 10.813 27.9307 11.0176 27.8442C11.2305 27.7541 11.4324 27.647 11.6232 27.523C11.8503 27.3753 12.0619 27.2036 12.2577 27.0077C12.4535 26.8119 12.6252 26.6004 12.7729 26.3733C12.897 26.1824 13.0042 25.9805 13.0941 25.7676C13.1807 25.563 13.2489 25.3542 13.2987 25.1411C13.3662 24.8519 13.4 24.5549 13.4 24.25Q13.4 23.7937 13.2991 23.3609L13.2986 23.3589C13.2489 23.1458 13.1807 22.937 13.0941 22.7324C13.0042 22.5195 12.8971 22.3176 12.7729 22.1268C12.6254 21.8996 12.4536 21.6881 12.2577 21.4923C12.0619 21.2964 11.8503 21.1247 11.6232 20.977C11.4324 20.853 11.2305 20.7459 11.0176 20.6558Q10.7107 20.526 10.391 20.4513C10.1019 20.3838 9.80493 20.35 9.5 20.35ZM19 20.9505L36.5 20.9505C36.948 20.9505 37.2999 21.3025 37.2999 21.7505C37.2999 22.1985 36.948 22.5505 36.5 22.5505L19 22.5505C18.552 22.5505 18.2 22.1985 18.2 21.7505C18.2 21.3025 18.552 20.9505 19 20.9505ZM31.002 28.3L19 28.3C18.552 28.3 18.2 27.948 18.2 27.5C18.2 27.052 18.552 26.7 19 26.7L31.002 26.7C31.45 26.7 31.8019 27.052 31.8019 27.5C31.8019 27.948 31.45 28.3 31.002 28.3Z" fill="currentColor" fill-rule="evenodd" />
</svg>
