<?xml version="1.0" encoding="utf-8"?>
<!-- Generator: Adobe Illustrator 26.0.2, SVG Export Plug-In . SVG Version: 6.00 Build 0)  -->
<svg version="1.1" id="图层_1" xmlns="http://www.w3.org/2000/svg" xmlns:xlink="http://www.w3.org/1999/xlink" x="0px" y="0px"
	 viewBox="0 0 48 48" style="enable-background:new 0 0 48 48;" xml:space="preserve">
<style type="text/css">
	.st0{fill-rule:evenodd;clip-rule:evenodd;fill:currentColor;}
</style>
<desc>Created with Pixso.</desc>
<path id="矢量_175" class="st0" d="M19.4,33l3.9,5.8c0.4,0.6,1.3,0.6,1.7,0l3.9-5.8H41c1.7,0,3-1.4,3-3V13c0-1.7-1.3-3-3-3H7
	c-1.7,0-3,1.3-3,3v17c0,1.6,1.3,3,3,3H19.4z M24.1,36.8l3.7-5.6H41c0.4,0,0.7-0.1,0.9-0.3c0.2-0.2,0.3-0.5,0.3-0.9V13
	c0-0.4-0.1-0.7-0.3-0.9c-0.2-0.2-0.5-0.3-0.9-0.3H7c-0.4,0-0.7,0.1-0.9,0.3c-0.2,0.2-0.3,0.5-0.3,0.9v17c0,0.4,0.1,0.7,0.3,0.9
	c0.2,0.2,0.5,0.3,0.9,0.3h13.3L24.1,36.8z M12,17.6h24c0.5,0,0.9,0.4,0.9,0.9c0,0.5-0.4,0.9-0.9,0.9H12c-0.5,0-0.9-0.4-0.9-0.9
	C11.1,18,11.5,17.6,12,17.6z M12,23.1h12c0.5,0,0.9,0.4,0.9,0.9c0,0.5-0.4,0.9-0.9,0.9H12c-0.5,0-0.9-0.4-0.9-0.9
	C11.1,23.5,11.5,23.1,12,23.1z"/>
</svg>
