<svg viewBox="0 0 40 40" xmlns="http://www.w3.org/2000/svg" xmlns:xlink="http://www.w3.org/1999/xlink" width="40.000000" height="40.000000" fill="none">
	<rect id="文组提示框" width="40.000000" height="40.000000" x="0.000000" y="0.000000" fill="rgb(255,255,255)" fill-opacity="0" />
	<path id="矢量 540" d="M15.407 30L18.9829 35.4966C19.3696 36.0909 20.2397 36.0909 20.6265 35.4966L24.2024 30L35.25 30C37.183 30 38.75 28.433 38.75 26.5L38.75 10C38.75 8.067 37.183 6.5 35.25 6.5L4.75 6.5C2.81702 6.5 1.25 8.067 1.25 10L1.25 26.5C1.25 28.433 2.81702 30 4.75 30L15.407 30ZM19.8047 33.8257L23.3345 28.4L35.25 28.4C35.4047 28.4 35.5551 28.3822 35.7012 28.3467L35.7013 28.3467C35.7992 28.3229 35.895 28.2911 35.989 28.2513C36.0897 28.2088 36.1853 28.1584 36.2759 28.1001L36.276 28.1001L36.276 28.1Q36.4467 27.9903 36.5935 27.8435C36.6914 27.7456 36.777 27.6397 36.8502 27.5258L36.8502 27.5257C36.9084 27.4352 36.9589 27.3396 37.0013 27.2391C37.041 27.1451 37.0729 27.0493 37.0967 26.9515L37.0967 26.9513C37.1322 26.8052 37.15 26.6548 37.15 26.5L37.15 10C37.15 9.84526 37.1322 9.69484 37.0967 9.54875C37.0729 9.45087 37.0411 9.35493 37.0013 9.26093C36.9587 9.16031 36.9084 9.06471 36.8502 8.97415C36.777 8.86031 36.6914 8.75441 36.5935 8.65649C36.4956 8.55861 36.3898 8.47307 36.276 8.3999C36.1854 8.34164 36.0897 8.29123 35.989 8.24866C35.895 8.20889 35.7991 8.17711 35.7012 8.15329C35.5552 8.11777 35.4047 8.10001 35.25 8.10001L4.75 8.10001C4.59534 8.10001 4.44482 8.11777 4.29883 8.15329L4.29883 8.15331L4.29611 8.15397Q4.15067 8.18956 4.01099 8.24866C3.91028 8.29123 3.81458 8.34164 3.724 8.3999C3.61023 8.47307 3.50439 8.55861 3.40649 8.65649C3.30859 8.75439 3.22302 8.86023 3.1499 8.97403C3.09167 9.06462 3.04126 9.16026 2.99866 9.26093C2.95886 9.35493 2.92712 9.45088 2.90332 9.54878C2.8678 9.69487 2.84998 9.84528 2.84998 10L2.84998 26.5C2.84998 26.6547 2.8678 26.8051 2.90332 26.9513C2.92712 27.0491 2.95886 27.1451 2.99866 27.2391C3.04126 27.3397 3.09167 27.4354 3.1499 27.5259L3.1499 27.5261C3.22314 27.6398 3.30859 27.7456 3.40649 27.8435C3.50439 27.9414 3.61023 28.0269 3.724 28.1001C3.81458 28.1583 3.91028 28.2088 4.01099 28.2513C4.10498 28.2911 4.20093 28.3229 4.29883 28.3467C4.44495 28.3822 4.59534 28.4 4.75 28.4L16.2749 28.4L19.8047 33.8257ZM9.59998 14.45L28.6 14.4526C29.048 14.4526 29.4 14.8047 29.3999 15.2527C29.3999 15.7007 29.0479 16.0526 28.5999 16.0526L9.59985 16.05C9.15186 16.0499 8.79993 15.6979 8.79993 15.2499C8.79993 14.8019 9.15198 14.4499 9.59998 14.45ZM18.1571 20.1263L9.60022 20.1238C9.1521 20.1237 8.80005 20.4756 8.79993 20.9236C8.7998 21.3716 9.15173 21.7237 9.59973 21.7238L18.1567 21.7263C18.6047 21.7265 18.9568 21.3746 18.9569 20.9266C18.957 20.4786 18.6051 20.1265 18.1571 20.1263Z" fill="currentColor" fill-rule="evenodd" />
</svg>
