<?xml version="1.0" encoding="utf-8"?>
<!-- Generator: Adobe Illustrator 26.0.2, SVG Export Plug-In . SVG Version: 6.00 Build 0)  -->
<svg version="1.1" id="图层_1" xmlns="http://www.w3.org/2000/svg" xmlns:xlink="http://www.w3.org/1999/xlink" x="0px" y="0px"
	 viewBox="0 0 140 140" style="enable-background:new 0 0 140 140;" xml:space="preserve">
<style type="text/css">
	.st0{fill-rule:evenodd;clip-rule:evenodd;fill:currentColor;}
</style>
<desc>Created with Pixso.</desc>
<path id="矢量_40" class="st0" d="M46.7,23.5c-0.9-0.4-1.8-0.5-2.9-0.5H18.5c-1,0-2,0.2-2.9,0.5c-0.9,0.4-1.7,0.9-2.4,1.6
	c-0.7,0.7-1.3,1.5-1.6,2.4c-0.4,0.9-0.5,1.8-0.5,2.9V109c0,1,0.2,2,0.5,2.9c0.4,0.9,0.9,1.7,1.6,2.4c0.7,0.7,1.5,1.3,2.4,1.6
	c0.9,0.4,1.8,0.6,2.9,0.6h25.3c1,0,2-0.2,2.9-0.6c0.9-0.4,1.7-0.9,2.4-1.6c0.7-0.7,1.3-1.5,1.6-2.4c0.4-0.9,0.5-1.8,0.5-2.9V30.5
	c0-1-0.2-2-0.5-2.9c-0.4-0.9-0.9-1.7-1.6-2.4S47.5,23.9,46.7,23.5z M120.5,23c1,0,2,0.2,2.9,0.5c0.9,0.4,1.7,0.9,2.4,1.6
	c0.7,0.7,1.3,1.5,1.6,2.4c0.4,0.9,0.6,1.8,0.6,2.9V109c0,1-0.2,2-0.6,2.9c-0.4,0.9-0.9,1.7-1.6,2.4c-0.7,0.7-1.5,1.3-2.4,1.6
	c-0.9,0.4-1.8,0.6-2.9,0.6H95.2c-1,0-2-0.2-2.9-0.6c-0.9-0.4-1.7-0.9-2.4-1.6c-0.7-0.7-1.3-1.5-1.7-2.4c-0.4-0.9-0.5-1.8-0.5-2.9
	V30.5c0-1,0.2-2,0.5-2.9c0.4-0.9,0.9-1.7,1.7-2.4s1.5-1.3,2.4-1.6c0.9-0.4,1.8-0.5,2.9-0.5H120.5z M18.5,30h25.3
	c0.2,0,0.3,0,0.4,0.1c0.1,0.1,0.1,0.2,0.1,0.4V109c0,0.1,0,0.1,0,0.2c0,0.1-0.1,0.1-0.1,0.2c0,0.1-0.1,0.1-0.2,0.1
	c-0.1,0-0.1,0-0.2,0H18.5c-0.2,0-0.3,0-0.4-0.1c-0.1-0.1-0.1-0.2-0.1-0.4V30.5c0-0.1,0-0.1,0-0.2c0-0.1,0.1-0.1,0.1-0.2
	c0-0.1,0.1-0.1,0.2-0.1C18.3,30,18.4,30,18.5,30z M120.5,30H95.2c-0.1,0-0.1,0-0.2,0c-0.1,0-0.1,0.1-0.2,0.1c-0.1,0-0.1,0.1-0.1,0.2
	c0,0.1,0,0.1,0,0.2V109c0,0.2,0.1,0.3,0.1,0.4c0.1,0.1,0.2,0.1,0.4,0.1h25.3c0.1,0,0.1,0,0.2,0c0.1,0,0.1-0.1,0.2-0.1
	c0,0,0.1-0.1,0.1-0.2c0-0.1,0-0.1,0-0.2V30.5c0-0.2,0-0.3-0.1-0.4C120.8,30,120.7,30,120.5,30z M82.1,50l-9.9-7.4
	c-0.7-0.4-1.5,0-1.5,0.8v3.9H58c-0.8,0-1.5,0.7-1.5,1.5v4c0,0.8,0.7,1.5,1.5,1.5h12.7v3.9c0,0.8,0.9,1.3,1.5,0.8l9.9-7.4
	C82.7,51.2,82.7,50.3,82.1,50z M56.8,86.8l9.9-7.4c0.7-0.4,1.5,0,1.5,0.8v3.9h12.7c0.8,0,1.5,0.7,1.5,1.5v4c0,0.8-0.7,1.5-1.5,1.5
	H68.2V95c0,0.8-0.9,1.3-1.5,0.8l-9.9-7.4C56.2,88.1,56.2,87.2,56.8,86.8z"/>
</svg>
