<?xml version="1.0" encoding="utf-8"?>
<!-- Generator: Adobe Illustrator 26.0.2, SVG Export Plug-In . SVG Version: 6.00 Build 0)  -->
<svg version="1.1" id="图层_1" xmlns="http://www.w3.org/2000/svg" xmlns:xlink="http://www.w3.org/1999/xlink" x="0px" y="0px"
	 viewBox="0 0 48 48" style="enable-background:new 0 0 48 48;" xml:space="preserve">
<style type="text/css">
	.st0{fill-rule:evenodd;clip-rule:evenodd;fill:currentColor;}
</style>
<desc>Created with Pixso.</desc>
<path id="矢量_201" class="st0" d="M18,10c0-1.1-0.9-2-2-2H6c-1.1,0-2,0.9-2,2v29c0,1.1,0.9,2,2,2h10c1.1,0,2-0.9,2-2V10z M42,8
	c1.1,0,2,0.9,2,2v29c0,1.1-0.9,2-2,2H32c-1.1,0-2-0.9-2-2V10c0-1.1,0.9-2,2-2H42z M16.2,10c0-0.1-0.1-0.2-0.2-0.2H6
	c-0.1,0-0.2,0.1-0.2,0.2v29c0,0.1,0.1,0.2,0.2,0.2h10c0.1,0,0.2-0.1,0.2-0.2V10z M42,9.8c0.1,0,0.2,0.1,0.2,0.2v29
	c0,0.1-0.1,0.2-0.2,0.2H32c-0.1,0-0.2-0.1-0.2-0.2V10c0-0.1,0.1-0.2,0.2-0.2H42z M25.4,15.3c-0.4-0.4-0.9-0.4-1.2,0
	c-0.4,0.4-0.4,0.9,0,1.3l0.9,0.9h-4.1c-0.5,0-0.9,0.4-0.9,0.9s0.4,0.9,0.9,0.9h4.4l-1.1,1.2c-0.4,0.4-0.4,0.9,0,1.3
	c0.4,0.4,0.9,0.4,1.2,0l2.5-2.6c0.2-0.2,0.3-0.4,0.3-0.6s-0.1-0.5-0.3-0.6L25.4,15.3z M22.6,27.3c0.4-0.4,0.9-0.4,1.3,0
	c0.4,0.4,0.3,0.9,0,1.3L23,29.4h4.1c0.5,0,0.9,0.4,0.9,0.9s-0.4,0.9-0.9,0.9h-4.4l1.1,1.2c0.3,0.4,0.4,0.9,0,1.3
	c-0.4,0.4-0.9,0.4-1.3,0l-2.5-2.6c-0.2-0.2-0.3-0.4-0.3-0.6c0-0.2,0.1-0.5,0.3-0.6L22.6,27.3z"/>
</svg>
