<svg viewBox="0 0 40 40" xmlns="http://www.w3.org/2000/svg" xmlns:xlink="http://www.w3.org/1999/xlink" width="40.000000" height="40.000000" fill="none">
	<rect id="穿梭框" width="40.000000" height="40.000000" x="0.000000" y="0.000000" fill="rgb(255,255,255)" fill-opacity="0" />
	<path id="矢量 579" d="M11.9886 5C13.3694 5 14.4886 6.11929 14.4886 7.5L14.4886 32.5C14.4886 33.8807 13.3694 35 11.9886 35L5 35C3.61926 35 2.5 33.8807 2.5 32.5L2.5 7.5C2.5 6.11929 3.61926 5 5 5L11.9886 5ZM37.4965 7.5C37.4965 6.11929 36.3772 5 34.9965 5L28.0078 5C26.6271 5 25.5078 6.11929 25.5078 7.5L25.5078 32.5C25.5078 33.8807 26.6271 35 28.0078 35L34.9965 35C36.3772 35 37.4965 33.8807 37.4965 32.5L37.4965 7.5ZM11.9886 6.6L5 6.6C4.87573 6.6 4.76062 6.62196 4.65454 6.6659C4.54846 6.70983 4.45142 6.77573 4.36365 6.8636C4.27576 6.95147 4.20984 7.04844 4.16589 7.1545C4.12195 7.26057 4.09998 7.37573 4.09998 7.5L4.09998 32.5Q4.09998 32.6863 4.16582 32.8453L4.16587 32.8454L4.16589 32.8455C4.20984 32.9516 4.27576 33.0485 4.36365 33.1364C4.45142 33.2243 4.54846 33.2902 4.65454 33.3341C4.76062 33.378 4.87573 33.4 5 33.4L11.9886 33.4C12.1129 33.4 12.2281 33.378 12.3342 33.3341C12.4403 33.2902 12.5372 33.2243 12.6251 33.1364C12.713 33.0485 12.7788 32.9516 12.8228 32.8455C12.8667 32.7394 12.8887 32.6243 12.8887 32.5L12.8887 7.5Q12.8887 7.31368 12.8228 7.15463L12.8228 7.15458L12.8228 7.15456L12.8228 7.1545C12.7788 7.04844 12.713 6.95147 12.6251 6.8636C12.5372 6.77573 12.4403 6.70983 12.3342 6.6659C12.2281 6.62196 12.1129 6.6 11.9886 6.6ZM28.0078 6.6L34.9965 6.6C35.1207 6.6 35.236 6.62196 35.342 6.6659C35.4481 6.70983 35.545 6.77573 35.6329 6.8636C35.7208 6.95147 35.7866 7.04844 35.8306 7.1545L35.8306 7.15456Q35.8965 7.31363 35.8965 7.5L35.8965 32.5C35.8965 32.6243 35.8745 32.7394 35.8306 32.8455C35.7866 32.9516 35.7208 33.0485 35.6329 33.1364C35.545 33.2243 35.4481 33.2902 35.342 33.3341C35.236 33.378 35.1207 33.4 34.9965 33.4L28.0078 33.4C27.8835 33.4 27.7684 33.378 27.6624 33.3341C27.5563 33.2902 27.4592 33.2243 27.3715 33.1364C27.2836 33.0485 27.2177 32.9516 27.1737 32.8455L27.1737 32.8454L27.1736 32.8453L27.1735 32.845Q27.1078 32.6861 27.1078 32.5L27.1078 7.5C27.1078 7.37573 27.1298 7.26057 27.1737 7.1545C27.2177 7.04844 27.2836 6.95147 27.3715 6.8636C27.4592 6.77573 27.5563 6.70983 27.6624 6.6659C27.7684 6.62196 27.8835 6.6 28.0078 6.6ZM21.6301 12.4457C21.3069 12.1356 20.7988 12.1356 20.4756 12.4457C20.1523 12.7559 20.1523 13.2433 20.4756 13.5534L21.1104 14.1625L16.8341 14.1625C16.3861 14.1625 16.0342 14.5145 16.0342 14.9625C16.0342 15.4105 16.3861 15.7625 16.8341 15.7625L21.3617 15.7625L20.4756 16.6126C20.1523 16.9228 20.1523 17.4102 20.4756 17.7203C20.7988 18.0305 21.3069 18.0305 21.6301 17.7203L23.6213 15.8099C23.674 15.7595 23.7201 15.7051 23.76 15.6467C23.798 15.5912 23.8302 15.5322 23.8567 15.4695C23.9091 15.3456 23.9352 15.2168 23.9352 15.083C23.9352 15.0152 23.9285 14.9486 23.9149 14.8832Q23.8953 14.7881 23.8567 14.6966C23.8022 14.5679 23.7239 14.4545 23.6213 14.3561L21.6301 12.4457ZM18.4285 22.2675C18.7517 21.9574 19.2598 21.9574 19.583 22.2675C19.9062 22.5777 19.9062 23.0651 19.583 23.3752L18.9482 23.9842L23.2245 23.9842C23.6725 23.9842 24.0244 24.3362 24.0244 24.7842C24.0244 25.2322 23.6725 25.5842 23.2245 25.5842L18.6969 25.5842L19.583 26.4344C19.9062 26.7445 19.9062 27.2319 19.583 27.5421C19.2598 27.8522 18.7517 27.8522 18.4285 27.5421L16.4373 25.6317C16.3846 25.5813 16.3385 25.5269 16.2986 25.4685C16.2606 25.413 16.2284 25.3539 16.2019 25.2913C16.1495 25.1674 16.1234 25.0386 16.1234 24.9048C16.1234 24.8369 16.1301 24.7703 16.1437 24.705Q16.1633 24.6099 16.2019 24.5183C16.2563 24.3897 16.3347 24.2762 16.4373 24.1779L18.4285 22.2675Z" fill="currentColor" fill-rule="evenodd" />
</svg>
