<svg viewBox="0 0 40 40" xmlns="http://www.w3.org/2000/svg" xmlns:xlink="http://www.w3.org/1999/xlink" width="40.000000" height="40.000000" fill="none">
	<rect id="纵向导航条" width="40.000000" height="40.000000" x="0.000000" y="0.000000" fill="rgb(255,255,255)" fill-opacity="0" />
	<path id="矢量 570" d="M37.5 6.95C37.5 5.18269 36.0673 3.75 34.3 3.75L5.69995 3.75C3.93274 3.75 2.5 5.18269 2.5 6.95L2.5 33.05C2.5 34.8173 3.93274 36.25 5.69995 36.25L34.3 36.25C36.0673 36.25 37.5 34.8173 37.5 33.05L37.5 6.95ZM5.69995 5.35L16.9501 5.35L16.9501 34.65L5.69995 34.65C5.56775 34.65 5.43933 34.6346 5.3147 34.6039C5.23413 34.584 5.15515 34.5577 5.07776 34.5249Q4.95197 34.4717 4.83862 34.3992C4.74182 34.3372 4.65186 34.2646 4.5686 34.1814C4.48547 34.0982 4.41284 34.0082 4.35083 33.9114C4.30249 33.8358 4.2605 33.7561 4.2251 33.6723C4.19238 33.5949 4.16602 33.5159 4.14612 33.4353C4.11536 33.3106 4.09998 33.1822 4.09998 33.05L4.09998 6.95Q4.09998 6.75191 4.14601 6.56518L4.14612 6.56474C4.16602 6.48414 4.19238 6.40513 4.2251 6.3277C4.2605 6.24387 4.30249 6.16417 4.35083 6.08862C4.41284 5.99183 4.48547 5.90183 4.5686 5.81863C4.65186 5.73543 4.74182 5.66283 4.83862 5.60085L4.83862 5.60084C4.91418 5.55246 4.9939 5.51054 5.07776 5.47508C5.15515 5.44233 5.23413 5.41601 5.3147 5.39613C5.43933 5.36537 5.56775 5.35 5.69995 5.35ZM34.3 34.65L18.55 34.65L18.55 5.35L34.3 5.35C34.4323 5.35 34.5607 5.36538 34.6853 5.39613L34.6854 5.39616L34.6858 5.39625Q34.8064 5.42606 34.9224 5.47508C35.0061 5.51052 35.0857 5.55242 35.1613 5.60078C35.2581 5.66278 35.3481 5.7354 35.4314 5.81863C35.5145 5.90184 35.5872 5.99184 35.6492 6.08865C35.6975 6.16419 35.7395 6.24387 35.7749 6.3277C35.8076 6.40515 35.834 6.48419 35.8539 6.56482C35.8846 6.68943 35.9 6.81783 35.9 6.95L35.9 33.05C35.9 33.1822 35.8846 33.3106 35.8539 33.4352C35.834 33.5158 35.8077 33.5948 35.7749 33.6723C35.7395 33.7561 35.6976 33.8358 35.6492 33.9113C35.5873 34.0081 35.5146 34.0981 35.4314 34.1814C35.3481 34.2646 35.2581 34.3372 35.1613 34.3992C35.0857 34.4476 35.0061 34.4895 34.9224 34.5249C34.8448 34.5577 34.7659 34.584 34.6853 34.6039C34.5607 34.6346 34.4323 34.65 34.3 34.65ZM14.875 9.75C14.875 9.19772 14.4272 8.75 13.875 8.75L7.625 8.75C7.07275 8.75 6.625 9.19772 6.625 9.75L6.625 13.25C6.625 13.8023 7.07275 14.25 7.625 14.25L13.875 14.25C14.4272 14.25 14.875 13.8023 14.875 13.25L14.875 9.75ZM13.275 10.35L8.22498 10.35L8.22498 12.65L13.275 12.65L13.275 10.35ZM13.875 17.25C14.4272 17.25 14.875 17.6977 14.875 18.25L14.875 21.75C14.875 22.3023 14.4272 22.75 13.875 22.75L7.625 22.75C7.07275 22.75 6.625 22.3023 6.625 21.75L6.625 18.25C6.625 17.6977 7.07275 17.25 7.625 17.25L13.875 17.25ZM8.22498 18.85L13.275 18.85L13.275 21.15L8.22498 21.15L8.22498 18.85ZM14.875 26.75C14.875 26.1977 14.4272 25.75 13.875 25.75L7.625 25.75C7.07275 25.75 6.625 26.1977 6.625 26.75L6.625 30.25C6.625 30.8023 7.07275 31.25 7.625 31.25L13.875 31.25C14.4272 31.25 14.875 30.8023 14.875 30.25L14.875 26.75ZM13.275 27.35L8.22498 27.35L8.22498 29.65L13.275 29.65L13.275 27.35Z" fill="currentColor" fill-rule="evenodd" />
</svg>
