<svg id="图层_1" data-name="图层 1" xmlns="http://www.w3.org/2000/svg" viewBox="0 0 48 48"><defs><style>.cls-1{fill:currentColor;fill-rule:evenodd;}</style></defs><path id="矢量_178" data-name="矢量 178" class="cls-1" d="M13.41,10.04l.1.02a2.75746,2.75746,0,0,1,.51.16,2.92539,2.92539,0,0,1,.92.62,3.2344,3.2344,0,0,1,.38.45,3.62369,3.62369,0,0,1,.25.48,2.75746,2.75746,0,0,1,.16.51,3.09715,3.09715,0,0,1,.07.62v6a2.87741,2.87741,0,0,1-.23,1.12,3.71,3.71,0,0,1-.22.43,3.27309,3.27309,0,0,1-.41.5,2.92539,2.92539,0,0,1-.92.62,2.88123,2.88123,0,0,1-1.13.22h-6a2.91664,2.91664,0,0,1-1.13-.22,3.17211,3.17211,0,0,1-.92-.62,3.08854,3.08854,0,0,1-.36-.45,2.81172,2.81172,0,0,1-.42-.99A3.07792,3.07792,0,0,1,4,18.9v-6a3.10519,3.10519,0,0,1,.06-.62,2.81172,2.81172,0,0,1,.42-.99,3.08854,3.08854,0,0,1,.36-.45,3.17024,3.17024,0,0,1,.46-.36,2.59491,2.59491,0,0,1,.46-.26,3.12688,3.12688,0,0,1,.52-.16A3.07792,3.07792,0,0,1,6.89,10h6A3.2877,3.2877,0,0,1,13.41,10.04Zm29.48,1.55a1.99944,1.99944,0,0,1,2,2v4a1.99309,1.99309,0,0,1-2,2h-23a1.99944,1.99944,0,0,1-2-2v-4a2.00588,2.00588,0,0,1,2-2Zm-30,.2h-6a1.08553,1.08553,0,0,0-.25.04.84468.84468,0,0,0-.17.05.91474.91474,0,0,0-.17.09.65491.65491,0,0,0-.18.15.84461.84461,0,0,0-.15.18c-.03.05-.06.11-.09.17a.983.983,0,0,0-.05.16.83057.83057,0,0,0-.03.27v6a1.0134,1.0134,0,0,0,.08.42c.03.06.06.12.09.17a.65491.65491,0,0,0,.15.18.65491.65491,0,0,0,.18.15c.05.03.11.06.17.09a.84468.84468,0,0,0,.17.05.7267.7267,0,0,0,.25.04h6a1.003,1.003,0,0,0,.43-.09,1.08961,1.08961,0,0,0,.35-.24.65491.65491,0,0,0,.15-.18.91474.91474,0,0,0,.09-.17A1.02349,1.02349,0,0,0,14,18.9v-6a1.25885,1.25885,0,0,0-.04-.27.983.983,0,0,0-.05-.16,1.786,1.786,0,0,0-.08-.16,1.42167,1.42167,0,0,0-.16-.19.84461.84461,0,0,0-.18-.15.91474.91474,0,0,0-.17-.09A1.003,1.003,0,0,0,12.89,11.79Zm30.2,1.8a.20059.20059,0,0,0-.2-.2h-23a.20059.20059,0,0,0-.2.2v4a.20059.20059,0,0,0,.2.2h23a.20059.20059,0,0,0,.2-.2Zm-35.2,1.5h4a.805.805,0,0,1,0,1.61h-4a.805.805,0,0,1,0-1.61Zm2.9,8.81v7c.01,0,.09.1.1.1h2a.895.895,0,1,1,0,1.79h-2a1.81005,1.81005,0,0,1-.4-.04,2.18529,2.18529,0,0,1-.34-.1,3.07137,3.07137,0,0,1-.31-.17,2.00394,2.00394,0,0,1-.53-.53,2.40457,2.40457,0,0,1-.17-.32,1.92953,1.92953,0,0,1-.11-.34,2.5788,2.5788,0,0,1-.04-.39v-7a.9.9,0,1,1,1.8,0Zm13.62,2.14h0l.1.02a2.75746,2.75746,0,0,1,.51.16,2.92539,2.92539,0,0,1,.92.62,3.2344,3.2344,0,0,1,.38.45,3.62369,3.62369,0,0,1,.25.48,2.75746,2.75746,0,0,1,.16.51,3.09715,3.09715,0,0,1,.07.62v6a2.87741,2.87741,0,0,1-.23,1.12,3.70922,3.70922,0,0,1-.22.43,3.27309,3.27309,0,0,1-.41.5,2.92539,2.92539,0,0,1-.92.62,2.88123,2.88123,0,0,1-1.13.22h-6a2.91664,2.91664,0,0,1-1.13-.22,3.17211,3.17211,0,0,1-.92-.62,3.08854,3.08854,0,0,1-.36-.45,2.81172,2.81172,0,0,1-.42-.99A3.07792,3.07792,0,0,1,15,34.9v-6a3.10519,3.10519,0,0,1,.06-.62,2.81172,2.81172,0,0,1,.42-.99,3.08854,3.08854,0,0,1,.36-.45,3.17024,3.17024,0,0,1,.46-.36,2.59491,2.59491,0,0,1,.46-.26,3.12688,3.12688,0,0,1,.52-.16,3.07792,3.07792,0,0,1,.61-.06h6A3.2877,3.2877,0,0,1,24.41,26.04Zm18.44,1.55a2.00588,2.00588,0,0,1,2,2v4a1.99944,1.99944,0,0,1-2,2h-12a1.99309,1.99309,0,0,1-2-2v-4a1.99944,1.99944,0,0,1,2-2Zm-18.96.2h-6a1.08553,1.08553,0,0,0-.25.04.84468.84468,0,0,0-.17.05.91474.91474,0,0,0-.17.09.65491.65491,0,0,0-.18.15.84461.84461,0,0,0-.15.18c-.03.05-.06.11-.09.17a.983.983,0,0,0-.05.16.83057.83057,0,0,0-.03.27v6a1.0134,1.0134,0,0,0,.08.42c.03.06.06.12.09.17a1.294,1.294,0,0,0,.33.33c.05.03.11.06.17.09a.84468.84468,0,0,0,.17.05.7267.7267,0,0,0,.25.04h6a1.003,1.003,0,0,0,.43-.09,1.08961,1.08961,0,0,0,.35-.24.65491.65491,0,0,0,.15-.18.91474.91474,0,0,0,.09-.17A1.02349,1.02349,0,0,0,25,34.9v-6a1.25885,1.25885,0,0,0-.04-.27.983.983,0,0,0-.05-.16,1.786,1.786,0,0,0-.08-.16h0a1.42167,1.42167,0,0,0-.16-.19.84461.84461,0,0,0-.18-.15.91474.91474,0,0,0-.17-.09A1.003,1.003,0,0,0,23.89,27.79Zm-2.2,2.11v1.19h1.2a.805.805,0,0,1,0,1.61h-1.2v1.2a.8.8,0,1,1-1.6,0V32.7h-1.2a.805.805,0,0,1,0-1.61h1.2V29.9a.80006.80006,0,1,1,1.6,0Zm21.36-.31a.20059.20059,0,0,0-.2-.2h-12a.20059.20059,0,0,0-.2.2v4a.20059.20059,0,0,0,.2.2h12a.20059.20059,0,0,0,.2-.2Z"/></svg>