<svg viewBox="0 0 40 40" xmlns="http://www.w3.org/2000/svg" xmlns:xlink="http://www.w3.org/1999/xlink" width="40.000000" height="40.000000" fill="none">
	<rect id="树图" width="40.000000" height="40.000000" x="0.000000" y="0.000000" />
	<path id="矢量 722" d="M33.0745 5.40422C33.3395 4.36695 34.2801 3.60001 35.4 3.60001C36.7255 3.60001 37.8 4.67453 37.8 6C37.8 7.3255 36.7255 8.39999 35.4 8.39999C34.2833 8.39999 33.3447 7.63736 33.0768 6.60449C32.5869 6.61685 32.0932 6.65429 31.5957 6.7168C30.7942 6.81747 30.0417 6.97714 29.3383 7.1958C28.4698 7.4657 27.7025 7.81796 27.0361 8.25253Q25.9018 8.99237 24.5371 9.44647C24.4824 9.46469 24.4274 9.48253 24.3723 9.5C24.4274 9.51747 24.4824 9.53531 24.5371 9.55353Q25.9018 10.0076 27.0361 10.7475C27.7025 11.182 28.4698 11.5343 29.3383 11.8042C30.0417 12.0229 30.7942 12.1825 31.5957 12.2832C32.0932 12.3457 32.5869 12.3831 33.0768 12.3955C33.3447 11.3627 34.2833 10.6 35.4 10.6C36.7255 10.6 37.8 11.6745 37.8 13C37.8 14.3255 36.7255 15.4 35.4 15.4C34.2801 15.4 33.3395 14.6331 33.0745 13.5958C32.5355 13.5832 31.9927 13.5425 31.446 13.4738C30.5745 13.3643 29.7532 13.1898 28.9821 12.9501C28.0073 12.6472 27.1401 12.248 26.3806 11.7526C25.7108 11.3158 24.9701 10.9623 24.1582 10.6922C23.5043 10.4745 22.8197 10.3157 22.1044 10.2157C21.9933 10.2002 21.8827 10.1862 21.7727 10.1738C21.4507 11.1196 20.5548 11.8 19.5001 11.8C18.5647 11.8 17.7543 11.2649 17.3583 10.4841C17.2608 10.5558 17.1398 10.5984 17.0072 10.5999C16.9199 10.601 16.8051 10.6211 16.6626 10.6603C16.4928 10.707 16.3065 10.7756 16.1036 10.866C15.6293 11.0774 15.1494 11.3665 14.6639 11.7334C14.4503 11.8949 14.2446 12.0651 14.0469 12.244C13.7218 12.538 13.418 12.8556 13.1356 13.1968C12.7173 13.7021 12.3628 14.2401 12.0721 14.8105C11.9999 14.9524 11.9315 15.0963 11.8671 15.2422C11.7434 15.5225 11.6082 15.7964 11.4612 16.064C11.1736 16.5877 10.8416 17.0869 10.465 17.5618C9.97791 18.1759 9.43738 18.7242 8.84338 19.2068C8.83789 19.2113 8.83228 19.2158 8.82666 19.2204C8.75037 19.2821 8.67419 19.342 8.59815 19.4L17 19.4C17.0592 19.4 17.1161 19.4082 17.1698 19.4235C17.4279 18.3765 18.3733 17.6 19.5001 17.6C20.6184 17.6 21.5581 18.3649 21.8245 19.4L33 19.4C33.0253 19.4 33.0501 19.4015 33.0745 19.4044C33.3394 18.367 34.2801 17.6 35.4 17.6C36.7255 17.6 37.8 18.6745 37.8 20C37.8 21.3255 36.7255 22.4 35.4 22.4C34.2801 22.4 33.3394 21.633 33.0745 20.5956C33.0501 20.5985 33.0253 20.6 33 20.6L21.8245 20.6C21.5581 21.6351 20.6184 22.4 19.5001 22.4C18.3733 22.4 17.4279 21.6235 17.1698 20.5765C17.1161 20.5918 17.0592 20.6 17 20.6L8.60784 20.6C8.68387 20.6577 8.76003 20.7173 8.8363 20.7787C8.87073 20.8064 8.90491 20.8343 8.93896 20.8624C9.50256 21.3279 10.0171 21.8529 10.4824 22.4373C10.8759 22.9314 11.2207 23.4519 11.5166 23.9987C11.6506 24.2464 11.7748 24.4994 11.8888 24.7578Q11.9894 24.986 12.1029 25.2076Q12.1119 25.2251 12.121 25.2427C12.4062 25.7938 12.7507 26.3143 13.1545 26.8041C13.457 27.1709 13.7838 27.5104 14.1349 27.8226C14.3092 27.9776 14.4896 28.1259 14.6759 28.2674C15.1589 28.6343 15.6362 28.9233 16.1079 29.1344C16.3097 29.2247 16.495 29.2932 16.6639 29.3398C16.8058 29.3789 16.9202 29.399 17.0072 29.4001C17.1238 29.4014 17.2313 29.4345 17.3218 29.4911C17.7029 28.6697 18.535 28.1 19.5001 28.1C20.5904 28.1 21.5109 28.827 21.8032 29.8227C21.9032 29.8112 22.0036 29.7984 22.1044 29.7843C22.8197 29.6843 23.5043 29.5255 24.1582 29.3078C24.9701 29.0377 25.7108 28.6842 26.3806 28.2474C27.1401 27.752 28.0073 27.3528 28.9821 27.0499C29.7532 26.8102 30.5745 26.6357 31.446 26.5262C31.9927 26.4575 32.5355 26.4168 33.0745 26.4042C33.3395 25.3669 34.2801 24.6 35.4 24.6C36.7255 24.6 37.8 25.6745 37.8 27C37.8 28.3255 36.7255 29.4 35.4 29.4C34.2833 29.4 33.3447 28.6374 33.0768 27.6045C32.5869 27.6169 32.0932 27.6543 31.5957 27.7168C30.7942 27.8175 30.0417 27.9771 29.3383 28.1958C28.4698 28.4657 27.7025 28.818 27.0361 29.2525Q25.9018 29.9924 24.5371 30.4465C24.4824 30.4647 24.4274 30.4825 24.3723 30.5C24.4274 30.5175 24.4824 30.5353 24.5371 30.5535Q25.9018 31.0076 27.0361 31.7475C27.7025 32.182 28.4698 32.5343 29.3383 32.8042C30.0417 33.0229 30.7942 33.1825 31.5957 33.2832C32.0932 33.3457 32.5869 33.3831 33.0768 33.3955C33.3447 32.3627 34.2833 31.6 35.4 31.6C36.7255 31.6 37.8 32.6745 37.8 34C37.8 35.3255 36.7255 36.4 35.4 36.4C34.2801 36.4 33.3395 35.6331 33.0745 34.5958C32.5355 34.5832 31.9927 34.5425 31.446 34.4738C30.5745 34.3643 29.7532 34.1898 28.9821 33.9501C28.0073 33.6472 27.1401 33.248 26.3806 32.7526C25.7108 32.3158 24.9701 31.9623 24.1582 31.6922C23.5043 31.4745 22.8197 31.3157 22.1044 31.2157C22.0036 31.2016 21.9032 31.1888 21.8032 31.1773C21.5109 32.173 20.5904 32.9 19.5001 32.9C18.2053 32.9 17.1501 31.8748 17.1018 30.5918C17.0665 30.5976 17.0302 30.6004 16.9929 30.6C16.6176 30.5955 16.1592 30.4721 15.6177 30.2297C15.0621 29.9811 14.5063 29.6455 13.9501 29.223C13.7268 29.0534 13.5112 28.8753 13.3032 28.6888C12.9189 28.344 12.5608 27.9703 12.2288 27.5675C11.7898 27.0351 11.4124 26.4703 11.0963 25.873C10.9872 25.6666 10.8854 25.4564 10.7909 25.2423C10.6976 25.0309 10.5968 24.8236 10.4883 24.6203C10.2198 24.117 9.90503 23.6385 9.5437 23.1848C9.1062 22.6354 8.62061 22.1458 8.08691 21.7159L8.08398 21.7136C7.62817 21.3468 7.18359 21.0582 6.75024 20.848C6.56848 20.7598 6.40442 20.6938 6.25818 20.6498C6.24312 20.6453 6.22858 20.6411 6.21455 20.6372C5.93541 21.6534 5.00487 22.4 3.90002 22.4C2.57446 22.4 1.5 21.3255 1.5 20C1.5 18.6745 2.57446 17.6 3.90002 17.6C5.00479 17.6 5.93528 18.3465 6.21449 19.3626C6.22808 19.3588 6.24216 19.3547 6.25671 19.3503C6.4021 19.3065 6.56519 19.2406 6.74585 19.1525Q7.39185 18.8376 8.0719 18.2874C8.60376 17.8572 9.08801 17.3668 9.52466 16.8161C9.86938 16.3815 10.1721 15.924 10.4326 15.4436C10.554 15.2199 10.6661 14.9913 10.7693 14.7577C10.8558 14.5616 10.9485 14.3688 11.0475 14.1793C11.3695 13.5623 11.7574 12.9798 12.2112 12.4316C12.5233 12.0545 12.8586 11.7028 13.217 11.3765C13.4485 11.1658 13.6896 10.9656 13.9404 10.7761C14.4989 10.354 15.0571 10.0186 15.6152 9.7699Q16.4301 9.40671 16.9929 9.40002C17.0296 9.39959 17.0654 9.40231 17.1001 9.40793L17.1001 9.39999C17.1001 8.07452 18.1746 7 19.5001 7C20.6255 7 21.57 7.77456 21.8295 8.81965C21.9208 8.80893 22.0124 8.79714 22.1044 8.78427C22.8197 8.68427 23.5043 8.52545 24.1582 8.30783C24.9701 8.03772 25.7108 7.68423 26.3806 7.24744C27.1401 6.75201 28.0073 6.35281 28.9821 6.04987C29.7532 5.81021 30.5745 5.63565 31.446 5.52615C31.9927 5.45748 32.5355 5.41684 33.0745 5.40422Z" fill="rgb(128,128,128)" fill-rule="evenodd" />
</svg>
