<svg viewBox="0 0 40 40" xmlns="http://www.w3.org/2000/svg" xmlns:xlink="http://www.w3.org/1999/xlink" width="40.000000" height="40.000000" fill="none">
	<rect id="大纲树" width="40.000000" height="40.000000" x="0.000000" y="0.000000" fill="rgb(255,255,255)" fill-opacity="0" />
	<path id="矢量 548" d="M23 6.60001C23 5.6059 22.1941 4.8 21.2 4.8L4.80005 4.8C3.80591 4.8 3 5.6059 3 6.60001L3 10.5C3 11.4941 3.80591 12.3 4.80005 12.3L7.69995 12.3L7.69995 30.8C7.69995 30.9292 7.71326 31.0555 7.73975 31.1789C7.76331 31.2885 7.79724 31.3958 7.84167 31.5009C7.88574 31.6049 7.93848 31.7032 7.99988 31.7957C8.06567 31.8947 8.14136 31.987 8.22717 32.0728C8.31287 32.1585 8.40527 32.2343 8.50427 32.3001C8.5968 32.3615 8.69507 32.4142 8.79907 32.4582C8.90417 32.5027 9.01147 32.5367 9.12097 32.5602C9.24451 32.5867 9.37073 32.6 9.5 32.6L14.5 32.6C14.948 32.6 15.2999 32.248 15.2999 31.8C15.2999 31.352 14.948 31 14.5 31L9.5 31C9.47229 31 9.44678 30.9951 9.42322 30.9854C9.39966 30.9756 9.37805 30.961 9.35852 30.9414Q9.32922 30.9121 9.31458 30.8768C9.30481 30.8532 9.29993 30.8276 9.29993 30.8L9.29993 20.8L14.5 20.8C14.948 20.8 15.3 20.448 15.3 20C15.3 19.552 14.948 19.2 14.5 19.2L9.29993 19.2L9.29993 12.3L21.2 12.3C22.1941 12.3 23 11.4941 23 10.5L23 6.60001ZM4.80005 6.40001L21.2 6.40001C21.2277 6.40001 21.2532 6.40489 21.2767 6.41464C21.3003 6.42441 21.3219 6.43906 21.3414 6.45859Q21.3706 6.48778 21.3853 6.52302L21.3854 6.52322C21.3951 6.5468 21.4 6.57239 21.4 6.60001L21.4 10.5C21.4 10.5276 21.3951 10.5532 21.3854 10.5768L21.3853 10.577Q21.3706 10.6122 21.3414 10.6414C21.3219 10.6609 21.3003 10.6756 21.2767 10.6854C21.2532 10.6951 21.2277 10.7 21.2 10.7L4.80005 10.7C4.77234 10.7 4.74683 10.6951 4.72327 10.6854C4.69971 10.6756 4.6781 10.6609 4.65857 10.6414Q4.62936 10.6122 4.61471 10.577L4.61462 10.5768C4.60486 10.5532 4.59998 10.5276 4.59998 10.5L4.59998 6.60001C4.59998 6.57239 4.60486 6.5468 4.61462 6.52322L4.61471 6.52302Q4.62936 6.48778 4.65857 6.45859C4.6781 6.43906 4.69971 6.42441 4.72327 6.41464C4.74683 6.40489 4.77234 6.40001 4.80005 6.40001ZM35.2 16.3C36.1941 16.3 37 17.1059 37 18.1L37 22C37 22.9941 36.1941 23.8 35.2 23.8L18.8 23.8C17.8059 23.8 17 22.9941 17 22L17 18.1C17 17.1059 17.8059 16.3 18.8 16.3L35.2 16.3ZM35.2 17.9L18.8 17.9C18.7723 17.9 18.7468 17.9049 18.7233 17.9146C18.6997 17.9244 18.6781 17.9391 18.6586 17.9586Q18.6294 17.9878 18.6147 18.023L18.6147 18.023L18.6146 18.0232C18.6049 18.0468 18.6 18.0724 18.6 18.1L18.6 22C18.6 22.0276 18.6049 22.0532 18.6146 22.0768L18.6147 22.077L18.6147 22.077Q18.6294 22.1123 18.6586 22.1414C18.6781 22.1609 18.6997 22.1756 18.7233 22.1854C18.7468 22.1951 18.7723 22.2 18.8 22.2L35.2 22.2C35.2277 22.2 35.2532 22.1951 35.2767 22.1854C35.3003 22.1756 35.3219 22.1609 35.3414 22.1414Q35.3706 22.1123 35.3853 22.077L35.3853 22.077L35.3854 22.0768C35.3951 22.0532 35.4 22.0276 35.4 22L35.4 18.1C35.4 18.0724 35.3951 18.0468 35.3854 18.0232L35.3853 18.023L35.3852 18.0228Q35.3706 17.9877 35.3414 17.9586C35.3219 17.9391 35.3003 17.9244 35.2767 17.9146C35.2532 17.9049 35.2277 17.9 35.2 17.9ZM37 29.6C37 28.6059 36.1941 27.8 35.2 27.8L18.8 27.8C17.8059 27.8 17 28.6059 17 29.6L17 33.5C17 34.4941 17.8059 35.3 18.8 35.3L35.2 35.3C36.1941 35.3 37 34.4941 37 33.5L37 29.6ZM18.8 29.4L35.2 29.4C35.2277 29.4 35.2532 29.4049 35.2767 29.4146C35.3003 29.4244 35.3219 29.4391 35.3414 29.4586Q35.3706 29.4878 35.3853 29.523L35.3853 29.523L35.3854 29.5232C35.3951 29.5468 35.4 29.5724 35.4 29.6L35.4 33.5C35.4 33.5276 35.3951 33.5532 35.3854 33.5768L35.3853 33.577L35.3853 33.577Q35.3706 33.6123 35.3414 33.6414C35.3219 33.6609 35.3003 33.6756 35.2767 33.6854C35.2532 33.6951 35.2277 33.7 35.2 33.7L18.8 33.7C18.7723 33.7 18.7468 33.6951 18.7233 33.6854C18.6997 33.6756 18.6781 33.6609 18.6586 33.6414Q18.6294 33.6123 18.6147 33.577L18.6147 33.577L18.6146 33.5768C18.6049 33.5532 18.6 33.5276 18.6 33.5L18.6 29.6C18.6 29.5724 18.6049 29.5468 18.6146 29.5232L18.6147 29.523L18.6147 29.523Q18.6294 29.4878 18.6586 29.4586C18.6781 29.4391 18.6997 29.4244 18.7233 29.4146C18.7468 29.4049 18.7723 29.4 18.8 29.4Z" fill="currentColor" fill-rule="evenodd" />
</svg>
