<svg
	viewBox="0 0 16 16"
	xmlns="http://www.w3.org/2000/svg"
	xmlns:xlink="http://www.w3.org/1999/xlink"
	width="16.000000"
	height="16.000000"
	fill="none"
>
	<rect id="导入" width="16.000000" height="16.000000" x="0.000000" y="0.000000" />
	<rect id="下载-download" width="16.000000" height="16.000000" x="0.000000" y="0.000000" />
	<path
		id="形状结合"
		d="M14 10.4992C14.2761 10.4992 14.5 10.7231 14.5 10.9992L14.5 12.2829C14.5 13.507 13.5077 14.4992 12.2837 14.4992L3.71633 14.4992C2.49229 14.4992 1.5 13.507 1.5 12.2829L1.5 10.9992C1.5 10.7231 1.72386 10.4992 2 10.4992C2.27614 10.4992 2.5 10.7231 2.5 10.9992L2.5 12.2829C2.5 12.9547 3.04457 13.4992 3.71633 13.4992L12.2837 13.4992C12.9554 13.4992 13.5 12.9547 13.5 12.2829L13.5 10.9992C13.5 10.7231 13.7239 10.4992 14 10.4992ZM8.04492 2.10156C8.32106 2.10156 8.54492 2.32542 8.54492 2.60156L8.54467 10.8802L10.4749 8.95028C10.6484 8.77671 10.9179 8.75743 11.1127 8.89243L11.182 8.95028C11.3772 9.14554 11.3772 9.46213 11.182 9.65739L8.35355 12.4858C8.15829 12.6811 7.84171 12.6811 7.64645 12.4858L4.81802 9.65739C4.62276 9.46213 4.62276 9.14554 4.81802 8.95028C5.01328 8.75502 5.32986 8.75502 5.52513 8.95028L7.54467 10.9696L7.54492 2.60156C7.54492 2.32542 7.76878 2.10156 8.04492 2.10156Z"
		fill="currentColor"
		fill-rule="nonzero"
	/>
</svg>