<?xml version="1.0" encoding="utf-8"?>
<!-- Generator: Adobe Illustrator 26.0.2, SVG Export Plug-In . SVG Version: 6.00 Build 0)  -->
<svg version="1.1" id="图层_1" xmlns="http://www.w3.org/2000/svg" xmlns:xlink="http://www.w3.org/1999/xlink" x="0px" y="0px"
	 viewBox="0 0 48 48" style="enable-background:new 0 0 48 48;" xml:space="preserve">
<style type="text/css">
	.st0{fill-rule:evenodd;clip-rule:evenodd;fill:currentColor;}
</style>
<desc>Created with Pixso.</desc>
<path id="矢量_194" class="st0" d="M39,8c2.2,0,4,1.8,4,4v24c0,2.2-1.8,4-4,4H9c-2.2,0-4-1.8-4-4V12c0-2.2,1.8-4,4-4H39z M39,9.8
	c1.2,0,2.2,1,2.2,2.2v24c0,1.2-1,2.2-2.2,2.2H9c-1.2,0-2.2-1-2.2-2.2V12c0-1.2,1-2.2,2.2-2.2H39z M20.5,17.1l10,5.5
	c1,0.6,1,2.1,0,2.6l-10,5.5c-1,0.5-2.2-0.2-2.2-1.3V18.5C18.3,17.3,19.5,16.6,20.5,17.1z"/>
</svg>
