<svg viewBox="0 0 40 40" xmlns="http://www.w3.org/2000/svg" xmlns:xlink="http://www.w3.org/1999/xlink" width="40.000000" height="40.000000" fill="none">
	<rect id="视频" width="40.000000" height="40.000000" x="0.000000" y="0.000000" fill="rgb(255,255,255)" fill-opacity="0" />
	<path id="矢量 572" d="M37.5 9.4C37.5 6.96995 35.53 5 33.1 5L6.90002 5C4.46997 5 2.5 6.96995 2.5 9.4L2.5 30.6C2.5 33.0301 4.46997 35 6.90002 35L33.1 35C35.53 35 37.5 33.0301 37.5 30.6L37.5 9.4ZM6.90002 6.6L33.1 6.6C33.3223 6.6 33.5387 6.62497 33.7491 6.6749L33.7494 6.67494C33.899 6.71046 34.0457 6.75861 34.1895 6.81938C34.3406 6.88332 34.484 6.95923 34.6198 7.04709C34.7845 7.15379 34.938 7.27813 35.08 7.4201C35.2219 7.56213 35.3463 7.71558 35.453 7.88045C35.5409 8.0161 35.6167 8.15948 35.6807 8.31061C35.7415 8.45432 35.7896 8.60103 35.8251 8.75074C35.875 8.96124 35.9 9.17766 35.9 9.4L35.9 30.6C35.9 30.8222 35.875 31.0386 35.8252 31.249C35.7897 31.3988 35.7415 31.5456 35.6807 31.6894C35.6167 31.8406 35.5408 31.9841 35.4529 32.1198C35.3462 32.2846 35.2218 32.4379 35.08 32.5799C34.938 32.7218 34.7845 32.8462 34.6199 32.9528L34.6198 32.9529C34.484 33.0408 34.3406 33.1167 34.1895 33.1806C34.0457 33.2414 33.8989 33.2896 33.7491 33.3251C33.5387 33.375 33.3223 33.4 33.1 33.4L6.90002 33.4C6.67773 33.4 6.4613 33.375 6.25085 33.3251C6.10107 33.2896 5.95435 33.2414 5.81055 33.1806C5.65942 33.1167 5.51599 33.0408 5.38025 32.9529C5.21545 32.8462 5.06201 32.7219 4.92004 32.5799C4.77808 32.4379 4.65381 32.2845 4.54712 32.1197L4.547 32.1195C4.45911 31.9839 4.3833 31.8405 4.31934 31.6894C4.25854 31.5456 4.21045 31.3989 4.17493 31.2491C4.125 31.0387 4.09998 30.8223 4.09998 30.6L4.09998 9.4C4.09998 9.17769 4.125 8.9613 4.17493 8.75084C4.21045 8.6011 4.25854 8.45435 4.31934 8.31061C4.3833 8.15943 4.45923 8.01599 4.54712 7.8803L4.54712 7.88029C4.65381 7.71548 4.77808 7.56208 4.92004 7.4201C5.06213 7.27812 5.21545 7.15379 5.38025 7.04708L5.38025 7.04707Q5.38346 7.04499 5.38669 7.04292Q5.58744 6.91378 5.81055 6.81938C5.95435 6.75858 6.10107 6.71042 6.25085 6.6749C6.4613 6.62497 6.67773 6.6 6.90002 6.6ZM26.5842 18.7038L17.1688 13.6598C16.1892 13.135 15.0039 13.8447 15.0039 14.956L15.0039 25.044C15.0039 26.1553 16.1892 26.865 17.1688 26.3402L26.5842 21.2962C27.6191 20.7419 27.6191 19.2581 26.5842 18.7038Z" fill="currentColor" fill-rule="evenodd" />
</svg>
