<svg viewBox="0 0 40 40" xmlns="http://www.w3.org/2000/svg" xmlns:xlink="http://www.w3.org/1999/xlink" width="40.000000" height="40.000000" fill="none">
	<rect id="瀑布图" width="40.000000" height="40.000000" x="0.000000" y="0.000000" />
	<path id="矢量 696" d="M4.04993 34.75L4.04993 5C4.04993 4.552 3.698 4.20001 3.25 4.20001C2.802 4.20001 2.44995 4.552 2.44995 5L2.44995 34.75C2.44995 34.8979 2.46521 35.0426 2.49573 35.1839C2.52258 35.3079 2.56104 35.4293 2.61133 35.5482Q2.68526 35.723 2.7881 35.8787L2.79077 35.8828C2.86584 35.996 2.95239 36.1016 3.05042 36.1996C3.14844 36.2976 3.25403 36.3841 3.36719 36.4592C3.47217 36.5289 3.58374 36.5887 3.70178 36.6386Q3.87758 36.7129 4.06088 36.7531L4.06209 36.7533L4.06215 36.7533L4.06616 36.7542C4.2074 36.7847 4.35205 36.8 4.5 36.8L37 36.8C37.448 36.8 37.7999 36.448 37.7999 36C37.7999 35.552 37.448 35.2 37 35.2L4.5 35.2C4.43787 35.2 4.38025 35.189 4.32727 35.1671C4.27417 35.1451 4.22571 35.1122 4.18176 35.0682C4.13782 35.0243 4.10486 34.9758 4.08289 34.9228L4.08283 34.9226Q4.04993 34.8431 4.04993 34.75ZM23.202 8.75L23.202 18C23.202 18.448 23.554 18.8 24.002 18.8C24.45 18.8 24.802 18.448 24.802 18L24.802 8.75C24.802 8.302 24.45 7.95001 24.002 7.95001C23.554 7.95001 23.202 8.302 23.202 8.75ZM29.452 11.75L29.452 23C29.452 23.448 29.804 23.8 30.252 23.8C30.7 23.8 31.052 23.448 31.052 23L31.052 11.75C31.052 11.302 30.7 10.95 30.252 10.95C29.804 10.95 29.452 11.302 29.452 11.75ZM16.952 22L16.952 14.75C16.952 14.302 17.304 13.95 17.752 13.95C18.2 13.95 18.552 14.302 18.552 14.75L18.552 22C18.552 22.448 18.2 22.8 17.752 22.8C17.304 22.8 16.952 22.448 16.952 22ZM10.702 29L10.702 15C10.702 14.552 11.054 14.2 11.502 14.2C11.95 14.2 12.302 14.552 12.302 15L12.302 29C12.302 29.448 11.95 29.8 11.502 29.8C11.054 29.8 10.702 29.448 10.702 29Z" fill="currentColor" fill-rule="evenodd" />
</svg>
