<svg viewBox="0 0 40 40" xmlns="http://www.w3.org/2000/svg" xmlns:xlink="http://www.w3.org/1999/xlink" width="40.000000" height="40.000000" fill="none">
	<rect id="词云图" width="40.000000" height="40.000000" x="0.000000" y="0.000000" />
	<path id="矢量 709" d="M15.8965 15.9312L15.8965 7.39999L18.7149 7.39999C19.4782 7.39999 20.1409 7.56815 20.703 7.90442C20.9376 8.04486 21.1549 8.2146 21.3545 8.41367C21.5749 8.63342 21.7594 8.8736 21.9081 9.13422C22.2168 9.67511 22.3711 10.3041 22.3711 11.0211L22.3711 12.316C22.3711 13.0456 22.2126 13.6828 21.8953 14.2277C21.7488 14.4793 21.5686 14.7112 21.3545 14.9234C21.159 15.1173 20.9466 15.2832 20.7174 15.4211C20.1522 15.7612 19.4846 15.9312 18.7149 15.9312L15.8965 15.9312ZM25.3594 12.0934L28.6993 12.0934L28.6993 10.9508L25.3594 10.9508L25.3594 8.54257L29.2559 8.54257L29.2559 7.39999L23.9356 7.39999L23.9356 15.9312L29.2969 15.9312L29.2969 14.7945L25.3594 14.7945L25.3594 12.0934ZM35.4434 12.2926L32.0039 12.2926L32.0039 15.9312L30.5801 15.9312L30.5801 7.39999L36.0411 7.39999L36.0411 8.54257L32.0039 8.54257L32.0039 11.15L35.4434 11.15L35.4434 12.2926ZM17.3203 8.54257L17.3203 14.7945L18.7149 14.7945C19.1629 14.7945 19.5504 14.6951 19.8777 14.4963C20.0497 14.3918 20.2051 14.2597 20.3438 14.1002C20.413 14.0205 20.4763 13.937 20.5336 13.8495C20.8094 13.4286 20.9473 12.9175 20.9473 12.316L20.9473 11.0094C20.9473 10.428 20.8157 9.93027 20.5524 9.5163C20.4903 9.41849 20.4207 9.32538 20.3438 9.23691C20.2051 9.07736 20.0497 8.94534 19.8777 8.84079C19.5504 8.64197 19.1629 8.54257 18.7149 8.54257L17.3203 8.54257ZM36.6006 28.2691L36.5831 28.2164L34.5264 28.2164C34.5264 29.0278 34.3249 29.6598 33.9219 30.1124C33.8971 30.1403 33.8716 30.1674 33.8453 30.1939C33.8233 30.2161 33.8007 30.2377 33.7778 30.2588C33.3263 30.6726 32.6852 30.8795 31.8545 30.8795C31.3705 30.8795 30.9419 30.7778 30.5688 30.5746C30.2552 30.4037 29.9806 30.1611 29.7452 29.8468C29.7328 29.8302 29.7205 29.8136 29.7084 29.7968C29.2173 29.1162 28.9717 28.2583 28.9717 27.2232L28.9717 24.7711C28.9717 23.7461 29.2138 22.8932 29.6978 22.2123C29.709 22.1965 29.7205 22.1808 29.732 22.1651C29.9765 21.8329 30.263 21.5809 30.5915 21.409C30.9438 21.2246 31.3443 21.1324 31.793 21.1324C32.6769 21.1324 33.3501 21.3532 33.8125 21.7947C33.8191 21.8009 33.8256 21.8072 33.8321 21.8136C33.8715 21.8523 33.9093 21.8925 33.9455 21.9341C34.3328 22.3808 34.5264 22.9954 34.5264 23.7779L36.5918 23.7779L36.6094 23.7252C36.6259 22.7872 36.4235 21.9893 36.0024 21.3315C35.8237 21.0524 35.6056 20.7986 35.3482 20.5699C35.3183 20.5433 35.2879 20.5172 35.2572 20.4915C34.4014 19.7762 33.2467 19.4185 31.793 19.4185C30.8887 19.4185 30.0896 19.6096 29.3958 19.9917C28.9612 20.2311 28.5679 20.5454 28.2159 20.9347C27.989 21.1855 27.7904 21.4531 27.6199 21.7376C27.1032 22.5998 26.8448 23.6168 26.8448 24.7887L26.8448 27.2232C26.8448 28.3936 27.1038 29.4074 27.622 30.2646C27.7964 30.5532 28.0003 30.8241 28.2334 31.0772C28.5749 31.4478 28.9545 31.75 29.3724 31.9839C30.0877 32.3843 30.9151 32.5846 31.8545 32.5846C33.1565 32.5846 34.2203 32.2709 35.0455 31.6436C35.1486 31.5652 35.2481 31.4819 35.3438 31.3936C35.653 31.1087 35.9051 30.7918 36.1003 30.443C36.4489 29.8201 36.6156 29.0955 36.6006 28.2691ZM6.47168 29.4117L11.0068 29.4117L11.9824 32.4L14.1885 32.4L9.77638 19.6031L7.7461 19.6031L3.28125 32.4L5.48731 32.4L6.47168 29.4117ZM15.7705 32.4L15.7705 19.6031L19.9629 19.6031Q22.0811 19.6031 23.2764 20.4776C23.5221 20.6574 23.73 20.8646 23.8999 21.0993C24.2812 21.6256 24.4717 22.29 24.4717 23.0924C24.4717 23.4004 24.4239 23.6917 24.3282 23.9663C24.2489 24.1932 24.1372 24.4088 23.9927 24.6129C23.9391 24.6886 23.882 24.7612 23.8214 24.8308C23.5209 25.176 23.1342 25.4462 22.6612 25.6412C23.2736 25.7418 23.7807 25.9649 24.1824 26.3104C24.3188 26.4277 24.443 26.5591 24.5552 26.7047C24.708 26.903 24.8344 27.1133 24.9345 27.3354C25.1241 27.7563 25.2188 28.2199 25.2188 28.7262C25.2188 29.6031 25.0096 30.3262 24.5911 30.8956C24.4363 31.106 24.253 31.2955 24.041 31.464Q22.8633 32.4 20.7891 32.4L15.7705 32.4ZM17.9063 24.9908L20.1914 24.9908C20.8535 24.9908 21.3765 24.8341 21.7603 24.5206C21.8771 24.4251 21.9762 24.3176 22.0575 24.1979C22.2432 23.9247 22.336 23.5884 22.336 23.1891C22.336 22.7053 22.2178 22.3166 21.9816 22.0229C21.9088 21.9324 21.8247 21.8509 21.7295 21.7784Q21.1231 21.317 19.9629 21.317L17.9063 21.317L17.9063 24.9908ZM10.4268 27.6275L7.06055 27.6275L8.73048 22.5826L8.78321 22.5826L10.4268 27.6275ZM17.9063 26.5816L17.9063 30.6949L20.7891 30.6949Q21.8965 30.6949 22.4942 30.1895C22.5852 30.1125 22.6659 30.0277 22.7361 29.9349C22.9733 29.6218 23.0918 29.2189 23.0918 28.7262C23.0918 28.2364 22.9784 27.8227 22.7517 27.4852C22.6802 27.3786 22.5972 27.2795 22.503 27.1881C22.4824 27.1682 22.4615 27.1487 22.4401 27.1298C22.0524 26.7866 21.5225 26.6039 20.8506 26.5816L17.9063 26.5816Z" fill="rgb(128,128,128)" fill-rule="evenodd" />
</svg>
