<svg viewBox="0 0 16 16" xmlns="http://www.w3.org/2000/svg" xmlns:xlink="http://www.w3.org/1999/xlink" width="16.000000" height="16.000000" fill="none">
	<rect id="应用-application 1" width="16.000000" height="16.000000" x="0.000000" y="0.000000" />
	<rect id="应用-application" width="16.000000" height="16.000000" x="0.000000" y="0.000000" />
	<path id="形状结合" d="M5.5 1.5L3.5 1.5C2.4 1.5 1.5 2.4 1.5 3.5L1.5 5.5C1.5 6.6 2.4 7.5 3.5 7.5L5.5 7.5C6.6 7.5 7.5 6.6 7.5 5.5L7.5 3.5C7.5 2.4 6.6 1.5 5.5 1.5ZM5.5 2.5C5.77 2.48 6.04 2.58 6.23 2.77C6.42 2.96 6.52 3.23 6.5 3.5L6.5 5.5C6.52 5.77 6.42 6.04 6.23 6.23C6.04 6.42 5.77 6.52 5.5 6.5L3.5 6.5C3.23 6.52 2.96 6.42 2.77 6.23C2.58 6.04 2.48 5.77 2.5 5.5L2.5 3.5C2.48 3.23 2.58 2.96 2.77 2.77C2.96 2.58 3.23 2.48 3.5 2.5L5.5 2.5ZM5.5 8.5L3.5 8.5C2.4 8.5 1.5 9.4 1.5 10.5L1.5 12.5C1.5 13.6 2.4 14.5 3.5 14.5L5.5 14.5C6.6 14.5 7.5 13.6 7.5 12.5L7.5 10.5C7.5 9.4 6.6 8.5 5.5 8.5ZM5.5 9.5C5.77 9.48 6.04 9.58 6.23 9.77C6.42 9.96 6.52 10.23 6.5 10.5L6.5 12.5C6.52 12.77 6.42 13.04 6.23 13.23C6.04 13.42 5.77 13.52 5.5 13.5L3.5 13.5C3.23 13.52 2.96 13.42 2.77 13.23C2.58 13.04 2.48 12.77 2.5 12.5L2.5 10.5C2.48 10.23 2.58 9.96 2.77 9.77C2.96 9.58 3.23 9.48 3.5 9.5L5.5 9.5ZM12.5 1.5L10.5 1.5C9.4 1.5 8.5 2.4 8.5 3.5L8.5 5.5C8.5 6.6 9.4 7.5 10.5 7.5L12.5 7.5C13.6 7.5 14.5 6.6 14.5 5.5L14.5 3.5C14.5 2.4 13.6 1.5 12.5 1.5ZM12.5 2.5C12.77 2.48 13.04 2.58 13.23 2.77C13.42 2.96 13.52 3.23 13.5 3.5L13.5 5.5C13.52 5.77 13.42 6.04 13.23 6.23C13.04 6.42 12.77 6.52 12.5 6.5L10.5 6.5C10.23 6.52 9.96 6.42 9.77 6.23C9.58 6.04 9.48 5.77 9.5 5.5L9.5 3.5C9.48 3.23 9.58 2.96 9.77 2.77C9.96 2.58 10.23 2.48 10.5 2.5L12.5 2.5ZM12.5 8.5L10.5 8.5C9.4 8.5 8.5 9.4 8.5 10.5L8.5 12.5C8.5 13.6 9.4 14.5 10.5 14.5L12.5 14.5C13.6 14.5 14.5 13.6 14.5 12.5L14.5 10.5C14.5 9.4 13.6 8.5 12.5 8.5ZM12.5 9.5C12.77 9.48 13.04 9.58 13.23 9.77C13.42 9.96 13.52 10.23 13.5 10.5L13.5 12.5C13.52 12.77 13.42 13.04 13.23 13.23C13.04 13.42 12.77 13.52 12.5 13.5L10.5 13.5C10.23 13.52 9.96 13.42 9.77 13.23C9.58 13.04 9.48 12.77 9.5 12.5L9.5 10.5C9.48 10.23 9.58 9.96 9.77 9.77C9.96 9.58 10.23 9.48 10.5 9.5L12.5 9.5Z" fill="rgb(25,25,25)" fill-rule="nonzero" />
</svg>
