<svg
	viewBox="0 0 16 16"
	xmlns="http://www.w3.org/2000/svg"
	xmlns:xlink="http://www.w3.org/1999/xlink"
	width="16.000000"
	height="16.000000"
	fill="none"
>
	<rect id="左侧菜单-leftmenu 2" width="16.000000" height="16.000000" x="0.000000" y="0.000000" />
	<rect id="左侧菜单-leftmenu" width="16.000000" height="16.000000" x="0.000000" y="0.000000" />
	<path
		id="c"
		d="M2.46154 2.5L13.5385 2.5C13.7969 2.5 14 2.72 14 3C14 3.28 13.7969 3.5 13.5385 3.5L2.46154 3.5C2.20308 3.5 2 3.28 2 3C2 2.72 2.20308 2.5 2.46154 2.5ZM2.46154 7.5L13.5292 7.5C13.7877 7.5 13.9908 7.72 13.9908 8C13.9908 8.28 13.7877 8.5 13.5292 8.5L2.46154 8.5C2.20308 8.5 2 8.28 2 8C2 7.72 2.20308 7.5 2.46154 7.5ZM13.5385 12.5L2.46154 12.5C2.20308 12.5 2 12.72 2 13C2 13.28 2.20308 13.5 2.46154 13.5L13.5385 13.5C13.7969 13.5 14 13.28 14 13C14 12.72 13.7969 12.5 13.5385 12.5Z"
		fill="currentColor"
		fill-rule="evenodd"
	/>
</svg>
